  0
SECTION
  2
HEADER
  9
$ACADVER
  1
AC1009
  9
$EXTMIN
 10
0.0
 20
0.0
 30
0.0
  9
$EXTMAX
 10
1000.0
 20
1000.0
 30
0.0
  9
$FILLMODE
 70
 0
  9
$SPLFRAME
 70
 1
  0
ENDSEC
  0
SECTION
  2
TABLES
  0
TABLE
  2
LAYER
 70
1
  0
LAYER
  2
0
 70
     0
 62
     7
  6
CONTINUOUS
  0
ENDTAB
  0
ENDSEC
  0
SECTION
  2
ENTITIES
  0
LINE
  8
0
 62
     0
 10
0.0950846
 20
57.2477
 30
0.0
 11
238.22
 21
57.2477
 31
0.0
  0
LINE
  8
0
 62
     0
 10
238.22
 20
57.2477
 30
0.0
 11
238.22
 21
0.0978408
 31
0.0
  0
LINE
  8
0
 62
     0
 10
238.22
 20
0.0978408
 30
0.0
 11
0.0950846
 21
0.0978408
 31
0.0
  0
LINE
  8
0
 62
     0
 10
0.0950846
 20
0.0978408
 30
0.0
 11
0.0950846
 21
57.2477
 31
0.0
  0
LINE
  8
0
 62
     0
 10
2.61965
 20
16.6247
 30
0.0
 11
16.6192
 21
16.6247
 31
0.0
  0
LINE
  8
0
 62
     0
 10
16.6192
 20
16.6247
 30
0.0
 11
16.6192
 21
2.62378
 31
0.0
  0
LINE
  8
0
 62
     0
 10
16.6192
 20
2.62378
 30
0.0
 11
2.61965
 21
2.62378
 31
0.0
  0
LINE
  8
0
 62
     0
 10
2.61965
 20
2.62378
 30
0.0
 11
2.61965
 21
16.6247
 31
0.0
  0
LINE
  8
0
 62
     0
 10
21.6697
 20
16.6247
 30
0.0
 11
35.669
 21
16.6247
 31
0.0
  0
LINE
  8
0
 62
     0
 10
35.669
 20
16.6247
 30
0.0
 11
35.669
 21
2.62378
 31
0.0
  0
LINE
  8
0
 62
     0
 10
35.669
 20
2.62378
 30
0.0
 11
21.6697
 21
2.62378
 31
0.0
  0
LINE
  8
0
 62
     0
 10
21.6697
 20
2.62378
 30
0.0
 11
21.6697
 21
16.6247
 31
0.0
  0
LINE
  8
0
 62
     0
 10
40.7197
 20
16.6247
 30
0.0
 11
54.719
 21
16.6247
 31
0.0
  0
LINE
  8
0
 62
     0
 10
54.719
 20
16.6247
 30
0.0
 11
54.719
 21
2.62378
 31
0.0
  0
LINE
  8
0
 62
     0
 10
54.719
 20
2.62378
 30
0.0
 11
40.7197
 21
2.62378
 31
0.0
  0
LINE
  8
0
 62
     0
 10
40.7197
 20
2.62378
 30
0.0
 11
40.7197
 21
16.6247
 31
0.0
  0
LINE
  8
0
 62
     0
 10
59.7697
 20
16.6247
 30
0.0
 11
73.769
 21
16.6247
 31
0.0
  0
LINE
  8
0
 62
     0
 10
73.769
 20
16.6247
 30
0.0
 11
73.769
 21
2.62378
 31
0.0
  0
LINE
  8
0
 62
     0
 10
73.769
 20
2.62378
 30
0.0
 11
59.7697
 21
2.62378
 31
0.0
  0
LINE
  8
0
 62
     0
 10
59.7697
 20
2.62378
 30
0.0
 11
59.7697
 21
16.6247
 31
0.0
  0
LINE
  8
0
 62
     0
 10
78.8197
 20
16.6247
 30
0.0
 11
92.819
 21
16.6247
 31
0.0
  0
LINE
  8
0
 62
     0
 10
92.819
 20
16.6247
 30
0.0
 11
92.819
 21
2.62378
 31
0.0
  0
LINE
  8
0
 62
     0
 10
92.819
 20
2.62378
 30
0.0
 11
78.8197
 21
2.62378
 31
0.0
  0
LINE
  8
0
 62
     0
 10
78.8197
 20
2.62378
 30
0.0
 11
78.8197
 21
16.6247
 31
0.0
  0
LINE
  8
0
 62
     0
 10
97.8683
 20
16.6247
 30
0.0
 11
111.869
 21
16.6247
 31
0.0
  0
LINE
  8
0
 62
     0
 10
111.869
 20
16.6247
 30
0.0
 11
111.869
 21
2.62378
 31
0.0
  0
LINE
  8
0
 62
     0
 10
111.869
 20
2.62378
 30
0.0
 11
97.8683
 21
2.62378
 31
0.0
  0
LINE
  8
0
 62
     0
 10
97.8683
 20
2.62378
 30
0.0
 11
97.8683
 21
16.6247
 31
0.0
  0
LINE
  8
0
 62
     0
 10
116.918
 20
16.6247
 30
0.0
 11
130.919
 21
16.6247
 31
0.0
  0
LINE
  8
0
 62
     0
 10
130.919
 20
16.6247
 30
0.0
 11
130.919
 21
2.62378
 31
0.0
  0
LINE
  8
0
 62
     0
 10
130.919
 20
2.62378
 30
0.0
 11
116.918
 21
2.62378
 31
0.0
  0
LINE
  8
0
 62
     0
 10
116.918
 20
2.62378
 30
0.0
 11
116.918
 21
16.6247
 31
0.0
  0
LINE
  8
0
 62
     0
 10
135.97
 20
16.6247
 30
0.0
 11
149.969
 21
16.6247
 31
0.0
  0
LINE
  8
0
 62
     0
 10
149.969
 20
16.6247
 30
0.0
 11
149.969
 21
2.62378
 31
0.0
  0
LINE
  8
0
 62
     0
 10
149.969
 20
2.62378
 30
0.0
 11
135.97
 21
2.62378
 31
0.0
  0
LINE
  8
0
 62
     0
 10
135.97
 20
2.62378
 30
0.0
 11
135.97
 21
16.6247
 31
0.0
  0
LINE
  8
0
 62
     0
 10
157.496
 20
16.6247
 30
0.0
 11
171.496
 21
16.6247
 31
0.0
  0
LINE
  8
0
 62
     0
 10
171.496
 20
16.6247
 30
0.0
 11
171.496
 21
2.62378
 31
0.0
  0
LINE
  8
0
 62
     0
 10
171.496
 20
2.62378
 30
0.0
 11
157.496
 21
2.62378
 31
0.0
  0
LINE
  8
0
 62
     0
 10
157.496
 20
2.62378
 30
0.0
 11
157.496
 21
16.6247
 31
0.0
  0
LINE
  8
0
 62
     0
 10
189.5
 20
16.6247
 30
0.0
 11
203.501
 21
16.6247
 31
0.0
  0
LINE
  8
0
 62
     0
 10
203.501
 20
16.6247
 30
0.0
 11
203.501
 21
2.62378
 31
0.0
  0
LINE
  8
0
 62
     0
 10
203.501
 20
2.62378
 30
0.0
 11
189.5
 21
2.62378
 31
0.0
  0
LINE
  8
0
 62
     0
 10
189.5
 20
2.62378
 30
0.0
 11
189.5
 21
16.6247
 31
0.0
  0
LINE
  8
0
 62
     0
 10
225.812
 20
35.2502
 30
0.0
 11
225.812
 21
34.4248
 31
0.0
  0
LINE
  8
0
 62
     0
 10
225.812
 20
34.4248
 30
0.0
 11
219.542
 21
34.4248
 31
0.0
  0
LINE
  8
0
 62
     0
 10
219.542
 20
34.4248
 30
0.0
 11
219.542
 21
32.6995
 31
0.0
  0
LINE
  8
0
 62
     0
 10
219.542
 20
32.6995
 30
0.0
 11
218.562
 21
32.6995
 31
0.0
  0
LINE
  8
0
 62
     0
 10
218.562
 20
32.6995
 30
0.0
 11
218.562
 21
29.3991
 31
0.0
  0
LINE
  8
0
 62
     0
 10
218.562
 20
29.3991
 30
0.0
 11
219.542
 21
29.3991
 31
0.0
  0
LINE
  8
0
 62
     0
 10
219.542
 20
29.3991
 30
0.0
 11
219.542
 21
27.6738
 31
0.0
  0
LINE
  8
0
 62
     0
 10
219.542
 20
27.6738
 30
0.0
 11
224.012
 21
27.6738
 31
0.0
  0
LINE
  8
0
 62
     0
 10
224.012
 20
27.6738
 30
0.0
 11
224.012
 21
26.1497
 31
0.0
  0
LINE
  8
0
 62
     0
 10
224.012
 20
26.1497
 30
0.0
 11
219.313
 21
26.1497
 31
0.0
  0
LINE
  8
0
 62
     0
 10
219.313
 20
26.1497
 30
0.0
 11
219.313
 21
12.1502
 31
0.0
  0
LINE
  8
0
 62
     0
 10
219.313
 20
12.1502
 30
0.0
 11
224.012
 21
12.1502
 31
0.0
  0
LINE
  8
0
 62
     0
 10
224.012
 20
12.1502
 30
0.0
 11
224.012
 21
10.6233
 31
0.0
  0
LINE
  8
0
 62
     0
 10
224.012
 20
10.6233
 30
0.0
 11
219.542
 21
10.6233
 31
0.0
  0
LINE
  8
0
 62
     0
 10
219.542
 20
10.6233
 30
0.0
 11
219.542
 21
8.89938
 31
0.0
  0
LINE
  8
0
 62
     0
 10
219.542
 20
8.89938
 30
0.0
 11
218.562
 21
8.89938
 31
0.0
  0
LINE
  8
0
 62
     0
 10
218.562
 20
8.89938
 30
0.0
 11
218.562
 21
5.59897
 31
0.0
  0
LINE
  8
0
 62
     0
 10
218.562
 20
5.59897
 30
0.0
 11
219.542
 21
5.59897
 31
0.0
  0
LINE
  8
0
 62
     0
 10
219.542
 20
5.59897
 30
0.0
 11
219.542
 21
3.87505
 31
0.0
  0
LINE
  8
0
 62
     0
 10
219.542
 20
3.87505
 30
0.0
 11
225.812
 21
3.87505
 31
0.0
  0
LINE
  8
0
 62
     0
 10
225.812
 20
3.87505
 30
0.0
 11
225.812
 21
3.0496
 31
0.0
  0
LINE
  8
0
 62
     0
 10
225.812
 20
3.0496
 30
0.0
 11
228.612
 21
3.0496
 31
0.0
  0
LINE
  8
0
 62
     0
 10
228.612
 20
3.0496
 30
0.0
 11
228.612
 21
3.87505
 31
0.0
  0
LINE
  8
0
 62
     0
 10
228.612
 20
3.87505
 30
0.0
 11
231.842
 21
3.87505
 31
0.0
  0
LINE
  8
0
 62
     0
 10
231.842
 20
3.87505
 30
0.0
 11
231.842
 21
5.59897
 31
0.0
  0
LINE
  8
0
 62
     0
 10
231.842
 20
5.59897
 30
0.0
 11
232.763
 21
5.59897
 31
0.0
  0
LINE
  8
0
 62
     0
 10
232.763
 20
5.59897
 30
0.0
 11
232.763
 21
8.89938
 31
0.0
  0
LINE
  8
0
 62
     0
 10
232.763
 20
8.89938
 30
0.0
 11
231.842
 21
8.89938
 31
0.0
  0
LINE
  8
0
 62
     0
 10
231.842
 20
8.89938
 30
0.0
 11
231.842
 21
10.6233
 31
0.0
  0
LINE
  8
0
 62
     0
 10
231.842
 20
10.6233
 30
0.0
 11
228.612
 21
10.6233
 31
0.0
  0
LINE
  8
0
 62
     0
 10
228.612
 20
10.6233
 30
0.0
 11
228.612
 21
12.1502
 31
0.0
  0
LINE
  8
0
 62
     0
 10
228.612
 20
12.1502
 30
0.0
 11
233.313
 21
12.1502
 31
0.0
  0
LINE
  8
0
 62
     0
 10
233.313
 20
12.1502
 30
0.0
 11
233.313
 21
26.1497
 31
0.0
  0
LINE
  8
0
 62
     0
 10
233.313
 20
26.1497
 30
0.0
 11
228.612
 21
26.1497
 31
0.0
  0
LINE
  8
0
 62
     0
 10
228.612
 20
26.1497
 30
0.0
 11
228.612
 21
27.6738
 31
0.0
  0
LINE
  8
0
 62
     0
 10
228.612
 20
27.6738
 30
0.0
 11
231.842
 21
27.6738
 31
0.0
  0
LINE
  8
0
 62
     0
 10
231.842
 20
27.6738
 30
0.0
 11
231.842
 21
29.3991
 31
0.0
  0
LINE
  8
0
 62
     0
 10
231.842
 20
29.3991
 30
0.0
 11
232.763
 21
29.3991
 31
0.0
  0
LINE
  8
0
 62
     0
 10
232.763
 20
29.3991
 30
0.0
 11
232.763
 21
32.6995
 31
0.0
  0
LINE
  8
0
 62
     0
 10
232.763
 20
32.6995
 30
0.0
 11
231.842
 21
32.6995
 31
0.0
  0
LINE
  8
0
 62
     0
 10
231.842
 20
32.6995
 30
0.0
 11
231.842
 21
34.4248
 31
0.0
  0
LINE
  8
0
 62
     0
 10
231.842
 20
34.4248
 30
0.0
 11
228.612
 21
34.4248
 31
0.0
  0
LINE
  8
0
 62
     0
 10
228.612
 20
34.4248
 30
0.0
 11
228.612
 21
35.2502
 31
0.0
  0
LINE
  8
0
 62
     0
 10
228.612
 20
35.2502
 30
0.0
 11
225.812
 21
35.2502
 31
0.0
  0
LINE
  8
0
 62
     0
 10
2.61965
 20
35.6747
 30
0.0
 11
16.6192
 21
35.6747
 31
0.0
  0
LINE
  8
0
 62
     0
 10
16.6192
 20
35.6747
 30
0.0
 11
16.6192
 21
21.6738
 31
0.0
  0
LINE
  8
0
 62
     0
 10
16.6192
 20
21.6738
 30
0.0
 11
2.61965
 21
21.6738
 31
0.0
  0
LINE
  8
0
 62
     0
 10
2.61965
 20
21.6738
 30
0.0
 11
2.61965
 21
35.6747
 31
0.0
  0
LINE
  8
0
 62
     0
 10
21.6697
 20
35.6747
 30
0.0
 11
35.669
 21
35.6747
 31
0.0
  0
LINE
  8
0
 62
     0
 10
35.669
 20
35.6747
 30
0.0
 11
35.669
 21
21.6738
 31
0.0
  0
LINE
  8
0
 62
     0
 10
35.669
 20
21.6738
 30
0.0
 11
21.6697
 21
21.6738
 31
0.0
  0
LINE
  8
0
 62
     0
 10
21.6697
 20
21.6738
 30
0.0
 11
21.6697
 21
35.6747
 31
0.0
  0
LINE
  8
0
 62
     0
 10
40.7197
 20
35.6747
 30
0.0
 11
54.719
 21
35.6747
 31
0.0
  0
LINE
  8
0
 62
     0
 10
54.719
 20
35.6747
 30
0.0
 11
54.719
 21
21.6738
 31
0.0
  0
LINE
  8
0
 62
     0
 10
54.719
 20
21.6738
 30
0.0
 11
40.7197
 21
21.6738
 31
0.0
  0
LINE
  8
0
 62
     0
 10
40.7197
 20
21.6738
 30
0.0
 11
40.7197
 21
35.6747
 31
0.0
  0
LINE
  8
0
 62
     0
 10
59.7697
 20
35.6747
 30
0.0
 11
73.769
 21
35.6747
 31
0.0
  0
LINE
  8
0
 62
     0
 10
73.769
 20
35.6747
 30
0.0
 11
73.769
 21
21.6738
 31
0.0
  0
LINE
  8
0
 62
     0
 10
73.769
 20
21.6738
 30
0.0
 11
59.7697
 21
21.6738
 31
0.0
  0
LINE
  8
0
 62
     0
 10
59.7697
 20
21.6738
 30
0.0
 11
59.7697
 21
35.6747
 31
0.0
  0
LINE
  8
0
 62
     0
 10
78.8197
 20
35.6747
 30
0.0
 11
92.819
 21
35.6747
 31
0.0
  0
LINE
  8
0
 62
     0
 10
92.819
 20
35.6747
 30
0.0
 11
92.819
 21
21.6738
 31
0.0
  0
LINE
  8
0
 62
     0
 10
92.819
 20
21.6738
 30
0.0
 11
78.8197
 21
21.6738
 31
0.0
  0
LINE
  8
0
 62
     0
 10
78.8197
 20
21.6738
 30
0.0
 11
78.8197
 21
35.6747
 31
0.0
  0
LINE
  8
0
 62
     0
 10
97.8683
 20
35.6747
 30
0.0
 11
111.869
 21
35.6747
 31
0.0
  0
LINE
  8
0
 62
     0
 10
111.869
 20
35.6747
 30
0.0
 11
111.869
 21
21.6738
 31
0.0
  0
LINE
  8
0
 62
     0
 10
111.869
 20
21.6738
 30
0.0
 11
97.8683
 21
21.6738
 31
0.0
  0
LINE
  8
0
 62
     0
 10
97.8683
 20
21.6738
 30
0.0
 11
97.8683
 21
35.6747
 31
0.0
  0
LINE
  8
0
 62
     0
 10
116.918
 20
35.6747
 30
0.0
 11
130.919
 21
35.6747
 31
0.0
  0
LINE
  8
0
 62
     0
 10
130.919
 20
35.6747
 30
0.0
 11
130.919
 21
21.6738
 31
0.0
  0
LINE
  8
0
 62
     0
 10
130.919
 20
21.6738
 30
0.0
 11
116.918
 21
21.6738
 31
0.0
  0
LINE
  8
0
 62
     0
 10
116.918
 20
21.6738
 30
0.0
 11
116.918
 21
35.6747
 31
0.0
  0
LINE
  8
0
 62
     0
 10
135.97
 20
35.6747
 30
0.0
 11
149.969
 21
35.6747
 31
0.0
  0
LINE
  8
0
 62
     0
 10
149.969
 20
35.6747
 30
0.0
 11
149.969
 21
21.6738
 31
0.0
  0
LINE
  8
0
 62
     0
 10
149.969
 20
21.6738
 30
0.0
 11
135.97
 21
21.6738
 31
0.0
  0
LINE
  8
0
 62
     0
 10
135.97
 20
21.6738
 30
0.0
 11
135.97
 21
35.6747
 31
0.0
  0
LINE
  8
0
 62
     0
 10
155.02
 20
35.6747
 30
0.0
 11
169.019
 21
35.6747
 31
0.0
  0
LINE
  8
0
 62
     0
 10
169.019
 20
35.6747
 30
0.0
 11
169.019
 21
21.6738
 31
0.0
  0
LINE
  8
0
 62
     0
 10
169.019
 20
21.6738
 30
0.0
 11
155.02
 21
21.6738
 31
0.0
  0
LINE
  8
0
 62
     0
 10
155.02
 20
21.6738
 30
0.0
 11
155.02
 21
35.6747
 31
0.0
  0
LINE
  8
0
 62
     0
 10
174.07
 20
35.6747
 30
0.0
 11
188.069
 21
35.6747
 31
0.0
  0
LINE
  8
0
 62
     0
 10
188.069
 20
35.6747
 30
0.0
 11
188.069
 21
21.6738
 31
0.0
  0
LINE
  8
0
 62
     0
 10
188.069
 20
21.6738
 30
0.0
 11
174.07
 21
21.6738
 31
0.0
  0
LINE
  8
0
 62
     0
 10
174.07
 20
21.6738
 30
0.0
 11
174.07
 21
35.6747
 31
0.0
  0
LINE
  8
0
 62
     0
 10
193.12
 20
35.6747
 30
0.0
 11
207.119
 21
35.6747
 31
0.0
  0
LINE
  8
0
 62
     0
 10
207.119
 20
35.6747
 30
0.0
 11
207.119
 21
21.6738
 31
0.0
  0
LINE
  8
0
 62
     0
 10
207.119
 20
21.6738
 30
0.0
 11
193.12
 21
21.6738
 31
0.0
  0
LINE
  8
0
 62
     0
 10
193.12
 20
21.6738
 30
0.0
 11
193.12
 21
35.6747
 31
0.0
  0
LINE
  8
0
 62
     0
 10
2.61965
 20
54.7247
 30
0.0
 11
16.6192
 21
54.7247
 31
0.0
  0
LINE
  8
0
 62
     0
 10
16.6192
 20
54.7247
 30
0.0
 11
16.6192
 21
40.724
 31
0.0
  0
LINE
  8
0
 62
     0
 10
16.6192
 20
40.724
 30
0.0
 11
2.61965
 21
40.724
 31
0.0
  0
LINE
  8
0
 62
     0
 10
2.61965
 20
40.724
 30
0.0
 11
2.61965
 21
54.7247
 31
0.0
  0
LINE
  8
0
 62
     0
 10
21.6697
 20
54.7247
 30
0.0
 11
35.669
 21
54.7247
 31
0.0
  0
LINE
  8
0
 62
     0
 10
35.669
 20
54.7247
 30
0.0
 11
35.669
 21
40.724
 31
0.0
  0
LINE
  8
0
 62
     0
 10
35.669
 20
40.724
 30
0.0
 11
21.6697
 21
40.724
 31
0.0
  0
LINE
  8
0
 62
     0
 10
21.6697
 20
40.724
 30
0.0
 11
21.6697
 21
54.7247
 31
0.0
  0
LINE
  8
0
 62
     0
 10
40.7197
 20
54.7247
 30
0.0
 11
54.719
 21
54.7247
 31
0.0
  0
LINE
  8
0
 62
     0
 10
54.719
 20
54.7247
 30
0.0
 11
54.719
 21
40.724
 31
0.0
  0
LINE
  8
0
 62
     0
 10
54.719
 20
40.724
 30
0.0
 11
40.7197
 21
40.724
 31
0.0
  0
LINE
  8
0
 62
     0
 10
40.7197
 20
40.724
 30
0.0
 11
40.7197
 21
54.7247
 31
0.0
  0
LINE
  8
0
 62
     0
 10
59.7697
 20
54.7247
 30
0.0
 11
73.769
 21
54.7247
 31
0.0
  0
LINE
  8
0
 62
     0
 10
73.769
 20
54.7247
 30
0.0
 11
73.769
 21
40.724
 31
0.0
  0
LINE
  8
0
 62
     0
 10
73.769
 20
40.724
 30
0.0
 11
59.7697
 21
40.724
 31
0.0
  0
LINE
  8
0
 62
     0
 10
59.7697
 20
40.724
 30
0.0
 11
59.7697
 21
54.7247
 31
0.0
  0
LINE
  8
0
 62
     0
 10
78.8197
 20
54.7247
 30
0.0
 11
92.819
 21
54.7247
 31
0.0
  0
LINE
  8
0
 62
     0
 10
92.819
 20
54.7247
 30
0.0
 11
92.819
 21
40.724
 31
0.0
  0
LINE
  8
0
 62
     0
 10
92.819
 20
40.724
 30
0.0
 11
78.8197
 21
40.724
 31
0.0
  0
LINE
  8
0
 62
     0
 10
78.8197
 20
40.724
 30
0.0
 11
78.8197
 21
54.7247
 31
0.0
  0
LINE
  8
0
 62
     0
 10
97.8683
 20
54.7247
 30
0.0
 11
111.869
 21
54.7247
 31
0.0
  0
LINE
  8
0
 62
     0
 10
111.869
 20
54.7247
 30
0.0
 11
111.869
 21
40.724
 31
0.0
  0
LINE
  8
0
 62
     0
 10
111.869
 20
40.724
 30
0.0
 11
97.8683
 21
40.724
 31
0.0
  0
LINE
  8
0
 62
     0
 10
97.8683
 20
40.724
 30
0.0
 11
97.8683
 21
54.7247
 31
0.0
  0
LINE
  8
0
 62
     0
 10
116.918
 20
54.7247
 30
0.0
 11
130.919
 21
54.7247
 31
0.0
  0
LINE
  8
0
 62
     0
 10
130.919
 20
54.7247
 30
0.0
 11
130.919
 21
40.724
 31
0.0
  0
LINE
  8
0
 62
     0
 10
130.919
 20
40.724
 30
0.0
 11
116.918
 21
40.724
 31
0.0
  0
LINE
  8
0
 62
     0
 10
116.918
 20
40.724
 30
0.0
 11
116.918
 21
54.7247
 31
0.0
  0
LINE
  8
0
 62
     0
 10
135.97
 20
54.7247
 30
0.0
 11
149.969
 21
54.7247
 31
0.0
  0
LINE
  8
0
 62
     0
 10
149.969
 20
54.7247
 30
0.0
 11
149.969
 21
40.724
 31
0.0
  0
LINE
  8
0
 62
     0
 10
149.969
 20
40.724
 30
0.0
 11
135.97
 21
40.724
 31
0.0
  0
LINE
  8
0
 62
     0
 10
135.97
 20
40.724
 30
0.0
 11
135.97
 21
54.7247
 31
0.0
  0
LINE
  8
0
 62
     0
 10
155.02
 20
54.7247
 30
0.0
 11
169.019
 21
54.7247
 31
0.0
  0
LINE
  8
0
 62
     0
 10
169.019
 20
54.7247
 30
0.0
 11
169.019
 21
40.724
 31
0.0
  0
LINE
  8
0
 62
     0
 10
169.019
 20
40.724
 30
0.0
 11
155.02
 21
40.724
 31
0.0
  0
LINE
  8
0
 62
     0
 10
155.02
 20
40.724
 30
0.0
 11
155.02
 21
54.7247
 31
0.0
  0
LINE
  8
0
 62
     0
 10
174.07
 20
54.7247
 30
0.0
 11
188.069
 21
54.7247
 31
0.0
  0
LINE
  8
0
 62
     0
 10
188.069
 20
54.7247
 30
0.0
 11
188.069
 21
40.724
 31
0.0
  0
LINE
  8
0
 62
     0
 10
188.069
 20
40.724
 30
0.0
 11
174.07
 21
40.724
 31
0.0
  0
LINE
  8
0
 62
     0
 10
174.07
 20
40.724
 30
0.0
 11
174.07
 21
54.7247
 31
0.0
  0
LINE
  8
0
 62
     0
 10
193.12
 20
54.7247
 30
0.0
 11
207.119
 21
54.7247
 31
0.0
  0
LINE
  8
0
 62
     0
 10
207.119
 20
54.7247
 30
0.0
 11
207.119
 21
40.724
 31
0.0
  0
LINE
  8
0
 62
     0
 10
207.119
 20
40.724
 30
0.0
 11
193.12
 21
40.724
 31
0.0
  0
LINE
  8
0
 62
     0
 10
193.12
 20
40.724
 30
0.0
 11
193.12
 21
54.7247
 31
0.0
  0
LINE
  8
0
 62
     0
 10
216.932
 20
54.7247
 30
0.0
 11
230.932
 21
54.7247
 31
0.0
  0
LINE
  8
0
 62
     0
 10
230.932
 20
54.7247
 30
0.0
 11
230.932
 21
40.724
 31
0.0
  0
LINE
  8
0
 62
     0
 10
230.932
 20
40.724
 30
0.0
 11
216.932
 21
40.724
 31
0.0
  0
LINE
  8
0
 62
     0
 10
216.932
 20
40.724
 30
0.0
 11
216.932
 21
54.7247
 31
0.0
  0
ENDSEC
  0
EOF
