  0
SECTION
  2
HEADER
  9
$ANGBASE
  50
0.0
  9
$ANGDIR
  70
1
  9
$MEASUREMENT
  70
1
  0
ENDSEC
  0
SECTION
  2
TABLES
  0
TABLE
  2
LTYPE
  70
4
  0
LTYPE
  5
40F
  2
CONTINUOUS
  70
0
  3
Solid line
  72
65
  73
0
  40
0.0
  0
LTYPE
  5
410
  2
DASHDOT
 70
0
  3
Dash Dot ____ _ ____ _
 72
65
 73
4
 40
2.0
 49
1.25
 49
-0.25
 49
0.25
 49
-0.25
  0
LTYPE
  5
411
  2
DASHED
 70
0
  3
Dashed __ __ __ __ __
 72
65
 73
2
 40
0.75
 49
0.5
 49
-0.25
  0
LTYPE
  5
43B
  2
DOTTED
 70
0
  3
Dotted .  .  .  .
 72
65
 73
2
 40
0.2
 49
0.0
 49
-0.2
  0
ENDTAB
  0
TABLE
  2
STYLE
  70
4
  0
STYLE
  2
KICAD
  70
0
  40
0
  41
1
  42
1
  50
0
  71
0
  3
isocp.shx
  0
STYLE
  2
KICADB
  70
0
  40
0
  41
1
  42
1
  50
0
  71
0
  3
isocp.shx
  0
STYLE
  2
KICADI
  70
0
  40
0
  41
1
  42
1
  50
15
  71
0
  3
isocp.shx
  0
STYLE
  2
KICADBI
  70
0
  40
0
  41
1
  42
1
  50
15
  71
0
  3
isocp.shx
  0
ENDTAB
  0
TABLE
  2
LAYER
  70
1
  0
LAYER
  2
BLACK
  70
0
  62
7
  6
CONTINUOUS
  0
ENDTAB
  0
ENDSEC
  0
SECTION
  2
ENTITIES
0
LINE
8
BLACK
6
CONTINUOUS
10
160.312
20
-141.876
11
160.5
21
-141.424
0
LINE
8
BLACK
6
CONTINUOUS
10
160.5
20
-141.424
11
160.771
21
-141.017
0
LINE
8
BLACK
6
CONTINUOUS
10
160.771
20
-141.017
11
161.117
21
-140.671
0
LINE
8
BLACK
6
CONTINUOUS
10
161.117
20
-140.671
11
161.524
21
-140.4
0
LINE
8
BLACK
6
CONTINUOUS
10
161.524
20
-140.4
11
161.976
21
-140.212
0
LINE
8
BLACK
6
CONTINUOUS
10
161.976
20
-140.212
11
162.455
21
-140.117
0
LINE
8
BLACK
6
CONTINUOUS
10
162.455
20
-140.117
11
162.945
21
-140.117
0
LINE
8
BLACK
6
CONTINUOUS
10
162.945
20
-140.117
11
163.424
21
-140.212
0
LINE
8
BLACK
6
CONTINUOUS
10
163.424
20
-140.212
11
163.876
21
-140.4
0
LINE
8
BLACK
6
CONTINUOUS
10
163.876
20
-140.4
11
164.283
21
-140.671
0
LINE
8
BLACK
6
CONTINUOUS
10
164.283
20
-140.671
11
164.629
21
-141.017
0
LINE
8
BLACK
6
CONTINUOUS
10
164.629
20
-141.017
11
164.9
21
-141.424
0
LINE
8
BLACK
6
CONTINUOUS
10
164.9
20
-141.424
11
165.088
21
-141.876
0
LINE
8
BLACK
6
CONTINUOUS
10
165.088
20
-141.876
11
165.183
21
-142.355
0
LINE
8
BLACK
6
CONTINUOUS
10
165.183
20
-142.355
11
165.183
21
-142.845
0
LINE
8
BLACK
6
CONTINUOUS
10
165.183
20
-142.845
11
165.088
21
-143.324
0
LINE
8
BLACK
6
CONTINUOUS
10
165.088
20
-143.324
11
164.9
21
-143.776
0
LINE
8
BLACK
6
CONTINUOUS
10
164.9
20
-143.776
11
164.629
21
-144.183
0
LINE
8
BLACK
6
CONTINUOUS
10
164.629
20
-144.183
11
164.283
21
-144.529
0
LINE
8
BLACK
6
CONTINUOUS
10
164.283
20
-144.529
11
163.876
21
-144.8
0
LINE
8
BLACK
6
CONTINUOUS
10
163.876
20
-144.8
11
163.424
21
-144.988
0
LINE
8
BLACK
6
CONTINUOUS
10
163.424
20
-144.988
11
162.945
21
-145.083
0
LINE
8
BLACK
6
CONTINUOUS
10
162.945
20
-145.083
11
162.455
21
-145.083
0
LINE
8
BLACK
6
CONTINUOUS
10
162.455
20
-145.083
11
161.976
21
-144.988
0
LINE
8
BLACK
6
CONTINUOUS
10
161.976
20
-144.988
11
161.524
21
-144.8
0
LINE
8
BLACK
6
CONTINUOUS
10
161.524
20
-144.8
11
161.117
21
-144.529
0
LINE
8
BLACK
6
CONTINUOUS
10
161.117
20
-144.529
11
160.771
21
-144.183
0
LINE
8
BLACK
6
CONTINUOUS
10
160.771
20
-144.183
11
160.5
21
-143.776
0
LINE
8
BLACK
6
CONTINUOUS
10
160.5
20
-143.776
11
160.312
21
-143.324
0
LINE
8
BLACK
6
CONTINUOUS
10
160.312
20
-143.324
11
160.217
21
-142.845
0
LINE
8
BLACK
6
CONTINUOUS
10
160.217
20
-142.845
11
160.217
21
-142.355
0
LINE
8
BLACK
6
CONTINUOUS
10
160.217
20
-142.355
11
160.312
21
-141.876
0
LINE
8
BLACK
6
CONTINUOUS
10
160.379
20
-143.304
11
160.561
21
-143.743
0
LINE
8
BLACK
6
CONTINUOUS
10
160.561
20
-143.743
11
160.825
21
-144.138
0
LINE
8
BLACK
6
CONTINUOUS
10
160.825
20
-144.138
11
161.162
21
-144.475
0
LINE
8
BLACK
6
CONTINUOUS
10
161.162
20
-144.475
11
161.557
21
-144.739
0
LINE
8
BLACK
6
CONTINUOUS
10
161.557
20
-144.739
11
161.996
21
-144.921
0
LINE
8
BLACK
6
CONTINUOUS
10
161.996
20
-144.921
11
162.462
21
-145.013
0
LINE
8
BLACK
6
CONTINUOUS
10
162.462
20
-145.013
11
162.938
21
-145.013
0
LINE
8
BLACK
6
CONTINUOUS
10
162.938
20
-145.013
11
163.404
21
-144.921
0
LINE
8
BLACK
6
CONTINUOUS
10
163.404
20
-144.921
11
163.843
21
-144.739
0
LINE
8
BLACK
6
CONTINUOUS
10
163.843
20
-144.739
11
164.238
21
-144.475
0
LINE
8
BLACK
6
CONTINUOUS
10
164.238
20
-144.475
11
164.575
21
-144.138
0
LINE
8
BLACK
6
CONTINUOUS
10
164.575
20
-144.138
11
164.839
21
-143.743
0
LINE
8
BLACK
6
CONTINUOUS
10
164.839
20
-143.743
11
165.021
21
-143.304
0
LINE
8
BLACK
6
CONTINUOUS
10
165.021
20
-143.304
11
165.113
21
-142.838
0
LINE
8
BLACK
6
CONTINUOUS
10
165.113
20
-142.838
11
165.113
21
-142.362
0
LINE
8
BLACK
6
CONTINUOUS
10
165.113
20
-142.362
11
165.021
21
-141.896
0
LINE
8
BLACK
6
CONTINUOUS
10
165.021
20
-141.896
11
164.839
21
-141.457
0
LINE
8
BLACK
6
CONTINUOUS
10
164.839
20
-141.457
11
164.575
21
-141.062
0
LINE
8
BLACK
6
CONTINUOUS
10
164.575
20
-141.062
11
164.238
21
-140.725
0
LINE
8
BLACK
6
CONTINUOUS
10
164.238
20
-140.725
11
163.843
21
-140.461
0
LINE
8
BLACK
6
CONTINUOUS
10
163.843
20
-140.461
11
163.404
21
-140.279
0
LINE
8
BLACK
6
CONTINUOUS
10
163.404
20
-140.279
11
162.938
21
-140.187
0
LINE
8
BLACK
6
CONTINUOUS
10
162.938
20
-140.187
11
162.462
21
-140.187
0
LINE
8
BLACK
6
CONTINUOUS
10
162.462
20
-140.187
11
161.996
21
-140.279
0
LINE
8
BLACK
6
CONTINUOUS
10
161.996
20
-140.279
11
161.557
21
-140.461
0
LINE
8
BLACK
6
CONTINUOUS
10
161.557
20
-140.461
11
161.162
21
-140.725
0
LINE
8
BLACK
6
CONTINUOUS
10
161.162
20
-140.725
11
160.825
21
-141.062
0
LINE
8
BLACK
6
CONTINUOUS
10
160.825
20
-141.062
11
160.561
21
-141.457
0
LINE
8
BLACK
6
CONTINUOUS
10
160.561
20
-141.457
11
160.379
21
-141.896
0
LINE
8
BLACK
6
CONTINUOUS
10
160.379
20
-141.896
11
160.287
21
-142.362
0
LINE
8
BLACK
6
CONTINUOUS
10
160.287
20
-142.362
11
160.287
21
-142.838
0
LINE
8
BLACK
6
CONTINUOUS
10
160.287
20
-142.838
11
160.379
21
-143.304
0
LINE
8
BLACK
6
CONTINUOUS
10
69.4624
20
-141.826
11
69.6496
21
-141.374
0
LINE
8
BLACK
6
CONTINUOUS
10
69.6496
20
-141.374
11
69.9213
21
-140.967
0
LINE
8
BLACK
6
CONTINUOUS
10
69.9213
20
-140.967
11
70.2672
21
-140.621
0
LINE
8
BLACK
6
CONTINUOUS
10
70.2672
20
-140.621
11
70.6739
21
-140.35
0
LINE
8
BLACK
6
CONTINUOUS
10
70.6739
20
-140.35
11
71.1257
21
-140.162
0
LINE
8
BLACK
6
CONTINUOUS
10
71.1257
20
-140.162
11
71.6054
21
-140.067
0
LINE
8
BLACK
6
CONTINUOUS
10
71.6054
20
-140.067
11
72.0946
21
-140.067
0
LINE
8
BLACK
6
CONTINUOUS
10
72.0946
20
-140.067
11
72.5743
21
-140.162
0
LINE
8
BLACK
6
CONTINUOUS
10
72.5743
20
-140.162
11
73.0261
21
-140.35
0
LINE
8
BLACK
6
CONTINUOUS
10
73.0261
20
-140.35
11
73.4328
21
-140.621
0
LINE
8
BLACK
6
CONTINUOUS
10
73.4328
20
-140.621
11
73.7787
21
-140.967
0
LINE
8
BLACK
6
CONTINUOUS
10
73.7787
20
-140.967
11
74.0504
21
-141.374
0
LINE
8
BLACK
6
CONTINUOUS
10
74.0504
20
-141.374
11
74.2376
21
-141.826
0
LINE
8
BLACK
6
CONTINUOUS
10
74.2376
20
-141.826
11
74.333
21
-142.305
0
LINE
8
BLACK
6
CONTINUOUS
10
74.333
20
-142.305
11
74.333
21
-142.795
0
LINE
8
BLACK
6
CONTINUOUS
10
74.333
20
-142.795
11
74.2376
21
-143.274
0
LINE
8
BLACK
6
CONTINUOUS
10
74.2376
20
-143.274
11
74.0504
21
-143.726
0
LINE
8
BLACK
6
CONTINUOUS
10
74.0504
20
-143.726
11
73.7787
21
-144.133
0
LINE
8
BLACK
6
CONTINUOUS
10
73.7787
20
-144.133
11
73.4328
21
-144.479
0
LINE
8
BLACK
6
CONTINUOUS
10
73.4328
20
-144.479
11
73.0261
21
-144.75
0
LINE
8
BLACK
6
CONTINUOUS
10
73.0261
20
-144.75
11
72.5743
21
-144.938
0
LINE
8
BLACK
6
CONTINUOUS
10
72.5743
20
-144.938
11
72.0946
21
-145.033
0
LINE
8
BLACK
6
CONTINUOUS
10
72.0946
20
-145.033
11
71.6054
21
-145.033
0
LINE
8
BLACK
6
CONTINUOUS
10
71.6054
20
-145.033
11
71.1257
21
-144.938
0
LINE
8
BLACK
6
CONTINUOUS
10
71.1257
20
-144.938
11
70.6739
21
-144.75
0
LINE
8
BLACK
6
CONTINUOUS
10
70.6739
20
-144.75
11
70.2672
21
-144.479
0
LINE
8
BLACK
6
CONTINUOUS
10
70.2672
20
-144.479
11
69.9213
21
-144.133
0
LINE
8
BLACK
6
CONTINUOUS
10
69.9213
20
-144.133
11
69.6496
21
-143.726
0
LINE
8
BLACK
6
CONTINUOUS
10
69.6496
20
-143.726
11
69.4624
21
-143.274
0
LINE
8
BLACK
6
CONTINUOUS
10
69.4624
20
-143.274
11
69.367
21
-142.795
0
LINE
8
BLACK
6
CONTINUOUS
10
69.367
20
-142.795
11
69.367
21
-142.305
0
LINE
8
BLACK
6
CONTINUOUS
10
69.367
20
-142.305
11
69.4624
21
-141.826
0
LINE
8
BLACK
6
CONTINUOUS
10
69.5294
20
-143.254
11
69.7113
21
-143.693
0
LINE
8
BLACK
6
CONTINUOUS
10
69.7113
20
-143.693
11
69.9754
21
-144.088
0
LINE
8
BLACK
6
CONTINUOUS
10
69.9754
20
-144.088
11
70.3116
21
-144.425
0
LINE
8
BLACK
6
CONTINUOUS
10
70.3116
20
-144.425
11
70.7069
21
-144.689
0
LINE
8
BLACK
6
CONTINUOUS
10
70.7069
20
-144.689
11
71.1461
21
-144.871
0
LINE
8
BLACK
6
CONTINUOUS
10
71.1461
20
-144.871
11
71.6123
21
-144.963
0
LINE
8
BLACK
6
CONTINUOUS
10
71.6123
20
-144.963
11
72.0877
21
-144.963
0
LINE
8
BLACK
6
CONTINUOUS
10
72.0877
20
-144.963
11
72.5539
21
-144.871
0
LINE
8
BLACK
6
CONTINUOUS
10
72.5539
20
-144.871
11
72.9931
21
-144.689
0
LINE
8
BLACK
6
CONTINUOUS
10
72.9931
20
-144.689
11
73.3884
21
-144.425
0
LINE
8
BLACK
6
CONTINUOUS
10
73.3884
20
-144.425
11
73.7245
21
-144.088
0
LINE
8
BLACK
6
CONTINUOUS
10
73.7245
20
-144.088
11
73.9887
21
-143.693
0
LINE
8
BLACK
6
CONTINUOUS
10
73.9887
20
-143.693
11
74.1706
21
-143.254
0
LINE
8
BLACK
6
CONTINUOUS
10
74.1706
20
-143.254
11
74.2633
21
-142.788
0
LINE
8
BLACK
6
CONTINUOUS
10
74.2633
20
-142.788
11
74.2633
21
-142.312
0
LINE
8
BLACK
6
CONTINUOUS
10
74.2633
20
-142.312
11
74.1706
21
-141.846
0
LINE
8
BLACK
6
CONTINUOUS
10
74.1706
20
-141.846
11
73.9887
21
-141.407
0
LINE
8
BLACK
6
CONTINUOUS
10
73.9887
20
-141.407
11
73.7245
21
-141.012
0
LINE
8
BLACK
6
CONTINUOUS
10
73.7245
20
-141.012
11
73.3884
21
-140.675
0
LINE
8
BLACK
6
CONTINUOUS
10
73.3884
20
-140.675
11
72.9931
21
-140.411
0
LINE
8
BLACK
6
CONTINUOUS
10
72.9931
20
-140.411
11
72.5539
21
-140.229
0
LINE
8
BLACK
6
CONTINUOUS
10
72.5539
20
-140.229
11
72.0877
21
-140.137
0
LINE
8
BLACK
6
CONTINUOUS
10
72.0877
20
-140.137
11
71.6123
21
-140.137
0
LINE
8
BLACK
6
CONTINUOUS
10
71.6123
20
-140.137
11
71.1461
21
-140.229
0
LINE
8
BLACK
6
CONTINUOUS
10
71.1461
20
-140.229
11
70.7069
21
-140.411
0
LINE
8
BLACK
6
CONTINUOUS
10
70.7069
20
-140.411
11
70.3116
21
-140.675
0
LINE
8
BLACK
6
CONTINUOUS
10
70.3116
20
-140.675
11
69.9754
21
-141.012
0
LINE
8
BLACK
6
CONTINUOUS
10
69.9754
20
-141.012
11
69.7113
21
-141.407
0
LINE
8
BLACK
6
CONTINUOUS
10
69.7113
20
-141.407
11
69.5294
21
-141.846
0
LINE
8
BLACK
6
CONTINUOUS
10
69.5294
20
-141.846
11
69.4367
21
-142.312
0
LINE
8
BLACK
6
CONTINUOUS
10
69.4367
20
-142.312
11
69.4367
21
-142.788
0
LINE
8
BLACK
6
CONTINUOUS
10
69.4367
20
-142.788
11
69.5294
21
-143.254
0
LINE
8
BLACK
6
CONTINUOUS
10
69.5124
20
-71.6257
11
69.6996
21
-71.1739
0
LINE
8
BLACK
6
CONTINUOUS
10
69.6996
20
-71.1739
11
69.9713
21
-70.7672
0
LINE
8
BLACK
6
CONTINUOUS
10
69.9713
20
-70.7672
11
70.3172
21
-70.4213
0
LINE
8
BLACK
6
CONTINUOUS
10
70.3172
20
-70.4213
11
70.7239
21
-70.1496
0
LINE
8
BLACK
6
CONTINUOUS
10
70.7239
20
-70.1496
11
71.1757
21
-69.9624
0
LINE
8
BLACK
6
CONTINUOUS
10
71.1757
20
-69.9624
11
71.6554
21
-69.867
0
LINE
8
BLACK
6
CONTINUOUS
10
71.6554
20
-69.867
11
72.1446
21
-69.867
0
LINE
8
BLACK
6
CONTINUOUS
10
72.1446
20
-69.867
11
72.6243
21
-69.9624
0
LINE
8
BLACK
6
CONTINUOUS
10
72.6243
20
-69.9624
11
73.0761
21
-70.1496
0
LINE
8
BLACK
6
CONTINUOUS
10
73.0761
20
-70.1496
11
73.4828
21
-70.4213
0
LINE
8
BLACK
6
CONTINUOUS
10
73.4828
20
-70.4213
11
73.8287
21
-70.7672
0
LINE
8
BLACK
6
CONTINUOUS
10
73.8287
20
-70.7672
11
74.1004
21
-71.1739
0
LINE
8
BLACK
6
CONTINUOUS
10
74.1004
20
-71.1739
11
74.2876
21
-71.6257
0
LINE
8
BLACK
6
CONTINUOUS
10
74.2876
20
-71.6257
11
74.383
21
-72.1054
0
LINE
8
BLACK
6
CONTINUOUS
10
74.383
20
-72.1054
11
74.383
21
-72.5946
0
LINE
8
BLACK
6
CONTINUOUS
10
74.383
20
-72.5946
11
74.2876
21
-73.0743
0
LINE
8
BLACK
6
CONTINUOUS
10
74.2876
20
-73.0743
11
74.1004
21
-73.5261
0
LINE
8
BLACK
6
CONTINUOUS
10
74.1004
20
-73.5261
11
73.8287
21
-73.9328
0
LINE
8
BLACK
6
CONTINUOUS
10
73.8287
20
-73.9328
11
73.4828
21
-74.2787
0
LINE
8
BLACK
6
CONTINUOUS
10
73.4828
20
-74.2787
11
73.0761
21
-74.5504
0
LINE
8
BLACK
6
CONTINUOUS
10
73.0761
20
-74.5504
11
72.6243
21
-74.7376
0
LINE
8
BLACK
6
CONTINUOUS
10
72.6243
20
-74.7376
11
72.1446
21
-74.833
0
LINE
8
BLACK
6
CONTINUOUS
10
72.1446
20
-74.833
11
71.6554
21
-74.833
0
LINE
8
BLACK
6
CONTINUOUS
10
71.6554
20
-74.833
11
71.1757
21
-74.7376
0
LINE
8
BLACK
6
CONTINUOUS
10
71.1757
20
-74.7376
11
70.7239
21
-74.5504
0
LINE
8
BLACK
6
CONTINUOUS
10
70.7239
20
-74.5504
11
70.3172
21
-74.2787
0
LINE
8
BLACK
6
CONTINUOUS
10
70.3172
20
-74.2787
11
69.9713
21
-73.9328
0
LINE
8
BLACK
6
CONTINUOUS
10
69.9713
20
-73.9328
11
69.6996
21
-73.5261
0
LINE
8
BLACK
6
CONTINUOUS
10
69.6996
20
-73.5261
11
69.5124
21
-73.0743
0
LINE
8
BLACK
6
CONTINUOUS
10
69.5124
20
-73.0743
11
69.417
21
-72.5946
0
LINE
8
BLACK
6
CONTINUOUS
10
69.417
20
-72.5946
11
69.417
21
-72.1054
0
LINE
8
BLACK
6
CONTINUOUS
10
69.417
20
-72.1054
11
69.5124
21
-71.6257
0
LINE
8
BLACK
6
CONTINUOUS
10
69.5794
20
-73.0539
11
69.7613
21
-73.4931
0
LINE
8
BLACK
6
CONTINUOUS
10
69.7613
20
-73.4931
11
70.0254
21
-73.8884
0
LINE
8
BLACK
6
CONTINUOUS
10
70.0254
20
-73.8884
11
70.3616
21
-74.2245
0
LINE
8
BLACK
6
CONTINUOUS
10
70.3616
20
-74.2245
11
70.7569
21
-74.4887
0
LINE
8
BLACK
6
CONTINUOUS
10
70.7569
20
-74.4887
11
71.1961
21
-74.6706
0
LINE
8
BLACK
6
CONTINUOUS
10
71.1961
20
-74.6706
11
71.6623
21
-74.7633
0
LINE
8
BLACK
6
CONTINUOUS
10
71.6623
20
-74.7633
11
72.1377
21
-74.7633
0
LINE
8
BLACK
6
CONTINUOUS
10
72.1377
20
-74.7633
11
72.6039
21
-74.6706
0
LINE
8
BLACK
6
CONTINUOUS
10
72.6039
20
-74.6706
11
73.0431
21
-74.4887
0
LINE
8
BLACK
6
CONTINUOUS
10
73.0431
20
-74.4887
11
73.4384
21
-74.2245
0
LINE
8
BLACK
6
CONTINUOUS
10
73.4384
20
-74.2245
11
73.7745
21
-73.8884
0
LINE
8
BLACK
6
CONTINUOUS
10
73.7745
20
-73.8884
11
74.0387
21
-73.4931
0
LINE
8
BLACK
6
CONTINUOUS
10
74.0387
20
-73.4931
11
74.2206
21
-73.0539
0
LINE
8
BLACK
6
CONTINUOUS
10
74.2206
20
-73.0539
11
74.3133
21
-72.5877
0
LINE
8
BLACK
6
CONTINUOUS
10
74.3133
20
-72.5877
11
74.3133
21
-72.1123
0
LINE
8
BLACK
6
CONTINUOUS
10
74.3133
20
-72.1123
11
74.2206
21
-71.6461
0
LINE
8
BLACK
6
CONTINUOUS
10
74.2206
20
-71.6461
11
74.0387
21
-71.2069
0
LINE
8
BLACK
6
CONTINUOUS
10
74.0387
20
-71.2069
11
73.7745
21
-70.8116
0
LINE
8
BLACK
6
CONTINUOUS
10
73.7745
20
-70.8116
11
73.4384
21
-70.4754
0
LINE
8
BLACK
6
CONTINUOUS
10
73.4384
20
-70.4754
11
73.0431
21
-70.2113
0
LINE
8
BLACK
6
CONTINUOUS
10
73.0431
20
-70.2113
11
72.6039
21
-70.0294
0
LINE
8
BLACK
6
CONTINUOUS
10
72.6039
20
-70.0294
11
72.1377
21
-69.9367
0
LINE
8
BLACK
6
CONTINUOUS
10
72.1377
20
-69.9367
11
71.6623
21
-69.9367
0
LINE
8
BLACK
6
CONTINUOUS
10
71.6623
20
-69.9367
11
71.1961
21
-70.0294
0
LINE
8
BLACK
6
CONTINUOUS
10
71.1961
20
-70.0294
11
70.7569
21
-70.2113
0
LINE
8
BLACK
6
CONTINUOUS
10
70.7569
20
-70.2113
11
70.3616
21
-70.4754
0
LINE
8
BLACK
6
CONTINUOUS
10
70.3616
20
-70.4754
11
70.0254
21
-70.8116
0
LINE
8
BLACK
6
CONTINUOUS
10
70.0254
20
-70.8116
11
69.7613
21
-71.2069
0
LINE
8
BLACK
6
CONTINUOUS
10
69.7613
20
-71.2069
11
69.5794
21
-71.6461
0
LINE
8
BLACK
6
CONTINUOUS
10
69.5794
20
-71.6461
11
69.4867
21
-72.1123
0
LINE
8
BLACK
6
CONTINUOUS
10
69.4867
20
-72.1123
11
69.4867
21
-72.5877
0
LINE
8
BLACK
6
CONTINUOUS
10
69.4867
20
-72.5877
11
69.5794
21
-73.0539
0
LINE
8
BLACK
6
CONTINUOUS
10
160.312
20
-50.6257
11
160.5
21
-50.1739
0
LINE
8
BLACK
6
CONTINUOUS
10
160.5
20
-50.1739
11
160.771
21
-49.7672
0
LINE
8
BLACK
6
CONTINUOUS
10
160.771
20
-49.7672
11
161.117
21
-49.4213
0
LINE
8
BLACK
6
CONTINUOUS
10
161.117
20
-49.4213
11
161.524
21
-49.1496
0
LINE
8
BLACK
6
CONTINUOUS
10
161.524
20
-49.1496
11
161.976
21
-48.9624
0
LINE
8
BLACK
6
CONTINUOUS
10
161.976
20
-48.9624
11
162.455
21
-48.867
0
LINE
8
BLACK
6
CONTINUOUS
10
162.455
20
-48.867
11
162.945
21
-48.867
0
LINE
8
BLACK
6
CONTINUOUS
10
162.945
20
-48.867
11
163.424
21
-48.9624
0
LINE
8
BLACK
6
CONTINUOUS
10
163.424
20
-48.9624
11
163.876
21
-49.1496
0
LINE
8
BLACK
6
CONTINUOUS
10
163.876
20
-49.1496
11
164.283
21
-49.4213
0
LINE
8
BLACK
6
CONTINUOUS
10
164.283
20
-49.4213
11
164.629
21
-49.7672
0
LINE
8
BLACK
6
CONTINUOUS
10
164.629
20
-49.7672
11
164.9
21
-50.1739
0
LINE
8
BLACK
6
CONTINUOUS
10
164.9
20
-50.1739
11
165.088
21
-50.6257
0
LINE
8
BLACK
6
CONTINUOUS
10
165.088
20
-50.6257
11
165.183
21
-51.1054
0
LINE
8
BLACK
6
CONTINUOUS
10
165.183
20
-51.1054
11
165.183
21
-51.5946
0
LINE
8
BLACK
6
CONTINUOUS
10
165.183
20
-51.5946
11
165.088
21
-52.0743
0
LINE
8
BLACK
6
CONTINUOUS
10
165.088
20
-52.0743
11
164.9
21
-52.5261
0
LINE
8
BLACK
6
CONTINUOUS
10
164.9
20
-52.5261
11
164.629
21
-52.9328
0
LINE
8
BLACK
6
CONTINUOUS
10
164.629
20
-52.9328
11
164.283
21
-53.2787
0
LINE
8
BLACK
6
CONTINUOUS
10
164.283
20
-53.2787
11
163.876
21
-53.5504
0
LINE
8
BLACK
6
CONTINUOUS
10
163.876
20
-53.5504
11
163.424
21
-53.7376
0
LINE
8
BLACK
6
CONTINUOUS
10
163.424
20
-53.7376
11
162.945
21
-53.833
0
LINE
8
BLACK
6
CONTINUOUS
10
162.945
20
-53.833
11
162.455
21
-53.833
0
LINE
8
BLACK
6
CONTINUOUS
10
162.455
20
-53.833
11
161.976
21
-53.7376
0
LINE
8
BLACK
6
CONTINUOUS
10
161.976
20
-53.7376
11
161.524
21
-53.5504
0
LINE
8
BLACK
6
CONTINUOUS
10
161.524
20
-53.5504
11
161.117
21
-53.2787
0
LINE
8
BLACK
6
CONTINUOUS
10
161.117
20
-53.2787
11
160.771
21
-52.9328
0
LINE
8
BLACK
6
CONTINUOUS
10
160.771
20
-52.9328
11
160.5
21
-52.5261
0
LINE
8
BLACK
6
CONTINUOUS
10
160.5
20
-52.5261
11
160.312
21
-52.0743
0
LINE
8
BLACK
6
CONTINUOUS
10
160.312
20
-52.0743
11
160.217
21
-51.5946
0
LINE
8
BLACK
6
CONTINUOUS
10
160.217
20
-51.5946
11
160.217
21
-51.1054
0
LINE
8
BLACK
6
CONTINUOUS
10
160.217
20
-51.1054
11
160.312
21
-50.6257
0
LINE
8
BLACK
6
CONTINUOUS
10
160.379
20
-52.0539
11
160.561
21
-52.4931
0
LINE
8
BLACK
6
CONTINUOUS
10
160.561
20
-52.4931
11
160.825
21
-52.8884
0
LINE
8
BLACK
6
CONTINUOUS
10
160.825
20
-52.8884
11
161.162
21
-53.2246
0
LINE
8
BLACK
6
CONTINUOUS
10
161.162
20
-53.2246
11
161.557
21
-53.4887
0
LINE
8
BLACK
6
CONTINUOUS
10
161.557
20
-53.4887
11
161.996
21
-53.6706
0
LINE
8
BLACK
6
CONTINUOUS
10
161.996
20
-53.6706
11
162.462
21
-53.7633
0
LINE
8
BLACK
6
CONTINUOUS
10
162.462
20
-53.7633
11
162.938
21
-53.7633
0
LINE
8
BLACK
6
CONTINUOUS
10
162.938
20
-53.7633
11
163.404
21
-53.6706
0
LINE
8
BLACK
6
CONTINUOUS
10
163.404
20
-53.6706
11
163.843
21
-53.4887
0
LINE
8
BLACK
6
CONTINUOUS
10
163.843
20
-53.4887
11
164.238
21
-53.2246
0
LINE
8
BLACK
6
CONTINUOUS
10
164.238
20
-53.2246
11
164.575
21
-52.8884
0
LINE
8
BLACK
6
CONTINUOUS
10
164.575
20
-52.8884
11
164.839
21
-52.4931
0
LINE
8
BLACK
6
CONTINUOUS
10
164.839
20
-52.4931
11
165.021
21
-52.0539
0
LINE
8
BLACK
6
CONTINUOUS
10
165.021
20
-52.0539
11
165.113
21
-51.5877
0
LINE
8
BLACK
6
CONTINUOUS
10
165.113
20
-51.5877
11
165.113
21
-51.1123
0
LINE
8
BLACK
6
CONTINUOUS
10
165.113
20
-51.1123
11
165.021
21
-50.6461
0
LINE
8
BLACK
6
CONTINUOUS
10
165.021
20
-50.6461
11
164.839
21
-50.2069
0
LINE
8
BLACK
6
CONTINUOUS
10
164.839
20
-50.2069
11
164.575
21
-49.8116
0
LINE
8
BLACK
6
CONTINUOUS
10
164.575
20
-49.8116
11
164.238
21
-49.4754
0
LINE
8
BLACK
6
CONTINUOUS
10
164.238
20
-49.4754
11
163.843
21
-49.2113
0
LINE
8
BLACK
6
CONTINUOUS
10
163.843
20
-49.2113
11
163.404
21
-49.0294
0
LINE
8
BLACK
6
CONTINUOUS
10
163.404
20
-49.0294
11
162.938
21
-48.9367
0
LINE
8
BLACK
6
CONTINUOUS
10
162.938
20
-48.9367
11
162.462
21
-48.9367
0
LINE
8
BLACK
6
CONTINUOUS
10
162.462
20
-48.9367
11
161.996
21
-49.0294
0
LINE
8
BLACK
6
CONTINUOUS
10
161.996
20
-49.0294
11
161.557
21
-49.2113
0
LINE
8
BLACK
6
CONTINUOUS
10
161.557
20
-49.2113
11
161.162
21
-49.4754
0
LINE
8
BLACK
6
CONTINUOUS
10
161.162
20
-49.4754
11
160.825
21
-49.8116
0
LINE
8
BLACK
6
CONTINUOUS
10
160.825
20
-49.8116
11
160.561
21
-50.2069
0
LINE
8
BLACK
6
CONTINUOUS
10
160.561
20
-50.2069
11
160.379
21
-50.6461
0
LINE
8
BLACK
6
CONTINUOUS
10
160.379
20
-50.6461
11
160.287
21
-51.1123
0
LINE
8
BLACK
6
CONTINUOUS
10
160.287
20
-51.1123
11
160.287
21
-51.5877
0
LINE
8
BLACK
6
CONTINUOUS
10
160.287
20
-51.5877
11
160.379
21
-52.0539
  0
ENDSEC
  0
EOF
