  0
SECTION
  2
HEADER
  9
$ANGBASE
  50
0.0
  9
$ANGDIR
  70
1
  9
$MEASUREMENT
  70
1
  0
ENDSEC
  0
SECTION
  2
TABLES
  0
TABLE
  2
LTYPE
  70
4
  0
LTYPE
  5
40F
  2
CONTINUOUS
  70
0
  3
Solid line
  72
65
  73
0
  40
0.0
  0
LTYPE
  5
410
  2
DASHDOT
 70
0
  3
Dash Dot ____ _ ____ _
 72
65
 73
4
 40
2.0
 49
1.25
 49
-0.25
 49
0.25
 49
-0.25
  0
LTYPE
  5
411
  2
DASHED
 70
0
  3
Dashed __ __ __ __ __
 72
65
 73
2
 40
0.75
 49
0.5
 49
-0.25
  0
LTYPE
  5
43B
  2
DOTTED
 70
0
  3
Dotted .  .  .  .
 72
65
 73
2
 40
0.2
 49
0.0
 49
-0.2
  0
ENDTAB
  0
TABLE
  2
STYLE
  70
4
  0
STYLE
  2
KICAD
  70
0
  40
0
  41
1
  42
1
  50
0
  71
0
  3
isocp.shx
  0
STYLE
  2
KICADB
  70
0
  40
0
  41
1
  42
1
  50
0
  71
0
  3
isocp.shx
  0
STYLE
  2
KICADI
  70
0
  40
0
  41
1
  42
1
  50
15
  71
0
  3
isocp.shx
  0
STYLE
  2
KICADBI
  70
0
  40
0
  41
1
  42
1
  50
15
  71
0
  3
isocp.shx
  0
ENDTAB
  0
TABLE
  2
LAYER
  70
1
  0
LAYER
  2
BLACK
  70
0
  62
7
  6
CONTINUOUS
  0
ENDTAB
  0
ENDSEC
  0
SECTION
  2
ENTITIES
0
LINE
8
BLACK
6
CONTINUOUS
10
70.1016
20
-146.761
11
70.1016
21
-146.761
0
LINE
8
BLACK
6
CONTINUOUS
10
70.1016
20
-146.761
11
69.6082
21
-146.713
0
LINE
8
BLACK
6
CONTINUOUS
10
69.6082
20
-146.713
11
69.6079
21
-146.712
0
LINE
8
BLACK
6
CONTINUOUS
10
69.6079
20
-146.712
11
69.6056
21
-146.712
0
LINE
8
BLACK
6
CONTINUOUS
10
69.6056
20
-146.712
11
69.6034
21
-146.712
0
LINE
8
BLACK
6
CONTINUOUS
10
69.6034
20
-146.712
11
69.1289
21
-146.568
0
LINE
8
BLACK
6
CONTINUOUS
10
69.1289
20
-146.568
11
69.1285
21
-146.568
0
LINE
8
BLACK
6
CONTINUOUS
10
69.1285
20
-146.568
11
69.1264
21
-146.567
0
LINE
8
BLACK
6
CONTINUOUS
10
69.1264
20
-146.567
11
69.1243
21
-146.566
0
LINE
8
BLACK
6
CONTINUOUS
10
69.1243
20
-146.566
11
68.6866
21
-146.334
0
LINE
8
BLACK
6
CONTINUOUS
10
68.6866
20
-146.334
11
68.6863
21
-146.334
0
LINE
8
BLACK
6
CONTINUOUS
10
68.6863
20
-146.334
11
68.6845
21
-146.332
0
LINE
8
BLACK
6
CONTINUOUS
10
68.6845
20
-146.332
11
68.6826
21
-146.331
0
LINE
8
BLACK
6
CONTINUOUS
10
68.6826
20
-146.331
11
68.2984
21
-146.018
0
LINE
8
BLACK
6
CONTINUOUS
10
68.2984
20
-146.018
11
68.2982
21
-146.017
0
LINE
8
BLACK
6
CONTINUOUS
10
68.2982
20
-146.017
11
68.2966
21
-146.016
0
LINE
8
BLACK
6
CONTINUOUS
10
68.2966
20
-146.016
11
68.295
21
-146.014
0
LINE
8
BLACK
6
CONTINUOUS
10
68.295
20
-146.014
11
67.979
21
-145.632
0
LINE
8
BLACK
6
CONTINUOUS
10
67.979
20
-145.632
11
67.9788
21
-145.632
0
LINE
8
BLACK
6
CONTINUOUS
10
67.9788
20
-145.632
11
67.9775
21
-145.63
0
LINE
8
BLACK
6
CONTINUOUS
10
67.9775
20
-145.63
11
67.9763
21
-145.628
0
LINE
8
BLACK
6
CONTINUOUS
10
67.9763
20
-145.628
11
67.7405
21
-145.192
0
LINE
8
BLACK
6
CONTINUOUS
10
67.7405
20
-145.192
11
67.7403
21
-145.192
0
LINE
8
BLACK
6
CONTINUOUS
10
67.7403
20
-145.192
11
67.7395
21
-145.19
0
LINE
8
BLACK
6
CONTINUOUS
10
67.7395
20
-145.19
11
67.7386
21
-145.188
0
LINE
8
BLACK
6
CONTINUOUS
10
67.7386
20
-145.188
11
67.592
21
-144.714
0
LINE
8
BLACK
6
CONTINUOUS
10
67.592
20
-144.714
11
67.5919
21
-144.714
0
LINE
8
BLACK
6
CONTINUOUS
10
67.5919
20
-144.714
11
67.5915
21
-144.712
0
LINE
8
BLACK
6
CONTINUOUS
10
67.5915
20
-144.712
11
67.591
21
-144.709
0
LINE
8
BLACK
6
CONTINUOUS
10
67.591
20
-144.709
11
67.5392
21
-144.216
0
LINE
8
BLACK
6
CONTINUOUS
10
67.5392
20
-144.216
11
67.5392
21
-144.216
0
LINE
8
BLACK
6
CONTINUOUS
10
67.5392
20
-144.216
11
67.5392
21
-144.215
0
LINE
8
BLACK
6
CONTINUOUS
10
67.5392
20
-144.215
11
67.5391
21
-144.214
0
LINE
8
BLACK
6
CONTINUOUS
10
67.5391
20
-144.214
11
67.539
21
-144.197
0
LINE
8
BLACK
6
CONTINUOUS
10
67.539
20
-144.197
11
67.539
21
-144.197
0
LINE
8
BLACK
6
CONTINUOUS
10
67.539
20
-144.197
11
67.539
21
-144.196
0
LINE
8
BLACK
6
CONTINUOUS
10
67.539
20
-144.196
11
67.539
21
-144.196
0
LINE
8
BLACK
6
CONTINUOUS
10
67.539
20
-144.196
11
67.539
21
-144.196
0
LINE
8
BLACK
6
CONTINUOUS
10
67.539
20
-144.196
11
67.539
21
-49.2748
0
LINE
8
BLACK
6
CONTINUOUS
10
67.539
20
-49.2748
11
67.5391
21
-49.2736
0
LINE
8
BLACK
6
CONTINUOUS
10
67.5391
20
-49.2736
11
67.5391
21
-49.2736
0
LINE
8
BLACK
6
CONTINUOUS
10
67.5391
20
-49.2736
11
67.5875
21
-48.7802
0
LINE
8
BLACK
6
CONTINUOUS
10
67.5875
20
-48.7802
11
67.5875
21
-48.7799
0
LINE
8
BLACK
6
CONTINUOUS
10
67.5875
20
-48.7799
11
67.588
21
-48.7776
0
LINE
8
BLACK
6
CONTINUOUS
10
67.588
20
-48.7776
11
67.5884
21
-48.7754
0
LINE
8
BLACK
6
CONTINUOUS
10
67.5884
20
-48.7754
11
67.7317
21
-48.3009
0
LINE
8
BLACK
6
CONTINUOUS
10
67.7317
20
-48.3009
11
67.7318
21
-48.3005
0
LINE
8
BLACK
6
CONTINUOUS
10
67.7318
20
-48.3005
11
67.7327
21
-48.2984
0
LINE
8
BLACK
6
CONTINUOUS
10
67.7327
20
-48.2984
11
67.7336
21
-48.2963
0
LINE
8
BLACK
6
CONTINUOUS
10
67.7336
20
-48.2963
11
67.9663
21
-47.8586
0
LINE
8
BLACK
6
CONTINUOUS
10
67.9663
20
-47.8586
11
67.9663
21
-47.8586
0
LINE
8
BLACK
6
CONTINUOUS
10
67.9663
20
-47.8586
11
67.9663
21
-47.8586
0
LINE
8
BLACK
6
CONTINUOUS
10
67.9663
20
-47.8586
11
67.9665
21
-47.8583
0
LINE
8
BLACK
6
CONTINUOUS
10
67.9665
20
-47.8583
11
67.9677
21
-47.8565
0
LINE
8
BLACK
6
CONTINUOUS
10
67.9677
20
-47.8565
11
67.969
21
-47.8546
0
LINE
8
BLACK
6
CONTINUOUS
10
67.969
20
-47.8546
11
68.2823
21
-47.4704
0
LINE
8
BLACK
6
CONTINUOUS
10
68.2823
20
-47.4704
11
68.2823
21
-47.4704
0
LINE
8
BLACK
6
CONTINUOUS
10
68.2823
20
-47.4704
11
68.2823
21
-47.4704
0
LINE
8
BLACK
6
CONTINUOUS
10
68.2823
20
-47.4704
11
68.2825
21
-47.4702
0
LINE
8
BLACK
6
CONTINUOUS
10
68.2825
20
-47.4702
11
68.2841
21
-47.4686
0
LINE
8
BLACK
6
CONTINUOUS
10
68.2841
20
-47.4686
11
68.2858
21
-47.467
0
LINE
8
BLACK
6
CONTINUOUS
10
68.2858
20
-47.467
11
68.6677
21
-47.151
0
LINE
8
BLACK
6
CONTINUOUS
10
68.6677
20
-47.151
11
68.668
21
-47.1508
0
LINE
8
BLACK
6
CONTINUOUS
10
68.668
20
-47.1508
11
68.6699
21
-47.1495
0
LINE
8
BLACK
6
CONTINUOUS
10
68.6699
20
-47.1495
11
68.6718
21
-47.1483
0
LINE
8
BLACK
6
CONTINUOUS
10
68.6718
20
-47.1483
11
69.1078
21
-46.9125
0
LINE
8
BLACK
6
CONTINUOUS
10
69.1078
20
-46.9125
11
69.1078
21
-46.9125
0
LINE
8
BLACK
6
CONTINUOUS
10
69.1078
20
-46.9125
11
69.1078
21
-46.9125
0
LINE
8
BLACK
6
CONTINUOUS
10
69.1078
20
-46.9125
11
69.1081
21
-46.9123
0
LINE
8
BLACK
6
CONTINUOUS
10
69.1081
20
-46.9123
11
69.1102
21
-46.9115
0
LINE
8
BLACK
6
CONTINUOUS
10
69.1102
20
-46.9115
11
69.1123
21
-46.9106
0
LINE
8
BLACK
6
CONTINUOUS
10
69.1123
20
-46.9106
11
69.5859
21
-46.764
0
LINE
8
BLACK
6
CONTINUOUS
10
69.5859
20
-46.764
11
69.5859
21
-46.764
0
LINE
8
BLACK
6
CONTINUOUS
10
69.5859
20
-46.764
11
69.5862
21
-46.7639
0
LINE
8
BLACK
6
CONTINUOUS
10
69.5862
20
-46.7639
11
69.5885
21
-46.7635
0
LINE
8
BLACK
6
CONTINUOUS
10
69.5885
20
-46.7635
11
69.5906
21
-46.763
0
LINE
8
BLACK
6
CONTINUOUS
10
69.5906
20
-46.763
11
70.0837
21
-46.7112
0
LINE
8
BLACK
6
CONTINUOUS
10
70.0837
20
-46.7112
11
70.084
21
-46.7112
0
LINE
8
BLACK
6
CONTINUOUS
10
70.084
20
-46.7112
11
70.0851
21
-46.7112
0
LINE
8
BLACK
6
CONTINUOUS
10
70.0851
20
-46.7112
11
70.0862
21
-46.7111
0
LINE
8
BLACK
6
CONTINUOUS
10
70.0862
20
-46.7111
11
70.1027
21
-46.711
0
LINE
8
BLACK
6
CONTINUOUS
10
70.1027
20
-46.711
11
70.1028
21
-46.711
0
LINE
8
BLACK
6
CONTINUOUS
10
70.1028
20
-46.711
11
165.025
21
-46.711
0
LINE
8
BLACK
6
CONTINUOUS
10
165.025
20
-46.711
11
165.026
21
-46.7111
0
LINE
8
BLACK
6
CONTINUOUS
10
165.026
20
-46.7111
11
165.026
21
-46.7111
0
LINE
8
BLACK
6
CONTINUOUS
10
165.026
20
-46.7111
11
165.52
21
-46.7595
0
LINE
8
BLACK
6
CONTINUOUS
10
165.52
20
-46.7595
11
165.52
21
-46.7595
0
LINE
8
BLACK
6
CONTINUOUS
10
165.52
20
-46.7595
11
165.522
21
-46.76
0
LINE
8
BLACK
6
CONTINUOUS
10
165.522
20
-46.76
11
165.525
21
-46.7604
0
LINE
8
BLACK
6
CONTINUOUS
10
165.525
20
-46.7604
11
165.999
21
-46.9037
0
LINE
8
BLACK
6
CONTINUOUS
10
165.999
20
-46.9037
11
165.999
21
-46.9038
0
LINE
8
BLACK
6
CONTINUOUS
10
165.999
20
-46.9038
11
166.002
21
-46.9047
0
LINE
8
BLACK
6
CONTINUOUS
10
166.002
20
-46.9047
11
166.004
21
-46.9056
0
LINE
8
BLACK
6
CONTINUOUS
10
166.004
20
-46.9056
11
166.441
21
-47.1383
0
LINE
8
BLACK
6
CONTINUOUS
10
166.441
20
-47.1383
11
166.441
21
-47.1383
0
LINE
8
BLACK
6
CONTINUOUS
10
166.441
20
-47.1383
11
166.441
21
-47.1383
0
LINE
8
BLACK
6
CONTINUOUS
10
166.441
20
-47.1383
11
166.442
21
-47.1385
0
LINE
8
BLACK
6
CONTINUOUS
10
166.442
20
-47.1385
11
166.444
21
-47.1397
0
LINE
8
BLACK
6
CONTINUOUS
10
166.444
20
-47.1397
11
166.445
21
-47.141
0
LINE
8
BLACK
6
CONTINUOUS
10
166.445
20
-47.141
11
166.83
21
-47.4543
0
LINE
8
BLACK
6
CONTINUOUS
10
166.83
20
-47.4543
11
166.83
21
-47.4543
0
LINE
8
BLACK
6
CONTINUOUS
10
166.83
20
-47.4543
11
166.83
21
-47.4543
0
LINE
8
BLACK
6
CONTINUOUS
10
166.83
20
-47.4543
11
166.83
21
-47.4545
0
LINE
8
BLACK
6
CONTINUOUS
10
166.83
20
-47.4545
11
166.831
21
-47.4561
0
LINE
8
BLACK
6
CONTINUOUS
10
166.831
20
-47.4561
11
166.833
21
-47.4578
0
LINE
8
BLACK
6
CONTINUOUS
10
166.833
20
-47.4578
11
167.149
21
-47.8397
0
LINE
8
BLACK
6
CONTINUOUS
10
167.149
20
-47.8397
11
167.149
21
-47.84
0
LINE
8
BLACK
6
CONTINUOUS
10
167.149
20
-47.84
11
167.15
21
-47.8419
0
LINE
8
BLACK
6
CONTINUOUS
10
167.15
20
-47.8419
11
167.152
21
-47.8438
0
LINE
8
BLACK
6
CONTINUOUS
10
167.152
20
-47.8438
11
167.388
21
-48.2798
0
LINE
8
BLACK
6
CONTINUOUS
10
167.388
20
-48.2798
11
167.388
21
-48.2798
0
LINE
8
BLACK
6
CONTINUOUS
10
167.388
20
-48.2798
11
167.388
21
-48.2798
0
LINE
8
BLACK
6
CONTINUOUS
10
167.388
20
-48.2798
11
167.388
21
-48.2801
0
LINE
8
BLACK
6
CONTINUOUS
10
167.388
20
-48.2801
11
167.389
21
-48.2822
0
LINE
8
BLACK
6
CONTINUOUS
10
167.389
20
-48.2822
11
167.389
21
-48.2843
0
LINE
8
BLACK
6
CONTINUOUS
10
167.389
20
-48.2843
11
167.536
21
-48.7579
0
LINE
8
BLACK
6
CONTINUOUS
10
167.536
20
-48.7579
11
167.536
21
-48.7582
0
LINE
8
BLACK
6
CONTINUOUS
10
167.536
20
-48.7582
11
167.537
21
-48.7605
0
LINE
8
BLACK
6
CONTINUOUS
10
167.537
20
-48.7605
11
167.537
21
-48.7626
0
LINE
8
BLACK
6
CONTINUOUS
10
167.537
20
-48.7626
11
167.589
21
-49.2557
0
LINE
8
BLACK
6
CONTINUOUS
10
167.589
20
-49.2557
11
167.589
21
-49.256
0
LINE
8
BLACK
6
CONTINUOUS
10
167.589
20
-49.256
11
167.589
21
-49.2571
0
LINE
8
BLACK
6
CONTINUOUS
10
167.589
20
-49.2571
11
167.589
21
-49.2582
0
LINE
8
BLACK
6
CONTINUOUS
10
167.589
20
-49.2582
11
167.589
21
-49.2747
0
LINE
8
BLACK
6
CONTINUOUS
10
167.589
20
-49.2747
11
167.589
21
-49.2748
0
LINE
8
BLACK
6
CONTINUOUS
10
167.589
20
-49.2748
11
167.589
21
-144.197
0
LINE
8
BLACK
6
CONTINUOUS
10
167.589
20
-144.197
11
167.589
21
-144.198
0
LINE
8
BLACK
6
CONTINUOUS
10
167.589
20
-144.198
11
167.589
21
-144.198
0
LINE
8
BLACK
6
CONTINUOUS
10
167.589
20
-144.198
11
167.541
21
-144.692
0
LINE
8
BLACK
6
CONTINUOUS
10
167.541
20
-144.692
11
167.54
21
-144.692
0
LINE
8
BLACK
6
CONTINUOUS
10
167.54
20
-144.692
11
167.54
21
-144.694
0
LINE
8
BLACK
6
CONTINUOUS
10
167.54
20
-144.694
11
167.54
21
-144.697
0
LINE
8
BLACK
6
CONTINUOUS
10
167.54
20
-144.697
11
167.396
21
-145.171
0
LINE
8
BLACK
6
CONTINUOUS
10
167.396
20
-145.171
11
167.396
21
-145.171
0
LINE
8
BLACK
6
CONTINUOUS
10
167.396
20
-145.171
11
167.395
21
-145.174
0
LINE
8
BLACK
6
CONTINUOUS
10
167.395
20
-145.174
11
167.394
21
-145.176
0
LINE
8
BLACK
6
CONTINUOUS
10
167.394
20
-145.176
11
167.162
21
-145.613
0
LINE
8
BLACK
6
CONTINUOUS
10
167.162
20
-145.613
11
167.162
21
-145.614
0
LINE
8
BLACK
6
CONTINUOUS
10
167.162
20
-145.614
11
167.16
21
-145.616
0
LINE
8
BLACK
6
CONTINUOUS
10
167.16
20
-145.616
11
167.159
21
-145.617
0
LINE
8
BLACK
6
CONTINUOUS
10
167.159
20
-145.617
11
166.846
21
-146.002
0
LINE
8
BLACK
6
CONTINUOUS
10
166.846
20
-146.002
11
166.845
21
-146.002
0
LINE
8
BLACK
6
CONTINUOUS
10
166.845
20
-146.002
11
166.844
21
-146.003
0
LINE
8
BLACK
6
CONTINUOUS
10
166.844
20
-146.003
11
166.842
21
-146.005
0
LINE
8
BLACK
6
CONTINUOUS
10
166.842
20
-146.005
11
166.46
21
-146.321
0
LINE
8
BLACK
6
CONTINUOUS
10
166.46
20
-146.321
11
166.46
21
-146.321
0
LINE
8
BLACK
6
CONTINUOUS
10
166.46
20
-146.321
11
166.458
21
-146.322
0
LINE
8
BLACK
6
CONTINUOUS
10
166.458
20
-146.322
11
166.456
21
-146.324
0
LINE
8
BLACK
6
CONTINUOUS
10
166.456
20
-146.324
11
166.02
21
-146.56
0
LINE
8
BLACK
6
CONTINUOUS
10
166.02
20
-146.56
11
166.02
21
-146.56
0
LINE
8
BLACK
6
CONTINUOUS
10
166.02
20
-146.56
11
166.018
21
-146.561
0
LINE
8
BLACK
6
CONTINUOUS
10
166.018
20
-146.561
11
166.016
21
-146.561
0
LINE
8
BLACK
6
CONTINUOUS
10
166.016
20
-146.561
11
165.542
21
-146.708
0
LINE
8
BLACK
6
CONTINUOUS
10
165.542
20
-146.708
11
165.542
21
-146.708
0
LINE
8
BLACK
6
CONTINUOUS
10
165.542
20
-146.708
11
165.54
21
-146.709
0
LINE
8
BLACK
6
CONTINUOUS
10
165.54
20
-146.709
11
165.537
21
-146.709
0
LINE
8
BLACK
6
CONTINUOUS
10
165.537
20
-146.709
11
165.044
21
-146.761
0
LINE
8
BLACK
6
CONTINUOUS
10
165.044
20
-146.761
11
165.044
21
-146.761
0
LINE
8
BLACK
6
CONTINUOUS
10
165.044
20
-146.761
11
165.043
21
-146.761
0
LINE
8
BLACK
6
CONTINUOUS
10
165.043
20
-146.761
11
165.042
21
-146.761
0
LINE
8
BLACK
6
CONTINUOUS
10
165.042
20
-146.761
11
165.025
21
-146.761
0
LINE
8
BLACK
6
CONTINUOUS
10
165.025
20
-146.761
11
165.025
21
-146.761
0
LINE
8
BLACK
6
CONTINUOUS
10
165.025
20
-146.761
11
70.1028
21
-146.761
0
LINE
8
BLACK
6
CONTINUOUS
10
70.1028
20
-146.761
11
70.1016
21
-146.761
0
LINE
8
BLACK
6
CONTINUOUS
10
70.1041
20
-46.761
11
70.0876
21
-46.7611
0
LINE
8
BLACK
6
CONTINUOUS
10
70.0876
20
-46.7611
11
69.5983
21
-46.8125
0
LINE
8
BLACK
6
CONTINUOUS
10
69.5983
20
-46.8125
11
69.1294
21
-46.9576
0
LINE
8
BLACK
6
CONTINUOUS
10
69.1294
20
-46.9576
11
68.6977
21
-47.1911
0
LINE
8
BLACK
6
CONTINUOUS
10
68.6977
20
-47.1911
11
68.3195
21
-47.5039
0
LINE
8
BLACK
6
CONTINUOUS
10
68.3195
20
-47.5039
11
68.0093
21
-47.8843
0
LINE
8
BLACK
6
CONTINUOUS
10
68.0093
20
-47.8843
11
67.7789
21
-48.3177
0
LINE
8
BLACK
6
CONTINUOUS
10
67.7789
20
-48.3177
11
67.637
21
-48.7875
0
LINE
8
BLACK
6
CONTINUOUS
10
67.637
20
-48.7875
11
67.589
21
-49.2772
0
LINE
8
BLACK
6
CONTINUOUS
10
67.589
20
-49.2772
11
67.589
21
-144.196
0
LINE
8
BLACK
6
CONTINUOUS
10
67.589
20
-144.196
11
67.5891
21
-144.212
0
LINE
8
BLACK
6
CONTINUOUS
10
67.5891
20
-144.212
11
67.6405
21
-144.702
0
LINE
8
BLACK
6
CONTINUOUS
10
67.6405
20
-144.702
11
67.7856
21
-145.171
0
LINE
8
BLACK
6
CONTINUOUS
10
67.7856
20
-145.171
11
68.0191
21
-145.602
0
LINE
8
BLACK
6
CONTINUOUS
10
68.0191
20
-145.602
11
68.3319
21
-145.98
0
LINE
8
BLACK
6
CONTINUOUS
10
68.3319
20
-145.98
11
68.7123
21
-146.291
0
LINE
8
BLACK
6
CONTINUOUS
10
68.7123
20
-146.291
11
69.1457
21
-146.521
0
LINE
8
BLACK
6
CONTINUOUS
10
69.1457
20
-146.521
11
69.6155
21
-146.663
0
LINE
8
BLACK
6
CONTINUOUS
10
69.6155
20
-146.663
11
70.1052
21
-146.711
0
LINE
8
BLACK
6
CONTINUOUS
10
70.1052
20
-146.711
11
165.024
21
-146.711
0
LINE
8
BLACK
6
CONTINUOUS
10
165.024
20
-146.711
11
165.04
21
-146.711
0
LINE
8
BLACK
6
CONTINUOUS
10
165.04
20
-146.711
11
165.53
21
-146.66
0
LINE
8
BLACK
6
CONTINUOUS
10
165.53
20
-146.66
11
165.999
21
-146.514
0
LINE
8
BLACK
6
CONTINUOUS
10
165.999
20
-146.514
11
166.43
21
-146.281
0
LINE
8
BLACK
6
CONTINUOUS
10
166.43
20
-146.281
11
166.808
21
-145.968
0
LINE
8
BLACK
6
CONTINUOUS
10
166.808
20
-145.968
11
167.119
21
-145.588
0
LINE
8
BLACK
6
CONTINUOUS
10
167.119
20
-145.588
11
167.349
21
-145.154
0
LINE
8
BLACK
6
CONTINUOUS
10
167.349
20
-145.154
11
167.491
21
-144.684
0
LINE
8
BLACK
6
CONTINUOUS
10
167.491
20
-144.684
11
167.539
21
-144.195
0
LINE
8
BLACK
6
CONTINUOUS
10
167.539
20
-144.195
11
167.539
21
-49.2761
0
LINE
8
BLACK
6
CONTINUOUS
10
167.539
20
-49.2761
11
167.539
21
-49.2761
0
LINE
8
BLACK
6
CONTINUOUS
10
167.539
20
-49.2761
11
167.539
21
-49.2596
0
LINE
8
BLACK
6
CONTINUOUS
10
167.539
20
-49.2596
11
167.488
21
-48.7703
0
LINE
8
BLACK
6
CONTINUOUS
10
167.488
20
-48.7703
11
167.342
21
-48.3014
0
LINE
8
BLACK
6
CONTINUOUS
10
167.342
20
-48.3014
11
167.109
21
-47.8697
0
LINE
8
BLACK
6
CONTINUOUS
10
167.109
20
-47.8697
11
166.796
21
-47.4915
0
LINE
8
BLACK
6
CONTINUOUS
10
166.796
20
-47.4915
11
166.416
21
-47.1813
0
LINE
8
BLACK
6
CONTINUOUS
10
166.416
20
-47.1813
11
165.982
21
-46.9509
0
LINE
8
BLACK
6
CONTINUOUS
10
165.982
20
-46.9509
11
165.512
21
-46.809
0
LINE
8
BLACK
6
CONTINUOUS
10
165.512
20
-46.809
11
165.023
21
-46.761
0
LINE
8
BLACK
6
CONTINUOUS
10
165.023
20
-46.761
11
70.1041
21
-46.761
  0
ENDSEC
  0
EOF
