  0
SECTION
  2
HEADER
  9
$ANGBASE
  50
0.0
  9
$ANGDIR
  70
1
  9
$MEASUREMENT
  70
1
  0
ENDSEC
  0
SECTION
  2
TABLES
  0
TABLE
  2
LTYPE
  70
4
  0
LTYPE
  5
40F
  2
CONTINUOUS
  70
0
  3
Solid line
  72
65
  73
0
  40
0.0
  0
LTYPE
  5
410
  2
DASHDOT
 70
0
  3
Dash Dot ____ _ ____ _
 72
65
 73
4
 40
2.0
 49
1.25
 49
-0.25
 49
0.25
 49
-0.25
  0
LTYPE
  5
411
  2
DASHED
 70
0
  3
Dashed __ __ __ __ __
 72
65
 73
2
 40
0.75
 49
0.5
 49
-0.25
  0
LTYPE
  5
43B
  2
DOTTED
 70
0
  3
Dotted .  .  .  .
 72
65
 73
2
 40
0.2
 49
0.0
 49
-0.2
  0
ENDTAB
  0
TABLE
  2
STYLE
  70
4
  0
STYLE
  2
KICAD
  70
0
  40
0
  41
1
  42
1
  50
0
  71
0
  3
isocp.shx
  0
STYLE
  2
KICADB
  70
0
  40
0
  41
1
  42
1
  50
0
  71
0
  3
isocp.shx
  0
STYLE
  2
KICADI
  70
0
  40
0
  41
1
  42
1
  50
15
  71
0
  3
isocp.shx
  0
STYLE
  2
KICADBI
  70
0
  40
0
  41
1
  42
1
  50
15
  71
0
  3
isocp.shx
  0
ENDTAB
  0
TABLE
  2
LAYER
  70
1
  0
LAYER
  2
BLACK
  70
0
  62
7
  6
CONTINUOUS
  0
ENDTAB
  0
ENDSEC
  0
SECTION
  2
ENTITIES
0
LINE
8
BLACK
6
CONTINUOUS
10
93.4287
20
-120.5
11
93.4397
21
-120.501
0
LINE
8
BLACK
6
CONTINUOUS
10
93.4397
20
-120.501
11
93.4538
21
-120.505
0
LINE
8
BLACK
6
CONTINUOUS
10
93.4538
20
-120.505
11
93.4669
21
-120.512
0
LINE
8
BLACK
6
CONTINUOUS
10
93.4669
20
-120.512
11
93.4783
21
-120.522
0
LINE
8
BLACK
6
CONTINUOUS
10
93.4783
20
-120.522
11
93.4877
21
-120.533
0
LINE
8
BLACK
6
CONTINUOUS
10
93.4877
20
-120.533
11
93.4946
21
-120.546
0
LINE
8
BLACK
6
CONTINUOUS
10
93.4946
20
-120.546
11
93.4989
21
-120.56
0
LINE
8
BLACK
6
CONTINUOUS
10
93.4989
20
-120.56
11
93.5004
21
-120.575
0
LINE
8
BLACK
6
CONTINUOUS
10
93.5004
20
-120.575
11
93.5
21
-120.579
0
LINE
8
BLACK
6
CONTINUOUS
10
93.5
20
-120.579
11
93.5
21
-139.621
0
LINE
8
BLACK
6
CONTINUOUS
10
93.5
20
-139.621
11
93.5004
21
-139.625
0
LINE
8
BLACK
6
CONTINUOUS
10
93.5004
20
-139.625
11
93.4989
21
-139.64
0
LINE
8
BLACK
6
CONTINUOUS
10
93.4989
20
-139.64
11
93.4946
21
-139.654
0
LINE
8
BLACK
6
CONTINUOUS
10
93.4946
20
-139.654
11
93.4877
21
-139.667
0
LINE
8
BLACK
6
CONTINUOUS
10
93.4877
20
-139.667
11
93.4783
21
-139.678
0
LINE
8
BLACK
6
CONTINUOUS
10
93.4783
20
-139.678
11
93.4669
21
-139.688
0
LINE
8
BLACK
6
CONTINUOUS
10
93.4669
20
-139.688
11
93.4538
21
-139.695
0
LINE
8
BLACK
6
CONTINUOUS
10
93.4538
20
-139.695
11
93.4397
21
-139.699
0
LINE
8
BLACK
6
CONTINUOUS
10
93.4397
20
-139.699
11
93.4287
21
-139.7
0
LINE
8
BLACK
6
CONTINUOUS
10
93.4287
20
-139.7
11
93.425
21
-139.7
0
LINE
8
BLACK
6
CONTINUOUS
10
93.425
20
-139.7
11
93.4213
21
-139.7
0
LINE
8
BLACK
6
CONTINUOUS
10
93.4213
20
-139.7
11
74.3787
21
-139.7
0
LINE
8
BLACK
6
CONTINUOUS
10
74.3787
20
-139.7
11
74.375
21
-139.7
0
LINE
8
BLACK
6
CONTINUOUS
10
74.375
20
-139.7
11
74.3603
21
-139.699
0
LINE
8
BLACK
6
CONTINUOUS
10
74.3603
20
-139.699
11
74.3462
21
-139.695
0
LINE
8
BLACK
6
CONTINUOUS
10
74.3462
20
-139.695
11
74.3331
21
-139.688
0
LINE
8
BLACK
6
CONTINUOUS
10
74.3331
20
-139.688
11
74.3217
21
-139.678
0
LINE
8
BLACK
6
CONTINUOUS
10
74.3217
20
-139.678
11
74.3123
21
-139.667
0
LINE
8
BLACK
6
CONTINUOUS
10
74.3123
20
-139.667
11
74.3054
21
-139.654
0
LINE
8
BLACK
6
CONTINUOUS
10
74.3054
20
-139.654
11
74.3011
21
-139.64
0
LINE
8
BLACK
6
CONTINUOUS
10
74.3011
20
-139.64
11
74.2996
21
-139.625
0
LINE
8
BLACK
6
CONTINUOUS
10
74.2996
20
-139.625
11
74.3
21
-139.621
0
LINE
8
BLACK
6
CONTINUOUS
10
74.3
20
-139.621
11
74.3
21
-120.579
0
LINE
8
BLACK
6
CONTINUOUS
10
74.3
20
-120.579
11
74.2996
21
-120.575
0
LINE
8
BLACK
6
CONTINUOUS
10
74.2996
20
-120.575
11
74.3011
21
-120.56
0
LINE
8
BLACK
6
CONTINUOUS
10
74.3011
20
-120.56
11
74.3054
21
-120.546
0
LINE
8
BLACK
6
CONTINUOUS
10
74.3054
20
-120.546
11
74.3123
21
-120.533
0
LINE
8
BLACK
6
CONTINUOUS
10
74.3123
20
-120.533
11
74.3217
21
-120.522
0
LINE
8
BLACK
6
CONTINUOUS
10
74.3217
20
-120.522
11
74.3331
21
-120.512
0
LINE
8
BLACK
6
CONTINUOUS
10
74.3331
20
-120.512
11
74.3462
21
-120.505
0
LINE
8
BLACK
6
CONTINUOUS
10
74.3462
20
-120.505
11
74.3603
21
-120.501
0
LINE
8
BLACK
6
CONTINUOUS
10
74.3603
20
-120.501
11
74.3713
21
-120.5
0
LINE
8
BLACK
6
CONTINUOUS
10
74.3713
20
-120.5
11
74.375
21
-120.5
0
LINE
8
BLACK
6
CONTINUOUS
10
74.375
20
-120.5
11
74.3787
21
-120.5
0
LINE
8
BLACK
6
CONTINUOUS
10
74.3787
20
-120.5
11
93.4213
21
-120.5
0
LINE
8
BLACK
6
CONTINUOUS
10
93.4213
20
-120.5
11
93.425
21
-120.5
0
LINE
8
BLACK
6
CONTINUOUS
10
93.425
20
-120.5
11
93.4287
21
-120.5
0
LINE
8
BLACK
6
CONTINUOUS
10
74.45
20
-120.65
11
74.45
21
-139.55
0
LINE
8
BLACK
6
CONTINUOUS
10
74.45
20
-139.55
11
93.35
21
-139.55
0
LINE
8
BLACK
6
CONTINUOUS
10
93.35
20
-139.55
11
93.35
21
-120.65
0
LINE
8
BLACK
6
CONTINUOUS
10
93.35
20
-120.65
11
74.45
21
-120.65
0
LINE
8
BLACK
6
CONTINUOUS
10
117.729
20
-120.4
11
117.74
21
-120.401
0
LINE
8
BLACK
6
CONTINUOUS
10
117.74
20
-120.401
11
117.754
21
-120.405
0
LINE
8
BLACK
6
CONTINUOUS
10
117.754
20
-120.405
11
117.767
21
-120.412
0
LINE
8
BLACK
6
CONTINUOUS
10
117.767
20
-120.412
11
117.778
21
-120.422
0
LINE
8
BLACK
6
CONTINUOUS
10
117.778
20
-120.422
11
117.788
21
-120.433
0
LINE
8
BLACK
6
CONTINUOUS
10
117.788
20
-120.433
11
117.795
21
-120.446
0
LINE
8
BLACK
6
CONTINUOUS
10
117.795
20
-120.446
11
117.799
21
-120.46
0
LINE
8
BLACK
6
CONTINUOUS
10
117.799
20
-120.46
11
117.8
21
-120.475
0
LINE
8
BLACK
6
CONTINUOUS
10
117.8
20
-120.475
11
117.8
21
-120.479
0
LINE
8
BLACK
6
CONTINUOUS
10
117.8
20
-120.479
11
117.8
21
-139.521
0
LINE
8
BLACK
6
CONTINUOUS
10
117.8
20
-139.521
11
117.8
21
-139.525
0
LINE
8
BLACK
6
CONTINUOUS
10
117.8
20
-139.525
11
117.799
21
-139.54
0
LINE
8
BLACK
6
CONTINUOUS
10
117.799
20
-139.54
11
117.795
21
-139.554
0
LINE
8
BLACK
6
CONTINUOUS
10
117.795
20
-139.554
11
117.788
21
-139.567
0
LINE
8
BLACK
6
CONTINUOUS
10
117.788
20
-139.567
11
117.778
21
-139.578
0
LINE
8
BLACK
6
CONTINUOUS
10
117.778
20
-139.578
11
117.767
21
-139.588
0
LINE
8
BLACK
6
CONTINUOUS
10
117.767
20
-139.588
11
117.754
21
-139.595
0
LINE
8
BLACK
6
CONTINUOUS
10
117.754
20
-139.595
11
117.74
21
-139.599
0
LINE
8
BLACK
6
CONTINUOUS
10
117.74
20
-139.599
11
117.729
21
-139.6
0
LINE
8
BLACK
6
CONTINUOUS
10
117.729
20
-139.6
11
117.725
21
-139.6
0
LINE
8
BLACK
6
CONTINUOUS
10
117.725
20
-139.6
11
117.721
21
-139.6
0
LINE
8
BLACK
6
CONTINUOUS
10
117.721
20
-139.6
11
98.6787
21
-139.6
0
LINE
8
BLACK
6
CONTINUOUS
10
98.6787
20
-139.6
11
98.675
21
-139.6
0
LINE
8
BLACK
6
CONTINUOUS
10
98.675
20
-139.6
11
98.6603
21
-139.599
0
LINE
8
BLACK
6
CONTINUOUS
10
98.6603
20
-139.599
11
98.6462
21
-139.595
0
LINE
8
BLACK
6
CONTINUOUS
10
98.6462
20
-139.595
11
98.6331
21
-139.588
0
LINE
8
BLACK
6
CONTINUOUS
10
98.6331
20
-139.588
11
98.6217
21
-139.578
0
LINE
8
BLACK
6
CONTINUOUS
10
98.6217
20
-139.578
11
98.6163
21
-139.572
0
LINE
8
BLACK
6
CONTINUOUS
10
98.6163
20
-139.572
11
98.6123
21
-139.567
0
LINE
8
BLACK
6
CONTINUOUS
10
98.6123
20
-139.567
11
98.6054
21
-139.554
0
LINE
8
BLACK
6
CONTINUOUS
10
98.6054
20
-139.554
11
98.6011
21
-139.54
0
LINE
8
BLACK
6
CONTINUOUS
10
98.6011
20
-139.54
11
98.5996
21
-139.525
0
LINE
8
BLACK
6
CONTINUOUS
10
98.5996
20
-139.525
11
98.6
21
-139.521
0
LINE
8
BLACK
6
CONTINUOUS
10
98.6
20
-139.521
11
98.6
21
-120.479
0
LINE
8
BLACK
6
CONTINUOUS
10
98.6
20
-120.479
11
98.5996
21
-120.475
0
LINE
8
BLACK
6
CONTINUOUS
10
98.5996
20
-120.475
11
98.6011
21
-120.46
0
LINE
8
BLACK
6
CONTINUOUS
10
98.6011
20
-120.46
11
98.6054
21
-120.446
0
LINE
8
BLACK
6
CONTINUOUS
10
98.6054
20
-120.446
11
98.6123
21
-120.433
0
LINE
8
BLACK
6
CONTINUOUS
10
98.6123
20
-120.433
11
98.6217
21
-120.422
0
LINE
8
BLACK
6
CONTINUOUS
10
98.6217
20
-120.422
11
98.6331
21
-120.412
0
LINE
8
BLACK
6
CONTINUOUS
10
98.6331
20
-120.412
11
98.6462
21
-120.405
0
LINE
8
BLACK
6
CONTINUOUS
10
98.6462
20
-120.405
11
98.6603
21
-120.401
0
LINE
8
BLACK
6
CONTINUOUS
10
98.6603
20
-120.401
11
98.6713
21
-120.4
0
LINE
8
BLACK
6
CONTINUOUS
10
98.6713
20
-120.4
11
98.675
21
-120.4
0
LINE
8
BLACK
6
CONTINUOUS
10
98.675
20
-120.4
11
98.6787
21
-120.4
0
LINE
8
BLACK
6
CONTINUOUS
10
98.6787
20
-120.4
11
117.721
21
-120.4
0
LINE
8
BLACK
6
CONTINUOUS
10
117.721
20
-120.4
11
117.725
21
-120.4
0
LINE
8
BLACK
6
CONTINUOUS
10
117.725
20
-120.4
11
117.729
21
-120.4
0
LINE
8
BLACK
6
CONTINUOUS
10
98.75
20
-120.55
11
98.75
21
-139.45
0
LINE
8
BLACK
6
CONTINUOUS
10
98.75
20
-139.45
11
117.65
21
-139.45
0
LINE
8
BLACK
6
CONTINUOUS
10
117.65
20
-139.45
11
117.65
21
-120.55
0
LINE
8
BLACK
6
CONTINUOUS
10
117.65
20
-120.55
11
98.75
21
-120.55
0
LINE
8
BLACK
6
CONTINUOUS
10
141.979
20
-120.3
11
141.99
21
-120.301
0
LINE
8
BLACK
6
CONTINUOUS
10
141.99
20
-120.301
11
142.004
21
-120.305
0
LINE
8
BLACK
6
CONTINUOUS
10
142.004
20
-120.305
11
142.017
21
-120.312
0
LINE
8
BLACK
6
CONTINUOUS
10
142.017
20
-120.312
11
142.028
21
-120.322
0
LINE
8
BLACK
6
CONTINUOUS
10
142.028
20
-120.322
11
142.038
21
-120.333
0
LINE
8
BLACK
6
CONTINUOUS
10
142.038
20
-120.333
11
142.045
21
-120.346
0
LINE
8
BLACK
6
CONTINUOUS
10
142.045
20
-120.346
11
142.049
21
-120.36
0
LINE
8
BLACK
6
CONTINUOUS
10
142.049
20
-120.36
11
142.05
21
-120.375
0
LINE
8
BLACK
6
CONTINUOUS
10
142.05
20
-120.375
11
142.05
21
-120.379
0
LINE
8
BLACK
6
CONTINUOUS
10
142.05
20
-120.379
11
142.05
21
-139.421
0
LINE
8
BLACK
6
CONTINUOUS
10
142.05
20
-139.421
11
142.05
21
-139.425
0
LINE
8
BLACK
6
CONTINUOUS
10
142.05
20
-139.425
11
142.049
21
-139.44
0
LINE
8
BLACK
6
CONTINUOUS
10
142.049
20
-139.44
11
142.045
21
-139.454
0
LINE
8
BLACK
6
CONTINUOUS
10
142.045
20
-139.454
11
142.038
21
-139.467
0
LINE
8
BLACK
6
CONTINUOUS
10
142.038
20
-139.467
11
142.028
21
-139.478
0
LINE
8
BLACK
6
CONTINUOUS
10
142.028
20
-139.478
11
142.017
21
-139.488
0
LINE
8
BLACK
6
CONTINUOUS
10
142.017
20
-139.488
11
142.004
21
-139.495
0
LINE
8
BLACK
6
CONTINUOUS
10
142.004
20
-139.495
11
141.99
21
-139.499
0
LINE
8
BLACK
6
CONTINUOUS
10
141.99
20
-139.499
11
141.979
21
-139.5
0
LINE
8
BLACK
6
CONTINUOUS
10
141.979
20
-139.5
11
141.975
21
-139.5
0
LINE
8
BLACK
6
CONTINUOUS
10
141.975
20
-139.5
11
141.971
21
-139.5
0
LINE
8
BLACK
6
CONTINUOUS
10
141.971
20
-139.5
11
122.929
21
-139.5
0
LINE
8
BLACK
6
CONTINUOUS
10
122.929
20
-139.5
11
122.925
21
-139.5
0
LINE
8
BLACK
6
CONTINUOUS
10
122.925
20
-139.5
11
122.91
21
-139.499
0
LINE
8
BLACK
6
CONTINUOUS
10
122.91
20
-139.499
11
122.896
21
-139.495
0
LINE
8
BLACK
6
CONTINUOUS
10
122.896
20
-139.495
11
122.883
21
-139.488
0
LINE
8
BLACK
6
CONTINUOUS
10
122.883
20
-139.488
11
122.872
21
-139.478
0
LINE
8
BLACK
6
CONTINUOUS
10
122.872
20
-139.478
11
122.866
21
-139.472
0
LINE
8
BLACK
6
CONTINUOUS
10
122.866
20
-139.472
11
122.862
21
-139.467
0
LINE
8
BLACK
6
CONTINUOUS
10
122.862
20
-139.467
11
122.855
21
-139.454
0
LINE
8
BLACK
6
CONTINUOUS
10
122.855
20
-139.454
11
122.851
21
-139.44
0
LINE
8
BLACK
6
CONTINUOUS
10
122.851
20
-139.44
11
122.85
21
-139.425
0
LINE
8
BLACK
6
CONTINUOUS
10
122.85
20
-139.425
11
122.85
21
-139.421
0
LINE
8
BLACK
6
CONTINUOUS
10
122.85
20
-139.421
11
122.85
21
-120.379
0
LINE
8
BLACK
6
CONTINUOUS
10
122.85
20
-120.379
11
122.85
21
-120.375
0
LINE
8
BLACK
6
CONTINUOUS
10
122.85
20
-120.375
11
122.851
21
-120.36
0
LINE
8
BLACK
6
CONTINUOUS
10
122.851
20
-120.36
11
122.855
21
-120.346
0
LINE
8
BLACK
6
CONTINUOUS
10
122.855
20
-120.346
11
122.862
21
-120.333
0
LINE
8
BLACK
6
CONTINUOUS
10
122.862
20
-120.333
11
122.872
21
-120.322
0
LINE
8
BLACK
6
CONTINUOUS
10
122.872
20
-120.322
11
122.883
21
-120.312
0
LINE
8
BLACK
6
CONTINUOUS
10
122.883
20
-120.312
11
122.896
21
-120.305
0
LINE
8
BLACK
6
CONTINUOUS
10
122.896
20
-120.305
11
122.91
21
-120.301
0
LINE
8
BLACK
6
CONTINUOUS
10
122.91
20
-120.301
11
122.921
21
-120.3
0
LINE
8
BLACK
6
CONTINUOUS
10
122.921
20
-120.3
11
122.925
21
-120.3
0
LINE
8
BLACK
6
CONTINUOUS
10
122.925
20
-120.3
11
122.929
21
-120.3
0
LINE
8
BLACK
6
CONTINUOUS
10
122.929
20
-120.3
11
141.971
21
-120.3
0
LINE
8
BLACK
6
CONTINUOUS
10
141.971
20
-120.3
11
141.975
21
-120.3
0
LINE
8
BLACK
6
CONTINUOUS
10
141.975
20
-120.3
11
141.979
21
-120.3
0
LINE
8
BLACK
6
CONTINUOUS
10
123
20
-120.45
11
123
21
-139.35
0
LINE
8
BLACK
6
CONTINUOUS
10
123
20
-139.35
11
141.9
21
-139.35
0
LINE
8
BLACK
6
CONTINUOUS
10
141.9
20
-139.35
11
141.9
21
-120.45
0
LINE
8
BLACK
6
CONTINUOUS
10
141.9
20
-120.45
11
123
21
-120.45
0
LINE
8
BLACK
6
CONTINUOUS
10
165.479
20
-120.3
11
165.49
21
-120.301
0
LINE
8
BLACK
6
CONTINUOUS
10
165.49
20
-120.301
11
165.504
21
-120.305
0
LINE
8
BLACK
6
CONTINUOUS
10
165.504
20
-120.305
11
165.517
21
-120.312
0
LINE
8
BLACK
6
CONTINUOUS
10
165.517
20
-120.312
11
165.528
21
-120.322
0
LINE
8
BLACK
6
CONTINUOUS
10
165.528
20
-120.322
11
165.538
21
-120.333
0
LINE
8
BLACK
6
CONTINUOUS
10
165.538
20
-120.333
11
165.545
21
-120.346
0
LINE
8
BLACK
6
CONTINUOUS
10
165.545
20
-120.346
11
165.549
21
-120.36
0
LINE
8
BLACK
6
CONTINUOUS
10
165.549
20
-120.36
11
165.55
21
-120.375
0
LINE
8
BLACK
6
CONTINUOUS
10
165.55
20
-120.375
11
165.55
21
-120.379
0
LINE
8
BLACK
6
CONTINUOUS
10
165.55
20
-120.379
11
165.55
21
-139.421
0
LINE
8
BLACK
6
CONTINUOUS
10
165.55
20
-139.421
11
165.55
21
-139.425
0
LINE
8
BLACK
6
CONTINUOUS
10
165.55
20
-139.425
11
165.549
21
-139.44
0
LINE
8
BLACK
6
CONTINUOUS
10
165.549
20
-139.44
11
165.545
21
-139.454
0
LINE
8
BLACK
6
CONTINUOUS
10
165.545
20
-139.454
11
165.538
21
-139.467
0
LINE
8
BLACK
6
CONTINUOUS
10
165.538
20
-139.467
11
165.528
21
-139.478
0
LINE
8
BLACK
6
CONTINUOUS
10
165.528
20
-139.478
11
165.517
21
-139.488
0
LINE
8
BLACK
6
CONTINUOUS
10
165.517
20
-139.488
11
165.504
21
-139.495
0
LINE
8
BLACK
6
CONTINUOUS
10
165.504
20
-139.495
11
165.49
21
-139.499
0
LINE
8
BLACK
6
CONTINUOUS
10
165.49
20
-139.499
11
165.479
21
-139.5
0
LINE
8
BLACK
6
CONTINUOUS
10
165.479
20
-139.5
11
165.475
21
-139.5
0
LINE
8
BLACK
6
CONTINUOUS
10
165.475
20
-139.5
11
165.471
21
-139.5
0
LINE
8
BLACK
6
CONTINUOUS
10
165.471
20
-139.5
11
146.429
21
-139.5
0
LINE
8
BLACK
6
CONTINUOUS
10
146.429
20
-139.5
11
146.425
21
-139.5
0
LINE
8
BLACK
6
CONTINUOUS
10
146.425
20
-139.5
11
146.41
21
-139.499
0
LINE
8
BLACK
6
CONTINUOUS
10
146.41
20
-139.499
11
146.396
21
-139.495
0
LINE
8
BLACK
6
CONTINUOUS
10
146.396
20
-139.495
11
146.383
21
-139.488
0
LINE
8
BLACK
6
CONTINUOUS
10
146.383
20
-139.488
11
146.372
21
-139.478
0
LINE
8
BLACK
6
CONTINUOUS
10
146.372
20
-139.478
11
146.366
21
-139.472
0
LINE
8
BLACK
6
CONTINUOUS
10
146.366
20
-139.472
11
146.362
21
-139.467
0
LINE
8
BLACK
6
CONTINUOUS
10
146.362
20
-139.467
11
146.355
21
-139.454
0
LINE
8
BLACK
6
CONTINUOUS
10
146.355
20
-139.454
11
146.351
21
-139.44
0
LINE
8
BLACK
6
CONTINUOUS
10
146.351
20
-139.44
11
146.35
21
-139.425
0
LINE
8
BLACK
6
CONTINUOUS
10
146.35
20
-139.425
11
146.35
21
-139.421
0
LINE
8
BLACK
6
CONTINUOUS
10
146.35
20
-139.421
11
146.35
21
-120.379
0
LINE
8
BLACK
6
CONTINUOUS
10
146.35
20
-120.379
11
146.35
21
-120.375
0
LINE
8
BLACK
6
CONTINUOUS
10
146.35
20
-120.375
11
146.351
21
-120.36
0
LINE
8
BLACK
6
CONTINUOUS
10
146.351
20
-120.36
11
146.355
21
-120.346
0
LINE
8
BLACK
6
CONTINUOUS
10
146.355
20
-120.346
11
146.362
21
-120.333
0
LINE
8
BLACK
6
CONTINUOUS
10
146.362
20
-120.333
11
146.372
21
-120.322
0
LINE
8
BLACK
6
CONTINUOUS
10
146.372
20
-120.322
11
146.383
21
-120.312
0
LINE
8
BLACK
6
CONTINUOUS
10
146.383
20
-120.312
11
146.396
21
-120.305
0
LINE
8
BLACK
6
CONTINUOUS
10
146.396
20
-120.305
11
146.41
21
-120.301
0
LINE
8
BLACK
6
CONTINUOUS
10
146.41
20
-120.301
11
146.421
21
-120.3
0
LINE
8
BLACK
6
CONTINUOUS
10
146.421
20
-120.3
11
146.425
21
-120.3
0
LINE
8
BLACK
6
CONTINUOUS
10
146.425
20
-120.3
11
146.429
21
-120.3
0
LINE
8
BLACK
6
CONTINUOUS
10
146.429
20
-120.3
11
165.471
21
-120.3
0
LINE
8
BLACK
6
CONTINUOUS
10
165.471
20
-120.3
11
165.475
21
-120.3
0
LINE
8
BLACK
6
CONTINUOUS
10
165.475
20
-120.3
11
165.479
21
-120.3
0
LINE
8
BLACK
6
CONTINUOUS
10
146.5
20
-120.45
11
146.5
21
-139.35
0
LINE
8
BLACK
6
CONTINUOUS
10
146.5
20
-139.35
11
165.4
21
-139.35
0
LINE
8
BLACK
6
CONTINUOUS
10
165.4
20
-139.35
11
165.4
21
-120.45
0
LINE
8
BLACK
6
CONTINUOUS
10
165.4
20
-120.45
11
146.5
21
-120.45
0
LINE
8
BLACK
6
CONTINUOUS
10
156.629
20
-88.4
11
156.64
21
-88.4011
0
LINE
8
BLACK
6
CONTINUOUS
10
156.64
20
-88.4011
11
156.654
21
-88.4054
0
LINE
8
BLACK
6
CONTINUOUS
10
156.654
20
-88.4054
11
156.667
21
-88.4123
0
LINE
8
BLACK
6
CONTINUOUS
10
156.667
20
-88.4123
11
156.678
21
-88.4217
0
LINE
8
BLACK
6
CONTINUOUS
10
156.678
20
-88.4217
11
156.688
21
-88.4331
0
LINE
8
BLACK
6
CONTINUOUS
10
156.688
20
-88.4331
11
156.695
21
-88.4462
0
LINE
8
BLACK
6
CONTINUOUS
10
156.695
20
-88.4462
11
156.699
21
-88.4603
0
LINE
8
BLACK
6
CONTINUOUS
10
156.699
20
-88.4603
11
156.7
21
-88.475
0
LINE
8
BLACK
6
CONTINUOUS
10
156.7
20
-88.475
11
156.7
21
-88.4787
0
LINE
8
BLACK
6
CONTINUOUS
10
156.7
20
-88.4787
11
156.7
21
-107.521
0
LINE
8
BLACK
6
CONTINUOUS
10
156.7
20
-107.521
11
156.7
21
-107.525
0
LINE
8
BLACK
6
CONTINUOUS
10
156.7
20
-107.525
11
156.699
21
-107.54
0
LINE
8
BLACK
6
CONTINUOUS
10
156.699
20
-107.54
11
156.695
21
-107.554
0
LINE
8
BLACK
6
CONTINUOUS
10
156.695
20
-107.554
11
156.688
21
-107.567
0
LINE
8
BLACK
6
CONTINUOUS
10
156.688
20
-107.567
11
156.678
21
-107.578
0
LINE
8
BLACK
6
CONTINUOUS
10
156.678
20
-107.578
11
156.667
21
-107.588
0
LINE
8
BLACK
6
CONTINUOUS
10
156.667
20
-107.588
11
156.654
21
-107.595
0
LINE
8
BLACK
6
CONTINUOUS
10
156.654
20
-107.595
11
156.64
21
-107.599
0
LINE
8
BLACK
6
CONTINUOUS
10
156.64
20
-107.599
11
156.629
21
-107.6
0
LINE
8
BLACK
6
CONTINUOUS
10
156.629
20
-107.6
11
156.625
21
-107.6
0
LINE
8
BLACK
6
CONTINUOUS
10
156.625
20
-107.6
11
156.621
21
-107.6
0
LINE
8
BLACK
6
CONTINUOUS
10
156.621
20
-107.6
11
137.579
21
-107.6
0
LINE
8
BLACK
6
CONTINUOUS
10
137.579
20
-107.6
11
137.575
21
-107.6
0
LINE
8
BLACK
6
CONTINUOUS
10
137.575
20
-107.6
11
137.56
21
-107.599
0
LINE
8
BLACK
6
CONTINUOUS
10
137.56
20
-107.599
11
137.546
21
-107.595
0
LINE
8
BLACK
6
CONTINUOUS
10
137.546
20
-107.595
11
137.533
21
-107.588
0
LINE
8
BLACK
6
CONTINUOUS
10
137.533
20
-107.588
11
137.522
21
-107.578
0
LINE
8
BLACK
6
CONTINUOUS
10
137.522
20
-107.578
11
137.512
21
-107.567
0
LINE
8
BLACK
6
CONTINUOUS
10
137.512
20
-107.567
11
137.505
21
-107.554
0
LINE
8
BLACK
6
CONTINUOUS
10
137.505
20
-107.554
11
137.501
21
-107.54
0
LINE
8
BLACK
6
CONTINUOUS
10
137.501
20
-107.54
11
137.5
21
-107.525
0
LINE
8
BLACK
6
CONTINUOUS
10
137.5
20
-107.525
11
137.5
21
-107.521
0
LINE
8
BLACK
6
CONTINUOUS
10
137.5
20
-107.521
11
137.5
21
-88.4787
0
LINE
8
BLACK
6
CONTINUOUS
10
137.5
20
-88.4787
11
137.5
21
-88.475
0
LINE
8
BLACK
6
CONTINUOUS
10
137.5
20
-88.475
11
137.501
21
-88.4603
0
LINE
8
BLACK
6
CONTINUOUS
10
137.501
20
-88.4603
11
137.505
21
-88.4462
0
LINE
8
BLACK
6
CONTINUOUS
10
137.505
20
-88.4462
11
137.512
21
-88.4331
0
LINE
8
BLACK
6
CONTINUOUS
10
137.512
20
-88.4331
11
137.522
21
-88.4217
0
LINE
8
BLACK
6
CONTINUOUS
10
137.522
20
-88.4217
11
137.533
21
-88.4123
0
LINE
8
BLACK
6
CONTINUOUS
10
137.533
20
-88.4123
11
137.546
21
-88.4054
0
LINE
8
BLACK
6
CONTINUOUS
10
137.546
20
-88.4054
11
137.56
21
-88.4011
0
LINE
8
BLACK
6
CONTINUOUS
10
137.56
20
-88.4011
11
137.571
21
-88.4
0
LINE
8
BLACK
6
CONTINUOUS
10
137.571
20
-88.4
11
137.575
21
-88.3996
0
LINE
8
BLACK
6
CONTINUOUS
10
137.575
20
-88.3996
11
137.579
21
-88.4
0
LINE
8
BLACK
6
CONTINUOUS
10
137.579
20
-88.4
11
156.621
21
-88.4
0
LINE
8
BLACK
6
CONTINUOUS
10
156.621
20
-88.4
11
156.625
21
-88.3996
0
LINE
8
BLACK
6
CONTINUOUS
10
156.625
20
-88.3996
11
156.629
21
-88.4
0
LINE
8
BLACK
6
CONTINUOUS
10
137.65
20
-88.55
11
137.65
21
-107.45
0
LINE
8
BLACK
6
CONTINUOUS
10
137.65
20
-107.45
11
156.55
21
-107.45
0
LINE
8
BLACK
6
CONTINUOUS
10
156.55
20
-107.45
11
156.55
21
-88.55
0
LINE
8
BLACK
6
CONTINUOUS
10
156.55
20
-88.55
11
137.65
21
-88.55
0
LINE
8
BLACK
6
CONTINUOUS
10
105.779
20
-88.25
11
105.79
21
-88.2511
0
LINE
8
BLACK
6
CONTINUOUS
10
105.79
20
-88.2511
11
105.804
21
-88.2554
0
LINE
8
BLACK
6
CONTINUOUS
10
105.804
20
-88.2554
11
105.817
21
-88.2623
0
LINE
8
BLACK
6
CONTINUOUS
10
105.817
20
-88.2623
11
105.828
21
-88.2717
0
LINE
8
BLACK
6
CONTINUOUS
10
105.828
20
-88.2717
11
105.838
21
-88.2831
0
LINE
8
BLACK
6
CONTINUOUS
10
105.838
20
-88.2831
11
105.845
21
-88.2962
0
LINE
8
BLACK
6
CONTINUOUS
10
105.845
20
-88.2962
11
105.849
21
-88.3103
0
LINE
8
BLACK
6
CONTINUOUS
10
105.849
20
-88.3103
11
105.85
21
-88.325
0
LINE
8
BLACK
6
CONTINUOUS
10
105.85
20
-88.325
11
105.85
21
-88.3287
0
LINE
8
BLACK
6
CONTINUOUS
10
105.85
20
-88.3287
11
105.85
21
-107.371
0
LINE
8
BLACK
6
CONTINUOUS
10
105.85
20
-107.371
11
105.85
21
-107.375
0
LINE
8
BLACK
6
CONTINUOUS
10
105.85
20
-107.375
11
105.849
21
-107.39
0
LINE
8
BLACK
6
CONTINUOUS
10
105.849
20
-107.39
11
105.845
21
-107.404
0
LINE
8
BLACK
6
CONTINUOUS
10
105.845
20
-107.404
11
105.838
21
-107.417
0
LINE
8
BLACK
6
CONTINUOUS
10
105.838
20
-107.417
11
105.828
21
-107.428
0
LINE
8
BLACK
6
CONTINUOUS
10
105.828
20
-107.428
11
105.817
21
-107.438
0
LINE
8
BLACK
6
CONTINUOUS
10
105.817
20
-107.438
11
105.804
21
-107.445
0
LINE
8
BLACK
6
CONTINUOUS
10
105.804
20
-107.445
11
105.79
21
-107.449
0
LINE
8
BLACK
6
CONTINUOUS
10
105.79
20
-107.449
11
105.779
21
-107.45
0
LINE
8
BLACK
6
CONTINUOUS
10
105.779
20
-107.45
11
105.775
21
-107.45
0
LINE
8
BLACK
6
CONTINUOUS
10
105.775
20
-107.45
11
105.771
21
-107.45
0
LINE
8
BLACK
6
CONTINUOUS
10
105.771
20
-107.45
11
86.7287
21
-107.45
0
LINE
8
BLACK
6
CONTINUOUS
10
86.7287
20
-107.45
11
86.725
21
-107.45
0
LINE
8
BLACK
6
CONTINUOUS
10
86.725
20
-107.45
11
86.7103
21
-107.449
0
LINE
8
BLACK
6
CONTINUOUS
10
86.7103
20
-107.449
11
86.6962
21
-107.445
0
LINE
8
BLACK
6
CONTINUOUS
10
86.6962
20
-107.445
11
86.6831
21
-107.438
0
LINE
8
BLACK
6
CONTINUOUS
10
86.6831
20
-107.438
11
86.6717
21
-107.428
0
LINE
8
BLACK
6
CONTINUOUS
10
86.6717
20
-107.428
11
86.6623
21
-107.417
0
LINE
8
BLACK
6
CONTINUOUS
10
86.6623
20
-107.417
11
86.6554
21
-107.404
0
LINE
8
BLACK
6
CONTINUOUS
10
86.6554
20
-107.404
11
86.6511
21
-107.39
0
LINE
8
BLACK
6
CONTINUOUS
10
86.6511
20
-107.39
11
86.6496
21
-107.375
0
LINE
8
BLACK
6
CONTINUOUS
10
86.6496
20
-107.375
11
86.65
21
-107.371
0
LINE
8
BLACK
6
CONTINUOUS
10
86.65
20
-107.371
11
86.65
21
-88.3287
0
LINE
8
BLACK
6
CONTINUOUS
10
86.65
20
-88.3287
11
86.6496
21
-88.325
0
LINE
8
BLACK
6
CONTINUOUS
10
86.6496
20
-88.325
11
86.6511
21
-88.3103
0
LINE
8
BLACK
6
CONTINUOUS
10
86.6511
20
-88.3103
11
86.6554
21
-88.2962
0
LINE
8
BLACK
6
CONTINUOUS
10
86.6554
20
-88.2962
11
86.6623
21
-88.2831
0
LINE
8
BLACK
6
CONTINUOUS
10
86.6623
20
-88.2831
11
86.6717
21
-88.2717
0
LINE
8
BLACK
6
CONTINUOUS
10
86.6717
20
-88.2717
11
86.6831
21
-88.2623
0
LINE
8
BLACK
6
CONTINUOUS
10
86.6831
20
-88.2623
11
86.6962
21
-88.2554
0
LINE
8
BLACK
6
CONTINUOUS
10
86.6962
20
-88.2554
11
86.7103
21
-88.2511
0
LINE
8
BLACK
6
CONTINUOUS
10
86.7103
20
-88.2511
11
86.7213
21
-88.25
0
LINE
8
BLACK
6
CONTINUOUS
10
86.7213
20
-88.25
11
86.725
21
-88.2496
0
LINE
8
BLACK
6
CONTINUOUS
10
86.725
20
-88.2496
11
86.7287
21
-88.25
0
LINE
8
BLACK
6
CONTINUOUS
10
86.7287
20
-88.25
11
105.771
21
-88.25
0
LINE
8
BLACK
6
CONTINUOUS
10
105.771
20
-88.25
11
105.775
21
-88.2496
0
LINE
8
BLACK
6
CONTINUOUS
10
105.775
20
-88.2496
11
105.779
21
-88.25
0
LINE
8
BLACK
6
CONTINUOUS
10
86.8
20
-88.4
11
86.8
21
-107.3
0
LINE
8
BLACK
6
CONTINUOUS
10
86.8
20
-107.3
11
105.7
21
-107.3
0
LINE
8
BLACK
6
CONTINUOUS
10
105.7
20
-107.3
11
105.7
21
-88.4
0
LINE
8
BLACK
6
CONTINUOUS
10
105.7
20
-88.4
11
86.8
21
-88.4
0
LINE
8
BLACK
6
CONTINUOUS
10
131.279
20
-88.25
11
131.29
21
-88.2511
0
LINE
8
BLACK
6
CONTINUOUS
10
131.29
20
-88.2511
11
131.304
21
-88.2554
0
LINE
8
BLACK
6
CONTINUOUS
10
131.304
20
-88.2554
11
131.317
21
-88.2623
0
LINE
8
BLACK
6
CONTINUOUS
10
131.317
20
-88.2623
11
131.328
21
-88.2717
0
LINE
8
BLACK
6
CONTINUOUS
10
131.328
20
-88.2717
11
131.338
21
-88.2831
0
LINE
8
BLACK
6
CONTINUOUS
10
131.338
20
-88.2831
11
131.345
21
-88.2962
0
LINE
8
BLACK
6
CONTINUOUS
10
131.345
20
-88.2962
11
131.349
21
-88.3103
0
LINE
8
BLACK
6
CONTINUOUS
10
131.349
20
-88.3103
11
131.35
21
-88.325
0
LINE
8
BLACK
6
CONTINUOUS
10
131.35
20
-88.325
11
131.35
21
-88.3287
0
LINE
8
BLACK
6
CONTINUOUS
10
131.35
20
-88.3287
11
131.35
21
-107.371
0
LINE
8
BLACK
6
CONTINUOUS
10
131.35
20
-107.371
11
131.35
21
-107.375
0
LINE
8
BLACK
6
CONTINUOUS
10
131.35
20
-107.375
11
131.349
21
-107.39
0
LINE
8
BLACK
6
CONTINUOUS
10
131.349
20
-107.39
11
131.345
21
-107.404
0
LINE
8
BLACK
6
CONTINUOUS
10
131.345
20
-107.404
11
131.338
21
-107.417
0
LINE
8
BLACK
6
CONTINUOUS
10
131.338
20
-107.417
11
131.328
21
-107.428
0
LINE
8
BLACK
6
CONTINUOUS
10
131.328
20
-107.428
11
131.317
21
-107.438
0
LINE
8
BLACK
6
CONTINUOUS
10
131.317
20
-107.438
11
131.304
21
-107.445
0
LINE
8
BLACK
6
CONTINUOUS
10
131.304
20
-107.445
11
131.29
21
-107.449
0
LINE
8
BLACK
6
CONTINUOUS
10
131.29
20
-107.449
11
131.279
21
-107.45
0
LINE
8
BLACK
6
CONTINUOUS
10
131.279
20
-107.45
11
131.275
21
-107.45
0
LINE
8
BLACK
6
CONTINUOUS
10
131.275
20
-107.45
11
131.271
21
-107.45
0
LINE
8
BLACK
6
CONTINUOUS
10
131.271
20
-107.45
11
112.229
21
-107.45
0
LINE
8
BLACK
6
CONTINUOUS
10
112.229
20
-107.45
11
112.225
21
-107.45
0
LINE
8
BLACK
6
CONTINUOUS
10
112.225
20
-107.45
11
112.21
21
-107.449
0
LINE
8
BLACK
6
CONTINUOUS
10
112.21
20
-107.449
11
112.196
21
-107.445
0
LINE
8
BLACK
6
CONTINUOUS
10
112.196
20
-107.445
11
112.183
21
-107.438
0
LINE
8
BLACK
6
CONTINUOUS
10
112.183
20
-107.438
11
112.172
21
-107.428
0
LINE
8
BLACK
6
CONTINUOUS
10
112.172
20
-107.428
11
112.162
21
-107.417
0
LINE
8
BLACK
6
CONTINUOUS
10
112.162
20
-107.417
11
112.155
21
-107.404
0
LINE
8
BLACK
6
CONTINUOUS
10
112.155
20
-107.404
11
112.151
21
-107.39
0
LINE
8
BLACK
6
CONTINUOUS
10
112.151
20
-107.39
11
112.15
21
-107.375
0
LINE
8
BLACK
6
CONTINUOUS
10
112.15
20
-107.375
11
112.15
21
-107.371
0
LINE
8
BLACK
6
CONTINUOUS
10
112.15
20
-107.371
11
112.15
21
-88.3287
0
LINE
8
BLACK
6
CONTINUOUS
10
112.15
20
-88.3287
11
112.15
21
-88.325
0
LINE
8
BLACK
6
CONTINUOUS
10
112.15
20
-88.325
11
112.151
21
-88.3103
0
LINE
8
BLACK
6
CONTINUOUS
10
112.151
20
-88.3103
11
112.155
21
-88.2962
0
LINE
8
BLACK
6
CONTINUOUS
10
112.155
20
-88.2962
11
112.162
21
-88.2831
0
LINE
8
BLACK
6
CONTINUOUS
10
112.162
20
-88.2831
11
112.172
21
-88.2717
0
LINE
8
BLACK
6
CONTINUOUS
10
112.172
20
-88.2717
11
112.183
21
-88.2623
0
LINE
8
BLACK
6
CONTINUOUS
10
112.183
20
-88.2623
11
112.196
21
-88.2554
0
LINE
8
BLACK
6
CONTINUOUS
10
112.196
20
-88.2554
11
112.21
21
-88.2511
0
LINE
8
BLACK
6
CONTINUOUS
10
112.21
20
-88.2511
11
112.221
21
-88.25
0
LINE
8
BLACK
6
CONTINUOUS
10
112.221
20
-88.25
11
112.225
21
-88.2496
0
LINE
8
BLACK
6
CONTINUOUS
10
112.225
20
-88.2496
11
112.229
21
-88.25
0
LINE
8
BLACK
6
CONTINUOUS
10
112.229
20
-88.25
11
131.271
21
-88.25
0
LINE
8
BLACK
6
CONTINUOUS
10
131.271
20
-88.25
11
131.275
21
-88.2496
0
LINE
8
BLACK
6
CONTINUOUS
10
131.275
20
-88.2496
11
131.279
21
-88.25
0
LINE
8
BLACK
6
CONTINUOUS
10
112.3
20
-88.4
11
112.3
21
-107.3
0
LINE
8
BLACK
6
CONTINUOUS
10
112.3
20
-107.3
11
131.2
21
-107.3
0
LINE
8
BLACK
6
CONTINUOUS
10
131.2
20
-107.3
11
131.2
21
-88.4
0
LINE
8
BLACK
6
CONTINUOUS
10
131.2
20
-88.4
11
112.3
21
-88.4
  0
ENDSEC
  0
EOF
