G04 #@! TF.GenerationSoftware,KiCad,Pcbnew,(5.1.5-0-10_14)*
G04 #@! TF.CreationDate,2019-12-18T14:27:56+09:00*
G04 #@! TF.ProjectId,my_keybov2,6d795f6b-6579-4626-9f76-322e6b696361,rev?*
G04 #@! TF.SameCoordinates,Original*
G04 #@! TF.FileFunction,Soldermask,Bot*
G04 #@! TF.FilePolarity,Negative*
%FSLAX46Y46*%
G04 Gerber Fmt 4.6, Leading zero omitted, Abs format (unit mm)*
G04 Created by KiCad (PCBNEW (5.1.5-0-10_14)) date 2019-12-18 14:27:56*
%MOMM*%
%LPD*%
G04 APERTURE LIST*
%ADD10C,0.100000*%
G04 APERTURE END LIST*
D10*
G36*
X162924549Y-141471116D02*
G01*
X163035734Y-141493232D01*
X163245203Y-141579997D01*
X163433720Y-141705960D01*
X163594040Y-141866280D01*
X163720003Y-142054797D01*
X163786058Y-142214267D01*
X163806768Y-142264267D01*
X163841055Y-142436636D01*
X163851000Y-142486636D01*
X163851000Y-142713364D01*
X163806768Y-142935734D01*
X163720003Y-143145203D01*
X163594040Y-143333720D01*
X163433720Y-143494040D01*
X163245203Y-143620003D01*
X163035734Y-143706768D01*
X162924549Y-143728884D01*
X162813365Y-143751000D01*
X162586635Y-143751000D01*
X162475451Y-143728884D01*
X162364266Y-143706768D01*
X162154797Y-143620003D01*
X161966280Y-143494040D01*
X161805960Y-143333720D01*
X161679997Y-143145203D01*
X161593232Y-142935734D01*
X161549000Y-142713364D01*
X161549000Y-142486636D01*
X161558946Y-142436636D01*
X161593232Y-142264267D01*
X161613943Y-142214267D01*
X161679997Y-142054797D01*
X161805960Y-141866280D01*
X161966280Y-141705960D01*
X162154797Y-141579997D01*
X162364266Y-141493232D01*
X162475451Y-141471116D01*
X162586635Y-141449000D01*
X162813365Y-141449000D01*
X162924549Y-141471116D01*
G37*
G36*
X72074549Y-141421116D02*
G01*
X72185734Y-141443232D01*
X72395203Y-141529997D01*
X72583720Y-141655960D01*
X72744040Y-141816280D01*
X72870003Y-142004797D01*
X72956768Y-142214266D01*
X72966714Y-142264267D01*
X73001000Y-142436635D01*
X73001000Y-142663365D01*
X72991054Y-142713365D01*
X72956768Y-142885734D01*
X72870003Y-143095203D01*
X72744040Y-143283720D01*
X72583720Y-143444040D01*
X72395203Y-143570003D01*
X72185734Y-143656768D01*
X72074549Y-143678884D01*
X71963365Y-143701000D01*
X71736635Y-143701000D01*
X71625451Y-143678884D01*
X71514266Y-143656768D01*
X71304797Y-143570003D01*
X71116280Y-143444040D01*
X70955960Y-143283720D01*
X70829997Y-143095203D01*
X70743232Y-142885734D01*
X70708946Y-142713365D01*
X70699000Y-142663365D01*
X70699000Y-142436635D01*
X70733286Y-142264267D01*
X70743232Y-142214266D01*
X70829997Y-142004797D01*
X70955960Y-141816280D01*
X71116280Y-141655960D01*
X71304797Y-141529997D01*
X71514266Y-141443232D01*
X71625451Y-141421116D01*
X71736635Y-141399000D01*
X71963365Y-141399000D01*
X72074549Y-141421116D01*
G37*
G36*
X84498254Y-128127818D02*
G01*
X84871511Y-128282426D01*
X84871513Y-128282427D01*
X85207436Y-128506884D01*
X85493116Y-128792564D01*
X85713555Y-129122473D01*
X85717574Y-129128489D01*
X85872182Y-129501746D01*
X85951000Y-129897993D01*
X85951000Y-130302007D01*
X85872182Y-130698254D01*
X85721293Y-131062532D01*
X85717573Y-131071513D01*
X85493116Y-131407436D01*
X85207436Y-131693116D01*
X84871513Y-131917573D01*
X84871512Y-131917574D01*
X84871511Y-131917574D01*
X84498254Y-132072182D01*
X84102007Y-132151000D01*
X83697993Y-132151000D01*
X83301746Y-132072182D01*
X82928489Y-131917574D01*
X82928488Y-131917574D01*
X82928487Y-131917573D01*
X82592564Y-131693116D01*
X82306884Y-131407436D01*
X82082427Y-131071513D01*
X82078707Y-131062532D01*
X81927818Y-130698254D01*
X81849000Y-130302007D01*
X81849000Y-129897993D01*
X81927818Y-129501746D01*
X82082426Y-129128489D01*
X82086446Y-129122473D01*
X82306884Y-128792564D01*
X82592564Y-128506884D01*
X82928487Y-128282427D01*
X82928489Y-128282426D01*
X83301746Y-128127818D01*
X83697993Y-128049000D01*
X84102007Y-128049000D01*
X84498254Y-128127818D01*
G37*
G36*
X108798254Y-128027818D02*
G01*
X109171511Y-128182426D01*
X109171513Y-128182427D01*
X109507436Y-128406884D01*
X109793116Y-128692564D01*
X110007175Y-129012925D01*
X110017574Y-129028489D01*
X110172182Y-129401746D01*
X110251000Y-129797993D01*
X110251000Y-130202007D01*
X110172182Y-130598254D01*
X110021293Y-130962532D01*
X110017573Y-130971513D01*
X109793116Y-131307436D01*
X109507436Y-131593116D01*
X109171513Y-131817573D01*
X109171512Y-131817574D01*
X109171511Y-131817574D01*
X108798254Y-131972182D01*
X108402007Y-132051000D01*
X107997993Y-132051000D01*
X107601746Y-131972182D01*
X107228489Y-131817574D01*
X107228488Y-131817574D01*
X107228487Y-131817573D01*
X106892564Y-131593116D01*
X106606884Y-131307436D01*
X106382427Y-130971513D01*
X106378707Y-130962532D01*
X106227818Y-130598254D01*
X106149000Y-130202007D01*
X106149000Y-129797993D01*
X106227818Y-129401746D01*
X106382426Y-129028489D01*
X106392826Y-129012925D01*
X106606884Y-128692564D01*
X106892564Y-128406884D01*
X107228487Y-128182427D01*
X107228489Y-128182426D01*
X107601746Y-128027818D01*
X107997993Y-127949000D01*
X108402007Y-127949000D01*
X108798254Y-128027818D01*
G37*
G36*
X156548254Y-127927818D02*
G01*
X156840813Y-128049000D01*
X156921513Y-128082427D01*
X157154498Y-128238103D01*
X157257436Y-128306884D01*
X157543116Y-128592564D01*
X157767574Y-128928489D01*
X157922182Y-129301746D01*
X158001000Y-129697993D01*
X158001000Y-130102007D01*
X157922182Y-130498254D01*
X157771293Y-130862532D01*
X157767573Y-130871513D01*
X157543116Y-131207436D01*
X157257436Y-131493116D01*
X156921513Y-131717573D01*
X156921512Y-131717574D01*
X156921511Y-131717574D01*
X156548254Y-131872182D01*
X156152007Y-131951000D01*
X155747993Y-131951000D01*
X155351746Y-131872182D01*
X154978489Y-131717574D01*
X154978488Y-131717574D01*
X154978487Y-131717573D01*
X154642564Y-131493116D01*
X154356884Y-131207436D01*
X154132427Y-130871513D01*
X154128707Y-130862532D01*
X153977818Y-130498254D01*
X153899000Y-130102007D01*
X153899000Y-129697993D01*
X153977818Y-129301746D01*
X154132426Y-128928489D01*
X154356884Y-128592564D01*
X154642564Y-128306884D01*
X154745502Y-128238103D01*
X154978487Y-128082427D01*
X155059187Y-128049000D01*
X155351746Y-127927818D01*
X155747993Y-127849000D01*
X156152007Y-127849000D01*
X156548254Y-127927818D01*
G37*
G36*
X133048254Y-127927818D02*
G01*
X133340813Y-128049000D01*
X133421513Y-128082427D01*
X133654498Y-128238103D01*
X133757436Y-128306884D01*
X134043116Y-128592564D01*
X134267574Y-128928489D01*
X134422182Y-129301746D01*
X134501000Y-129697993D01*
X134501000Y-130102007D01*
X134422182Y-130498254D01*
X134271293Y-130862532D01*
X134267573Y-130871513D01*
X134043116Y-131207436D01*
X133757436Y-131493116D01*
X133421513Y-131717573D01*
X133421512Y-131717574D01*
X133421511Y-131717574D01*
X133048254Y-131872182D01*
X132652007Y-131951000D01*
X132247993Y-131951000D01*
X131851746Y-131872182D01*
X131478489Y-131717574D01*
X131478488Y-131717574D01*
X131478487Y-131717573D01*
X131142564Y-131493116D01*
X130856884Y-131207436D01*
X130632427Y-130871513D01*
X130628707Y-130862532D01*
X130477818Y-130498254D01*
X130399000Y-130102007D01*
X130399000Y-129697993D01*
X130477818Y-129301746D01*
X130632426Y-128928489D01*
X130856884Y-128592564D01*
X131142564Y-128306884D01*
X131245502Y-128238103D01*
X131478487Y-128082427D01*
X131559187Y-128049000D01*
X131851746Y-127927818D01*
X132247993Y-127849000D01*
X132652007Y-127849000D01*
X133048254Y-127927818D01*
G37*
G36*
X89595285Y-129118234D02*
G01*
X89691981Y-129137468D01*
X89874151Y-129212926D01*
X90038100Y-129322473D01*
X90177527Y-129461900D01*
X90275160Y-129608019D01*
X90287075Y-129625851D01*
X90362532Y-129808020D01*
X90401000Y-130001409D01*
X90401000Y-130198591D01*
X90382424Y-130291980D01*
X90362532Y-130391981D01*
X90287074Y-130574151D01*
X90177527Y-130738100D01*
X90038100Y-130877527D01*
X89874151Y-130987074D01*
X89691981Y-131062532D01*
X89595285Y-131081766D01*
X89498591Y-131101000D01*
X89301409Y-131101000D01*
X89204715Y-131081766D01*
X89108019Y-131062532D01*
X88925849Y-130987074D01*
X88761900Y-130877527D01*
X88622473Y-130738100D01*
X88512926Y-130574151D01*
X88437468Y-130391981D01*
X88417576Y-130291980D01*
X88399000Y-130198591D01*
X88399000Y-130001409D01*
X88437468Y-129808020D01*
X88512925Y-129625851D01*
X88524840Y-129608019D01*
X88622473Y-129461900D01*
X88761900Y-129322473D01*
X88925849Y-129212926D01*
X89108019Y-129137468D01*
X89204715Y-129118234D01*
X89301409Y-129099000D01*
X89498591Y-129099000D01*
X89595285Y-129118234D01*
G37*
G36*
X78595285Y-129118234D02*
G01*
X78691981Y-129137468D01*
X78874151Y-129212926D01*
X79038100Y-129322473D01*
X79177527Y-129461900D01*
X79275160Y-129608019D01*
X79287075Y-129625851D01*
X79362532Y-129808020D01*
X79401000Y-130001409D01*
X79401000Y-130198591D01*
X79382424Y-130291980D01*
X79362532Y-130391981D01*
X79287074Y-130574151D01*
X79177527Y-130738100D01*
X79038100Y-130877527D01*
X78874151Y-130987074D01*
X78691981Y-131062532D01*
X78595285Y-131081766D01*
X78498591Y-131101000D01*
X78301409Y-131101000D01*
X78204715Y-131081766D01*
X78108019Y-131062532D01*
X77925849Y-130987074D01*
X77761900Y-130877527D01*
X77622473Y-130738100D01*
X77512926Y-130574151D01*
X77437468Y-130391981D01*
X77417576Y-130291980D01*
X77399000Y-130198591D01*
X77399000Y-130001409D01*
X77437468Y-129808020D01*
X77512925Y-129625851D01*
X77524840Y-129608019D01*
X77622473Y-129461900D01*
X77761900Y-129322473D01*
X77925849Y-129212926D01*
X78108019Y-129137468D01*
X78204715Y-129118234D01*
X78301409Y-129099000D01*
X78498591Y-129099000D01*
X78595285Y-129118234D01*
G37*
G36*
X102991981Y-129037468D02*
G01*
X103174151Y-129112926D01*
X103338100Y-129222473D01*
X103477527Y-129361900D01*
X103587074Y-129525849D01*
X103628497Y-129625851D01*
X103662532Y-129708020D01*
X103701000Y-129901409D01*
X103701000Y-130098591D01*
X103682424Y-130191980D01*
X103662532Y-130291981D01*
X103587074Y-130474151D01*
X103477527Y-130638100D01*
X103338100Y-130777527D01*
X103174151Y-130887074D01*
X102991981Y-130962532D01*
X102798591Y-131001000D01*
X102601409Y-131001000D01*
X102408019Y-130962532D01*
X102225849Y-130887074D01*
X102061900Y-130777527D01*
X101922473Y-130638100D01*
X101812926Y-130474151D01*
X101737468Y-130291981D01*
X101717576Y-130191980D01*
X101699000Y-130098591D01*
X101699000Y-129901409D01*
X101737468Y-129708020D01*
X101771504Y-129625851D01*
X101812926Y-129525849D01*
X101922473Y-129361900D01*
X102061900Y-129222473D01*
X102225849Y-129112926D01*
X102408019Y-129037468D01*
X102601409Y-128999000D01*
X102798591Y-128999000D01*
X102991981Y-129037468D01*
G37*
G36*
X113991981Y-129037468D02*
G01*
X114174151Y-129112926D01*
X114338100Y-129222473D01*
X114477527Y-129361900D01*
X114587074Y-129525849D01*
X114628497Y-129625851D01*
X114662532Y-129708020D01*
X114701000Y-129901409D01*
X114701000Y-130098591D01*
X114682424Y-130191980D01*
X114662532Y-130291981D01*
X114587074Y-130474151D01*
X114477527Y-130638100D01*
X114338100Y-130777527D01*
X114174151Y-130887074D01*
X113991981Y-130962532D01*
X113798591Y-131001000D01*
X113601409Y-131001000D01*
X113408019Y-130962532D01*
X113225849Y-130887074D01*
X113061900Y-130777527D01*
X112922473Y-130638100D01*
X112812926Y-130474151D01*
X112737468Y-130291981D01*
X112717576Y-130191980D01*
X112699000Y-130098591D01*
X112699000Y-129901409D01*
X112737468Y-129708020D01*
X112771504Y-129625851D01*
X112812926Y-129525849D01*
X112922473Y-129361900D01*
X113061900Y-129222473D01*
X113225849Y-129112926D01*
X113408019Y-129037468D01*
X113601409Y-128999000D01*
X113798591Y-128999000D01*
X113991981Y-129037468D01*
G37*
G36*
X161741981Y-128937468D02*
G01*
X161924151Y-129012926D01*
X162088100Y-129122473D01*
X162227527Y-129261900D01*
X162337074Y-129425849D01*
X162412532Y-129608019D01*
X162416079Y-129625851D01*
X162450321Y-129797993D01*
X162451000Y-129801410D01*
X162451000Y-129998590D01*
X162412532Y-130191981D01*
X162337074Y-130374151D01*
X162227527Y-130538100D01*
X162088100Y-130677527D01*
X161924151Y-130787074D01*
X161741981Y-130862532D01*
X161666596Y-130877527D01*
X161548591Y-130901000D01*
X161351409Y-130901000D01*
X161233404Y-130877527D01*
X161158019Y-130862532D01*
X160975849Y-130787074D01*
X160811900Y-130677527D01*
X160672473Y-130538100D01*
X160562926Y-130374151D01*
X160487468Y-130191981D01*
X160449000Y-129998590D01*
X160449000Y-129801410D01*
X160449680Y-129797993D01*
X160483921Y-129625851D01*
X160487468Y-129608019D01*
X160562926Y-129425849D01*
X160672473Y-129261900D01*
X160811900Y-129122473D01*
X160975849Y-129012926D01*
X161158019Y-128937468D01*
X161351409Y-128899000D01*
X161548591Y-128899000D01*
X161741981Y-128937468D01*
G37*
G36*
X150741981Y-128937468D02*
G01*
X150924151Y-129012926D01*
X151088100Y-129122473D01*
X151227527Y-129261900D01*
X151337074Y-129425849D01*
X151412532Y-129608019D01*
X151416079Y-129625851D01*
X151450321Y-129797993D01*
X151451000Y-129801410D01*
X151451000Y-129998590D01*
X151412532Y-130191981D01*
X151337074Y-130374151D01*
X151227527Y-130538100D01*
X151088100Y-130677527D01*
X150924151Y-130787074D01*
X150741981Y-130862532D01*
X150666596Y-130877527D01*
X150548591Y-130901000D01*
X150351409Y-130901000D01*
X150233404Y-130877527D01*
X150158019Y-130862532D01*
X149975849Y-130787074D01*
X149811900Y-130677527D01*
X149672473Y-130538100D01*
X149562926Y-130374151D01*
X149487468Y-130191981D01*
X149449000Y-129998590D01*
X149449000Y-129801410D01*
X149449680Y-129797993D01*
X149483921Y-129625851D01*
X149487468Y-129608019D01*
X149562926Y-129425849D01*
X149672473Y-129261900D01*
X149811900Y-129122473D01*
X149975849Y-129012926D01*
X150158019Y-128937468D01*
X150351409Y-128899000D01*
X150548591Y-128899000D01*
X150741981Y-128937468D01*
G37*
G36*
X138241981Y-128937468D02*
G01*
X138424151Y-129012926D01*
X138588100Y-129122473D01*
X138727527Y-129261900D01*
X138837074Y-129425849D01*
X138912532Y-129608019D01*
X138916079Y-129625851D01*
X138950321Y-129797993D01*
X138951000Y-129801410D01*
X138951000Y-129998590D01*
X138912532Y-130191981D01*
X138837074Y-130374151D01*
X138727527Y-130538100D01*
X138588100Y-130677527D01*
X138424151Y-130787074D01*
X138241981Y-130862532D01*
X138166596Y-130877527D01*
X138048591Y-130901000D01*
X137851409Y-130901000D01*
X137733404Y-130877527D01*
X137658019Y-130862532D01*
X137475849Y-130787074D01*
X137311900Y-130677527D01*
X137172473Y-130538100D01*
X137062926Y-130374151D01*
X136987468Y-130191981D01*
X136949000Y-129998590D01*
X136949000Y-129801410D01*
X136949680Y-129797993D01*
X136983921Y-129625851D01*
X136987468Y-129608019D01*
X137062926Y-129425849D01*
X137172473Y-129261900D01*
X137311900Y-129122473D01*
X137475849Y-129012926D01*
X137658019Y-128937468D01*
X137851409Y-128899000D01*
X138048591Y-128899000D01*
X138241981Y-128937468D01*
G37*
G36*
X127241981Y-128937468D02*
G01*
X127424151Y-129012926D01*
X127588100Y-129122473D01*
X127727527Y-129261900D01*
X127837074Y-129425849D01*
X127912532Y-129608019D01*
X127916079Y-129625851D01*
X127950321Y-129797993D01*
X127951000Y-129801410D01*
X127951000Y-129998590D01*
X127912532Y-130191981D01*
X127837074Y-130374151D01*
X127727527Y-130538100D01*
X127588100Y-130677527D01*
X127424151Y-130787074D01*
X127241981Y-130862532D01*
X127166596Y-130877527D01*
X127048591Y-130901000D01*
X126851409Y-130901000D01*
X126733404Y-130877527D01*
X126658019Y-130862532D01*
X126475849Y-130787074D01*
X126311900Y-130677527D01*
X126172473Y-130538100D01*
X126062926Y-130374151D01*
X125987468Y-130191981D01*
X125949000Y-129998590D01*
X125949000Y-129801410D01*
X125949680Y-129797993D01*
X125983921Y-129625851D01*
X125987468Y-129608019D01*
X126062926Y-129425849D01*
X126172473Y-129261900D01*
X126311900Y-129122473D01*
X126475849Y-129012926D01*
X126658019Y-128937468D01*
X126851409Y-128899000D01*
X127048591Y-128899000D01*
X127241981Y-128937468D01*
G37*
G36*
X80443097Y-126514069D02*
G01*
X80546032Y-126524207D01*
X80736208Y-126581897D01*
X80744149Y-126584306D01*
X80798271Y-126613235D01*
X80926729Y-126681897D01*
X81086765Y-126813235D01*
X81218103Y-126973271D01*
X81262243Y-127055851D01*
X81315694Y-127155851D01*
X81315695Y-127155854D01*
X81375793Y-127353968D01*
X81396085Y-127560000D01*
X81375793Y-127766032D01*
X81315695Y-127964146D01*
X81315694Y-127964149D01*
X81271554Y-128046728D01*
X81218103Y-128146729D01*
X81086765Y-128306765D01*
X80926729Y-128438103D01*
X80840975Y-128483939D01*
X80744149Y-128535694D01*
X80744146Y-128535695D01*
X80546032Y-128595793D01*
X80443097Y-128605931D01*
X80391631Y-128611000D01*
X79788369Y-128611000D01*
X79736903Y-128605931D01*
X79633968Y-128595793D01*
X79435854Y-128535695D01*
X79435851Y-128535694D01*
X79339025Y-128483939D01*
X79253271Y-128438103D01*
X79093235Y-128306765D01*
X78961897Y-128146729D01*
X78908446Y-128046728D01*
X78864306Y-127964149D01*
X78864305Y-127964146D01*
X78804207Y-127766032D01*
X78783915Y-127560000D01*
X78804207Y-127353968D01*
X78864305Y-127155854D01*
X78864306Y-127155851D01*
X78917757Y-127055851D01*
X78961897Y-126973271D01*
X79093235Y-126813235D01*
X79253271Y-126681897D01*
X79381729Y-126613235D01*
X79435851Y-126584306D01*
X79443792Y-126581897D01*
X79633968Y-126524207D01*
X79736903Y-126514069D01*
X79788369Y-126509000D01*
X80391631Y-126509000D01*
X80443097Y-126514069D01*
G37*
G36*
X104743097Y-126414069D02*
G01*
X104846032Y-126424207D01*
X105036208Y-126481897D01*
X105044149Y-126484306D01*
X105118798Y-126524207D01*
X105226729Y-126581897D01*
X105386765Y-126713235D01*
X105518103Y-126873271D01*
X105562243Y-126955851D01*
X105615694Y-127055851D01*
X105615695Y-127055854D01*
X105675793Y-127253968D01*
X105696085Y-127460000D01*
X105675793Y-127666032D01*
X105615695Y-127864146D01*
X105615694Y-127864149D01*
X105571554Y-127946728D01*
X105518103Y-128046729D01*
X105386765Y-128206765D01*
X105226729Y-128338103D01*
X105140975Y-128383939D01*
X105044149Y-128435694D01*
X105044146Y-128435695D01*
X104846032Y-128495793D01*
X104743097Y-128505931D01*
X104691631Y-128511000D01*
X104088369Y-128511000D01*
X104036903Y-128505931D01*
X103933968Y-128495793D01*
X103735854Y-128435695D01*
X103735851Y-128435694D01*
X103639025Y-128383939D01*
X103553271Y-128338103D01*
X103393235Y-128206765D01*
X103261897Y-128046729D01*
X103208446Y-127946728D01*
X103164306Y-127864149D01*
X103164305Y-127864146D01*
X103104207Y-127666032D01*
X103083915Y-127460000D01*
X103104207Y-127253968D01*
X103164305Y-127055854D01*
X103164306Y-127055851D01*
X103217757Y-126955851D01*
X103261897Y-126873271D01*
X103393235Y-126713235D01*
X103553271Y-126581897D01*
X103661202Y-126524207D01*
X103735851Y-126484306D01*
X103743792Y-126481897D01*
X103933968Y-126424207D01*
X104036903Y-126414069D01*
X104088369Y-126409000D01*
X104691631Y-126409000D01*
X104743097Y-126414069D01*
G37*
G36*
X152493097Y-126314069D02*
G01*
X152596032Y-126324207D01*
X152794146Y-126384305D01*
X152794149Y-126384306D01*
X152868798Y-126424207D01*
X152976729Y-126481897D01*
X153136765Y-126613235D01*
X153268103Y-126773271D01*
X153289464Y-126813235D01*
X153365694Y-126955851D01*
X153365695Y-126955854D01*
X153425793Y-127153968D01*
X153446085Y-127360000D01*
X153425793Y-127566032D01*
X153395458Y-127666032D01*
X153365694Y-127764149D01*
X153320340Y-127849000D01*
X153268103Y-127946729D01*
X153136765Y-128106765D01*
X152976729Y-128238103D01*
X152893806Y-128282426D01*
X152794149Y-128335694D01*
X152794146Y-128335695D01*
X152596032Y-128395793D01*
X152493097Y-128405931D01*
X152441631Y-128411000D01*
X151838369Y-128411000D01*
X151786903Y-128405931D01*
X151683968Y-128395793D01*
X151485854Y-128335695D01*
X151485851Y-128335694D01*
X151386194Y-128282426D01*
X151303271Y-128238103D01*
X151143235Y-128106765D01*
X151011897Y-127946729D01*
X150959660Y-127849000D01*
X150914306Y-127764149D01*
X150884542Y-127666032D01*
X150854207Y-127566032D01*
X150833915Y-127360000D01*
X150854207Y-127153968D01*
X150914305Y-126955854D01*
X150914306Y-126955851D01*
X150990536Y-126813235D01*
X151011897Y-126773271D01*
X151143235Y-126613235D01*
X151303271Y-126481897D01*
X151411202Y-126424207D01*
X151485851Y-126384306D01*
X151485854Y-126384305D01*
X151683968Y-126324207D01*
X151786903Y-126314069D01*
X151838369Y-126309000D01*
X152441631Y-126309000D01*
X152493097Y-126314069D01*
G37*
G36*
X128993097Y-126314069D02*
G01*
X129096032Y-126324207D01*
X129294146Y-126384305D01*
X129294149Y-126384306D01*
X129368798Y-126424207D01*
X129476729Y-126481897D01*
X129636765Y-126613235D01*
X129768103Y-126773271D01*
X129789464Y-126813235D01*
X129865694Y-126955851D01*
X129865695Y-126955854D01*
X129925793Y-127153968D01*
X129946085Y-127360000D01*
X129925793Y-127566032D01*
X129895458Y-127666032D01*
X129865694Y-127764149D01*
X129820340Y-127849000D01*
X129768103Y-127946729D01*
X129636765Y-128106765D01*
X129476729Y-128238103D01*
X129393806Y-128282426D01*
X129294149Y-128335694D01*
X129294146Y-128335695D01*
X129096032Y-128395793D01*
X128993097Y-128405931D01*
X128941631Y-128411000D01*
X128338369Y-128411000D01*
X128286903Y-128405931D01*
X128183968Y-128395793D01*
X127985854Y-128335695D01*
X127985851Y-128335694D01*
X127886194Y-128282426D01*
X127803271Y-128238103D01*
X127643235Y-128106765D01*
X127511897Y-127946729D01*
X127459660Y-127849000D01*
X127414306Y-127764149D01*
X127384542Y-127666032D01*
X127354207Y-127566032D01*
X127333915Y-127360000D01*
X127354207Y-127153968D01*
X127414305Y-126955854D01*
X127414306Y-126955851D01*
X127490536Y-126813235D01*
X127511897Y-126773271D01*
X127643235Y-126613235D01*
X127803271Y-126481897D01*
X127911202Y-126424207D01*
X127985851Y-126384306D01*
X127985854Y-126384305D01*
X128183968Y-126324207D01*
X128286903Y-126314069D01*
X128338369Y-126309000D01*
X128941631Y-126309000D01*
X128993097Y-126314069D01*
G37*
G36*
X86793097Y-123974069D02*
G01*
X86896032Y-123984207D01*
X87086208Y-124041897D01*
X87094149Y-124044306D01*
X87148271Y-124073235D01*
X87276729Y-124141897D01*
X87436765Y-124273235D01*
X87568103Y-124433271D01*
X87612243Y-124515851D01*
X87665694Y-124615851D01*
X87665695Y-124615854D01*
X87725793Y-124813968D01*
X87746085Y-125020000D01*
X87725793Y-125226032D01*
X87696030Y-125324146D01*
X87665694Y-125424149D01*
X87621554Y-125506728D01*
X87568103Y-125606729D01*
X87436765Y-125766765D01*
X87276729Y-125898103D01*
X87190975Y-125943939D01*
X87094149Y-125995694D01*
X87094146Y-125995695D01*
X86896032Y-126055793D01*
X86793097Y-126065931D01*
X86741631Y-126071000D01*
X86138369Y-126071000D01*
X86086903Y-126065931D01*
X85983968Y-126055793D01*
X85785854Y-125995695D01*
X85785851Y-125995694D01*
X85689025Y-125943939D01*
X85603271Y-125898103D01*
X85443235Y-125766765D01*
X85311897Y-125606729D01*
X85258446Y-125506728D01*
X85214306Y-125424149D01*
X85183970Y-125324146D01*
X85154207Y-125226032D01*
X85133915Y-125020000D01*
X85154207Y-124813968D01*
X85214305Y-124615854D01*
X85214306Y-124615851D01*
X85267757Y-124515851D01*
X85311897Y-124433271D01*
X85443235Y-124273235D01*
X85603271Y-124141897D01*
X85731729Y-124073235D01*
X85785851Y-124044306D01*
X85793792Y-124041897D01*
X85983968Y-123984207D01*
X86086903Y-123974069D01*
X86138369Y-123969000D01*
X86741631Y-123969000D01*
X86793097Y-123974069D01*
G37*
G36*
X111093097Y-123874069D02*
G01*
X111196032Y-123884207D01*
X111386208Y-123941897D01*
X111394149Y-123944306D01*
X111468798Y-123984207D01*
X111576729Y-124041897D01*
X111736765Y-124173235D01*
X111868103Y-124333271D01*
X111912243Y-124415851D01*
X111965694Y-124515851D01*
X111965695Y-124515854D01*
X112025793Y-124713968D01*
X112046085Y-124920000D01*
X112025793Y-125126032D01*
X111995458Y-125226032D01*
X111965694Y-125324149D01*
X111921554Y-125406728D01*
X111868103Y-125506729D01*
X111736765Y-125666765D01*
X111576729Y-125798103D01*
X111490975Y-125843939D01*
X111394149Y-125895694D01*
X111394146Y-125895695D01*
X111196032Y-125955793D01*
X111093097Y-125965931D01*
X111041631Y-125971000D01*
X110438369Y-125971000D01*
X110386903Y-125965931D01*
X110283968Y-125955793D01*
X110085854Y-125895695D01*
X110085851Y-125895694D01*
X109989025Y-125843939D01*
X109903271Y-125798103D01*
X109743235Y-125666765D01*
X109611897Y-125506729D01*
X109558446Y-125406728D01*
X109514306Y-125324149D01*
X109484542Y-125226032D01*
X109454207Y-125126032D01*
X109433915Y-124920000D01*
X109454207Y-124713968D01*
X109514305Y-124515854D01*
X109514306Y-124515851D01*
X109567757Y-124415851D01*
X109611897Y-124333271D01*
X109743235Y-124173235D01*
X109903271Y-124041897D01*
X110011202Y-123984207D01*
X110085851Y-123944306D01*
X110093792Y-123941897D01*
X110283968Y-123884207D01*
X110386903Y-123874069D01*
X110438369Y-123869000D01*
X111041631Y-123869000D01*
X111093097Y-123874069D01*
G37*
G36*
X158843097Y-123774069D02*
G01*
X158946032Y-123784207D01*
X159144146Y-123844305D01*
X159144149Y-123844306D01*
X159218798Y-123884207D01*
X159326729Y-123941897D01*
X159486765Y-124073235D01*
X159618103Y-124233271D01*
X159639464Y-124273235D01*
X159715694Y-124415851D01*
X159715695Y-124415854D01*
X159775793Y-124613968D01*
X159796085Y-124820000D01*
X159775793Y-125026032D01*
X159745458Y-125126032D01*
X159715694Y-125224149D01*
X159663939Y-125320975D01*
X159618103Y-125406729D01*
X159486765Y-125566765D01*
X159326729Y-125698103D01*
X159240975Y-125743939D01*
X159144149Y-125795694D01*
X159144146Y-125795695D01*
X158946032Y-125855793D01*
X158843097Y-125865931D01*
X158791631Y-125871000D01*
X158188369Y-125871000D01*
X158136903Y-125865931D01*
X158033968Y-125855793D01*
X157835854Y-125795695D01*
X157835851Y-125795694D01*
X157739025Y-125743939D01*
X157653271Y-125698103D01*
X157493235Y-125566765D01*
X157361897Y-125406729D01*
X157316061Y-125320975D01*
X157264306Y-125224149D01*
X157234542Y-125126032D01*
X157204207Y-125026032D01*
X157183915Y-124820000D01*
X157204207Y-124613968D01*
X157264305Y-124415854D01*
X157264306Y-124415851D01*
X157340536Y-124273235D01*
X157361897Y-124233271D01*
X157493235Y-124073235D01*
X157653271Y-123941897D01*
X157761202Y-123884207D01*
X157835851Y-123844306D01*
X157835854Y-123844305D01*
X158033968Y-123784207D01*
X158136903Y-123774069D01*
X158188369Y-123769000D01*
X158791631Y-123769000D01*
X158843097Y-123774069D01*
G37*
G36*
X135343097Y-123774069D02*
G01*
X135446032Y-123784207D01*
X135644146Y-123844305D01*
X135644149Y-123844306D01*
X135718798Y-123884207D01*
X135826729Y-123941897D01*
X135986765Y-124073235D01*
X136118103Y-124233271D01*
X136139464Y-124273235D01*
X136215694Y-124415851D01*
X136215695Y-124415854D01*
X136275793Y-124613968D01*
X136296085Y-124820000D01*
X136275793Y-125026032D01*
X136245458Y-125126032D01*
X136215694Y-125224149D01*
X136163939Y-125320975D01*
X136118103Y-125406729D01*
X135986765Y-125566765D01*
X135826729Y-125698103D01*
X135740975Y-125743939D01*
X135644149Y-125795694D01*
X135644146Y-125795695D01*
X135446032Y-125855793D01*
X135343097Y-125865931D01*
X135291631Y-125871000D01*
X134688369Y-125871000D01*
X134636903Y-125865931D01*
X134533968Y-125855793D01*
X134335854Y-125795695D01*
X134335851Y-125795694D01*
X134239025Y-125743939D01*
X134153271Y-125698103D01*
X133993235Y-125566765D01*
X133861897Y-125406729D01*
X133816061Y-125320975D01*
X133764306Y-125224149D01*
X133734542Y-125126032D01*
X133704207Y-125026032D01*
X133683915Y-124820000D01*
X133704207Y-124613968D01*
X133764305Y-124415854D01*
X133764306Y-124415851D01*
X133840536Y-124273235D01*
X133861897Y-124233271D01*
X133993235Y-124073235D01*
X134153271Y-123941897D01*
X134261202Y-123884207D01*
X134335851Y-123844306D01*
X134335854Y-123844305D01*
X134533968Y-123784207D01*
X134636903Y-123774069D01*
X134688369Y-123769000D01*
X135291631Y-123769000D01*
X135343097Y-123774069D01*
G37*
G36*
X92594425Y-112604599D02*
G01*
X92718621Y-112629302D01*
X92855022Y-112685801D01*
X92977779Y-112767825D01*
X93082175Y-112872221D01*
X93164199Y-112994978D01*
X93220698Y-113131379D01*
X93249500Y-113276181D01*
X93249500Y-113423819D01*
X93220698Y-113568621D01*
X93164199Y-113705022D01*
X93082175Y-113827779D01*
X92977779Y-113932175D01*
X92855022Y-114014199D01*
X92718621Y-114070698D01*
X92594425Y-114095401D01*
X92573820Y-114099500D01*
X92426180Y-114099500D01*
X92405575Y-114095401D01*
X92281379Y-114070698D01*
X92144978Y-114014199D01*
X92022221Y-113932175D01*
X91917825Y-113827779D01*
X91835801Y-113705022D01*
X91779302Y-113568621D01*
X91750500Y-113423819D01*
X91750500Y-113276181D01*
X91779302Y-113131379D01*
X91835801Y-112994978D01*
X91917825Y-112872221D01*
X92022221Y-112767825D01*
X92144978Y-112685801D01*
X92281379Y-112629302D01*
X92405575Y-112604599D01*
X92426180Y-112600500D01*
X92573820Y-112600500D01*
X92594425Y-112604599D01*
G37*
G36*
X87249500Y-114099500D02*
G01*
X85750500Y-114099500D01*
X85750500Y-112600500D01*
X87249500Y-112600500D01*
X87249500Y-114099500D01*
G37*
G36*
X106699500Y-113899500D02*
G01*
X105200500Y-113899500D01*
X105200500Y-112400500D01*
X106699500Y-112400500D01*
X106699500Y-113899500D01*
G37*
G36*
X112044425Y-112404599D02*
G01*
X112168621Y-112429302D01*
X112305022Y-112485801D01*
X112427779Y-112567825D01*
X112532175Y-112672221D01*
X112614199Y-112794978D01*
X112670698Y-112931379D01*
X112699500Y-113076181D01*
X112699500Y-113223819D01*
X112670698Y-113368621D01*
X112614199Y-113505022D01*
X112532175Y-113627779D01*
X112427779Y-113732175D01*
X112305022Y-113814199D01*
X112168621Y-113870698D01*
X112044425Y-113895401D01*
X112023820Y-113899500D01*
X111876180Y-113899500D01*
X111855575Y-113895401D01*
X111731379Y-113870698D01*
X111594978Y-113814199D01*
X111472221Y-113732175D01*
X111367825Y-113627779D01*
X111285801Y-113505022D01*
X111229302Y-113368621D01*
X111200500Y-113223819D01*
X111200500Y-113076181D01*
X111229302Y-112931379D01*
X111285801Y-112794978D01*
X111367825Y-112672221D01*
X111472221Y-112567825D01*
X111594978Y-112485801D01*
X111731379Y-112429302D01*
X111855575Y-112404599D01*
X111876180Y-112400500D01*
X112023820Y-112400500D01*
X112044425Y-112404599D01*
G37*
G36*
X136594425Y-111954599D02*
G01*
X136718621Y-111979302D01*
X136855022Y-112035801D01*
X136977779Y-112117825D01*
X137082175Y-112222221D01*
X137164199Y-112344978D01*
X137220698Y-112481379D01*
X137249500Y-112626181D01*
X137249500Y-112773819D01*
X137220698Y-112918621D01*
X137164199Y-113055022D01*
X137082175Y-113177779D01*
X136977779Y-113282175D01*
X136855022Y-113364199D01*
X136718621Y-113420698D01*
X136594425Y-113445401D01*
X136573820Y-113449500D01*
X136426180Y-113449500D01*
X136405575Y-113445401D01*
X136281379Y-113420698D01*
X136144978Y-113364199D01*
X136022221Y-113282175D01*
X135917825Y-113177779D01*
X135835801Y-113055022D01*
X135779302Y-112918621D01*
X135750500Y-112773819D01*
X135750500Y-112626181D01*
X135779302Y-112481379D01*
X135835801Y-112344978D01*
X135917825Y-112222221D01*
X136022221Y-112117825D01*
X136144978Y-112035801D01*
X136281379Y-111979302D01*
X136405575Y-111954599D01*
X136426180Y-111950500D01*
X136573820Y-111950500D01*
X136594425Y-111954599D01*
G37*
G36*
X131249500Y-113449500D02*
G01*
X129750500Y-113449500D01*
X129750500Y-111950500D01*
X131249500Y-111950500D01*
X131249500Y-113449500D01*
G37*
G36*
X158044425Y-111954599D02*
G01*
X158168621Y-111979302D01*
X158305022Y-112035801D01*
X158427779Y-112117825D01*
X158532175Y-112222221D01*
X158614199Y-112344978D01*
X158670698Y-112481379D01*
X158699500Y-112626181D01*
X158699500Y-112773819D01*
X158670698Y-112918621D01*
X158614199Y-113055022D01*
X158532175Y-113177779D01*
X158427779Y-113282175D01*
X158305022Y-113364199D01*
X158168621Y-113420698D01*
X158044425Y-113445401D01*
X158023820Y-113449500D01*
X157876180Y-113449500D01*
X157855575Y-113445401D01*
X157731379Y-113420698D01*
X157594978Y-113364199D01*
X157472221Y-113282175D01*
X157367825Y-113177779D01*
X157285801Y-113055022D01*
X157229302Y-112918621D01*
X157200500Y-112773819D01*
X157200500Y-112626181D01*
X157229302Y-112481379D01*
X157285801Y-112344978D01*
X157367825Y-112222221D01*
X157472221Y-112117825D01*
X157594978Y-112035801D01*
X157731379Y-111979302D01*
X157855575Y-111954599D01*
X157876180Y-111950500D01*
X158023820Y-111950500D01*
X158044425Y-111954599D01*
G37*
G36*
X152699500Y-113449500D02*
G01*
X151200500Y-113449500D01*
X151200500Y-111950500D01*
X152699500Y-111950500D01*
X152699500Y-113449500D01*
G37*
G36*
X147698254Y-96027818D02*
G01*
X148071511Y-96182426D01*
X148071513Y-96182427D01*
X148226064Y-96285695D01*
X148407436Y-96406884D01*
X148693116Y-96692564D01*
X148917574Y-97028489D01*
X149072182Y-97401746D01*
X149151000Y-97797993D01*
X149151000Y-98202007D01*
X149072182Y-98598254D01*
X148921293Y-98962532D01*
X148917573Y-98971513D01*
X148693116Y-99307436D01*
X148407436Y-99593116D01*
X148071513Y-99817573D01*
X148071512Y-99817574D01*
X148071511Y-99817574D01*
X147698254Y-99972182D01*
X147302007Y-100051000D01*
X146897993Y-100051000D01*
X146501746Y-99972182D01*
X146128489Y-99817574D01*
X146128488Y-99817574D01*
X146128487Y-99817573D01*
X145792564Y-99593116D01*
X145506884Y-99307436D01*
X145282427Y-98971513D01*
X145278707Y-98962532D01*
X145127818Y-98598254D01*
X145049000Y-98202007D01*
X145049000Y-97797993D01*
X145127818Y-97401746D01*
X145282426Y-97028489D01*
X145506884Y-96692564D01*
X145792564Y-96406884D01*
X145973936Y-96285695D01*
X146128487Y-96182427D01*
X146128489Y-96182426D01*
X146501746Y-96027818D01*
X146897993Y-95949000D01*
X147302007Y-95949000D01*
X147698254Y-96027818D01*
G37*
G36*
X122348254Y-95877818D02*
G01*
X122721511Y-96032426D01*
X122721513Y-96032427D01*
X122742917Y-96046729D01*
X123057436Y-96256884D01*
X123343116Y-96542564D01*
X123567574Y-96878489D01*
X123722182Y-97251746D01*
X123801000Y-97647993D01*
X123801000Y-98052007D01*
X123722182Y-98448254D01*
X123585793Y-98777527D01*
X123567573Y-98821513D01*
X123343116Y-99157436D01*
X123057436Y-99443116D01*
X122721513Y-99667573D01*
X122721512Y-99667574D01*
X122721511Y-99667574D01*
X122348254Y-99822182D01*
X121952007Y-99901000D01*
X121547993Y-99901000D01*
X121151746Y-99822182D01*
X120778489Y-99667574D01*
X120778488Y-99667574D01*
X120778487Y-99667573D01*
X120442564Y-99443116D01*
X120156884Y-99157436D01*
X119932427Y-98821513D01*
X119914207Y-98777527D01*
X119777818Y-98448254D01*
X119699000Y-98052007D01*
X119699000Y-97647993D01*
X119777818Y-97251746D01*
X119932426Y-96878489D01*
X120156884Y-96542564D01*
X120442564Y-96256884D01*
X120757083Y-96046729D01*
X120778487Y-96032427D01*
X120778489Y-96032426D01*
X121151746Y-95877818D01*
X121547993Y-95799000D01*
X121952007Y-95799000D01*
X122348254Y-95877818D01*
G37*
G36*
X96848254Y-95877818D02*
G01*
X97221511Y-96032426D01*
X97221513Y-96032427D01*
X97242917Y-96046729D01*
X97557436Y-96256884D01*
X97843116Y-96542564D01*
X98067574Y-96878489D01*
X98222182Y-97251746D01*
X98301000Y-97647993D01*
X98301000Y-98052007D01*
X98222182Y-98448254D01*
X98085793Y-98777527D01*
X98067573Y-98821513D01*
X97843116Y-99157436D01*
X97557436Y-99443116D01*
X97221513Y-99667573D01*
X97221512Y-99667574D01*
X97221511Y-99667574D01*
X96848254Y-99822182D01*
X96452007Y-99901000D01*
X96047993Y-99901000D01*
X95651746Y-99822182D01*
X95278489Y-99667574D01*
X95278488Y-99667574D01*
X95278487Y-99667573D01*
X94942564Y-99443116D01*
X94656884Y-99157436D01*
X94432427Y-98821513D01*
X94414207Y-98777527D01*
X94277818Y-98448254D01*
X94199000Y-98052007D01*
X94199000Y-97647993D01*
X94277818Y-97251746D01*
X94432426Y-96878489D01*
X94656884Y-96542564D01*
X94942564Y-96256884D01*
X95257083Y-96046729D01*
X95278487Y-96032427D01*
X95278489Y-96032426D01*
X95651746Y-95877818D01*
X96047993Y-95799000D01*
X96452007Y-95799000D01*
X96848254Y-95877818D01*
G37*
G36*
X152795285Y-97018234D02*
G01*
X152891981Y-97037468D01*
X153074151Y-97112926D01*
X153238100Y-97222473D01*
X153377527Y-97361900D01*
X153487074Y-97525849D01*
X153562532Y-97708019D01*
X153601000Y-97901410D01*
X153601000Y-98098590D01*
X153562532Y-98291981D01*
X153487074Y-98474151D01*
X153377527Y-98638100D01*
X153238100Y-98777527D01*
X153074151Y-98887074D01*
X152891981Y-98962532D01*
X152795285Y-98981766D01*
X152698591Y-99001000D01*
X152501409Y-99001000D01*
X152308019Y-98962532D01*
X152125849Y-98887074D01*
X151961900Y-98777527D01*
X151822473Y-98638100D01*
X151712926Y-98474151D01*
X151637468Y-98291981D01*
X151599000Y-98098590D01*
X151599000Y-97901410D01*
X151637468Y-97708019D01*
X151712926Y-97525849D01*
X151822473Y-97361900D01*
X151961900Y-97222473D01*
X152125849Y-97112926D01*
X152308019Y-97037468D01*
X152404715Y-97018234D01*
X152501409Y-96999000D01*
X152698591Y-96999000D01*
X152795285Y-97018234D01*
G37*
G36*
X141795285Y-97018234D02*
G01*
X141891981Y-97037468D01*
X142074151Y-97112926D01*
X142238100Y-97222473D01*
X142377527Y-97361900D01*
X142487074Y-97525849D01*
X142562532Y-97708019D01*
X142601000Y-97901410D01*
X142601000Y-98098590D01*
X142562532Y-98291981D01*
X142487074Y-98474151D01*
X142377527Y-98638100D01*
X142238100Y-98777527D01*
X142074151Y-98887074D01*
X141891981Y-98962532D01*
X141795285Y-98981766D01*
X141698591Y-99001000D01*
X141501409Y-99001000D01*
X141308019Y-98962532D01*
X141125849Y-98887074D01*
X140961900Y-98777527D01*
X140822473Y-98638100D01*
X140712926Y-98474151D01*
X140637468Y-98291981D01*
X140599000Y-98098590D01*
X140599000Y-97901410D01*
X140637468Y-97708019D01*
X140712926Y-97525849D01*
X140822473Y-97361900D01*
X140961900Y-97222473D01*
X141125849Y-97112926D01*
X141308019Y-97037468D01*
X141404715Y-97018234D01*
X141501409Y-96999000D01*
X141698591Y-96999000D01*
X141795285Y-97018234D01*
G37*
G36*
X101945285Y-96868234D02*
G01*
X102041981Y-96887468D01*
X102224151Y-96962926D01*
X102388100Y-97072473D01*
X102527527Y-97211900D01*
X102637074Y-97375849D01*
X102712532Y-97558019D01*
X102751000Y-97751410D01*
X102751000Y-97948590D01*
X102712532Y-98141981D01*
X102637074Y-98324151D01*
X102527527Y-98488100D01*
X102388100Y-98627527D01*
X102224151Y-98737074D01*
X102041981Y-98812532D01*
X101848591Y-98851000D01*
X101651409Y-98851000D01*
X101458019Y-98812532D01*
X101275849Y-98737074D01*
X101111900Y-98627527D01*
X100972473Y-98488100D01*
X100862926Y-98324151D01*
X100787468Y-98141981D01*
X100749000Y-97948590D01*
X100749000Y-97751410D01*
X100787468Y-97558019D01*
X100862926Y-97375849D01*
X100972473Y-97211900D01*
X101111900Y-97072473D01*
X101275849Y-96962926D01*
X101458019Y-96887468D01*
X101554715Y-96868234D01*
X101651409Y-96849000D01*
X101848591Y-96849000D01*
X101945285Y-96868234D01*
G37*
G36*
X90945285Y-96868234D02*
G01*
X91041981Y-96887468D01*
X91224151Y-96962926D01*
X91388100Y-97072473D01*
X91527527Y-97211900D01*
X91637074Y-97375849D01*
X91712532Y-97558019D01*
X91751000Y-97751410D01*
X91751000Y-97948590D01*
X91712532Y-98141981D01*
X91637074Y-98324151D01*
X91527527Y-98488100D01*
X91388100Y-98627527D01*
X91224151Y-98737074D01*
X91041981Y-98812532D01*
X90848591Y-98851000D01*
X90651409Y-98851000D01*
X90458019Y-98812532D01*
X90275849Y-98737074D01*
X90111900Y-98627527D01*
X89972473Y-98488100D01*
X89862926Y-98324151D01*
X89787468Y-98141981D01*
X89749000Y-97948590D01*
X89749000Y-97751410D01*
X89787468Y-97558019D01*
X89862926Y-97375849D01*
X89972473Y-97211900D01*
X90111900Y-97072473D01*
X90275849Y-96962926D01*
X90458019Y-96887468D01*
X90554715Y-96868234D01*
X90651409Y-96849000D01*
X90848591Y-96849000D01*
X90945285Y-96868234D01*
G37*
G36*
X127445285Y-96868234D02*
G01*
X127541981Y-96887468D01*
X127724151Y-96962926D01*
X127888100Y-97072473D01*
X128027527Y-97211900D01*
X128137074Y-97375849D01*
X128212532Y-97558019D01*
X128251000Y-97751410D01*
X128251000Y-97948590D01*
X128212532Y-98141981D01*
X128137074Y-98324151D01*
X128027527Y-98488100D01*
X127888100Y-98627527D01*
X127724151Y-98737074D01*
X127541981Y-98812532D01*
X127348591Y-98851000D01*
X127151409Y-98851000D01*
X126958019Y-98812532D01*
X126775849Y-98737074D01*
X126611900Y-98627527D01*
X126472473Y-98488100D01*
X126362926Y-98324151D01*
X126287468Y-98141981D01*
X126249000Y-97948590D01*
X126249000Y-97751410D01*
X126287468Y-97558019D01*
X126362926Y-97375849D01*
X126472473Y-97211900D01*
X126611900Y-97072473D01*
X126775849Y-96962926D01*
X126958019Y-96887468D01*
X127054715Y-96868234D01*
X127151409Y-96849000D01*
X127348591Y-96849000D01*
X127445285Y-96868234D01*
G37*
G36*
X116445285Y-96868234D02*
G01*
X116541981Y-96887468D01*
X116724151Y-96962926D01*
X116888100Y-97072473D01*
X117027527Y-97211900D01*
X117137074Y-97375849D01*
X117212532Y-97558019D01*
X117251000Y-97751410D01*
X117251000Y-97948590D01*
X117212532Y-98141981D01*
X117137074Y-98324151D01*
X117027527Y-98488100D01*
X116888100Y-98627527D01*
X116724151Y-98737074D01*
X116541981Y-98812532D01*
X116348591Y-98851000D01*
X116151409Y-98851000D01*
X115958019Y-98812532D01*
X115775849Y-98737074D01*
X115611900Y-98627527D01*
X115472473Y-98488100D01*
X115362926Y-98324151D01*
X115287468Y-98141981D01*
X115249000Y-97948590D01*
X115249000Y-97751410D01*
X115287468Y-97558019D01*
X115362926Y-97375849D01*
X115472473Y-97211900D01*
X115611900Y-97072473D01*
X115775849Y-96962926D01*
X115958019Y-96887468D01*
X116054715Y-96868234D01*
X116151409Y-96849000D01*
X116348591Y-96849000D01*
X116445285Y-96868234D01*
G37*
G36*
X143643097Y-94414069D02*
G01*
X143746032Y-94424207D01*
X143944146Y-94484305D01*
X143944149Y-94484306D01*
X144040975Y-94536061D01*
X144126729Y-94581897D01*
X144286765Y-94713235D01*
X144418103Y-94873271D01*
X144435517Y-94905851D01*
X144515694Y-95055851D01*
X144515695Y-95055854D01*
X144575793Y-95253968D01*
X144596085Y-95460000D01*
X144575793Y-95666032D01*
X144535457Y-95799000D01*
X144515694Y-95864149D01*
X144470340Y-95949000D01*
X144418103Y-96046729D01*
X144286765Y-96206765D01*
X144126729Y-96338103D01*
X144083891Y-96361000D01*
X143944149Y-96435694D01*
X143944146Y-96435695D01*
X143746032Y-96495793D01*
X143643097Y-96505931D01*
X143591631Y-96511000D01*
X142988369Y-96511000D01*
X142936903Y-96505931D01*
X142833968Y-96495793D01*
X142635854Y-96435695D01*
X142635851Y-96435694D01*
X142496109Y-96361000D01*
X142453271Y-96338103D01*
X142293235Y-96206765D01*
X142161897Y-96046729D01*
X142109660Y-95949000D01*
X142064306Y-95864149D01*
X142044543Y-95799000D01*
X142004207Y-95666032D01*
X141983915Y-95460000D01*
X142004207Y-95253968D01*
X142064305Y-95055854D01*
X142064306Y-95055851D01*
X142144483Y-94905851D01*
X142161897Y-94873271D01*
X142293235Y-94713235D01*
X142453271Y-94581897D01*
X142539025Y-94536061D01*
X142635851Y-94484306D01*
X142635854Y-94484305D01*
X142833968Y-94424207D01*
X142936903Y-94414069D01*
X142988369Y-94409000D01*
X143591631Y-94409000D01*
X143643097Y-94414069D01*
G37*
G36*
X92793097Y-94264069D02*
G01*
X92896032Y-94274207D01*
X93094146Y-94334305D01*
X93094149Y-94334306D01*
X93190975Y-94386061D01*
X93276729Y-94431897D01*
X93436765Y-94563235D01*
X93568103Y-94723271D01*
X93613939Y-94809025D01*
X93665694Y-94905851D01*
X93665695Y-94905854D01*
X93725793Y-95103968D01*
X93746085Y-95310000D01*
X93725793Y-95516032D01*
X93680291Y-95666030D01*
X93665694Y-95714149D01*
X93620340Y-95799000D01*
X93568103Y-95896729D01*
X93436765Y-96056765D01*
X93276729Y-96188103D01*
X93190975Y-96233939D01*
X93094149Y-96285694D01*
X93094146Y-96285695D01*
X92896032Y-96345793D01*
X92793097Y-96355931D01*
X92741631Y-96361000D01*
X92138369Y-96361000D01*
X92086903Y-96355931D01*
X91983968Y-96345793D01*
X91785854Y-96285695D01*
X91785851Y-96285694D01*
X91689025Y-96233939D01*
X91603271Y-96188103D01*
X91443235Y-96056765D01*
X91311897Y-95896729D01*
X91259660Y-95799000D01*
X91214306Y-95714149D01*
X91199709Y-95666030D01*
X91154207Y-95516032D01*
X91133915Y-95310000D01*
X91154207Y-95103968D01*
X91214305Y-94905854D01*
X91214306Y-94905851D01*
X91266061Y-94809025D01*
X91311897Y-94723271D01*
X91443235Y-94563235D01*
X91603271Y-94431897D01*
X91689025Y-94386061D01*
X91785851Y-94334306D01*
X91785854Y-94334305D01*
X91983968Y-94274207D01*
X92086903Y-94264069D01*
X92138369Y-94259000D01*
X92741631Y-94259000D01*
X92793097Y-94264069D01*
G37*
G36*
X118293097Y-94264069D02*
G01*
X118396032Y-94274207D01*
X118594146Y-94334305D01*
X118594149Y-94334306D01*
X118690975Y-94386061D01*
X118776729Y-94431897D01*
X118936765Y-94563235D01*
X119068103Y-94723271D01*
X119113939Y-94809025D01*
X119165694Y-94905851D01*
X119165695Y-94905854D01*
X119225793Y-95103968D01*
X119246085Y-95310000D01*
X119225793Y-95516032D01*
X119180291Y-95666030D01*
X119165694Y-95714149D01*
X119120340Y-95799000D01*
X119068103Y-95896729D01*
X118936765Y-96056765D01*
X118776729Y-96188103D01*
X118690975Y-96233939D01*
X118594149Y-96285694D01*
X118594146Y-96285695D01*
X118396032Y-96345793D01*
X118293097Y-96355931D01*
X118241631Y-96361000D01*
X117638369Y-96361000D01*
X117586903Y-96355931D01*
X117483968Y-96345793D01*
X117285854Y-96285695D01*
X117285851Y-96285694D01*
X117189025Y-96233939D01*
X117103271Y-96188103D01*
X116943235Y-96056765D01*
X116811897Y-95896729D01*
X116759660Y-95799000D01*
X116714306Y-95714149D01*
X116699709Y-95666030D01*
X116654207Y-95516032D01*
X116633915Y-95310000D01*
X116654207Y-95103968D01*
X116714305Y-94905854D01*
X116714306Y-94905851D01*
X116766061Y-94809025D01*
X116811897Y-94723271D01*
X116943235Y-94563235D01*
X117103271Y-94431897D01*
X117189025Y-94386061D01*
X117285851Y-94334306D01*
X117285854Y-94334305D01*
X117483968Y-94274207D01*
X117586903Y-94264069D01*
X117638369Y-94259000D01*
X118241631Y-94259000D01*
X118293097Y-94264069D01*
G37*
G36*
X149993097Y-91874069D02*
G01*
X150096032Y-91884207D01*
X150294146Y-91944305D01*
X150294149Y-91944306D01*
X150390975Y-91996061D01*
X150476729Y-92041897D01*
X150636765Y-92173235D01*
X150768103Y-92333271D01*
X150785517Y-92365851D01*
X150865694Y-92515851D01*
X150865695Y-92515854D01*
X150925793Y-92713968D01*
X150946085Y-92920000D01*
X150925793Y-93126032D01*
X150865695Y-93324146D01*
X150865694Y-93324149D01*
X150813939Y-93420975D01*
X150768103Y-93506729D01*
X150636765Y-93666765D01*
X150476729Y-93798103D01*
X150433891Y-93821000D01*
X150294149Y-93895694D01*
X150294146Y-93895695D01*
X150096032Y-93955793D01*
X149993097Y-93965931D01*
X149941631Y-93971000D01*
X149338369Y-93971000D01*
X149286903Y-93965931D01*
X149183968Y-93955793D01*
X148985854Y-93895695D01*
X148985851Y-93895694D01*
X148846109Y-93821000D01*
X148803271Y-93798103D01*
X148643235Y-93666765D01*
X148511897Y-93506729D01*
X148466061Y-93420975D01*
X148414306Y-93324149D01*
X148414305Y-93324146D01*
X148354207Y-93126032D01*
X148333915Y-92920000D01*
X148354207Y-92713968D01*
X148414305Y-92515854D01*
X148414306Y-92515851D01*
X148494483Y-92365851D01*
X148511897Y-92333271D01*
X148643235Y-92173235D01*
X148803271Y-92041897D01*
X148889025Y-91996061D01*
X148985851Y-91944306D01*
X148985854Y-91944305D01*
X149183968Y-91884207D01*
X149286903Y-91874069D01*
X149338369Y-91869000D01*
X149941631Y-91869000D01*
X149993097Y-91874069D01*
G37*
G36*
X99143097Y-91724069D02*
G01*
X99246032Y-91734207D01*
X99444146Y-91794305D01*
X99444149Y-91794306D01*
X99540975Y-91846061D01*
X99626729Y-91891897D01*
X99786765Y-92023235D01*
X99918103Y-92183271D01*
X99963939Y-92269025D01*
X100015694Y-92365851D01*
X100015695Y-92365854D01*
X100075793Y-92563968D01*
X100096085Y-92770000D01*
X100075793Y-92976032D01*
X100030291Y-93126030D01*
X100015694Y-93174149D01*
X99963939Y-93270975D01*
X99918103Y-93356729D01*
X99786765Y-93516765D01*
X99626729Y-93648103D01*
X99540975Y-93693939D01*
X99444149Y-93745694D01*
X99444146Y-93745695D01*
X99246032Y-93805793D01*
X99143097Y-93815931D01*
X99091631Y-93821000D01*
X98488369Y-93821000D01*
X98436903Y-93815931D01*
X98333968Y-93805793D01*
X98135854Y-93745695D01*
X98135851Y-93745694D01*
X98039025Y-93693939D01*
X97953271Y-93648103D01*
X97793235Y-93516765D01*
X97661897Y-93356729D01*
X97616061Y-93270975D01*
X97564306Y-93174149D01*
X97549709Y-93126030D01*
X97504207Y-92976032D01*
X97483915Y-92770000D01*
X97504207Y-92563968D01*
X97564305Y-92365854D01*
X97564306Y-92365851D01*
X97616061Y-92269025D01*
X97661897Y-92183271D01*
X97793235Y-92023235D01*
X97953271Y-91891897D01*
X98039025Y-91846061D01*
X98135851Y-91794306D01*
X98135854Y-91794305D01*
X98333968Y-91734207D01*
X98436903Y-91724069D01*
X98488369Y-91719000D01*
X99091631Y-91719000D01*
X99143097Y-91724069D01*
G37*
G36*
X124643097Y-91724069D02*
G01*
X124746032Y-91734207D01*
X124944146Y-91794305D01*
X124944149Y-91794306D01*
X125040975Y-91846061D01*
X125126729Y-91891897D01*
X125286765Y-92023235D01*
X125418103Y-92183271D01*
X125463939Y-92269025D01*
X125515694Y-92365851D01*
X125515695Y-92365854D01*
X125575793Y-92563968D01*
X125596085Y-92770000D01*
X125575793Y-92976032D01*
X125530291Y-93126030D01*
X125515694Y-93174149D01*
X125463939Y-93270975D01*
X125418103Y-93356729D01*
X125286765Y-93516765D01*
X125126729Y-93648103D01*
X125040975Y-93693939D01*
X124944149Y-93745694D01*
X124944146Y-93745695D01*
X124746032Y-93805793D01*
X124643097Y-93815931D01*
X124591631Y-93821000D01*
X123988369Y-93821000D01*
X123936903Y-93815931D01*
X123833968Y-93805793D01*
X123635854Y-93745695D01*
X123635851Y-93745694D01*
X123539025Y-93693939D01*
X123453271Y-93648103D01*
X123293235Y-93516765D01*
X123161897Y-93356729D01*
X123116061Y-93270975D01*
X123064306Y-93174149D01*
X123049709Y-93126030D01*
X123004207Y-92976032D01*
X122983915Y-92770000D01*
X123004207Y-92563968D01*
X123064305Y-92365854D01*
X123064306Y-92365851D01*
X123116061Y-92269025D01*
X123161897Y-92183271D01*
X123293235Y-92023235D01*
X123453271Y-91891897D01*
X123539025Y-91846061D01*
X123635851Y-91794306D01*
X123635854Y-91794305D01*
X123833968Y-91734207D01*
X123936903Y-91724069D01*
X123988369Y-91719000D01*
X124591631Y-91719000D01*
X124643097Y-91724069D01*
G37*
G36*
X97944425Y-81554599D02*
G01*
X98068621Y-81579302D01*
X98205022Y-81635801D01*
X98327779Y-81717825D01*
X98432175Y-81822221D01*
X98514199Y-81944978D01*
X98570698Y-82081379D01*
X98599500Y-82226181D01*
X98599500Y-82373819D01*
X98570698Y-82518621D01*
X98514199Y-82655022D01*
X98432175Y-82777779D01*
X98327779Y-82882175D01*
X98205022Y-82964199D01*
X98068621Y-83020698D01*
X97944425Y-83045401D01*
X97923820Y-83049500D01*
X97776180Y-83049500D01*
X97755575Y-83045401D01*
X97631379Y-83020698D01*
X97494978Y-82964199D01*
X97372221Y-82882175D01*
X97267825Y-82777779D01*
X97185801Y-82655022D01*
X97129302Y-82518621D01*
X97100500Y-82373819D01*
X97100500Y-82226181D01*
X97129302Y-82081379D01*
X97185801Y-81944978D01*
X97267825Y-81822221D01*
X97372221Y-81717825D01*
X97494978Y-81635801D01*
X97631379Y-81579302D01*
X97755575Y-81554599D01*
X97776180Y-81550500D01*
X97923820Y-81550500D01*
X97944425Y-81554599D01*
G37*
G36*
X92599500Y-83049500D02*
G01*
X91100500Y-83049500D01*
X91100500Y-81550500D01*
X92599500Y-81550500D01*
X92599500Y-83049500D01*
G37*
G36*
X122844425Y-81204599D02*
G01*
X122968621Y-81229302D01*
X123105022Y-81285801D01*
X123227779Y-81367825D01*
X123332175Y-81472221D01*
X123414199Y-81594978D01*
X123470698Y-81731379D01*
X123499500Y-81876181D01*
X123499500Y-82023819D01*
X123470698Y-82168621D01*
X123414199Y-82305022D01*
X123332175Y-82427779D01*
X123227779Y-82532175D01*
X123105022Y-82614199D01*
X122968621Y-82670698D01*
X122844425Y-82695401D01*
X122823820Y-82699500D01*
X122676180Y-82699500D01*
X122655575Y-82695401D01*
X122531379Y-82670698D01*
X122394978Y-82614199D01*
X122272221Y-82532175D01*
X122167825Y-82427779D01*
X122085801Y-82305022D01*
X122029302Y-82168621D01*
X122000500Y-82023819D01*
X122000500Y-81876181D01*
X122029302Y-81731379D01*
X122085801Y-81594978D01*
X122167825Y-81472221D01*
X122272221Y-81367825D01*
X122394978Y-81285801D01*
X122531379Y-81229302D01*
X122655575Y-81204599D01*
X122676180Y-81200500D01*
X122823820Y-81200500D01*
X122844425Y-81204599D01*
G37*
G36*
X117499500Y-82699500D02*
G01*
X116000500Y-82699500D01*
X116000500Y-81200500D01*
X117499500Y-81200500D01*
X117499500Y-82699500D01*
G37*
G36*
X142399500Y-82449500D02*
G01*
X140900500Y-82449500D01*
X140900500Y-80950500D01*
X142399500Y-80950500D01*
X142399500Y-82449500D01*
G37*
G36*
X147744425Y-80954599D02*
G01*
X147868621Y-80979302D01*
X148005022Y-81035801D01*
X148127779Y-81117825D01*
X148232175Y-81222221D01*
X148314199Y-81344978D01*
X148370698Y-81481379D01*
X148399500Y-81626181D01*
X148399500Y-81773819D01*
X148370698Y-81918621D01*
X148314199Y-82055022D01*
X148232175Y-82177779D01*
X148127779Y-82282175D01*
X148005022Y-82364199D01*
X147868621Y-82420698D01*
X147744425Y-82445401D01*
X147723820Y-82449500D01*
X147576180Y-82449500D01*
X147555575Y-82445401D01*
X147431379Y-82420698D01*
X147294978Y-82364199D01*
X147172221Y-82282175D01*
X147067825Y-82177779D01*
X146985801Y-82055022D01*
X146929302Y-81918621D01*
X146900500Y-81773819D01*
X146900500Y-81626181D01*
X146929302Y-81481379D01*
X146985801Y-81344978D01*
X147067825Y-81222221D01*
X147172221Y-81117825D01*
X147294978Y-81035801D01*
X147431379Y-80979302D01*
X147555575Y-80954599D01*
X147576180Y-80950500D01*
X147723820Y-80950500D01*
X147744425Y-80954599D01*
G37*
G36*
X72124549Y-71221116D02*
G01*
X72235734Y-71243232D01*
X72445203Y-71329997D01*
X72633720Y-71455960D01*
X72794040Y-71616280D01*
X72920003Y-71804797D01*
X73006768Y-72014266D01*
X73051000Y-72236636D01*
X73051000Y-72463364D01*
X73006768Y-72685734D01*
X72920003Y-72895203D01*
X72794040Y-73083720D01*
X72633720Y-73244040D01*
X72445203Y-73370003D01*
X72235734Y-73456768D01*
X72124549Y-73478884D01*
X72013365Y-73501000D01*
X71786635Y-73501000D01*
X71675451Y-73478884D01*
X71564266Y-73456768D01*
X71354797Y-73370003D01*
X71166280Y-73244040D01*
X71005960Y-73083720D01*
X70879997Y-72895203D01*
X70793232Y-72685734D01*
X70749000Y-72463364D01*
X70749000Y-72236636D01*
X70793232Y-72014266D01*
X70879997Y-71804797D01*
X71005960Y-71616280D01*
X71166280Y-71455960D01*
X71354797Y-71329997D01*
X71564266Y-71243232D01*
X71675451Y-71221116D01*
X71786635Y-71199000D01*
X72013365Y-71199000D01*
X72124549Y-71221116D01*
G37*
G36*
X74509142Y-64476842D02*
G01*
X74657101Y-64538129D01*
X74790255Y-64627099D01*
X74903501Y-64740345D01*
X74992471Y-64873499D01*
X75053758Y-65021458D01*
X75085000Y-65178525D01*
X75085000Y-65338675D01*
X75053758Y-65495742D01*
X74992471Y-65643701D01*
X74903501Y-65776855D01*
X74790255Y-65890101D01*
X74657101Y-65979071D01*
X74509142Y-66040358D01*
X74352075Y-66071600D01*
X74191925Y-66071600D01*
X74034858Y-66040358D01*
X73886899Y-65979071D01*
X73753745Y-65890101D01*
X73640499Y-65776855D01*
X73551529Y-65643701D01*
X73490242Y-65495742D01*
X73459000Y-65338675D01*
X73459000Y-65178525D01*
X73490242Y-65021458D01*
X73551529Y-64873499D01*
X73640499Y-64740345D01*
X73753745Y-64627099D01*
X73886899Y-64538129D01*
X74034858Y-64476842D01*
X74191925Y-64445600D01*
X74352075Y-64445600D01*
X74509142Y-64476842D01*
G37*
G36*
X99909142Y-64476842D02*
G01*
X100057101Y-64538129D01*
X100190255Y-64627099D01*
X100303501Y-64740345D01*
X100392471Y-64873499D01*
X100453758Y-65021458D01*
X100485000Y-65178525D01*
X100485000Y-65338675D01*
X100453758Y-65495742D01*
X100392471Y-65643701D01*
X100303501Y-65776855D01*
X100190255Y-65890101D01*
X100057101Y-65979071D01*
X99909142Y-66040358D01*
X99752075Y-66071600D01*
X99591925Y-66071600D01*
X99434858Y-66040358D01*
X99286899Y-65979071D01*
X99153745Y-65890101D01*
X99040499Y-65776855D01*
X98951529Y-65643701D01*
X98890242Y-65495742D01*
X98859000Y-65338675D01*
X98859000Y-65178525D01*
X98890242Y-65021458D01*
X98951529Y-64873499D01*
X99040499Y-64740345D01*
X99153745Y-64627099D01*
X99286899Y-64538129D01*
X99434858Y-64476842D01*
X99591925Y-64445600D01*
X99752075Y-64445600D01*
X99909142Y-64476842D01*
G37*
G36*
X77049142Y-64476842D02*
G01*
X77197101Y-64538129D01*
X77330255Y-64627099D01*
X77443501Y-64740345D01*
X77532471Y-64873499D01*
X77593758Y-65021458D01*
X77625000Y-65178525D01*
X77625000Y-65338675D01*
X77593758Y-65495742D01*
X77532471Y-65643701D01*
X77443501Y-65776855D01*
X77330255Y-65890101D01*
X77197101Y-65979071D01*
X77049142Y-66040358D01*
X76892075Y-66071600D01*
X76731925Y-66071600D01*
X76574858Y-66040358D01*
X76426899Y-65979071D01*
X76293745Y-65890101D01*
X76180499Y-65776855D01*
X76091529Y-65643701D01*
X76030242Y-65495742D01*
X75999000Y-65338675D01*
X75999000Y-65178525D01*
X76030242Y-65021458D01*
X76091529Y-64873499D01*
X76180499Y-64740345D01*
X76293745Y-64627099D01*
X76426899Y-64538129D01*
X76574858Y-64476842D01*
X76731925Y-64445600D01*
X76892075Y-64445600D01*
X77049142Y-64476842D01*
G37*
G36*
X79589142Y-64476842D02*
G01*
X79737101Y-64538129D01*
X79870255Y-64627099D01*
X79983501Y-64740345D01*
X80072471Y-64873499D01*
X80133758Y-65021458D01*
X80165000Y-65178525D01*
X80165000Y-65338675D01*
X80133758Y-65495742D01*
X80072471Y-65643701D01*
X79983501Y-65776855D01*
X79870255Y-65890101D01*
X79737101Y-65979071D01*
X79589142Y-66040358D01*
X79432075Y-66071600D01*
X79271925Y-66071600D01*
X79114858Y-66040358D01*
X78966899Y-65979071D01*
X78833745Y-65890101D01*
X78720499Y-65776855D01*
X78631529Y-65643701D01*
X78570242Y-65495742D01*
X78539000Y-65338675D01*
X78539000Y-65178525D01*
X78570242Y-65021458D01*
X78631529Y-64873499D01*
X78720499Y-64740345D01*
X78833745Y-64627099D01*
X78966899Y-64538129D01*
X79114858Y-64476842D01*
X79271925Y-64445600D01*
X79432075Y-64445600D01*
X79589142Y-64476842D01*
G37*
G36*
X82129142Y-64476842D02*
G01*
X82277101Y-64538129D01*
X82410255Y-64627099D01*
X82523501Y-64740345D01*
X82612471Y-64873499D01*
X82673758Y-65021458D01*
X82705000Y-65178525D01*
X82705000Y-65338675D01*
X82673758Y-65495742D01*
X82612471Y-65643701D01*
X82523501Y-65776855D01*
X82410255Y-65890101D01*
X82277101Y-65979071D01*
X82129142Y-66040358D01*
X81972075Y-66071600D01*
X81811925Y-66071600D01*
X81654858Y-66040358D01*
X81506899Y-65979071D01*
X81373745Y-65890101D01*
X81260499Y-65776855D01*
X81171529Y-65643701D01*
X81110242Y-65495742D01*
X81079000Y-65338675D01*
X81079000Y-65178525D01*
X81110242Y-65021458D01*
X81171529Y-64873499D01*
X81260499Y-64740345D01*
X81373745Y-64627099D01*
X81506899Y-64538129D01*
X81654858Y-64476842D01*
X81811925Y-64445600D01*
X81972075Y-64445600D01*
X82129142Y-64476842D01*
G37*
G36*
X84669142Y-64476842D02*
G01*
X84817101Y-64538129D01*
X84950255Y-64627099D01*
X85063501Y-64740345D01*
X85152471Y-64873499D01*
X85213758Y-65021458D01*
X85245000Y-65178525D01*
X85245000Y-65338675D01*
X85213758Y-65495742D01*
X85152471Y-65643701D01*
X85063501Y-65776855D01*
X84950255Y-65890101D01*
X84817101Y-65979071D01*
X84669142Y-66040358D01*
X84512075Y-66071600D01*
X84351925Y-66071600D01*
X84194858Y-66040358D01*
X84046899Y-65979071D01*
X83913745Y-65890101D01*
X83800499Y-65776855D01*
X83711529Y-65643701D01*
X83650242Y-65495742D01*
X83619000Y-65338675D01*
X83619000Y-65178525D01*
X83650242Y-65021458D01*
X83711529Y-64873499D01*
X83800499Y-64740345D01*
X83913745Y-64627099D01*
X84046899Y-64538129D01*
X84194858Y-64476842D01*
X84351925Y-64445600D01*
X84512075Y-64445600D01*
X84669142Y-64476842D01*
G37*
G36*
X87209142Y-64476842D02*
G01*
X87357101Y-64538129D01*
X87490255Y-64627099D01*
X87603501Y-64740345D01*
X87692471Y-64873499D01*
X87753758Y-65021458D01*
X87785000Y-65178525D01*
X87785000Y-65338675D01*
X87753758Y-65495742D01*
X87692471Y-65643701D01*
X87603501Y-65776855D01*
X87490255Y-65890101D01*
X87357101Y-65979071D01*
X87209142Y-66040358D01*
X87052075Y-66071600D01*
X86891925Y-66071600D01*
X86734858Y-66040358D01*
X86586899Y-65979071D01*
X86453745Y-65890101D01*
X86340499Y-65776855D01*
X86251529Y-65643701D01*
X86190242Y-65495742D01*
X86159000Y-65338675D01*
X86159000Y-65178525D01*
X86190242Y-65021458D01*
X86251529Y-64873499D01*
X86340499Y-64740345D01*
X86453745Y-64627099D01*
X86586899Y-64538129D01*
X86734858Y-64476842D01*
X86891925Y-64445600D01*
X87052075Y-64445600D01*
X87209142Y-64476842D01*
G37*
G36*
X89749142Y-64476842D02*
G01*
X89897101Y-64538129D01*
X90030255Y-64627099D01*
X90143501Y-64740345D01*
X90232471Y-64873499D01*
X90293758Y-65021458D01*
X90325000Y-65178525D01*
X90325000Y-65338675D01*
X90293758Y-65495742D01*
X90232471Y-65643701D01*
X90143501Y-65776855D01*
X90030255Y-65890101D01*
X89897101Y-65979071D01*
X89749142Y-66040358D01*
X89592075Y-66071600D01*
X89431925Y-66071600D01*
X89274858Y-66040358D01*
X89126899Y-65979071D01*
X88993745Y-65890101D01*
X88880499Y-65776855D01*
X88791529Y-65643701D01*
X88730242Y-65495742D01*
X88699000Y-65338675D01*
X88699000Y-65178525D01*
X88730242Y-65021458D01*
X88791529Y-64873499D01*
X88880499Y-64740345D01*
X88993745Y-64627099D01*
X89126899Y-64538129D01*
X89274858Y-64476842D01*
X89431925Y-64445600D01*
X89592075Y-64445600D01*
X89749142Y-64476842D01*
G37*
G36*
X92289142Y-64476842D02*
G01*
X92437101Y-64538129D01*
X92570255Y-64627099D01*
X92683501Y-64740345D01*
X92772471Y-64873499D01*
X92833758Y-65021458D01*
X92865000Y-65178525D01*
X92865000Y-65338675D01*
X92833758Y-65495742D01*
X92772471Y-65643701D01*
X92683501Y-65776855D01*
X92570255Y-65890101D01*
X92437101Y-65979071D01*
X92289142Y-66040358D01*
X92132075Y-66071600D01*
X91971925Y-66071600D01*
X91814858Y-66040358D01*
X91666899Y-65979071D01*
X91533745Y-65890101D01*
X91420499Y-65776855D01*
X91331529Y-65643701D01*
X91270242Y-65495742D01*
X91239000Y-65338675D01*
X91239000Y-65178525D01*
X91270242Y-65021458D01*
X91331529Y-64873499D01*
X91420499Y-64740345D01*
X91533745Y-64627099D01*
X91666899Y-64538129D01*
X91814858Y-64476842D01*
X91971925Y-64445600D01*
X92132075Y-64445600D01*
X92289142Y-64476842D01*
G37*
G36*
X94829142Y-64476842D02*
G01*
X94977101Y-64538129D01*
X95110255Y-64627099D01*
X95223501Y-64740345D01*
X95312471Y-64873499D01*
X95373758Y-65021458D01*
X95405000Y-65178525D01*
X95405000Y-65338675D01*
X95373758Y-65495742D01*
X95312471Y-65643701D01*
X95223501Y-65776855D01*
X95110255Y-65890101D01*
X94977101Y-65979071D01*
X94829142Y-66040358D01*
X94672075Y-66071600D01*
X94511925Y-66071600D01*
X94354858Y-66040358D01*
X94206899Y-65979071D01*
X94073745Y-65890101D01*
X93960499Y-65776855D01*
X93871529Y-65643701D01*
X93810242Y-65495742D01*
X93779000Y-65338675D01*
X93779000Y-65178525D01*
X93810242Y-65021458D01*
X93871529Y-64873499D01*
X93960499Y-64740345D01*
X94073745Y-64627099D01*
X94206899Y-64538129D01*
X94354858Y-64476842D01*
X94511925Y-64445600D01*
X94672075Y-64445600D01*
X94829142Y-64476842D01*
G37*
G36*
X97369142Y-64476842D02*
G01*
X97517101Y-64538129D01*
X97650255Y-64627099D01*
X97763501Y-64740345D01*
X97852471Y-64873499D01*
X97913758Y-65021458D01*
X97945000Y-65178525D01*
X97945000Y-65338675D01*
X97913758Y-65495742D01*
X97852471Y-65643701D01*
X97763501Y-65776855D01*
X97650255Y-65890101D01*
X97517101Y-65979071D01*
X97369142Y-66040358D01*
X97212075Y-66071600D01*
X97051925Y-66071600D01*
X96894858Y-66040358D01*
X96746899Y-65979071D01*
X96613745Y-65890101D01*
X96500499Y-65776855D01*
X96411529Y-65643701D01*
X96350242Y-65495742D01*
X96319000Y-65338675D01*
X96319000Y-65178525D01*
X96350242Y-65021458D01*
X96411529Y-64873499D01*
X96500499Y-64740345D01*
X96613745Y-64627099D01*
X96746899Y-64538129D01*
X96894858Y-64476842D01*
X97051925Y-64445600D01*
X97212075Y-64445600D01*
X97369142Y-64476842D01*
G37*
G36*
X102449142Y-64476842D02*
G01*
X102597101Y-64538129D01*
X102730255Y-64627099D01*
X102843501Y-64740345D01*
X102932471Y-64873499D01*
X102993758Y-65021458D01*
X103025000Y-65178525D01*
X103025000Y-65338675D01*
X102993758Y-65495742D01*
X102932471Y-65643701D01*
X102843501Y-65776855D01*
X102730255Y-65890101D01*
X102597101Y-65979071D01*
X102449142Y-66040358D01*
X102292075Y-66071600D01*
X102131925Y-66071600D01*
X101974858Y-66040358D01*
X101826899Y-65979071D01*
X101693745Y-65890101D01*
X101580499Y-65776855D01*
X101491529Y-65643701D01*
X101430242Y-65495742D01*
X101399000Y-65338675D01*
X101399000Y-65178525D01*
X101430242Y-65021458D01*
X101491529Y-64873499D01*
X101580499Y-64740345D01*
X101693745Y-64627099D01*
X101826899Y-64538129D01*
X101974858Y-64476842D01*
X102131925Y-64445600D01*
X102292075Y-64445600D01*
X102449142Y-64476842D01*
G37*
G36*
X111356564Y-60639389D02*
G01*
X111547833Y-60718615D01*
X111547835Y-60718616D01*
X111719973Y-60833635D01*
X111866365Y-60980027D01*
X111981385Y-61152167D01*
X112060611Y-61343436D01*
X112101000Y-61546484D01*
X112101000Y-61753516D01*
X112060611Y-61956564D01*
X111981385Y-62147833D01*
X111981384Y-62147835D01*
X111866365Y-62319973D01*
X111719973Y-62466365D01*
X111547835Y-62581384D01*
X111547834Y-62581385D01*
X111547833Y-62581385D01*
X111356564Y-62660611D01*
X111153516Y-62701000D01*
X110946484Y-62701000D01*
X110743436Y-62660611D01*
X110552167Y-62581385D01*
X110552166Y-62581385D01*
X110552165Y-62581384D01*
X110380027Y-62466365D01*
X110233635Y-62319973D01*
X110118616Y-62147835D01*
X110118615Y-62147833D01*
X110039389Y-61956564D01*
X109999000Y-61753516D01*
X109999000Y-61546484D01*
X110039389Y-61343436D01*
X110118615Y-61152167D01*
X110233635Y-60980027D01*
X110380027Y-60833635D01*
X110552165Y-60718616D01*
X110552167Y-60718615D01*
X110743436Y-60639389D01*
X110946484Y-60599000D01*
X111153516Y-60599000D01*
X111356564Y-60639389D01*
G37*
G36*
X111356564Y-54139389D02*
G01*
X111547833Y-54218615D01*
X111547835Y-54218616D01*
X111719973Y-54333635D01*
X111866365Y-54480027D01*
X111981385Y-54652167D01*
X112060611Y-54843436D01*
X112101000Y-55046484D01*
X112101000Y-55253516D01*
X112060611Y-55456564D01*
X111981385Y-55647833D01*
X111981384Y-55647835D01*
X111866365Y-55819973D01*
X111719973Y-55966365D01*
X111547835Y-56081384D01*
X111547834Y-56081385D01*
X111547833Y-56081385D01*
X111356564Y-56160611D01*
X111153516Y-56201000D01*
X110946484Y-56201000D01*
X110743436Y-56160611D01*
X110552167Y-56081385D01*
X110552166Y-56081385D01*
X110552165Y-56081384D01*
X110380027Y-55966365D01*
X110233635Y-55819973D01*
X110118616Y-55647835D01*
X110118615Y-55647833D01*
X110039389Y-55456564D01*
X109999000Y-55253516D01*
X109999000Y-55046484D01*
X110039389Y-54843436D01*
X110118615Y-54652167D01*
X110233635Y-54480027D01*
X110380027Y-54333635D01*
X110552165Y-54218616D01*
X110552167Y-54218615D01*
X110743436Y-54139389D01*
X110946484Y-54099000D01*
X111153516Y-54099000D01*
X111356564Y-54139389D01*
G37*
G36*
X162924549Y-50221116D02*
G01*
X163035734Y-50243232D01*
X163245203Y-50329997D01*
X163433720Y-50455960D01*
X163594040Y-50616280D01*
X163720003Y-50804797D01*
X163720004Y-50804799D01*
X163745416Y-50866150D01*
X163806768Y-51014266D01*
X163851000Y-51236636D01*
X163851000Y-51463364D01*
X163806768Y-51685734D01*
X163720003Y-51895203D01*
X163594040Y-52083720D01*
X163433720Y-52244040D01*
X163245203Y-52370003D01*
X163035734Y-52456768D01*
X162924549Y-52478884D01*
X162813365Y-52501000D01*
X162586635Y-52501000D01*
X162475451Y-52478884D01*
X162364266Y-52456768D01*
X162154797Y-52370003D01*
X161966280Y-52244040D01*
X161805960Y-52083720D01*
X161679997Y-51895203D01*
X161593232Y-51685734D01*
X161549000Y-51463364D01*
X161549000Y-51236636D01*
X161593232Y-51014266D01*
X161654584Y-50866150D01*
X161679996Y-50804799D01*
X161679997Y-50804797D01*
X161805960Y-50616280D01*
X161966280Y-50455960D01*
X162154797Y-50329997D01*
X162364266Y-50243232D01*
X162475451Y-50221116D01*
X162586635Y-50199000D01*
X162813365Y-50199000D01*
X162924549Y-50221116D01*
G37*
G36*
X102449142Y-49256842D02*
G01*
X102597101Y-49318129D01*
X102730255Y-49407099D01*
X102843501Y-49520345D01*
X102932471Y-49653499D01*
X102993758Y-49801458D01*
X103025000Y-49958525D01*
X103025000Y-50118675D01*
X102993758Y-50275742D01*
X102932471Y-50423701D01*
X102843501Y-50556855D01*
X102730255Y-50670101D01*
X102597101Y-50759071D01*
X102449142Y-50820358D01*
X102292075Y-50851600D01*
X102131925Y-50851600D01*
X101974858Y-50820358D01*
X101826899Y-50759071D01*
X101693745Y-50670101D01*
X101580499Y-50556855D01*
X101491529Y-50423701D01*
X101430242Y-50275742D01*
X101399000Y-50118675D01*
X101399000Y-49958525D01*
X101430242Y-49801458D01*
X101491529Y-49653499D01*
X101580499Y-49520345D01*
X101693745Y-49407099D01*
X101826899Y-49318129D01*
X101974858Y-49256842D01*
X102131925Y-49225600D01*
X102292075Y-49225600D01*
X102449142Y-49256842D01*
G37*
G36*
X74509142Y-49256842D02*
G01*
X74657101Y-49318129D01*
X74790255Y-49407099D01*
X74903501Y-49520345D01*
X74992471Y-49653499D01*
X75053758Y-49801458D01*
X75085000Y-49958525D01*
X75085000Y-50118675D01*
X75053758Y-50275742D01*
X74992471Y-50423701D01*
X74903501Y-50556855D01*
X74790255Y-50670101D01*
X74657101Y-50759071D01*
X74509142Y-50820358D01*
X74352075Y-50851600D01*
X74191925Y-50851600D01*
X74034858Y-50820358D01*
X73886899Y-50759071D01*
X73753745Y-50670101D01*
X73640499Y-50556855D01*
X73551529Y-50423701D01*
X73490242Y-50275742D01*
X73459000Y-50118675D01*
X73459000Y-49958525D01*
X73490242Y-49801458D01*
X73551529Y-49653499D01*
X73640499Y-49520345D01*
X73753745Y-49407099D01*
X73886899Y-49318129D01*
X74034858Y-49256842D01*
X74191925Y-49225600D01*
X74352075Y-49225600D01*
X74509142Y-49256842D01*
G37*
G36*
X77049142Y-49256842D02*
G01*
X77197101Y-49318129D01*
X77330255Y-49407099D01*
X77443501Y-49520345D01*
X77532471Y-49653499D01*
X77593758Y-49801458D01*
X77625000Y-49958525D01*
X77625000Y-50118675D01*
X77593758Y-50275742D01*
X77532471Y-50423701D01*
X77443501Y-50556855D01*
X77330255Y-50670101D01*
X77197101Y-50759071D01*
X77049142Y-50820358D01*
X76892075Y-50851600D01*
X76731925Y-50851600D01*
X76574858Y-50820358D01*
X76426899Y-50759071D01*
X76293745Y-50670101D01*
X76180499Y-50556855D01*
X76091529Y-50423701D01*
X76030242Y-50275742D01*
X75999000Y-50118675D01*
X75999000Y-49958525D01*
X76030242Y-49801458D01*
X76091529Y-49653499D01*
X76180499Y-49520345D01*
X76293745Y-49407099D01*
X76426899Y-49318129D01*
X76574858Y-49256842D01*
X76731925Y-49225600D01*
X76892075Y-49225600D01*
X77049142Y-49256842D01*
G37*
G36*
X79589142Y-49256842D02*
G01*
X79737101Y-49318129D01*
X79870255Y-49407099D01*
X79983501Y-49520345D01*
X80072471Y-49653499D01*
X80133758Y-49801458D01*
X80165000Y-49958525D01*
X80165000Y-50118675D01*
X80133758Y-50275742D01*
X80072471Y-50423701D01*
X79983501Y-50556855D01*
X79870255Y-50670101D01*
X79737101Y-50759071D01*
X79589142Y-50820358D01*
X79432075Y-50851600D01*
X79271925Y-50851600D01*
X79114858Y-50820358D01*
X78966899Y-50759071D01*
X78833745Y-50670101D01*
X78720499Y-50556855D01*
X78631529Y-50423701D01*
X78570242Y-50275742D01*
X78539000Y-50118675D01*
X78539000Y-49958525D01*
X78570242Y-49801458D01*
X78631529Y-49653499D01*
X78720499Y-49520345D01*
X78833745Y-49407099D01*
X78966899Y-49318129D01*
X79114858Y-49256842D01*
X79271925Y-49225600D01*
X79432075Y-49225600D01*
X79589142Y-49256842D01*
G37*
G36*
X82129142Y-49256842D02*
G01*
X82277101Y-49318129D01*
X82410255Y-49407099D01*
X82523501Y-49520345D01*
X82612471Y-49653499D01*
X82673758Y-49801458D01*
X82705000Y-49958525D01*
X82705000Y-50118675D01*
X82673758Y-50275742D01*
X82612471Y-50423701D01*
X82523501Y-50556855D01*
X82410255Y-50670101D01*
X82277101Y-50759071D01*
X82129142Y-50820358D01*
X81972075Y-50851600D01*
X81811925Y-50851600D01*
X81654858Y-50820358D01*
X81506899Y-50759071D01*
X81373745Y-50670101D01*
X81260499Y-50556855D01*
X81171529Y-50423701D01*
X81110242Y-50275742D01*
X81079000Y-50118675D01*
X81079000Y-49958525D01*
X81110242Y-49801458D01*
X81171529Y-49653499D01*
X81260499Y-49520345D01*
X81373745Y-49407099D01*
X81506899Y-49318129D01*
X81654858Y-49256842D01*
X81811925Y-49225600D01*
X81972075Y-49225600D01*
X82129142Y-49256842D01*
G37*
G36*
X84669142Y-49256842D02*
G01*
X84817101Y-49318129D01*
X84950255Y-49407099D01*
X85063501Y-49520345D01*
X85152471Y-49653499D01*
X85213758Y-49801458D01*
X85245000Y-49958525D01*
X85245000Y-50118675D01*
X85213758Y-50275742D01*
X85152471Y-50423701D01*
X85063501Y-50556855D01*
X84950255Y-50670101D01*
X84817101Y-50759071D01*
X84669142Y-50820358D01*
X84512075Y-50851600D01*
X84351925Y-50851600D01*
X84194858Y-50820358D01*
X84046899Y-50759071D01*
X83913745Y-50670101D01*
X83800499Y-50556855D01*
X83711529Y-50423701D01*
X83650242Y-50275742D01*
X83619000Y-50118675D01*
X83619000Y-49958525D01*
X83650242Y-49801458D01*
X83711529Y-49653499D01*
X83800499Y-49520345D01*
X83913745Y-49407099D01*
X84046899Y-49318129D01*
X84194858Y-49256842D01*
X84351925Y-49225600D01*
X84512075Y-49225600D01*
X84669142Y-49256842D01*
G37*
G36*
X87209142Y-49256842D02*
G01*
X87357101Y-49318129D01*
X87490255Y-49407099D01*
X87603501Y-49520345D01*
X87692471Y-49653499D01*
X87753758Y-49801458D01*
X87785000Y-49958525D01*
X87785000Y-50118675D01*
X87753758Y-50275742D01*
X87692471Y-50423701D01*
X87603501Y-50556855D01*
X87490255Y-50670101D01*
X87357101Y-50759071D01*
X87209142Y-50820358D01*
X87052075Y-50851600D01*
X86891925Y-50851600D01*
X86734858Y-50820358D01*
X86586899Y-50759071D01*
X86453745Y-50670101D01*
X86340499Y-50556855D01*
X86251529Y-50423701D01*
X86190242Y-50275742D01*
X86159000Y-50118675D01*
X86159000Y-49958525D01*
X86190242Y-49801458D01*
X86251529Y-49653499D01*
X86340499Y-49520345D01*
X86453745Y-49407099D01*
X86586899Y-49318129D01*
X86734858Y-49256842D01*
X86891925Y-49225600D01*
X87052075Y-49225600D01*
X87209142Y-49256842D01*
G37*
G36*
X89749142Y-49256842D02*
G01*
X89897101Y-49318129D01*
X90030255Y-49407099D01*
X90143501Y-49520345D01*
X90232471Y-49653499D01*
X90293758Y-49801458D01*
X90325000Y-49958525D01*
X90325000Y-50118675D01*
X90293758Y-50275742D01*
X90232471Y-50423701D01*
X90143501Y-50556855D01*
X90030255Y-50670101D01*
X89897101Y-50759071D01*
X89749142Y-50820358D01*
X89592075Y-50851600D01*
X89431925Y-50851600D01*
X89274858Y-50820358D01*
X89126899Y-50759071D01*
X88993745Y-50670101D01*
X88880499Y-50556855D01*
X88791529Y-50423701D01*
X88730242Y-50275742D01*
X88699000Y-50118675D01*
X88699000Y-49958525D01*
X88730242Y-49801458D01*
X88791529Y-49653499D01*
X88880499Y-49520345D01*
X88993745Y-49407099D01*
X89126899Y-49318129D01*
X89274858Y-49256842D01*
X89431925Y-49225600D01*
X89592075Y-49225600D01*
X89749142Y-49256842D01*
G37*
G36*
X92289142Y-49256842D02*
G01*
X92437101Y-49318129D01*
X92570255Y-49407099D01*
X92683501Y-49520345D01*
X92772471Y-49653499D01*
X92833758Y-49801458D01*
X92865000Y-49958525D01*
X92865000Y-50118675D01*
X92833758Y-50275742D01*
X92772471Y-50423701D01*
X92683501Y-50556855D01*
X92570255Y-50670101D01*
X92437101Y-50759071D01*
X92289142Y-50820358D01*
X92132075Y-50851600D01*
X91971925Y-50851600D01*
X91814858Y-50820358D01*
X91666899Y-50759071D01*
X91533745Y-50670101D01*
X91420499Y-50556855D01*
X91331529Y-50423701D01*
X91270242Y-50275742D01*
X91239000Y-50118675D01*
X91239000Y-49958525D01*
X91270242Y-49801458D01*
X91331529Y-49653499D01*
X91420499Y-49520345D01*
X91533745Y-49407099D01*
X91666899Y-49318129D01*
X91814858Y-49256842D01*
X91971925Y-49225600D01*
X92132075Y-49225600D01*
X92289142Y-49256842D01*
G37*
G36*
X94829142Y-49256842D02*
G01*
X94977101Y-49318129D01*
X95110255Y-49407099D01*
X95223501Y-49520345D01*
X95312471Y-49653499D01*
X95373758Y-49801458D01*
X95405000Y-49958525D01*
X95405000Y-50118675D01*
X95373758Y-50275742D01*
X95312471Y-50423701D01*
X95223501Y-50556855D01*
X95110255Y-50670101D01*
X94977101Y-50759071D01*
X94829142Y-50820358D01*
X94672075Y-50851600D01*
X94511925Y-50851600D01*
X94354858Y-50820358D01*
X94206899Y-50759071D01*
X94073745Y-50670101D01*
X93960499Y-50556855D01*
X93871529Y-50423701D01*
X93810242Y-50275742D01*
X93779000Y-50118675D01*
X93779000Y-49958525D01*
X93810242Y-49801458D01*
X93871529Y-49653499D01*
X93960499Y-49520345D01*
X94073745Y-49407099D01*
X94206899Y-49318129D01*
X94354858Y-49256842D01*
X94511925Y-49225600D01*
X94672075Y-49225600D01*
X94829142Y-49256842D01*
G37*
G36*
X97369142Y-49256842D02*
G01*
X97517101Y-49318129D01*
X97650255Y-49407099D01*
X97763501Y-49520345D01*
X97852471Y-49653499D01*
X97913758Y-49801458D01*
X97945000Y-49958525D01*
X97945000Y-50118675D01*
X97913758Y-50275742D01*
X97852471Y-50423701D01*
X97763501Y-50556855D01*
X97650255Y-50670101D01*
X97517101Y-50759071D01*
X97369142Y-50820358D01*
X97212075Y-50851600D01*
X97051925Y-50851600D01*
X96894858Y-50820358D01*
X96746899Y-50759071D01*
X96613745Y-50670101D01*
X96500499Y-50556855D01*
X96411529Y-50423701D01*
X96350242Y-50275742D01*
X96319000Y-50118675D01*
X96319000Y-49958525D01*
X96350242Y-49801458D01*
X96411529Y-49653499D01*
X96500499Y-49520345D01*
X96613745Y-49407099D01*
X96746899Y-49318129D01*
X96894858Y-49256842D01*
X97051925Y-49225600D01*
X97212075Y-49225600D01*
X97369142Y-49256842D01*
G37*
G36*
X99909142Y-49256842D02*
G01*
X100057101Y-49318129D01*
X100190255Y-49407099D01*
X100303501Y-49520345D01*
X100392471Y-49653499D01*
X100453758Y-49801458D01*
X100485000Y-49958525D01*
X100485000Y-50118675D01*
X100453758Y-50275742D01*
X100392471Y-50423701D01*
X100303501Y-50556855D01*
X100190255Y-50670101D01*
X100057101Y-50759071D01*
X99909142Y-50820358D01*
X99752075Y-50851600D01*
X99591925Y-50851600D01*
X99434858Y-50820358D01*
X99286899Y-50759071D01*
X99153745Y-50670101D01*
X99040499Y-50556855D01*
X98951529Y-50423701D01*
X98890242Y-50275742D01*
X98859000Y-50118675D01*
X98859000Y-49958525D01*
X98890242Y-49801458D01*
X98951529Y-49653499D01*
X99040499Y-49520345D01*
X99153745Y-49407099D01*
X99286899Y-49318129D01*
X99434858Y-49256842D01*
X99591925Y-49225600D01*
X99752075Y-49225600D01*
X99909142Y-49256842D01*
G37*
M02*
