M48
; DRILL file {KiCad (5.1.5-0-10_14)} date 2019 December 18, Wednesday 14:31:10
; FORMAT={-:-/ absolute / metric / decimal}
; #@! TF.CreationDate,2019-12-18T14:31:10+09:00
; #@! TF.GenerationSoftware,Kicad,Pcbnew,(5.1.5-0-10_14)
; #@! TF.FileFunction,NonPlated,1,2,NPTH
FMAT,2
METRIC
T1C1.900
T2C2.200
T3C4.000
%
G90
G05
T1
X90.75Y-97.85
X101.75Y-97.85
X78.4Y-130.1
X89.4Y-130.1
X116.25Y-97.85
X127.25Y-97.85
X141.6Y-98.0
X152.6Y-98.0
X102.7Y-130.0
X113.7Y-130.0
X126.95Y-129.9
X137.95Y-129.9
X150.45Y-129.9
X161.45Y-129.9
T2
X71.9Y-72.35
X162.7Y-142.6
X71.85Y-142.55
X162.7Y-51.35
T3
X96.25Y-97.85
X83.9Y-130.1
X121.75Y-97.85
X147.1Y-98.0
X108.2Y-130.0
X132.45Y-129.9
X155.95Y-129.9
T0
M30
