M48
; DRILL file {KiCad (5.1.5-0-10_14)} date 2019 December 18, Wednesday 14:31:10
; FORMAT={-:-/ absolute / metric / decimal}
; #@! TF.CreationDate,2019-12-18T14:31:10+09:00
; #@! TF.GenerationSoftware,Kicad,Pcbnew,(5.1.5-0-10_14)
; #@! TF.FileFunction,Plated,1,2,PTH
FMAT,2
METRIC
T1C0.800
T2C0.813
T3C1.300
%
G90
G05
T2
X105.95Y-113.15
X111.95Y-113.15
X86.5Y-113.35
X92.5Y-113.35
X141.65Y-81.7
X147.65Y-81.7
X116.75Y-81.95
X122.75Y-81.95
X74.272Y-50.039
X74.272Y-65.259
X76.812Y-50.039
X76.812Y-65.259
X79.352Y-50.039
X79.352Y-65.259
X81.892Y-50.039
X81.892Y-65.259
X84.432Y-50.039
X84.432Y-65.259
X86.972Y-50.039
X86.972Y-65.259
X89.512Y-50.039
X89.512Y-65.259
X92.052Y-50.039
X92.052Y-65.259
X94.592Y-50.039
X94.592Y-65.259
X97.132Y-50.039
X97.132Y-65.259
X99.672Y-50.039
X99.672Y-65.259
X102.212Y-50.039
X102.212Y-65.259
X91.85Y-82.3
X97.85Y-82.3
X151.95Y-112.7
X157.95Y-112.7
X130.5Y-112.7
X136.5Y-112.7
T3
X111.05Y-55.15
X111.05Y-61.65
T1
G00X128.44Y-127.36
M15
G01X128.84Y-127.36
M16
G05
G00X134.79Y-124.82
M15
G01X135.19Y-124.82
M16
G05
G00X151.94Y-127.36
M15
G01X152.34Y-127.36
M16
G05
G00X158.29Y-124.82
M15
G01X158.69Y-124.82
M16
G05
G00X104.19Y-127.46
M15
G01X104.59Y-127.46
M16
G05
G00X110.54Y-124.92
M15
G01X110.94Y-124.92
M16
G05
G00X92.24Y-95.31
M15
G01X92.64Y-95.31
M16
G05
G00X98.59Y-92.77
M15
G01X98.99Y-92.77
M16
G05
G00X79.89Y-127.56
M15
G01X80.29Y-127.56
M16
G05
G00X86.24Y-125.02
M15
G01X86.64Y-125.02
M16
G05
G00X117.74Y-95.31
M15
G01X118.14Y-95.31
M16
G05
G00X124.09Y-92.77
M15
G01X124.49Y-92.77
M16
G05
G00X143.09Y-95.46
M15
G01X143.49Y-95.46
M16
G05
G00X149.44Y-92.92
M15
G01X149.84Y-92.92
M16
G05
T0
M30
