<?xml version="1.0" encoding="utf-8"?>
<!-- Generator: Adobe Illustrator 24.0.0, SVG Export Plug-In . SVG Version: 6.00 Build 0)  -->
<svg version="1.1" id="レイヤー_1" xmlns="http://www.w3.org/2000/svg" xmlns:xlink="http://www.w3.org/1999/xlink" x="0px"
	 y="0px" viewBox="0 0 841.9 595.3" style="enable-background:new 0 0 841.9 595.3;" xml:space="preserve">
<style type="text/css">
	.st0{fill:none;stroke:#FF0000;stroke-width:0.2835;stroke-miterlimit:10;}
</style>
<title>SVG Picture created as First_keyboard30-Edge_Cuts.svg date 2019/12/24 01:54:39</title>
<desc>Picture generated by PCBNEW</desc>
<g transform="translate(0 0) scale(1 1)">
</g>
<g>
	<g>
		<path class="st0" d="M673.8,168H13.2"/>
		<path class="st0" d="M13.2,6h660.6"/>
		<path class="st0" d="M6,160.7V13.1"/>
		<path class="st0" d="M680.9,13.2v147.6"/>
		<path class="st0" d="M680.9,13.2c0-4-3.2-7.2-7.2-7.2"/>
		<path class="st0" d="M673.8,168c4,0,7.2-3.2,7.2-7.2"/>
		<path class="st0" d="M6,160.7c0,4,3.2,7.2,7.2,7.2"/>
		<path class="st0" d="M13.2,6C9.2,6,6,9.2,6,13.2"/>
	</g>
	<g>
		<circle class="st0" cx="65.9" cy="12.1" r="3.1"/>
		<circle class="st0" cx="66.1" cy="161" r="3.1"/>
		<circle class="st0" cx="335.9" cy="12.3" r="3.1"/>
		<circle class="st0" cx="628" cy="160.6" r="3.1"/>
		<circle class="st0" cx="619.5" cy="12.1" r="3.1"/>
	</g>
	<path class="st0" d="M451.5,66.9v39.3h39.3V66.9H451.5z"/>
	<path class="st0" d="M627,12.9v39.3h39.3V12.9H627z"/>
	<path class="st0" d="M559.5,12.9v39.3h39.3V12.9H559.5z"/>
	<path class="st0" d="M559.5,67v39.3h39.3V67H559.5z"/>
	<path class="st0" d="M505.5,12.9v39.3h39.3V12.9H505.5z"/>
	<path class="st0" d="M505.5,67v39.3h39.3V67H505.5z"/>
	<path class="st0" d="M451.5,12.9v39.3h39.3V12.9H451.5z"/>
	<path class="st0" d="M458.5,120.9v39.3h39.3v-39.3H458.5z"/>
	<path class="st0" d="M397.5,120.9v39.3h39.3v-39.3H397.5z"/>
	<path class="st0" d="M397.5,67v39.3h39.3V67H397.5z"/>
	<path class="st0" d="M397.5,12.9v39.3h39.3V12.9H397.5z"/>
	<path class="st0" d="M343.5,12.9v39.3h39.2V12.9H343.5z"/>
	<path class="st0" d="M343.5,66.9v39.3h39.2V66.9H343.5z"/>
	<path class="st0" d="M343.5,120.9v39.3h39.2v-39.3H343.5z"/>
	<path class="st0" d="M289.5,120.9v39.3h39.2v-39.3H289.5z"/>
	<path class="st0" d="M289.5,66.9v39.3h39.2V66.9H289.5z"/>
	<path class="st0" d="M289.5,12.9v39.3h39.2V12.9H289.5z"/>
	<path class="st0" d="M235.5,12.9v39.3h39.3V12.9H235.5z"/>
	<path class="st0" d="M235.5,66.9v39.3h39.3V66.9H235.5z"/>
	<path class="st0" d="M235.5,120.9v39.3h39.3v-39.3H235.5z"/>
	<path class="st0" d="M181.5,120.9v39.3h39.3v-39.3H181.5z"/>
	<path class="st0" d="M181.5,66.9v39.3h39.3V66.9H181.5z"/>
	<path class="st0" d="M181.5,12.9v39.3h39.3V12.9H181.5z"/>
	<path class="st0" d="M127.5,12.9v39.3h39.3V12.9H127.5z"/>
	<path class="st0" d="M127.5,66.9v39.3h39.3V66.9H127.5z"/>
	<path class="st0" d="M127.5,120.9v39.3h39.3v-39.3H127.5z"/>
	<path class="st0" d="M73.5,12.9v39.3h39.3V12.9H73.5z"/>
	<path class="st0" d="M73.5,66.9v39.3h39.3V66.9H73.5z"/>
	<path class="st0" d="M73.5,120.9v39.3h39.3v-39.3H73.5z"/>
	<path class="st0" d="M19.5,120.9v39.3h39.3v-39.3H19.5z"/>
	<path class="st0" d="M19.5,66.9v39.3h39.3V66.9H19.5z"/>
	<path class="st0" d="M19.5,12.9v39.3h39.3V12.9H19.5z"/>
	<path class="st0" d="M588.7,160.2v-13.3"/>
	<path class="st0" d="M530.5,158.7h9.4"/>
	<path class="st0" d="M549,160.2h39.7"/>
	<path class="st0" d="M539.8,158.7v-2.6"/>
	<path class="st0" d="M588.7,146.9h4.3"/>
	<path class="st0" d="M544.7,146.9h4.3"/>
	<path class="st0" d="M549,146.9v13.3"/>
	<path class="st0" d="M539.8,156.1h4.9"/>
	<path class="st0" d="M544.7,156.1v-9.2"/>
	<path class="st0" d="M588.7,133.9v-13.3"/>
	<path class="st0" d="M539.8,121.2v-2.8"/>
	<path class="st0" d="M544.7,133.9v-12.7"/>
	<path class="st0" d="M549,133.9h-4.3"/>
	<path class="st0" d="M549,120.6v13.3"/>
	<path class="st0" d="M588.7,120.6H549"/>
	<path class="st0" d="M530.5,118.4v2.8"/>
	<path class="st0" d="M539.8,118.4h-9.4"/>
	<path class="st0" d="M544.7,121.2h-4.9"/>
	<path class="st0" d="M544.7,121.2h-4.5"/>
	<path class="st0" d="M525.6,139h-2.3"/>
	<path class="st0" d="M523.2,146.9h2.3"/>
	<path class="st0" d="M530.5,121.2h-4.9"/>
	<path class="st0" d="M523.2,139v7.9"/>
	<path class="st0" d="M525.6,121.2V139"/>
	<path class="st0" d="M593,146.9v9.2"/>
	<path class="st0" d="M593,156.1h4.9"/>
	<path class="st0" d="M597.9,156.1v2.6"/>
	<path class="st0" d="M588.7,160.2v-13.3"/>
	<path class="st0" d="M614.5,146.9V139"/>
	<path class="st0" d="M607.3,121.2v-2.8"/>
	<path class="st0" d="M607.3,118.4h-9.4"/>
	<path class="st0" d="M597.9,118.4v2.8"/>
	<path class="st0" d="M593,133.9h-4.3"/>
	<path class="st0" d="M607.3,158.7v-2.6"/>
	<path class="st0" d="M612.2,121.2h-4.9"/>
	<path class="st0" d="M593,121.2v12.7"/>
	<path class="st0" d="M525.6,146.9v9.2"/>
	<path class="st0" d="M612.2,146.9h2.3"/>
	<path class="st0" d="M607.3,156.1h4.9"/>
	<path class="st0" d="M612.2,156.1v-9.2"/>
	<path class="st0" d="M597.9,121.2H593"/>
	<path class="st0" d="M614.5,139h-2.3"/>
	<path class="st0" d="M525.6,156.1h4.9"/>
	<path class="st0" d="M530.5,156.1v2.6"/>
	<path class="st0" d="M597.9,158.7h9.4"/>
	<path class="st0" d="M612.2,139v-17.8"/>
	<path class="st0" d="M523.2,146.9h2.3"/>
	<path class="st0" d="M588.7,160.3"/>
	<path class="st0" d="M659.9,67.9H652"/>
	<path class="st0" d="M659.9,70.2v-2.3"/>
	<path class="st0" d="M669,70.2h-9.2"/>
	<path class="st0" d="M669,75.1v-4.9"/>
	<path class="st0" d="M671.7,75.1h-2.6"/>
	<path class="st0" d="M671.7,84.5v-9.4"/>
	<path class="st0" d="M646.8,89.4v4.3"/>
	<path class="st0" d="M634.2,89.4h12.7"/>
	<path class="st0" d="M634.2,84.5v4.9"/>
	<path class="st0" d="M631.4,84.5h2.8"/>
	<path class="st0" d="M631.4,75.1v9.4"/>
	<path class="st0" d="M634.2,75.1h-2.8"/>
	<path class="st0" d="M634.2,70.2v4.9"/>
	<path class="st0" d="M652,70.2h-17.8"/>
	<path class="st0" d="M652,67.9v2.3"/>
	<path class="st0" d="M669,151.9h2.6"/>
	<path class="st0" d="M669,156.8v-4.9"/>
	<path class="st0" d="M659.9,156.8h9.2"/>
	<path class="st0" d="M659.9,159.2v-2.3"/>
	<path class="st0" d="M652,159.2h7.9"/>
	<path class="st0" d="M652,156.8v2.3"/>
	<path class="st0" d="M634.2,156.8H652"/>
	<path class="st0" d="M634.2,151.9v4.9"/>
	<path class="st0" d="M631.4,151.9h2.8"/>
	<path class="st0" d="M631.4,142.6v9.4"/>
	<path class="st0" d="M634.2,142.6h-2.8"/>
	<path class="st0" d="M634.2,137.7v4.9"/>
	<path class="st0" d="M646.8,137.7h-12.7"/>
	<path class="st0" d="M646.8,133.4v4.3"/>
	<path class="st0" d="M633.5,133.4h13.3"/>
	<path class="st0" d="M633.5,93.7v39.7"/>
	<path class="st0" d="M646.8,93.7h-13.3"/>
	<path class="st0" d="M659.9,93.7v-4.3"/>
	<path class="st0" d="M673.2,93.7h-13.3"/>
	<path class="st0" d="M673.2,133.4V93.7"/>
	<path class="st0" d="M659.9,133.4h13.3"/>
	<path class="st0" d="M659.9,137.7v-4.3"/>
	<path class="st0" d="M669,137.7h-9.2"/>
	<path class="st0" d="M669,142.6v-4.9"/>
	<path class="st0" d="M671.7,142.6h-2.6"/>
	<path class="st0" d="M671.7,151.9v-9.4"/>
	<path class="st0" d="M669,84.5h2.6"/>
	<path class="st0" d="M669,89.4v-4.9"/>
	<path class="st0" d="M659.9,89.4h9.2"/>
	<path class="st0" d="M634.2,75.1h-2.8"/>
	<path class="st0" d="M652,70.2h-17.8"/>
	<path class="st0" d="M673.2,93.7h-13.3"/>
</g>
<g>
	<g>
		<path class="st0" d="M672.7,344.1H12.1"/>
		<path class="st0" d="M12.2,182.1h660.6"/>
		<path class="st0" d="M5,336.8V189.2"/>
		<path class="st0" d="M679.9,189.2v147.6"/>
		<path class="st0" d="M679.9,189.2c0-4-3.2-7.2-7.2-7.2"/>
		<path class="st0" d="M672.7,344.1c4,0,7.2-3.2,7.2-7.2"/>
		<path class="st0" d="M5,336.8c0,4,3.2,7.2,7.2,7.2"/>
		<path class="st0" d="M12.2,182.1c-4,0-7.2,3.2-7.2,7.2"/>
	</g>
	<g>
		<circle class="st0" cx="58.8" cy="188.6" r="3.1"/>
		<circle class="st0" cx="59" cy="337.5" r="3.1"/>
		<circle class="st0" cx="328.8" cy="188.8" r="3.1"/>
		<circle class="st0" cx="620.9" cy="337.1" r="3.1"/>
		<circle class="st0" cx="612.4" cy="188.6" r="3.1"/>
	</g>
</g>
</svg>
