  0
SECTION
  2
HEADER
  9
$ANGBASE
  50
0.0
  9
$ANGDIR
  70
1
  9
$MEASUREMENT
  70
0
  0
ENDSEC
  0
SECTION
  2
TABLES
  0
TABLE
  2
LTYPE
  70
4
  0
LTYPE
  5
40F
  2
CONTINUOUS
  70
0
  3
Solid line
  72
65
  73
0
  40
0.0
  0
LTYPE
  5
410
  2
DASHDOT
 70
0
  3
Dash Dot ____ _ ____ _
 72
65
 73
4
 40
2.0
 49
1.25
 49
-0.25
 49
0.25
 49
-0.25
  0
LTYPE
  5
411
  2
DASHED
 70
0
  3
Dashed __ __ __ __ __
 72
65
 73
2
 40
0.75
 49
0.5
 49
-0.25
  0
LTYPE
  5
43B
  2
DOTTED
 70
0
  3
Dotted .  .  .  .
 72
65
 73
2
 40
0.2
 49
0.0
 49
-0.2
  0
ENDTAB
  0
TABLE
  2
STYLE
  70
4
  0
STYLE
  2
KICAD
  70
0
  40
0
  41
1
  42
1
  50
0
  71
0
  3
isocp.shx
  0
STYLE
  2
KICADB
  70
0
  40
0
  41
1
  42
1
  50
0
  71
0
  3
isocp.shx
  0
STYLE
  2
KICADI
  70
0
  40
0
  41
1
  42
1
  50
15
  71
0
  3
isocp.shx
  0
STYLE
  2
KICADBI
  70
0
  40
0
  41
1
  42
1
  50
15
  71
0
  3
isocp.shx
  0
ENDTAB
  0
TABLE
  2
LAYER
  70
1
  0
LAYER
  2
BLACK
  70
0
  62
7
  6
CONTINUOUS
  0
ENDTAB
  0
ENDSEC
  0
SECTION
  2
ENTITIES
0
LINE
8
BLACK
6
CONTINUOUS
10
9.60098
20
-5.26909
11
9.56358
21
-5.26909
0
LINE
8
BLACK
6
CONTINUOUS
10
9.56358
20
-5.26909
11
9.56358
21
-5.21791
0
LINE
8
BLACK
6
CONTINUOUS
10
9.56358
20
-5.21791
11
9.60098
21
-5.21791
0
LINE
8
BLACK
6
CONTINUOUS
10
9.60098
20
-5.21791
11
9.60098
21
-5.26909
0
LINE
8
BLACK
6
CONTINUOUS
10
3.37185
20
-5.18917
11
3.33445
21
-5.18917
0
LINE
8
BLACK
6
CONTINUOUS
10
3.33445
20
-5.18917
11
3.33445
21
-5.13799
0
LINE
8
BLACK
6
CONTINUOUS
10
3.33445
20
-5.13799
11
3.37185
21
-5.13799
0
LINE
8
BLACK
6
CONTINUOUS
10
3.37185
20
-5.13799
11
3.37185
21
-5.18917
0
LINE
8
BLACK
6
CONTINUOUS
10
2.62343
20
-5.18839
11
2.58602
21
-5.18839
0
LINE
8
BLACK
6
CONTINUOUS
10
2.58602
20
-5.18839
11
2.58602
21
-5.1372
0
LINE
8
BLACK
6
CONTINUOUS
10
2.58602
20
-5.1372
11
2.62343
21
-5.1372
0
LINE
8
BLACK
6
CONTINUOUS
10
2.62343
20
-5.1372
11
2.62343
21
-5.18839
0
LINE
8
BLACK
6
CONTINUOUS
10
1.87343
20
-5.18799
11
1.83602
21
-5.18799
0
LINE
8
BLACK
6
CONTINUOUS
10
1.83602
20
-5.18799
11
1.83602
21
-5.13681
0
LINE
8
BLACK
6
CONTINUOUS
10
1.83602
20
-5.13681
11
1.87343
21
-5.13681
0
LINE
8
BLACK
6
CONTINUOUS
10
1.87343
20
-5.13681
11
1.87343
21
-5.18799
0
LINE
8
BLACK
6
CONTINUOUS
10
7.12539
20
-5.1872
11
7.08799
21
-5.1872
0
LINE
8
BLACK
6
CONTINUOUS
10
7.08799
20
-5.1872
11
7.08799
21
-5.13602
0
LINE
8
BLACK
6
CONTINUOUS
10
7.08799
20
-5.13602
11
7.12539
21
-5.13602
0
LINE
8
BLACK
6
CONTINUOUS
10
7.12539
20
-5.13602
11
7.12539
21
-5.1872
0
LINE
8
BLACK
6
CONTINUOUS
10
8.10925
20
-5.18681
11
8.07185
21
-5.18681
0
LINE
8
BLACK
6
CONTINUOUS
10
8.07185
20
-5.18681
11
8.07185
21
-5.13563
0
LINE
8
BLACK
6
CONTINUOUS
10
8.07185
20
-5.13563
11
8.10925
21
-5.13563
0
LINE
8
BLACK
6
CONTINUOUS
10
8.10925
20
-5.13563
11
8.10925
21
-5.18681
0
LINE
8
BLACK
6
CONTINUOUS
10
6.38169
20
-5.18563
11
6.34429
21
-5.18563
0
LINE
8
BLACK
6
CONTINUOUS
10
6.34429
20
-5.18563
11
6.34429
21
-5.13445
0
LINE
8
BLACK
6
CONTINUOUS
10
6.34429
20
-5.13445
11
6.38169
21
-5.13445
0
LINE
8
BLACK
6
CONTINUOUS
10
6.38169
20
-5.13445
11
6.38169
21
-5.18563
0
LINE
8
BLACK
6
CONTINUOUS
10
4.12146
20
-5.18366
11
4.08406
21
-5.18366
0
LINE
8
BLACK
6
CONTINUOUS
10
4.08406
20
-5.18366
11
4.08406
21
-5.13248
0
LINE
8
BLACK
6
CONTINUOUS
10
4.08406
20
-5.13248
11
4.12146
21
-5.13248
0
LINE
8
BLACK
6
CONTINUOUS
10
4.12146
20
-5.13248
11
4.12146
21
-5.18366
0
LINE
8
BLACK
6
CONTINUOUS
10
5.62224
20
-5.18366
11
5.58484
21
-5.18366
0
LINE
8
BLACK
6
CONTINUOUS
10
5.58484
20
-5.18366
11
5.58484
21
-5.13248
0
LINE
8
BLACK
6
CONTINUOUS
10
5.58484
20
-5.13248
11
5.62224
21
-5.13248
0
LINE
8
BLACK
6
CONTINUOUS
10
5.62224
20
-5.13248
11
5.62224
21
-5.18366
0
LINE
8
BLACK
6
CONTINUOUS
10
4.87343
20
-5.18327
11
4.83602
21
-5.18327
0
LINE
8
BLACK
6
CONTINUOUS
10
4.83602
20
-5.18327
11
4.83602
21
-5.13209
0
LINE
8
BLACK
6
CONTINUOUS
10
4.83602
20
-5.13209
11
4.87343
21
-5.13209
0
LINE
8
BLACK
6
CONTINUOUS
10
4.87343
20
-5.13209
11
4.87343
21
-5.18327
0
LINE
8
BLACK
6
CONTINUOUS
10
9.60098
20
-5.12933
11
9.56358
21
-5.12933
0
LINE
8
BLACK
6
CONTINUOUS
10
9.56358
20
-5.12933
11
9.56358
21
-5.07815
0
LINE
8
BLACK
6
CONTINUOUS
10
9.56358
20
-5.07815
11
9.60098
21
-5.07815
0
LINE
8
BLACK
6
CONTINUOUS
10
9.60098
20
-5.07815
11
9.60098
21
-5.12933
0
LINE
8
BLACK
6
CONTINUOUS
10
3.37185
20
-5.04941
11
3.33445
21
-5.04941
0
LINE
8
BLACK
6
CONTINUOUS
10
3.33445
20
-5.04941
11
3.33445
21
-4.99823
0
LINE
8
BLACK
6
CONTINUOUS
10
3.33445
20
-4.99823
11
3.37185
21
-4.99823
0
LINE
8
BLACK
6
CONTINUOUS
10
3.37185
20
-4.99823
11
3.37185
21
-5.04941
0
LINE
8
BLACK
6
CONTINUOUS
10
2.62343
20
-5.04862
11
2.58602
21
-5.04862
0
LINE
8
BLACK
6
CONTINUOUS
10
2.58602
20
-5.04862
11
2.58602
21
-4.99744
0
LINE
8
BLACK
6
CONTINUOUS
10
2.58602
20
-4.99744
11
2.62343
21
-4.99744
0
LINE
8
BLACK
6
CONTINUOUS
10
2.62343
20
-4.99744
11
2.62343
21
-5.04862
0
LINE
8
BLACK
6
CONTINUOUS
10
1.87343
20
-5.04823
11
1.83602
21
-5.04823
0
LINE
8
BLACK
6
CONTINUOUS
10
1.83602
20
-5.04823
11
1.83602
21
-4.99705
0
LINE
8
BLACK
6
CONTINUOUS
10
1.83602
20
-4.99705
11
1.87343
21
-4.99705
0
LINE
8
BLACK
6
CONTINUOUS
10
1.87343
20
-4.99705
11
1.87343
21
-5.04823
0
LINE
8
BLACK
6
CONTINUOUS
10
7.12539
20
-5.04744
11
7.08799
21
-5.04744
0
LINE
8
BLACK
6
CONTINUOUS
10
7.08799
20
-5.04744
11
7.08799
21
-4.99626
0
LINE
8
BLACK
6
CONTINUOUS
10
7.08799
20
-4.99626
11
7.12539
21
-4.99626
0
LINE
8
BLACK
6
CONTINUOUS
10
7.12539
20
-4.99626
11
7.12539
21
-5.04744
0
LINE
8
BLACK
6
CONTINUOUS
10
8.10925
20
-5.04705
11
8.07185
21
-5.04705
0
LINE
8
BLACK
6
CONTINUOUS
10
8.07185
20
-5.04705
11
8.07185
21
-4.99587
0
LINE
8
BLACK
6
CONTINUOUS
10
8.07185
20
-4.99587
11
8.10925
21
-4.99587
0
LINE
8
BLACK
6
CONTINUOUS
10
8.10925
20
-4.99587
11
8.10925
21
-5.04705
0
LINE
8
BLACK
6
CONTINUOUS
10
6.38169
20
-5.04587
11
6.34429
21
-5.04587
0
LINE
8
BLACK
6
CONTINUOUS
10
6.34429
20
-5.04587
11
6.34429
21
-4.99469
0
LINE
8
BLACK
6
CONTINUOUS
10
6.34429
20
-4.99469
11
6.38169
21
-4.99469
0
LINE
8
BLACK
6
CONTINUOUS
10
6.38169
20
-4.99469
11
6.38169
21
-5.04587
0
LINE
8
BLACK
6
CONTINUOUS
10
5.62224
20
-5.0439
11
5.58484
21
-5.0439
0
LINE
8
BLACK
6
CONTINUOUS
10
5.58484
20
-5.0439
11
5.58484
21
-4.99272
0
LINE
8
BLACK
6
CONTINUOUS
10
5.58484
20
-4.99272
11
5.62224
21
-4.99272
0
LINE
8
BLACK
6
CONTINUOUS
10
5.62224
20
-4.99272
11
5.62224
21
-5.0439
0
LINE
8
BLACK
6
CONTINUOUS
10
4.12146
20
-5.0439
11
4.08406
21
-5.0439
0
LINE
8
BLACK
6
CONTINUOUS
10
4.08406
20
-5.0439
11
4.08406
21
-4.99272
0
LINE
8
BLACK
6
CONTINUOUS
10
4.08406
20
-4.99272
11
4.12146
21
-4.99272
0
LINE
8
BLACK
6
CONTINUOUS
10
4.12146
20
-4.99272
11
4.12146
21
-5.0439
0
LINE
8
BLACK
6
CONTINUOUS
10
4.87343
20
-5.0435
11
4.83602
21
-5.0435
0
LINE
8
BLACK
6
CONTINUOUS
10
4.83602
20
-5.0435
11
4.83602
21
-4.99232
0
LINE
8
BLACK
6
CONTINUOUS
10
4.83602
20
-4.99232
11
4.87343
21
-4.99232
0
LINE
8
BLACK
6
CONTINUOUS
10
4.87343
20
-4.99232
11
4.87343
21
-5.0435
0
LINE
8
BLACK
6
CONTINUOUS
10
9.60138
20
-4.79311
11
9.56398
21
-4.79311
0
LINE
8
BLACK
6
CONTINUOUS
10
9.56398
20
-4.79311
11
9.56398
21
-4.74193
0
LINE
8
BLACK
6
CONTINUOUS
10
9.56398
20
-4.74193
11
9.60138
21
-4.74193
0
LINE
8
BLACK
6
CONTINUOUS
10
9.60138
20
-4.74193
11
9.60138
21
-4.79311
0
LINE
8
BLACK
6
CONTINUOUS
10
9.60138
20
-4.65335
11
9.56398
21
-4.65335
0
LINE
8
BLACK
6
CONTINUOUS
10
9.56398
20
-4.65335
11
9.56398
21
-4.60217
0
LINE
8
BLACK
6
CONTINUOUS
10
9.56398
20
-4.60217
11
9.60138
21
-4.60217
0
LINE
8
BLACK
6
CONTINUOUS
10
9.60138
20
-4.60217
11
9.60138
21
-4.65335
0
LINE
8
BLACK
6
CONTINUOUS
10
2.62657
20
-4.46791
11
2.58917
21
-4.46791
0
LINE
8
BLACK
6
CONTINUOUS
10
2.58917
20
-4.46791
11
2.58917
21
-4.41673
0
LINE
8
BLACK
6
CONTINUOUS
10
2.58917
20
-4.41673
11
2.62657
21
-4.41673
0
LINE
8
BLACK
6
CONTINUOUS
10
2.62657
20
-4.41673
11
2.62657
21
-4.46791
0
LINE
8
BLACK
6
CONTINUOUS
10
4.87303
20
-4.46713
11
4.83563
21
-4.46713
0
LINE
8
BLACK
6
CONTINUOUS
10
4.83563
20
-4.46713
11
4.83563
21
-4.41594
0
LINE
8
BLACK
6
CONTINUOUS
10
4.83563
20
-4.41594
11
4.87303
21
-4.41594
0
LINE
8
BLACK
6
CONTINUOUS
10
4.87303
20
-4.41594
11
4.87303
21
-4.46713
0
LINE
8
BLACK
6
CONTINUOUS
10
3.37421
20
-4.46594
11
3.33681
21
-4.46594
0
LINE
8
BLACK
6
CONTINUOUS
10
3.33681
20
-4.46594
11
3.33681
21
-4.41476
0
LINE
8
BLACK
6
CONTINUOUS
10
3.33681
20
-4.41476
11
3.37421
21
-4.41476
0
LINE
8
BLACK
6
CONTINUOUS
10
3.37421
20
-4.41476
11
3.37421
21
-4.46594
0
LINE
8
BLACK
6
CONTINUOUS
10
4.12106
20
-4.46594
11
4.08366
21
-4.46594
0
LINE
8
BLACK
6
CONTINUOUS
10
4.08366
20
-4.46594
11
4.08366
21
-4.41476
0
LINE
8
BLACK
6
CONTINUOUS
10
4.08366
20
-4.41476
11
4.12106
21
-4.41476
0
LINE
8
BLACK
6
CONTINUOUS
10
4.12106
20
-4.41476
11
4.12106
21
-4.46594
0
LINE
8
BLACK
6
CONTINUOUS
10
5.62657
20
-4.46555
11
5.58917
21
-4.46555
0
LINE
8
BLACK
6
CONTINUOUS
10
5.58917
20
-4.46555
11
5.58917
21
-4.41437
0
LINE
8
BLACK
6
CONTINUOUS
10
5.58917
20
-4.41437
11
5.62657
21
-4.41437
0
LINE
8
BLACK
6
CONTINUOUS
10
5.62657
20
-4.41437
11
5.62657
21
-4.46555
0
LINE
8
BLACK
6
CONTINUOUS
10
1.87382
20
-4.45177
11
1.83642
21
-4.45177
0
LINE
8
BLACK
6
CONTINUOUS
10
1.83642
20
-4.45177
11
1.83642
21
-4.40059
0
LINE
8
BLACK
6
CONTINUOUS
10
1.83642
20
-4.40059
11
1.87382
21
-4.40059
0
LINE
8
BLACK
6
CONTINUOUS
10
1.87382
20
-4.40059
11
1.87382
21
-4.45177
0
LINE
8
BLACK
6
CONTINUOUS
10
7.12539
20
-4.4435
11
7.08799
21
-4.4435
0
LINE
8
BLACK
6
CONTINUOUS
10
7.08799
20
-4.4435
11
7.08799
21
-4.39232
0
LINE
8
BLACK
6
CONTINUOUS
10
7.08799
20
-4.39232
11
7.12539
21
-4.39232
0
LINE
8
BLACK
6
CONTINUOUS
10
7.12539
20
-4.39232
11
7.12539
21
-4.4435
0
LINE
8
BLACK
6
CONTINUOUS
10
7.87382
20
-4.44272
11
7.83642
21
-4.44272
0
LINE
8
BLACK
6
CONTINUOUS
10
7.83642
20
-4.44272
11
7.83642
21
-4.39154
0
LINE
8
BLACK
6
CONTINUOUS
10
7.83642
20
-4.39154
11
7.87382
21
-4.39154
0
LINE
8
BLACK
6
CONTINUOUS
10
7.87382
20
-4.39154
11
7.87382
21
-4.44272
0
LINE
8
BLACK
6
CONTINUOUS
10
6.37618
20
-4.43957
11
6.33878
21
-4.43957
0
LINE
8
BLACK
6
CONTINUOUS
10
6.33878
20
-4.43957
11
6.33878
21
-4.38839
0
LINE
8
BLACK
6
CONTINUOUS
10
6.33878
20
-4.38839
11
6.37618
21
-4.38839
0
LINE
8
BLACK
6
CONTINUOUS
10
6.37618
20
-4.38839
11
6.37618
21
-4.43957
0
LINE
8
BLACK
6
CONTINUOUS
10
9.36949
20
-4.43799
11
9.33209
21
-4.43799
0
LINE
8
BLACK
6
CONTINUOUS
10
9.33209
20
-4.43799
11
9.33209
21
-4.38681
0
LINE
8
BLACK
6
CONTINUOUS
10
9.33209
20
-4.38681
11
9.36949
21
-4.38681
0
LINE
8
BLACK
6
CONTINUOUS
10
9.36949
20
-4.38681
11
9.36949
21
-4.43799
0
LINE
8
BLACK
6
CONTINUOUS
10
8.62461
20
-4.4372
11
8.5872
21
-4.4372
0
LINE
8
BLACK
6
CONTINUOUS
10
8.5872
20
-4.4372
11
8.5872
21
-4.38602
0
LINE
8
BLACK
6
CONTINUOUS
10
8.5872
20
-4.38602
11
8.62461
21
-4.38602
0
LINE
8
BLACK
6
CONTINUOUS
10
8.62461
20
-4.38602
11
8.62461
21
-4.4372
0
LINE
8
BLACK
6
CONTINUOUS
10
2.62657
20
-4.32815
11
2.58917
21
-4.32815
0
LINE
8
BLACK
6
CONTINUOUS
10
2.58917
20
-4.32815
11
2.58917
21
-4.27697
0
LINE
8
BLACK
6
CONTINUOUS
10
2.58917
20
-4.27697
11
2.62657
21
-4.27697
0
LINE
8
BLACK
6
CONTINUOUS
10
2.62657
20
-4.27697
11
2.62657
21
-4.32815
0
LINE
8
BLACK
6
CONTINUOUS
10
4.87303
20
-4.32736
11
4.83563
21
-4.32736
0
LINE
8
BLACK
6
CONTINUOUS
10
4.83563
20
-4.32736
11
4.83563
21
-4.27618
0
LINE
8
BLACK
6
CONTINUOUS
10
4.83563
20
-4.27618
11
4.87303
21
-4.27618
0
LINE
8
BLACK
6
CONTINUOUS
10
4.87303
20
-4.27618
11
4.87303
21
-4.32736
0
LINE
8
BLACK
6
CONTINUOUS
10
4.12106
20
-4.32618
11
4.08366
21
-4.32618
0
LINE
8
BLACK
6
CONTINUOUS
10
4.08366
20
-4.32618
11
4.08366
21
-4.275
0
LINE
8
BLACK
6
CONTINUOUS
10
4.08366
20
-4.275
11
4.12106
21
-4.275
0
LINE
8
BLACK
6
CONTINUOUS
10
4.12106
20
-4.275
11
4.12106
21
-4.32618
0
LINE
8
BLACK
6
CONTINUOUS
10
3.37421
20
-4.32618
11
3.33681
21
-4.32618
0
LINE
8
BLACK
6
CONTINUOUS
10
3.33681
20
-4.32618
11
3.33681
21
-4.275
0
LINE
8
BLACK
6
CONTINUOUS
10
3.33681
20
-4.275
11
3.37421
21
-4.275
0
LINE
8
BLACK
6
CONTINUOUS
10
3.37421
20
-4.275
11
3.37421
21
-4.32618
0
LINE
8
BLACK
6
CONTINUOUS
10
5.62657
20
-4.32579
11
5.58917
21
-4.32579
0
LINE
8
BLACK
6
CONTINUOUS
10
5.58917
20
-4.32579
11
5.58917
21
-4.27461
0
LINE
8
BLACK
6
CONTINUOUS
10
5.58917
20
-4.27461
11
5.62657
21
-4.27461
0
LINE
8
BLACK
6
CONTINUOUS
10
5.62657
20
-4.27461
11
5.62657
21
-4.32579
0
LINE
8
BLACK
6
CONTINUOUS
10
1.87382
20
-4.31201
11
1.83642
21
-4.31201
0
LINE
8
BLACK
6
CONTINUOUS
10
1.83642
20
-4.31201
11
1.83642
21
-4.26083
0
LINE
8
BLACK
6
CONTINUOUS
10
1.83642
20
-4.26083
11
1.87382
21
-4.26083
0
LINE
8
BLACK
6
CONTINUOUS
10
1.87382
20
-4.26083
11
1.87382
21
-4.31201
0
LINE
8
BLACK
6
CONTINUOUS
10
7.12539
20
-4.30374
11
7.08799
21
-4.30374
0
LINE
8
BLACK
6
CONTINUOUS
10
7.08799
20
-4.30374
11
7.08799
21
-4.25256
0
LINE
8
BLACK
6
CONTINUOUS
10
7.08799
20
-4.25256
11
7.12539
21
-4.25256
0
LINE
8
BLACK
6
CONTINUOUS
10
7.12539
20
-4.25256
11
7.12539
21
-4.30374
0
LINE
8
BLACK
6
CONTINUOUS
10
7.87382
20
-4.30295
11
7.83642
21
-4.30295
0
LINE
8
BLACK
6
CONTINUOUS
10
7.83642
20
-4.30295
11
7.83642
21
-4.25177
0
LINE
8
BLACK
6
CONTINUOUS
10
7.83642
20
-4.25177
11
7.87382
21
-4.25177
0
LINE
8
BLACK
6
CONTINUOUS
10
7.87382
20
-4.25177
11
7.87382
21
-4.30295
0
LINE
8
BLACK
6
CONTINUOUS
10
6.37618
20
-4.2998
11
6.33878
21
-4.2998
0
LINE
8
BLACK
6
CONTINUOUS
10
6.33878
20
-4.2998
11
6.33878
21
-4.24862
0
LINE
8
BLACK
6
CONTINUOUS
10
6.33878
20
-4.24862
11
6.37618
21
-4.24862
0
LINE
8
BLACK
6
CONTINUOUS
10
6.37618
20
-4.24862
11
6.37618
21
-4.2998
0
LINE
8
BLACK
6
CONTINUOUS
10
9.36949
20
-4.29823
11
9.33209
21
-4.29823
0
LINE
8
BLACK
6
CONTINUOUS
10
9.33209
20
-4.29823
11
9.33209
21
-4.24705
0
LINE
8
BLACK
6
CONTINUOUS
10
9.33209
20
-4.24705
11
9.36949
21
-4.24705
0
LINE
8
BLACK
6
CONTINUOUS
10
9.36949
20
-4.24705
11
9.36949
21
-4.29823
0
LINE
8
BLACK
6
CONTINUOUS
10
8.62461
20
-4.29744
11
8.5872
21
-4.29744
0
LINE
8
BLACK
6
CONTINUOUS
10
8.5872
20
-4.29744
11
8.5872
21
-4.24626
0
LINE
8
BLACK
6
CONTINUOUS
10
8.5872
20
-4.24626
11
8.62461
21
-4.24626
0
LINE
8
BLACK
6
CONTINUOUS
10
8.62461
20
-4.24626
11
8.62461
21
-4.29744
0
LINE
8
BLACK
6
CONTINUOUS
10
7.12539
20
-3.76043
11
7.08799
21
-3.76043
0
LINE
8
BLACK
6
CONTINUOUS
10
7.08799
20
-3.76043
11
7.08799
21
-3.70925
0
LINE
8
BLACK
6
CONTINUOUS
10
7.08799
20
-3.70925
11
7.12539
21
-3.70925
0
LINE
8
BLACK
6
CONTINUOUS
10
7.12539
20
-3.70925
11
7.12539
21
-3.76043
0
LINE
8
BLACK
6
CONTINUOUS
10
7.87382
20
-3.76043
11
7.83642
21
-3.76043
0
LINE
8
BLACK
6
CONTINUOUS
10
7.83642
20
-3.76043
11
7.83642
21
-3.70925
0
LINE
8
BLACK
6
CONTINUOUS
10
7.83642
20
-3.70925
11
7.87382
21
-3.70925
0
LINE
8
BLACK
6
CONTINUOUS
10
7.87382
20
-3.70925
11
7.87382
21
-3.76043
0
LINE
8
BLACK
6
CONTINUOUS
10
8.62461
20
-3.76043
11
8.5872
21
-3.76043
0
LINE
8
BLACK
6
CONTINUOUS
10
8.5872
20
-3.76043
11
8.5872
21
-3.70925
0
LINE
8
BLACK
6
CONTINUOUS
10
8.5872
20
-3.70925
11
8.62461
21
-3.70925
0
LINE
8
BLACK
6
CONTINUOUS
10
8.62461
20
-3.70925
11
8.62461
21
-3.76043
0
LINE
8
BLACK
6
CONTINUOUS
10
6.37539
20
-3.76004
11
6.33799
21
-3.76004
0
LINE
8
BLACK
6
CONTINUOUS
10
6.33799
20
-3.76004
11
6.33799
21
-3.70886
0
LINE
8
BLACK
6
CONTINUOUS
10
6.33799
20
-3.70886
11
6.37539
21
-3.70886
0
LINE
8
BLACK
6
CONTINUOUS
10
6.37539
20
-3.70886
11
6.37539
21
-3.76004
0
LINE
8
BLACK
6
CONTINUOUS
10
9.37461
20
-3.75925
11
9.3372
21
-3.75925
0
LINE
8
BLACK
6
CONTINUOUS
10
9.3372
20
-3.75925
11
9.3372
21
-3.70807
0
LINE
8
BLACK
6
CONTINUOUS
10
9.3372
20
-3.70807
11
9.37461
21
-3.70807
0
LINE
8
BLACK
6
CONTINUOUS
10
9.37461
20
-3.70807
11
9.37461
21
-3.75925
0
LINE
8
BLACK
6
CONTINUOUS
10
10.3108
20
-3.75728
11
10.2734
21
-3.75728
0
LINE
8
BLACK
6
CONTINUOUS
10
10.2734
20
-3.75728
11
10.2734
21
-3.7061
0
LINE
8
BLACK
6
CONTINUOUS
10
10.2734
20
-3.7061
11
10.3108
21
-3.7061
0
LINE
8
BLACK
6
CONTINUOUS
10
10.3108
20
-3.7061
11
10.3108
21
-3.75728
0
LINE
8
BLACK
6
CONTINUOUS
10
1.87461
20
-3.75689
11
1.8372
21
-3.75689
0
LINE
8
BLACK
6
CONTINUOUS
10
1.8372
20
-3.75689
11
1.8372
21
-3.70571
0
LINE
8
BLACK
6
CONTINUOUS
10
1.8372
20
-3.70571
11
1.87461
21
-3.70571
0
LINE
8
BLACK
6
CONTINUOUS
10
1.87461
20
-3.70571
11
1.87461
21
-3.75689
0
LINE
8
BLACK
6
CONTINUOUS
10
5.62303
20
-3.75492
11
5.58563
21
-3.75492
0
LINE
8
BLACK
6
CONTINUOUS
10
5.58563
20
-3.75492
11
5.58563
21
-3.70374
0
LINE
8
BLACK
6
CONTINUOUS
10
5.58563
20
-3.70374
11
5.62303
21
-3.70374
0
LINE
8
BLACK
6
CONTINUOUS
10
5.62303
20
-3.70374
11
5.62303
21
-3.75492
0
LINE
8
BLACK
6
CONTINUOUS
10
2.62303
20
-3.75492
11
2.58563
21
-3.75492
0
LINE
8
BLACK
6
CONTINUOUS
10
2.58563
20
-3.75492
11
2.58563
21
-3.70374
0
LINE
8
BLACK
6
CONTINUOUS
10
2.58563
20
-3.70374
11
2.62303
21
-3.70374
0
LINE
8
BLACK
6
CONTINUOUS
10
2.62303
20
-3.70374
11
2.62303
21
-3.75492
0
LINE
8
BLACK
6
CONTINUOUS
10
3.37224
20
-3.75492
11
3.33484
21
-3.75492
0
LINE
8
BLACK
6
CONTINUOUS
10
3.33484
20
-3.75492
11
3.33484
21
-3.70374
0
LINE
8
BLACK
6
CONTINUOUS
10
3.33484
20
-3.70374
11
3.37224
21
-3.70374
0
LINE
8
BLACK
6
CONTINUOUS
10
3.37224
20
-3.70374
11
3.37224
21
-3.75492
0
LINE
8
BLACK
6
CONTINUOUS
10
4.87224
20
-3.75453
11
4.83484
21
-3.75453
0
LINE
8
BLACK
6
CONTINUOUS
10
4.83484
20
-3.75453
11
4.83484
21
-3.70335
0
LINE
8
BLACK
6
CONTINUOUS
10
4.83484
20
-3.70335
11
4.87224
21
-3.70335
0
LINE
8
BLACK
6
CONTINUOUS
10
4.87224
20
-3.70335
11
4.87224
21
-3.75453
0
LINE
8
BLACK
6
CONTINUOUS
10
4.12382
20
-3.75453
11
4.08642
21
-3.75453
0
LINE
8
BLACK
6
CONTINUOUS
10
4.08642
20
-3.75453
11
4.08642
21
-3.70335
0
LINE
8
BLACK
6
CONTINUOUS
10
4.08642
20
-3.70335
11
4.12382
21
-3.70335
0
LINE
8
BLACK
6
CONTINUOUS
10
4.12382
20
-3.70335
11
4.12382
21
-3.75453
0
LINE
8
BLACK
6
CONTINUOUS
10
8.62461
20
-3.62067
11
8.5872
21
-3.62067
0
LINE
8
BLACK
6
CONTINUOUS
10
8.5872
20
-3.62067
11
8.5872
21
-3.56949
0
LINE
8
BLACK
6
CONTINUOUS
10
8.5872
20
-3.56949
11
8.62461
21
-3.56949
0
LINE
8
BLACK
6
CONTINUOUS
10
8.62461
20
-3.56949
11
8.62461
21
-3.62067
0
LINE
8
BLACK
6
CONTINUOUS
10
7.87382
20
-3.62067
11
7.83642
21
-3.62067
0
LINE
8
BLACK
6
CONTINUOUS
10
7.83642
20
-3.62067
11
7.83642
21
-3.56949
0
LINE
8
BLACK
6
CONTINUOUS
10
7.83642
20
-3.56949
11
7.87382
21
-3.56949
0
LINE
8
BLACK
6
CONTINUOUS
10
7.87382
20
-3.56949
11
7.87382
21
-3.62067
0
LINE
8
BLACK
6
CONTINUOUS
10
7.12539
20
-3.62067
11
7.08799
21
-3.62067
0
LINE
8
BLACK
6
CONTINUOUS
10
7.08799
20
-3.62067
11
7.08799
21
-3.56949
0
LINE
8
BLACK
6
CONTINUOUS
10
7.08799
20
-3.56949
11
7.12539
21
-3.56949
0
LINE
8
BLACK
6
CONTINUOUS
10
7.12539
20
-3.56949
11
7.12539
21
-3.62067
0
LINE
8
BLACK
6
CONTINUOUS
10
6.37539
20
-3.62028
11
6.33799
21
-3.62028
0
LINE
8
BLACK
6
CONTINUOUS
10
6.33799
20
-3.62028
11
6.33799
21
-3.56909
0
LINE
8
BLACK
6
CONTINUOUS
10
6.33799
20
-3.56909
11
6.37539
21
-3.56909
0
LINE
8
BLACK
6
CONTINUOUS
10
6.37539
20
-3.56909
11
6.37539
21
-3.62028
0
LINE
8
BLACK
6
CONTINUOUS
10
9.37461
20
-3.61949
11
9.3372
21
-3.61949
0
LINE
8
BLACK
6
CONTINUOUS
10
9.3372
20
-3.61949
11
9.3372
21
-3.56831
0
LINE
8
BLACK
6
CONTINUOUS
10
9.3372
20
-3.56831
11
9.37461
21
-3.56831
0
LINE
8
BLACK
6
CONTINUOUS
10
9.37461
20
-3.56831
11
9.37461
21
-3.61949
0
LINE
8
BLACK
6
CONTINUOUS
10
10.3108
20
-3.61752
11
10.2734
21
-3.61752
0
LINE
8
BLACK
6
CONTINUOUS
10
10.2734
20
-3.61752
11
10.2734
21
-3.56634
0
LINE
8
BLACK
6
CONTINUOUS
10
10.2734
20
-3.56634
11
10.3108
21
-3.56634
0
LINE
8
BLACK
6
CONTINUOUS
10
10.3108
20
-3.56634
11
10.3108
21
-3.61752
0
LINE
8
BLACK
6
CONTINUOUS
10
1.87461
20
-3.61713
11
1.8372
21
-3.61713
0
LINE
8
BLACK
6
CONTINUOUS
10
1.8372
20
-3.61713
11
1.8372
21
-3.56594
0
LINE
8
BLACK
6
CONTINUOUS
10
1.8372
20
-3.56594
11
1.87461
21
-3.56594
0
LINE
8
BLACK
6
CONTINUOUS
10
1.87461
20
-3.56594
11
1.87461
21
-3.61713
0
LINE
8
BLACK
6
CONTINUOUS
10
3.37224
20
-3.61516
11
3.33484
21
-3.61516
0
LINE
8
BLACK
6
CONTINUOUS
10
3.33484
20
-3.61516
11
3.33484
21
-3.56398
0
LINE
8
BLACK
6
CONTINUOUS
10
3.33484
20
-3.56398
11
3.37224
21
-3.56398
0
LINE
8
BLACK
6
CONTINUOUS
10
3.37224
20
-3.56398
11
3.37224
21
-3.61516
0
LINE
8
BLACK
6
CONTINUOUS
10
2.62303
20
-3.61516
11
2.58563
21
-3.61516
0
LINE
8
BLACK
6
CONTINUOUS
10
2.58563
20
-3.61516
11
2.58563
21
-3.56398
0
LINE
8
BLACK
6
CONTINUOUS
10
2.58563
20
-3.56398
11
2.62303
21
-3.56398
0
LINE
8
BLACK
6
CONTINUOUS
10
2.62303
20
-3.56398
11
2.62303
21
-3.61516
0
LINE
8
BLACK
6
CONTINUOUS
10
5.62303
20
-3.61516
11
5.58563
21
-3.61516
0
LINE
8
BLACK
6
CONTINUOUS
10
5.58563
20
-3.61516
11
5.58563
21
-3.56398
0
LINE
8
BLACK
6
CONTINUOUS
10
5.58563
20
-3.56398
11
5.62303
21
-3.56398
0
LINE
8
BLACK
6
CONTINUOUS
10
5.62303
20
-3.56398
11
5.62303
21
-3.61516
0
LINE
8
BLACK
6
CONTINUOUS
10
4.12382
20
-3.61476
11
4.08642
21
-3.61476
0
LINE
8
BLACK
6
CONTINUOUS
10
4.08642
20
-3.61476
11
4.08642
21
-3.56358
0
LINE
8
BLACK
6
CONTINUOUS
10
4.08642
20
-3.56358
11
4.12382
21
-3.56358
0
LINE
8
BLACK
6
CONTINUOUS
10
4.12382
20
-3.56358
11
4.12382
21
-3.61476
0
LINE
8
BLACK
6
CONTINUOUS
10
4.87224
20
-3.61476
11
4.83484
21
-3.61476
0
LINE
8
BLACK
6
CONTINUOUS
10
4.83484
20
-3.61476
11
4.83484
21
-3.56358
0
LINE
8
BLACK
6
CONTINUOUS
10
4.83484
20
-3.56358
11
4.87224
21
-3.56358
0
LINE
8
BLACK
6
CONTINUOUS
10
4.87224
20
-3.56358
11
4.87224
21
-3.61476
  0
ENDSEC
  0
EOF
