  0
SECTION
  2
HEADER
  9
$ANGBASE
  50
0.0
  9
$ANGDIR
  70
1
  9
$MEASUREMENT
  70
0
  0
ENDSEC
  0
SECTION
  2
TABLES
  0
TABLE
  2
LTYPE
  70
4
  0
LTYPE
  5
40F
  2
CONTINUOUS
  70
0
  3
Solid line
  72
65
  73
0
  40
0.0
  0
LTYPE
  5
410
  2
DASHDOT
 70
0
  3
Dash Dot ____ _ ____ _
 72
65
 73
4
 40
2.0
 49
1.25
 49
-0.25
 49
0.25
 49
-0.25
  0
LTYPE
  5
411
  2
DASHED
 70
0
  3
Dashed __ __ __ __ __
 72
65
 73
2
 40
0.75
 49
0.5
 49
-0.25
  0
LTYPE
  5
43B
  2
DOTTED
 70
0
  3
Dotted .  .  .  .
 72
65
 73
2
 40
0.2
 49
0.0
 49
-0.2
  0
ENDTAB
  0
TABLE
  2
STYLE
  70
4
  0
STYLE
  2
KICAD
  70
0
  40
0
  41
1
  42
1
  50
0
  71
0
  3
isocp.shx
  0
STYLE
  2
KICADB
  70
0
  40
0
  41
1
  42
1
  50
0
  71
0
  3
isocp.shx
  0
STYLE
  2
KICADI
  70
0
  40
0
  41
1
  42
1
  50
15
  71
0
  3
isocp.shx
  0
STYLE
  2
KICADBI
  70
0
  40
0
  41
1
  42
1
  50
15
  71
0
  3
isocp.shx
  0
ENDTAB
  0
TABLE
  2
LAYER
  70
1
  0
LAYER
  2
BLACK
  70
0
  62
7
  6
CONTINUOUS
  0
ENDTAB
  0
ENDSEC
  0
SECTION
  2
ENTITIES
0
LINE
8
BLACK
6
CONTINUOUS
10
1.20357
20
-5.51919
11
1.20351
21
-5.51918
0
LINE
8
BLACK
6
CONTINUOUS
10
1.20351
20
-5.51918
11
1.20351
21
-5.51918
0
LINE
8
BLACK
6
CONTINUOUS
10
1.20351
20
-5.51918
11
1.2035
21
-5.51918
0
LINE
8
BLACK
6
CONTINUOUS
10
1.2035
20
-5.51918
11
1.20342
21
-5.51917
0
LINE
8
BLACK
6
CONTINUOUS
10
1.20342
20
-5.51917
11
1.20342
21
-5.51917
0
LINE
8
BLACK
6
CONTINUOUS
10
1.20342
20
-5.51917
11
1.1841
21
-5.5172
0
LINE
8
BLACK
6
CONTINUOUS
10
1.1841
20
-5.5172
11
1.18409
21
-5.51719
0
LINE
8
BLACK
6
CONTINUOUS
10
1.18409
20
-5.51719
11
1.184
21
-5.51718
0
LINE
8
BLACK
6
CONTINUOUS
10
1.184
20
-5.51718
11
1.18391
21
-5.51716
0
LINE
8
BLACK
6
CONTINUOUS
10
1.18391
20
-5.51716
11
1.16525
21
-5.51144
0
LINE
8
BLACK
6
CONTINUOUS
10
1.16525
20
-5.51144
11
1.16524
21
-5.51143
0
LINE
8
BLACK
6
CONTINUOUS
10
1.16524
20
-5.51143
11
1.16515
21
-5.5114
0
LINE
8
BLACK
6
CONTINUOUS
10
1.16515
20
-5.5114
11
1.16507
21
-5.51136
0
LINE
8
BLACK
6
CONTINUOUS
10
1.16507
20
-5.51136
11
1.14788
21
-5.50213
0
LINE
8
BLACK
6
CONTINUOUS
10
1.14788
20
-5.50213
11
1.14787
21
-5.50212
0
LINE
8
BLACK
6
CONTINUOUS
10
1.14787
20
-5.50212
11
1.14779
21
-5.50207
0
LINE
8
BLACK
6
CONTINUOUS
10
1.14779
20
-5.50207
11
1.14772
21
-5.50202
0
LINE
8
BLACK
6
CONTINUOUS
10
1.14772
20
-5.50202
11
1.13265
21
-5.48962
0
LINE
8
BLACK
6
CONTINUOUS
10
1.13265
20
-5.48962
11
1.13265
21
-5.48962
0
LINE
8
BLACK
6
CONTINUOUS
10
1.13265
20
-5.48962
11
1.13265
21
-5.48962
0
LINE
8
BLACK
6
CONTINUOUS
10
1.13265
20
-5.48962
11
1.13264
21
-5.48961
0
LINE
8
BLACK
6
CONTINUOUS
10
1.13264
20
-5.48961
11
1.13258
21
-5.48955
0
LINE
8
BLACK
6
CONTINUOUS
10
1.13258
20
-5.48955
11
1.13251
21
-5.48949
0
LINE
8
BLACK
6
CONTINUOUS
10
1.13251
20
-5.48949
11
1.12014
21
-5.4744
0
LINE
8
BLACK
6
CONTINUOUS
10
1.12014
20
-5.4744
11
1.12013
21
-5.47439
0
LINE
8
BLACK
6
CONTINUOUS
10
1.12013
20
-5.47439
11
1.12008
21
-5.47431
0
LINE
8
BLACK
6
CONTINUOUS
10
1.12008
20
-5.47431
11
1.12003
21
-5.47424
0
LINE
8
BLACK
6
CONTINUOUS
10
1.12003
20
-5.47424
11
1.11082
21
-5.45703
0
LINE
8
BLACK
6
CONTINUOUS
10
1.11082
20
-5.45703
11
1.11082
21
-5.45703
0
LINE
8
BLACK
6
CONTINUOUS
10
1.11082
20
-5.45703
11
1.11082
21
-5.45703
0
LINE
8
BLACK
6
CONTINUOUS
10
1.11082
20
-5.45703
11
1.11081
21
-5.45702
0
LINE
8
BLACK
6
CONTINUOUS
10
1.11081
20
-5.45702
11
1.11078
21
-5.45693
0
LINE
8
BLACK
6
CONTINUOUS
10
1.11078
20
-5.45693
11
1.11075
21
-5.45685
0
LINE
8
BLACK
6
CONTINUOUS
10
1.11075
20
-5.45685
11
1.10505
21
-5.43818
0
LINE
8
BLACK
6
CONTINUOUS
10
1.10505
20
-5.43818
11
1.10505
21
-5.43817
0
LINE
8
BLACK
6
CONTINUOUS
10
1.10505
20
-5.43817
11
1.10503
21
-5.43808
0
LINE
8
BLACK
6
CONTINUOUS
10
1.10503
20
-5.43808
11
1.10502
21
-5.438
0
LINE
8
BLACK
6
CONTINUOUS
10
1.10502
20
-5.438
11
1.10306
21
-5.41858
0
LINE
8
BLACK
6
CONTINUOUS
10
1.10306
20
-5.41858
11
1.10306
21
-5.41856
0
LINE
8
BLACK
6
CONTINUOUS
10
1.10306
20
-5.41856
11
1.10306
21
-5.41852
0
LINE
8
BLACK
6
CONTINUOUS
10
1.10306
20
-5.41852
11
1.10305
21
-5.41848
0
LINE
8
BLACK
6
CONTINUOUS
10
1.10305
20
-5.41848
11
1.10305
21
-5.41825
0
LINE
8
BLACK
6
CONTINUOUS
10
1.10305
20
-5.41825
11
1.10305
21
-5.41825
0
LINE
8
BLACK
6
CONTINUOUS
10
1.10305
20
-5.41825
11
1.10315
21
-3.36816
0
LINE
8
BLACK
6
CONTINUOUS
10
1.10315
20
-3.36816
11
1.10316
21
-3.36811
0
LINE
8
BLACK
6
CONTINUOUS
10
1.10316
20
-3.36811
11
1.10316
21
-3.36811
0
LINE
8
BLACK
6
CONTINUOUS
10
1.10316
20
-3.36811
11
1.10505
21
-3.34878
0
LINE
8
BLACK
6
CONTINUOUS
10
1.10505
20
-3.34878
11
1.10505
21
-3.34877
0
LINE
8
BLACK
6
CONTINUOUS
10
1.10505
20
-3.34877
11
1.10507
21
-3.34868
0
LINE
8
BLACK
6
CONTINUOUS
10
1.10507
20
-3.34868
11
1.10509
21
-3.34859
0
LINE
8
BLACK
6
CONTINUOUS
10
1.10509
20
-3.34859
11
1.1107
21
-3.33
0
LINE
8
BLACK
6
CONTINUOUS
10
1.1107
20
-3.33
11
1.11071
21
-3.32999
0
LINE
8
BLACK
6
CONTINUOUS
10
1.11071
20
-3.32999
11
1.11074
21
-3.32991
0
LINE
8
BLACK
6
CONTINUOUS
10
1.11074
20
-3.32991
11
1.11078
21
-3.32983
0
LINE
8
BLACK
6
CONTINUOUS
10
1.11078
20
-3.32983
11
1.11989
21
-3.31268
0
LINE
8
BLACK
6
CONTINUOUS
10
1.11989
20
-3.31268
11
1.1199
21
-3.31267
0
LINE
8
BLACK
6
CONTINUOUS
10
1.1199
20
-3.31267
11
1.11995
21
-3.31259
0
LINE
8
BLACK
6
CONTINUOUS
10
1.11995
20
-3.31259
11
1.12
21
-3.31252
0
LINE
8
BLACK
6
CONTINUOUS
10
1.12
20
-3.31252
11
1.13227
21
-3.29747
0
LINE
8
BLACK
6
CONTINUOUS
10
1.13227
20
-3.29747
11
1.13228
21
-3.29746
0
LINE
8
BLACK
6
CONTINUOUS
10
1.13228
20
-3.29746
11
1.13235
21
-3.2974
0
LINE
8
BLACK
6
CONTINUOUS
10
1.13235
20
-3.2974
11
1.13241
21
-3.29734
0
LINE
8
BLACK
6
CONTINUOUS
10
1.13241
20
-3.29734
11
1.14737
21
-3.28496
0
LINE
8
BLACK
6
CONTINUOUS
10
1.14737
20
-3.28496
11
1.14737
21
-3.28496
0
LINE
8
BLACK
6
CONTINUOUS
10
1.14737
20
-3.28496
11
1.14737
21
-3.28496
0
LINE
8
BLACK
6
CONTINUOUS
10
1.14737
20
-3.28496
11
1.14738
21
-3.28495
0
LINE
8
BLACK
6
CONTINUOUS
10
1.14738
20
-3.28495
11
1.14746
21
-3.2849
0
LINE
8
BLACK
6
CONTINUOUS
10
1.14746
20
-3.2849
11
1.14753
21
-3.28485
0
LINE
8
BLACK
6
CONTINUOUS
10
1.14753
20
-3.28485
11
1.16461
21
-3.27561
0
LINE
8
BLACK
6
CONTINUOUS
10
1.16461
20
-3.27561
11
1.16462
21
-3.27561
0
LINE
8
BLACK
6
CONTINUOUS
10
1.16462
20
-3.27561
11
1.16471
21
-3.27557
0
LINE
8
BLACK
6
CONTINUOUS
10
1.16471
20
-3.27557
11
1.16479
21
-3.27554
0
LINE
8
BLACK
6
CONTINUOUS
10
1.16479
20
-3.27554
11
1.18334
21
-3.2698
0
LINE
8
BLACK
6
CONTINUOUS
10
1.18334
20
-3.2698
11
1.18334
21
-3.2698
0
LINE
8
BLACK
6
CONTINUOUS
10
1.18334
20
-3.2698
11
1.18335
21
-3.26979
0
LINE
8
BLACK
6
CONTINUOUS
10
1.18335
20
-3.26979
11
1.18344
21
-3.26978
0
LINE
8
BLACK
6
CONTINUOUS
10
1.18344
20
-3.26978
11
1.18353
21
-3.26976
0
LINE
8
BLACK
6
CONTINUOUS
10
1.18353
20
-3.26976
11
1.20284
21
-3.26773
0
LINE
8
BLACK
6
CONTINUOUS
10
1.20284
20
-3.26773
11
1.20285
21
-3.26773
0
LINE
8
BLACK
6
CONTINUOUS
10
1.20285
20
-3.26773
11
1.2029
21
-3.26773
0
LINE
8
BLACK
6
CONTINUOUS
10
1.2029
20
-3.26773
11
1.20294
21
-3.26772
0
LINE
8
BLACK
6
CONTINUOUS
10
1.20294
20
-3.26772
11
1.20359
21
-3.26772
0
LINE
8
BLACK
6
CONTINUOUS
10
1.20359
20
-3.26772
11
1.20359
21
-3.26772
0
LINE
8
BLACK
6
CONTINUOUS
10
1.20359
20
-3.26772
11
1.20362
21
-3.26772
0
LINE
8
BLACK
6
CONTINUOUS
10
1.20362
20
-3.26772
11
1.20363
21
-3.26772
0
LINE
8
BLACK
6
CONTINUOUS
10
1.20363
20
-3.26772
11
1.20365
21
-3.26772
0
LINE
8
BLACK
6
CONTINUOUS
10
1.20365
20
-3.26772
11
10.3783
21
-3.26742
0
LINE
8
BLACK
6
CONTINUOUS
10
10.3783
20
-3.26742
11
10.3784
21
-3.26743
0
LINE
8
BLACK
6
CONTINUOUS
10
10.3784
20
-3.26743
11
10.3784
21
-3.26743
0
LINE
8
BLACK
6
CONTINUOUS
10
10.3784
20
-3.26743
11
10.3784
21
-3.26743
0
LINE
8
BLACK
6
CONTINUOUS
10
10.3784
20
-3.26743
11
10.3785
21
-3.26743
0
LINE
8
BLACK
6
CONTINUOUS
10
10.3785
20
-3.26743
11
10.3785
21
-3.26744
0
LINE
8
BLACK
6
CONTINUOUS
10
10.3785
20
-3.26744
11
10.3978
21
-3.26941
0
LINE
8
BLACK
6
CONTINUOUS
10
10.3978
20
-3.26941
11
10.3978
21
-3.26941
0
LINE
8
BLACK
6
CONTINUOUS
10
10.3978
20
-3.26941
11
10.3979
21
-3.26943
0
LINE
8
BLACK
6
CONTINUOUS
10
10.3979
20
-3.26943
11
10.398
21
-3.26945
0
LINE
8
BLACK
6
CONTINUOUS
10
10.398
20
-3.26945
11
10.4166
21
-3.27517
0
LINE
8
BLACK
6
CONTINUOUS
10
10.4166
20
-3.27517
11
10.4166
21
-3.27517
0
LINE
8
BLACK
6
CONTINUOUS
10
10.4166
20
-3.27517
11
10.4167
21
-3.27521
0
LINE
8
BLACK
6
CONTINUOUS
10
10.4167
20
-3.27521
11
10.4168
21
-3.27524
0
LINE
8
BLACK
6
CONTINUOUS
10
10.4168
20
-3.27524
11
10.434
21
-3.28448
0
LINE
8
BLACK
6
CONTINUOUS
10
10.434
20
-3.28448
11
10.434
21
-3.28449
0
LINE
8
BLACK
6
CONTINUOUS
10
10.434
20
-3.28449
11
10.4341
21
-3.28454
0
LINE
8
BLACK
6
CONTINUOUS
10
10.4341
20
-3.28454
11
10.4342
21
-3.28459
0
LINE
8
BLACK
6
CONTINUOUS
10
10.4342
20
-3.28459
11
10.4492
21
-3.29699
0
LINE
8
BLACK
6
CONTINUOUS
10
10.4492
20
-3.29699
11
10.4492
21
-3.29699
0
LINE
8
BLACK
6
CONTINUOUS
10
10.4492
20
-3.29699
11
10.4492
21
-3.29699
0
LINE
8
BLACK
6
CONTINUOUS
10
10.4492
20
-3.29699
11
10.4492
21
-3.29699
0
LINE
8
BLACK
6
CONTINUOUS
10
10.4492
20
-3.29699
11
10.4493
21
-3.29706
0
LINE
8
BLACK
6
CONTINUOUS
10
10.4493
20
-3.29706
11
10.4494
21
-3.29712
0
LINE
8
BLACK
6
CONTINUOUS
10
10.4494
20
-3.29712
11
10.4617
21
-3.31221
0
LINE
8
BLACK
6
CONTINUOUS
10
10.4617
20
-3.31221
11
10.4617
21
-3.31222
0
LINE
8
BLACK
6
CONTINUOUS
10
10.4617
20
-3.31222
11
10.4618
21
-3.3123
0
LINE
8
BLACK
6
CONTINUOUS
10
10.4618
20
-3.3123
11
10.4618
21
-3.31237
0
LINE
8
BLACK
6
CONTINUOUS
10
10.4618
20
-3.31237
11
10.4711
21
-3.32958
0
LINE
8
BLACK
6
CONTINUOUS
10
10.4711
20
-3.32958
11
10.4711
21
-3.32959
0
LINE
8
BLACK
6
CONTINUOUS
10
10.4711
20
-3.32959
11
10.4711
21
-3.32968
0
LINE
8
BLACK
6
CONTINUOUS
10
10.4711
20
-3.32968
11
10.4711
21
-3.32976
0
LINE
8
BLACK
6
CONTINUOUS
10
10.4711
20
-3.32976
11
10.4768
21
-3.34842
0
LINE
8
BLACK
6
CONTINUOUS
10
10.4768
20
-3.34842
11
10.4768
21
-3.34844
0
LINE
8
BLACK
6
CONTINUOUS
10
10.4768
20
-3.34844
11
10.4768
21
-3.34853
0
LINE
8
BLACK
6
CONTINUOUS
10
10.4768
20
-3.34853
11
10.4769
21
-3.34861
0
LINE
8
BLACK
6
CONTINUOUS
10
10.4769
20
-3.34861
11
10.4788
21
-3.36803
0
LINE
8
BLACK
6
CONTINUOUS
10
10.4788
20
-3.36803
11
10.4788
21
-3.36804
0
LINE
8
BLACK
6
CONTINUOUS
10
10.4788
20
-3.36804
11
10.4788
21
-3.36809
0
LINE
8
BLACK
6
CONTINUOUS
10
10.4788
20
-3.36809
11
10.4788
21
-3.36813
0
LINE
8
BLACK
6
CONTINUOUS
10
10.4788
20
-3.36813
11
10.4788
21
-3.36836
0
LINE
8
BLACK
6
CONTINUOUS
10
10.4788
20
-3.36836
11
10.4788
21
-3.36836
0
LINE
8
BLACK
6
CONTINUOUS
10
10.4788
20
-3.36836
11
10.4788
21
-3.36838
0
LINE
8
BLACK
6
CONTINUOUS
10
10.4788
20
-3.36838
11
10.4788
21
-3.3684
0
LINE
8
BLACK
6
CONTINUOUS
10
10.4788
20
-3.3684
11
10.4788
21
-3.36841
0
LINE
8
BLACK
6
CONTINUOUS
10
10.4788
20
-3.36841
11
10.479
21
-5.41905
0
LINE
8
BLACK
6
CONTINUOUS
10
10.479
20
-5.41905
11
10.479
21
-5.4191
0
LINE
8
BLACK
6
CONTINUOUS
10
10.479
20
-5.4191
11
10.479
21
-5.4191
0
LINE
8
BLACK
6
CONTINUOUS
10
10.479
20
-5.4191
11
10.479
21
-5.41912
0
LINE
8
BLACK
6
CONTINUOUS
10
10.479
20
-5.41912
11
10.479
21
-5.4192
0
LINE
8
BLACK
6
CONTINUOUS
10
10.479
20
-5.4192
11
10.479
21
-5.4192
0
LINE
8
BLACK
6
CONTINUOUS
10
10.479
20
-5.4192
11
10.477
21
-5.43852
0
LINE
8
BLACK
6
CONTINUOUS
10
10.477
20
-5.43852
11
10.477
21
-5.43853
0
LINE
8
BLACK
6
CONTINUOUS
10
10.477
20
-5.43853
11
10.477
21
-5.43862
0
LINE
8
BLACK
6
CONTINUOUS
10
10.477
20
-5.43862
11
10.477
21
-5.43871
0
LINE
8
BLACK
6
CONTINUOUS
10
10.477
20
-5.43871
11
10.4713
21
-5.45737
0
LINE
8
BLACK
6
CONTINUOUS
10
10.4713
20
-5.45737
11
10.4713
21
-5.45738
0
LINE
8
BLACK
6
CONTINUOUS
10
10.4713
20
-5.45738
11
10.4712
21
-5.45746
0
LINE
8
BLACK
6
CONTINUOUS
10
10.4712
20
-5.45746
11
10.4712
21
-5.45755
0
LINE
8
BLACK
6
CONTINUOUS
10
10.4712
20
-5.45755
11
10.462
21
-5.47474
0
LINE
8
BLACK
6
CONTINUOUS
10
10.462
20
-5.47474
11
10.462
21
-5.47475
0
LINE
8
BLACK
6
CONTINUOUS
10
10.462
20
-5.47475
11
10.4619
21
-5.47483
0
LINE
8
BLACK
6
CONTINUOUS
10
10.4619
20
-5.47483
11
10.4619
21
-5.4749
0
LINE
8
BLACK
6
CONTINUOUS
10
10.4619
20
-5.4749
11
10.4495
21
-5.48997
0
LINE
8
BLACK
6
CONTINUOUS
10
10.4495
20
-5.48997
11
10.4495
21
-5.48997
0
LINE
8
BLACK
6
CONTINUOUS
10
10.4495
20
-5.48997
11
10.4495
21
-5.48997
0
LINE
8
BLACK
6
CONTINUOUS
10
10.4495
20
-5.48997
11
10.4494
21
-5.48998
0
LINE
8
BLACK
6
CONTINUOUS
10
10.4494
20
-5.48998
11
10.4494
21
-5.49004
0
LINE
8
BLACK
6
CONTINUOUS
10
10.4494
20
-5.49004
11
10.4493
21
-5.49011
0
LINE
8
BLACK
6
CONTINUOUS
10
10.4493
20
-5.49011
11
10.4342
21
-5.50248
0
LINE
8
BLACK
6
CONTINUOUS
10
10.4342
20
-5.50248
11
10.4342
21
-5.50249
0
LINE
8
BLACK
6
CONTINUOUS
10
10.4342
20
-5.50249
11
10.4341
21
-5.50254
0
LINE
8
BLACK
6
CONTINUOUS
10
10.4341
20
-5.50254
11
10.4341
21
-5.50259
0
LINE
8
BLACK
6
CONTINUOUS
10
10.4341
20
-5.50259
11
10.4169
21
-5.5118
0
LINE
8
BLACK
6
CONTINUOUS
10
10.4169
20
-5.5118
11
10.4169
21
-5.5118
0
LINE
8
BLACK
6
CONTINUOUS
10
10.4169
20
-5.5118
11
10.4169
21
-5.5118
0
LINE
8
BLACK
6
CONTINUOUS
10
10.4169
20
-5.5118
11
10.4169
21
-5.5118
0
LINE
8
BLACK
6
CONTINUOUS
10
10.4169
20
-5.5118
11
10.4168
21
-5.51184
0
LINE
8
BLACK
6
CONTINUOUS
10
10.4168
20
-5.51184
11
10.4167
21
-5.51187
0
LINE
8
BLACK
6
CONTINUOUS
10
10.4167
20
-5.51187
11
10.398
21
-5.51756
0
LINE
8
BLACK
6
CONTINUOUS
10
10.398
20
-5.51756
11
10.398
21
-5.51757
0
LINE
8
BLACK
6
CONTINUOUS
10
10.398
20
-5.51757
11
10.3979
21
-5.51758
0
LINE
8
BLACK
6
CONTINUOUS
10
10.3979
20
-5.51758
11
10.3978
21
-5.5176
0
LINE
8
BLACK
6
CONTINUOUS
10
10.3978
20
-5.5176
11
10.3784
21
-5.51956
0
LINE
8
BLACK
6
CONTINUOUS
10
10.3784
20
-5.51956
11
10.3784
21
-5.51956
0
LINE
8
BLACK
6
CONTINUOUS
10
10.3784
20
-5.51956
11
10.3784
21
-5.51956
0
LINE
8
BLACK
6
CONTINUOUS
10
10.3784
20
-5.51956
11
10.3783
21
-5.51956
0
LINE
8
BLACK
6
CONTINUOUS
10
10.3783
20
-5.51956
11
10.3781
21
-5.51957
0
LINE
8
BLACK
6
CONTINUOUS
10
10.3781
20
-5.51957
11
10.3781
21
-5.51957
0
LINE
8
BLACK
6
CONTINUOUS
10
10.3781
20
-5.51957
11
10.378
21
-5.51957
0
LINE
8
BLACK
6
CONTINUOUS
10
10.378
20
-5.51957
11
1.20357
21
-5.51919
0
LINE
8
BLACK
6
CONTINUOUS
10
1.20364
20
-3.26969
11
1.203
21
-3.26969
0
LINE
8
BLACK
6
CONTINUOUS
10
1.203
20
-3.26969
11
1.18383
21
-3.27171
0
LINE
8
BLACK
6
CONTINUOUS
10
1.18383
20
-3.27171
11
1.16546
21
-3.27739
0
LINE
8
BLACK
6
CONTINUOUS
10
1.16546
20
-3.27739
11
1.14855
21
-3.28654
0
LINE
8
BLACK
6
CONTINUOUS
10
1.14855
20
-3.28654
11
1.13374
21
-3.29879
0
LINE
8
BLACK
6
CONTINUOUS
10
1.13374
20
-3.29879
11
1.12159
21
-3.31369
0
LINE
8
BLACK
6
CONTINUOUS
10
1.12159
20
-3.31369
11
1.11256
21
-3.33067
0
LINE
8
BLACK
6
CONTINUOUS
10
1.11256
20
-3.33067
11
1.107
21
-3.34907
0
LINE
8
BLACK
6
CONTINUOUS
10
1.107
20
-3.34907
11
1.10512
21
-3.36825
0
LINE
8
BLACK
6
CONTINUOUS
10
1.10512
20
-3.36825
11
1.10502
21
-5.4182
0
LINE
8
BLACK
6
CONTINUOUS
10
1.10502
20
-5.4182
11
1.10502
21
-5.4182
0
LINE
8
BLACK
6
CONTINUOUS
10
1.10502
20
-5.4182
11
1.10502
21
-5.41843
0
LINE
8
BLACK
6
CONTINUOUS
10
1.10502
20
-5.41843
11
1.10697
21
-5.4377
0
LINE
8
BLACK
6
CONTINUOUS
10
1.10697
20
-5.4377
11
1.1126
21
-5.45619
0
LINE
8
BLACK
6
CONTINUOUS
10
1.1126
20
-5.45619
11
1.12172
21
-5.47322
0
LINE
8
BLACK
6
CONTINUOUS
10
1.12172
20
-5.47322
11
1.13397
21
-5.48816
0
LINE
8
BLACK
6
CONTINUOUS
10
1.13397
20
-5.48816
11
1.1489
21
-5.50044
0
LINE
8
BLACK
6
CONTINUOUS
10
1.1489
20
-5.50044
11
1.16592
21
-5.50958
0
LINE
8
BLACK
6
CONTINUOUS
10
1.16592
20
-5.50958
11
1.1844
21
-5.51525
0
LINE
8
BLACK
6
CONTINUOUS
10
1.1844
20
-5.51525
11
1.20366
21
-5.51722
0
LINE
8
BLACK
6
CONTINUOUS
10
1.20366
20
-5.51722
11
10.378
21
-5.5176
0
LINE
8
BLACK
6
CONTINUOUS
10
10.378
20
-5.5176
11
10.378
21
-5.5176
0
LINE
8
BLACK
6
CONTINUOUS
10
10.378
20
-5.5176
11
10.3783
21
-5.5176
0
LINE
8
BLACK
6
CONTINUOUS
10
10.3783
20
-5.5176
11
10.3975
21
-5.51565
0
LINE
8
BLACK
6
CONTINUOUS
10
10.3975
20
-5.51565
11
10.416
21
-5.51002
0
LINE
8
BLACK
6
CONTINUOUS
10
10.416
20
-5.51002
11
10.4331
21
-5.5009
0
LINE
8
BLACK
6
CONTINUOUS
10
10.4331
20
-5.5009
11
10.448
21
-5.48864
0
LINE
8
BLACK
6
CONTINUOUS
10
10.448
20
-5.48864
11
10.4603
21
-5.47372
0
LINE
8
BLACK
6
CONTINUOUS
10
10.4603
20
-5.47372
11
10.4694
21
-5.4567
0
LINE
8
BLACK
6
CONTINUOUS
10
10.4694
20
-5.4567
11
10.4751
21
-5.43822
0
LINE
8
BLACK
6
CONTINUOUS
10
10.4751
20
-5.43822
11
10.4771
21
-5.41895
0
LINE
8
BLACK
6
CONTINUOUS
10
10.4771
20
-5.41895
11
10.4769
21
-3.3684
0
LINE
8
BLACK
6
CONTINUOUS
10
10.4769
20
-3.3684
11
10.4769
21
-3.36818
0
LINE
8
BLACK
6
CONTINUOUS
10
10.4769
20
-3.36818
11
10.4749
21
-3.34891
0
LINE
8
BLACK
6
CONTINUOUS
10
10.4749
20
-3.34891
11
10.4693
21
-3.33042
0
LINE
8
BLACK
6
CONTINUOUS
10
10.4693
20
-3.33042
11
10.4602
21
-3.31339
0
LINE
8
BLACK
6
CONTINUOUS
10
10.4602
20
-3.31339
11
10.4479
21
-3.29844
0
LINE
8
BLACK
6
CONTINUOUS
10
10.4479
20
-3.29844
11
10.433
21
-3.28617
0
LINE
8
BLACK
6
CONTINUOUS
10
10.433
20
-3.28617
11
10.416
21
-3.27702
0
LINE
8
BLACK
6
CONTINUOUS
10
10.416
20
-3.27702
11
10.3975
21
-3.27136
0
LINE
8
BLACK
6
CONTINUOUS
10
10.3975
20
-3.27136
11
10.3782
21
-3.26939
0
LINE
8
BLACK
6
CONTINUOUS
10
10.3782
20
-3.26939
11
1.20364
21
-3.26969
  0
ENDSEC
  0
EOF
