<?xml version="1.0" encoding="utf-8"?>
<!-- Generator: Adobe Illustrator 24.0.0, SVG Export Plug-In . SVG Version: 6.00 Build 0)  -->
<svg version="1.1" id="レイヤー_1" xmlns="http://www.w3.org/2000/svg" xmlns:xlink="http://www.w3.org/1999/xlink" x="0px"
	 y="0px" viewBox="0 0 841.9 595.3" style="enable-background:new 0 0 841.9 595.3;" xml:space="preserve">
<style type="text/css">
	.st0{fill-opacity:0;stroke:#000000;stroke-width:0.2835;stroke-linecap:round;stroke-linejoin:round;stroke-miterlimit:10;}
</style>
<title>SVG Picture created as First_keyboard30-Dwgs_User.svg date 2020/02/27 15:00:22</title>
<desc>Picture generated by PCBNEW</desc>
<g transform="translate(0 0) scale(1 1)">
</g>
<g>
	<g>
		<g>
			<circle class="st0" cx="420.8" cy="366.6" r="3"/>
		</g>
		<g>
			<circle class="st0" cx="150.5" cy="217.5" r="3"/>
		</g>
		<g>
			<circle class="st0" cx="420.5" cy="217.7" r="3"/>
		</g>
		<g>
			<ellipse class="st0" cx="712.6" cy="366.1" rx="3.1" ry="3"/>
		</g>
		<g>
			<circle class="st0" cx="704" cy="217.6" r="3.1"/>
		</g>
		<g>
			<circle class="st0" cx="150.6" cy="366.5" r="3"/>
		</g>
	</g>
	<g>
		<path class="st0" d="M103.8,211.1c-4,0-7.2,3.2-7.2,7.2l0,0"/>
		<path class="st0" d="M96.7,365.9c0,4,3.2,7.2,7.2,7.2"/>
		<path class="st0" d="M764.4,373.1c4,0,7.2-3.2,7.2-7.2"/>
		<path class="st0" d="M771.6,218.3c0-4-3.2-7.2-7.2-7.2"/>
		<path class="st0" d="M771.6,218.3l0,147.6"/>
		<path class="st0" d="M96.6,365.9l0-147.6"/>
		<path class="st0" d="M103.8,211.1l660.6,0"/>
		<path class="st0" d="M764.4,373.1l-660.6,0"/>
	</g>
</g>
<g>
	<path class="st0" d="M715.8,541.8h2.8"/>
	<path class="st0" d="M715.8,532.4v9.4"/>
	<path class="st0" d="M718.6,532.4h-2.8"/>
	<path class="st0" d="M718.6,527.6v4.9"/>
	<path class="st0" d="M731.3,527.6h-12.7"/>
	<path class="st0" d="M731.3,523.2v4.3"/>
	<path class="st0" d="M718,523.2h13.3"/>
	<path class="st0" d="M718,483.6v39.7"/>
	<path class="st0" d="M744.3,457.8h-7.9"/>
	<path class="st0" d="M744.3,460.1v-2.3"/>
	<path class="st0" d="M753.5,460.1h-9.2"/>
	<path class="st0" d="M753.5,465v-4.9"/>
	<path class="st0" d="M756.1,465h-2.6"/>
	<path class="st0" d="M756.1,474.3V465"/>
	<path class="st0" d="M753.5,474.3h2.6"/>
	<path class="st0" d="M753.5,479.2v-4.9"/>
	<path class="st0" d="M744.3,479.2h9.2"/>
	<path class="st0" d="M744.3,483.6v-4.3"/>
	<path class="st0" d="M757.7,483.6h-13.3"/>
	<path class="st0" d="M757.7,523.2v-39.7"/>
	<path class="st0" d="M744.3,523.2h13.3"/>
	<path class="st0" d="M744.3,527.6v-4.3"/>
	<path class="st0" d="M753.5,527.6h-9.2"/>
	<path class="st0" d="M753.5,532.4v-4.9"/>
	<path class="st0" d="M756.1,532.4h-2.6"/>
	<path class="st0" d="M756.1,541.8v-9.4"/>
	<path class="st0" d="M753.5,541.8h2.6"/>
	<path class="st0" d="M753.5,546.7v-4.9"/>
	<path class="st0" d="M744.3,546.7h9.2"/>
	<path class="st0" d="M744.3,549v-2.3"/>
	<path class="st0" d="M736.4,549h7.9"/>
	<path class="st0" d="M736.4,546.7v2.3"/>
	<path class="st0" d="M718.6,546.7h17.8"/>
	<path class="st0" d="M718.6,541.8v4.9"/>
	<path class="st0" d="M718.6,474.3v4.9"/>
	<path class="st0" d="M715.8,474.3h2.8"/>
	<path class="st0" d="M715.8,465v9.4"/>
	<path class="st0" d="M718.6,465h-2.8"/>
	<path class="st0" d="M718.6,460.1v4.9"/>
	<path class="st0" d="M736.4,460.1h-17.8"/>
	<path class="st0" d="M736.4,457.8v2.3"/>
	<path class="st0" d="M731.3,483.6H718"/>
	<path class="st0" d="M731.3,479.2v4.3"/>
	<path class="st0" d="M718.6,479.2h12.7"/>
	<g>
		<g>
			<circle class="st0" cx="420.7" cy="550.8" r="3"/>
		</g>
		<g>
			<circle class="st0" cx="150.5" cy="401.8" r="3"/>
		</g>
		<g>
			<circle class="st0" cx="420.5" cy="402" r="3"/>
		</g>
		<g>
			<circle class="st0" cx="712.6" cy="550.4" r="3"/>
		</g>
		<g>
			<circle class="st0" cx="704" cy="401.8" r="3"/>
			<circle class="st0" cx="704" cy="401.8" r="3"/>
		</g>
		<g>
			<circle class="st0" cx="150.6" cy="550.7" r="3"/>
		</g>
	</g>
	<g>
		<path class="st0" d="M103.8,395.4c-4,0-7.2,3.2-7.2,7.2l0,0"/>
		<path class="st0" d="M96.6,550.2c0,4,3.2,7.2,7.2,7.2"/>
		<path class="st0" d="M764.4,557.4c4,0,7.2-3.2,7.2-7.2"/>
		<path class="st0" d="M771.5,402.6c0-4-3.2-7.2-7.2-7.2"/>
		<path class="st0" d="M771.5,402.6l0,147.6"/>
		<path class="st0" d="M96.6,550.2l0-147.6"/>
		<path class="st0" d="M103.8,395.4l660.6,0"/>
		<path class="st0" d="M764.4,557.4l-660.6,0"/>
	</g>
	<g>
		<path class="st0" d="M103.9,402.8h39.3"/>
		<path class="st0" d="M103.9,442h39.3"/>
		<path class="st0" d="M143.2,442v-39.3"/>
		<path class="st0" d="M103.9,442v-39.3"/>
	</g>
	<g>
		<path class="st0" d="M103.9,456.8h39.3"/>
		<path class="st0" d="M103.9,496h39.3"/>
		<path class="st0" d="M143.2,496v-39.3"/>
		<path class="st0" d="M103.9,496v-39.3"/>
	</g>
	<g>
		<path class="st0" d="M103.9,510.8h39.3"/>
		<path class="st0" d="M103.9,550h39.3"/>
		<path class="st0" d="M143.2,550v-39.3"/>
		<path class="st0" d="M103.9,550v-39.3"/>
	</g>
	<g>
		<path class="st0" d="M157.9,510.8h39.3"/>
		<path class="st0" d="M157.9,550h39.3"/>
		<path class="st0" d="M197.2,550v-39.3"/>
		<path class="st0" d="M157.9,550v-39.3"/>
	</g>
	<g>
		<path class="st0" d="M157.9,456.7h39.3"/>
		<path class="st0" d="M157.9,496h39.3"/>
		<path class="st0" d="M197.2,496v-39.3"/>
		<path class="st0" d="M157.9,496v-39.3"/>
	</g>
	<g>
		<path class="st0" d="M157.9,402.8h39.3"/>
		<path class="st0" d="M157.9,442h39.3"/>
		<path class="st0" d="M197.2,442v-39.3"/>
		<path class="st0" d="M157.9,442v-39.3"/>
	</g>
	<g>
		<path class="st0" d="M211.9,402.8h39.3"/>
		<path class="st0" d="M211.9,442h39.3"/>
		<path class="st0" d="M251.2,442v-39.3"/>
		<path class="st0" d="M211.9,442v-39.3"/>
	</g>
	<g>
		<path class="st0" d="M211.9,456.8h39.3"/>
		<path class="st0" d="M211.9,496h39.3"/>
		<path class="st0" d="M251.2,496v-39.3"/>
		<path class="st0" d="M211.9,496v-39.3"/>
	</g>
	<g>
		<path class="st0" d="M211.9,510.8h39.3"/>
		<path class="st0" d="M211.9,550h39.3"/>
		<path class="st0" d="M251.2,550v-39.3"/>
		<path class="st0" d="M211.9,550v-39.3"/>
	</g>
	<g>
		<path class="st0" d="M265.9,402.8h39.3"/>
		<path class="st0" d="M265.9,442h39.3"/>
		<path class="st0" d="M305.2,442v-39.3"/>
		<path class="st0" d="M265.9,442v-39.3"/>
	</g>
	<g>
		<path class="st0" d="M265.9,456.7h39.3"/>
		<path class="st0" d="M265.9,496h39.3"/>
		<path class="st0" d="M305.2,496v-39.3"/>
		<path class="st0" d="M265.9,496v-39.3"/>
	</g>
	<g>
		<path class="st0" d="M265.9,510.8h39.3"/>
		<path class="st0" d="M265.9,550h39.3"/>
		<path class="st0" d="M305.2,550v-39.3"/>
		<path class="st0" d="M265.9,550v-39.3"/>
	</g>
	<g>
		<path class="st0" d="M319.9,402.8h39.3"/>
		<path class="st0" d="M319.9,442h39.3"/>
		<path class="st0" d="M359.2,442v-39.3"/>
		<path class="st0" d="M319.9,442v-39.3"/>
	</g>
	<g>
		<path class="st0" d="M319.9,456.7h39.3"/>
		<path class="st0" d="M319.9,496h39.3"/>
		<path class="st0" d="M359.2,496v-39.3"/>
		<path class="st0" d="M319.9,496v-39.3"/>
	</g>
	<g>
		<path class="st0" d="M319.9,510.8h39.3"/>
		<path class="st0" d="M319.9,550h39.3"/>
		<path class="st0" d="M359.2,550v-39.3"/>
		<path class="st0" d="M319.9,550v-39.3"/>
	</g>
	<g>
		<path class="st0" d="M373.9,402.8h39.3"/>
		<path class="st0" d="M373.9,442h39.3"/>
		<path class="st0" d="M413.2,442v-39.3"/>
		<path class="st0" d="M373.9,442v-39.3"/>
	</g>
	<g>
		<path class="st0" d="M373.9,456.7h39.3"/>
		<path class="st0" d="M373.9,496h39.3"/>
		<path class="st0" d="M413.2,496v-39.3"/>
		<path class="st0" d="M373.9,496v-39.3"/>
	</g>
	<g>
		<path class="st0" d="M373.9,510.8h39.3"/>
		<path class="st0" d="M373.9,550h39.3"/>
		<path class="st0" d="M413.2,550v-39.3"/>
		<path class="st0" d="M373.9,550v-39.3"/>
	</g>
	<g>
		<path class="st0" d="M427.9,402.8h39.3"/>
		<path class="st0" d="M427.9,442h39.3"/>
		<path class="st0" d="M467.2,442v-39.3"/>
		<path class="st0" d="M427.9,442v-39.3"/>
	</g>
	<g>
		<path class="st0" d="M427.9,456.7h39.3"/>
		<path class="st0" d="M427.9,496h39.3"/>
		<path class="st0" d="M467.2,496v-39.3"/>
		<path class="st0" d="M427.9,496v-39.3"/>
	</g>
	<g>
		<path class="st0" d="M427.9,510.8h39.3"/>
		<path class="st0" d="M427.9,550h39.3"/>
		<path class="st0" d="M467.2,550v-39.3"/>
		<path class="st0" d="M427.9,550v-39.3"/>
	</g>
	<g>
		<path class="st0" d="M481.9,402.8h39.3"/>
		<path class="st0" d="M481.9,442h39.3"/>
		<path class="st0" d="M521.2,442v-39.3"/>
		<path class="st0" d="M481.9,442v-39.3"/>
	</g>
	<g>
		<path class="st0" d="M481.9,456.8h39.3"/>
		<path class="st0" d="M481.9,496h39.3"/>
		<path class="st0" d="M521.2,496v-39.3"/>
		<path class="st0" d="M481.9,496v-39.3"/>
	</g>
	<g>
		<path class="st0" d="M481.9,510.8h39.3"/>
		<path class="st0" d="M481.9,550h39.3"/>
		<path class="st0" d="M521.2,550v-39.3"/>
		<path class="st0" d="M481.9,550v-39.3"/>
	</g>
	<g>
		<path class="st0" d="M535.9,456.8h39.3"/>
		<path class="st0" d="M535.9,496h39.3"/>
		<path class="st0" d="M575.2,496v-39.3"/>
		<path class="st0" d="M535.9,496v-39.3"/>
	</g>
	<g>
		<path class="st0" d="M535.9,510.8h39.3"/>
		<path class="st0" d="M535.9,550h39.3"/>
		<path class="st0" d="M575.2,550v-39.3"/>
		<path class="st0" d="M535.9,550v-39.3"/>
	</g>
	<g>
		<path class="st0" d="M535.9,402.8h39.3"/>
		<path class="st0" d="M535.9,442h39.3"/>
		<path class="st0" d="M575.2,442v-39.3"/>
		<path class="st0" d="M535.9,442v-39.3"/>
	</g>
	<g>
		<path class="st0" d="M589.9,402.8h39.3"/>
		<path class="st0" d="M589.9,442h39.3"/>
		<path class="st0" d="M629.2,442v-39.3"/>
		<path class="st0" d="M589.9,442v-39.3"/>
	</g>
	<g>
		<path class="st0" d="M589.9,456.7h39.3"/>
		<path class="st0" d="M589.9,496h39.3"/>
		<path class="st0" d="M629.2,496v-39.3"/>
		<path class="st0" d="M589.9,496v-39.3"/>
	</g>
	<g>
		<path class="st0" d="M589.9,510.8h39.3"/>
		<path class="st0" d="M589.9,550h39.3"/>
		<path class="st0" d="M629.2,550v-39.3"/>
		<path class="st0" d="M589.9,550v-39.3"/>
	</g>
	<g>
		<path class="st0" d="M643.9,402.8h39.3"/>
		<path class="st0" d="M643.9,442h39.3"/>
		<path class="st0" d="M683.2,442v-39.3"/>
		<path class="st0" d="M643.9,442v-39.3"/>
	</g>
	<g>
		<path class="st0" d="M643.9,456.8h39.3"/>
		<path class="st0" d="M643.9,496h39.3"/>
		<path class="st0" d="M683.2,496v-39.3"/>
		<path class="st0" d="M643.9,496v-39.3"/>
	</g>
	<g>
		<path class="st0" d="M650.9,510.8h39.3"/>
		<path class="st0" d="M650.9,550h39.3"/>
		<path class="st0" d="M690.2,550v-39.3"/>
		<path class="st0" d="M650.9,550v-39.3"/>
	</g>
	<g>
		<path class="st0" d="M711.4,402.8h39.3"/>
		<path class="st0" d="M711.4,442h39.3"/>
		<path class="st0" d="M750.7,442v-39.3"/>
		<path class="st0" d="M711.4,442v-39.3"/>
	</g>
</g>
</svg>
