M48
; DRILL file {KiCad (5.1.5-0-10_14)} date 2019 December 29, Sunday 16:50:55
; FORMAT={-:-/ absolute / metric / decimal}
; #@! TF.CreationDate,2019-12-29T16:50:55+09:00
; #@! TF.GenerationSoftware,Kicad,Pcbnew,(5.1.5-0-10_14)
; #@! TF.FileFunction,Plated,1,2,PTH
FMAT,2
METRIC
T1C0.400
T2C0.800
T3C0.813
T4C0.991
T5C1.092
T6C1.200
T7C1.300
T8C1.470
%
G90
G05
T1
X44.54Y-121.064
X49.305Y-121.115
X50.031Y-106.561
X51.652Y-121.069
X52.835Y-106.556
X62.635Y-121.044
X70.207Y-99.629
X70.219Y-100.633
X70.244Y-101.679
X73.572Y-99.652
X87.608Y-100.587
X110.864Y-101.704
X143.559Y-138.931
X143.564Y-137.833
X143.579Y-136.782
X143.584Y-135.735
X145.479Y-119.347
X148.339Y-138.941
X161.984Y-102.568
X162.01Y-120.45
X166.302Y-137.844
X188.878Y-136.624
X201.994Y-135.776
X203.691Y-117.361
X208.197Y-119.49
X212.713Y-117.351
X241.303Y-117.27
X241.303Y-119.307
T3
X66.16Y-125.55
X66.16Y-133.17
X161.62Y-125.48
X161.62Y-133.1
X180.51Y-106.63
X180.51Y-114.25
X85.18Y-89.14
X85.18Y-96.76
X66.24Y-107.25
X66.24Y-114.87
X199.52Y-89.28
X199.52Y-96.9
X47.14Y-89.19
X47.14Y-96.81
X47.11Y-125.54
X47.11Y-133.16
X243.39Y-127.6
X243.39Y-135.22
X161.48Y-106.53
X161.48Y-114.15
X47.12Y-106.84
X47.12Y-114.46
X66.15Y-89.14
X66.15Y-96.76
X142.35Y-89.14
X142.35Y-96.76
X161.46Y-89.27
X161.46Y-96.89
X180.51Y-89.28
X180.51Y-96.9
X237.51Y-106.49
X237.51Y-114.11
X142.33Y-125.43
X142.33Y-133.05
X142.44Y-107.19
X142.44Y-114.81
X261.42Y-89.2
X261.42Y-96.82
X243.4Y-115.51
X243.4Y-123.13
X205.5Y-125.51
X205.5Y-133.13
X123.3Y-107.23
X123.3Y-114.85
X218.59Y-106.47
X218.59Y-114.09
X85.17Y-125.57
X85.17Y-133.19
X104.2Y-107.2
X104.2Y-114.82
X104.21Y-125.43
X104.21Y-133.05
X237.64Y-89.25
X237.64Y-96.87
X123.28Y-89.13
X123.28Y-96.75
X180.51Y-125.52
X180.51Y-133.14
X123.31Y-125.42
X123.31Y-133.04
X218.59Y-89.28
X218.59Y-96.9
X104.27Y-89.13
X104.27Y-96.75
X199.52Y-106.61
X199.52Y-114.23
X85.23Y-107.2
X85.23Y-114.82
T4
X259.32Y-119.84
X259.32Y-122.38
X223.17Y-125.55
X225.71Y-125.55
T5
X33.46Y-102.52
X33.46Y-117.76
X36.0Y-102.52
X36.0Y-117.76
X38.54Y-102.52
X38.54Y-117.76
X41.08Y-102.52
X41.08Y-117.76
X43.62Y-102.52
X43.62Y-117.76
X46.16Y-102.52
X46.16Y-117.76
X48.7Y-102.52
X48.7Y-117.76
X51.24Y-102.52
X51.24Y-117.76
X53.78Y-102.52
X53.78Y-117.76
X56.32Y-102.52
X56.32Y-117.76
X58.86Y-102.52
X58.86Y-117.76
X61.4Y-102.52
X61.4Y-117.76
T6
X248.34Y-121.11
X250.44Y-116.11
X219.44Y-134.43
X224.44Y-136.53
T7
X29.62Y-97.96
X36.12Y-97.96
T8
X249.16Y-118.57
X249.74Y-118.61
X250.24Y-123.61
X251.7Y-124.92
X221.9Y-135.71
X221.94Y-135.13
X226.94Y-134.63
X228.25Y-133.17
T2
G00X166.92Y-89.99
M15
G01X167.32Y-89.99
M16
G05
G00X173.27Y-87.45
M15
G01X173.67Y-87.45
M16
G05
G00X33.57Y-109.04
M15
G01X33.97Y-109.04
M16
G05
G00X39.92Y-106.5
M15
G01X40.32Y-106.5
M16
G05
G00X147.87Y-128.09
M15
G01X148.27Y-128.09
M16
G05
G00X154.22Y-125.55
M15
G01X154.62Y-125.55
M16
G05
G00X90.72Y-89.99
M15
G01X91.12Y-89.99
M16
G05
G00X97.07Y-87.45
M15
G01X97.47Y-87.45
M16
G05
G00X224.07Y-109.04
M15
G01X224.47Y-109.04
M16
G05
G00X230.42Y-106.5
M15
G01X230.82Y-106.5
M16
G05
G00X147.87Y-109.04
M15
G01X148.27Y-109.04
M16
G05
G00X154.22Y-106.5
M15
G01X154.62Y-106.5
M16
G05
G00X52.62Y-128.09
M15
G01X53.02Y-128.09
M16
G05
G00X58.97Y-125.55
M15
G01X59.37Y-125.55
M16
G05
G00X128.82Y-109.04
M15
G01X129.22Y-109.04
M16
G05
G00X135.17Y-106.5
M15
G01X135.57Y-106.5
M16
G05
G00X166.92Y-128.09
M15
G01X167.32Y-128.09
M16
G05
G00X173.27Y-125.55
M15
G01X173.67Y-125.55
M16
G05
G00X185.97Y-109.04
M15
G01X186.37Y-109.04
M16
G05
G00X192.32Y-106.5
M15
G01X192.72Y-106.5
M16
G05
G00X52.62Y-109.04
M15
G01X53.02Y-109.04
M16
G05
G00X58.97Y-106.5
M15
G01X59.37Y-106.5
M16
G05
G00X109.77Y-128.09
M15
G01X110.17Y-128.09
M16
G05
G00X116.12Y-125.55
M15
G01X116.52Y-125.55
M16
G05
G00X71.67Y-109.04
M15
G01X72.07Y-109.04
M16
G05
G00X78.02Y-106.5
M15
G01X78.42Y-106.5
M16
G05
G00X90.72Y-109.04
M15
G01X91.12Y-109.04
M16
G05
G00X97.07Y-106.5
M15
G01X97.47Y-106.5
M16
G05
G00X205.02Y-89.99
M15
G01X205.42Y-89.99
M16
G05
G00X211.37Y-87.45
M15
G01X211.77Y-87.45
M16
G05
G00X71.67Y-128.09
M15
G01X72.07Y-128.09
M16
G05
G00X78.02Y-125.55
M15
G01X78.42Y-125.55
M16
G05
G00X33.57Y-128.09
M15
G01X33.97Y-128.09
M16
G05
G00X39.92Y-125.55
M15
G01X40.32Y-125.55
M16
G05
G00X147.87Y-89.99
M15
G01X148.27Y-89.99
M16
G05
G00X154.22Y-87.45
M15
G01X154.62Y-87.45
M16
G05
G00X185.97Y-89.99
M15
G01X186.37Y-89.99
M16
G05
G00X192.32Y-87.45
M15
G01X192.72Y-87.45
M16
G05
G00X188.44Y-128.1
M15
G01X188.84Y-128.1
M16
G05
G00X194.79Y-125.56
M15
G01X195.19Y-125.56
M16
G05
G00X166.92Y-109.04
M15
G01X167.32Y-109.04
M16
G05
G00X173.27Y-106.5
M15
G01X173.67Y-106.5
M16
G05
G00X71.67Y-89.99
M15
G01X72.07Y-89.99
M16
G05
G00X78.02Y-87.45
M15
G01X78.42Y-87.45
M16
G05
G00X109.77Y-109.04
M15
G01X110.17Y-109.04
M16
G05
G00X116.12Y-106.5
M15
G01X116.52Y-106.5
M16
G05
G00X128.82Y-89.99
M15
G01X129.22Y-89.99
M16
G05
G00X135.17Y-87.45
M15
G01X135.57Y-87.45
M16
G05
G00X247.87Y-89.97
M15
G01X248.27Y-89.97
M16
G05
G00X254.22Y-87.43
M15
G01X254.62Y-87.43
M16
G05
G00X128.82Y-128.09
M15
G01X129.22Y-128.09
M16
G05
G00X135.17Y-125.55
M15
G01X135.57Y-125.55
M16
G05
G00X224.07Y-89.99
M15
G01X224.47Y-89.99
M16
G05
G00X230.42Y-87.45
M15
G01X230.82Y-87.45
M16
G05
G00X109.77Y-89.99
M15
G01X110.17Y-89.99
M16
G05
G00X116.12Y-87.45
M15
G01X116.52Y-87.45
M16
G05
G00X205.02Y-109.04
M15
G01X205.42Y-109.04
M16
G05
G00X211.37Y-106.5
M15
G01X211.77Y-106.5
M16
G05
G00X52.62Y-89.99
M15
G01X53.02Y-89.99
M16
G05
G00X58.97Y-87.45
M15
G01X59.37Y-87.45
M16
G05
G00X33.57Y-89.99
M15
G01X33.97Y-89.99
M16
G05
G00X39.92Y-87.45
M15
G01X40.32Y-87.45
M16
G05
G00X90.72Y-128.09
M15
G01X91.12Y-128.09
M16
G05
G00X97.07Y-125.55
M15
G01X97.47Y-125.55
M16
G05
T0
M30
