M48
; DRILL file {KiCad (5.1.5-0-10_14)} date 2019 December 29, Sunday 16:50:55
; FORMAT={-:-/ absolute / metric / decimal}
; #@! TF.CreationDate,2019-12-29T16:50:55+09:00
; #@! TF.GenerationSoftware,Kicad,Pcbnew,(5.1.5-0-10_14)
; #@! TF.FileFunction,NonPlated,1,2,NPTH
FMAT,2
METRIC
T1C1.200
T2C1.700
T3C1.750
T4C1.900
T5C2.200
T6C3.048
T7C3.988
T8C4.000
%
G90
G05
T1
X258.44Y-126.33
X229.66Y-126.43
T2
X254.24Y-115.61
X254.24Y-126.61
X218.94Y-130.63
X229.94Y-130.63
T3
X254.24Y-116.03
X254.24Y-126.19
X219.36Y-130.63
X229.52Y-130.63
T4
X108.28Y-111.58
X119.28Y-111.58
X127.33Y-92.53
X138.33Y-92.53
X246.38Y-92.51
X257.38Y-92.51
X127.33Y-130.63
X138.33Y-130.63
X222.58Y-92.53
X233.58Y-92.53
X108.28Y-92.53
X119.28Y-92.53
X203.53Y-111.58
X214.53Y-111.58
X51.13Y-92.53
X62.13Y-92.53
X32.08Y-92.53
X43.08Y-92.53
X89.23Y-130.63
X100.23Y-130.63
X165.43Y-92.53
X176.43Y-92.53
X32.08Y-111.58
X43.08Y-111.58
X146.38Y-130.63
X157.38Y-130.63
X89.23Y-92.53
X100.23Y-92.53
X222.58Y-111.58
X233.58Y-111.58
X146.38Y-111.58
X157.38Y-111.58
X51.13Y-130.63
X62.13Y-130.63
X127.33Y-111.58
X138.33Y-111.58
X165.43Y-130.63
X176.43Y-130.63
X184.48Y-111.58
X195.48Y-111.58
X51.13Y-111.58
X62.13Y-111.58
X108.28Y-130.63
X119.28Y-130.63
X70.18Y-111.58
X81.18Y-111.58
X89.23Y-111.58
X100.23Y-111.58
X203.53Y-92.53
X214.53Y-92.53
X70.18Y-130.63
X81.18Y-130.63
X32.08Y-130.63
X43.08Y-130.63
X146.38Y-92.53
X157.38Y-92.53
X184.48Y-92.53
X195.48Y-92.53
X186.95Y-130.64
X197.95Y-130.64
X165.43Y-111.58
X176.43Y-111.58
X70.18Y-92.53
X81.18Y-92.53
T5
X245.38Y-137.71
X47.11Y-137.85
X47.07Y-85.31
X242.35Y-85.32
X142.32Y-85.38
T6
X247.255Y-109.172
X247.255Y-133.048
X212.502Y-137.615
X236.378Y-137.615
T7
X254.24Y-121.11
X262.495Y-109.172
X262.495Y-133.048
X212.502Y-122.375
X224.44Y-130.63
X236.378Y-122.375
T8
X113.78Y-111.58
X132.83Y-92.53
X251.88Y-92.51
X132.83Y-130.63
X228.08Y-92.53
X113.78Y-92.53
X209.03Y-111.58
X56.63Y-92.53
X37.58Y-92.53
X94.73Y-130.63
X170.93Y-92.53
X37.58Y-111.58
X151.88Y-130.63
X94.73Y-92.53
X228.08Y-111.58
X151.88Y-111.58
X56.63Y-130.63
X132.83Y-111.58
X170.93Y-130.63
X189.98Y-111.58
X56.63Y-111.58
X113.78Y-130.63
X75.68Y-111.58
X94.73Y-111.58
X209.03Y-92.53
X75.68Y-130.63
X37.58Y-130.63
X151.88Y-92.53
X189.98Y-92.53
X192.45Y-130.64
X170.93Y-111.58
X75.68Y-92.53
T0
M30
