G04 #@! TF.GenerationSoftware,KiCad,Pcbnew,(5.1.5-0-10_14)*
G04 #@! TF.CreationDate,2019-12-29T16:50:37+09:00*
G04 #@! TF.ProjectId,First_keyboard30,46697273-745f-46b6-9579-626f61726433,rev?*
G04 #@! TF.SameCoordinates,Original*
G04 #@! TF.FileFunction,Legend,Top*
G04 #@! TF.FilePolarity,Positive*
%FSLAX46Y46*%
G04 Gerber Fmt 4.6, Leading zero omitted, Abs format (unit mm)*
G04 Created by KiCad (PCBNEW (5.1.5-0-10_14)) date 2019-12-29 16:50:37*
%MOMM*%
%LPD*%
G04 APERTURE LIST*
%ADD10C,0.150000*%
%ADD11C,0.120000*%
%ADD12C,0.381000*%
G04 APERTURE END LIST*
D10*
X142483410Y-74337619D02*
X142531029Y-74290000D01*
X142626267Y-74242380D01*
X142864362Y-74242380D01*
X142959600Y-74290000D01*
X143007219Y-74337619D01*
X143054838Y-74432857D01*
X143054838Y-74528095D01*
X143007219Y-74670952D01*
X142435791Y-75242380D01*
X143054838Y-75242380D01*
X143388172Y-74242380D02*
X144007219Y-74242380D01*
X143673886Y-74623333D01*
X143816743Y-74623333D01*
X143911981Y-74670952D01*
X143959600Y-74718571D01*
X144007219Y-74813809D01*
X144007219Y-75051904D01*
X143959600Y-75147142D01*
X143911981Y-75194761D01*
X143816743Y-75242380D01*
X143531029Y-75242380D01*
X143435791Y-75194761D01*
X143388172Y-75147142D01*
X144578648Y-74670952D02*
X144483410Y-74623333D01*
X144435791Y-74575714D01*
X144388172Y-74480476D01*
X144388172Y-74432857D01*
X144435791Y-74337619D01*
X144483410Y-74290000D01*
X144578648Y-74242380D01*
X144769124Y-74242380D01*
X144864362Y-74290000D01*
X144911981Y-74337619D01*
X144959600Y-74432857D01*
X144959600Y-74480476D01*
X144911981Y-74575714D01*
X144864362Y-74623333D01*
X144769124Y-74670952D01*
X144578648Y-74670952D01*
X144483410Y-74718571D01*
X144435791Y-74766190D01*
X144388172Y-74861428D01*
X144388172Y-75051904D01*
X144435791Y-75147142D01*
X144483410Y-75194761D01*
X144578648Y-75242380D01*
X144769124Y-75242380D01*
X144864362Y-75194761D01*
X144911981Y-75147142D01*
X144959600Y-75051904D01*
X144959600Y-74861428D01*
X144911981Y-74766190D01*
X144864362Y-74718571D01*
X144769124Y-74670952D01*
X145388172Y-75147142D02*
X145435791Y-75194761D01*
X145388172Y-75242380D01*
X145340553Y-75194761D01*
X145388172Y-75147142D01*
X145388172Y-75242380D01*
X146388172Y-75242380D02*
X145816743Y-75242380D01*
X146102458Y-75242380D02*
X146102458Y-74242380D01*
X146007219Y-74385238D01*
X145911981Y-74480476D01*
X145816743Y-74528095D01*
X146769124Y-74337619D02*
X146816743Y-74290000D01*
X146911981Y-74242380D01*
X147150077Y-74242380D01*
X147245315Y-74290000D01*
X147292934Y-74337619D01*
X147340553Y-74432857D01*
X147340553Y-74528095D01*
X147292934Y-74670952D01*
X146721505Y-75242380D01*
X147340553Y-75242380D01*
X148245315Y-74242380D02*
X147769124Y-74242380D01*
X147721505Y-74718571D01*
X147769124Y-74670952D01*
X147864362Y-74623333D01*
X148102458Y-74623333D01*
X148197696Y-74670952D01*
X148245315Y-74718571D01*
X148292934Y-74813809D01*
X148292934Y-75051904D01*
X148245315Y-75147142D01*
X148197696Y-75194761D01*
X148102458Y-75242380D01*
X147864362Y-75242380D01*
X147769124Y-75194761D01*
X147721505Y-75147142D01*
X149483410Y-75242380D02*
X149483410Y-74575714D01*
X149483410Y-74670952D02*
X149531029Y-74623333D01*
X149626267Y-74575714D01*
X149769124Y-74575714D01*
X149864362Y-74623333D01*
X149911981Y-74718571D01*
X149911981Y-75242380D01*
X149911981Y-74718571D02*
X149959600Y-74623333D01*
X150054838Y-74575714D01*
X150197696Y-74575714D01*
X150292934Y-74623333D01*
X150340553Y-74718571D01*
X150340553Y-75242380D01*
X150816743Y-75242380D02*
X150816743Y-74575714D01*
X150816743Y-74670952D02*
X150864362Y-74623333D01*
X150959600Y-74575714D01*
X151102458Y-74575714D01*
X151197696Y-74623333D01*
X151245315Y-74718571D01*
X151245315Y-75242380D01*
X151245315Y-74718571D02*
X151292934Y-74623333D01*
X151388172Y-74575714D01*
X151531029Y-74575714D01*
X151626267Y-74623333D01*
X151673886Y-74718571D01*
X151673886Y-75242380D01*
D11*
X28040000Y-76060000D02*
X266164916Y-76060000D01*
X28040000Y-83020000D02*
X28040000Y-75473579D01*
X266164916Y-83020000D02*
X266164916Y-75473579D01*
X266164916Y-76060000D02*
X265038412Y-76646421D01*
X266164916Y-76060000D02*
X265038412Y-75473579D01*
X28040000Y-76060000D02*
X29166504Y-76646421D01*
X28040000Y-76060000D02*
X29166504Y-75473579D01*
D10*
X22609398Y-107969879D02*
X22609273Y-107493689D01*
X22133070Y-107446195D01*
X22180702Y-107493801D01*
X22228346Y-107589027D01*
X22228409Y-107827122D01*
X22180814Y-107922373D01*
X22133208Y-107970004D01*
X22037982Y-108017648D01*
X21799887Y-108017711D01*
X21704637Y-107970117D01*
X21657005Y-107922510D01*
X21609361Y-107827285D01*
X21609298Y-107589189D01*
X21656892Y-107493939D01*
X21704499Y-107446307D01*
X22609498Y-108350832D02*
X22609673Y-109017498D01*
X21609561Y-108589189D01*
X21705012Y-109398688D02*
X21657405Y-109446320D01*
X21609773Y-109398713D01*
X21657380Y-109351082D01*
X21705012Y-109398688D01*
X21609773Y-109398713D01*
X21610036Y-110398713D02*
X21609886Y-109827285D01*
X21609961Y-110112999D02*
X22609961Y-110112736D01*
X22467079Y-110017536D01*
X22371816Y-109922323D01*
X22324172Y-109827097D01*
X22610123Y-110731784D02*
X22610286Y-111350832D01*
X22229246Y-111017598D01*
X22229284Y-111160455D01*
X22181690Y-111255706D01*
X22134083Y-111303337D01*
X22038857Y-111350982D01*
X21800762Y-111351044D01*
X21705512Y-111303450D01*
X21657880Y-111255843D01*
X21610236Y-111160618D01*
X21610161Y-110874904D01*
X21657755Y-110779653D01*
X21705362Y-110732021D01*
X22610524Y-112255593D02*
X22610399Y-111779403D01*
X22134196Y-111731909D01*
X22181827Y-111779515D01*
X22229471Y-111874741D01*
X22229534Y-112112836D01*
X22181940Y-112208087D01*
X22134333Y-112255718D01*
X22039108Y-112303362D01*
X21801012Y-112303425D01*
X21705762Y-112255831D01*
X21658130Y-112208224D01*
X21610486Y-112112999D01*
X21610424Y-111874904D01*
X21658018Y-111779653D01*
X21705624Y-111732021D01*
X21610849Y-113493951D02*
X22277515Y-113493776D01*
X22182277Y-113493801D02*
X22229909Y-113541408D01*
X22277553Y-113636633D01*
X22277590Y-113779490D01*
X22229996Y-113874741D01*
X22134771Y-113922385D01*
X21610961Y-113922523D01*
X22134771Y-113922385D02*
X22230021Y-113969979D01*
X22277665Y-114065205D01*
X22277703Y-114208062D01*
X22230109Y-114303312D01*
X22134883Y-114350956D01*
X21611074Y-114351094D01*
X21611199Y-114827284D02*
X22277865Y-114827109D01*
X22182627Y-114827134D02*
X22230259Y-114874741D01*
X22277903Y-114969967D01*
X22277940Y-115112824D01*
X22230346Y-115208074D01*
X22135121Y-115255718D01*
X21611311Y-115255856D01*
X22135121Y-115255718D02*
X22230371Y-115303312D01*
X22278015Y-115398538D01*
X22278053Y-115541395D01*
X22230459Y-115636646D01*
X22135233Y-115684290D01*
X21611424Y-115684427D01*
D11*
X23325230Y-83021238D02*
X23340230Y-140156238D01*
X28040000Y-83020000D02*
X22738809Y-83021392D01*
X28055000Y-140155000D02*
X22753809Y-140156392D01*
X23340230Y-140156238D02*
X22753514Y-139029888D01*
X23340230Y-140156238D02*
X23926355Y-139029580D01*
X23325230Y-83021238D02*
X22739105Y-84147896D01*
X23325230Y-83021238D02*
X23911946Y-84147588D01*
D10*
X184878824Y-139855714D02*
X184640729Y-139855714D01*
X184819300Y-138427142D01*
X185057395Y-138427142D01*
X186063348Y-139522380D02*
X186146681Y-138855714D01*
X186575252Y-138855714D01*
X186491919Y-139522380D01*
X187355014Y-139474761D02*
X187253824Y-139522380D01*
X187063348Y-139522380D01*
X186974062Y-139474761D01*
X186938348Y-139379523D01*
X186985967Y-138998571D01*
X187045491Y-138903333D01*
X187146681Y-138855714D01*
X187337157Y-138855714D01*
X187426443Y-138903333D01*
X187462157Y-138998571D01*
X187450252Y-139093809D01*
X186962157Y-139189047D01*
X187908586Y-138855714D02*
X187783586Y-139855714D01*
X187902633Y-138903333D02*
X188003824Y-138855714D01*
X188194300Y-138855714D01*
X188283586Y-138903333D01*
X188325252Y-138950952D01*
X188360967Y-139046190D01*
X188325252Y-139331904D01*
X188265729Y-139427142D01*
X188212157Y-139474761D01*
X188110967Y-139522380D01*
X187920491Y-139522380D01*
X187831205Y-139474761D01*
X189009776Y-139189047D02*
X189146681Y-139236666D01*
X189182395Y-139331904D01*
X189176443Y-139379523D01*
X189116919Y-139474761D01*
X189015729Y-139522380D01*
X188730014Y-139522380D01*
X188813348Y-138855714D01*
X189051443Y-138855714D01*
X189140729Y-138903333D01*
X189176443Y-138998571D01*
X189170491Y-139046190D01*
X189110967Y-139141428D01*
X189009776Y-139189047D01*
X188771681Y-139189047D01*
X190337157Y-138855714D02*
X190253824Y-139522380D01*
X189670491Y-138855714D02*
X189587157Y-139522380D01*
X189825252Y-139522380D01*
X189926443Y-139474761D01*
X189985967Y-139379523D01*
X190003824Y-139236666D01*
X189968110Y-139141428D01*
X189878824Y-139093809D01*
X189640729Y-139093809D01*
X190813348Y-138855714D02*
X190730014Y-139522380D01*
X191289538Y-138855714D01*
X191206205Y-139522380D01*
X190908586Y-138474761D02*
X190944300Y-138570000D01*
X191033586Y-138617619D01*
X191128824Y-138617619D01*
X191230014Y-138570000D01*
X191289538Y-138474761D01*
X192307395Y-139855714D02*
X192545491Y-139855714D01*
X192724062Y-138427142D01*
X192485967Y-138427142D01*
X193920491Y-139141428D02*
X194682395Y-139141428D01*
X195872872Y-139522380D02*
X195997872Y-138522380D01*
X196235967Y-138522380D01*
X196372872Y-138570000D01*
X196456205Y-138665238D01*
X196491919Y-138760476D01*
X196515729Y-138950952D01*
X196497872Y-139093809D01*
X196426443Y-139284285D01*
X196366919Y-139379523D01*
X196259776Y-139474761D01*
X196110967Y-139522380D01*
X195872872Y-139522380D01*
X197259776Y-139474761D02*
X197158586Y-139522380D01*
X196968110Y-139522380D01*
X196878824Y-139474761D01*
X196843110Y-139379523D01*
X196890729Y-138998571D01*
X196950252Y-138903333D01*
X197051443Y-138855714D01*
X197241919Y-138855714D01*
X197331205Y-138903333D01*
X197366919Y-138998571D01*
X197355014Y-139093809D01*
X196866919Y-139189047D01*
X197688348Y-139474761D02*
X197777633Y-139522380D01*
X197968110Y-139522380D01*
X198069300Y-139474761D01*
X198128824Y-139379523D01*
X198134776Y-139331904D01*
X198099062Y-139236666D01*
X198009776Y-139189047D01*
X197866919Y-139189047D01*
X197777633Y-139141428D01*
X197741919Y-139046190D01*
X197747872Y-138998571D01*
X197807395Y-138903333D01*
X197908586Y-138855714D01*
X198051443Y-138855714D01*
X198140729Y-138903333D01*
X198539538Y-139522380D02*
X198622872Y-138855714D01*
X198664538Y-138522380D02*
X198610967Y-138570000D01*
X198652633Y-138617619D01*
X198706205Y-138570000D01*
X198664538Y-138522380D01*
X198652633Y-138617619D01*
X199527633Y-138855714D02*
X199426443Y-139665238D01*
X199366919Y-139760476D01*
X199313348Y-139808095D01*
X199212157Y-139855714D01*
X199069300Y-139855714D01*
X198980014Y-139808095D01*
X199450252Y-139474761D02*
X199349062Y-139522380D01*
X199158586Y-139522380D01*
X199069300Y-139474761D01*
X199027633Y-139427142D01*
X198991919Y-139331904D01*
X199027633Y-139046190D01*
X199087157Y-138950952D01*
X199140729Y-138903333D01*
X199241919Y-138855714D01*
X199432395Y-138855714D01*
X199521681Y-138903333D01*
X200003824Y-138855714D02*
X199920491Y-139522380D01*
X199991919Y-138950952D02*
X200045491Y-138903333D01*
X200146681Y-138855714D01*
X200289538Y-138855714D01*
X200378824Y-138903333D01*
X200414538Y-138998571D01*
X200349062Y-139522380D01*
X201212157Y-139474761D02*
X201110967Y-139522380D01*
X200920491Y-139522380D01*
X200831205Y-139474761D01*
X200795491Y-139379523D01*
X200843110Y-138998571D01*
X200902633Y-138903333D01*
X201003824Y-138855714D01*
X201194300Y-138855714D01*
X201283586Y-138903333D01*
X201319300Y-138998571D01*
X201307395Y-139093809D01*
X200819300Y-139189047D01*
X202110967Y-139522380D02*
X202235967Y-138522380D01*
X202116919Y-139474761D02*
X202015729Y-139522380D01*
X201825252Y-139522380D01*
X201735967Y-139474761D01*
X201694300Y-139427142D01*
X201658586Y-139331904D01*
X201694300Y-139046190D01*
X201753824Y-138950952D01*
X201807395Y-138903333D01*
X201908586Y-138855714D01*
X202099062Y-138855714D01*
X202188348Y-138903333D01*
X203349062Y-139522380D02*
X203474062Y-138522380D01*
X203426443Y-138903333D02*
X203527633Y-138855714D01*
X203718110Y-138855714D01*
X203807395Y-138903333D01*
X203849062Y-138950952D01*
X203884776Y-139046190D01*
X203849062Y-139331904D01*
X203789538Y-139427142D01*
X203735967Y-139474761D01*
X203634776Y-139522380D01*
X203444300Y-139522380D01*
X203355014Y-139474761D01*
X204241919Y-138855714D02*
X204396681Y-139522380D01*
X204718110Y-138855714D02*
X204396681Y-139522380D01*
X204271681Y-139760476D01*
X204218110Y-139808095D01*
X204116919Y-139855714D01*
X205777633Y-139522380D02*
X205902633Y-138522380D01*
X206349062Y-139522380D02*
X205991919Y-138950952D01*
X206474062Y-138522380D02*
X205831205Y-139093809D01*
X206777633Y-139522380D02*
X206860967Y-138855714D01*
X206902633Y-138522380D02*
X206849062Y-138570000D01*
X206890729Y-138617619D01*
X206944300Y-138570000D01*
X206902633Y-138522380D01*
X206890729Y-138617619D01*
X207194300Y-138855714D02*
X207575252Y-138855714D01*
X207378824Y-138522380D02*
X207271681Y-139379523D01*
X207307395Y-139474761D01*
X207396681Y-139522380D01*
X207491919Y-139522380D01*
X207783586Y-139474761D02*
X207872872Y-139522380D01*
X208063348Y-139522380D01*
X208164538Y-139474761D01*
X208224062Y-139379523D01*
X208230014Y-139331904D01*
X208194300Y-139236666D01*
X208105014Y-139189047D01*
X207962157Y-139189047D01*
X207872872Y-139141428D01*
X207837157Y-139046190D01*
X207843110Y-138998571D01*
X207902633Y-138903333D01*
X208003824Y-138855714D01*
X208146681Y-138855714D01*
X208235967Y-138903333D01*
X209146681Y-138855714D02*
X209063348Y-139522380D01*
X208718110Y-138855714D02*
X208652633Y-139379523D01*
X208688348Y-139474761D01*
X208777633Y-139522380D01*
X208920491Y-139522380D01*
X209021681Y-139474761D01*
X209075252Y-139427142D01*
X209622872Y-138855714D02*
X209539538Y-139522380D01*
X209610967Y-138950952D02*
X209664538Y-138903333D01*
X209765729Y-138855714D01*
X209908586Y-138855714D01*
X209997872Y-138903333D01*
X210033586Y-138998571D01*
X209968110Y-139522380D01*
X210831205Y-139474761D02*
X210730014Y-139522380D01*
X210539538Y-139522380D01*
X210450252Y-139474761D01*
X210414538Y-139379523D01*
X210462157Y-138998571D01*
X210521681Y-138903333D01*
X210622872Y-138855714D01*
X210813348Y-138855714D01*
X210902633Y-138903333D01*
X210938348Y-138998571D01*
X210926443Y-139093809D01*
X210438348Y-139189047D01*
X31580000Y-137630000D02*
X30580000Y-137630000D01*
X30580000Y-136630000D02*
X30580000Y-137630000D01*
X44580000Y-123630000D02*
X43580000Y-123630000D01*
X44580000Y-124630000D02*
X44580000Y-123630000D01*
X44580000Y-137630000D02*
X44580000Y-136630000D01*
X43580000Y-137630000D02*
X44580000Y-137630000D01*
X30580000Y-123630000D02*
X31580000Y-123630000D01*
X30580000Y-124630000D02*
X30580000Y-123630000D01*
X106780000Y-86530000D02*
X106780000Y-85530000D01*
X106780000Y-85530000D02*
X107780000Y-85530000D01*
X119780000Y-99530000D02*
X120780000Y-99530000D01*
X120780000Y-99530000D02*
X120780000Y-98530000D01*
X120780000Y-86530000D02*
X120780000Y-85530000D01*
X120780000Y-85530000D02*
X119780000Y-85530000D01*
X106780000Y-98530000D02*
X106780000Y-99530000D01*
X107780000Y-99530000D02*
X106780000Y-99530000D01*
X123300000Y-111440000D02*
X122800000Y-110540000D01*
X122800000Y-110540000D02*
X123800000Y-110540000D01*
X123800000Y-110540000D02*
X123300000Y-111440000D01*
X122800000Y-111540000D02*
X123800000Y-111540000D01*
X122550000Y-108340000D02*
X122550000Y-113740000D01*
X122550000Y-113740000D02*
X124050000Y-113740000D01*
X124050000Y-113740000D02*
X124050000Y-108340000D01*
X124050000Y-108340000D02*
X122550000Y-108340000D01*
X180510000Y-93490000D02*
X180010000Y-92590000D01*
X180010000Y-92590000D02*
X181010000Y-92590000D01*
X181010000Y-92590000D02*
X180510000Y-93490000D01*
X180010000Y-93590000D02*
X181010000Y-93590000D01*
X179760000Y-90390000D02*
X179760000Y-95790000D01*
X179760000Y-95790000D02*
X181260000Y-95790000D01*
X181260000Y-95790000D02*
X181260000Y-90390000D01*
X181260000Y-90390000D02*
X179760000Y-90390000D01*
X245880000Y-99510000D02*
X244880000Y-99510000D01*
X244880000Y-98510000D02*
X244880000Y-99510000D01*
X258880000Y-85510000D02*
X257880000Y-85510000D01*
X258880000Y-86510000D02*
X258880000Y-85510000D01*
X258880000Y-99510000D02*
X258880000Y-98510000D01*
X257880000Y-99510000D02*
X258880000Y-99510000D01*
X244880000Y-85510000D02*
X245880000Y-85510000D01*
X244880000Y-86510000D02*
X244880000Y-85510000D01*
X47140000Y-93400000D02*
X46640000Y-92500000D01*
X46640000Y-92500000D02*
X47640000Y-92500000D01*
X47640000Y-92500000D02*
X47140000Y-93400000D01*
X46640000Y-93500000D02*
X47640000Y-93500000D01*
X46390000Y-90300000D02*
X46390000Y-95700000D01*
X46390000Y-95700000D02*
X47890000Y-95700000D01*
X47890000Y-95700000D02*
X47890000Y-90300000D01*
X47890000Y-90300000D02*
X46390000Y-90300000D01*
X66900000Y-90250000D02*
X65400000Y-90250000D01*
X66900000Y-95650000D02*
X66900000Y-90250000D01*
X65400000Y-95650000D02*
X66900000Y-95650000D01*
X65400000Y-90250000D02*
X65400000Y-95650000D01*
X65650000Y-93450000D02*
X66650000Y-93450000D01*
X66650000Y-92450000D02*
X66150000Y-93350000D01*
X65650000Y-92450000D02*
X66650000Y-92450000D01*
X66150000Y-93350000D02*
X65650000Y-92450000D01*
X85180000Y-93350000D02*
X84680000Y-92450000D01*
X84680000Y-92450000D02*
X85680000Y-92450000D01*
X85680000Y-92450000D02*
X85180000Y-93350000D01*
X84680000Y-93450000D02*
X85680000Y-93450000D01*
X84430000Y-90250000D02*
X84430000Y-95650000D01*
X84430000Y-95650000D02*
X85930000Y-95650000D01*
X85930000Y-95650000D02*
X85930000Y-90250000D01*
X85930000Y-90250000D02*
X84430000Y-90250000D01*
X105020000Y-90240000D02*
X103520000Y-90240000D01*
X105020000Y-95640000D02*
X105020000Y-90240000D01*
X103520000Y-95640000D02*
X105020000Y-95640000D01*
X103520000Y-90240000D02*
X103520000Y-95640000D01*
X103770000Y-93440000D02*
X104770000Y-93440000D01*
X104770000Y-92440000D02*
X104270000Y-93340000D01*
X103770000Y-92440000D02*
X104770000Y-92440000D01*
X104270000Y-93340000D02*
X103770000Y-92440000D01*
X124030000Y-90240000D02*
X122530000Y-90240000D01*
X124030000Y-95640000D02*
X124030000Y-90240000D01*
X122530000Y-95640000D02*
X124030000Y-95640000D01*
X122530000Y-90240000D02*
X122530000Y-95640000D01*
X122780000Y-93440000D02*
X123780000Y-93440000D01*
X123780000Y-92440000D02*
X123280000Y-93340000D01*
X122780000Y-92440000D02*
X123780000Y-92440000D01*
X123280000Y-93340000D02*
X122780000Y-92440000D01*
X142350000Y-93350000D02*
X141850000Y-92450000D01*
X141850000Y-92450000D02*
X142850000Y-92450000D01*
X142850000Y-92450000D02*
X142350000Y-93350000D01*
X141850000Y-93450000D02*
X142850000Y-93450000D01*
X141600000Y-90250000D02*
X141600000Y-95650000D01*
X141600000Y-95650000D02*
X143100000Y-95650000D01*
X143100000Y-95650000D02*
X143100000Y-90250000D01*
X143100000Y-90250000D02*
X141600000Y-90250000D01*
X161460000Y-93480000D02*
X160960000Y-92580000D01*
X160960000Y-92580000D02*
X161960000Y-92580000D01*
X161960000Y-92580000D02*
X161460000Y-93480000D01*
X160960000Y-93580000D02*
X161960000Y-93580000D01*
X160710000Y-90380000D02*
X160710000Y-95780000D01*
X160710000Y-95780000D02*
X162210000Y-95780000D01*
X162210000Y-95780000D02*
X162210000Y-90380000D01*
X162210000Y-90380000D02*
X160710000Y-90380000D01*
X200270000Y-90390000D02*
X198770000Y-90390000D01*
X200270000Y-95790000D02*
X200270000Y-90390000D01*
X198770000Y-95790000D02*
X200270000Y-95790000D01*
X198770000Y-90390000D02*
X198770000Y-95790000D01*
X199020000Y-93590000D02*
X200020000Y-93590000D01*
X200020000Y-92590000D02*
X199520000Y-93490000D01*
X199020000Y-92590000D02*
X200020000Y-92590000D01*
X199520000Y-93490000D02*
X199020000Y-92590000D01*
X218590000Y-93490000D02*
X218090000Y-92590000D01*
X218090000Y-92590000D02*
X219090000Y-92590000D01*
X219090000Y-92590000D02*
X218590000Y-93490000D01*
X218090000Y-93590000D02*
X219090000Y-93590000D01*
X217840000Y-90390000D02*
X217840000Y-95790000D01*
X217840000Y-95790000D02*
X219340000Y-95790000D01*
X219340000Y-95790000D02*
X219340000Y-90390000D01*
X219340000Y-90390000D02*
X217840000Y-90390000D01*
X238390000Y-90360000D02*
X236890000Y-90360000D01*
X238390000Y-95760000D02*
X238390000Y-90360000D01*
X236890000Y-95760000D02*
X238390000Y-95760000D01*
X236890000Y-90360000D02*
X236890000Y-95760000D01*
X237140000Y-93560000D02*
X238140000Y-93560000D01*
X238140000Y-92560000D02*
X237640000Y-93460000D01*
X237140000Y-92560000D02*
X238140000Y-92560000D01*
X237640000Y-93460000D02*
X237140000Y-92560000D01*
X261420000Y-93410000D02*
X260920000Y-92510000D01*
X260920000Y-92510000D02*
X261920000Y-92510000D01*
X261920000Y-92510000D02*
X261420000Y-93410000D01*
X260920000Y-93510000D02*
X261920000Y-93510000D01*
X260670000Y-90310000D02*
X260670000Y-95710000D01*
X260670000Y-95710000D02*
X262170000Y-95710000D01*
X262170000Y-95710000D02*
X262170000Y-90310000D01*
X262170000Y-90310000D02*
X260670000Y-90310000D01*
X47870000Y-107950000D02*
X46370000Y-107950000D01*
X47870000Y-113350000D02*
X47870000Y-107950000D01*
X46370000Y-113350000D02*
X47870000Y-113350000D01*
X46370000Y-107950000D02*
X46370000Y-113350000D01*
X46620000Y-111150000D02*
X47620000Y-111150000D01*
X47620000Y-110150000D02*
X47120000Y-111050000D01*
X46620000Y-110150000D02*
X47620000Y-110150000D01*
X47120000Y-111050000D02*
X46620000Y-110150000D01*
X66990000Y-108360000D02*
X65490000Y-108360000D01*
X66990000Y-113760000D02*
X66990000Y-108360000D01*
X65490000Y-113760000D02*
X66990000Y-113760000D01*
X65490000Y-108360000D02*
X65490000Y-113760000D01*
X65740000Y-111560000D02*
X66740000Y-111560000D01*
X66740000Y-110560000D02*
X66240000Y-111460000D01*
X65740000Y-110560000D02*
X66740000Y-110560000D01*
X66240000Y-111460000D02*
X65740000Y-110560000D01*
X85230000Y-111410000D02*
X84730000Y-110510000D01*
X84730000Y-110510000D02*
X85730000Y-110510000D01*
X85730000Y-110510000D02*
X85230000Y-111410000D01*
X84730000Y-111510000D02*
X85730000Y-111510000D01*
X84480000Y-108310000D02*
X84480000Y-113710000D01*
X84480000Y-113710000D02*
X85980000Y-113710000D01*
X85980000Y-113710000D02*
X85980000Y-108310000D01*
X85980000Y-108310000D02*
X84480000Y-108310000D01*
X104950000Y-108310000D02*
X103450000Y-108310000D01*
X104950000Y-113710000D02*
X104950000Y-108310000D01*
X103450000Y-113710000D02*
X104950000Y-113710000D01*
X103450000Y-108310000D02*
X103450000Y-113710000D01*
X103700000Y-111510000D02*
X104700000Y-111510000D01*
X104700000Y-110510000D02*
X104200000Y-111410000D01*
X103700000Y-110510000D02*
X104700000Y-110510000D01*
X104200000Y-111410000D02*
X103700000Y-110510000D01*
X143190000Y-108300000D02*
X141690000Y-108300000D01*
X143190000Y-113700000D02*
X143190000Y-108300000D01*
X141690000Y-113700000D02*
X143190000Y-113700000D01*
X141690000Y-108300000D02*
X141690000Y-113700000D01*
X141940000Y-111500000D02*
X142940000Y-111500000D01*
X142940000Y-110500000D02*
X142440000Y-111400000D01*
X141940000Y-110500000D02*
X142940000Y-110500000D01*
X142440000Y-111400000D02*
X141940000Y-110500000D01*
X161480000Y-110740000D02*
X160980000Y-109840000D01*
X160980000Y-109840000D02*
X161980000Y-109840000D01*
X161980000Y-109840000D02*
X161480000Y-110740000D01*
X160980000Y-110840000D02*
X161980000Y-110840000D01*
X160730000Y-107640000D02*
X160730000Y-113040000D01*
X160730000Y-113040000D02*
X162230000Y-113040000D01*
X162230000Y-113040000D02*
X162230000Y-107640000D01*
X162230000Y-107640000D02*
X160730000Y-107640000D01*
X181260000Y-107740000D02*
X179760000Y-107740000D01*
X181260000Y-113140000D02*
X181260000Y-107740000D01*
X179760000Y-113140000D02*
X181260000Y-113140000D01*
X179760000Y-107740000D02*
X179760000Y-113140000D01*
X180010000Y-110940000D02*
X181010000Y-110940000D01*
X181010000Y-109940000D02*
X180510000Y-110840000D01*
X180010000Y-109940000D02*
X181010000Y-109940000D01*
X180510000Y-110840000D02*
X180010000Y-109940000D01*
X199520000Y-110820000D02*
X199020000Y-109920000D01*
X199020000Y-109920000D02*
X200020000Y-109920000D01*
X200020000Y-109920000D02*
X199520000Y-110820000D01*
X199020000Y-110920000D02*
X200020000Y-110920000D01*
X198770000Y-107720000D02*
X198770000Y-113120000D01*
X198770000Y-113120000D02*
X200270000Y-113120000D01*
X200270000Y-113120000D02*
X200270000Y-107720000D01*
X200270000Y-107720000D02*
X198770000Y-107720000D01*
X219340000Y-107580000D02*
X217840000Y-107580000D01*
X219340000Y-112980000D02*
X219340000Y-107580000D01*
X217840000Y-112980000D02*
X219340000Y-112980000D01*
X217840000Y-107580000D02*
X217840000Y-112980000D01*
X218090000Y-110780000D02*
X219090000Y-110780000D01*
X219090000Y-109780000D02*
X218590000Y-110680000D01*
X218090000Y-109780000D02*
X219090000Y-109780000D01*
X218590000Y-110680000D02*
X218090000Y-109780000D01*
X237510000Y-110700000D02*
X237010000Y-109800000D01*
X237010000Y-109800000D02*
X238010000Y-109800000D01*
X238010000Y-109800000D02*
X237510000Y-110700000D01*
X237010000Y-110800000D02*
X238010000Y-110800000D01*
X236760000Y-107600000D02*
X236760000Y-113000000D01*
X236760000Y-113000000D02*
X238260000Y-113000000D01*
X238260000Y-113000000D02*
X238260000Y-107600000D01*
X238260000Y-107600000D02*
X236760000Y-107600000D01*
X47860000Y-126650000D02*
X46360000Y-126650000D01*
X47860000Y-132050000D02*
X47860000Y-126650000D01*
X46360000Y-132050000D02*
X47860000Y-132050000D01*
X46360000Y-126650000D02*
X46360000Y-132050000D01*
X46610000Y-129850000D02*
X47610000Y-129850000D01*
X47610000Y-128850000D02*
X47110000Y-129750000D01*
X46610000Y-128850000D02*
X47610000Y-128850000D01*
X47110000Y-129750000D02*
X46610000Y-128850000D01*
X66160000Y-129760000D02*
X65660000Y-128860000D01*
X65660000Y-128860000D02*
X66660000Y-128860000D01*
X66660000Y-128860000D02*
X66160000Y-129760000D01*
X65660000Y-129860000D02*
X66660000Y-129860000D01*
X65410000Y-126660000D02*
X65410000Y-132060000D01*
X65410000Y-132060000D02*
X66910000Y-132060000D01*
X66910000Y-132060000D02*
X66910000Y-126660000D01*
X66910000Y-126660000D02*
X65410000Y-126660000D01*
X85170000Y-129780000D02*
X84670000Y-128880000D01*
X84670000Y-128880000D02*
X85670000Y-128880000D01*
X85670000Y-128880000D02*
X85170000Y-129780000D01*
X84670000Y-129880000D02*
X85670000Y-129880000D01*
X84420000Y-126680000D02*
X84420000Y-132080000D01*
X84420000Y-132080000D02*
X85920000Y-132080000D01*
X85920000Y-132080000D02*
X85920000Y-126680000D01*
X85920000Y-126680000D02*
X84420000Y-126680000D01*
X104960000Y-126540000D02*
X103460000Y-126540000D01*
X104960000Y-131940000D02*
X104960000Y-126540000D01*
X103460000Y-131940000D02*
X104960000Y-131940000D01*
X103460000Y-126540000D02*
X103460000Y-131940000D01*
X103710000Y-129740000D02*
X104710000Y-129740000D01*
X104710000Y-128740000D02*
X104210000Y-129640000D01*
X103710000Y-128740000D02*
X104710000Y-128740000D01*
X104210000Y-129640000D02*
X103710000Y-128740000D01*
X123310000Y-129630000D02*
X122810000Y-128730000D01*
X122810000Y-128730000D02*
X123810000Y-128730000D01*
X123810000Y-128730000D02*
X123310000Y-129630000D01*
X122810000Y-129730000D02*
X123810000Y-129730000D01*
X122560000Y-126530000D02*
X122560000Y-131930000D01*
X122560000Y-131930000D02*
X124060000Y-131930000D01*
X124060000Y-131930000D02*
X124060000Y-126530000D01*
X124060000Y-126530000D02*
X122560000Y-126530000D01*
X143080000Y-126540000D02*
X141580000Y-126540000D01*
X143080000Y-131940000D02*
X143080000Y-126540000D01*
X141580000Y-131940000D02*
X143080000Y-131940000D01*
X141580000Y-126540000D02*
X141580000Y-131940000D01*
X141830000Y-129740000D02*
X142830000Y-129740000D01*
X142830000Y-128740000D02*
X142330000Y-129640000D01*
X141830000Y-128740000D02*
X142830000Y-128740000D01*
X142330000Y-129640000D02*
X141830000Y-128740000D01*
X243390000Y-131810000D02*
X242890000Y-130910000D01*
X242890000Y-130910000D02*
X243890000Y-130910000D01*
X243890000Y-130910000D02*
X243390000Y-131810000D01*
X242890000Y-131910000D02*
X243890000Y-131910000D01*
X242640000Y-128710000D02*
X242640000Y-134110000D01*
X242640000Y-134110000D02*
X244140000Y-134110000D01*
X244140000Y-134110000D02*
X244140000Y-128710000D01*
X244140000Y-128710000D02*
X242640000Y-128710000D01*
X162370000Y-126590000D02*
X160870000Y-126590000D01*
X162370000Y-131990000D02*
X162370000Y-126590000D01*
X160870000Y-131990000D02*
X162370000Y-131990000D01*
X160870000Y-126590000D02*
X160870000Y-131990000D01*
X161120000Y-129790000D02*
X162120000Y-129790000D01*
X162120000Y-128790000D02*
X161620000Y-129690000D01*
X161120000Y-128790000D02*
X162120000Y-128790000D01*
X161620000Y-129690000D02*
X161120000Y-128790000D01*
X181260000Y-126630000D02*
X179760000Y-126630000D01*
X181260000Y-132030000D02*
X181260000Y-126630000D01*
X179760000Y-132030000D02*
X181260000Y-132030000D01*
X179760000Y-126630000D02*
X179760000Y-132030000D01*
X180010000Y-129830000D02*
X181010000Y-129830000D01*
X181010000Y-128830000D02*
X180510000Y-129730000D01*
X180010000Y-128830000D02*
X181010000Y-128830000D01*
X180510000Y-129730000D02*
X180010000Y-128830000D01*
X205500000Y-129720000D02*
X205000000Y-128820000D01*
X205000000Y-128820000D02*
X206000000Y-128820000D01*
X206000000Y-128820000D02*
X205500000Y-129720000D01*
X205000000Y-129820000D02*
X206000000Y-129820000D01*
X204750000Y-126620000D02*
X204750000Y-132020000D01*
X204750000Y-132020000D02*
X206250000Y-132020000D01*
X206250000Y-132020000D02*
X206250000Y-126620000D01*
X206250000Y-126620000D02*
X204750000Y-126620000D01*
X244150000Y-116620000D02*
X242650000Y-116620000D01*
X244150000Y-122020000D02*
X244150000Y-116620000D01*
X242650000Y-122020000D02*
X244150000Y-122020000D01*
X242650000Y-116620000D02*
X242650000Y-122020000D01*
X242900000Y-119820000D02*
X243900000Y-119820000D01*
X243900000Y-118820000D02*
X243400000Y-119720000D01*
X242900000Y-118820000D02*
X243900000Y-118820000D01*
X243400000Y-119720000D02*
X242900000Y-118820000D01*
X29870000Y-99710000D02*
X35870000Y-99710000D01*
X35870000Y-99710000D02*
X35870000Y-99460000D01*
X29870000Y-99710000D02*
X29870000Y-99460000D01*
X29870000Y-96210000D02*
X29870000Y-96460000D01*
X29870000Y-96210000D02*
X35870000Y-96210000D01*
X35870000Y-96210000D02*
X35870000Y-96460000D01*
X31580000Y-99530000D02*
X30580000Y-99530000D01*
X30580000Y-98530000D02*
X30580000Y-99530000D01*
X44580000Y-85530000D02*
X43580000Y-85530000D01*
X44580000Y-86530000D02*
X44580000Y-85530000D01*
X44580000Y-99530000D02*
X44580000Y-98530000D01*
X43580000Y-99530000D02*
X44580000Y-99530000D01*
X30580000Y-85530000D02*
X31580000Y-85530000D01*
X30580000Y-86530000D02*
X30580000Y-85530000D01*
X49630000Y-86530000D02*
X49630000Y-85530000D01*
X49630000Y-85530000D02*
X50630000Y-85530000D01*
X62630000Y-99530000D02*
X63630000Y-99530000D01*
X63630000Y-99530000D02*
X63630000Y-98530000D01*
X63630000Y-86530000D02*
X63630000Y-85530000D01*
X63630000Y-85530000D02*
X62630000Y-85530000D01*
X49630000Y-98530000D02*
X49630000Y-99530000D01*
X50630000Y-99530000D02*
X49630000Y-99530000D01*
X69680000Y-99530000D02*
X68680000Y-99530000D01*
X68680000Y-98530000D02*
X68680000Y-99530000D01*
X82680000Y-85530000D02*
X81680000Y-85530000D01*
X82680000Y-86530000D02*
X82680000Y-85530000D01*
X82680000Y-99530000D02*
X82680000Y-98530000D01*
X81680000Y-99530000D02*
X82680000Y-99530000D01*
X68680000Y-85530000D02*
X69680000Y-85530000D01*
X68680000Y-86530000D02*
X68680000Y-85530000D01*
X88730000Y-99530000D02*
X87730000Y-99530000D01*
X87730000Y-98530000D02*
X87730000Y-99530000D01*
X101730000Y-85530000D02*
X100730000Y-85530000D01*
X101730000Y-86530000D02*
X101730000Y-85530000D01*
X101730000Y-99530000D02*
X101730000Y-98530000D01*
X100730000Y-99530000D02*
X101730000Y-99530000D01*
X87730000Y-85530000D02*
X88730000Y-85530000D01*
X87730000Y-86530000D02*
X87730000Y-85530000D01*
X125830000Y-86530000D02*
X125830000Y-85530000D01*
X125830000Y-85530000D02*
X126830000Y-85530000D01*
X138830000Y-99530000D02*
X139830000Y-99530000D01*
X139830000Y-99530000D02*
X139830000Y-98530000D01*
X139830000Y-86530000D02*
X139830000Y-85530000D01*
X139830000Y-85530000D02*
X138830000Y-85530000D01*
X125830000Y-98530000D02*
X125830000Y-99530000D01*
X126830000Y-99530000D02*
X125830000Y-99530000D01*
X144880000Y-86530000D02*
X144880000Y-85530000D01*
X144880000Y-85530000D02*
X145880000Y-85530000D01*
X157880000Y-99530000D02*
X158880000Y-99530000D01*
X158880000Y-99530000D02*
X158880000Y-98530000D01*
X158880000Y-86530000D02*
X158880000Y-85530000D01*
X158880000Y-85530000D02*
X157880000Y-85530000D01*
X144880000Y-98530000D02*
X144880000Y-99530000D01*
X145880000Y-99530000D02*
X144880000Y-99530000D01*
X164930000Y-99530000D02*
X163930000Y-99530000D01*
X163930000Y-98530000D02*
X163930000Y-99530000D01*
X177930000Y-85530000D02*
X176930000Y-85530000D01*
X177930000Y-86530000D02*
X177930000Y-85530000D01*
X177930000Y-99530000D02*
X177930000Y-98530000D01*
X176930000Y-99530000D02*
X177930000Y-99530000D01*
X163930000Y-85530000D02*
X164930000Y-85530000D01*
X163930000Y-86530000D02*
X163930000Y-85530000D01*
X183980000Y-99530000D02*
X182980000Y-99530000D01*
X182980000Y-98530000D02*
X182980000Y-99530000D01*
X196980000Y-85530000D02*
X195980000Y-85530000D01*
X196980000Y-86530000D02*
X196980000Y-85530000D01*
X196980000Y-99530000D02*
X196980000Y-98530000D01*
X195980000Y-99530000D02*
X196980000Y-99530000D01*
X182980000Y-85530000D02*
X183980000Y-85530000D01*
X182980000Y-86530000D02*
X182980000Y-85530000D01*
X202030000Y-86530000D02*
X202030000Y-85530000D01*
X202030000Y-85530000D02*
X203030000Y-85530000D01*
X215030000Y-99530000D02*
X216030000Y-99530000D01*
X216030000Y-99530000D02*
X216030000Y-98530000D01*
X216030000Y-86530000D02*
X216030000Y-85530000D01*
X216030000Y-85530000D02*
X215030000Y-85530000D01*
X202030000Y-98530000D02*
X202030000Y-99530000D01*
X203030000Y-99530000D02*
X202030000Y-99530000D01*
X221080000Y-86530000D02*
X221080000Y-85530000D01*
X221080000Y-85530000D02*
X222080000Y-85530000D01*
X234080000Y-99530000D02*
X235080000Y-99530000D01*
X235080000Y-99530000D02*
X235080000Y-98530000D01*
X235080000Y-86530000D02*
X235080000Y-85530000D01*
X235080000Y-85530000D02*
X234080000Y-85530000D01*
X221080000Y-98530000D02*
X221080000Y-99530000D01*
X222080000Y-99530000D02*
X221080000Y-99530000D01*
X30580000Y-105580000D02*
X30580000Y-104580000D01*
X30580000Y-104580000D02*
X31580000Y-104580000D01*
X43580000Y-118580000D02*
X44580000Y-118580000D01*
X44580000Y-118580000D02*
X44580000Y-117580000D01*
X44580000Y-105580000D02*
X44580000Y-104580000D01*
X44580000Y-104580000D02*
X43580000Y-104580000D01*
X30580000Y-117580000D02*
X30580000Y-118580000D01*
X31580000Y-118580000D02*
X30580000Y-118580000D01*
X49630000Y-105580000D02*
X49630000Y-104580000D01*
X49630000Y-104580000D02*
X50630000Y-104580000D01*
X62630000Y-118580000D02*
X63630000Y-118580000D01*
X63630000Y-118580000D02*
X63630000Y-117580000D01*
X63630000Y-105580000D02*
X63630000Y-104580000D01*
X63630000Y-104580000D02*
X62630000Y-104580000D01*
X49630000Y-117580000D02*
X49630000Y-118580000D01*
X50630000Y-118580000D02*
X49630000Y-118580000D01*
X69680000Y-118580000D02*
X68680000Y-118580000D01*
X68680000Y-117580000D02*
X68680000Y-118580000D01*
X82680000Y-104580000D02*
X81680000Y-104580000D01*
X82680000Y-105580000D02*
X82680000Y-104580000D01*
X82680000Y-118580000D02*
X82680000Y-117580000D01*
X81680000Y-118580000D02*
X82680000Y-118580000D01*
X68680000Y-104580000D02*
X69680000Y-104580000D01*
X68680000Y-105580000D02*
X68680000Y-104580000D01*
X88730000Y-118580000D02*
X87730000Y-118580000D01*
X87730000Y-117580000D02*
X87730000Y-118580000D01*
X101730000Y-104580000D02*
X100730000Y-104580000D01*
X101730000Y-105580000D02*
X101730000Y-104580000D01*
X101730000Y-118580000D02*
X101730000Y-117580000D01*
X100730000Y-118580000D02*
X101730000Y-118580000D01*
X87730000Y-104580000D02*
X88730000Y-104580000D01*
X87730000Y-105580000D02*
X87730000Y-104580000D01*
X107780000Y-118580000D02*
X106780000Y-118580000D01*
X106780000Y-117580000D02*
X106780000Y-118580000D01*
X120780000Y-104580000D02*
X119780000Y-104580000D01*
X120780000Y-105580000D02*
X120780000Y-104580000D01*
X120780000Y-118580000D02*
X120780000Y-117580000D01*
X119780000Y-118580000D02*
X120780000Y-118580000D01*
X106780000Y-104580000D02*
X107780000Y-104580000D01*
X106780000Y-105580000D02*
X106780000Y-104580000D01*
X125830000Y-105580000D02*
X125830000Y-104580000D01*
X125830000Y-104580000D02*
X126830000Y-104580000D01*
X138830000Y-118580000D02*
X139830000Y-118580000D01*
X139830000Y-118580000D02*
X139830000Y-117580000D01*
X139830000Y-105580000D02*
X139830000Y-104580000D01*
X139830000Y-104580000D02*
X138830000Y-104580000D01*
X125830000Y-117580000D02*
X125830000Y-118580000D01*
X126830000Y-118580000D02*
X125830000Y-118580000D01*
X144880000Y-105580000D02*
X144880000Y-104580000D01*
X144880000Y-104580000D02*
X145880000Y-104580000D01*
X157880000Y-118580000D02*
X158880000Y-118580000D01*
X158880000Y-118580000D02*
X158880000Y-117580000D01*
X158880000Y-105580000D02*
X158880000Y-104580000D01*
X158880000Y-104580000D02*
X157880000Y-104580000D01*
X144880000Y-117580000D02*
X144880000Y-118580000D01*
X145880000Y-118580000D02*
X144880000Y-118580000D01*
X163930000Y-105580000D02*
X163930000Y-104580000D01*
X163930000Y-104580000D02*
X164930000Y-104580000D01*
X176930000Y-118580000D02*
X177930000Y-118580000D01*
X177930000Y-118580000D02*
X177930000Y-117580000D01*
X177930000Y-105580000D02*
X177930000Y-104580000D01*
X177930000Y-104580000D02*
X176930000Y-104580000D01*
X163930000Y-117580000D02*
X163930000Y-118580000D01*
X164930000Y-118580000D02*
X163930000Y-118580000D01*
X182980000Y-105580000D02*
X182980000Y-104580000D01*
X182980000Y-104580000D02*
X183980000Y-104580000D01*
X195980000Y-118580000D02*
X196980000Y-118580000D01*
X196980000Y-118580000D02*
X196980000Y-117580000D01*
X196980000Y-105580000D02*
X196980000Y-104580000D01*
X196980000Y-104580000D02*
X195980000Y-104580000D01*
X182980000Y-117580000D02*
X182980000Y-118580000D01*
X183980000Y-118580000D02*
X182980000Y-118580000D01*
X203030000Y-118580000D02*
X202030000Y-118580000D01*
X202030000Y-117580000D02*
X202030000Y-118580000D01*
X216030000Y-104580000D02*
X215030000Y-104580000D01*
X216030000Y-105580000D02*
X216030000Y-104580000D01*
X216030000Y-118580000D02*
X216030000Y-117580000D01*
X215030000Y-118580000D02*
X216030000Y-118580000D01*
X202030000Y-104580000D02*
X203030000Y-104580000D01*
X202030000Y-105580000D02*
X202030000Y-104580000D01*
X222080000Y-118580000D02*
X221080000Y-118580000D01*
X221080000Y-117580000D02*
X221080000Y-118580000D01*
X235080000Y-104580000D02*
X234080000Y-104580000D01*
X235080000Y-105580000D02*
X235080000Y-104580000D01*
X235080000Y-118580000D02*
X235080000Y-117580000D01*
X234080000Y-118580000D02*
X235080000Y-118580000D01*
X221080000Y-104580000D02*
X222080000Y-104580000D01*
X221080000Y-105580000D02*
X221080000Y-104580000D01*
X49630000Y-124630000D02*
X49630000Y-123630000D01*
X49630000Y-123630000D02*
X50630000Y-123630000D01*
X62630000Y-137630000D02*
X63630000Y-137630000D01*
X63630000Y-137630000D02*
X63630000Y-136630000D01*
X63630000Y-124630000D02*
X63630000Y-123630000D01*
X63630000Y-123630000D02*
X62630000Y-123630000D01*
X49630000Y-136630000D02*
X49630000Y-137630000D01*
X50630000Y-137630000D02*
X49630000Y-137630000D01*
X69680000Y-137630000D02*
X68680000Y-137630000D01*
X68680000Y-136630000D02*
X68680000Y-137630000D01*
X82680000Y-123630000D02*
X81680000Y-123630000D01*
X82680000Y-124630000D02*
X82680000Y-123630000D01*
X82680000Y-137630000D02*
X82680000Y-136630000D01*
X81680000Y-137630000D02*
X82680000Y-137630000D01*
X68680000Y-123630000D02*
X69680000Y-123630000D01*
X68680000Y-124630000D02*
X68680000Y-123630000D01*
X88730000Y-137630000D02*
X87730000Y-137630000D01*
X87730000Y-136630000D02*
X87730000Y-137630000D01*
X101730000Y-123630000D02*
X100730000Y-123630000D01*
X101730000Y-124630000D02*
X101730000Y-123630000D01*
X101730000Y-137630000D02*
X101730000Y-136630000D01*
X100730000Y-137630000D02*
X101730000Y-137630000D01*
X87730000Y-123630000D02*
X88730000Y-123630000D01*
X87730000Y-124630000D02*
X87730000Y-123630000D01*
X107780000Y-137630000D02*
X106780000Y-137630000D01*
X106780000Y-136630000D02*
X106780000Y-137630000D01*
X120780000Y-123630000D02*
X119780000Y-123630000D01*
X120780000Y-124630000D02*
X120780000Y-123630000D01*
X120780000Y-137630000D02*
X120780000Y-136630000D01*
X119780000Y-137630000D02*
X120780000Y-137630000D01*
X106780000Y-123630000D02*
X107780000Y-123630000D01*
X106780000Y-124630000D02*
X106780000Y-123630000D01*
X126830000Y-137630000D02*
X125830000Y-137630000D01*
X125830000Y-136630000D02*
X125830000Y-137630000D01*
X139830000Y-123630000D02*
X138830000Y-123630000D01*
X139830000Y-124630000D02*
X139830000Y-123630000D01*
X139830000Y-137630000D02*
X139830000Y-136630000D01*
X138830000Y-137630000D02*
X139830000Y-137630000D01*
X125830000Y-123630000D02*
X126830000Y-123630000D01*
X125830000Y-124630000D02*
X125830000Y-123630000D01*
X144880000Y-124630000D02*
X144880000Y-123630000D01*
X144880000Y-123630000D02*
X145880000Y-123630000D01*
X157880000Y-137630000D02*
X158880000Y-137630000D01*
X158880000Y-137630000D02*
X158880000Y-136630000D01*
X158880000Y-124630000D02*
X158880000Y-123630000D01*
X158880000Y-123630000D02*
X157880000Y-123630000D01*
X144880000Y-136630000D02*
X144880000Y-137630000D01*
X145880000Y-137630000D02*
X144880000Y-137630000D01*
X163930000Y-124630000D02*
X163930000Y-123630000D01*
X163930000Y-123630000D02*
X164930000Y-123630000D01*
X176930000Y-137630000D02*
X177930000Y-137630000D01*
X177930000Y-137630000D02*
X177930000Y-136630000D01*
X177930000Y-124630000D02*
X177930000Y-123630000D01*
X177930000Y-123630000D02*
X176930000Y-123630000D01*
X163930000Y-136630000D02*
X163930000Y-137630000D01*
X164930000Y-137630000D02*
X163930000Y-137630000D01*
X185450000Y-124640000D02*
X185450000Y-123640000D01*
X185450000Y-123640000D02*
X186450000Y-123640000D01*
X198450000Y-137640000D02*
X199450000Y-137640000D01*
X199450000Y-137640000D02*
X199450000Y-136640000D01*
X199450000Y-124640000D02*
X199450000Y-123640000D01*
X199450000Y-123640000D02*
X198450000Y-123640000D01*
X185450000Y-136640000D02*
X185450000Y-137640000D01*
X186450000Y-137640000D02*
X185450000Y-137640000D01*
D12*
X32190000Y-119030000D02*
X62670000Y-119030000D01*
X62670000Y-119030000D02*
X62670000Y-101250000D01*
X62670000Y-101250000D02*
X32190000Y-101250000D01*
X32190000Y-116490000D02*
X34730000Y-116490000D01*
X34730000Y-116490000D02*
X34730000Y-119030000D01*
D10*
G36*
X38069360Y-105208432D02*
G01*
X38369360Y-105208432D01*
X38369360Y-105308432D01*
X38069360Y-105308432D01*
X38069360Y-105208432D01*
G37*
X38069360Y-105208432D02*
X38369360Y-105208432D01*
X38369360Y-105308432D01*
X38069360Y-105308432D01*
X38069360Y-105208432D01*
G36*
X38469360Y-105408432D02*
G01*
X38569360Y-105408432D01*
X38569360Y-105508432D01*
X38469360Y-105508432D01*
X38469360Y-105408432D01*
G37*
X38469360Y-105408432D02*
X38569360Y-105408432D01*
X38569360Y-105508432D01*
X38469360Y-105508432D01*
X38469360Y-105408432D01*
G36*
X38069360Y-105208432D02*
G01*
X38169360Y-105208432D01*
X38169360Y-105708432D01*
X38069360Y-105708432D01*
X38069360Y-105208432D01*
G37*
X38069360Y-105208432D02*
X38169360Y-105208432D01*
X38169360Y-105708432D01*
X38069360Y-105708432D01*
X38069360Y-105208432D01*
G36*
X38069360Y-105608432D02*
G01*
X38869360Y-105608432D01*
X38869360Y-105708432D01*
X38069360Y-105708432D01*
X38069360Y-105608432D01*
G37*
X38069360Y-105608432D02*
X38869360Y-105608432D01*
X38869360Y-105708432D01*
X38069360Y-105708432D01*
X38069360Y-105608432D01*
G36*
X38669360Y-105208432D02*
G01*
X38869360Y-105208432D01*
X38869360Y-105308432D01*
X38669360Y-105308432D01*
X38669360Y-105208432D01*
G37*
X38669360Y-105208432D02*
X38869360Y-105208432D01*
X38869360Y-105308432D01*
X38669360Y-105308432D01*
X38669360Y-105208432D01*
D12*
X32190000Y-101250000D02*
X29650000Y-101250000D01*
X29650000Y-101250000D02*
X29650000Y-119030000D01*
X29650000Y-119030000D02*
X32190000Y-119030000D01*
X32190000Y-116490000D02*
X32190000Y-119030000D01*
D10*
X41946666Y-139272380D02*
X41613333Y-138796190D01*
X41375238Y-139272380D02*
X41375238Y-138272380D01*
X41756190Y-138272380D01*
X41851428Y-138320000D01*
X41899047Y-138367619D01*
X41946666Y-138462857D01*
X41946666Y-138605714D01*
X41899047Y-138700952D01*
X41851428Y-138748571D01*
X41756190Y-138796190D01*
X41375238Y-138796190D01*
X42375238Y-138748571D02*
X42708571Y-138748571D01*
X42851428Y-139272380D02*
X42375238Y-139272380D01*
X42375238Y-138272380D01*
X42851428Y-138272380D01*
X43613333Y-138748571D02*
X43280000Y-138748571D01*
X43280000Y-139272380D02*
X43280000Y-138272380D01*
X43756190Y-138272380D01*
X44280000Y-138272380D02*
X44280000Y-138510476D01*
X44041904Y-138415238D02*
X44280000Y-138510476D01*
X44518095Y-138415238D01*
X44137142Y-138700952D02*
X44280000Y-138510476D01*
X44422857Y-138700952D01*
X45041904Y-138272380D02*
X45041904Y-138510476D01*
X44803809Y-138415238D02*
X45041904Y-138510476D01*
X45280000Y-138415238D01*
X44899047Y-138700952D02*
X45041904Y-138510476D01*
X45184761Y-138700952D01*
X42316666Y-84822380D02*
X41983333Y-84346190D01*
X41745238Y-84822380D02*
X41745238Y-83822380D01*
X42126190Y-83822380D01*
X42221428Y-83870000D01*
X42269047Y-83917619D01*
X42316666Y-84012857D01*
X42316666Y-84155714D01*
X42269047Y-84250952D01*
X42221428Y-84298571D01*
X42126190Y-84346190D01*
X41745238Y-84346190D01*
X42745238Y-84298571D02*
X43078571Y-84298571D01*
X43221428Y-84822380D02*
X42745238Y-84822380D01*
X42745238Y-83822380D01*
X43221428Y-83822380D01*
X43983333Y-84298571D02*
X43650000Y-84298571D01*
X43650000Y-84822380D02*
X43650000Y-83822380D01*
X44126190Y-83822380D01*
X44650000Y-83822380D02*
X44650000Y-84060476D01*
X44411904Y-83965238D02*
X44650000Y-84060476D01*
X44888095Y-83965238D01*
X44507142Y-84250952D02*
X44650000Y-84060476D01*
X44792857Y-84250952D01*
X45411904Y-83822380D02*
X45411904Y-84060476D01*
X45173809Y-83965238D02*
X45411904Y-84060476D01*
X45650000Y-83965238D01*
X45269047Y-84250952D02*
X45411904Y-84060476D01*
X45554761Y-84250952D01*
X137486666Y-84772380D02*
X137153333Y-84296190D01*
X136915238Y-84772380D02*
X136915238Y-83772380D01*
X137296190Y-83772380D01*
X137391428Y-83820000D01*
X137439047Y-83867619D01*
X137486666Y-83962857D01*
X137486666Y-84105714D01*
X137439047Y-84200952D01*
X137391428Y-84248571D01*
X137296190Y-84296190D01*
X136915238Y-84296190D01*
X137915238Y-84248571D02*
X138248571Y-84248571D01*
X138391428Y-84772380D02*
X137915238Y-84772380D01*
X137915238Y-83772380D01*
X138391428Y-83772380D01*
X139153333Y-84248571D02*
X138820000Y-84248571D01*
X138820000Y-84772380D02*
X138820000Y-83772380D01*
X139296190Y-83772380D01*
X139820000Y-83772380D02*
X139820000Y-84010476D01*
X139581904Y-83915238D02*
X139820000Y-84010476D01*
X140058095Y-83915238D01*
X139677142Y-84200952D02*
X139820000Y-84010476D01*
X139962857Y-84200952D01*
X140581904Y-83772380D02*
X140581904Y-84010476D01*
X140343809Y-83915238D02*
X140581904Y-84010476D01*
X140820000Y-83915238D01*
X140439047Y-84200952D02*
X140581904Y-84010476D01*
X140724761Y-84200952D01*
X240526666Y-139502380D02*
X240193333Y-139026190D01*
X239955238Y-139502380D02*
X239955238Y-138502380D01*
X240336190Y-138502380D01*
X240431428Y-138550000D01*
X240479047Y-138597619D01*
X240526666Y-138692857D01*
X240526666Y-138835714D01*
X240479047Y-138930952D01*
X240431428Y-138978571D01*
X240336190Y-139026190D01*
X239955238Y-139026190D01*
X240955238Y-138978571D02*
X241288571Y-138978571D01*
X241431428Y-139502380D02*
X240955238Y-139502380D01*
X240955238Y-138502380D01*
X241431428Y-138502380D01*
X242193333Y-138978571D02*
X241860000Y-138978571D01*
X241860000Y-139502380D02*
X241860000Y-138502380D01*
X242336190Y-138502380D01*
X242860000Y-138502380D02*
X242860000Y-138740476D01*
X242621904Y-138645238D02*
X242860000Y-138740476D01*
X243098095Y-138645238D01*
X242717142Y-138930952D02*
X242860000Y-138740476D01*
X243002857Y-138930952D01*
X243621904Y-138502380D02*
X243621904Y-138740476D01*
X243383809Y-138645238D02*
X243621904Y-138740476D01*
X243860000Y-138645238D01*
X243479047Y-138930952D02*
X243621904Y-138740476D01*
X243764761Y-138930952D01*
X241016666Y-88972380D02*
X240683333Y-88496190D01*
X240445238Y-88972380D02*
X240445238Y-87972380D01*
X240826190Y-87972380D01*
X240921428Y-88020000D01*
X240969047Y-88067619D01*
X241016666Y-88162857D01*
X241016666Y-88305714D01*
X240969047Y-88400952D01*
X240921428Y-88448571D01*
X240826190Y-88496190D01*
X240445238Y-88496190D01*
X241445238Y-88448571D02*
X241778571Y-88448571D01*
X241921428Y-88972380D02*
X241445238Y-88972380D01*
X241445238Y-87972380D01*
X241921428Y-87972380D01*
X242683333Y-88448571D02*
X242350000Y-88448571D01*
X242350000Y-88972380D02*
X242350000Y-87972380D01*
X242826190Y-87972380D01*
X243350000Y-87972380D02*
X243350000Y-88210476D01*
X243111904Y-88115238D02*
X243350000Y-88210476D01*
X243588095Y-88115238D01*
X243207142Y-88400952D02*
X243350000Y-88210476D01*
X243492857Y-88400952D01*
X244111904Y-87972380D02*
X244111904Y-88210476D01*
X243873809Y-88115238D02*
X244111904Y-88210476D01*
X244350000Y-88115238D01*
X243969047Y-88400952D02*
X244111904Y-88210476D01*
X244254761Y-88400952D01*
X31417619Y-98412380D02*
X31084285Y-97936190D01*
X30846190Y-98412380D02*
X30846190Y-97412380D01*
X31227142Y-97412380D01*
X31322380Y-97460000D01*
X31370000Y-97507619D01*
X31417619Y-97602857D01*
X31417619Y-97745714D01*
X31370000Y-97840952D01*
X31322380Y-97888571D01*
X31227142Y-97936190D01*
X30846190Y-97936190D01*
X31846190Y-97888571D02*
X32179523Y-97888571D01*
X32322380Y-98412380D02*
X31846190Y-98412380D01*
X31846190Y-97412380D01*
X32322380Y-97412380D01*
X32703333Y-98364761D02*
X32846190Y-98412380D01*
X33084285Y-98412380D01*
X33179523Y-98364761D01*
X33227142Y-98317142D01*
X33274761Y-98221904D01*
X33274761Y-98126666D01*
X33227142Y-98031428D01*
X33179523Y-97983809D01*
X33084285Y-97936190D01*
X32893809Y-97888571D01*
X32798571Y-97840952D01*
X32750952Y-97793333D01*
X32703333Y-97698095D01*
X32703333Y-97602857D01*
X32750952Y-97507619D01*
X32798571Y-97460000D01*
X32893809Y-97412380D01*
X33131904Y-97412380D01*
X33274761Y-97460000D01*
X33703333Y-97888571D02*
X34036666Y-97888571D01*
X34179523Y-98412380D02*
X33703333Y-98412380D01*
X33703333Y-97412380D01*
X34179523Y-97412380D01*
X34465238Y-97412380D02*
X35036666Y-97412380D01*
X34750952Y-98412380D02*
X34750952Y-97412380D01*
X225329047Y-127201428D02*
X226090952Y-127201428D01*
X225710000Y-127582380D02*
X225710000Y-126820476D01*
X222789047Y-127201428D02*
X223550952Y-127201428D01*
X257811428Y-120220952D02*
X257811428Y-119459047D01*
X257811428Y-122760952D02*
X257811428Y-121999047D01*
X258192380Y-122380000D02*
X257430476Y-122380000D01*
X58802857Y-105002809D02*
X58840952Y-104888523D01*
X58879047Y-104850428D01*
X58955238Y-104812333D01*
X59069523Y-104812333D01*
X59145714Y-104850428D01*
X59183809Y-104888523D01*
X59221904Y-104964714D01*
X59221904Y-105269476D01*
X58421904Y-105269476D01*
X58421904Y-105002809D01*
X58460000Y-104926619D01*
X58498095Y-104888523D01*
X58574285Y-104850428D01*
X58650476Y-104850428D01*
X58726666Y-104888523D01*
X58764761Y-104926619D01*
X58802857Y-105002809D01*
X58802857Y-105269476D01*
X58498095Y-104507571D02*
X58460000Y-104469476D01*
X58421904Y-104393285D01*
X58421904Y-104202809D01*
X58460000Y-104126619D01*
X58498095Y-104088523D01*
X58574285Y-104050428D01*
X58650476Y-104050428D01*
X58764761Y-104088523D01*
X59221904Y-104545666D01*
X59221904Y-104050428D01*
X51182857Y-104945666D02*
X51182857Y-105212333D01*
X51601904Y-105212333D02*
X50801904Y-105212333D01*
X50801904Y-104831380D01*
X50801904Y-104602809D02*
X50801904Y-104069476D01*
X51601904Y-104412333D01*
X48642857Y-104945666D02*
X48642857Y-105212333D01*
X49061904Y-105212333D02*
X48261904Y-105212333D01*
X48261904Y-104831380D01*
X48261904Y-104183761D02*
X48261904Y-104336142D01*
X48300000Y-104412333D01*
X48338095Y-104450428D01*
X48452380Y-104526619D01*
X48604761Y-104564714D01*
X48909523Y-104564714D01*
X48985714Y-104526619D01*
X49023809Y-104488523D01*
X49061904Y-104412333D01*
X49061904Y-104259952D01*
X49023809Y-104183761D01*
X48985714Y-104145666D01*
X48909523Y-104107571D01*
X48719047Y-104107571D01*
X48642857Y-104145666D01*
X48604761Y-104183761D01*
X48566666Y-104259952D01*
X48566666Y-104412333D01*
X48604761Y-104488523D01*
X48642857Y-104526619D01*
X48719047Y-104564714D01*
X46102857Y-104945666D02*
X46102857Y-105212333D01*
X46521904Y-105212333D02*
X45721904Y-105212333D01*
X45721904Y-104831380D01*
X45721904Y-104145666D02*
X45721904Y-104526619D01*
X46102857Y-104564714D01*
X46064761Y-104526619D01*
X46026666Y-104450428D01*
X46026666Y-104259952D01*
X46064761Y-104183761D01*
X46102857Y-104145666D01*
X46179047Y-104107571D01*
X46369523Y-104107571D01*
X46445714Y-104145666D01*
X46483809Y-104183761D01*
X46521904Y-104259952D01*
X46521904Y-104450428D01*
X46483809Y-104526619D01*
X46445714Y-104564714D01*
X33821904Y-105231380D02*
X33440952Y-105498047D01*
X33821904Y-105688523D02*
X33021904Y-105688523D01*
X33021904Y-105383761D01*
X33060000Y-105307571D01*
X33098095Y-105269476D01*
X33174285Y-105231380D01*
X33288571Y-105231380D01*
X33364761Y-105269476D01*
X33402857Y-105307571D01*
X33440952Y-105383761D01*
X33440952Y-105688523D01*
X33593333Y-104926619D02*
X33593333Y-104545666D01*
X33821904Y-105002809D02*
X33021904Y-104736142D01*
X33821904Y-104469476D01*
X33021904Y-104279000D02*
X33821904Y-104088523D01*
X33250476Y-103936142D01*
X33821904Y-103783761D01*
X33021904Y-103593285D01*
X35600000Y-105288523D02*
X35561904Y-105364714D01*
X35561904Y-105479000D01*
X35600000Y-105593285D01*
X35676190Y-105669476D01*
X35752380Y-105707571D01*
X35904761Y-105745666D01*
X36019047Y-105745666D01*
X36171428Y-105707571D01*
X36247619Y-105669476D01*
X36323809Y-105593285D01*
X36361904Y-105479000D01*
X36361904Y-105402809D01*
X36323809Y-105288523D01*
X36285714Y-105250428D01*
X36019047Y-105250428D01*
X36019047Y-105402809D01*
X36361904Y-104907571D02*
X35561904Y-104907571D01*
X36361904Y-104450428D01*
X35561904Y-104450428D01*
X36361904Y-104069476D02*
X35561904Y-104069476D01*
X35561904Y-103879000D01*
X35600000Y-103764714D01*
X35676190Y-103688523D01*
X35752380Y-103650428D01*
X35904761Y-103612333D01*
X36019047Y-103612333D01*
X36171428Y-103650428D01*
X36247619Y-103688523D01*
X36323809Y-103764714D01*
X36361904Y-103879000D01*
X36361904Y-104069476D01*
X38833809Y-104940213D02*
X38871904Y-104825927D01*
X38871904Y-104635451D01*
X38833809Y-104559260D01*
X38795714Y-104521165D01*
X38719523Y-104483070D01*
X38643333Y-104483070D01*
X38567142Y-104521165D01*
X38529047Y-104559260D01*
X38490952Y-104635451D01*
X38452857Y-104787832D01*
X38414761Y-104864022D01*
X38376666Y-104902118D01*
X38300476Y-104940213D01*
X38224285Y-104940213D01*
X38148095Y-104902118D01*
X38110000Y-104864022D01*
X38071904Y-104787832D01*
X38071904Y-104597356D01*
X38110000Y-104483070D01*
X38071904Y-104254499D02*
X38071904Y-103797356D01*
X38871904Y-104025927D02*
X38071904Y-104025927D01*
X40641904Y-105745666D02*
X41441904Y-105479000D01*
X40641904Y-105212333D01*
X41365714Y-104488523D02*
X41403809Y-104526619D01*
X41441904Y-104640904D01*
X41441904Y-104717095D01*
X41403809Y-104831380D01*
X41327619Y-104907571D01*
X41251428Y-104945666D01*
X41099047Y-104983761D01*
X40984761Y-104983761D01*
X40832380Y-104945666D01*
X40756190Y-104907571D01*
X40680000Y-104831380D01*
X40641904Y-104717095D01*
X40641904Y-104640904D01*
X40680000Y-104526619D01*
X40718095Y-104488523D01*
X41365714Y-103688523D02*
X41403809Y-103726619D01*
X41441904Y-103840904D01*
X41441904Y-103917095D01*
X41403809Y-104031380D01*
X41327619Y-104107571D01*
X41251428Y-104145666D01*
X41099047Y-104183761D01*
X40984761Y-104183761D01*
X40832380Y-104145666D01*
X40756190Y-104107571D01*
X40680000Y-104031380D01*
X40641904Y-103917095D01*
X40641904Y-103840904D01*
X40680000Y-103726619D01*
X40718095Y-103688523D01*
X43562857Y-104945666D02*
X43562857Y-105212333D01*
X43981904Y-105212333D02*
X43181904Y-105212333D01*
X43181904Y-104831380D01*
X43448571Y-104183761D02*
X43981904Y-104183761D01*
X43143809Y-104374238D02*
X43715238Y-104564714D01*
X43715238Y-104069476D01*
X53722857Y-105002809D02*
X53760952Y-104888523D01*
X53799047Y-104850428D01*
X53875238Y-104812333D01*
X53989523Y-104812333D01*
X54065714Y-104850428D01*
X54103809Y-104888523D01*
X54141904Y-104964714D01*
X54141904Y-105269476D01*
X53341904Y-105269476D01*
X53341904Y-105002809D01*
X53380000Y-104926619D01*
X53418095Y-104888523D01*
X53494285Y-104850428D01*
X53570476Y-104850428D01*
X53646666Y-104888523D01*
X53684761Y-104926619D01*
X53722857Y-105002809D01*
X53722857Y-105269476D01*
X54141904Y-104050428D02*
X54141904Y-104507571D01*
X54141904Y-104279000D02*
X53341904Y-104279000D01*
X53456190Y-104355190D01*
X53532380Y-104431380D01*
X53570476Y-104507571D01*
X56262857Y-105002809D02*
X56300952Y-104888523D01*
X56339047Y-104850428D01*
X56415238Y-104812333D01*
X56529523Y-104812333D01*
X56605714Y-104850428D01*
X56643809Y-104888523D01*
X56681904Y-104964714D01*
X56681904Y-105269476D01*
X55881904Y-105269476D01*
X55881904Y-105002809D01*
X55920000Y-104926619D01*
X55958095Y-104888523D01*
X56034285Y-104850428D01*
X56110476Y-104850428D01*
X56186666Y-104888523D01*
X56224761Y-104926619D01*
X56262857Y-105002809D01*
X56262857Y-105269476D01*
X55881904Y-104545666D02*
X55881904Y-104050428D01*
X56186666Y-104317095D01*
X56186666Y-104202809D01*
X56224761Y-104126619D01*
X56262857Y-104088523D01*
X56339047Y-104050428D01*
X56529523Y-104050428D01*
X56605714Y-104088523D01*
X56643809Y-104126619D01*
X56681904Y-104202809D01*
X56681904Y-104431380D01*
X56643809Y-104507571D01*
X56605714Y-104545666D01*
X61342857Y-105002809D02*
X61380952Y-104888523D01*
X61419047Y-104850428D01*
X61495238Y-104812333D01*
X61609523Y-104812333D01*
X61685714Y-104850428D01*
X61723809Y-104888523D01*
X61761904Y-104964714D01*
X61761904Y-105269476D01*
X60961904Y-105269476D01*
X60961904Y-105002809D01*
X61000000Y-104926619D01*
X61038095Y-104888523D01*
X61114285Y-104850428D01*
X61190476Y-104850428D01*
X61266666Y-104888523D01*
X61304761Y-104926619D01*
X61342857Y-105002809D01*
X61342857Y-105269476D01*
X60961904Y-104126619D02*
X60961904Y-104279000D01*
X61000000Y-104355190D01*
X61038095Y-104393285D01*
X61152380Y-104469476D01*
X61304761Y-104507571D01*
X61609523Y-104507571D01*
X61685714Y-104469476D01*
X61723809Y-104431380D01*
X61761904Y-104355190D01*
X61761904Y-104202809D01*
X61723809Y-104126619D01*
X61685714Y-104088523D01*
X61609523Y-104050428D01*
X61419047Y-104050428D01*
X61342857Y-104088523D01*
X61304761Y-104126619D01*
X61266666Y-104202809D01*
X61266666Y-104355190D01*
X61304761Y-104431380D01*
X61342857Y-104469476D01*
X61419047Y-104507571D01*
X61342857Y-115924809D02*
X61380952Y-115810523D01*
X61419047Y-115772428D01*
X61495238Y-115734333D01*
X61609523Y-115734333D01*
X61685714Y-115772428D01*
X61723809Y-115810523D01*
X61761904Y-115886714D01*
X61761904Y-116191476D01*
X60961904Y-116191476D01*
X60961904Y-115924809D01*
X61000000Y-115848619D01*
X61038095Y-115810523D01*
X61114285Y-115772428D01*
X61190476Y-115772428D01*
X61266666Y-115810523D01*
X61304761Y-115848619D01*
X61342857Y-115924809D01*
X61342857Y-116191476D01*
X60961904Y-115010523D02*
X60961904Y-115391476D01*
X61342857Y-115429571D01*
X61304761Y-115391476D01*
X61266666Y-115315285D01*
X61266666Y-115124809D01*
X61304761Y-115048619D01*
X61342857Y-115010523D01*
X61419047Y-114972428D01*
X61609523Y-114972428D01*
X61685714Y-115010523D01*
X61723809Y-115048619D01*
X61761904Y-115124809D01*
X61761904Y-115315285D01*
X61723809Y-115391476D01*
X61685714Y-115429571D01*
X58802857Y-115924809D02*
X58840952Y-115810523D01*
X58879047Y-115772428D01*
X58955238Y-115734333D01*
X59069523Y-115734333D01*
X59145714Y-115772428D01*
X59183809Y-115810523D01*
X59221904Y-115886714D01*
X59221904Y-116191476D01*
X58421904Y-116191476D01*
X58421904Y-115924809D01*
X58460000Y-115848619D01*
X58498095Y-115810523D01*
X58574285Y-115772428D01*
X58650476Y-115772428D01*
X58726666Y-115810523D01*
X58764761Y-115848619D01*
X58802857Y-115924809D01*
X58802857Y-116191476D01*
X58688571Y-115048619D02*
X59221904Y-115048619D01*
X58383809Y-115239095D02*
X58955238Y-115429571D01*
X58955238Y-114934333D01*
X56262857Y-116153380D02*
X56262857Y-115886714D01*
X56681904Y-115772428D02*
X56681904Y-116153380D01*
X55881904Y-116153380D01*
X55881904Y-115772428D01*
X55881904Y-115086714D02*
X55881904Y-115239095D01*
X55920000Y-115315285D01*
X55958095Y-115353380D01*
X56072380Y-115429571D01*
X56224761Y-115467666D01*
X56529523Y-115467666D01*
X56605714Y-115429571D01*
X56643809Y-115391476D01*
X56681904Y-115315285D01*
X56681904Y-115162904D01*
X56643809Y-115086714D01*
X56605714Y-115048619D01*
X56529523Y-115010523D01*
X56339047Y-115010523D01*
X56262857Y-115048619D01*
X56224761Y-115086714D01*
X56186666Y-115162904D01*
X56186666Y-115315285D01*
X56224761Y-115391476D01*
X56262857Y-115429571D01*
X56339047Y-115467666D01*
X54141904Y-116191476D02*
X53341904Y-116191476D01*
X53341904Y-116001000D01*
X53380000Y-115886714D01*
X53456190Y-115810523D01*
X53532380Y-115772428D01*
X53684761Y-115734333D01*
X53799047Y-115734333D01*
X53951428Y-115772428D01*
X54027619Y-115810523D01*
X54103809Y-115886714D01*
X54141904Y-116001000D01*
X54141904Y-116191476D01*
X53341904Y-115467666D02*
X53341904Y-114934333D01*
X54141904Y-115277190D01*
X51525714Y-115734333D02*
X51563809Y-115772428D01*
X51601904Y-115886714D01*
X51601904Y-115962904D01*
X51563809Y-116077190D01*
X51487619Y-116153380D01*
X51411428Y-116191476D01*
X51259047Y-116229571D01*
X51144761Y-116229571D01*
X50992380Y-116191476D01*
X50916190Y-116153380D01*
X50840000Y-116077190D01*
X50801904Y-115962904D01*
X50801904Y-115886714D01*
X50840000Y-115772428D01*
X50878095Y-115734333D01*
X50801904Y-115048619D02*
X50801904Y-115201000D01*
X50840000Y-115277190D01*
X50878095Y-115315285D01*
X50992380Y-115391476D01*
X51144761Y-115429571D01*
X51449523Y-115429571D01*
X51525714Y-115391476D01*
X51563809Y-115353380D01*
X51601904Y-115277190D01*
X51601904Y-115124809D01*
X51563809Y-115048619D01*
X51525714Y-115010523D01*
X51449523Y-114972428D01*
X51259047Y-114972428D01*
X51182857Y-115010523D01*
X51144761Y-115048619D01*
X51106666Y-115124809D01*
X51106666Y-115277190D01*
X51144761Y-115353380D01*
X51182857Y-115391476D01*
X51259047Y-115429571D01*
X49061904Y-116191476D02*
X48261904Y-116191476D01*
X48261904Y-116001000D01*
X48300000Y-115886714D01*
X48376190Y-115810523D01*
X48452380Y-115772428D01*
X48604761Y-115734333D01*
X48719047Y-115734333D01*
X48871428Y-115772428D01*
X48947619Y-115810523D01*
X49023809Y-115886714D01*
X49061904Y-116001000D01*
X49061904Y-116191476D01*
X48528571Y-115048619D02*
X49061904Y-115048619D01*
X48223809Y-115239095D02*
X48795238Y-115429571D01*
X48795238Y-114934333D01*
X38140000Y-116210523D02*
X38101904Y-116286714D01*
X38101904Y-116401000D01*
X38140000Y-116515285D01*
X38216190Y-116591476D01*
X38292380Y-116629571D01*
X38444761Y-116667666D01*
X38559047Y-116667666D01*
X38711428Y-116629571D01*
X38787619Y-116591476D01*
X38863809Y-116515285D01*
X38901904Y-116401000D01*
X38901904Y-116324809D01*
X38863809Y-116210523D01*
X38825714Y-116172428D01*
X38559047Y-116172428D01*
X38559047Y-116324809D01*
X38901904Y-115829571D02*
X38101904Y-115829571D01*
X38901904Y-115372428D01*
X38101904Y-115372428D01*
X38901904Y-114991476D02*
X38101904Y-114991476D01*
X38101904Y-114801000D01*
X38140000Y-114686714D01*
X38216190Y-114610523D01*
X38292380Y-114572428D01*
X38444761Y-114534333D01*
X38559047Y-114534333D01*
X38711428Y-114572428D01*
X38787619Y-114610523D01*
X38863809Y-114686714D01*
X38901904Y-114801000D01*
X38901904Y-114991476D01*
X40680000Y-116210523D02*
X40641904Y-116286714D01*
X40641904Y-116401000D01*
X40680000Y-116515285D01*
X40756190Y-116591476D01*
X40832380Y-116629571D01*
X40984761Y-116667666D01*
X41099047Y-116667666D01*
X41251428Y-116629571D01*
X41327619Y-116591476D01*
X41403809Y-116515285D01*
X41441904Y-116401000D01*
X41441904Y-116324809D01*
X41403809Y-116210523D01*
X41365714Y-116172428D01*
X41099047Y-116172428D01*
X41099047Y-116324809D01*
X41441904Y-115829571D02*
X40641904Y-115829571D01*
X41441904Y-115372428D01*
X40641904Y-115372428D01*
X41441904Y-114991476D02*
X40641904Y-114991476D01*
X40641904Y-114801000D01*
X40680000Y-114686714D01*
X40756190Y-114610523D01*
X40832380Y-114572428D01*
X40984761Y-114534333D01*
X41099047Y-114534333D01*
X41251428Y-114572428D01*
X41327619Y-114610523D01*
X41403809Y-114686714D01*
X41441904Y-114801000D01*
X41441904Y-114991476D01*
X43981904Y-116191476D02*
X43181904Y-116191476D01*
X43181904Y-116001000D01*
X43220000Y-115886714D01*
X43296190Y-115810523D01*
X43372380Y-115772428D01*
X43524761Y-115734333D01*
X43639047Y-115734333D01*
X43791428Y-115772428D01*
X43867619Y-115810523D01*
X43943809Y-115886714D01*
X43981904Y-116001000D01*
X43981904Y-116191476D01*
X43981904Y-114972428D02*
X43981904Y-115429571D01*
X43981904Y-115201000D02*
X43181904Y-115201000D01*
X43296190Y-115277190D01*
X43372380Y-115353380D01*
X43410476Y-115429571D01*
X46521904Y-116191476D02*
X45721904Y-116191476D01*
X45721904Y-116001000D01*
X45760000Y-115886714D01*
X45836190Y-115810523D01*
X45912380Y-115772428D01*
X46064761Y-115734333D01*
X46179047Y-115734333D01*
X46331428Y-115772428D01*
X46407619Y-115810523D01*
X46483809Y-115886714D01*
X46521904Y-116001000D01*
X46521904Y-116191476D01*
X45721904Y-115239095D02*
X45721904Y-115162904D01*
X45760000Y-115086714D01*
X45798095Y-115048619D01*
X45874285Y-115010523D01*
X46026666Y-114972428D01*
X46217142Y-114972428D01*
X46369523Y-115010523D01*
X46445714Y-115048619D01*
X46483809Y-115086714D01*
X46521904Y-115162904D01*
X46521904Y-115239095D01*
X46483809Y-115315285D01*
X46445714Y-115353380D01*
X46369523Y-115391476D01*
X46217142Y-115429571D01*
X46026666Y-115429571D01*
X45874285Y-115391476D01*
X45798095Y-115353380D01*
X45760000Y-115315285D01*
X45721904Y-115239095D01*
X36361904Y-116191476D02*
X35561904Y-116191476D01*
X35561904Y-116001000D01*
X35600000Y-115886714D01*
X35676190Y-115810523D01*
X35752380Y-115772428D01*
X35904761Y-115734333D01*
X36019047Y-115734333D01*
X36171428Y-115772428D01*
X36247619Y-115810523D01*
X36323809Y-115886714D01*
X36361904Y-116001000D01*
X36361904Y-116191476D01*
X35638095Y-115429571D02*
X35600000Y-115391476D01*
X35561904Y-115315285D01*
X35561904Y-115124809D01*
X35600000Y-115048619D01*
X35638095Y-115010523D01*
X35714285Y-114972428D01*
X35790476Y-114972428D01*
X35904761Y-115010523D01*
X36361904Y-115467666D01*
X36361904Y-114972428D01*
X33021904Y-115902348D02*
X33021904Y-115445205D01*
X33821904Y-115673776D02*
X33021904Y-115673776D01*
X33021904Y-115254729D02*
X33821904Y-114721395D01*
X33021904Y-114721395D02*
X33821904Y-115254729D01*
X33021904Y-114264252D02*
X33021904Y-114188062D01*
X33060000Y-114111872D01*
X33098095Y-114073776D01*
X33174285Y-114035681D01*
X33326666Y-113997586D01*
X33517142Y-113997586D01*
X33669523Y-114035681D01*
X33745714Y-114073776D01*
X33783809Y-114111872D01*
X33821904Y-114188062D01*
X33821904Y-114264252D01*
X33783809Y-114340443D01*
X33745714Y-114378538D01*
X33669523Y-114416633D01*
X33517142Y-114454729D01*
X33326666Y-114454729D01*
X33174285Y-114416633D01*
X33098095Y-114378538D01*
X33060000Y-114340443D01*
X33021904Y-114264252D01*
X32983809Y-113083300D02*
X34012380Y-113769014D01*
X33821904Y-112816633D02*
X33021904Y-112816633D01*
X33021904Y-112626157D01*
X33060000Y-112511872D01*
X33136190Y-112435681D01*
X33212380Y-112397586D01*
X33364761Y-112359491D01*
X33479047Y-112359491D01*
X33631428Y-112397586D01*
X33707619Y-112435681D01*
X33783809Y-112511872D01*
X33821904Y-112626157D01*
X33821904Y-112816633D01*
X33021904Y-112092824D02*
X33021904Y-111597586D01*
X33326666Y-111864252D01*
X33326666Y-111749967D01*
X33364761Y-111673776D01*
X33402857Y-111635681D01*
X33479047Y-111597586D01*
X33669523Y-111597586D01*
X33745714Y-111635681D01*
X33783809Y-111673776D01*
X33821904Y-111749967D01*
X33821904Y-111978538D01*
X33783809Y-112054729D01*
X33745714Y-112092824D01*
M02*
