<?xml version="1.0" encoding="utf-8"?>
<!-- Generator: Adobe Illustrator 24.0.0, SVG Export Plug-In . SVG Version: 6.00 Build 0)  -->
<svg version="1.1" id="レイヤー_1" xmlns="http://www.w3.org/2000/svg" xmlns:xlink="http://www.w3.org/1999/xlink" x="0px"
	 y="0px" viewBox="0 0 841.9 595.3" style="enable-background:new 0 0 841.9 595.3;" xml:space="preserve">
<style type="text/css">
	.st0{display:none;}
	
		.st1{display:inline;fill:#C2C200;fill-opacity:0;stroke:#C2C200;stroke-width:0.1417;stroke-linecap:round;stroke-linejoin:round;stroke-miterlimit:10;}
	.st2{fill:none;stroke:#FF0000;stroke-width:0.2835;stroke-linecap:round;stroke-linejoin:round;stroke-miterlimit:10;}
	.st3{fill:none;stroke:#0000FF;stroke-width:0.2835;stroke-linecap:round;stroke-linejoin:round;stroke-miterlimit:10;}
</style>
<title>SVG Picture created as 42Key-Dwgs_User.svg date 2020/11/21 21:56:45</title>
<desc>Picture generated by PCBNEW</desc>
<g transform="translate(0 0) scale(1 1)">
</g>
<g class="st0">
	<path class="st1" d="M112.2,256.7V217"/>
	<path class="st1" d="M151.9,256.7h-39.7"/>
	<path class="st1" d="M151.9,217v39.7"/>
	<path class="st1" d="M112.2,217.1h39.7"/>
</g>
<g>
	<path class="st2" d="M344.4,413.6l2.6,1.1"/>
	<path class="st2" d="M355.2,418l1.6,0.6"/>
	<path class="st2" d="M346.2,416.8l8.2,3.3"/>
	<path class="st2" d="M356.8,418.6l-1.6,4"/>
	<path class="st2" d="M355.1,422.6l-8.5-3.4"/>
	<path class="st2" d="M354.5,445.5l0.9-2.2"/>
	<path class="st2" d="M348,440.4l-0.9,2.2"/>
	<path class="st2" d="M342.4,422.8l-3.5,8.7"/>
	<path class="st2" d="M338.9,431.4l2.4,1"/>
	<path class="st2" d="M347,414.7l-0.8,2.1"/>
	<path class="st2" d="M347.1,442.5l7.4,3"/>
	<path class="st2" d="M341.3,432.4l-1.8,4.5"/>
	<path class="st2" d="M339.5,436.9l8.5,3.4"/>
	<path class="st2" d="M346.7,419.2l-1.8,4.5"/>
	<path class="st2" d="M344.8,423.7l-2.4-1"/>
	<path class="st2" d="M354.3,420.1l0.8-2.1"/>
	<path class="st2" d="M286.4,409.7l8.5,3.4"/>
	<path class="st2" d="M301.4,418.3l0.9-2.2"/>
	<path class="st2" d="M302.3,416.1l16.5,6.7"/>
	<path class="st2" d="M294.9,413.1l-0.9,2.2"/>
	<path class="st2" d="M320.6,418.2l2.6,1"/>
	<path class="st2" d="M318.8,422.8l1.8-4.5"/>
	<path class="st2" d="M294,415.3l7.4,3"/>
	<path class="st2" d="M326.7,410.6l-2.6-1"/>
	<path class="st2" d="M323.2,419.3l3.5-8.7"/>
	<path class="st2" d="M364.2,368.9l2.4,1"/>
	<path class="st2" d="M366.6,369.9l-1.8,4.5"/>
	<path class="st2" d="M370.1,361.2l-2.4-1"/>
	<path class="st2" d="M367.7,360.2l-3.5,8.7"/>
	<path class="st2" d="M373.2,377.8l-1.6,4"/>
	<path class="st2" d="M364.8,374.4l8.5,3.4"/>
	<path class="st2" d="M373.6,445.5l2.6,1"/>
	<path class="st2" d="M386.1,385.3l-0.8,2.1"/>
	<path class="st2" d="M317,333.9l-2.4-1"/>
	<path class="st2" d="M388.7,360.9l-7.4-3"/>
	<path class="st2" d="M379,432.3l-11.8-4.7"/>
	<path class="st2" d="M396.1,391.7l-2.6-1.1"/>
	<path class="st2" d="M369.6,426.3l8.2,3.3"/>
	<path class="st2" d="M380.4,360.1l-8.5-3.4"/>
	<path class="st2" d="M370.1,381.2l0.8-2.1"/>
	<path class="st2" d="M383.7,386.7l1.6-4"/>
	<path class="st2" d="M381.2,428.5l14.9-36.8"/>
	<path class="st2" d="M362.8,375.8l-0.8,2.1"/>
	<path class="st2" d="M378.6,427.4l2.6,1.1"/>
	<path class="st2" d="M377.1,436.8l1.8-4.5"/>
	<path class="st2" d="M359.3,376.8l-14.9,36.8"/>
	<path class="st2" d="M361.9,377.9l-2.6-1.1"/>
	<path class="st2" d="M371.8,450l1.8-4.5"/>
	<path class="st2" d="M370.9,379.1l-8.1-3.3"/>
	<path class="st2" d="M379.7,437.8l-2.6-1"/>
	<path class="st2" d="M371.6,381.8l-1.6-0.6"/>
	<path class="st2" d="M309.7,348.5l-0.8,2.1"/>
	<path class="st2" d="M367.2,427.5l1.6-4"/>
	<path class="st2" d="M317.8,351.8l-8.2-3.3"/>
	<path class="st2" d="M320.2,350.6l-1.6,4"/>
	<path class="st2" d="M311.7,347.1l8.5,3.4"/>
	<path class="st2" d="M370.4,424.1l-0.8,2.1"/>
	<path class="st2" d="M377.7,429.5l0.8-2.1"/>
	<path class="st2" d="M385.3,387.4l-1.6-0.6"/>
	<path class="st2" d="M368.8,423.5l1.6,0.6"/>
	<path class="st2" d="M394.3,388.5l-8.2-3.3"/>
	<path class="st2" d="M385.3,382.7l11.8,4.7"/>
	<path class="st2" d="M387.8,363.1l0.9-2.2"/>
	<path class="st2" d="M317,353.9l0.8-2.1"/>
	<path class="st2" d="M355.3,443.4l16.5,6.7"/>
	<path class="st2" d="M318.6,354.6l-1.6-0.6"/>
	<path class="st2" d="M393.4,390.6l0.8-2.1"/>
	<path class="st2" d="M313.5,342.6l-1.8,4.5"/>
	<path class="st2" d="M376.2,446.5l3.5-8.7"/>
	<path class="st2" d="M311.1,341.6l2.4,1"/>
	<path class="st2" d="M314.6,333l-3.5,8.7"/>
	<path class="st2" d="M381.3,357.9l-0.9,2.2"/>
	<path class="st2" d="M371.9,356.7l-1.8,4.5"/>
	<path class="st2" d="M267.5,398l2.6,1"/>
	<path class="st2" d="M296.4,326.7l-2.6-0.9"/>
	<path class="st2" d="M234.8,386l-1.7,4.6"/>
	<path class="st2" d="M274.5,380.7l13.6-37.3"/>
	<path class="st2" d="M262.8,378.9l8.3,3"/>
	<path class="st2" d="M277,334.8l11.9,4.3"/>
	<path class="st2" d="M270.1,398.9l3.2-8.8"/>
	<path class="st2" d="M248.1,371.1l1.6,0.6"/>
	<path class="st2" d="M249.7,371.7l-1.5,4.1"/>
	<path class="st2" d="M262.7,309.3l-1.7,4.6"/>
	<path class="st2" d="M288.9,339.2l1.7-4.6"/>
	<path class="st2" d="M277.1,339.5l-1.6-0.6"/>
	<path class="st2" d="M240.9,396l7.5,2.7"/>
	<path class="st2" d="M260.5,380.2l1.5-4.1"/>
	<path class="st2" d="M265.8,402.6l1.7-4.6"/>
	<path class="st2" d="M235.5,376.3l-3.2,8.8"/>
	<path class="st2" d="M293.8,325.8l1.7-4.6"/>
	<path class="st2" d="M293.2,335.5l3.2-8.8"/>
	<path class="st2" d="M248.2,375.8l-8.6-3.1"/>
	<path class="st2" d="M239.6,372.6l-1.7,4.6"/>
	<path class="st2" d="M241.7,393.8l-0.8,2.2"/>
	<path class="st2" d="M275.5,338.9l1.5-4.1"/>
	<path class="st2" d="M277.9,337.3l-0.8,2.1"/>
	<path class="st2" d="M232.3,385.1l2.4,0.9"/>
	<path class="st2" d="M263.6,376.8l-0.8,2.1"/>
	<path class="st2" d="M248.3,398.7l0.8-2.2"/>
	<path class="st2" d="M270.7,389.2l1.7-4.6"/>
	<path class="st2" d="M288.1,343.4l-2.7-1"/>
	<path class="st2" d="M249.1,396.5l16.7,6.1"/>
	<path class="st2" d="M262,376.2l1.6,0.6"/>
	<path class="st2" d="M271.3,312.4l-8.6-3.1"/>
	<path class="st2" d="M272.1,310.2l-0.8,2.2"/>
	<path class="st2" d="M279.6,312.9l-7.5-2.7"/>
	<path class="st2" d="M286.2,340.3l-8.3-3"/>
	<path class="st2" d="M285.4,342.5l0.8-2.1"/>
	<path class="st2" d="M295.5,321.2l-16.7-6.1"/>
	<path class="st2" d="M247.3,373.3l0.8-2.1"/>
	<path class="st2" d="M271,381.9l0.8-2.1"/>
	<path class="st2" d="M290.6,334.6l2.6,1"/>
	<path class="st2" d="M271.8,379.8l2.7,1"/>
	<path class="st2" d="M272.4,384.6l-11.9-4.3"/>
	<path class="st2" d="M238,377.2l-2.4-0.9"/>
	<path class="st2" d="M273.3,390.1l-2.6-1"/>
	<path class="st2" d="M233.1,390.6l8.6,3.1"/>
	<path class="st2" d="M278.8,315.1l0.8-2.2"/>
	<path class="st2" d="M318.9,329.4l-1.8,4.5"/>
	<path class="st2" d="M333.1,358l-0.8,2.1"/>
	<path class="st2" d="M340.4,363.4l0.8-2.1"/>
	<path class="st2" d="M316.5,399l8.1,3.3"/>
	<path class="st2" d="M291.4,386.4l2.6,1.1"/>
	<path class="st2" d="M261.7,333.8l0.8-2.1"/>
	<path class="st2" d="M264.8,330.4l-1.5,4.1"/>
	<path class="st2" d="M328.2,330.7l-0.9,2.2"/>
	<path class="st2" d="M293.1,389.5l8.2,3.3"/>
	<path class="st2" d="M351.9,348l-2.6-1"/>
	<path class="st2" d="M345.9,355.7l2.6,1"/>
	<path class="st2" d="M332.2,360.1l-1.6-0.6"/>
	<path class="st2" d="M341.2,361.3l-8.2-3.3"/>
	<path class="st2" d="M315.8,396.3l1.6,0.6"/>
	<path class="st2" d="M303.7,391.4l-1.6,4"/>
	<path class="st2" d="M328.1,401.2l14.9-36.8"/>
	<path class="st2" d="M302.1,390.7l1.6,0.6"/>
	<path class="st2" d="M293.6,391.9l-1.8,4.5"/>
	<path class="st2" d="M325.5,400.2l2.6,1.1"/>
	<path class="st2" d="M324.7,402.3l0.8-2.1"/>
	<path class="st2" d="M325.9,405l-11.8-4.7"/>
	<path class="st2" d="M288.3,405.2l-1.8,4.5"/>
	<path class="st2" d="M301.3,392.8l0.8-2.1"/>
	<path class="st2" d="M285.8,404.2l2.4,1"/>
	<path class="st2" d="M343,364.5l-2.6-1.1"/>
	<path class="st2" d="M263.3,334.4l-1.6-0.6"/>
	<path class="st2" d="M334.7,335.8l0.9-2.2"/>
	<path class="st2" d="M335.6,333.6l-7.4-3"/>
	<path class="st2" d="M348.4,356.7l3.5-8.7"/>
	<path class="st2" d="M294,387.4l-0.9,2.1"/>
	<path class="st2" d="M291.8,396.5l-2.4-1"/>
	<path class="st2" d="M317.4,396.9l-0.8,2.1"/>
	<path class="st2" d="M351.2,342.5l-16.5-6.7"/>
	<path class="st2" d="M349.4,347l1.8-4.5"/>
	<path class="st2" d="M332.3,355.5l11.8,4.8"/>
	<path class="st2" d="M306.2,349.6l-14.9,36.8"/>
	<path class="st2" d="M261,313.8l-2.4-0.9"/>
	<path class="st2" d="M239.1,370.3l8.3,3"/>
	<path class="st2" d="M239.9,368.1l-0.8,2.1"/>
	<path class="st2" d="M258.6,313l-3.2,8.8"/>
	<path class="st2" d="M302.1,395.4l-8.5-3.4"/>
	<path class="st2" d="M250.8,329.9l-13.6,37.3"/>
	<path class="st2" d="M237.2,367.2l2.7,1"/>
	<path class="st2" d="M257.8,322.6l-1.7,4.6"/>
	<path class="st2" d="M324.1,409.5l1.8-4.5"/>
	<path class="st2" d="M253.4,330.8l-2.7-1"/>
	<path class="st2" d="M254.2,328.7l-0.8,2.1"/>
	<path class="st2" d="M255.4,321.7l2.5,0.9"/>
	<path class="st2" d="M314.2,400.3l1.6-4"/>
	<path class="st2" d="M262.5,331.7l-8.3-3"/>
	<path class="st2" d="M256.2,327.2l8.6,3.1"/>
	<path class="st2" d="M327.4,332.8l-8.5-3.4"/>
	<path class="st2" d="M344,360.2l1.8-4.5"/>
	<path class="st2" d="M289.3,395.5l-3.5,8.7"/>
	<path class="st2" d="M330.7,359.5l1.6-4"/>
	<path class="st2" d="M308.9,350.7l-2.6-1.1"/>
	<path class="st2" d="M405,375.3l-2.6-1"/>
	<path class="st2" d="M398.9,382.9l2.6,1"/>
	<path class="st2" d="M401.5,384l3.5-8.7"/>
	<path class="st2" d="M404.2,369.7l-16.5-6.7"/>
	<path class="st2" d="M402.4,374.3l1.8-4.5"/>
	<path class="st2" d="M397.1,387.5l1.8-4.5"/>
	<path class="st3" d="M17.9,63.2v337.5"/>
	<path class="st3" d="M294.7,56.5h-270"/>
	<path class="st3" d="M301.4,137.5V63.2"/>
	<path class="st3" d="M409.4,144.2H308.2"/>
	<path class="st3" d="M24.7,407.5h189"/>
	<path class="st3" d="M416.2,461.5V151"/>
	<path class="st3" d="M409.4,468.2h-47.3"/>
	<path class="st3" d="M301.4,63.2c0-3.7-3-6.7-6.8-6.7"/>
	<path class="st3" d="M301.4,137.5c0,3.7,3,6.7,6.8,6.7l0,0"/>
	<path class="st3" d="M416.2,151c0-3.7-3-6.8-6.8-6.8l0,0"/>
	<path class="st3" d="M409.4,468.2c3.7,0,6.8-3,6.8-6.8"/>
	<path class="st3" d="M17.9,400.7c0,3.7,3,6.8,6.7,6.8"/>
	<path class="st3" d="M24.7,56.5c-3.7,0-6.7,3-6.7,6.7"/>
	<path class="st3" d="M213.7,407.5l148.5,60.8"/>
	<path class="st2" d="M25.1,184.4v-39.7"/>
	<path class="st2" d="M64.8,184.3H25.1"/>
	<path class="st2" d="M64.8,144.7v39.7"/>
	<path class="st2" d="M25.1,144.7h39.7"/>
	<g>
		<path class="st2" d="M25.1,238.3v-39.7"/>
		<path class="st2" d="M64.8,238.3H25.1"/>
		<path class="st2" d="M64.8,198.6v39.7"/>
		<path class="st2" d="M25.1,198.7h39.7"/>
	</g>
	<g>
		<path class="st2" d="M25.1,292.4v-39.7"/>
		<path class="st2" d="M64.8,292.3H25.1"/>
		<path class="st2" d="M64.8,252.7v39.7"/>
		<path class="st2" d="M25.1,252.7h39.7"/>
	</g>
	<g>
		<path class="st2" d="M79.1,211.4v-39.7"/>
		<path class="st2" d="M118.8,211.3H79.1"/>
		<path class="st2" d="M118.8,171.7v39.7"/>
		<path class="st2" d="M79.1,171.7h39.7"/>
	</g>
	<g>
		<path class="st2" d="M79.1,157.4v-39.7"/>
		<path class="st2" d="M118.8,157.3H79.1"/>
		<path class="st2" d="M118.8,117.7v39.7"/>
		<path class="st2" d="M79.1,117.7h39.7"/>
	</g>
	<g>
		<path class="st2" d="M79.1,103.4V63.7"/>
		<path class="st2" d="M118.8,103.3H79.1"/>
		<path class="st2" d="M118.8,63.7v39.7"/>
		<path class="st2" d="M79.1,63.7h39.7"/>
	</g>
	<g>
		<path class="st2" d="M133.1,103.4V63.7"/>
		<path class="st2" d="M172.8,103.3h-39.7"/>
		<path class="st2" d="M172.8,63.7v39.7"/>
		<path class="st2" d="M133.1,63.7h39.7"/>
	</g>
	<g>
		<path class="st2" d="M133.1,157.4v-39.7"/>
		<path class="st2" d="M172.8,157.3h-39.7"/>
		<path class="st2" d="M172.8,117.7v39.7"/>
		<path class="st2" d="M133.1,117.7h39.7"/>
	</g>
	<g>
		<path class="st2" d="M133.1,211.3v-39.7"/>
		<path class="st2" d="M172.8,211.3h-39.7"/>
		<path class="st2" d="M172.8,171.6v39.7"/>
		<path class="st2" d="M133.1,171.7h39.7"/>
	</g>
	<g>
		<path class="st2" d="M133.1,265.4v-39.7"/>
		<path class="st2" d="M172.8,265.3h-39.7"/>
		<path class="st2" d="M172.8,225.7v39.7"/>
		<path class="st2" d="M133.1,225.7h39.7"/>
	</g>
	<g>
		<path class="st2" d="M187.1,332.9v-39.7"/>
		<path class="st2" d="M226.8,332.8h-39.7"/>
		<path class="st2" d="M226.8,293.2v39.7"/>
		<path class="st2" d="M187.1,293.2h39.7"/>
	</g>
	<g>
		<path class="st2" d="M187.1,251.8v-39.7"/>
		<path class="st2" d="M226.8,251.8h-39.7"/>
		<path class="st2" d="M226.8,212.1v39.7"/>
		<path class="st2" d="M187.1,212.2h39.7"/>
	</g>
	<g>
		<path class="st2" d="M187.1,197.9v-39.7"/>
		<path class="st2" d="M226.8,197.8h-39.7"/>
		<path class="st2" d="M226.8,158.2v39.7"/>
		<path class="st2" d="M187.1,158.2h39.7"/>
	</g>
	<g>
		<path class="st2" d="M187.1,143.9v-39.7"/>
		<path class="st2" d="M226.8,143.9h-39.7"/>
		<path class="st2" d="M226.8,104.2v39.7"/>
		<path class="st2" d="M187.1,104.2h39.7"/>
	</g>
	<g>
		<path class="st2" d="M241.1,170.9v-39.7"/>
		<path class="st2" d="M280.8,170.8h-39.7"/>
		<path class="st2" d="M280.8,131.2v39.7"/>
		<path class="st2" d="M241.1,131.2h39.7"/>
	</g>
	<g>
		<path class="st2" d="M241.1,224.8v-39.7"/>
		<path class="st2" d="M280.8,224.8h-39.7"/>
		<path class="st2" d="M280.8,185.1v39.7"/>
		<path class="st2" d="M241.1,185.2h39.7"/>
	</g>
	<g>
		<path class="st2" d="M241.1,278.9v-39.7"/>
		<path class="st2" d="M280.8,278.8h-39.7"/>
		<path class="st2" d="M280.8,239.2v39.7"/>
		<path class="st2" d="M241.1,239.2h39.7"/>
	</g>
	<circle class="st2" cx="31.4" cy="70" r="3.1"/>
	<circle class="st2" cx="125.9" cy="164.5" r="3.1"/>
	<circle class="st2" cx="31.4" cy="394" r="3.1"/>
	<circle class="st2" cx="206.9" cy="394" r="3.1"/>
	<circle class="st2" cx="402.7" cy="454.7" r="3.1"/>
	<circle class="st2" cx="348.7" cy="157.7" r="3.1"/>
	<circle class="st2" cx="281.2" cy="70" r="3.1"/>
</g>
<g>
	<path class="st2" d="M754.1,425.5l2.6,1.1"/>
	<path class="st2" d="M764.9,429.9l1.6,0.6"/>
	<path class="st2" d="M755.9,428.7l8.2,3.3"/>
	<path class="st2" d="M766.5,430.5l-1.6,4"/>
	<path class="st2" d="M764.8,434.5l-8.5-3.4"/>
	<path class="st2" d="M764.1,457.4l0.9-2.2"/>
	<path class="st2" d="M757.7,452.3l-0.9,2.2"/>
	<path class="st2" d="M752.1,434.7l-3.5,8.7"/>
	<path class="st2" d="M748.6,443.3l2.4,1"/>
	<path class="st2" d="M756.7,426.6l-0.8,2.1"/>
	<path class="st2" d="M756.8,454.4l7.4,3"/>
	<path class="st2" d="M751,444.3l-1.8,4.5"/>
	<path class="st2" d="M749.2,448.8l8.5,3.4"/>
	<path class="st2" d="M756.3,431.1l-1.8,4.5"/>
	<path class="st2" d="M754.5,435.6l-2.4-1"/>
	<path class="st2" d="M764,432l0.8-2.1"/>
	<path class="st2" d="M696.1,421.6l8.5,3.4"/>
	<path class="st2" d="M711.1,430.2l0.9-2.2"/>
	<path class="st2" d="M712,428l16.5,6.7"/>
	<path class="st2" d="M704.6,425l-0.9,2.2"/>
	<path class="st2" d="M730.3,430.1l2.6,1"/>
	<path class="st2" d="M728.4,434.6l1.8-4.5"/>
	<path class="st2" d="M703.7,427.2l7.4,3"/>
	<path class="st2" d="M736.4,422.5l-2.6-1"/>
	<path class="st2" d="M732.9,431.2l3.5-8.7"/>
	<path class="st2" d="M773.9,380.8l2.4,1"/>
	<path class="st2" d="M776.3,381.8l-1.8,4.5"/>
	<path class="st2" d="M779.8,373.1l-2.4-1"/>
	<path class="st2" d="M777.4,372.1l-3.5,8.7"/>
	<path class="st2" d="M782.9,389.7l-1.6,4"/>
	<path class="st2" d="M774.4,386.3l8.5,3.4"/>
	<path class="st2" d="M783.3,457.4l2.6,1"/>
	<path class="st2" d="M795.8,397.2l-0.8,2.1"/>
	<path class="st2" d="M726.7,345.8l-2.4-1"/>
	<path class="st2" d="M798.3,372.8l-7.4-3"/>
	<path class="st2" d="M788.7,444.2l-11.8-4.7"/>
	<path class="st2" d="M805.8,403.6l-2.6-1.1"/>
	<path class="st2" d="M779.3,438.1l8.2,3.3"/>
	<path class="st2" d="M790.1,372l-8.5-3.4"/>
	<path class="st2" d="M779.7,393.1l0.8-2.1"/>
	<path class="st2" d="M793.4,398.6l1.6-4"/>
	<path class="st2" d="M790.9,440.4l14.9-36.8"/>
	<path class="st2" d="M772.4,387.7l-0.8,2.1"/>
	<path class="st2" d="M788.3,439.3l2.6,1.1"/>
	<path class="st2" d="M786.8,448.7l1.8-4.5"/>
	<path class="st2" d="M769,388.7l-14.9,36.8"/>
	<path class="st2" d="M771.6,389.8l-2.6-1.1"/>
	<path class="st2" d="M781.5,461.9l1.8-4.5"/>
	<path class="st2" d="M780.6,391l-8.1-3.3"/>
	<path class="st2" d="M789.4,449.7l-2.6-1"/>
	<path class="st2" d="M781.3,393.7l-1.6-0.6"/>
	<path class="st2" d="M719.4,360.4l-0.8,2.1"/>
	<path class="st2" d="M776.9,439.4l1.6-4"/>
	<path class="st2" d="M727.5,363.7l-8.2-3.3"/>
	<path class="st2" d="M729.9,362.5l-1.6,4"/>
	<path class="st2" d="M721.4,359l8.5,3.4"/>
	<path class="st2" d="M780.1,436l-0.8,2.1"/>
	<path class="st2" d="M787.4,441.4l0.8-2.1"/>
	<path class="st2" d="M795,399.3l-1.6-0.6"/>
	<path class="st2" d="M778.5,435.4l1.6,0.6"/>
	<path class="st2" d="M804,400.4l-8.2-3.3"/>
	<path class="st2" d="M795,394.6l11.8,4.7"/>
	<path class="st2" d="M797.5,375l0.9-2.2"/>
	<path class="st2" d="M726.7,365.8l0.8-2.1"/>
	<path class="st2" d="M765,455.2l16.5,6.7"/>
	<path class="st2" d="M728.3,366.5l-1.6-0.6"/>
	<path class="st2" d="M803.1,402.5l0.8-2.1"/>
	<path class="st2" d="M723.2,354.5l-1.8,4.5"/>
	<path class="st2" d="M785.9,458.4l3.5-8.7"/>
	<path class="st2" d="M720.8,353.5l2.4,1"/>
	<path class="st2" d="M724.3,344.8l-3.5,8.7"/>
	<path class="st2" d="M791,369.8l-0.9,2.2"/>
	<path class="st2" d="M781.6,368.6l-1.8,4.5"/>
	<path class="st2" d="M677.2,409.9l2.6,1"/>
	<path class="st2" d="M706.1,338.6l-2.6-0.9"/>
	<path class="st2" d="M644.4,397.9l-1.7,4.6"/>
	<path class="st2" d="M684.2,392.6l13.6-37.3"/>
	<path class="st2" d="M672.5,390.8l8.3,3"/>
	<path class="st2" d="M686.7,346.7l11.9,4.3"/>
	<path class="st2" d="M679.8,410.8l3.2-8.8"/>
	<path class="st2" d="M657.8,383l1.6,0.6"/>
	<path class="st2" d="M659.4,383.6l-1.5,4.1"/>
	<path class="st2" d="M672.4,321.1l-1.7,4.6"/>
	<path class="st2" d="M698.6,351l1.7-4.6"/>
	<path class="st2" d="M686.8,351.4l-1.6-0.6"/>
	<path class="st2" d="M650.6,407.8l7.5,2.7"/>
	<path class="st2" d="M670.2,392.1l1.5-4.1"/>
	<path class="st2" d="M675.5,414.5l1.7-4.6"/>
	<path class="st2" d="M645.2,388.2L642,397"/>
	<path class="st2" d="M703.5,337.7l1.7-4.6"/>
	<path class="st2" d="M702.9,347.4l3.2-8.8"/>
	<path class="st2" d="M657.9,387.7l-8.6-3.1"/>
	<path class="st2" d="M649.3,384.5l-1.7,4.6"/>
	<path class="st2" d="M651.4,405.7l-0.8,2.2"/>
	<path class="st2" d="M685.2,350.8l1.5-4.1"/>
	<path class="st2" d="M687.6,349.2l-0.8,2.1"/>
	<path class="st2" d="M642,397l2.4,0.9"/>
	<path class="st2" d="M673.2,388.7l-0.8,2.1"/>
	<path class="st2" d="M658,410.6l0.8-2.2"/>
	<path class="st2" d="M680.4,401.1l1.7-4.6"/>
	<path class="st2" d="M697.7,355.3l-2.7-1"/>
	<path class="st2" d="M658.8,408.4l16.7,6.1"/>
	<path class="st2" d="M671.7,388.1l1.6,0.6"/>
	<path class="st2" d="M681,324.3l-8.6-3.1"/>
	<path class="st2" d="M681.8,322.1l-0.8,2.2"/>
	<path class="st2" d="M689.3,324.8l-7.5-2.7"/>
	<path class="st2" d="M695.9,352.2l-8.3-3"/>
	<path class="st2" d="M695.1,354.4l0.8-2.1"/>
	<path class="st2" d="M705.2,333.1l-16.7-6.1"/>
	<path class="st2" d="M657,385.2l0.8-2.1"/>
	<path class="st2" d="M680.7,393.8l0.8-2.1"/>
	<path class="st2" d="M700.3,346.5l2.6,1"/>
	<path class="st2" d="M681.5,391.7l2.7,1"/>
	<path class="st2" d="M682.1,396.5l-11.9-4.3"/>
	<path class="st2" d="M647.6,389.1l-2.4-0.9"/>
	<path class="st2" d="M683,402l-2.6-1"/>
	<path class="st2" d="M642.8,402.5l8.6,3.1"/>
	<path class="st2" d="M688.5,327l0.8-2.2"/>
	<path class="st2" d="M728.6,341.3l-1.8,4.5"/>
	<path class="st2" d="M742.8,369.9l-0.8,2.1"/>
	<path class="st2" d="M750.1,375.3l0.8-2.1"/>
	<path class="st2" d="M726.2,410.9l8.1,3.3"/>
	<path class="st2" d="M701,398.3l2.6,1.1"/>
	<path class="st2" d="M671.4,345.7l0.8-2.1"/>
	<path class="st2" d="M674.4,342.3l-1.5,4.1"/>
	<path class="st2" d="M737.9,342.6l-0.9,2.2"/>
	<path class="st2" d="M702.8,401.4l8.2,3.3"/>
	<path class="st2" d="M761.6,359.9l-2.6-1"/>
	<path class="st2" d="M755.5,367.6l2.6,1"/>
	<path class="st2" d="M741.9,372l-1.6-0.6"/>
	<path class="st2" d="M750.9,373.2l-8.2-3.3"/>
	<path class="st2" d="M725.5,408.2l1.6,0.6"/>
	<path class="st2" d="M713.4,403.3l-1.6,4"/>
	<path class="st2" d="M737.8,413.1l14.9-36.8"/>
	<path class="st2" d="M711.8,402.6l1.6,0.6"/>
	<path class="st2" d="M703.3,403.8l-1.8,4.5"/>
	<path class="st2" d="M735.2,412.1l2.6,1.1"/>
	<path class="st2" d="M734.4,414.2l0.8-2.1"/>
	<path class="st2" d="M735.6,416.9l-11.8-4.7"/>
	<path class="st2" d="M697.9,417.1l-1.8,4.5"/>
	<path class="st2" d="M711,404.7l0.8-2.1"/>
	<path class="st2" d="M695.5,416.1l2.4,1"/>
	<path class="st2" d="M752.7,376.3l-2.6-1.1"/>
	<path class="st2" d="M673,346.3l-1.6-0.6"/>
	<path class="st2" d="M744.4,347.7l0.9-2.2"/>
	<path class="st2" d="M745.3,345.5l-7.4-3"/>
	<path class="st2" d="M758.1,368.6l3.5-8.7"/>
	<path class="st2" d="M703.7,399.3l-0.9,2.1"/>
	<path class="st2" d="M701.5,408.4l-2.4-1"/>
	<path class="st2" d="M727.1,408.8l-0.8,2.1"/>
	<path class="st2" d="M760.9,354.4l-16.5-6.7"/>
	<path class="st2" d="M759.1,358.9l1.8-4.5"/>
	<path class="st2" d="M742,367.3l11.8,4.8"/>
	<path class="st2" d="M715.9,361.5L701,398.3"/>
	<path class="st2" d="M670.7,325.7l-2.4-0.9"/>
	<path class="st2" d="M648.8,382.2l8.3,3"/>
	<path class="st2" d="M649.5,380l-0.8,2.1"/>
	<path class="st2" d="M668.3,324.9l-3.2,8.8"/>
	<path class="st2" d="M711.8,407.3l-8.5-3.4"/>
	<path class="st2" d="M660.5,341.8l-13.6,37.3"/>
	<path class="st2" d="M646.9,379.1l2.7,1"/>
	<path class="st2" d="M667.5,334.5l-1.7,4.6"/>
	<path class="st2" d="M733.8,421.4l1.8-4.5"/>
	<path class="st2" d="M663.1,342.7l-2.7-1"/>
	<path class="st2" d="M663.9,340.6l-0.8,2.1"/>
	<path class="st2" d="M665.1,333.6l2.5,0.9"/>
	<path class="st2" d="M723.9,412.2l1.6-4"/>
	<path class="st2" d="M672.2,343.6l-8.3-3"/>
	<path class="st2" d="M665.8,339.1l8.6,3.1"/>
	<path class="st2" d="M737.1,344.7l-8.5-3.4"/>
	<path class="st2" d="M753.7,372.1l1.8-4.5"/>
	<path class="st2" d="M699,407.4l-3.5,8.7"/>
	<path class="st2" d="M740.4,371.4l1.6-4"/>
	<path class="st2" d="M718.5,362.5l-2.6-1.1"/>
	<path class="st2" d="M814.7,387.2l-2.6-1"/>
	<path class="st2" d="M808.6,394.8l2.6,1"/>
	<path class="st2" d="M811.2,395.9l3.5-8.7"/>
	<path class="st2" d="M813.9,381.6l-16.5-6.7"/>
	<path class="st2" d="M812.1,386.1l1.8-4.5"/>
	<path class="st2" d="M806.8,399.4l1.8-4.5"/>
	<path class="st3" d="M427.6,75.1v337.5"/>
	<path class="st3" d="M704.4,68.4h-270"/>
	<path class="st3" d="M711.1,149.4V75.1"/>
	<path class="st3" d="M819.1,156.1H717.9"/>
	<path class="st3" d="M434.4,419.4h189"/>
	<path class="st3" d="M825.9,473.4V162.9"/>
	<path class="st3" d="M819.1,480.1h-47.3"/>
	<path class="st3" d="M711.1,75.1c0-3.7-3-6.8-6.8-6.8"/>
	<path class="st3" d="M711.1,149.4c0,3.7,3,6.8,6.8,6.8l0,0"/>
	<path class="st3" d="M825.9,162.9c0-3.7-3-6.7-6.8-6.7l0,0"/>
	<path class="st3" d="M819.1,480.1c3.7,0,6.8-3,6.8-6.7"/>
	<path class="st3" d="M427.6,412.6c0,3.7,3,6.7,6.8,6.7"/>
	<path class="st3" d="M434.4,68.4c-3.7,0-6.8,3-6.8,6.8"/>
	<path class="st3" d="M623.4,419.4l148.5,60.8"/>
	<path class="st2" d="M434.8,196.3v-39.7"/>
	<path class="st2" d="M474.5,196.2h-39.7"/>
	<path class="st2" d="M474.5,156.6v39.7"/>
	<path class="st2" d="M434.8,156.6h39.7"/>
	<g>
		<path class="st2" d="M434.8,250.2v-39.7"/>
		<path class="st2" d="M474.5,250.2h-39.7"/>
		<path class="st2" d="M474.5,210.5v39.7"/>
		<path class="st2" d="M434.8,210.6h39.7"/>
	</g>
	<g>
		<path class="st2" d="M434.8,304.3v-39.7"/>
		<path class="st2" d="M474.5,304.2h-39.7"/>
		<path class="st2" d="M474.5,264.6v39.7"/>
		<path class="st2" d="M434.8,264.6h39.7"/>
	</g>
	<g>
		<path class="st2" d="M488.8,223.3v-39.7"/>
		<path class="st2" d="M528.5,223.2h-39.7"/>
		<path class="st2" d="M528.5,183.6v39.7"/>
		<path class="st2" d="M488.8,183.6h39.7"/>
	</g>
	<g>
		<path class="st2" d="M488.8,169.3v-39.7"/>
		<path class="st2" d="M528.5,169.2h-39.7"/>
		<path class="st2" d="M528.5,129.6v39.7"/>
		<path class="st2" d="M488.8,129.6h39.7"/>
	</g>
	<g>
		<path class="st2" d="M488.8,115.3V75.6"/>
		<path class="st2" d="M528.5,115.2h-39.7"/>
		<path class="st2" d="M528.5,75.6v39.7"/>
		<path class="st2" d="M488.8,75.6h39.7"/>
	</g>
	<g>
		<path class="st2" d="M542.8,115.3V75.6"/>
		<path class="st2" d="M582.5,115.2h-39.7"/>
		<path class="st2" d="M582.5,75.6v39.7"/>
		<path class="st2" d="M542.8,75.6h39.7"/>
	</g>
	<g>
		<path class="st2" d="M542.8,169.3v-39.7"/>
		<path class="st2" d="M582.5,169.2h-39.7"/>
		<path class="st2" d="M582.5,129.6v39.7"/>
		<path class="st2" d="M542.8,129.6h39.7"/>
	</g>
	<g>
		<path class="st2" d="M542.8,223.2v-39.7"/>
		<path class="st2" d="M582.5,223.2h-39.7"/>
		<path class="st2" d="M582.5,183.5v39.7"/>
		<path class="st2" d="M542.8,183.6h39.7"/>
	</g>
	<g>
		<path class="st2" d="M542.8,277.3v-39.7"/>
		<path class="st2" d="M582.5,277.2h-39.7"/>
		<path class="st2" d="M582.5,237.6v39.7"/>
		<path class="st2" d="M542.8,237.6h39.7"/>
	</g>
	<g>
		<path class="st2" d="M596.8,344.8v-39.7"/>
		<path class="st2" d="M636.5,344.7h-39.7"/>
		<path class="st2" d="M636.5,305.1v39.7"/>
		<path class="st2" d="M596.8,305.1h39.7"/>
	</g>
	<g>
		<path class="st2" d="M596.8,263.7v-39.7"/>
		<path class="st2" d="M636.5,263.7h-39.7"/>
		<path class="st2" d="M636.5,224v39.7"/>
		<path class="st2" d="M596.8,224.1h39.7"/>
	</g>
	<g>
		<path class="st2" d="M596.8,209.8v-39.7"/>
		<path class="st2" d="M636.5,209.7h-39.7"/>
		<path class="st2" d="M636.5,170.1v39.7"/>
		<path class="st2" d="M596.8,170.1h39.7"/>
	</g>
	<g>
		<path class="st2" d="M596.8,155.8v-39.7"/>
		<path class="st2" d="M636.5,155.7h-39.7"/>
		<path class="st2" d="M636.5,116.1v39.7"/>
		<path class="st2" d="M596.8,116.1h39.7"/>
	</g>
	<g>
		<path class="st2" d="M650.8,182.8v-39.7"/>
		<path class="st2" d="M690.5,182.7h-39.7"/>
		<path class="st2" d="M690.5,143.1v39.7"/>
		<path class="st2" d="M650.8,143.1h39.7"/>
	</g>
	<g>
		<path class="st2" d="M650.8,236.7v-39.7"/>
		<path class="st2" d="M690.5,236.7h-39.7"/>
		<path class="st2" d="M690.5,197v39.7"/>
		<path class="st2" d="M650.8,197.1h39.7"/>
	</g>
	<g>
		<path class="st2" d="M650.8,290.8v-39.7"/>
		<path class="st2" d="M690.5,290.7h-39.7"/>
		<path class="st2" d="M690.5,251.1v39.7"/>
		<path class="st2" d="M650.8,251.1h39.7"/>
	</g>
	<circle class="st2" cx="441.1" cy="81.9" r="3.1"/>
	<circle class="st2" cx="535.6" cy="176.4" r="3.1"/>
	<circle class="st2" cx="441.1" cy="405.9" r="3.1"/>
	<circle class="st2" cx="616.6" cy="405.9" r="3.1"/>
	<circle class="st2" cx="812.4" cy="466.6" r="3.1"/>
	<circle class="st2" cx="758.4" cy="169.6" r="3.1"/>
	<circle class="st2" cx="690.9" cy="81.9" r="3.1"/>
</g>
</svg>
