M48
; DRILL file {KiCad (5.1.5)-2} date 11/21/20 23:26:29
; FORMAT={-:-/ absolute / inch / decimal}
; #@! TF.CreationDate,2020-11-21T23:26:29+09:00
; #@! TF.GenerationSoftware,Kicad,Pcbnew,(5.1.5)-2
; #@! TF.FileFunction,Plated,1,2,PTH
FMAT,2
INCH
T1C0.0157
T2C0.0320
T3C0.0390
T4C0.0394
T5C0.0472
T6C0.0512
T7C0.0551
%
G90
G05
T1
X3.8878Y-2.3992
X3.9969Y-3.0764
X4.0409Y-2.3996
X4.5232Y-3.1705
X4.6346Y-3.7634
X4.637Y-3.6969
X5.0791Y-3.6177
X5.0802Y-3.5241
X5.1327Y-3.6098
X5.1988Y-3.7008
T2
X4.4596Y-2.5771
X4.4596Y-2.8771
X4.4596Y-3.2896
X4.4596Y-3.5896
X2.9596Y-0.8521
X2.9596Y-1.1521
X3.7096Y-1.4521
X3.7096Y-1.7521
X4.2249Y-3.9883
X4.5068Y-4.0909
X4.983Y-2.7795
X4.983Y-3.3795
X5.033Y-2.8317
X5.033Y-3.431
X5.083Y-2.7795
X5.083Y-3.3795
X5.133Y-2.8317
X5.133Y-3.431
X5.183Y-2.7795
X5.183Y-3.3795
X5.233Y-2.8317
X5.233Y-3.431
X5.283Y-2.7795
X5.283Y-3.3795
X5.333Y-2.8317
X5.333Y-3.431
X5.383Y-2.7795
X5.383Y-3.3795
X5.433Y-2.8317
X5.433Y-3.431
X5.483Y-2.7795
X5.483Y-3.3795
X5.533Y-2.8317
X5.533Y-3.431
X5.583Y-2.7795
X5.583Y-3.3795
X5.633Y-2.8317
X5.633Y-3.431
X5.683Y-2.7795
X5.683Y-3.3795
X5.733Y-2.8317
X5.733Y-3.431
X5.783Y-2.7795
X5.783Y-3.3795
X5.833Y-2.8317
X5.833Y-3.431
X5.883Y-2.7795
X5.883Y-3.3795
X5.933Y-2.8317
X5.933Y-3.431
X5.983Y-2.7795
X5.983Y-3.3795
X6.033Y-2.8317
X6.033Y-3.431
X6.083Y-2.7795
X6.083Y-3.3795
X6.133Y-2.8317
X6.133Y-3.431
X3.7096Y-2.9146
X3.7096Y-3.2146
X2.9596Y-1.6021
X2.9596Y-1.9021
X2.9596Y-2.3896
X2.9596Y-2.6896
X5.003Y-4.2456
X5.2849Y-4.3482
X5.6777Y-4.5932
X5.9596Y-4.6958
X2.2096Y-1.6958
X2.2096Y-1.9958
X2.2096Y-3.1396
X2.2096Y-3.4396
X4.4596Y-1.8271
X4.4596Y-2.1271
X3.7096Y-4.0396
X3.7096Y-4.3396
X2.2096Y-0.9458
X2.2096Y-1.2458
X1.4606Y-2.735
X1.4606Y-3.035
X2.2096Y-2.3657
X2.2096Y-2.6657
X2.9596Y-3.1396
X2.9596Y-3.4396
X3.7096Y-2.2021
X3.7096Y-2.5021
X1.4596Y-3.5708
X1.4596Y-3.8708
X1.4596Y-2.0622
X1.4596Y-2.3622
T3
X3.2846Y-1.8021
X3.3846Y-1.8021
X4.0346Y-3.6771
X4.1346Y-3.6771
X1.7846Y-1.2396
X1.8846Y-1.2396
X5.7683Y-5.5937
X5.8057Y-5.501
X4.0346Y-2.9271
X4.1346Y-2.9271
X2.5346Y-1.2396
X2.6346Y-1.2396
X3.2846Y-4.4271
X3.3846Y-4.4271
X3.2846Y-3.3021
X3.3846Y-3.3021
X1.7846Y-3.4896
X1.8846Y-3.4896
X4.2799Y-4.93
X4.3141Y-4.836
X3.2846Y-2.5521
X3.3846Y-2.5521
X4.0346Y-2.1771
X4.1346Y-2.1771
X1.0346Y-3.8646
X1.1346Y-3.8646
X2.5346Y-3.4896
X2.6346Y-3.4896
X2.5346Y-2.7396
X2.6346Y-2.7396
X1.7846Y-2.7396
X1.8846Y-2.7396
X1.0346Y-2.3646
X1.1346Y-2.3646
X5.0328Y-5.2154
X5.0703Y-5.1227
X2.5346Y-1.9896
X2.6346Y-1.9896
X1.0346Y-3.1146
X1.1346Y-3.1146
X1.7846Y-1.9896
X1.8846Y-1.9896
T5
X3.8878Y-2.5775
X3.9846Y-2.5271
X4.0846Y-2.4948
X4.1846Y-2.5271
X4.2346Y-2.6271
X4.2815Y-2.5775
X2.3878Y-0.89
X2.4846Y-0.8396
X2.5846Y-0.8073
X2.6846Y-0.8396
X2.7346Y-0.9396
X2.7815Y-0.89
X3.1378Y-4.0775
X3.2346Y-4.0271
X3.3346Y-3.9948
X3.4346Y-4.0271
X3.4846Y-4.1271
X3.5315Y-4.0775
X3.1378Y-2.9525
X3.2346Y-2.9021
X3.3346Y-2.8698
X3.4346Y-2.9021
X3.4846Y-3.0021
X3.5315Y-2.9525
X1.6378Y-3.14
X1.7346Y-3.0896
X1.8346Y-3.0573
X1.9346Y-3.0896
X1.9846Y-3.1896
X2.0315Y-3.14
X3.8869Y-4.8401
X3.9553Y-4.6522
X3.1378Y-2.2025
X3.2346Y-2.1521
X3.3346Y-2.1198
X3.4346Y-2.1521
X3.4846Y-2.2521
X3.5315Y-2.2025
X3.8878Y-1.8275
X3.9846Y-1.7771
X4.0846Y-1.7448
X4.1846Y-1.7771
X4.2346Y-1.8771
X4.2815Y-1.8275
X0.8878Y-3.515
X0.9846Y-3.4646
X1.0846Y-3.4323
X1.1846Y-3.4646
X1.2346Y-3.5646
X1.2815Y-3.515
X2.3878Y-3.14
X2.4846Y-3.0896
X2.5846Y-3.0573
X2.6846Y-3.0896
X2.7346Y-3.1896
X2.7815Y-3.14
X2.3878Y-2.39
X2.4846Y-2.3396
X2.5846Y-2.3073
X2.6846Y-2.3396
X2.7346Y-2.4396
X2.7815Y-2.39
X1.6378Y-2.39
X1.7346Y-2.3396
X1.8346Y-2.3073
X1.9346Y-2.3396
X1.9846Y-2.4396
X2.0315Y-2.39
X0.8878Y-2.015
X0.9846Y-1.9646
X1.0846Y-1.9323
X1.1846Y-1.9646
X1.2346Y-2.0646
X1.2815Y-2.015
X4.6432Y-5.1119
X4.7182Y-4.9265
X2.3878Y-1.64
X2.4846Y-1.5896
X2.5846Y-1.5573
X2.6846Y-1.5896
X2.7346Y-1.6896
X2.7815Y-1.64
X0.8878Y-2.765
X0.9846Y-2.7146
X1.0846Y-2.6823
X1.1846Y-2.7146
X1.2346Y-2.8146
X1.2815Y-2.765
X1.6378Y-1.64
X1.7346Y-1.5896
X1.8346Y-1.5573
X1.9346Y-1.5896
X1.9846Y-1.6896
X2.0315Y-1.64
X3.1378Y-1.4525
X3.2346Y-1.4021
X3.3346Y-1.3698
X3.4346Y-1.4021
X3.4846Y-1.5021
X3.5315Y-1.4525
X3.8878Y-3.3275
X3.9846Y-3.2771
X4.0846Y-3.2448
X4.1846Y-3.2771
X4.2346Y-3.3771
X4.2815Y-3.3275
X1.6378Y-0.89
X1.7346Y-0.8396
X1.8346Y-0.8073
X1.9346Y-0.8396
X1.9846Y-0.9396
X2.0315Y-0.89
X5.3787Y-5.4902
X5.4536Y-5.3048
T6
X5.9254Y-2.3521
X6.1813Y-2.3521
T7
X2.4862Y-3.1124
X2.4862Y-3.1321
X2.6831Y-3.1124
X2.6831Y-3.1321
X2.4862Y-2.3624
X2.4862Y-2.3821
X2.6831Y-2.3624
X2.6831Y-2.3821
X1.7362Y-2.3624
X1.7362Y-2.3821
X1.9331Y-2.3624
X1.9331Y-2.3821
X0.9862Y-1.9874
X0.9862Y-2.0071
X1.1831Y-1.9874
X1.1831Y-2.0071
X4.6508Y-5.0071
X4.6537Y-5.2206
X4.665Y-5.119
X4.6833Y-5.1264
X4.7187Y-5.1963
X4.7387Y-4.9365
X4.757Y-4.9438
X4.8012Y-4.8555
X4.8311Y-4.9181
X2.4862Y-1.6124
X2.4862Y-1.6321
X2.6831Y-1.6124
X2.6831Y-1.6321
X0.9862Y-2.7374
X0.9862Y-2.7571
X1.1831Y-2.7374
X1.1831Y-2.7571
X1.7362Y-1.6124
X1.7362Y-1.6321
X1.9331Y-1.6124
X1.9331Y-1.6321
X3.2362Y-1.4249
X3.2362Y-1.4446
X3.4331Y-1.4249
X3.4331Y-1.4446
X3.9862Y-3.2999
X3.9862Y-3.3196
X4.1831Y-3.2999
X4.1831Y-3.3196
X1.7362Y-0.8624
X1.7362Y-0.8821
X1.9331Y-0.8624
X1.9331Y-0.8821
X5.3862Y-5.3854
X5.3891Y-5.5989
X5.4004Y-5.4973
X5.4187Y-5.5047
X5.4541Y-5.5746
X5.4742Y-5.3148
X5.4924Y-5.3222
X5.5366Y-5.2339
X5.5665Y-5.2965
X3.9862Y-2.5499
X3.9862Y-2.5696
X4.1831Y-2.5499
X4.1831Y-2.5696
X2.4862Y-0.8624
X2.4862Y-0.8821
X2.6831Y-0.8624
X2.6831Y-0.8821
X3.2362Y-4.0499
X3.2362Y-4.0696
X3.4331Y-4.0499
X3.4331Y-4.0696
X3.2362Y-2.9249
X3.2362Y-2.9446
X3.4331Y-2.9249
X3.4331Y-2.9446
X1.7362Y-3.1124
X1.7362Y-3.1321
X1.9331Y-3.1124
X1.9331Y-3.1321
X3.8908Y-4.7351
X3.9011Y-4.9484
X3.9089Y-4.8465
X3.9274Y-4.8532
X3.9653Y-4.9219
X3.9762Y-4.6615
X3.9947Y-4.6682
X4.0358Y-4.5784
X4.0679Y-4.6399
X3.2362Y-2.1749
X3.2362Y-2.1946
X3.4331Y-2.1749
X3.4331Y-2.1946
X3.9862Y-1.7999
X3.9862Y-1.8196
X4.1831Y-1.7999
X4.1831Y-1.8196
X0.9862Y-3.4874
X0.9862Y-3.5071
X1.1831Y-3.4874
X1.1831Y-3.5071
T4
G00X5.7795Y-3.8697
M15
G01X5.7598Y-3.8697
M16
G05
G00X5.7795Y-3.9661
M15
G01X5.7598Y-3.9661
M16
G05
G00X5.8386Y-3.8008
M15
G01X5.8189Y-3.8008
M16
G05
G00X5.8386Y-4.035
M15
G01X5.8189Y-4.035
M16
G05
G00X5.9961Y-3.8008
M15
G01X5.9764Y-3.8008
M16
G05
G00X5.9961Y-4.035
M15
G01X5.9764Y-4.035
M16
G05
G00X6.1142Y-3.8008
M15
G01X6.0945Y-3.8008
M16
G05
G00X6.1142Y-4.035
M15
G01X6.0945Y-4.035
M16
G05
T5
G00X3.9346Y-2.6271
M15
G01X3.9346Y-2.6271
M16
G05
G00X2.4346Y-0.9396
M15
G01X2.4346Y-0.9396
M16
G05
G00X3.1846Y-4.1271
M15
G01X3.1846Y-4.1271
M16
G05
G00X3.1846Y-3.0021
M15
G01X3.1846Y-3.0021
M16
G05
G00X1.6846Y-3.1896
M15
G01X1.6846Y-3.1896
M16
G05
G00X3.1846Y-2.2521
M15
G01X3.1846Y-2.2521
M16
G05
G00X3.9346Y-1.8771
M15
G01X3.9346Y-1.8771
M16
G05
G00X0.9346Y-3.5646
M15
G01X0.9346Y-3.5646
M16
G05
G00X2.4346Y-3.1896
M15
G01X2.4346Y-3.1896
M16
G05
G00X2.4346Y-2.4396
M15
G01X2.4346Y-2.4396
M16
G05
G00X1.6846Y-2.4396
M15
G01X1.6846Y-2.4396
M16
G05
G00X0.9346Y-2.0646
M15
G01X0.9346Y-2.0646
M16
G05
G00X2.4346Y-1.6896
M15
G01X2.4346Y-1.6896
M16
G05
G00X0.9346Y-2.8146
M15
G01X0.9346Y-2.8146
M16
G05
G00X1.6846Y-1.6896
M15
G01X1.6846Y-1.6896
M16
G05
G00X3.1846Y-1.5021
M15
G01X3.1846Y-1.5021
M16
G05
G00X3.9346Y-3.3771
M15
G01X3.9346Y-3.3771
M16
G05
G00X1.6846Y-0.9396
M15
G01X1.6846Y-0.9396
M16
G05
T0
M30
