G04 #@! TF.GenerationSoftware,KiCad,Pcbnew,(5.1.5)-2*
G04 #@! TF.CreationDate,2020-02-27T15:55:59+09:00*
G04 #@! TF.ProjectId,First_keyboard30,46697273-745f-46b6-9579-626f61726433,rev?*
G04 #@! TF.SameCoordinates,Original*
G04 #@! TF.FileFunction,Legend,Top*
G04 #@! TF.FilePolarity,Positive*
%FSLAX46Y46*%
G04 Gerber Fmt 4.6, Leading zero omitted, Abs format (unit mm)*
G04 Created by KiCad (PCBNEW (5.1.5)-2) date 2020-02-27 15:55:59*
%MOMM*%
%LPD*%
G04 APERTURE LIST*
%ADD10C,0.150000*%
%ADD11C,0.120000*%
%ADD12C,0.400000*%
%ADD13C,0.500000*%
%ADD14C,1.000000*%
%ADD15C,3.500000*%
%ADD16C,3.000000*%
%ADD17C,0.800000*%
%ADD18C,0.300000*%
G04 APERTURE END LIST*
D10*
X27649398Y-103649879D02*
X27649273Y-103173689D01*
X27173070Y-103126195D01*
X27220702Y-103173801D01*
X27268346Y-103269027D01*
X27268409Y-103507122D01*
X27220814Y-103602373D01*
X27173208Y-103650004D01*
X27077982Y-103697648D01*
X26839887Y-103697711D01*
X26744637Y-103650117D01*
X26697005Y-103602510D01*
X26649361Y-103507285D01*
X26649298Y-103269189D01*
X26696892Y-103173939D01*
X26744499Y-103126307D01*
X27649498Y-104030832D02*
X27649673Y-104697498D01*
X26649561Y-104269189D01*
X26745012Y-105078688D02*
X26697405Y-105126320D01*
X26649773Y-105078713D01*
X26697380Y-105031082D01*
X26745012Y-105078688D01*
X26649773Y-105078713D01*
X26650036Y-106078713D02*
X26649886Y-105507285D01*
X26649961Y-105792999D02*
X27649961Y-105792736D01*
X27507079Y-105697536D01*
X27411816Y-105602323D01*
X27364172Y-105507097D01*
X27650123Y-106411784D02*
X27650286Y-107030832D01*
X27269246Y-106697598D01*
X27269284Y-106840455D01*
X27221690Y-106935706D01*
X27174083Y-106983337D01*
X27078857Y-107030982D01*
X26840762Y-107031044D01*
X26745512Y-106983450D01*
X26697880Y-106935843D01*
X26650236Y-106840618D01*
X26650161Y-106554904D01*
X26697755Y-106459653D01*
X26745362Y-106412021D01*
X27650524Y-107935593D02*
X27650399Y-107459403D01*
X27174196Y-107411909D01*
X27221827Y-107459515D01*
X27269471Y-107554741D01*
X27269534Y-107792836D01*
X27221940Y-107888087D01*
X27174333Y-107935718D01*
X27079108Y-107983362D01*
X26841012Y-107983425D01*
X26745762Y-107935831D01*
X26698130Y-107888224D01*
X26650486Y-107792999D01*
X26650424Y-107554904D01*
X26698018Y-107459653D01*
X26745624Y-107412021D01*
X26650849Y-109173951D02*
X27317515Y-109173776D01*
X27222277Y-109173801D02*
X27269909Y-109221408D01*
X27317553Y-109316633D01*
X27317590Y-109459490D01*
X27269996Y-109554741D01*
X27174771Y-109602385D01*
X26650961Y-109602523D01*
X27174771Y-109602385D02*
X27270021Y-109649979D01*
X27317665Y-109745205D01*
X27317703Y-109888062D01*
X27270109Y-109983312D01*
X27174883Y-110030956D01*
X26651074Y-110031094D01*
X26651199Y-110507284D02*
X27317865Y-110507109D01*
X27222627Y-110507134D02*
X27270259Y-110554741D01*
X27317903Y-110649967D01*
X27317940Y-110792824D01*
X27270346Y-110888074D01*
X27175121Y-110935718D01*
X26651311Y-110935856D01*
X27175121Y-110935718D02*
X27270371Y-110983312D01*
X27318015Y-111078538D01*
X27318053Y-111221395D01*
X27270459Y-111316646D01*
X27175233Y-111364290D01*
X26651424Y-111364427D01*
D11*
X28365230Y-78701238D02*
X28380230Y-135836238D01*
X33080000Y-78700000D02*
X27778809Y-78701392D01*
X33095000Y-135835000D02*
X27793809Y-135836392D01*
X28380230Y-135836238D02*
X27793514Y-134709888D01*
X28380230Y-135836238D02*
X28966355Y-134709580D01*
X28365230Y-78701238D02*
X27779105Y-79827896D01*
X28365230Y-78701238D02*
X28951946Y-79827588D01*
D10*
X147523410Y-70017619D02*
X147571029Y-69970000D01*
X147666267Y-69922380D01*
X147904362Y-69922380D01*
X147999600Y-69970000D01*
X148047219Y-70017619D01*
X148094838Y-70112857D01*
X148094838Y-70208095D01*
X148047219Y-70350952D01*
X147475791Y-70922380D01*
X148094838Y-70922380D01*
X148428172Y-69922380D02*
X149047219Y-69922380D01*
X148713886Y-70303333D01*
X148856743Y-70303333D01*
X148951981Y-70350952D01*
X148999600Y-70398571D01*
X149047219Y-70493809D01*
X149047219Y-70731904D01*
X148999600Y-70827142D01*
X148951981Y-70874761D01*
X148856743Y-70922380D01*
X148571029Y-70922380D01*
X148475791Y-70874761D01*
X148428172Y-70827142D01*
X149618648Y-70350952D02*
X149523410Y-70303333D01*
X149475791Y-70255714D01*
X149428172Y-70160476D01*
X149428172Y-70112857D01*
X149475791Y-70017619D01*
X149523410Y-69970000D01*
X149618648Y-69922380D01*
X149809124Y-69922380D01*
X149904362Y-69970000D01*
X149951981Y-70017619D01*
X149999600Y-70112857D01*
X149999600Y-70160476D01*
X149951981Y-70255714D01*
X149904362Y-70303333D01*
X149809124Y-70350952D01*
X149618648Y-70350952D01*
X149523410Y-70398571D01*
X149475791Y-70446190D01*
X149428172Y-70541428D01*
X149428172Y-70731904D01*
X149475791Y-70827142D01*
X149523410Y-70874761D01*
X149618648Y-70922380D01*
X149809124Y-70922380D01*
X149904362Y-70874761D01*
X149951981Y-70827142D01*
X149999600Y-70731904D01*
X149999600Y-70541428D01*
X149951981Y-70446190D01*
X149904362Y-70398571D01*
X149809124Y-70350952D01*
X150428172Y-70827142D02*
X150475791Y-70874761D01*
X150428172Y-70922380D01*
X150380553Y-70874761D01*
X150428172Y-70827142D01*
X150428172Y-70922380D01*
X151428172Y-70922380D02*
X150856743Y-70922380D01*
X151142458Y-70922380D02*
X151142458Y-69922380D01*
X151047219Y-70065238D01*
X150951981Y-70160476D01*
X150856743Y-70208095D01*
X151809124Y-70017619D02*
X151856743Y-69970000D01*
X151951981Y-69922380D01*
X152190077Y-69922380D01*
X152285315Y-69970000D01*
X152332934Y-70017619D01*
X152380553Y-70112857D01*
X152380553Y-70208095D01*
X152332934Y-70350952D01*
X151761505Y-70922380D01*
X152380553Y-70922380D01*
X153285315Y-69922380D02*
X152809124Y-69922380D01*
X152761505Y-70398571D01*
X152809124Y-70350952D01*
X152904362Y-70303333D01*
X153142458Y-70303333D01*
X153237696Y-70350952D01*
X153285315Y-70398571D01*
X153332934Y-70493809D01*
X153332934Y-70731904D01*
X153285315Y-70827142D01*
X153237696Y-70874761D01*
X153142458Y-70922380D01*
X152904362Y-70922380D01*
X152809124Y-70874761D01*
X152761505Y-70827142D01*
X154523410Y-70922380D02*
X154523410Y-70255714D01*
X154523410Y-70350952D02*
X154571029Y-70303333D01*
X154666267Y-70255714D01*
X154809124Y-70255714D01*
X154904362Y-70303333D01*
X154951981Y-70398571D01*
X154951981Y-70922380D01*
X154951981Y-70398571D02*
X154999600Y-70303333D01*
X155094838Y-70255714D01*
X155237696Y-70255714D01*
X155332934Y-70303333D01*
X155380553Y-70398571D01*
X155380553Y-70922380D01*
X155856743Y-70922380D02*
X155856743Y-70255714D01*
X155856743Y-70350952D02*
X155904362Y-70303333D01*
X155999600Y-70255714D01*
X156142458Y-70255714D01*
X156237696Y-70303333D01*
X156285315Y-70398571D01*
X156285315Y-70922380D01*
X156285315Y-70398571D02*
X156332934Y-70303333D01*
X156428172Y-70255714D01*
X156571029Y-70255714D01*
X156666267Y-70303333D01*
X156713886Y-70398571D01*
X156713886Y-70922380D01*
D11*
X33080000Y-71740000D02*
X271204916Y-71740000D01*
X33080000Y-78700000D02*
X33080000Y-71153579D01*
X271204916Y-78700000D02*
X271204916Y-71153579D01*
X271204916Y-71740000D02*
X270078412Y-72326421D01*
X271204916Y-71740000D02*
X270078412Y-71153579D01*
X33080000Y-71740000D02*
X34206504Y-72326421D01*
X33080000Y-71740000D02*
X34206504Y-71153579D01*
D10*
X188337395Y-135295714D02*
X188099300Y-135295714D01*
X188277872Y-133867142D01*
X188515967Y-133867142D01*
X189521919Y-134962380D02*
X189605252Y-134295714D01*
X190033824Y-134295714D01*
X189950491Y-134962380D01*
X190813586Y-134914761D02*
X190712395Y-134962380D01*
X190521919Y-134962380D01*
X190432633Y-134914761D01*
X190396919Y-134819523D01*
X190444538Y-134438571D01*
X190504062Y-134343333D01*
X190605252Y-134295714D01*
X190795729Y-134295714D01*
X190885014Y-134343333D01*
X190920729Y-134438571D01*
X190908824Y-134533809D01*
X190420729Y-134629047D01*
X191367157Y-134295714D02*
X191242157Y-135295714D01*
X191361205Y-134343333D02*
X191462395Y-134295714D01*
X191652872Y-134295714D01*
X191742157Y-134343333D01*
X191783824Y-134390952D01*
X191819538Y-134486190D01*
X191783824Y-134771904D01*
X191724300Y-134867142D01*
X191670729Y-134914761D01*
X191569538Y-134962380D01*
X191379062Y-134962380D01*
X191289776Y-134914761D01*
X192468348Y-134629047D02*
X192605252Y-134676666D01*
X192640967Y-134771904D01*
X192635014Y-134819523D01*
X192575491Y-134914761D01*
X192474300Y-134962380D01*
X192188586Y-134962380D01*
X192271919Y-134295714D01*
X192510014Y-134295714D01*
X192599300Y-134343333D01*
X192635014Y-134438571D01*
X192629062Y-134486190D01*
X192569538Y-134581428D01*
X192468348Y-134629047D01*
X192230252Y-134629047D01*
X193795729Y-134295714D02*
X193712395Y-134962380D01*
X193129062Y-134295714D02*
X193045729Y-134962380D01*
X193283824Y-134962380D01*
X193385014Y-134914761D01*
X193444538Y-134819523D01*
X193462395Y-134676666D01*
X193426681Y-134581428D01*
X193337395Y-134533809D01*
X193099300Y-134533809D01*
X194271919Y-134295714D02*
X194188586Y-134962380D01*
X194748110Y-134295714D01*
X194664776Y-134962380D01*
X194367157Y-133914761D02*
X194402872Y-134010000D01*
X194492157Y-134057619D01*
X194587395Y-134057619D01*
X194688586Y-134010000D01*
X194748110Y-133914761D01*
X195765967Y-135295714D02*
X196004062Y-135295714D01*
X196182633Y-133867142D01*
X195944538Y-133867142D01*
X197855252Y-134962380D02*
X197283824Y-134962380D01*
X197569538Y-134962380D02*
X197694538Y-133962380D01*
X197581443Y-134105238D01*
X197474300Y-134200476D01*
X197373110Y-134248095D01*
X198295729Y-134867142D02*
X198337395Y-134914761D01*
X198283824Y-134962380D01*
X198242157Y-134914761D01*
X198295729Y-134867142D01*
X198283824Y-134962380D01*
X199283824Y-134962380D02*
X198712395Y-134962380D01*
X198998110Y-134962380D02*
X199123110Y-133962380D01*
X199010014Y-134105238D01*
X198902872Y-134200476D01*
X198801681Y-134248095D01*
X200521919Y-134581428D02*
X201283824Y-134581428D01*
X202474300Y-134962380D02*
X202599300Y-133962380D01*
X202837395Y-133962380D01*
X202974300Y-134010000D01*
X203057633Y-134105238D01*
X203093348Y-134200476D01*
X203117157Y-134390952D01*
X203099300Y-134533809D01*
X203027872Y-134724285D01*
X202968348Y-134819523D01*
X202861205Y-134914761D01*
X202712395Y-134962380D01*
X202474300Y-134962380D01*
X203861205Y-134914761D02*
X203760014Y-134962380D01*
X203569538Y-134962380D01*
X203480252Y-134914761D01*
X203444538Y-134819523D01*
X203492157Y-134438571D01*
X203551681Y-134343333D01*
X203652872Y-134295714D01*
X203843348Y-134295714D01*
X203932633Y-134343333D01*
X203968348Y-134438571D01*
X203956443Y-134533809D01*
X203468348Y-134629047D01*
X204289776Y-134914761D02*
X204379062Y-134962380D01*
X204569538Y-134962380D01*
X204670729Y-134914761D01*
X204730252Y-134819523D01*
X204736205Y-134771904D01*
X204700491Y-134676666D01*
X204611205Y-134629047D01*
X204468348Y-134629047D01*
X204379062Y-134581428D01*
X204343348Y-134486190D01*
X204349300Y-134438571D01*
X204408824Y-134343333D01*
X204510014Y-134295714D01*
X204652872Y-134295714D01*
X204742157Y-134343333D01*
X205140967Y-134962380D02*
X205224300Y-134295714D01*
X205265967Y-133962380D02*
X205212395Y-134010000D01*
X205254062Y-134057619D01*
X205307633Y-134010000D01*
X205265967Y-133962380D01*
X205254062Y-134057619D01*
X206129062Y-134295714D02*
X206027872Y-135105238D01*
X205968348Y-135200476D01*
X205914776Y-135248095D01*
X205813586Y-135295714D01*
X205670729Y-135295714D01*
X205581443Y-135248095D01*
X206051681Y-134914761D02*
X205950491Y-134962380D01*
X205760014Y-134962380D01*
X205670729Y-134914761D01*
X205629062Y-134867142D01*
X205593348Y-134771904D01*
X205629062Y-134486190D01*
X205688586Y-134390952D01*
X205742157Y-134343333D01*
X205843348Y-134295714D01*
X206033824Y-134295714D01*
X206123110Y-134343333D01*
X206605252Y-134295714D02*
X206521919Y-134962380D01*
X206593348Y-134390952D02*
X206646919Y-134343333D01*
X206748110Y-134295714D01*
X206890967Y-134295714D01*
X206980252Y-134343333D01*
X207015967Y-134438571D01*
X206950491Y-134962380D01*
X207813586Y-134914761D02*
X207712395Y-134962380D01*
X207521919Y-134962380D01*
X207432633Y-134914761D01*
X207396919Y-134819523D01*
X207444538Y-134438571D01*
X207504062Y-134343333D01*
X207605252Y-134295714D01*
X207795729Y-134295714D01*
X207885014Y-134343333D01*
X207920729Y-134438571D01*
X207908824Y-134533809D01*
X207420729Y-134629047D01*
X208712395Y-134962380D02*
X208837395Y-133962380D01*
X208718348Y-134914761D02*
X208617157Y-134962380D01*
X208426681Y-134962380D01*
X208337395Y-134914761D01*
X208295729Y-134867142D01*
X208260014Y-134771904D01*
X208295729Y-134486190D01*
X208355252Y-134390952D01*
X208408824Y-134343333D01*
X208510014Y-134295714D01*
X208700491Y-134295714D01*
X208789776Y-134343333D01*
X209950491Y-134962380D02*
X210075491Y-133962380D01*
X210027872Y-134343333D02*
X210129062Y-134295714D01*
X210319538Y-134295714D01*
X210408824Y-134343333D01*
X210450491Y-134390952D01*
X210486205Y-134486190D01*
X210450491Y-134771904D01*
X210390967Y-134867142D01*
X210337395Y-134914761D01*
X210236205Y-134962380D01*
X210045729Y-134962380D01*
X209956443Y-134914761D01*
X210843348Y-134295714D02*
X210998110Y-134962380D01*
X211319538Y-134295714D02*
X210998110Y-134962380D01*
X210873110Y-135200476D01*
X210819538Y-135248095D01*
X210718348Y-135295714D01*
X212379062Y-134962380D02*
X212504062Y-133962380D01*
X212950491Y-134962380D02*
X212593348Y-134390952D01*
X213075491Y-133962380D02*
X212432633Y-134533809D01*
X213379062Y-134962380D02*
X213462395Y-134295714D01*
X213504062Y-133962380D02*
X213450491Y-134010000D01*
X213492157Y-134057619D01*
X213545729Y-134010000D01*
X213504062Y-133962380D01*
X213492157Y-134057619D01*
X213795729Y-134295714D02*
X214176681Y-134295714D01*
X213980252Y-133962380D02*
X213873110Y-134819523D01*
X213908824Y-134914761D01*
X213998110Y-134962380D01*
X214093348Y-134962380D01*
X214385014Y-134914761D02*
X214474300Y-134962380D01*
X214664776Y-134962380D01*
X214765967Y-134914761D01*
X214825491Y-134819523D01*
X214831443Y-134771904D01*
X214795729Y-134676666D01*
X214706443Y-134629047D01*
X214563586Y-134629047D01*
X214474300Y-134581428D01*
X214438586Y-134486190D01*
X214444538Y-134438571D01*
X214504062Y-134343333D01*
X214605252Y-134295714D01*
X214748110Y-134295714D01*
X214837395Y-134343333D01*
X215748110Y-134295714D02*
X215664776Y-134962380D01*
X215319538Y-134295714D02*
X215254062Y-134819523D01*
X215289776Y-134914761D01*
X215379062Y-134962380D01*
X215521919Y-134962380D01*
X215623110Y-134914761D01*
X215676681Y-134867142D01*
X216224300Y-134295714D02*
X216140967Y-134962380D01*
X216212395Y-134390952D02*
X216265967Y-134343333D01*
X216367157Y-134295714D01*
X216510014Y-134295714D01*
X216599300Y-134343333D01*
X216635014Y-134438571D01*
X216569538Y-134962380D01*
X217432633Y-134914761D02*
X217331443Y-134962380D01*
X217140967Y-134962380D01*
X217051681Y-134914761D01*
X217015967Y-134819523D01*
X217063586Y-134438571D01*
X217123110Y-134343333D01*
X217224300Y-134295714D01*
X217414776Y-134295714D01*
X217504062Y-134343333D01*
X217539776Y-134438571D01*
X217527872Y-134533809D01*
X217039776Y-134629047D01*
X55660000Y-114310000D02*
X54660000Y-114310000D01*
X54660000Y-113310000D02*
X54660000Y-114310000D01*
X68660000Y-100310000D02*
X67660000Y-100310000D01*
X68660000Y-101310000D02*
X68660000Y-100310000D01*
X68660000Y-114310000D02*
X68660000Y-113310000D01*
X67660000Y-114310000D02*
X68660000Y-114310000D01*
X54660000Y-100310000D02*
X55660000Y-100310000D01*
X54660000Y-101310000D02*
X54660000Y-100310000D01*
X48610000Y-100310000D02*
X49610000Y-100310000D01*
X49610000Y-101310000D02*
X49610000Y-100310000D01*
X35610000Y-114310000D02*
X36610000Y-114310000D01*
X35610000Y-113310000D02*
X35610000Y-114310000D01*
X35610000Y-100310000D02*
X35610000Y-101310000D01*
X36610000Y-100310000D02*
X35610000Y-100310000D01*
X49610000Y-114310000D02*
X48610000Y-114310000D01*
X49610000Y-113310000D02*
X49610000Y-114310000D01*
D12*
X231180000Y-122440000D02*
X231180000Y-123140000D01*
X231180000Y-119940000D02*
X232580000Y-119940000D01*
D13*
X241280000Y-125040000D02*
X238580000Y-125040000D01*
D14*
X238596318Y-124818529D02*
G75*
G03X236380000Y-122940000I-2151318J-291471D01*
G01*
D10*
X230980000Y-120090000D02*
X230980000Y-119740000D01*
X241480001Y-121640000D02*
G75*
G03X239380000Y-119739999I-2000001J-100000D01*
G01*
X238196318Y-125218529D02*
G75*
G03X235980000Y-123340000I-2151318J-291471D01*
G01*
X230980000Y-119740000D02*
X239380000Y-119739999D01*
X235980000Y-123340000D02*
X230980000Y-123340000D01*
X241480000Y-125240000D02*
X238200000Y-125240000D01*
X241480000Y-121640000D02*
X241480000Y-122640000D01*
X241480000Y-125240000D02*
X241480000Y-124880000D01*
X241280000Y-124880000D02*
X241480000Y-124880000D01*
X241250000Y-122640000D02*
X241250000Y-124880000D01*
X241480000Y-122640000D02*
X241280000Y-122640000D01*
X231180000Y-120090000D02*
X230980000Y-120090000D01*
X231200000Y-122340000D02*
X231200000Y-120090000D01*
X230980000Y-122340000D02*
X231180000Y-122340000D01*
X230980000Y-123340000D02*
X230980000Y-122340000D01*
D15*
X232980000Y-121540000D02*
X239680000Y-121540000D01*
D14*
X231680000Y-120340000D02*
X231680000Y-122840000D01*
D13*
X231280000Y-123040000D02*
X232680000Y-123040000D01*
D16*
X239750000Y-121240000D02*
X239750000Y-123480000D01*
D17*
X240880000Y-124740000D02*
X240880000Y-122940000D01*
D18*
X241379999Y-122540000D02*
X241380000Y-121640001D01*
D12*
X209660000Y-122460000D02*
X209660000Y-123160000D01*
X209660000Y-119960000D02*
X211060000Y-119960000D01*
D13*
X219760000Y-125060000D02*
X217060000Y-125060000D01*
D14*
X217076318Y-124838529D02*
G75*
G03X214860000Y-122960000I-2151318J-291471D01*
G01*
D10*
X209460000Y-120110000D02*
X209460000Y-119760000D01*
X219960001Y-121660000D02*
G75*
G03X217860000Y-119759999I-2000001J-100000D01*
G01*
X216676318Y-125238529D02*
G75*
G03X214460000Y-123360000I-2151318J-291471D01*
G01*
X209460000Y-119760000D02*
X217860000Y-119759999D01*
X214460000Y-123360000D02*
X209460000Y-123360000D01*
X219960000Y-125260000D02*
X216680000Y-125260000D01*
X219960000Y-121660000D02*
X219960000Y-122660000D01*
X219960000Y-125260000D02*
X219960000Y-124900000D01*
X219760000Y-124900000D02*
X219960000Y-124900000D01*
X219730000Y-122660000D02*
X219730000Y-124900000D01*
X219960000Y-122660000D02*
X219760000Y-122660000D01*
X209660000Y-120110000D02*
X209460000Y-120110000D01*
X209680000Y-122360000D02*
X209680000Y-120110000D01*
X209460000Y-122360000D02*
X209660000Y-122360000D01*
X209460000Y-123360000D02*
X209460000Y-122360000D01*
D15*
X211460000Y-121560000D02*
X218160000Y-121560000D01*
D14*
X210160000Y-120360000D02*
X210160000Y-122860000D01*
D13*
X209760000Y-123060000D02*
X211160000Y-123060000D01*
D16*
X218230000Y-121260000D02*
X218230000Y-123500000D01*
D17*
X219360000Y-124760000D02*
X219360000Y-122960000D01*
D18*
X219859999Y-122560000D02*
X219860000Y-121660001D01*
D12*
X190610000Y-122460000D02*
X190610000Y-123160000D01*
X190610000Y-119960000D02*
X192010000Y-119960000D01*
D13*
X200710000Y-125060000D02*
X198010000Y-125060000D01*
D14*
X198026318Y-124838529D02*
G75*
G03X195810000Y-122960000I-2151318J-291471D01*
G01*
D10*
X190410000Y-120110000D02*
X190410000Y-119760000D01*
X200910001Y-121660000D02*
G75*
G03X198810000Y-119759999I-2000001J-100000D01*
G01*
X197626318Y-125238529D02*
G75*
G03X195410000Y-123360000I-2151318J-291471D01*
G01*
X190410000Y-119760000D02*
X198810000Y-119759999D01*
X195410000Y-123360000D02*
X190410000Y-123360000D01*
X200910000Y-125260000D02*
X197630000Y-125260000D01*
X200910000Y-121660000D02*
X200910000Y-122660000D01*
X200910000Y-125260000D02*
X200910000Y-124900000D01*
X200710000Y-124900000D02*
X200910000Y-124900000D01*
X200680000Y-122660000D02*
X200680000Y-124900000D01*
X200910000Y-122660000D02*
X200710000Y-122660000D01*
X190610000Y-120110000D02*
X190410000Y-120110000D01*
X190630000Y-122360000D02*
X190630000Y-120110000D01*
X190410000Y-122360000D02*
X190610000Y-122360000D01*
X190410000Y-123360000D02*
X190410000Y-122360000D01*
D15*
X192410000Y-121560000D02*
X199110000Y-121560000D01*
D14*
X191110000Y-120360000D02*
X191110000Y-122860000D01*
D13*
X190710000Y-123060000D02*
X192110000Y-123060000D01*
D16*
X199180000Y-121260000D02*
X199180000Y-123500000D01*
D17*
X200310000Y-124760000D02*
X200310000Y-122960000D01*
D18*
X200809999Y-122560000D02*
X200810000Y-121660001D01*
D12*
X171560000Y-122460000D02*
X171560000Y-123160000D01*
X171560000Y-119960000D02*
X172960000Y-119960000D01*
D13*
X181660000Y-125060000D02*
X178960000Y-125060000D01*
D14*
X178976318Y-124838529D02*
G75*
G03X176760000Y-122960000I-2151318J-291471D01*
G01*
D10*
X171360000Y-120110000D02*
X171360000Y-119760000D01*
X181860001Y-121660000D02*
G75*
G03X179760000Y-119759999I-2000001J-100000D01*
G01*
X178576318Y-125238529D02*
G75*
G03X176360000Y-123360000I-2151318J-291471D01*
G01*
X171360000Y-119760000D02*
X179760000Y-119759999D01*
X176360000Y-123360000D02*
X171360000Y-123360000D01*
X181860000Y-125260000D02*
X178580000Y-125260000D01*
X181860000Y-121660000D02*
X181860000Y-122660000D01*
X181860000Y-125260000D02*
X181860000Y-124900000D01*
X181660000Y-124900000D02*
X181860000Y-124900000D01*
X181630000Y-122660000D02*
X181630000Y-124900000D01*
X181860000Y-122660000D02*
X181660000Y-122660000D01*
X171560000Y-120110000D02*
X171360000Y-120110000D01*
X171580000Y-122360000D02*
X171580000Y-120110000D01*
X171360000Y-122360000D02*
X171560000Y-122360000D01*
X171360000Y-123360000D02*
X171360000Y-122360000D01*
D15*
X173360000Y-121560000D02*
X180060000Y-121560000D01*
D14*
X172060000Y-120360000D02*
X172060000Y-122860000D01*
D13*
X171660000Y-123060000D02*
X173060000Y-123060000D01*
D16*
X180130000Y-121260000D02*
X180130000Y-123500000D01*
D17*
X181260000Y-124760000D02*
X181260000Y-122960000D01*
D18*
X181759999Y-122560000D02*
X181760000Y-121660001D01*
D12*
X152510000Y-122460000D02*
X152510000Y-123160000D01*
X152510000Y-119960000D02*
X153910000Y-119960000D01*
D13*
X162610000Y-125060000D02*
X159910000Y-125060000D01*
D14*
X159926318Y-124838529D02*
G75*
G03X157710000Y-122960000I-2151318J-291471D01*
G01*
D10*
X152310000Y-120110000D02*
X152310000Y-119760000D01*
X162810001Y-121660000D02*
G75*
G03X160710000Y-119759999I-2000001J-100000D01*
G01*
X159526318Y-125238529D02*
G75*
G03X157310000Y-123360000I-2151318J-291471D01*
G01*
X152310000Y-119760000D02*
X160710000Y-119759999D01*
X157310000Y-123360000D02*
X152310000Y-123360000D01*
X162810000Y-125260000D02*
X159530000Y-125260000D01*
X162810000Y-121660000D02*
X162810000Y-122660000D01*
X162810000Y-125260000D02*
X162810000Y-124900000D01*
X162610000Y-124900000D02*
X162810000Y-124900000D01*
X162580000Y-122660000D02*
X162580000Y-124900000D01*
X162810000Y-122660000D02*
X162610000Y-122660000D01*
X152510000Y-120110000D02*
X152310000Y-120110000D01*
X152530000Y-122360000D02*
X152530000Y-120110000D01*
X152310000Y-122360000D02*
X152510000Y-122360000D01*
X152310000Y-123360000D02*
X152310000Y-122360000D01*
D15*
X154310000Y-121560000D02*
X161010000Y-121560000D01*
D14*
X153010000Y-120360000D02*
X153010000Y-122860000D01*
D13*
X152610000Y-123060000D02*
X154010000Y-123060000D01*
D16*
X161080000Y-121260000D02*
X161080000Y-123500000D01*
D17*
X162210000Y-124760000D02*
X162210000Y-122960000D01*
D18*
X162709999Y-122560000D02*
X162710000Y-121660001D01*
D12*
X133460000Y-122460000D02*
X133460000Y-123160000D01*
X133460000Y-119960000D02*
X134860000Y-119960000D01*
D13*
X143560000Y-125060000D02*
X140860000Y-125060000D01*
D14*
X140876318Y-124838529D02*
G75*
G03X138660000Y-122960000I-2151318J-291471D01*
G01*
D10*
X133260000Y-120110000D02*
X133260000Y-119760000D01*
X143760001Y-121660000D02*
G75*
G03X141660000Y-119759999I-2000001J-100000D01*
G01*
X140476318Y-125238529D02*
G75*
G03X138260000Y-123360000I-2151318J-291471D01*
G01*
X133260000Y-119760000D02*
X141660000Y-119759999D01*
X138260000Y-123360000D02*
X133260000Y-123360000D01*
X143760000Y-125260000D02*
X140480000Y-125260000D01*
X143760000Y-121660000D02*
X143760000Y-122660000D01*
X143760000Y-125260000D02*
X143760000Y-124900000D01*
X143560000Y-124900000D02*
X143760000Y-124900000D01*
X143530000Y-122660000D02*
X143530000Y-124900000D01*
X143760000Y-122660000D02*
X143560000Y-122660000D01*
X133460000Y-120110000D02*
X133260000Y-120110000D01*
X133480000Y-122360000D02*
X133480000Y-120110000D01*
X133260000Y-122360000D02*
X133460000Y-122360000D01*
X133260000Y-123360000D02*
X133260000Y-122360000D01*
D15*
X135260000Y-121560000D02*
X141960000Y-121560000D01*
D14*
X133960000Y-120360000D02*
X133960000Y-122860000D01*
D13*
X133560000Y-123060000D02*
X134960000Y-123060000D01*
D16*
X142030000Y-121260000D02*
X142030000Y-123500000D01*
D17*
X143160000Y-124760000D02*
X143160000Y-122960000D01*
D18*
X143659999Y-122560000D02*
X143660000Y-121660001D01*
D12*
X114410000Y-122460000D02*
X114410000Y-123160000D01*
X114410000Y-119960000D02*
X115810000Y-119960000D01*
D13*
X124510000Y-125060000D02*
X121810000Y-125060000D01*
D14*
X121826318Y-124838529D02*
G75*
G03X119610000Y-122960000I-2151318J-291471D01*
G01*
D10*
X114210000Y-120110000D02*
X114210000Y-119760000D01*
X124710001Y-121660000D02*
G75*
G03X122610000Y-119759999I-2000001J-100000D01*
G01*
X121426318Y-125238529D02*
G75*
G03X119210000Y-123360000I-2151318J-291471D01*
G01*
X114210000Y-119760000D02*
X122610000Y-119759999D01*
X119210000Y-123360000D02*
X114210000Y-123360000D01*
X124710000Y-125260000D02*
X121430000Y-125260000D01*
X124710000Y-121660000D02*
X124710000Y-122660000D01*
X124710000Y-125260000D02*
X124710000Y-124900000D01*
X124510000Y-124900000D02*
X124710000Y-124900000D01*
X124480000Y-122660000D02*
X124480000Y-124900000D01*
X124710000Y-122660000D02*
X124510000Y-122660000D01*
X114410000Y-120110000D02*
X114210000Y-120110000D01*
X114430000Y-122360000D02*
X114430000Y-120110000D01*
X114210000Y-122360000D02*
X114410000Y-122360000D01*
X114210000Y-123360000D02*
X114210000Y-122360000D01*
D15*
X116210000Y-121560000D02*
X122910000Y-121560000D01*
D14*
X114910000Y-120360000D02*
X114910000Y-122860000D01*
D13*
X114510000Y-123060000D02*
X115910000Y-123060000D01*
D16*
X122980000Y-121260000D02*
X122980000Y-123500000D01*
D17*
X124110000Y-124760000D02*
X124110000Y-122960000D01*
D18*
X124609999Y-122560000D02*
X124610000Y-121660001D01*
D12*
X95360000Y-122460000D02*
X95360000Y-123160000D01*
X95360000Y-119960000D02*
X96760000Y-119960000D01*
D13*
X105460000Y-125060000D02*
X102760000Y-125060000D01*
D14*
X102776318Y-124838529D02*
G75*
G03X100560000Y-122960000I-2151318J-291471D01*
G01*
D10*
X95160000Y-120110000D02*
X95160000Y-119760000D01*
X105660001Y-121660000D02*
G75*
G03X103560000Y-119759999I-2000001J-100000D01*
G01*
X102376318Y-125238529D02*
G75*
G03X100160000Y-123360000I-2151318J-291471D01*
G01*
X95160000Y-119760000D02*
X103560000Y-119759999D01*
X100160000Y-123360000D02*
X95160000Y-123360000D01*
X105660000Y-125260000D02*
X102380000Y-125260000D01*
X105660000Y-121660000D02*
X105660000Y-122660000D01*
X105660000Y-125260000D02*
X105660000Y-124900000D01*
X105460000Y-124900000D02*
X105660000Y-124900000D01*
X105430000Y-122660000D02*
X105430000Y-124900000D01*
X105660000Y-122660000D02*
X105460000Y-122660000D01*
X95360000Y-120110000D02*
X95160000Y-120110000D01*
X95380000Y-122360000D02*
X95380000Y-120110000D01*
X95160000Y-122360000D02*
X95360000Y-122360000D01*
X95160000Y-123360000D02*
X95160000Y-122360000D01*
D15*
X97160000Y-121560000D02*
X103860000Y-121560000D01*
D14*
X95860000Y-120360000D02*
X95860000Y-122860000D01*
D13*
X95460000Y-123060000D02*
X96860000Y-123060000D01*
D16*
X103930000Y-121260000D02*
X103930000Y-123500000D01*
D17*
X105060000Y-124760000D02*
X105060000Y-122960000D01*
D18*
X105559999Y-122560000D02*
X105560000Y-121660001D01*
D12*
X76310000Y-122460000D02*
X76310000Y-123160000D01*
X76310000Y-119960000D02*
X77710000Y-119960000D01*
D13*
X86410000Y-125060000D02*
X83710000Y-125060000D01*
D14*
X83726318Y-124838529D02*
G75*
G03X81510000Y-122960000I-2151318J-291471D01*
G01*
D10*
X76110000Y-120110000D02*
X76110000Y-119760000D01*
X86610001Y-121660000D02*
G75*
G03X84510000Y-119759999I-2000001J-100000D01*
G01*
X83326318Y-125238529D02*
G75*
G03X81110000Y-123360000I-2151318J-291471D01*
G01*
X76110000Y-119760000D02*
X84510000Y-119759999D01*
X81110000Y-123360000D02*
X76110000Y-123360000D01*
X86610000Y-125260000D02*
X83330000Y-125260000D01*
X86610000Y-121660000D02*
X86610000Y-122660000D01*
X86610000Y-125260000D02*
X86610000Y-124900000D01*
X86410000Y-124900000D02*
X86610000Y-124900000D01*
X86380000Y-122660000D02*
X86380000Y-124900000D01*
X86610000Y-122660000D02*
X86410000Y-122660000D01*
X76310000Y-120110000D02*
X76110000Y-120110000D01*
X76330000Y-122360000D02*
X76330000Y-120110000D01*
X76110000Y-122360000D02*
X76310000Y-122360000D01*
X76110000Y-123360000D02*
X76110000Y-122360000D01*
D15*
X78110000Y-121560000D02*
X84810000Y-121560000D01*
D14*
X76810000Y-120360000D02*
X76810000Y-122860000D01*
D13*
X76410000Y-123060000D02*
X77810000Y-123060000D01*
D16*
X84880000Y-121260000D02*
X84880000Y-123500000D01*
D17*
X86010000Y-124760000D02*
X86010000Y-122960000D01*
D18*
X86509999Y-122560000D02*
X86510000Y-121660001D01*
D12*
X57260000Y-122460000D02*
X57260000Y-123160000D01*
X57260000Y-119960000D02*
X58660000Y-119960000D01*
D13*
X67360000Y-125060000D02*
X64660000Y-125060000D01*
D14*
X64676318Y-124838529D02*
G75*
G03X62460000Y-122960000I-2151318J-291471D01*
G01*
D10*
X57060000Y-120110000D02*
X57060000Y-119760000D01*
X67560001Y-121660000D02*
G75*
G03X65460000Y-119759999I-2000001J-100000D01*
G01*
X64276318Y-125238529D02*
G75*
G03X62060000Y-123360000I-2151318J-291471D01*
G01*
X57060000Y-119760000D02*
X65460000Y-119759999D01*
X62060000Y-123360000D02*
X57060000Y-123360000D01*
X67560000Y-125260000D02*
X64280000Y-125260000D01*
X67560000Y-121660000D02*
X67560000Y-122660000D01*
X67560000Y-125260000D02*
X67560000Y-124900000D01*
X67360000Y-124900000D02*
X67560000Y-124900000D01*
X67330000Y-122660000D02*
X67330000Y-124900000D01*
X67560000Y-122660000D02*
X67360000Y-122660000D01*
X57260000Y-120110000D02*
X57060000Y-120110000D01*
X57280000Y-122360000D02*
X57280000Y-120110000D01*
X57060000Y-122360000D02*
X57260000Y-122360000D01*
X57060000Y-123360000D02*
X57060000Y-122360000D01*
D15*
X59060000Y-121560000D02*
X65760000Y-121560000D01*
D14*
X57760000Y-120360000D02*
X57760000Y-122860000D01*
D13*
X57360000Y-123060000D02*
X58760000Y-123060000D01*
D16*
X65830000Y-121260000D02*
X65830000Y-123500000D01*
D17*
X66960000Y-124760000D02*
X66960000Y-122960000D01*
D18*
X67459999Y-122560000D02*
X67460000Y-121660001D01*
D12*
X38210000Y-122460000D02*
X38210000Y-123160000D01*
X38210000Y-119960000D02*
X39610000Y-119960000D01*
D13*
X48310000Y-125060000D02*
X45610000Y-125060000D01*
D14*
X45626318Y-124838529D02*
G75*
G03X43410000Y-122960000I-2151318J-291471D01*
G01*
D10*
X38010000Y-120110000D02*
X38010000Y-119760000D01*
X48510001Y-121660000D02*
G75*
G03X46410000Y-119759999I-2000001J-100000D01*
G01*
X45226318Y-125238529D02*
G75*
G03X43010000Y-123360000I-2151318J-291471D01*
G01*
X38010000Y-119760000D02*
X46410000Y-119759999D01*
X43010000Y-123360000D02*
X38010000Y-123360000D01*
X48510000Y-125260000D02*
X45230000Y-125260000D01*
X48510000Y-121660000D02*
X48510000Y-122660000D01*
X48510000Y-125260000D02*
X48510000Y-124900000D01*
X48310000Y-124900000D02*
X48510000Y-124900000D01*
X48280000Y-122660000D02*
X48280000Y-124900000D01*
X48510000Y-122660000D02*
X48310000Y-122660000D01*
X38210000Y-120110000D02*
X38010000Y-120110000D01*
X38230000Y-122360000D02*
X38230000Y-120110000D01*
X38010000Y-122360000D02*
X38210000Y-122360000D01*
X38010000Y-123360000D02*
X38010000Y-122360000D01*
D15*
X40010000Y-121560000D02*
X46710000Y-121560000D01*
D14*
X38710000Y-120360000D02*
X38710000Y-122860000D01*
D13*
X38310000Y-123060000D02*
X39710000Y-123060000D01*
D16*
X46780000Y-121260000D02*
X46780000Y-123500000D01*
D17*
X47910000Y-124760000D02*
X47910000Y-122960000D01*
D18*
X48409999Y-122560000D02*
X48410000Y-121660001D01*
D12*
X228710000Y-103410000D02*
X228710000Y-104110000D01*
X228710000Y-100910000D02*
X230110000Y-100910000D01*
D13*
X238810000Y-106010000D02*
X236110000Y-106010000D01*
D14*
X236126318Y-105788529D02*
G75*
G03X233910000Y-103910000I-2151318J-291471D01*
G01*
D10*
X228510000Y-101060000D02*
X228510000Y-100710000D01*
X239010001Y-102610000D02*
G75*
G03X236910000Y-100709999I-2000001J-100000D01*
G01*
X235726318Y-106188529D02*
G75*
G03X233510000Y-104310000I-2151318J-291471D01*
G01*
X228510000Y-100710000D02*
X236910000Y-100709999D01*
X233510000Y-104310000D02*
X228510000Y-104310000D01*
X239010000Y-106210000D02*
X235730000Y-106210000D01*
X239010000Y-102610000D02*
X239010000Y-103610000D01*
X239010000Y-106210000D02*
X239010000Y-105850000D01*
X238810000Y-105850000D02*
X239010000Y-105850000D01*
X238780000Y-103610000D02*
X238780000Y-105850000D01*
X239010000Y-103610000D02*
X238810000Y-103610000D01*
X228710000Y-101060000D02*
X228510000Y-101060000D01*
X228730000Y-103310000D02*
X228730000Y-101060000D01*
X228510000Y-103310000D02*
X228710000Y-103310000D01*
X228510000Y-104310000D02*
X228510000Y-103310000D01*
D15*
X230510000Y-102510000D02*
X237210000Y-102510000D01*
D14*
X229210000Y-101310000D02*
X229210000Y-103810000D01*
D13*
X228810000Y-104010000D02*
X230210000Y-104010000D01*
D16*
X237280000Y-102210000D02*
X237280000Y-104450000D01*
D17*
X238410000Y-105710000D02*
X238410000Y-103910000D01*
D18*
X238909999Y-103510000D02*
X238910000Y-102610001D01*
D12*
X209660000Y-103410000D02*
X209660000Y-104110000D01*
X209660000Y-100910000D02*
X211060000Y-100910000D01*
D13*
X219760000Y-106010000D02*
X217060000Y-106010000D01*
D14*
X217076318Y-105788529D02*
G75*
G03X214860000Y-103910000I-2151318J-291471D01*
G01*
D10*
X209460000Y-101060000D02*
X209460000Y-100710000D01*
X219960001Y-102610000D02*
G75*
G03X217860000Y-100709999I-2000001J-100000D01*
G01*
X216676318Y-106188529D02*
G75*
G03X214460000Y-104310000I-2151318J-291471D01*
G01*
X209460000Y-100710000D02*
X217860000Y-100709999D01*
X214460000Y-104310000D02*
X209460000Y-104310000D01*
X219960000Y-106210000D02*
X216680000Y-106210000D01*
X219960000Y-102610000D02*
X219960000Y-103610000D01*
X219960000Y-106210000D02*
X219960000Y-105850000D01*
X219760000Y-105850000D02*
X219960000Y-105850000D01*
X219730000Y-103610000D02*
X219730000Y-105850000D01*
X219960000Y-103610000D02*
X219760000Y-103610000D01*
X209660000Y-101060000D02*
X209460000Y-101060000D01*
X209680000Y-103310000D02*
X209680000Y-101060000D01*
X209460000Y-103310000D02*
X209660000Y-103310000D01*
X209460000Y-104310000D02*
X209460000Y-103310000D01*
D15*
X211460000Y-102510000D02*
X218160000Y-102510000D01*
D14*
X210160000Y-101310000D02*
X210160000Y-103810000D01*
D13*
X209760000Y-104010000D02*
X211160000Y-104010000D01*
D16*
X218230000Y-102210000D02*
X218230000Y-104450000D01*
D17*
X219360000Y-105710000D02*
X219360000Y-103910000D01*
D18*
X219859999Y-103510000D02*
X219860000Y-102610001D01*
D12*
X190610000Y-103410000D02*
X190610000Y-104110000D01*
X190610000Y-100910000D02*
X192010000Y-100910000D01*
D13*
X200710000Y-106010000D02*
X198010000Y-106010000D01*
D14*
X198026318Y-105788529D02*
G75*
G03X195810000Y-103910000I-2151318J-291471D01*
G01*
D10*
X190410000Y-101060000D02*
X190410000Y-100710000D01*
X200910001Y-102610000D02*
G75*
G03X198810000Y-100709999I-2000001J-100000D01*
G01*
X197626318Y-106188529D02*
G75*
G03X195410000Y-104310000I-2151318J-291471D01*
G01*
X190410000Y-100710000D02*
X198810000Y-100709999D01*
X195410000Y-104310000D02*
X190410000Y-104310000D01*
X200910000Y-106210000D02*
X197630000Y-106210000D01*
X200910000Y-102610000D02*
X200910000Y-103610000D01*
X200910000Y-106210000D02*
X200910000Y-105850000D01*
X200710000Y-105850000D02*
X200910000Y-105850000D01*
X200680000Y-103610000D02*
X200680000Y-105850000D01*
X200910000Y-103610000D02*
X200710000Y-103610000D01*
X190610000Y-101060000D02*
X190410000Y-101060000D01*
X190630000Y-103310000D02*
X190630000Y-101060000D01*
X190410000Y-103310000D02*
X190610000Y-103310000D01*
X190410000Y-104310000D02*
X190410000Y-103310000D01*
D15*
X192410000Y-102510000D02*
X199110000Y-102510000D01*
D14*
X191110000Y-101310000D02*
X191110000Y-103810000D01*
D13*
X190710000Y-104010000D02*
X192110000Y-104010000D01*
D16*
X199180000Y-102210000D02*
X199180000Y-104450000D01*
D17*
X200310000Y-105710000D02*
X200310000Y-103910000D01*
D18*
X200809999Y-103510000D02*
X200810000Y-102610001D01*
D12*
X171560000Y-103410000D02*
X171560000Y-104110000D01*
X171560000Y-100910000D02*
X172960000Y-100910000D01*
D13*
X181660000Y-106010000D02*
X178960000Y-106010000D01*
D14*
X178976318Y-105788529D02*
G75*
G03X176760000Y-103910000I-2151318J-291471D01*
G01*
D10*
X171360000Y-101060000D02*
X171360000Y-100710000D01*
X181860001Y-102610000D02*
G75*
G03X179760000Y-100709999I-2000001J-100000D01*
G01*
X178576318Y-106188529D02*
G75*
G03X176360000Y-104310000I-2151318J-291471D01*
G01*
X171360000Y-100710000D02*
X179760000Y-100709999D01*
X176360000Y-104310000D02*
X171360000Y-104310000D01*
X181860000Y-106210000D02*
X178580000Y-106210000D01*
X181860000Y-102610000D02*
X181860000Y-103610000D01*
X181860000Y-106210000D02*
X181860000Y-105850000D01*
X181660000Y-105850000D02*
X181860000Y-105850000D01*
X181630000Y-103610000D02*
X181630000Y-105850000D01*
X181860000Y-103610000D02*
X181660000Y-103610000D01*
X171560000Y-101060000D02*
X171360000Y-101060000D01*
X171580000Y-103310000D02*
X171580000Y-101060000D01*
X171360000Y-103310000D02*
X171560000Y-103310000D01*
X171360000Y-104310000D02*
X171360000Y-103310000D01*
D15*
X173360000Y-102510000D02*
X180060000Y-102510000D01*
D14*
X172060000Y-101310000D02*
X172060000Y-103810000D01*
D13*
X171660000Y-104010000D02*
X173060000Y-104010000D01*
D16*
X180130000Y-102210000D02*
X180130000Y-104450000D01*
D17*
X181260000Y-105710000D02*
X181260000Y-103910000D01*
D18*
X181759999Y-103510000D02*
X181760000Y-102610001D01*
D12*
X152510000Y-103410000D02*
X152510000Y-104110000D01*
X152510000Y-100910000D02*
X153910000Y-100910000D01*
D13*
X162610000Y-106010000D02*
X159910000Y-106010000D01*
D14*
X159926318Y-105788529D02*
G75*
G03X157710000Y-103910000I-2151318J-291471D01*
G01*
D10*
X152310000Y-101060000D02*
X152310000Y-100710000D01*
X162810001Y-102610000D02*
G75*
G03X160710000Y-100709999I-2000001J-100000D01*
G01*
X159526318Y-106188529D02*
G75*
G03X157310000Y-104310000I-2151318J-291471D01*
G01*
X152310000Y-100710000D02*
X160710000Y-100709999D01*
X157310000Y-104310000D02*
X152310000Y-104310000D01*
X162810000Y-106210000D02*
X159530000Y-106210000D01*
X162810000Y-102610000D02*
X162810000Y-103610000D01*
X162810000Y-106210000D02*
X162810000Y-105850000D01*
X162610000Y-105850000D02*
X162810000Y-105850000D01*
X162580000Y-103610000D02*
X162580000Y-105850000D01*
X162810000Y-103610000D02*
X162610000Y-103610000D01*
X152510000Y-101060000D02*
X152310000Y-101060000D01*
X152530000Y-103310000D02*
X152530000Y-101060000D01*
X152310000Y-103310000D02*
X152510000Y-103310000D01*
X152310000Y-104310000D02*
X152310000Y-103310000D01*
D15*
X154310000Y-102510000D02*
X161010000Y-102510000D01*
D14*
X153010000Y-101310000D02*
X153010000Y-103810000D01*
D13*
X152610000Y-104010000D02*
X154010000Y-104010000D01*
D16*
X161080000Y-102210000D02*
X161080000Y-104450000D01*
D17*
X162210000Y-105710000D02*
X162210000Y-103910000D01*
D18*
X162709999Y-103510000D02*
X162710000Y-102610001D01*
D12*
X133460000Y-103410000D02*
X133460000Y-104110000D01*
X133460000Y-100910000D02*
X134860000Y-100910000D01*
D13*
X143560000Y-106010000D02*
X140860000Y-106010000D01*
D14*
X140876318Y-105788529D02*
G75*
G03X138660000Y-103910000I-2151318J-291471D01*
G01*
D10*
X133260000Y-101060000D02*
X133260000Y-100710000D01*
X143760001Y-102610000D02*
G75*
G03X141660000Y-100709999I-2000001J-100000D01*
G01*
X140476318Y-106188529D02*
G75*
G03X138260000Y-104310000I-2151318J-291471D01*
G01*
X133260000Y-100710000D02*
X141660000Y-100709999D01*
X138260000Y-104310000D02*
X133260000Y-104310000D01*
X143760000Y-106210000D02*
X140480000Y-106210000D01*
X143760000Y-102610000D02*
X143760000Y-103610000D01*
X143760000Y-106210000D02*
X143760000Y-105850000D01*
X143560000Y-105850000D02*
X143760000Y-105850000D01*
X143530000Y-103610000D02*
X143530000Y-105850000D01*
X143760000Y-103610000D02*
X143560000Y-103610000D01*
X133460000Y-101060000D02*
X133260000Y-101060000D01*
X133480000Y-103310000D02*
X133480000Y-101060000D01*
X133260000Y-103310000D02*
X133460000Y-103310000D01*
X133260000Y-104310000D02*
X133260000Y-103310000D01*
D15*
X135260000Y-102510000D02*
X141960000Y-102510000D01*
D14*
X133960000Y-101310000D02*
X133960000Y-103810000D01*
D13*
X133560000Y-104010000D02*
X134960000Y-104010000D01*
D16*
X142030000Y-102210000D02*
X142030000Y-104450000D01*
D17*
X143160000Y-105710000D02*
X143160000Y-103910000D01*
D18*
X143659999Y-103510000D02*
X143660000Y-102610001D01*
D12*
X114410000Y-103410000D02*
X114410000Y-104110000D01*
X114410000Y-100910000D02*
X115810000Y-100910000D01*
D13*
X124510000Y-106010000D02*
X121810000Y-106010000D01*
D14*
X121826318Y-105788529D02*
G75*
G03X119610000Y-103910000I-2151318J-291471D01*
G01*
D10*
X114210000Y-101060000D02*
X114210000Y-100710000D01*
X124710001Y-102610000D02*
G75*
G03X122610000Y-100709999I-2000001J-100000D01*
G01*
X121426318Y-106188529D02*
G75*
G03X119210000Y-104310000I-2151318J-291471D01*
G01*
X114210000Y-100710000D02*
X122610000Y-100709999D01*
X119210000Y-104310000D02*
X114210000Y-104310000D01*
X124710000Y-106210000D02*
X121430000Y-106210000D01*
X124710000Y-102610000D02*
X124710000Y-103610000D01*
X124710000Y-106210000D02*
X124710000Y-105850000D01*
X124510000Y-105850000D02*
X124710000Y-105850000D01*
X124480000Y-103610000D02*
X124480000Y-105850000D01*
X124710000Y-103610000D02*
X124510000Y-103610000D01*
X114410000Y-101060000D02*
X114210000Y-101060000D01*
X114430000Y-103310000D02*
X114430000Y-101060000D01*
X114210000Y-103310000D02*
X114410000Y-103310000D01*
X114210000Y-104310000D02*
X114210000Y-103310000D01*
D15*
X116210000Y-102510000D02*
X122910000Y-102510000D01*
D14*
X114910000Y-101310000D02*
X114910000Y-103810000D01*
D13*
X114510000Y-104010000D02*
X115910000Y-104010000D01*
D16*
X122980000Y-102210000D02*
X122980000Y-104450000D01*
D17*
X124110000Y-105710000D02*
X124110000Y-103910000D01*
D18*
X124609999Y-103510000D02*
X124610000Y-102610001D01*
D12*
X95360000Y-103410000D02*
X95360000Y-104110000D01*
X95360000Y-100910000D02*
X96760000Y-100910000D01*
D13*
X105460000Y-106010000D02*
X102760000Y-106010000D01*
D14*
X102776318Y-105788529D02*
G75*
G03X100560000Y-103910000I-2151318J-291471D01*
G01*
D10*
X95160000Y-101060000D02*
X95160000Y-100710000D01*
X105660001Y-102610000D02*
G75*
G03X103560000Y-100709999I-2000001J-100000D01*
G01*
X102376318Y-106188529D02*
G75*
G03X100160000Y-104310000I-2151318J-291471D01*
G01*
X95160000Y-100710000D02*
X103560000Y-100709999D01*
X100160000Y-104310000D02*
X95160000Y-104310000D01*
X105660000Y-106210000D02*
X102380000Y-106210000D01*
X105660000Y-102610000D02*
X105660000Y-103610000D01*
X105660000Y-106210000D02*
X105660000Y-105850000D01*
X105460000Y-105850000D02*
X105660000Y-105850000D01*
X105430000Y-103610000D02*
X105430000Y-105850000D01*
X105660000Y-103610000D02*
X105460000Y-103610000D01*
X95360000Y-101060000D02*
X95160000Y-101060000D01*
X95380000Y-103310000D02*
X95380000Y-101060000D01*
X95160000Y-103310000D02*
X95360000Y-103310000D01*
X95160000Y-104310000D02*
X95160000Y-103310000D01*
D15*
X97160000Y-102510000D02*
X103860000Y-102510000D01*
D14*
X95860000Y-101310000D02*
X95860000Y-103810000D01*
D13*
X95460000Y-104010000D02*
X96860000Y-104010000D01*
D16*
X103930000Y-102210000D02*
X103930000Y-104450000D01*
D17*
X105060000Y-105710000D02*
X105060000Y-103910000D01*
D18*
X105559999Y-103510000D02*
X105560000Y-102610001D01*
D12*
X76310000Y-103410000D02*
X76310000Y-104110000D01*
X76310000Y-100910000D02*
X77710000Y-100910000D01*
D13*
X86410000Y-106010000D02*
X83710000Y-106010000D01*
D14*
X83726318Y-105788529D02*
G75*
G03X81510000Y-103910000I-2151318J-291471D01*
G01*
D10*
X76110000Y-101060000D02*
X76110000Y-100710000D01*
X86610001Y-102610000D02*
G75*
G03X84510000Y-100709999I-2000001J-100000D01*
G01*
X83326318Y-106188529D02*
G75*
G03X81110000Y-104310000I-2151318J-291471D01*
G01*
X76110000Y-100710000D02*
X84510000Y-100709999D01*
X81110000Y-104310000D02*
X76110000Y-104310000D01*
X86610000Y-106210000D02*
X83330000Y-106210000D01*
X86610000Y-102610000D02*
X86610000Y-103610000D01*
X86610000Y-106210000D02*
X86610000Y-105850000D01*
X86410000Y-105850000D02*
X86610000Y-105850000D01*
X86380000Y-103610000D02*
X86380000Y-105850000D01*
X86610000Y-103610000D02*
X86410000Y-103610000D01*
X76310000Y-101060000D02*
X76110000Y-101060000D01*
X76330000Y-103310000D02*
X76330000Y-101060000D01*
X76110000Y-103310000D02*
X76310000Y-103310000D01*
X76110000Y-104310000D02*
X76110000Y-103310000D01*
D15*
X78110000Y-102510000D02*
X84810000Y-102510000D01*
D14*
X76810000Y-101310000D02*
X76810000Y-103810000D01*
D13*
X76410000Y-104010000D02*
X77810000Y-104010000D01*
D16*
X84880000Y-102210000D02*
X84880000Y-104450000D01*
D17*
X86010000Y-105710000D02*
X86010000Y-103910000D01*
D18*
X86509999Y-103510000D02*
X86510000Y-102610001D01*
D12*
X252550000Y-84360000D02*
X252550000Y-85060000D01*
X252550000Y-81860000D02*
X253950000Y-81860000D01*
D13*
X262650000Y-86960000D02*
X259950000Y-86960000D01*
D14*
X259966318Y-86738529D02*
G75*
G03X257750000Y-84860000I-2151318J-291471D01*
G01*
D10*
X252350000Y-82010000D02*
X252350000Y-81660000D01*
X262850001Y-83560000D02*
G75*
G03X260750000Y-81659999I-2000001J-100000D01*
G01*
X259566318Y-87138529D02*
G75*
G03X257350000Y-85260000I-2151318J-291471D01*
G01*
X252350000Y-81660000D02*
X260750000Y-81659999D01*
X257350000Y-85260000D02*
X252350000Y-85260000D01*
X262850000Y-87160000D02*
X259570000Y-87160000D01*
X262850000Y-83560000D02*
X262850000Y-84560000D01*
X262850000Y-87160000D02*
X262850000Y-86800000D01*
X262650000Y-86800000D02*
X262850000Y-86800000D01*
X262620000Y-84560000D02*
X262620000Y-86800000D01*
X262850000Y-84560000D02*
X262650000Y-84560000D01*
X252550000Y-82010000D02*
X252350000Y-82010000D01*
X252570000Y-84260000D02*
X252570000Y-82010000D01*
X252350000Y-84260000D02*
X252550000Y-84260000D01*
X252350000Y-85260000D02*
X252350000Y-84260000D01*
D15*
X254350000Y-83460000D02*
X261050000Y-83460000D01*
D14*
X253050000Y-82260000D02*
X253050000Y-84760000D01*
D13*
X252650000Y-84960000D02*
X254050000Y-84960000D01*
D16*
X261120000Y-83160000D02*
X261120000Y-85400000D01*
D17*
X262250000Y-86660000D02*
X262250000Y-84860000D01*
D18*
X262749999Y-84460000D02*
X262750000Y-83560001D01*
D12*
X228710000Y-84360000D02*
X228710000Y-85060000D01*
X228710000Y-81860000D02*
X230110000Y-81860000D01*
D13*
X238810000Y-86960000D02*
X236110000Y-86960000D01*
D14*
X236126318Y-86738529D02*
G75*
G03X233910000Y-84860000I-2151318J-291471D01*
G01*
D10*
X228510000Y-82010000D02*
X228510000Y-81660000D01*
X239010001Y-83560000D02*
G75*
G03X236910000Y-81659999I-2000001J-100000D01*
G01*
X235726318Y-87138529D02*
G75*
G03X233510000Y-85260000I-2151318J-291471D01*
G01*
X228510000Y-81660000D02*
X236910000Y-81659999D01*
X233510000Y-85260000D02*
X228510000Y-85260000D01*
X239010000Y-87160000D02*
X235730000Y-87160000D01*
X239010000Y-83560000D02*
X239010000Y-84560000D01*
X239010000Y-87160000D02*
X239010000Y-86800000D01*
X238810000Y-86800000D02*
X239010000Y-86800000D01*
X238780000Y-84560000D02*
X238780000Y-86800000D01*
X239010000Y-84560000D02*
X238810000Y-84560000D01*
X228710000Y-82010000D02*
X228510000Y-82010000D01*
X228730000Y-84260000D02*
X228730000Y-82010000D01*
X228510000Y-84260000D02*
X228710000Y-84260000D01*
X228510000Y-85260000D02*
X228510000Y-84260000D01*
D15*
X230510000Y-83460000D02*
X237210000Y-83460000D01*
D14*
X229210000Y-82260000D02*
X229210000Y-84760000D01*
D13*
X228810000Y-84960000D02*
X230210000Y-84960000D01*
D16*
X237280000Y-83160000D02*
X237280000Y-85400000D01*
D17*
X238410000Y-86660000D02*
X238410000Y-84860000D01*
D18*
X238909999Y-84460000D02*
X238910000Y-83560001D01*
D12*
X209660000Y-84360000D02*
X209660000Y-85060000D01*
X209660000Y-81860000D02*
X211060000Y-81860000D01*
D13*
X219760000Y-86960000D02*
X217060000Y-86960000D01*
D14*
X217076318Y-86738529D02*
G75*
G03X214860000Y-84860000I-2151318J-291471D01*
G01*
D10*
X209460000Y-82010000D02*
X209460000Y-81660000D01*
X219960001Y-83560000D02*
G75*
G03X217860000Y-81659999I-2000001J-100000D01*
G01*
X216676318Y-87138529D02*
G75*
G03X214460000Y-85260000I-2151318J-291471D01*
G01*
X209460000Y-81660000D02*
X217860000Y-81659999D01*
X214460000Y-85260000D02*
X209460000Y-85260000D01*
X219960000Y-87160000D02*
X216680000Y-87160000D01*
X219960000Y-83560000D02*
X219960000Y-84560000D01*
X219960000Y-87160000D02*
X219960000Y-86800000D01*
X219760000Y-86800000D02*
X219960000Y-86800000D01*
X219730000Y-84560000D02*
X219730000Y-86800000D01*
X219960000Y-84560000D02*
X219760000Y-84560000D01*
X209660000Y-82010000D02*
X209460000Y-82010000D01*
X209680000Y-84260000D02*
X209680000Y-82010000D01*
X209460000Y-84260000D02*
X209660000Y-84260000D01*
X209460000Y-85260000D02*
X209460000Y-84260000D01*
D15*
X211460000Y-83460000D02*
X218160000Y-83460000D01*
D14*
X210160000Y-82260000D02*
X210160000Y-84760000D01*
D13*
X209760000Y-84960000D02*
X211160000Y-84960000D01*
D16*
X218230000Y-83160000D02*
X218230000Y-85400000D01*
D17*
X219360000Y-86660000D02*
X219360000Y-84860000D01*
D18*
X219859999Y-84460000D02*
X219860000Y-83560001D01*
D12*
X190610000Y-84360000D02*
X190610000Y-85060000D01*
X190610000Y-81860000D02*
X192010000Y-81860000D01*
D13*
X200710000Y-86960000D02*
X198010000Y-86960000D01*
D14*
X198026318Y-86738529D02*
G75*
G03X195810000Y-84860000I-2151318J-291471D01*
G01*
D10*
X190410000Y-82010000D02*
X190410000Y-81660000D01*
X200910001Y-83560000D02*
G75*
G03X198810000Y-81659999I-2000001J-100000D01*
G01*
X197626318Y-87138529D02*
G75*
G03X195410000Y-85260000I-2151318J-291471D01*
G01*
X190410000Y-81660000D02*
X198810000Y-81659999D01*
X195410000Y-85260000D02*
X190410000Y-85260000D01*
X200910000Y-87160000D02*
X197630000Y-87160000D01*
X200910000Y-83560000D02*
X200910000Y-84560000D01*
X200910000Y-87160000D02*
X200910000Y-86800000D01*
X200710000Y-86800000D02*
X200910000Y-86800000D01*
X200680000Y-84560000D02*
X200680000Y-86800000D01*
X200910000Y-84560000D02*
X200710000Y-84560000D01*
X190610000Y-82010000D02*
X190410000Y-82010000D01*
X190630000Y-84260000D02*
X190630000Y-82010000D01*
X190410000Y-84260000D02*
X190610000Y-84260000D01*
X190410000Y-85260000D02*
X190410000Y-84260000D01*
D15*
X192410000Y-83460000D02*
X199110000Y-83460000D01*
D14*
X191110000Y-82260000D02*
X191110000Y-84760000D01*
D13*
X190710000Y-84960000D02*
X192110000Y-84960000D01*
D16*
X199180000Y-83160000D02*
X199180000Y-85400000D01*
D17*
X200310000Y-86660000D02*
X200310000Y-84860000D01*
D18*
X200809999Y-84460000D02*
X200810000Y-83560001D01*
D12*
X171560000Y-84360000D02*
X171560000Y-85060000D01*
X171560000Y-81860000D02*
X172960000Y-81860000D01*
D13*
X181660000Y-86960000D02*
X178960000Y-86960000D01*
D14*
X178976318Y-86738529D02*
G75*
G03X176760000Y-84860000I-2151318J-291471D01*
G01*
D10*
X171360000Y-82010000D02*
X171360000Y-81660000D01*
X181860001Y-83560000D02*
G75*
G03X179760000Y-81659999I-2000001J-100000D01*
G01*
X178576318Y-87138529D02*
G75*
G03X176360000Y-85260000I-2151318J-291471D01*
G01*
X171360000Y-81660000D02*
X179760000Y-81659999D01*
X176360000Y-85260000D02*
X171360000Y-85260000D01*
X181860000Y-87160000D02*
X178580000Y-87160000D01*
X181860000Y-83560000D02*
X181860000Y-84560000D01*
X181860000Y-87160000D02*
X181860000Y-86800000D01*
X181660000Y-86800000D02*
X181860000Y-86800000D01*
X181630000Y-84560000D02*
X181630000Y-86800000D01*
X181860000Y-84560000D02*
X181660000Y-84560000D01*
X171560000Y-82010000D02*
X171360000Y-82010000D01*
X171580000Y-84260000D02*
X171580000Y-82010000D01*
X171360000Y-84260000D02*
X171560000Y-84260000D01*
X171360000Y-85260000D02*
X171360000Y-84260000D01*
D15*
X173360000Y-83460000D02*
X180060000Y-83460000D01*
D14*
X172060000Y-82260000D02*
X172060000Y-84760000D01*
D13*
X171660000Y-84960000D02*
X173060000Y-84960000D01*
D16*
X180130000Y-83160000D02*
X180130000Y-85400000D01*
D17*
X181260000Y-86660000D02*
X181260000Y-84860000D01*
D18*
X181759999Y-84460000D02*
X181760000Y-83560001D01*
D12*
X152510000Y-84360000D02*
X152510000Y-85060000D01*
X152510000Y-81860000D02*
X153910000Y-81860000D01*
D13*
X162610000Y-86960000D02*
X159910000Y-86960000D01*
D14*
X159926318Y-86738529D02*
G75*
G03X157710000Y-84860000I-2151318J-291471D01*
G01*
D10*
X152310000Y-82010000D02*
X152310000Y-81660000D01*
X162810001Y-83560000D02*
G75*
G03X160710000Y-81659999I-2000001J-100000D01*
G01*
X159526318Y-87138529D02*
G75*
G03X157310000Y-85260000I-2151318J-291471D01*
G01*
X152310000Y-81660000D02*
X160710000Y-81659999D01*
X157310000Y-85260000D02*
X152310000Y-85260000D01*
X162810000Y-87160000D02*
X159530000Y-87160000D01*
X162810000Y-83560000D02*
X162810000Y-84560000D01*
X162810000Y-87160000D02*
X162810000Y-86800000D01*
X162610000Y-86800000D02*
X162810000Y-86800000D01*
X162580000Y-84560000D02*
X162580000Y-86800000D01*
X162810000Y-84560000D02*
X162610000Y-84560000D01*
X152510000Y-82010000D02*
X152310000Y-82010000D01*
X152530000Y-84260000D02*
X152530000Y-82010000D01*
X152310000Y-84260000D02*
X152510000Y-84260000D01*
X152310000Y-85260000D02*
X152310000Y-84260000D01*
D15*
X154310000Y-83460000D02*
X161010000Y-83460000D01*
D14*
X153010000Y-82260000D02*
X153010000Y-84760000D01*
D13*
X152610000Y-84960000D02*
X154010000Y-84960000D01*
D16*
X161080000Y-83160000D02*
X161080000Y-85400000D01*
D17*
X162210000Y-86660000D02*
X162210000Y-84860000D01*
D18*
X162709999Y-84460000D02*
X162710000Y-83560001D01*
D12*
X133460000Y-84360000D02*
X133460000Y-85060000D01*
X133460000Y-81860000D02*
X134860000Y-81860000D01*
D13*
X143560000Y-86960000D02*
X140860000Y-86960000D01*
D14*
X140876318Y-86738529D02*
G75*
G03X138660000Y-84860000I-2151318J-291471D01*
G01*
D10*
X133260000Y-82010000D02*
X133260000Y-81660000D01*
X143760001Y-83560000D02*
G75*
G03X141660000Y-81659999I-2000001J-100000D01*
G01*
X140476318Y-87138529D02*
G75*
G03X138260000Y-85260000I-2151318J-291471D01*
G01*
X133260000Y-81660000D02*
X141660000Y-81659999D01*
X138260000Y-85260000D02*
X133260000Y-85260000D01*
X143760000Y-87160000D02*
X140480000Y-87160000D01*
X143760000Y-83560000D02*
X143760000Y-84560000D01*
X143760000Y-87160000D02*
X143760000Y-86800000D01*
X143560000Y-86800000D02*
X143760000Y-86800000D01*
X143530000Y-84560000D02*
X143530000Y-86800000D01*
X143760000Y-84560000D02*
X143560000Y-84560000D01*
X133460000Y-82010000D02*
X133260000Y-82010000D01*
X133480000Y-84260000D02*
X133480000Y-82010000D01*
X133260000Y-84260000D02*
X133460000Y-84260000D01*
X133260000Y-85260000D02*
X133260000Y-84260000D01*
D15*
X135260000Y-83460000D02*
X141960000Y-83460000D01*
D14*
X133960000Y-82260000D02*
X133960000Y-84760000D01*
D13*
X133560000Y-84960000D02*
X134960000Y-84960000D01*
D16*
X142030000Y-83160000D02*
X142030000Y-85400000D01*
D17*
X143160000Y-86660000D02*
X143160000Y-84860000D01*
D18*
X143659999Y-84460000D02*
X143660000Y-83560001D01*
D12*
X114410000Y-84360000D02*
X114410000Y-85060000D01*
X114410000Y-81860000D02*
X115810000Y-81860000D01*
D13*
X124510000Y-86960000D02*
X121810000Y-86960000D01*
D14*
X121826318Y-86738529D02*
G75*
G03X119610000Y-84860000I-2151318J-291471D01*
G01*
D10*
X114210000Y-82010000D02*
X114210000Y-81660000D01*
X124710001Y-83560000D02*
G75*
G03X122610000Y-81659999I-2000001J-100000D01*
G01*
X121426318Y-87138529D02*
G75*
G03X119210000Y-85260000I-2151318J-291471D01*
G01*
X114210000Y-81660000D02*
X122610000Y-81659999D01*
X119210000Y-85260000D02*
X114210000Y-85260000D01*
X124710000Y-87160000D02*
X121430000Y-87160000D01*
X124710000Y-83560000D02*
X124710000Y-84560000D01*
X124710000Y-87160000D02*
X124710000Y-86800000D01*
X124510000Y-86800000D02*
X124710000Y-86800000D01*
X124480000Y-84560000D02*
X124480000Y-86800000D01*
X124710000Y-84560000D02*
X124510000Y-84560000D01*
X114410000Y-82010000D02*
X114210000Y-82010000D01*
X114430000Y-84260000D02*
X114430000Y-82010000D01*
X114210000Y-84260000D02*
X114410000Y-84260000D01*
X114210000Y-85260000D02*
X114210000Y-84260000D01*
D15*
X116210000Y-83460000D02*
X122910000Y-83460000D01*
D14*
X114910000Y-82260000D02*
X114910000Y-84760000D01*
D13*
X114510000Y-84960000D02*
X115910000Y-84960000D01*
D16*
X122980000Y-83160000D02*
X122980000Y-85400000D01*
D17*
X124110000Y-86660000D02*
X124110000Y-84860000D01*
D18*
X124609999Y-84460000D02*
X124610000Y-83560001D01*
D12*
X95360000Y-84360000D02*
X95360000Y-85060000D01*
X95360000Y-81860000D02*
X96760000Y-81860000D01*
D13*
X105460000Y-86960000D02*
X102760000Y-86960000D01*
D14*
X102776318Y-86738529D02*
G75*
G03X100560000Y-84860000I-2151318J-291471D01*
G01*
D10*
X95160000Y-82010000D02*
X95160000Y-81660000D01*
X105660001Y-83560000D02*
G75*
G03X103560000Y-81659999I-2000001J-100000D01*
G01*
X102376318Y-87138529D02*
G75*
G03X100160000Y-85260000I-2151318J-291471D01*
G01*
X95160000Y-81660000D02*
X103560000Y-81659999D01*
X100160000Y-85260000D02*
X95160000Y-85260000D01*
X105660000Y-87160000D02*
X102380000Y-87160000D01*
X105660000Y-83560000D02*
X105660000Y-84560000D01*
X105660000Y-87160000D02*
X105660000Y-86800000D01*
X105460000Y-86800000D02*
X105660000Y-86800000D01*
X105430000Y-84560000D02*
X105430000Y-86800000D01*
X105660000Y-84560000D02*
X105460000Y-84560000D01*
X95360000Y-82010000D02*
X95160000Y-82010000D01*
X95380000Y-84260000D02*
X95380000Y-82010000D01*
X95160000Y-84260000D02*
X95360000Y-84260000D01*
X95160000Y-85260000D02*
X95160000Y-84260000D01*
D15*
X97160000Y-83460000D02*
X103860000Y-83460000D01*
D14*
X95860000Y-82260000D02*
X95860000Y-84760000D01*
D13*
X95460000Y-84960000D02*
X96860000Y-84960000D01*
D16*
X103930000Y-83160000D02*
X103930000Y-85400000D01*
D17*
X105060000Y-86660000D02*
X105060000Y-84860000D01*
D18*
X105559999Y-84460000D02*
X105560000Y-83560001D01*
D12*
X76310000Y-84360000D02*
X76310000Y-85060000D01*
X76310000Y-81860000D02*
X77710000Y-81860000D01*
D13*
X86410000Y-86960000D02*
X83710000Y-86960000D01*
D14*
X83726318Y-86738529D02*
G75*
G03X81510000Y-84860000I-2151318J-291471D01*
G01*
D10*
X76110000Y-82010000D02*
X76110000Y-81660000D01*
X86610001Y-83560000D02*
G75*
G03X84510000Y-81659999I-2000001J-100000D01*
G01*
X83326318Y-87138529D02*
G75*
G03X81110000Y-85260000I-2151318J-291471D01*
G01*
X76110000Y-81660000D02*
X84510000Y-81659999D01*
X81110000Y-85260000D02*
X76110000Y-85260000D01*
X86610000Y-87160000D02*
X83330000Y-87160000D01*
X86610000Y-83560000D02*
X86610000Y-84560000D01*
X86610000Y-87160000D02*
X86610000Y-86800000D01*
X86410000Y-86800000D02*
X86610000Y-86800000D01*
X86380000Y-84560000D02*
X86380000Y-86800000D01*
X86610000Y-84560000D02*
X86410000Y-84560000D01*
X76310000Y-82010000D02*
X76110000Y-82010000D01*
X76330000Y-84260000D02*
X76330000Y-82010000D01*
X76110000Y-84260000D02*
X76310000Y-84260000D01*
X76110000Y-85260000D02*
X76110000Y-84260000D01*
D15*
X78110000Y-83460000D02*
X84810000Y-83460000D01*
D14*
X76810000Y-82260000D02*
X76810000Y-84760000D01*
D13*
X76410000Y-84960000D02*
X77810000Y-84960000D01*
D16*
X84880000Y-83160000D02*
X84880000Y-85400000D01*
D17*
X86010000Y-86660000D02*
X86010000Y-84860000D01*
D18*
X86509999Y-84460000D02*
X86510000Y-83560001D01*
D12*
X57260000Y-84360000D02*
X57260000Y-85060000D01*
X57260000Y-81860000D02*
X58660000Y-81860000D01*
D13*
X67360000Y-86960000D02*
X64660000Y-86960000D01*
D14*
X64676318Y-86738529D02*
G75*
G03X62460000Y-84860000I-2151318J-291471D01*
G01*
D10*
X57060000Y-82010000D02*
X57060000Y-81660000D01*
X67560001Y-83560000D02*
G75*
G03X65460000Y-81659999I-2000001J-100000D01*
G01*
X64276318Y-87138529D02*
G75*
G03X62060000Y-85260000I-2151318J-291471D01*
G01*
X57060000Y-81660000D02*
X65460000Y-81659999D01*
X62060000Y-85260000D02*
X57060000Y-85260000D01*
X67560000Y-87160000D02*
X64280000Y-87160000D01*
X67560000Y-83560000D02*
X67560000Y-84560000D01*
X67560000Y-87160000D02*
X67560000Y-86800000D01*
X67360000Y-86800000D02*
X67560000Y-86800000D01*
X67330000Y-84560000D02*
X67330000Y-86800000D01*
X67560000Y-84560000D02*
X67360000Y-84560000D01*
X57260000Y-82010000D02*
X57060000Y-82010000D01*
X57280000Y-84260000D02*
X57280000Y-82010000D01*
X57060000Y-84260000D02*
X57260000Y-84260000D01*
X57060000Y-85260000D02*
X57060000Y-84260000D01*
D15*
X59060000Y-83460000D02*
X65760000Y-83460000D01*
D14*
X57760000Y-82260000D02*
X57760000Y-84760000D01*
D13*
X57360000Y-84960000D02*
X58760000Y-84960000D01*
D16*
X65830000Y-83160000D02*
X65830000Y-85400000D01*
D17*
X66960000Y-86660000D02*
X66960000Y-84860000D01*
D18*
X67459999Y-84460000D02*
X67460000Y-83560001D01*
D12*
X38210000Y-84360000D02*
X38210000Y-85060000D01*
X38210000Y-81860000D02*
X39610000Y-81860000D01*
D13*
X48310000Y-86960000D02*
X45610000Y-86960000D01*
D14*
X45626318Y-86738529D02*
G75*
G03X43410000Y-84860000I-2151318J-291471D01*
G01*
D10*
X38010000Y-82010000D02*
X38010000Y-81660000D01*
X48510001Y-83560000D02*
G75*
G03X46410000Y-81659999I-2000001J-100000D01*
G01*
X45226318Y-87138529D02*
G75*
G03X43010000Y-85260000I-2151318J-291471D01*
G01*
X38010000Y-81660000D02*
X46410000Y-81659999D01*
X43010000Y-85260000D02*
X38010000Y-85260000D01*
X48510000Y-87160000D02*
X45230000Y-87160000D01*
X48510000Y-83560000D02*
X48510000Y-84560000D01*
X48510000Y-87160000D02*
X48510000Y-86800000D01*
X48310000Y-86800000D02*
X48510000Y-86800000D01*
X48280000Y-84560000D02*
X48280000Y-86800000D01*
X48510000Y-84560000D02*
X48310000Y-84560000D01*
X38210000Y-82010000D02*
X38010000Y-82010000D01*
X38230000Y-84260000D02*
X38230000Y-82010000D01*
X38010000Y-84260000D02*
X38210000Y-84260000D01*
X38010000Y-85260000D02*
X38010000Y-84260000D01*
D15*
X40010000Y-83460000D02*
X46710000Y-83460000D01*
D14*
X38710000Y-82260000D02*
X38710000Y-84760000D01*
D13*
X38310000Y-84960000D02*
X39710000Y-84960000D01*
D16*
X46780000Y-83160000D02*
X46780000Y-85400000D01*
D17*
X47910000Y-86660000D02*
X47910000Y-84860000D01*
D18*
X48409999Y-84460000D02*
X48410000Y-83560001D01*
D10*
X40510000Y-94910000D02*
X40510000Y-95160000D01*
X34510000Y-94910000D02*
X40510000Y-94910000D01*
X34510000Y-94910000D02*
X34510000Y-95160000D01*
X34510000Y-98410000D02*
X34510000Y-98160000D01*
X40510000Y-98410000D02*
X40510000Y-98160000D01*
X34510000Y-98410000D02*
X40510000Y-98410000D01*
X245860000Y-119360000D02*
X247360000Y-119360000D01*
X245860000Y-113960000D02*
X245860000Y-119360000D01*
X247360000Y-113960000D02*
X245860000Y-113960000D01*
X247360000Y-119360000D02*
X247360000Y-113960000D01*
X247110000Y-116160000D02*
X246110000Y-116160000D01*
X246110000Y-117160000D02*
X246610000Y-116260000D01*
X247110000Y-117160000D02*
X246110000Y-117160000D01*
X246610000Y-116260000D02*
X247110000Y-117160000D01*
X244190000Y-128350000D02*
X245690000Y-128350000D01*
X244190000Y-122950000D02*
X244190000Y-128350000D01*
X245690000Y-122950000D02*
X244190000Y-122950000D01*
X245690000Y-128350000D02*
X245690000Y-122950000D01*
X245440000Y-125150000D02*
X244440000Y-125150000D01*
X244440000Y-126150000D02*
X244940000Y-125250000D01*
X245440000Y-126150000D02*
X244440000Y-126150000D01*
X244940000Y-125250000D02*
X245440000Y-126150000D01*
X222760000Y-128450000D02*
X224260000Y-128450000D01*
X222760000Y-123050000D02*
X222760000Y-128450000D01*
X224260000Y-123050000D02*
X222760000Y-123050000D01*
X224260000Y-128450000D02*
X224260000Y-123050000D01*
X224010000Y-125250000D02*
X223010000Y-125250000D01*
X223010000Y-126250000D02*
X223510000Y-125350000D01*
X224010000Y-126250000D02*
X223010000Y-126250000D01*
X223510000Y-125350000D02*
X224010000Y-126250000D01*
X203760000Y-128450000D02*
X205260000Y-128450000D01*
X203760000Y-123050000D02*
X203760000Y-128450000D01*
X205260000Y-123050000D02*
X203760000Y-123050000D01*
X205260000Y-128450000D02*
X205260000Y-123050000D01*
X205010000Y-125250000D02*
X204010000Y-125250000D01*
X204010000Y-126250000D02*
X204510000Y-125350000D01*
X205010000Y-126250000D02*
X204010000Y-126250000D01*
X204510000Y-125350000D02*
X205010000Y-126250000D01*
X184660000Y-128450000D02*
X186160000Y-128450000D01*
X184660000Y-123050000D02*
X184660000Y-128450000D01*
X186160000Y-123050000D02*
X184660000Y-123050000D01*
X186160000Y-128450000D02*
X186160000Y-123050000D01*
X185910000Y-125250000D02*
X184910000Y-125250000D01*
X184910000Y-126250000D02*
X185410000Y-125350000D01*
X185910000Y-126250000D02*
X184910000Y-126250000D01*
X185410000Y-125350000D02*
X185910000Y-126250000D01*
X165660000Y-128550000D02*
X167160000Y-128550000D01*
X165660000Y-123150000D02*
X165660000Y-128550000D01*
X167160000Y-123150000D02*
X165660000Y-123150000D01*
X167160000Y-128550000D02*
X167160000Y-123150000D01*
X166910000Y-125350000D02*
X165910000Y-125350000D01*
X165910000Y-126350000D02*
X166410000Y-125450000D01*
X166910000Y-126350000D02*
X165910000Y-126350000D01*
X166410000Y-125450000D02*
X166910000Y-126350000D01*
X146560000Y-128550000D02*
X148060000Y-128550000D01*
X146560000Y-123150000D02*
X146560000Y-128550000D01*
X148060000Y-123150000D02*
X146560000Y-123150000D01*
X148060000Y-128550000D02*
X148060000Y-123150000D01*
X147810000Y-125350000D02*
X146810000Y-125350000D01*
X146810000Y-126350000D02*
X147310000Y-125450000D01*
X147810000Y-126350000D02*
X146810000Y-126350000D01*
X147310000Y-125450000D02*
X147810000Y-126350000D01*
X127660000Y-128560000D02*
X129160000Y-128560000D01*
X127660000Y-123160000D02*
X127660000Y-128560000D01*
X129160000Y-123160000D02*
X127660000Y-123160000D01*
X129160000Y-128560000D02*
X129160000Y-123160000D01*
X128910000Y-125360000D02*
X127910000Y-125360000D01*
X127910000Y-126360000D02*
X128410000Y-125460000D01*
X128910000Y-126360000D02*
X127910000Y-126360000D01*
X128410000Y-125460000D02*
X128910000Y-126360000D01*
X108560000Y-128550000D02*
X110060000Y-128550000D01*
X108560000Y-123150000D02*
X108560000Y-128550000D01*
X110060000Y-123150000D02*
X108560000Y-123150000D01*
X110060000Y-128550000D02*
X110060000Y-123150000D01*
X109810000Y-125350000D02*
X108810000Y-125350000D01*
X108810000Y-126350000D02*
X109310000Y-125450000D01*
X109810000Y-126350000D02*
X108810000Y-126350000D01*
X109310000Y-125450000D02*
X109810000Y-126350000D01*
X89460000Y-128660000D02*
X90960000Y-128660000D01*
X89460000Y-123260000D02*
X89460000Y-128660000D01*
X90960000Y-123260000D02*
X89460000Y-123260000D01*
X90960000Y-128660000D02*
X90960000Y-123260000D01*
X90710000Y-125460000D02*
X89710000Y-125460000D01*
X89710000Y-126460000D02*
X90210000Y-125560000D01*
X90710000Y-126460000D02*
X89710000Y-126460000D01*
X90210000Y-125560000D02*
X90710000Y-126460000D01*
X70360000Y-128750000D02*
X71860000Y-128750000D01*
X70360000Y-123350000D02*
X70360000Y-128750000D01*
X71860000Y-123350000D02*
X70360000Y-123350000D01*
X71860000Y-128750000D02*
X71860000Y-123350000D01*
X71610000Y-125550000D02*
X70610000Y-125550000D01*
X70610000Y-126550000D02*
X71110000Y-125650000D01*
X71610000Y-126550000D02*
X70610000Y-126550000D01*
X71110000Y-125650000D02*
X71610000Y-126550000D01*
X51360000Y-128550000D02*
X52860000Y-128550000D01*
X51360000Y-123150000D02*
X51360000Y-128550000D01*
X52860000Y-123150000D02*
X51360000Y-123150000D01*
X52860000Y-128550000D02*
X52860000Y-123150000D01*
X52610000Y-125350000D02*
X51610000Y-125350000D01*
X51610000Y-126350000D02*
X52110000Y-125450000D01*
X52610000Y-126350000D02*
X51610000Y-126350000D01*
X52110000Y-125450000D02*
X52610000Y-126350000D01*
X241860000Y-110460000D02*
X243360000Y-110460000D01*
X241860000Y-105060000D02*
X241860000Y-110460000D01*
X243360000Y-105060000D02*
X241860000Y-105060000D01*
X243360000Y-110460000D02*
X243360000Y-105060000D01*
X243110000Y-107260000D02*
X242110000Y-107260000D01*
X242110000Y-108260000D02*
X242610000Y-107360000D01*
X243110000Y-108260000D02*
X242110000Y-108260000D01*
X242610000Y-107360000D02*
X243110000Y-108260000D01*
X222660000Y-110460000D02*
X224160000Y-110460000D01*
X222660000Y-105060000D02*
X222660000Y-110460000D01*
X224160000Y-105060000D02*
X222660000Y-105060000D01*
X224160000Y-110460000D02*
X224160000Y-105060000D01*
X223910000Y-107260000D02*
X222910000Y-107260000D01*
X222910000Y-108260000D02*
X223410000Y-107360000D01*
X223910000Y-108260000D02*
X222910000Y-108260000D01*
X223410000Y-107360000D02*
X223910000Y-108260000D01*
X203860000Y-110360000D02*
X205360000Y-110360000D01*
X203860000Y-104960000D02*
X203860000Y-110360000D01*
X205360000Y-104960000D02*
X203860000Y-104960000D01*
X205360000Y-110360000D02*
X205360000Y-104960000D01*
X205110000Y-107160000D02*
X204110000Y-107160000D01*
X204110000Y-108160000D02*
X204610000Y-107260000D01*
X205110000Y-108160000D02*
X204110000Y-108160000D01*
X204610000Y-107260000D02*
X205110000Y-108160000D01*
X184460000Y-110350000D02*
X185960000Y-110350000D01*
X184460000Y-104950000D02*
X184460000Y-110350000D01*
X185960000Y-104950000D02*
X184460000Y-104950000D01*
X185960000Y-110350000D02*
X185960000Y-104950000D01*
X185710000Y-107150000D02*
X184710000Y-107150000D01*
X184710000Y-108150000D02*
X185210000Y-107250000D01*
X185710000Y-108150000D02*
X184710000Y-108150000D01*
X185210000Y-107250000D02*
X185710000Y-108150000D01*
X165760000Y-110360000D02*
X167260000Y-110360000D01*
X165760000Y-104960000D02*
X165760000Y-110360000D01*
X167260000Y-104960000D02*
X165760000Y-104960000D01*
X167260000Y-110360000D02*
X167260000Y-104960000D01*
X167010000Y-107160000D02*
X166010000Y-107160000D01*
X166010000Y-108160000D02*
X166510000Y-107260000D01*
X167010000Y-108160000D02*
X166010000Y-108160000D01*
X166510000Y-107260000D02*
X167010000Y-108160000D01*
X146560000Y-110350000D02*
X148060000Y-110350000D01*
X146560000Y-104950000D02*
X146560000Y-110350000D01*
X148060000Y-104950000D02*
X146560000Y-104950000D01*
X148060000Y-110350000D02*
X148060000Y-104950000D01*
X147810000Y-107150000D02*
X146810000Y-107150000D01*
X146810000Y-108150000D02*
X147310000Y-107250000D01*
X147810000Y-108150000D02*
X146810000Y-108150000D01*
X147310000Y-107250000D02*
X147810000Y-108150000D01*
X127560000Y-110250000D02*
X129060000Y-110250000D01*
X127560000Y-104850000D02*
X127560000Y-110250000D01*
X129060000Y-104850000D02*
X127560000Y-104850000D01*
X129060000Y-110250000D02*
X129060000Y-104850000D01*
X128810000Y-107050000D02*
X127810000Y-107050000D01*
X127810000Y-108050000D02*
X128310000Y-107150000D01*
X128810000Y-108050000D02*
X127810000Y-108050000D01*
X128310000Y-107150000D02*
X128810000Y-108050000D01*
X108560000Y-110160000D02*
X110060000Y-110160000D01*
X108560000Y-104760000D02*
X108560000Y-110160000D01*
X110060000Y-104760000D02*
X108560000Y-104760000D01*
X110060000Y-110160000D02*
X110060000Y-104760000D01*
X109810000Y-106960000D02*
X108810000Y-106960000D01*
X108810000Y-107960000D02*
X109310000Y-107060000D01*
X109810000Y-107960000D02*
X108810000Y-107960000D01*
X109310000Y-107060000D02*
X109810000Y-107960000D01*
X89460000Y-110260000D02*
X90960000Y-110260000D01*
X89460000Y-104860000D02*
X89460000Y-110260000D01*
X90960000Y-104860000D02*
X89460000Y-104860000D01*
X90960000Y-110260000D02*
X90960000Y-104860000D01*
X90710000Y-107060000D02*
X89710000Y-107060000D01*
X89710000Y-108060000D02*
X90210000Y-107160000D01*
X90710000Y-108060000D02*
X89710000Y-108060000D01*
X90210000Y-107160000D02*
X90710000Y-108060000D01*
X70460000Y-110360000D02*
X71960000Y-110360000D01*
X70460000Y-104960000D02*
X70460000Y-110360000D01*
X71960000Y-104960000D02*
X70460000Y-104960000D01*
X71960000Y-110360000D02*
X71960000Y-104960000D01*
X71710000Y-107160000D02*
X70710000Y-107160000D01*
X70710000Y-108160000D02*
X71210000Y-107260000D01*
X71710000Y-108160000D02*
X70710000Y-108160000D01*
X71210000Y-107260000D02*
X71710000Y-108160000D01*
X45200000Y-118410000D02*
X45200000Y-116910000D01*
X39800000Y-118410000D02*
X45200000Y-118410000D01*
X39800000Y-116910000D02*
X39800000Y-118410000D01*
X45200000Y-116910000D02*
X39800000Y-116910000D01*
X42000000Y-117160000D02*
X42000000Y-118160000D01*
X43000000Y-118160000D02*
X42100000Y-117660000D01*
X43000000Y-117160000D02*
X43000000Y-118160000D01*
X42100000Y-117660000D02*
X43000000Y-117160000D01*
X265860000Y-91170000D02*
X267360000Y-91170000D01*
X265860000Y-85770000D02*
X265860000Y-91170000D01*
X267360000Y-85770000D02*
X265860000Y-85770000D01*
X267360000Y-91170000D02*
X267360000Y-85770000D01*
X267110000Y-87970000D02*
X266110000Y-87970000D01*
X266110000Y-88970000D02*
X266610000Y-88070000D01*
X267110000Y-88970000D02*
X266110000Y-88970000D01*
X266610000Y-88070000D02*
X267110000Y-88970000D01*
X241960000Y-91160000D02*
X243460000Y-91160000D01*
X241960000Y-85760000D02*
X241960000Y-91160000D01*
X243460000Y-85760000D02*
X241960000Y-85760000D01*
X243460000Y-91160000D02*
X243460000Y-85760000D01*
X243210000Y-87960000D02*
X242210000Y-87960000D01*
X242210000Y-88960000D02*
X242710000Y-88060000D01*
X243210000Y-88960000D02*
X242210000Y-88960000D01*
X242710000Y-88060000D02*
X243210000Y-88960000D01*
X222860000Y-91060000D02*
X224360000Y-91060000D01*
X222860000Y-85660000D02*
X222860000Y-91060000D01*
X224360000Y-85660000D02*
X222860000Y-85660000D01*
X224360000Y-91060000D02*
X224360000Y-85660000D01*
X224110000Y-87860000D02*
X223110000Y-87860000D01*
X223110000Y-88860000D02*
X223610000Y-87960000D01*
X224110000Y-88860000D02*
X223110000Y-88860000D01*
X223610000Y-87960000D02*
X224110000Y-88860000D01*
X203660000Y-90950000D02*
X205160000Y-90950000D01*
X203660000Y-85550000D02*
X203660000Y-90950000D01*
X205160000Y-85550000D02*
X203660000Y-85550000D01*
X205160000Y-90950000D02*
X205160000Y-85550000D01*
X204910000Y-87750000D02*
X203910000Y-87750000D01*
X203910000Y-88750000D02*
X204410000Y-87850000D01*
X204910000Y-88750000D02*
X203910000Y-88750000D01*
X204410000Y-87850000D02*
X204910000Y-88750000D01*
X184660000Y-90850000D02*
X186160000Y-90850000D01*
X184660000Y-85450000D02*
X184660000Y-90850000D01*
X186160000Y-85450000D02*
X184660000Y-85450000D01*
X186160000Y-90850000D02*
X186160000Y-85450000D01*
X185910000Y-87650000D02*
X184910000Y-87650000D01*
X184910000Y-88650000D02*
X185410000Y-87750000D01*
X185910000Y-88650000D02*
X184910000Y-88650000D01*
X185410000Y-87750000D02*
X185910000Y-88650000D01*
X165660000Y-90850000D02*
X167160000Y-90850000D01*
X165660000Y-85450000D02*
X165660000Y-90850000D01*
X167160000Y-85450000D02*
X165660000Y-85450000D01*
X167160000Y-90850000D02*
X167160000Y-85450000D01*
X166910000Y-87650000D02*
X165910000Y-87650000D01*
X165910000Y-88650000D02*
X166410000Y-87750000D01*
X166910000Y-88650000D02*
X165910000Y-88650000D01*
X166410000Y-87750000D02*
X166910000Y-88650000D01*
X146660000Y-91260000D02*
X148160000Y-91260000D01*
X146660000Y-85860000D02*
X146660000Y-91260000D01*
X148160000Y-85860000D02*
X146660000Y-85860000D01*
X148160000Y-91260000D02*
X148160000Y-85860000D01*
X147910000Y-88060000D02*
X146910000Y-88060000D01*
X146910000Y-89060000D02*
X147410000Y-88160000D01*
X147910000Y-89060000D02*
X146910000Y-89060000D01*
X147410000Y-88160000D02*
X147910000Y-89060000D01*
X127360000Y-90850000D02*
X128860000Y-90850000D01*
X127360000Y-85450000D02*
X127360000Y-90850000D01*
X128860000Y-85450000D02*
X127360000Y-85450000D01*
X128860000Y-90850000D02*
X128860000Y-85450000D01*
X128610000Y-87650000D02*
X127610000Y-87650000D01*
X127610000Y-88650000D02*
X128110000Y-87750000D01*
X128610000Y-88650000D02*
X127610000Y-88650000D01*
X128110000Y-87750000D02*
X128610000Y-88650000D01*
X108560000Y-90960000D02*
X110060000Y-90960000D01*
X108560000Y-85560000D02*
X108560000Y-90960000D01*
X110060000Y-85560000D02*
X108560000Y-85560000D01*
X110060000Y-90960000D02*
X110060000Y-85560000D01*
X109810000Y-87760000D02*
X108810000Y-87760000D01*
X108810000Y-88760000D02*
X109310000Y-87860000D01*
X109810000Y-88760000D02*
X108810000Y-88760000D01*
X109310000Y-87860000D02*
X109810000Y-88760000D01*
X89460000Y-90970000D02*
X90960000Y-90970000D01*
X89460000Y-85570000D02*
X89460000Y-90970000D01*
X90960000Y-85570000D02*
X89460000Y-85570000D01*
X90960000Y-90970000D02*
X90960000Y-85570000D01*
X90710000Y-87770000D02*
X89710000Y-87770000D01*
X89710000Y-88770000D02*
X90210000Y-87870000D01*
X90710000Y-88770000D02*
X89710000Y-88770000D01*
X90210000Y-87870000D02*
X90710000Y-88770000D01*
X70410000Y-91010000D02*
X71910000Y-91010000D01*
X70410000Y-85610000D02*
X70410000Y-91010000D01*
X71910000Y-85610000D02*
X70410000Y-85610000D01*
X71910000Y-91010000D02*
X71910000Y-85610000D01*
X71660000Y-87810000D02*
X70660000Y-87810000D01*
X70660000Y-88810000D02*
X71160000Y-87910000D01*
X71660000Y-88810000D02*
X70660000Y-88810000D01*
X71160000Y-87910000D02*
X71660000Y-88810000D01*
X51370000Y-91080000D02*
X52870000Y-91080000D01*
X51370000Y-85680000D02*
X51370000Y-91080000D01*
X52870000Y-85680000D02*
X51370000Y-85680000D01*
X52870000Y-91080000D02*
X52870000Y-85680000D01*
X52620000Y-87880000D02*
X51620000Y-87880000D01*
X51620000Y-88880000D02*
X52120000Y-87980000D01*
X52620000Y-88880000D02*
X51620000Y-88880000D01*
X52120000Y-87980000D02*
X52620000Y-88880000D01*
X142626666Y-132952380D02*
X142293333Y-132476190D01*
X142055238Y-132952380D02*
X142055238Y-131952380D01*
X142436190Y-131952380D01*
X142531428Y-132000000D01*
X142579047Y-132047619D01*
X142626666Y-132142857D01*
X142626666Y-132285714D01*
X142579047Y-132380952D01*
X142531428Y-132428571D01*
X142436190Y-132476190D01*
X142055238Y-132476190D01*
X143055238Y-132428571D02*
X143388571Y-132428571D01*
X143531428Y-132952380D02*
X143055238Y-132952380D01*
X143055238Y-131952380D01*
X143531428Y-131952380D01*
X144293333Y-132428571D02*
X143960000Y-132428571D01*
X143960000Y-132952380D02*
X143960000Y-131952380D01*
X144436190Y-131952380D01*
X144960000Y-131952380D02*
X144960000Y-132190476D01*
X144721904Y-132095238D02*
X144960000Y-132190476D01*
X145198095Y-132095238D01*
X144817142Y-132380952D02*
X144960000Y-132190476D01*
X145102857Y-132380952D01*
X145721904Y-131952380D02*
X145721904Y-132190476D01*
X145483809Y-132095238D02*
X145721904Y-132190476D01*
X145960000Y-132095238D01*
X145579047Y-132380952D02*
X145721904Y-132190476D01*
X145864761Y-132380952D01*
X47356666Y-80502380D02*
X47023333Y-80026190D01*
X46785238Y-80502380D02*
X46785238Y-79502380D01*
X47166190Y-79502380D01*
X47261428Y-79550000D01*
X47309047Y-79597619D01*
X47356666Y-79692857D01*
X47356666Y-79835714D01*
X47309047Y-79930952D01*
X47261428Y-79978571D01*
X47166190Y-80026190D01*
X46785238Y-80026190D01*
X47785238Y-79978571D02*
X48118571Y-79978571D01*
X48261428Y-80502380D02*
X47785238Y-80502380D01*
X47785238Y-79502380D01*
X48261428Y-79502380D01*
X49023333Y-79978571D02*
X48690000Y-79978571D01*
X48690000Y-80502380D02*
X48690000Y-79502380D01*
X49166190Y-79502380D01*
X49690000Y-79502380D02*
X49690000Y-79740476D01*
X49451904Y-79645238D02*
X49690000Y-79740476D01*
X49928095Y-79645238D01*
X49547142Y-79930952D02*
X49690000Y-79740476D01*
X49832857Y-79930952D01*
X50451904Y-79502380D02*
X50451904Y-79740476D01*
X50213809Y-79645238D02*
X50451904Y-79740476D01*
X50690000Y-79645238D01*
X50309047Y-79930952D02*
X50451904Y-79740476D01*
X50594761Y-79930952D01*
X142526666Y-80452380D02*
X142193333Y-79976190D01*
X141955238Y-80452380D02*
X141955238Y-79452380D01*
X142336190Y-79452380D01*
X142431428Y-79500000D01*
X142479047Y-79547619D01*
X142526666Y-79642857D01*
X142526666Y-79785714D01*
X142479047Y-79880952D01*
X142431428Y-79928571D01*
X142336190Y-79976190D01*
X141955238Y-79976190D01*
X142955238Y-79928571D02*
X143288571Y-79928571D01*
X143431428Y-80452380D02*
X142955238Y-80452380D01*
X142955238Y-79452380D01*
X143431428Y-79452380D01*
X144193333Y-79928571D02*
X143860000Y-79928571D01*
X143860000Y-80452380D02*
X143860000Y-79452380D01*
X144336190Y-79452380D01*
X144860000Y-79452380D02*
X144860000Y-79690476D01*
X144621904Y-79595238D02*
X144860000Y-79690476D01*
X145098095Y-79595238D01*
X144717142Y-79880952D02*
X144860000Y-79690476D01*
X145002857Y-79880952D01*
X145621904Y-79452380D02*
X145621904Y-79690476D01*
X145383809Y-79595238D02*
X145621904Y-79690476D01*
X145860000Y-79595238D01*
X145479047Y-79880952D02*
X145621904Y-79690476D01*
X145764761Y-79880952D01*
X245566666Y-135182380D02*
X245233333Y-134706190D01*
X244995238Y-135182380D02*
X244995238Y-134182380D01*
X245376190Y-134182380D01*
X245471428Y-134230000D01*
X245519047Y-134277619D01*
X245566666Y-134372857D01*
X245566666Y-134515714D01*
X245519047Y-134610952D01*
X245471428Y-134658571D01*
X245376190Y-134706190D01*
X244995238Y-134706190D01*
X245995238Y-134658571D02*
X246328571Y-134658571D01*
X246471428Y-135182380D02*
X245995238Y-135182380D01*
X245995238Y-134182380D01*
X246471428Y-134182380D01*
X247233333Y-134658571D02*
X246900000Y-134658571D01*
X246900000Y-135182380D02*
X246900000Y-134182380D01*
X247376190Y-134182380D01*
X247900000Y-134182380D02*
X247900000Y-134420476D01*
X247661904Y-134325238D02*
X247900000Y-134420476D01*
X248138095Y-134325238D01*
X247757142Y-134610952D02*
X247900000Y-134420476D01*
X248042857Y-134610952D01*
X248661904Y-134182380D02*
X248661904Y-134420476D01*
X248423809Y-134325238D02*
X248661904Y-134420476D01*
X248900000Y-134325238D01*
X248519047Y-134610952D02*
X248661904Y-134420476D01*
X248804761Y-134610952D01*
X246056666Y-84652380D02*
X245723333Y-84176190D01*
X245485238Y-84652380D02*
X245485238Y-83652380D01*
X245866190Y-83652380D01*
X245961428Y-83700000D01*
X246009047Y-83747619D01*
X246056666Y-83842857D01*
X246056666Y-83985714D01*
X246009047Y-84080952D01*
X245961428Y-84128571D01*
X245866190Y-84176190D01*
X245485238Y-84176190D01*
X246485238Y-84128571D02*
X246818571Y-84128571D01*
X246961428Y-84652380D02*
X246485238Y-84652380D01*
X246485238Y-83652380D01*
X246961428Y-83652380D01*
X247723333Y-84128571D02*
X247390000Y-84128571D01*
X247390000Y-84652380D02*
X247390000Y-83652380D01*
X247866190Y-83652380D01*
X248390000Y-83652380D02*
X248390000Y-83890476D01*
X248151904Y-83795238D02*
X248390000Y-83890476D01*
X248628095Y-83795238D01*
X248247142Y-84080952D02*
X248390000Y-83890476D01*
X248532857Y-84080952D01*
X249151904Y-83652380D02*
X249151904Y-83890476D01*
X248913809Y-83795238D02*
X249151904Y-83890476D01*
X249390000Y-83795238D01*
X249009047Y-84080952D02*
X249151904Y-83890476D01*
X249294761Y-84080952D01*
X46986666Y-134952380D02*
X46653333Y-134476190D01*
X46415238Y-134952380D02*
X46415238Y-133952380D01*
X46796190Y-133952380D01*
X46891428Y-134000000D01*
X46939047Y-134047619D01*
X46986666Y-134142857D01*
X46986666Y-134285714D01*
X46939047Y-134380952D01*
X46891428Y-134428571D01*
X46796190Y-134476190D01*
X46415238Y-134476190D01*
X47415238Y-134428571D02*
X47748571Y-134428571D01*
X47891428Y-134952380D02*
X47415238Y-134952380D01*
X47415238Y-133952380D01*
X47891428Y-133952380D01*
X48653333Y-134428571D02*
X48320000Y-134428571D01*
X48320000Y-134952380D02*
X48320000Y-133952380D01*
X48796190Y-133952380D01*
X49320000Y-133952380D02*
X49320000Y-134190476D01*
X49081904Y-134095238D02*
X49320000Y-134190476D01*
X49558095Y-134095238D01*
X49177142Y-134380952D02*
X49320000Y-134190476D01*
X49462857Y-134380952D01*
X50081904Y-133952380D02*
X50081904Y-134190476D01*
X49843809Y-134095238D02*
X50081904Y-134190476D01*
X50320000Y-134095238D01*
X49939047Y-134380952D02*
X50081904Y-134190476D01*
X50224761Y-134380952D01*
X255871428Y-118470952D02*
X255871428Y-117709047D01*
X255871428Y-115930952D02*
X255871428Y-115169047D01*
X256252380Y-115550000D02*
X255490476Y-115550000D01*
X36057619Y-97112380D02*
X35724285Y-96636190D01*
X35486190Y-97112380D02*
X35486190Y-96112380D01*
X35867142Y-96112380D01*
X35962380Y-96160000D01*
X36010000Y-96207619D01*
X36057619Y-96302857D01*
X36057619Y-96445714D01*
X36010000Y-96540952D01*
X35962380Y-96588571D01*
X35867142Y-96636190D01*
X35486190Y-96636190D01*
X36486190Y-96588571D02*
X36819523Y-96588571D01*
X36962380Y-97112380D02*
X36486190Y-97112380D01*
X36486190Y-96112380D01*
X36962380Y-96112380D01*
X37343333Y-97064761D02*
X37486190Y-97112380D01*
X37724285Y-97112380D01*
X37819523Y-97064761D01*
X37867142Y-97017142D01*
X37914761Y-96921904D01*
X37914761Y-96826666D01*
X37867142Y-96731428D01*
X37819523Y-96683809D01*
X37724285Y-96636190D01*
X37533809Y-96588571D01*
X37438571Y-96540952D01*
X37390952Y-96493333D01*
X37343333Y-96398095D01*
X37343333Y-96302857D01*
X37390952Y-96207619D01*
X37438571Y-96160000D01*
X37533809Y-96112380D01*
X37771904Y-96112380D01*
X37914761Y-96160000D01*
X38343333Y-96588571D02*
X38676666Y-96588571D01*
X38819523Y-97112380D02*
X38343333Y-97112380D01*
X38343333Y-96112380D01*
X38819523Y-96112380D01*
X39105238Y-96112380D02*
X39676666Y-96112380D01*
X39390952Y-97112380D02*
X39390952Y-96112380D01*
M02*
