M48
; DRILL file {KiCad (5.1.5)-2} date 2020/02/27 15:57:59
; FORMAT={-:-/ absolute / inch / decimal}
; #@! TF.CreationDate,2020-02-27T15:57:59+09:00
; #@! TF.GenerationSoftware,Kicad,Pcbnew,(5.1.5)-2
; #@! TF.FileFunction,Plated,1,2,PTH
FMAT,2
INCH
T1C0.0157
T2C0.0315
T3C0.0320
T4C0.0390
T5C0.0472
T6C0.0512
T7C0.0579
%
G90
G05
T1
X1.6697Y-5.1087
X1.6697Y-5.1559
X1.6776Y-3.1323
X1.6776Y-3.1756
X1.9177Y-4.6913
X2.0988Y-4.7386
X2.1343Y-4.9512
X2.2642Y-3.6992
X2.4256Y-3.1283
X2.4256Y-3.1756
X2.4295Y-4.6283
X2.4295Y-4.6756
X2.8626Y-4.7268
X2.8862Y-4.9906
X3.1776Y-4.4748
X3.1776Y-4.6283
X3.1776Y-4.6756
X3.1815Y-3.1283
X3.1815Y-3.1756
X3.1815Y-3.8724
X3.1815Y-3.9197
X3.9217Y-3.1283
X3.9217Y-3.1756
X3.9295Y-3.7632
X3.9295Y-3.8764
X3.9295Y-3.9236
X3.9335Y-4.6323
X3.9335Y-4.6795
X4.6697Y-3.1283
X4.6697Y-3.1756
X4.6776Y-4.6323
X4.6776Y-4.6795
X4.6815Y-3.8016
X4.6815Y-3.8803
X4.6815Y-3.9276
X5.1539Y-3.6323
X5.4256Y-4.6283
X5.4256Y-4.6756
X5.4335Y-3.1283
X5.4335Y-3.1756
X5.4335Y-3.8764
X5.4335Y-3.9236
X5.9256Y-3.711
X6.1776Y-3.1244
X6.1776Y-3.1717
X6.1776Y-3.8803
X6.1776Y-3.9276
X6.1776Y-4.6323
X6.1776Y-4.6795
X6.6106Y-4.4748
X6.65Y-4.4866
X6.6539Y-4.3803
X6.9256Y-4.6323
X6.9256Y-4.6795
X6.9295Y-3.1283
X6.9295Y-3.1756
X6.9295Y-3.8764
X6.9295Y-3.9236
X7.6815Y-3.8843
X7.6815Y-3.9315
X7.6815Y-4.6283
X7.6815Y-4.6756
X7.6933Y-3.1283
X7.6933Y-3.1756
X8.1539Y-3.7465
X8.4256Y-3.1283
X8.4256Y-3.1756
X8.4256Y-3.8803
X8.4256Y-3.9276
X8.4335Y-4.6283
X8.4335Y-4.6756
X8.5949Y-5.1913
X8.6933Y-5.0378
X9.1776Y-3.1283
X9.1776Y-3.1756
X9.1815Y-3.8803
X9.1815Y-3.9276
X9.1815Y-4.6283
X9.1815Y-4.6756
X10.1185Y-3.1323
X10.1185Y-3.1795
T3
X5.0437Y-3.3205
X5.0437Y-3.6205
X6.5555Y-4.0886
X6.5555Y-4.3886
X2.8035Y-4.0886
X2.8035Y-4.3886
X8.7996Y-4.8008
X8.7996Y-5.1008
X9.7091Y-4.4429
X9.7091Y-4.7429
X2.0516Y-4.8047
X2.0516Y-5.1047
X5.8035Y-3.3366
X5.8035Y-3.6366
X7.2917Y-4.0882
X7.2917Y-4.3882
X9.5516Y-4.0925
X9.5516Y-4.3925
X9.6433Y-4.7969
X9.6433Y-5.0969
X6.5516Y-3.3205
X6.5516Y-3.6205
X8.7957Y-4.0925
X8.7957Y-4.3925
X3.5516Y-3.3252
X3.5516Y-3.6252
X2.7996Y-4.8126
X2.7996Y-5.1126
X7.2996Y-3.3205
X7.2996Y-3.6205
X5.7996Y-4.0882
X5.7996Y-4.3882
X2.052Y-3.3295
X2.052Y-3.6295
X5.0555Y-4.8051
X5.0555Y-5.1051
X5.7996Y-4.8047
X5.7996Y-5.1047
X5.0516Y-4.0843
X5.0516Y-4.3843
X3.5516Y-4.0846
X3.5516Y-4.3846
X9.5555Y-3.3327
X9.5555Y-3.6327
X2.8016Y-3.3268
X2.8016Y-3.6268
X7.2996Y-4.8008
X7.2996Y-5.1008
X8.0555Y-4.0886
X8.0555Y-4.3886
X8.0476Y-3.3244
X8.0476Y-3.6244
X4.3035Y-4.0807
X4.3035Y-4.3807
X1.5083Y-3.9248
X1.5083Y-4.524
X1.6083Y-3.9248
X1.6083Y-4.524
X1.7083Y-3.9248
X1.7083Y-4.524
X1.8083Y-3.9248
X1.8083Y-4.524
X1.9083Y-3.9248
X1.9083Y-4.524
X2.0083Y-3.9248
X2.0083Y-4.524
X2.1083Y-3.9248
X2.1083Y-4.524
X2.2083Y-3.9248
X2.2083Y-4.524
X2.3083Y-3.9248
X2.3083Y-4.524
X2.4083Y-3.9248
X2.4083Y-4.524
X2.5083Y-3.9248
X2.5083Y-4.524
X2.6083Y-3.9248
X2.6083Y-4.524
X4.3035Y-4.8047
X4.3035Y-5.1047
X6.5516Y-4.8047
X6.5516Y-5.1047
X8.8035Y-3.3287
X8.8035Y-3.6287
X1.5232Y-4.6323
X1.8232Y-4.6323
X10.4965Y-3.3331
X10.4965Y-3.6331
X4.3035Y-3.3248
X4.3035Y-3.6248
X3.5516Y-4.8091
X3.5516Y-5.1091
X8.0516Y-4.8008
X8.0516Y-5.1008
T4
X10.0087Y-4.5492
X10.0087Y-4.6492
T5
X10.3583Y-4.7961
X10.4409Y-4.5992
T6
X1.3488Y-3.8055
X1.6047Y-3.8055
T7
X10.3087Y-4.4492
X10.3661Y-4.5008
X10.3858Y-4.6976
X10.4087Y-4.6992
T2
G00X1.5854Y-4.4248
M15
G01X1.5697Y-4.4248
M16
G05
G00X1.8354Y-4.3248
M15
G01X1.8197Y-4.3248
M16
G05
G00X2.2697Y-4.1248
M15
G01X2.2854Y-4.1248
M16
G05
G00X2.5197Y-4.0248
M15
G01X2.5354Y-4.0248
M16
G05
T0
M30
