G04 #@! TF.GenerationSoftware,KiCad,Pcbnew,(5.1.5)-2*
G04 #@! TF.CreationDate,2020-02-27T15:55:59+09:00*
G04 #@! TF.ProjectId,First_keyboard30,46697273-745f-46b6-9579-626f61726433,rev?*
G04 #@! TF.SameCoordinates,Original*
G04 #@! TF.FileFunction,Legend,Bot*
G04 #@! TF.FilePolarity,Positive*
%FSLAX46Y46*%
G04 Gerber Fmt 4.6, Leading zero omitted, Abs format (unit mm)*
G04 Created by KiCad (PCBNEW (5.1.5)-2) date 2020-02-27 15:55:59*
%MOMM*%
%LPD*%
G04 APERTURE LIST*
%ADD10C,0.010000*%
%ADD11C,0.150000*%
%ADD12C,0.300000*%
%ADD13C,0.800000*%
%ADD14C,3.000000*%
%ADD15C,0.500000*%
%ADD16C,1.000000*%
%ADD17C,3.500000*%
%ADD18C,0.400000*%
%ADD19C,0.125000*%
%ADD20C,0.120000*%
G04 APERTURE END LIST*
D10*
G36*
X174080428Y-93397146D02*
G01*
X172732818Y-94257878D01*
X171645887Y-95488431D01*
X170999602Y-96881449D01*
X170977133Y-96972678D01*
X170897373Y-97646707D01*
X170831409Y-98854517D01*
X170779263Y-100495042D01*
X170740957Y-102467213D01*
X170716513Y-104669962D01*
X170705953Y-107002220D01*
X170709299Y-109362920D01*
X170726573Y-111650993D01*
X170757798Y-113765371D01*
X170802995Y-115604987D01*
X170862186Y-117068770D01*
X170935394Y-118055655D01*
X170972476Y-118314966D01*
X171594396Y-120072818D01*
X172666350Y-121444993D01*
X174114371Y-122359946D01*
X175524831Y-122718210D01*
X177458443Y-122640342D01*
X179251948Y-121948675D01*
X180561500Y-120983485D01*
X181790000Y-119873609D01*
X181790000Y-126297500D01*
X190680000Y-126297500D01*
X190680000Y-107882500D01*
X181790000Y-107882500D01*
X181777619Y-110627649D01*
X181741642Y-112956699D01*
X181683822Y-114820454D01*
X181605911Y-116169718D01*
X181509661Y-116955295D01*
X181461330Y-117110872D01*
X180945439Y-117605333D01*
X180312400Y-117689304D01*
X179819819Y-117345837D01*
X179760219Y-117222782D01*
X179709873Y-116783712D01*
X179664434Y-115796431D01*
X179625693Y-114347722D01*
X179595439Y-112524366D01*
X179575464Y-110413146D01*
X179567559Y-108100842D01*
X179567500Y-107882500D01*
X179574214Y-105556146D01*
X179593160Y-103422945D01*
X179622548Y-101569677D01*
X179660589Y-100083124D01*
X179705490Y-99050068D01*
X179755462Y-98557291D01*
X179760219Y-98542217D01*
X180193020Y-98110167D01*
X180818422Y-98108984D01*
X181378820Y-98521722D01*
X181461330Y-98654127D01*
X181565186Y-99172699D01*
X181651485Y-100276879D01*
X181718473Y-101917471D01*
X181764399Y-104045277D01*
X181787510Y-106611103D01*
X181790000Y-107882500D01*
X190680000Y-107882500D01*
X190680000Y-93277500D01*
X181790000Y-93277500D01*
X181790000Y-95942065D01*
X180758125Y-94943374D01*
X179158611Y-93764145D01*
X177399902Y-93108750D01*
X175603799Y-93005392D01*
X174080428Y-93397146D01*
G37*
X174080428Y-93397146D02*
X172732818Y-94257878D01*
X171645887Y-95488431D01*
X170999602Y-96881449D01*
X170977133Y-96972678D01*
X170897373Y-97646707D01*
X170831409Y-98854517D01*
X170779263Y-100495042D01*
X170740957Y-102467213D01*
X170716513Y-104669962D01*
X170705953Y-107002220D01*
X170709299Y-109362920D01*
X170726573Y-111650993D01*
X170757798Y-113765371D01*
X170802995Y-115604987D01*
X170862186Y-117068770D01*
X170935394Y-118055655D01*
X170972476Y-118314966D01*
X171594396Y-120072818D01*
X172666350Y-121444993D01*
X174114371Y-122359946D01*
X175524831Y-122718210D01*
X177458443Y-122640342D01*
X179251948Y-121948675D01*
X180561500Y-120983485D01*
X181790000Y-119873609D01*
X181790000Y-126297500D01*
X190680000Y-126297500D01*
X190680000Y-107882500D01*
X181790000Y-107882500D01*
X181777619Y-110627649D01*
X181741642Y-112956699D01*
X181683822Y-114820454D01*
X181605911Y-116169718D01*
X181509661Y-116955295D01*
X181461330Y-117110872D01*
X180945439Y-117605333D01*
X180312400Y-117689304D01*
X179819819Y-117345837D01*
X179760219Y-117222782D01*
X179709873Y-116783712D01*
X179664434Y-115796431D01*
X179625693Y-114347722D01*
X179595439Y-112524366D01*
X179575464Y-110413146D01*
X179567559Y-108100842D01*
X179567500Y-107882500D01*
X179574214Y-105556146D01*
X179593160Y-103422945D01*
X179622548Y-101569677D01*
X179660589Y-100083124D01*
X179705490Y-99050068D01*
X179755462Y-98557291D01*
X179760219Y-98542217D01*
X180193020Y-98110167D01*
X180818422Y-98108984D01*
X181378820Y-98521722D01*
X181461330Y-98654127D01*
X181565186Y-99172699D01*
X181651485Y-100276879D01*
X181718473Y-101917471D01*
X181764399Y-104045277D01*
X181787510Y-106611103D01*
X181790000Y-107882500D01*
X190680000Y-107882500D01*
X190680000Y-93277500D01*
X181790000Y-93277500D01*
X181790000Y-95942065D01*
X180758125Y-94943374D01*
X179158611Y-93764145D01*
X177399902Y-93108750D01*
X175603799Y-93005392D01*
X174080428Y-93397146D01*
G36*
X202318668Y-93103243D02*
G01*
X199951096Y-93637090D01*
X197899896Y-94605010D01*
X196235138Y-95969509D01*
X195026894Y-97693097D01*
X194665425Y-98534548D01*
X194339207Y-99836626D01*
X194100958Y-101688280D01*
X193945766Y-104128544D01*
X193938351Y-104310625D01*
X193772165Y-108517500D01*
X204967500Y-108517500D01*
X204967500Y-112584316D01*
X204940713Y-114577978D01*
X204844258Y-116011508D01*
X204653992Y-116958138D01*
X204345773Y-117491102D01*
X203895461Y-117683631D01*
X203308589Y-117616541D01*
X202812348Y-117407295D01*
X202473262Y-117003007D01*
X202263003Y-116298932D01*
X202153242Y-115190324D01*
X202115654Y-113572437D01*
X202114336Y-113200625D01*
X202110000Y-110422500D01*
X193770103Y-110422500D01*
X193920224Y-113540061D01*
X194020530Y-115105922D01*
X194173553Y-116240096D01*
X194424625Y-117145857D01*
X194819077Y-118026475D01*
X194994548Y-118357454D01*
X196326952Y-120177310D01*
X198088187Y-121529935D01*
X199997085Y-122331879D01*
X201583330Y-122636606D01*
X203488306Y-122757530D01*
X205421447Y-122689688D01*
X206996019Y-122451396D01*
X208898081Y-121777625D01*
X210617150Y-120745057D01*
X211958523Y-119478762D01*
X212259152Y-119070523D01*
X212752747Y-118240026D01*
X213138490Y-117355581D01*
X213427180Y-116331639D01*
X213629617Y-115082647D01*
X213756601Y-113523054D01*
X213818933Y-111567310D01*
X213827412Y-109129862D01*
X213803550Y-106836585D01*
X213767713Y-104479940D01*
X213752386Y-103755000D01*
X204993181Y-103755000D01*
X202745000Y-103755000D01*
X202745000Y-101434433D01*
X202837385Y-99753250D01*
X203110283Y-98643980D01*
X203557309Y-98120346D01*
X204172081Y-98196075D01*
X204234530Y-98232214D01*
X204536252Y-98537015D01*
X204729156Y-99094435D01*
X204844205Y-100040924D01*
X204900966Y-101169089D01*
X204993181Y-103755000D01*
X213752386Y-103755000D01*
X213729297Y-102662968D01*
X213678516Y-101290382D01*
X213605584Y-100266897D01*
X213500714Y-99497226D01*
X213354119Y-98886083D01*
X213156013Y-98338180D01*
X212896610Y-97758234D01*
X212863982Y-97688538D01*
X211741170Y-95905162D01*
X210234713Y-94567295D01*
X208304417Y-93651384D01*
X205910089Y-93133877D01*
X204932541Y-93040962D01*
X202318668Y-93103243D01*
G37*
X202318668Y-93103243D02*
X199951096Y-93637090D01*
X197899896Y-94605010D01*
X196235138Y-95969509D01*
X195026894Y-97693097D01*
X194665425Y-98534548D01*
X194339207Y-99836626D01*
X194100958Y-101688280D01*
X193945766Y-104128544D01*
X193938351Y-104310625D01*
X193772165Y-108517500D01*
X204967500Y-108517500D01*
X204967500Y-112584316D01*
X204940713Y-114577978D01*
X204844258Y-116011508D01*
X204653992Y-116958138D01*
X204345773Y-117491102D01*
X203895461Y-117683631D01*
X203308589Y-117616541D01*
X202812348Y-117407295D01*
X202473262Y-117003007D01*
X202263003Y-116298932D01*
X202153242Y-115190324D01*
X202115654Y-113572437D01*
X202114336Y-113200625D01*
X202110000Y-110422500D01*
X193770103Y-110422500D01*
X193920224Y-113540061D01*
X194020530Y-115105922D01*
X194173553Y-116240096D01*
X194424625Y-117145857D01*
X194819077Y-118026475D01*
X194994548Y-118357454D01*
X196326952Y-120177310D01*
X198088187Y-121529935D01*
X199997085Y-122331879D01*
X201583330Y-122636606D01*
X203488306Y-122757530D01*
X205421447Y-122689688D01*
X206996019Y-122451396D01*
X208898081Y-121777625D01*
X210617150Y-120745057D01*
X211958523Y-119478762D01*
X212259152Y-119070523D01*
X212752747Y-118240026D01*
X213138490Y-117355581D01*
X213427180Y-116331639D01*
X213629617Y-115082647D01*
X213756601Y-113523054D01*
X213818933Y-111567310D01*
X213827412Y-109129862D01*
X213803550Y-106836585D01*
X213767713Y-104479940D01*
X213752386Y-103755000D01*
X204993181Y-103755000D01*
X202745000Y-103755000D01*
X202745000Y-101434433D01*
X202837385Y-99753250D01*
X203110283Y-98643980D01*
X203557309Y-98120346D01*
X204172081Y-98196075D01*
X204234530Y-98232214D01*
X204536252Y-98537015D01*
X204729156Y-99094435D01*
X204844205Y-100040924D01*
X204900966Y-101169089D01*
X204993181Y-103755000D01*
X213752386Y-103755000D01*
X213729297Y-102662968D01*
X213678516Y-101290382D01*
X213605584Y-100266897D01*
X213500714Y-99497226D01*
X213354119Y-98886083D01*
X213156013Y-98338180D01*
X212896610Y-97758234D01*
X212863982Y-97688538D01*
X211741170Y-95905162D01*
X210234713Y-94567295D01*
X208304417Y-93651384D01*
X205910089Y-93133877D01*
X204932541Y-93040962D01*
X202318668Y-93103243D01*
G36*
X239575000Y-92325000D02*
G01*
X241480000Y-92325000D01*
X241480000Y-116772500D01*
X239575000Y-116772500D01*
X239575000Y-122170000D01*
X249417500Y-122170000D01*
X249417500Y-86927500D01*
X239575000Y-86927500D01*
X239575000Y-92325000D01*
G37*
X239575000Y-92325000D02*
X241480000Y-92325000D01*
X241480000Y-116772500D01*
X239575000Y-116772500D01*
X239575000Y-122170000D01*
X249417500Y-122170000D01*
X249417500Y-86927500D01*
X239575000Y-86927500D01*
X239575000Y-92325000D01*
G36*
X216397500Y-122170000D02*
G01*
X225287500Y-122170000D01*
X225287500Y-99310000D01*
X228145000Y-99310000D01*
X228145000Y-122170000D01*
X237035000Y-122170000D01*
X237035000Y-93277500D01*
X216397500Y-93277500D01*
X216397500Y-122170000D01*
G37*
X216397500Y-122170000D02*
X225287500Y-122170000D01*
X225287500Y-99310000D01*
X228145000Y-99310000D01*
X228145000Y-122170000D01*
X237035000Y-122170000D01*
X237035000Y-93277500D01*
X216397500Y-93277500D01*
X216397500Y-122170000D01*
G36*
X158342918Y-93309369D02*
G01*
X155870903Y-93417068D01*
X153892560Y-93618729D01*
X152338539Y-93932485D01*
X151139490Y-94376470D01*
X150226063Y-94968817D01*
X149528907Y-95727659D01*
X149064751Y-96497092D01*
X148590866Y-97821319D01*
X148276335Y-99481002D01*
X148158635Y-101188405D01*
X148267721Y-102616665D01*
X148801106Y-103954977D01*
X149779766Y-105176465D01*
X151019688Y-106079343D01*
X151667128Y-106344384D01*
X152917863Y-106719113D01*
X151735416Y-107125619D01*
X150114034Y-107888680D01*
X148924097Y-108975002D01*
X148190626Y-110123587D01*
X147848092Y-110846365D01*
X147641533Y-111534645D01*
X147547347Y-112366304D01*
X147541930Y-113519216D01*
X147582210Y-114708750D01*
X147716940Y-116633013D01*
X147970618Y-118067320D01*
X148389086Y-119152492D01*
X149018190Y-120029351D01*
X149454209Y-120459143D01*
X149996798Y-120896369D01*
X150596865Y-121241840D01*
X151336427Y-121508131D01*
X152297502Y-121707811D01*
X153562108Y-121853455D01*
X155212261Y-121957633D01*
X157329979Y-122032919D01*
X159997279Y-122091883D01*
X160120625Y-122094155D01*
X167820000Y-122235132D01*
X167820000Y-112803750D01*
X158930000Y-112803750D01*
X158922039Y-114290979D01*
X158883897Y-115255537D01*
X158794191Y-115809690D01*
X158631537Y-116065705D01*
X158374550Y-116135849D01*
X158295000Y-116137500D01*
X157603824Y-115922012D01*
X157025000Y-115502500D01*
X156668557Y-115014131D01*
X156472322Y-114329045D01*
X156395995Y-113267329D01*
X156390000Y-112667678D01*
X156476953Y-111149974D01*
X156767890Y-110165511D01*
X157307935Y-109632721D01*
X158142209Y-109470040D01*
X158158929Y-109470000D01*
X158502014Y-109490352D01*
X158724397Y-109626833D01*
X158852244Y-109992581D01*
X158911723Y-110700731D01*
X158929003Y-111864421D01*
X158930000Y-112803750D01*
X167820000Y-112803750D01*
X167820000Y-101691250D01*
X158930000Y-101691250D01*
X158919499Y-102902761D01*
X158859140Y-103612965D01*
X158705645Y-103955518D01*
X158415734Y-104064078D01*
X158158929Y-104072500D01*
X157342029Y-103872233D01*
X156888929Y-103573571D01*
X156536866Y-102870125D01*
X156390877Y-101787267D01*
X156390000Y-101691250D01*
X156582157Y-100394853D01*
X157153478Y-99597902D01*
X158096242Y-99310792D01*
X158158929Y-99310000D01*
X158551228Y-99342432D01*
X158781199Y-99528834D01*
X158892121Y-100002863D01*
X158927274Y-100898177D01*
X158930000Y-101691250D01*
X167820000Y-101691250D01*
X167820000Y-93277500D01*
X161377957Y-93277500D01*
X158342918Y-93309369D01*
G37*
X158342918Y-93309369D02*
X155870903Y-93417068D01*
X153892560Y-93618729D01*
X152338539Y-93932485D01*
X151139490Y-94376470D01*
X150226063Y-94968817D01*
X149528907Y-95727659D01*
X149064751Y-96497092D01*
X148590866Y-97821319D01*
X148276335Y-99481002D01*
X148158635Y-101188405D01*
X148267721Y-102616665D01*
X148801106Y-103954977D01*
X149779766Y-105176465D01*
X151019688Y-106079343D01*
X151667128Y-106344384D01*
X152917863Y-106719113D01*
X151735416Y-107125619D01*
X150114034Y-107888680D01*
X148924097Y-108975002D01*
X148190626Y-110123587D01*
X147848092Y-110846365D01*
X147641533Y-111534645D01*
X147547347Y-112366304D01*
X147541930Y-113519216D01*
X147582210Y-114708750D01*
X147716940Y-116633013D01*
X147970618Y-118067320D01*
X148389086Y-119152492D01*
X149018190Y-120029351D01*
X149454209Y-120459143D01*
X149996798Y-120896369D01*
X150596865Y-121241840D01*
X151336427Y-121508131D01*
X152297502Y-121707811D01*
X153562108Y-121853455D01*
X155212261Y-121957633D01*
X157329979Y-122032919D01*
X159997279Y-122091883D01*
X160120625Y-122094155D01*
X167820000Y-122235132D01*
X167820000Y-112803750D01*
X158930000Y-112803750D01*
X158922039Y-114290979D01*
X158883897Y-115255537D01*
X158794191Y-115809690D01*
X158631537Y-116065705D01*
X158374550Y-116135849D01*
X158295000Y-116137500D01*
X157603824Y-115922012D01*
X157025000Y-115502500D01*
X156668557Y-115014131D01*
X156472322Y-114329045D01*
X156395995Y-113267329D01*
X156390000Y-112667678D01*
X156476953Y-111149974D01*
X156767890Y-110165511D01*
X157307935Y-109632721D01*
X158142209Y-109470040D01*
X158158929Y-109470000D01*
X158502014Y-109490352D01*
X158724397Y-109626833D01*
X158852244Y-109992581D01*
X158911723Y-110700731D01*
X158929003Y-111864421D01*
X158930000Y-112803750D01*
X167820000Y-112803750D01*
X167820000Y-101691250D01*
X158930000Y-101691250D01*
X158919499Y-102902761D01*
X158859140Y-103612965D01*
X158705645Y-103955518D01*
X158415734Y-104064078D01*
X158158929Y-104072500D01*
X157342029Y-103872233D01*
X156888929Y-103573571D01*
X156536866Y-102870125D01*
X156390877Y-101787267D01*
X156390000Y-101691250D01*
X156582157Y-100394853D01*
X157153478Y-99597902D01*
X158096242Y-99310792D01*
X158158929Y-99310000D01*
X158551228Y-99342432D01*
X158781199Y-99528834D01*
X158892121Y-100002863D01*
X158927274Y-100898177D01*
X158930000Y-101691250D01*
X167820000Y-101691250D01*
X167820000Y-93277500D01*
X161377957Y-93277500D01*
X158342918Y-93309369D01*
G36*
X136070000Y-102712574D02*
G01*
X132636540Y-102875314D01*
X130364497Y-103053958D01*
X128623413Y-103371866D01*
X127317322Y-103867370D01*
X126350256Y-104578804D01*
X125626246Y-105544500D01*
X125533221Y-105712632D01*
X125262771Y-106259790D01*
X125068119Y-106806362D01*
X124936904Y-107466343D01*
X124856767Y-108353726D01*
X124815346Y-109582504D01*
X124800282Y-111266671D01*
X124798750Y-112486250D01*
X124823824Y-114860833D01*
X124915075Y-116698305D01*
X125096555Y-118095153D01*
X125392311Y-119147867D01*
X125826392Y-119952934D01*
X126422848Y-120606845D01*
X126922279Y-121006246D01*
X127478092Y-121340202D01*
X128178286Y-121603880D01*
X129098677Y-121805188D01*
X130315080Y-121952037D01*
X131903311Y-122052336D01*
X133939186Y-122113995D01*
X136498522Y-122144924D01*
X137895625Y-122151073D01*
X144960000Y-122170000D01*
X144960000Y-112129062D01*
X136070000Y-112129062D01*
X136064321Y-113785665D01*
X136036440Y-114909951D01*
X135970096Y-115604572D01*
X135849028Y-115972184D01*
X135656972Y-116115439D01*
X135435000Y-116137500D01*
X134752794Y-115922176D01*
X134135362Y-115472861D01*
X133821840Y-115095756D01*
X133634767Y-114633497D01*
X133551219Y-113936497D01*
X133548270Y-112855170D01*
X133579737Y-111847517D01*
X133645586Y-110538312D01*
X133731754Y-109483437D01*
X133824285Y-108833622D01*
X133870652Y-108705463D01*
X134281869Y-108522509D01*
X135026241Y-108329463D01*
X135061277Y-108322369D01*
X136070000Y-108120625D01*
X136070000Y-112129062D01*
X144960000Y-112129062D01*
X144960000Y-93277500D01*
X136070000Y-93277500D01*
X136070000Y-102712574D01*
G37*
X136070000Y-102712574D02*
X132636540Y-102875314D01*
X130364497Y-103053958D01*
X128623413Y-103371866D01*
X127317322Y-103867370D01*
X126350256Y-104578804D01*
X125626246Y-105544500D01*
X125533221Y-105712632D01*
X125262771Y-106259790D01*
X125068119Y-106806362D01*
X124936904Y-107466343D01*
X124856767Y-108353726D01*
X124815346Y-109582504D01*
X124800282Y-111266671D01*
X124798750Y-112486250D01*
X124823824Y-114860833D01*
X124915075Y-116698305D01*
X125096555Y-118095153D01*
X125392311Y-119147867D01*
X125826392Y-119952934D01*
X126422848Y-120606845D01*
X126922279Y-121006246D01*
X127478092Y-121340202D01*
X128178286Y-121603880D01*
X129098677Y-121805188D01*
X130315080Y-121952037D01*
X131903311Y-122052336D01*
X133939186Y-122113995D01*
X136498522Y-122144924D01*
X137895625Y-122151073D01*
X144960000Y-122170000D01*
X144960000Y-112129062D01*
X136070000Y-112129062D01*
X136064321Y-113785665D01*
X136036440Y-114909951D01*
X135970096Y-115604572D01*
X135849028Y-115972184D01*
X135656972Y-116115439D01*
X135435000Y-116137500D01*
X134752794Y-115922176D01*
X134135362Y-115472861D01*
X133821840Y-115095756D01*
X133634767Y-114633497D01*
X133551219Y-113936497D01*
X133548270Y-112855170D01*
X133579737Y-111847517D01*
X133645586Y-110538312D01*
X133731754Y-109483437D01*
X133824285Y-108833622D01*
X133870652Y-108705463D01*
X134281869Y-108522509D01*
X135026241Y-108329463D01*
X135061277Y-108322369D01*
X136070000Y-108120625D01*
X136070000Y-112129062D01*
X144960000Y-112129062D01*
X144960000Y-93277500D01*
X136070000Y-93277500D01*
X136070000Y-102712574D01*
G36*
X113210000Y-122170000D02*
G01*
X122100000Y-122170000D01*
X122100000Y-93277500D01*
X113210000Y-93277500D01*
X113210000Y-122170000D01*
G37*
X113210000Y-122170000D02*
X122100000Y-122170000D01*
X122100000Y-93277500D01*
X113210000Y-93277500D01*
X113210000Y-122170000D01*
G36*
X102341372Y-100818125D02*
G01*
X102256250Y-108358750D01*
X96541250Y-93278336D01*
X88445000Y-93277500D01*
X88445000Y-122170000D01*
X96053711Y-122170000D01*
X96138731Y-114568429D01*
X96223750Y-106966858D01*
X99111067Y-114489054D01*
X101998383Y-122011250D01*
X106016692Y-122100110D01*
X110035000Y-122188971D01*
X110035000Y-93277500D01*
X102426493Y-93277500D01*
X102341372Y-100818125D01*
G37*
X102341372Y-100818125D02*
X102256250Y-108358750D01*
X96541250Y-93278336D01*
X88445000Y-93277500D01*
X88445000Y-122170000D01*
X96053711Y-122170000D01*
X96138731Y-114568429D01*
X96223750Y-106966858D01*
X99111067Y-114489054D01*
X101998383Y-122011250D01*
X106016692Y-122100110D01*
X110035000Y-122188971D01*
X110035000Y-93277500D01*
X102426493Y-93277500D01*
X102341372Y-100818125D01*
G36*
X76062500Y-122170000D02*
G01*
X85905000Y-122170000D01*
X85905000Y-116772500D01*
X84000000Y-116772500D01*
X84000000Y-92325000D01*
X85905000Y-92325000D01*
X85905000Y-86927500D01*
X76062500Y-86927500D01*
X76062500Y-122170000D01*
G37*
X76062500Y-122170000D02*
X85905000Y-122170000D01*
X85905000Y-116772500D01*
X84000000Y-116772500D01*
X84000000Y-92325000D01*
X85905000Y-92325000D01*
X85905000Y-86927500D01*
X76062500Y-86927500D01*
X76062500Y-122170000D01*
G36*
X93356087Y-86213125D02*
G01*
X93987178Y-88137939D01*
X95061769Y-89665990D01*
X96514205Y-90739708D01*
X98278833Y-91301523D01*
X99240000Y-91372500D01*
X100748515Y-91160087D01*
X102109601Y-90658125D01*
X103500530Y-89610499D01*
X104525830Y-88090985D01*
X105123914Y-86213125D01*
X105343170Y-85022500D01*
X103640960Y-85025729D01*
X102647717Y-85050198D01*
X102080964Y-85197140D01*
X101732211Y-85584115D01*
X101412428Y-86282325D01*
X100705122Y-87324220D01*
X99772443Y-87852169D01*
X98761959Y-87866174D01*
X97821238Y-87366233D01*
X97097848Y-86352348D01*
X97067573Y-86282325D01*
X96732700Y-85557913D01*
X96378154Y-85185365D01*
X95795446Y-85047119D01*
X94839041Y-85025729D01*
X93136831Y-85022499D01*
X93356087Y-86213125D01*
G37*
X93356087Y-86213125D02*
X93987178Y-88137939D01*
X95061769Y-89665990D01*
X96514205Y-90739708D01*
X98278833Y-91301523D01*
X99240000Y-91372500D01*
X100748515Y-91160087D01*
X102109601Y-90658125D01*
X103500530Y-89610499D01*
X104525830Y-88090985D01*
X105123914Y-86213125D01*
X105343170Y-85022500D01*
X103640960Y-85025729D01*
X102647717Y-85050198D01*
X102080964Y-85197140D01*
X101732211Y-85584115D01*
X101412428Y-86282325D01*
X100705122Y-87324220D01*
X99772443Y-87852169D01*
X98761959Y-87866174D01*
X97821238Y-87366233D01*
X97097848Y-86352348D01*
X97067573Y-86282325D01*
X96732700Y-85557913D01*
X96378154Y-85185365D01*
X95795446Y-85047119D01*
X94839041Y-85025729D01*
X93136831Y-85022499D01*
X93356087Y-86213125D01*
D11*
X67538000Y-116198600D02*
X67538000Y-115188600D01*
X67538000Y-98398600D02*
X67538000Y-99398600D01*
X66538000Y-116198600D02*
X67538000Y-116198600D01*
X66488000Y-98398600D02*
X67538000Y-98398600D01*
X34488000Y-116198600D02*
X34488000Y-115248600D01*
X34488000Y-98398600D02*
X34488000Y-99398600D01*
X34488000Y-116198600D02*
X35488000Y-116198600D01*
X34488000Y-98398600D02*
X35488000Y-98398600D01*
X31588000Y-103548600D02*
X32888000Y-103548600D01*
X32888000Y-103548600D02*
X32888000Y-111048600D01*
X32888000Y-111048600D02*
X31588000Y-111048600D01*
X31588000Y-111048600D02*
X31588000Y-103548600D01*
X31938000Y-106798600D02*
X31938000Y-107798600D01*
X31938000Y-107798600D02*
X32588000Y-107298600D01*
X32588000Y-107298600D02*
X31938000Y-106798600D01*
X32088000Y-106948600D02*
X32088000Y-107648600D01*
X32238000Y-107048600D02*
X32238000Y-107548600D01*
X32388000Y-107148600D02*
X32388000Y-107448600D01*
D12*
X229780000Y-122539999D02*
X229780000Y-121640000D01*
D13*
X230280000Y-124740000D02*
X230280000Y-122940001D01*
D14*
X231410000Y-121240000D02*
X231410000Y-123480000D01*
D15*
X239880000Y-123040000D02*
X238480000Y-123040000D01*
D16*
X239480000Y-120340000D02*
X239480000Y-122840000D01*
D17*
X238180000Y-121540000D02*
X231480000Y-121540000D01*
D11*
X240180000Y-123340000D02*
X240180000Y-122340000D01*
X240180000Y-122340000D02*
X239980000Y-122340000D01*
X239960000Y-122340000D02*
X239960000Y-120090000D01*
X239980000Y-120090000D02*
X240180000Y-120090000D01*
X229680000Y-122640000D02*
X229880000Y-122640000D01*
X229910000Y-122640000D02*
X229910000Y-124880000D01*
X229880000Y-124880000D02*
X229680000Y-124880000D01*
X229680000Y-125240000D02*
X229680000Y-124880000D01*
X229680000Y-121640000D02*
X229680000Y-122640000D01*
X229680000Y-125240000D02*
X232960000Y-125240000D01*
X235180000Y-123340000D02*
X240180000Y-123340000D01*
X240180000Y-119740000D02*
X231779999Y-119740000D01*
X232963682Y-125218529D02*
G75*
G02X235180000Y-123340000I2151318J-291471D01*
G01*
X229680000Y-121640001D02*
G75*
G02X231779999Y-119740000I2000000J-99999D01*
G01*
X240180000Y-120090000D02*
X240180000Y-119740000D01*
D16*
X232563682Y-124818529D02*
G75*
G02X234780000Y-122940000I2151318J-291471D01*
G01*
D15*
X229880000Y-125040000D02*
X232580000Y-125040000D01*
D18*
X239980000Y-119940000D02*
X238580000Y-119940000D01*
X239980000Y-122440000D02*
X239980000Y-123140000D01*
D12*
X208260000Y-122559999D02*
X208260000Y-121660000D01*
D13*
X208760000Y-124760000D02*
X208760000Y-122960001D01*
D14*
X209890000Y-121260000D02*
X209890000Y-123500000D01*
D15*
X218360000Y-123060000D02*
X216960000Y-123060000D01*
D16*
X217960000Y-120360000D02*
X217960000Y-122860000D01*
D17*
X216660000Y-121560000D02*
X209960000Y-121560000D01*
D11*
X218660000Y-123360000D02*
X218660000Y-122360000D01*
X218660000Y-122360000D02*
X218460000Y-122360000D01*
X218440000Y-122360000D02*
X218440000Y-120110000D01*
X218460000Y-120110000D02*
X218660000Y-120110000D01*
X208160000Y-122660000D02*
X208360000Y-122660000D01*
X208390000Y-122660000D02*
X208390000Y-124900000D01*
X208360000Y-124900000D02*
X208160000Y-124900000D01*
X208160000Y-125260000D02*
X208160000Y-124900000D01*
X208160000Y-121660000D02*
X208160000Y-122660000D01*
X208160000Y-125260000D02*
X211440000Y-125260000D01*
X213660000Y-123360000D02*
X218660000Y-123360000D01*
X218660000Y-119760000D02*
X210259999Y-119760000D01*
X211443682Y-125238529D02*
G75*
G02X213660000Y-123360000I2151318J-291471D01*
G01*
X208160000Y-121660001D02*
G75*
G02X210259999Y-119760000I2000000J-99999D01*
G01*
X218660000Y-120110000D02*
X218660000Y-119760000D01*
D16*
X211043682Y-124838529D02*
G75*
G02X213260000Y-122960000I2151318J-291471D01*
G01*
D15*
X208360000Y-125060000D02*
X211060000Y-125060000D01*
D18*
X218460000Y-119960000D02*
X217060000Y-119960000D01*
X218460000Y-122460000D02*
X218460000Y-123160000D01*
D12*
X189210000Y-122559999D02*
X189210000Y-121660000D01*
D13*
X189710000Y-124760000D02*
X189710000Y-122960001D01*
D14*
X190840000Y-121260000D02*
X190840000Y-123500000D01*
D15*
X199310000Y-123060000D02*
X197910000Y-123060000D01*
D16*
X198910000Y-120360000D02*
X198910000Y-122860000D01*
D17*
X197610000Y-121560000D02*
X190910000Y-121560000D01*
D11*
X199610000Y-123360000D02*
X199610000Y-122360000D01*
X199610000Y-122360000D02*
X199410000Y-122360000D01*
X199390000Y-122360000D02*
X199390000Y-120110000D01*
X199410000Y-120110000D02*
X199610000Y-120110000D01*
X189110000Y-122660000D02*
X189310000Y-122660000D01*
X189340000Y-122660000D02*
X189340000Y-124900000D01*
X189310000Y-124900000D02*
X189110000Y-124900000D01*
X189110000Y-125260000D02*
X189110000Y-124900000D01*
X189110000Y-121660000D02*
X189110000Y-122660000D01*
X189110000Y-125260000D02*
X192390000Y-125260000D01*
X194610000Y-123360000D02*
X199610000Y-123360000D01*
X199610000Y-119760000D02*
X191209999Y-119760000D01*
X192393682Y-125238529D02*
G75*
G02X194610000Y-123360000I2151318J-291471D01*
G01*
X189110000Y-121660001D02*
G75*
G02X191209999Y-119760000I2000000J-99999D01*
G01*
X199610000Y-120110000D02*
X199610000Y-119760000D01*
D16*
X191993682Y-124838529D02*
G75*
G02X194210000Y-122960000I2151318J-291471D01*
G01*
D15*
X189310000Y-125060000D02*
X192010000Y-125060000D01*
D18*
X199410000Y-119960000D02*
X198010000Y-119960000D01*
X199410000Y-122460000D02*
X199410000Y-123160000D01*
D12*
X170160000Y-122559999D02*
X170160000Y-121660000D01*
D13*
X170660000Y-124760000D02*
X170660000Y-122960001D01*
D14*
X171790000Y-121260000D02*
X171790000Y-123500000D01*
D15*
X180260000Y-123060000D02*
X178860000Y-123060000D01*
D16*
X179860000Y-120360000D02*
X179860000Y-122860000D01*
D17*
X178560000Y-121560000D02*
X171860000Y-121560000D01*
D11*
X180560000Y-123360000D02*
X180560000Y-122360000D01*
X180560000Y-122360000D02*
X180360000Y-122360000D01*
X180340000Y-122360000D02*
X180340000Y-120110000D01*
X180360000Y-120110000D02*
X180560000Y-120110000D01*
X170060000Y-122660000D02*
X170260000Y-122660000D01*
X170290000Y-122660000D02*
X170290000Y-124900000D01*
X170260000Y-124900000D02*
X170060000Y-124900000D01*
X170060000Y-125260000D02*
X170060000Y-124900000D01*
X170060000Y-121660000D02*
X170060000Y-122660000D01*
X170060000Y-125260000D02*
X173340000Y-125260000D01*
X175560000Y-123360000D02*
X180560000Y-123360000D01*
X180560000Y-119760000D02*
X172159999Y-119760000D01*
X173343682Y-125238529D02*
G75*
G02X175560000Y-123360000I2151318J-291471D01*
G01*
X170060000Y-121660001D02*
G75*
G02X172159999Y-119760000I2000000J-99999D01*
G01*
X180560000Y-120110000D02*
X180560000Y-119760000D01*
D16*
X172943682Y-124838529D02*
G75*
G02X175160000Y-122960000I2151318J-291471D01*
G01*
D15*
X170260000Y-125060000D02*
X172960000Y-125060000D01*
D18*
X180360000Y-119960000D02*
X178960000Y-119960000D01*
X180360000Y-122460000D02*
X180360000Y-123160000D01*
D12*
X151110000Y-122559999D02*
X151110000Y-121660000D01*
D13*
X151610000Y-124760000D02*
X151610000Y-122960001D01*
D14*
X152740000Y-121260000D02*
X152740000Y-123500000D01*
D15*
X161210000Y-123060000D02*
X159810000Y-123060000D01*
D16*
X160810000Y-120360000D02*
X160810000Y-122860000D01*
D17*
X159510000Y-121560000D02*
X152810000Y-121560000D01*
D11*
X161510000Y-123360000D02*
X161510000Y-122360000D01*
X161510000Y-122360000D02*
X161310000Y-122360000D01*
X161290000Y-122360000D02*
X161290000Y-120110000D01*
X161310000Y-120110000D02*
X161510000Y-120110000D01*
X151010000Y-122660000D02*
X151210000Y-122660000D01*
X151240000Y-122660000D02*
X151240000Y-124900000D01*
X151210000Y-124900000D02*
X151010000Y-124900000D01*
X151010000Y-125260000D02*
X151010000Y-124900000D01*
X151010000Y-121660000D02*
X151010000Y-122660000D01*
X151010000Y-125260000D02*
X154290000Y-125260000D01*
X156510000Y-123360000D02*
X161510000Y-123360000D01*
X161510000Y-119760000D02*
X153109999Y-119760000D01*
X154293682Y-125238529D02*
G75*
G02X156510000Y-123360000I2151318J-291471D01*
G01*
X151010000Y-121660001D02*
G75*
G02X153109999Y-119760000I2000000J-99999D01*
G01*
X161510000Y-120110000D02*
X161510000Y-119760000D01*
D16*
X153893682Y-124838529D02*
G75*
G02X156110000Y-122960000I2151318J-291471D01*
G01*
D15*
X151210000Y-125060000D02*
X153910000Y-125060000D01*
D18*
X161310000Y-119960000D02*
X159910000Y-119960000D01*
X161310000Y-122460000D02*
X161310000Y-123160000D01*
D12*
X132060000Y-122559999D02*
X132060000Y-121660000D01*
D13*
X132560000Y-124760000D02*
X132560000Y-122960001D01*
D14*
X133690000Y-121260000D02*
X133690000Y-123500000D01*
D15*
X142160000Y-123060000D02*
X140760000Y-123060000D01*
D16*
X141760000Y-120360000D02*
X141760000Y-122860000D01*
D17*
X140460000Y-121560000D02*
X133760000Y-121560000D01*
D11*
X142460000Y-123360000D02*
X142460000Y-122360000D01*
X142460000Y-122360000D02*
X142260000Y-122360000D01*
X142240000Y-122360000D02*
X142240000Y-120110000D01*
X142260000Y-120110000D02*
X142460000Y-120110000D01*
X131960000Y-122660000D02*
X132160000Y-122660000D01*
X132190000Y-122660000D02*
X132190000Y-124900000D01*
X132160000Y-124900000D02*
X131960000Y-124900000D01*
X131960000Y-125260000D02*
X131960000Y-124900000D01*
X131960000Y-121660000D02*
X131960000Y-122660000D01*
X131960000Y-125260000D02*
X135240000Y-125260000D01*
X137460000Y-123360000D02*
X142460000Y-123360000D01*
X142460000Y-119760000D02*
X134059999Y-119760000D01*
X135243682Y-125238529D02*
G75*
G02X137460000Y-123360000I2151318J-291471D01*
G01*
X131960000Y-121660001D02*
G75*
G02X134059999Y-119760000I2000000J-99999D01*
G01*
X142460000Y-120110000D02*
X142460000Y-119760000D01*
D16*
X134843682Y-124838529D02*
G75*
G02X137060000Y-122960000I2151318J-291471D01*
G01*
D15*
X132160000Y-125060000D02*
X134860000Y-125060000D01*
D18*
X142260000Y-119960000D02*
X140860000Y-119960000D01*
X142260000Y-122460000D02*
X142260000Y-123160000D01*
D12*
X113010000Y-122559999D02*
X113010000Y-121660000D01*
D13*
X113510000Y-124760000D02*
X113510000Y-122960001D01*
D14*
X114640000Y-121260000D02*
X114640000Y-123500000D01*
D15*
X123110000Y-123060000D02*
X121710000Y-123060000D01*
D16*
X122710000Y-120360000D02*
X122710000Y-122860000D01*
D17*
X121410000Y-121560000D02*
X114710000Y-121560000D01*
D11*
X123410000Y-123360000D02*
X123410000Y-122360000D01*
X123410000Y-122360000D02*
X123210000Y-122360000D01*
X123190000Y-122360000D02*
X123190000Y-120110000D01*
X123210000Y-120110000D02*
X123410000Y-120110000D01*
X112910000Y-122660000D02*
X113110000Y-122660000D01*
X113140000Y-122660000D02*
X113140000Y-124900000D01*
X113110000Y-124900000D02*
X112910000Y-124900000D01*
X112910000Y-125260000D02*
X112910000Y-124900000D01*
X112910000Y-121660000D02*
X112910000Y-122660000D01*
X112910000Y-125260000D02*
X116190000Y-125260000D01*
X118410000Y-123360000D02*
X123410000Y-123360000D01*
X123410000Y-119760000D02*
X115009999Y-119760000D01*
X116193682Y-125238529D02*
G75*
G02X118410000Y-123360000I2151318J-291471D01*
G01*
X112910000Y-121660001D02*
G75*
G02X115009999Y-119760000I2000000J-99999D01*
G01*
X123410000Y-120110000D02*
X123410000Y-119760000D01*
D16*
X115793682Y-124838529D02*
G75*
G02X118010000Y-122960000I2151318J-291471D01*
G01*
D15*
X113110000Y-125060000D02*
X115810000Y-125060000D01*
D18*
X123210000Y-119960000D02*
X121810000Y-119960000D01*
X123210000Y-122460000D02*
X123210000Y-123160000D01*
D12*
X93960000Y-122559999D02*
X93960000Y-121660000D01*
D13*
X94460000Y-124760000D02*
X94460000Y-122960001D01*
D14*
X95590000Y-121260000D02*
X95590000Y-123500000D01*
D15*
X104060000Y-123060000D02*
X102660000Y-123060000D01*
D16*
X103660000Y-120360000D02*
X103660000Y-122860000D01*
D17*
X102360000Y-121560000D02*
X95660000Y-121560000D01*
D11*
X104360000Y-123360000D02*
X104360000Y-122360000D01*
X104360000Y-122360000D02*
X104160000Y-122360000D01*
X104140000Y-122360000D02*
X104140000Y-120110000D01*
X104160000Y-120110000D02*
X104360000Y-120110000D01*
X93860000Y-122660000D02*
X94060000Y-122660000D01*
X94090000Y-122660000D02*
X94090000Y-124900000D01*
X94060000Y-124900000D02*
X93860000Y-124900000D01*
X93860000Y-125260000D02*
X93860000Y-124900000D01*
X93860000Y-121660000D02*
X93860000Y-122660000D01*
X93860000Y-125260000D02*
X97140000Y-125260000D01*
X99360000Y-123360000D02*
X104360000Y-123360000D01*
X104360000Y-119760000D02*
X95959999Y-119760000D01*
X97143682Y-125238529D02*
G75*
G02X99360000Y-123360000I2151318J-291471D01*
G01*
X93860000Y-121660001D02*
G75*
G02X95959999Y-119760000I2000000J-99999D01*
G01*
X104360000Y-120110000D02*
X104360000Y-119760000D01*
D16*
X96743682Y-124838529D02*
G75*
G02X98960000Y-122960000I2151318J-291471D01*
G01*
D15*
X94060000Y-125060000D02*
X96760000Y-125060000D01*
D18*
X104160000Y-119960000D02*
X102760000Y-119960000D01*
X104160000Y-122460000D02*
X104160000Y-123160000D01*
D12*
X74910000Y-122559999D02*
X74910000Y-121660000D01*
D13*
X75410000Y-124760000D02*
X75410000Y-122960001D01*
D14*
X76540000Y-121260000D02*
X76540000Y-123500000D01*
D15*
X85010000Y-123060000D02*
X83610000Y-123060000D01*
D16*
X84610000Y-120360000D02*
X84610000Y-122860000D01*
D17*
X83310000Y-121560000D02*
X76610000Y-121560000D01*
D11*
X85310000Y-123360000D02*
X85310000Y-122360000D01*
X85310000Y-122360000D02*
X85110000Y-122360000D01*
X85090000Y-122360000D02*
X85090000Y-120110000D01*
X85110000Y-120110000D02*
X85310000Y-120110000D01*
X74810000Y-122660000D02*
X75010000Y-122660000D01*
X75040000Y-122660000D02*
X75040000Y-124900000D01*
X75010000Y-124900000D02*
X74810000Y-124900000D01*
X74810000Y-125260000D02*
X74810000Y-124900000D01*
X74810000Y-121660000D02*
X74810000Y-122660000D01*
X74810000Y-125260000D02*
X78090000Y-125260000D01*
X80310000Y-123360000D02*
X85310000Y-123360000D01*
X85310000Y-119760000D02*
X76909999Y-119760000D01*
X78093682Y-125238529D02*
G75*
G02X80310000Y-123360000I2151318J-291471D01*
G01*
X74810000Y-121660001D02*
G75*
G02X76909999Y-119760000I2000000J-99999D01*
G01*
X85310000Y-120110000D02*
X85310000Y-119760000D01*
D16*
X77693682Y-124838529D02*
G75*
G02X79910000Y-122960000I2151318J-291471D01*
G01*
D15*
X75010000Y-125060000D02*
X77710000Y-125060000D01*
D18*
X85110000Y-119960000D02*
X83710000Y-119960000D01*
X85110000Y-122460000D02*
X85110000Y-123160000D01*
D12*
X55860000Y-122559999D02*
X55860000Y-121660000D01*
D13*
X56360000Y-124760000D02*
X56360000Y-122960001D01*
D14*
X57490000Y-121260000D02*
X57490000Y-123500000D01*
D15*
X65960000Y-123060000D02*
X64560000Y-123060000D01*
D16*
X65560000Y-120360000D02*
X65560000Y-122860000D01*
D17*
X64260000Y-121560000D02*
X57560000Y-121560000D01*
D11*
X66260000Y-123360000D02*
X66260000Y-122360000D01*
X66260000Y-122360000D02*
X66060000Y-122360000D01*
X66040000Y-122360000D02*
X66040000Y-120110000D01*
X66060000Y-120110000D02*
X66260000Y-120110000D01*
X55760000Y-122660000D02*
X55960000Y-122660000D01*
X55990000Y-122660000D02*
X55990000Y-124900000D01*
X55960000Y-124900000D02*
X55760000Y-124900000D01*
X55760000Y-125260000D02*
X55760000Y-124900000D01*
X55760000Y-121660000D02*
X55760000Y-122660000D01*
X55760000Y-125260000D02*
X59040000Y-125260000D01*
X61260000Y-123360000D02*
X66260000Y-123360000D01*
X66260000Y-119760000D02*
X57859999Y-119760000D01*
X59043682Y-125238529D02*
G75*
G02X61260000Y-123360000I2151318J-291471D01*
G01*
X55760000Y-121660001D02*
G75*
G02X57859999Y-119760000I2000000J-99999D01*
G01*
X66260000Y-120110000D02*
X66260000Y-119760000D01*
D16*
X58643682Y-124838529D02*
G75*
G02X60860000Y-122960000I2151318J-291471D01*
G01*
D15*
X55960000Y-125060000D02*
X58660000Y-125060000D01*
D18*
X66060000Y-119960000D02*
X64660000Y-119960000D01*
X66060000Y-122460000D02*
X66060000Y-123160000D01*
D12*
X36810000Y-122559999D02*
X36810000Y-121660000D01*
D13*
X37310000Y-124760000D02*
X37310000Y-122960001D01*
D14*
X38440000Y-121260000D02*
X38440000Y-123500000D01*
D15*
X46910000Y-123060000D02*
X45510000Y-123060000D01*
D16*
X46510000Y-120360000D02*
X46510000Y-122860000D01*
D17*
X45210000Y-121560000D02*
X38510000Y-121560000D01*
D11*
X47210000Y-123360000D02*
X47210000Y-122360000D01*
X47210000Y-122360000D02*
X47010000Y-122360000D01*
X46990000Y-122360000D02*
X46990000Y-120110000D01*
X47010000Y-120110000D02*
X47210000Y-120110000D01*
X36710000Y-122660000D02*
X36910000Y-122660000D01*
X36940000Y-122660000D02*
X36940000Y-124900000D01*
X36910000Y-124900000D02*
X36710000Y-124900000D01*
X36710000Y-125260000D02*
X36710000Y-124900000D01*
X36710000Y-121660000D02*
X36710000Y-122660000D01*
X36710000Y-125260000D02*
X39990000Y-125260000D01*
X42210000Y-123360000D02*
X47210000Y-123360000D01*
X47210000Y-119760000D02*
X38809999Y-119760000D01*
X39993682Y-125238529D02*
G75*
G02X42210000Y-123360000I2151318J-291471D01*
G01*
X36710000Y-121660001D02*
G75*
G02X38809999Y-119760000I2000000J-99999D01*
G01*
X47210000Y-120110000D02*
X47210000Y-119760000D01*
D16*
X39593682Y-124838529D02*
G75*
G02X41810000Y-122960000I2151318J-291471D01*
G01*
D15*
X36910000Y-125060000D02*
X39610000Y-125060000D01*
D18*
X47010000Y-119960000D02*
X45610000Y-119960000D01*
X47010000Y-122460000D02*
X47010000Y-123160000D01*
D12*
X227310000Y-103509999D02*
X227310000Y-102610000D01*
D13*
X227810000Y-105710000D02*
X227810000Y-103910001D01*
D14*
X228940000Y-102210000D02*
X228940000Y-104450000D01*
D15*
X237410000Y-104010000D02*
X236010000Y-104010000D01*
D16*
X237010000Y-101310000D02*
X237010000Y-103810000D01*
D17*
X235710000Y-102510000D02*
X229010000Y-102510000D01*
D11*
X237710000Y-104310000D02*
X237710000Y-103310000D01*
X237710000Y-103310000D02*
X237510000Y-103310000D01*
X237490000Y-103310000D02*
X237490000Y-101060000D01*
X237510000Y-101060000D02*
X237710000Y-101060000D01*
X227210000Y-103610000D02*
X227410000Y-103610000D01*
X227440000Y-103610000D02*
X227440000Y-105850000D01*
X227410000Y-105850000D02*
X227210000Y-105850000D01*
X227210000Y-106210000D02*
X227210000Y-105850000D01*
X227210000Y-102610000D02*
X227210000Y-103610000D01*
X227210000Y-106210000D02*
X230490000Y-106210000D01*
X232710000Y-104310000D02*
X237710000Y-104310000D01*
X237710000Y-100710000D02*
X229309999Y-100710000D01*
X230493682Y-106188529D02*
G75*
G02X232710000Y-104310000I2151318J-291471D01*
G01*
X227210000Y-102610001D02*
G75*
G02X229309999Y-100710000I2000000J-99999D01*
G01*
X237710000Y-101060000D02*
X237710000Y-100710000D01*
D16*
X230093682Y-105788529D02*
G75*
G02X232310000Y-103910000I2151318J-291471D01*
G01*
D15*
X227410000Y-106010000D02*
X230110000Y-106010000D01*
D18*
X237510000Y-100910000D02*
X236110000Y-100910000D01*
X237510000Y-103410000D02*
X237510000Y-104110000D01*
D12*
X208260000Y-103509999D02*
X208260000Y-102610000D01*
D13*
X208760000Y-105710000D02*
X208760000Y-103910001D01*
D14*
X209890000Y-102210000D02*
X209890000Y-104450000D01*
D15*
X218360000Y-104010000D02*
X216960000Y-104010000D01*
D16*
X217960000Y-101310000D02*
X217960000Y-103810000D01*
D17*
X216660000Y-102510000D02*
X209960000Y-102510000D01*
D11*
X218660000Y-104310000D02*
X218660000Y-103310000D01*
X218660000Y-103310000D02*
X218460000Y-103310000D01*
X218440000Y-103310000D02*
X218440000Y-101060000D01*
X218460000Y-101060000D02*
X218660000Y-101060000D01*
X208160000Y-103610000D02*
X208360000Y-103610000D01*
X208390000Y-103610000D02*
X208390000Y-105850000D01*
X208360000Y-105850000D02*
X208160000Y-105850000D01*
X208160000Y-106210000D02*
X208160000Y-105850000D01*
X208160000Y-102610000D02*
X208160000Y-103610000D01*
X208160000Y-106210000D02*
X211440000Y-106210000D01*
X213660000Y-104310000D02*
X218660000Y-104310000D01*
X218660000Y-100710000D02*
X210259999Y-100710000D01*
X211443682Y-106188529D02*
G75*
G02X213660000Y-104310000I2151318J-291471D01*
G01*
X208160000Y-102610001D02*
G75*
G02X210259999Y-100710000I2000000J-99999D01*
G01*
X218660000Y-101060000D02*
X218660000Y-100710000D01*
D16*
X211043682Y-105788529D02*
G75*
G02X213260000Y-103910000I2151318J-291471D01*
G01*
D15*
X208360000Y-106010000D02*
X211060000Y-106010000D01*
D18*
X218460000Y-100910000D02*
X217060000Y-100910000D01*
X218460000Y-103410000D02*
X218460000Y-104110000D01*
D12*
X189210000Y-103509999D02*
X189210000Y-102610000D01*
D13*
X189710000Y-105710000D02*
X189710000Y-103910001D01*
D14*
X190840000Y-102210000D02*
X190840000Y-104450000D01*
D15*
X199310000Y-104010000D02*
X197910000Y-104010000D01*
D16*
X198910000Y-101310000D02*
X198910000Y-103810000D01*
D17*
X197610000Y-102510000D02*
X190910000Y-102510000D01*
D11*
X199610000Y-104310000D02*
X199610000Y-103310000D01*
X199610000Y-103310000D02*
X199410000Y-103310000D01*
X199390000Y-103310000D02*
X199390000Y-101060000D01*
X199410000Y-101060000D02*
X199610000Y-101060000D01*
X189110000Y-103610000D02*
X189310000Y-103610000D01*
X189340000Y-103610000D02*
X189340000Y-105850000D01*
X189310000Y-105850000D02*
X189110000Y-105850000D01*
X189110000Y-106210000D02*
X189110000Y-105850000D01*
X189110000Y-102610000D02*
X189110000Y-103610000D01*
X189110000Y-106210000D02*
X192390000Y-106210000D01*
X194610000Y-104310000D02*
X199610000Y-104310000D01*
X199610000Y-100710000D02*
X191209999Y-100710000D01*
X192393682Y-106188529D02*
G75*
G02X194610000Y-104310000I2151318J-291471D01*
G01*
X189110000Y-102610001D02*
G75*
G02X191209999Y-100710000I2000000J-99999D01*
G01*
X199610000Y-101060000D02*
X199610000Y-100710000D01*
D16*
X191993682Y-105788529D02*
G75*
G02X194210000Y-103910000I2151318J-291471D01*
G01*
D15*
X189310000Y-106010000D02*
X192010000Y-106010000D01*
D18*
X199410000Y-100910000D02*
X198010000Y-100910000D01*
X199410000Y-103410000D02*
X199410000Y-104110000D01*
D12*
X170160000Y-103509999D02*
X170160000Y-102610000D01*
D13*
X170660000Y-105710000D02*
X170660000Y-103910001D01*
D14*
X171790000Y-102210000D02*
X171790000Y-104450000D01*
D15*
X180260000Y-104010000D02*
X178860000Y-104010000D01*
D16*
X179860000Y-101310000D02*
X179860000Y-103810000D01*
D17*
X178560000Y-102510000D02*
X171860000Y-102510000D01*
D11*
X180560000Y-104310000D02*
X180560000Y-103310000D01*
X180560000Y-103310000D02*
X180360000Y-103310000D01*
X180340000Y-103310000D02*
X180340000Y-101060000D01*
X180360000Y-101060000D02*
X180560000Y-101060000D01*
X170060000Y-103610000D02*
X170260000Y-103610000D01*
X170290000Y-103610000D02*
X170290000Y-105850000D01*
X170260000Y-105850000D02*
X170060000Y-105850000D01*
X170060000Y-106210000D02*
X170060000Y-105850000D01*
X170060000Y-102610000D02*
X170060000Y-103610000D01*
X170060000Y-106210000D02*
X173340000Y-106210000D01*
X175560000Y-104310000D02*
X180560000Y-104310000D01*
X180560000Y-100710000D02*
X172159999Y-100710000D01*
X173343682Y-106188529D02*
G75*
G02X175560000Y-104310000I2151318J-291471D01*
G01*
X170060000Y-102610001D02*
G75*
G02X172159999Y-100710000I2000000J-99999D01*
G01*
X180560000Y-101060000D02*
X180560000Y-100710000D01*
D16*
X172943682Y-105788529D02*
G75*
G02X175160000Y-103910000I2151318J-291471D01*
G01*
D15*
X170260000Y-106010000D02*
X172960000Y-106010000D01*
D18*
X180360000Y-100910000D02*
X178960000Y-100910000D01*
X180360000Y-103410000D02*
X180360000Y-104110000D01*
D12*
X151110000Y-103509999D02*
X151110000Y-102610000D01*
D13*
X151610000Y-105710000D02*
X151610000Y-103910001D01*
D14*
X152740000Y-102210000D02*
X152740000Y-104450000D01*
D15*
X161210000Y-104010000D02*
X159810000Y-104010000D01*
D16*
X160810000Y-101310000D02*
X160810000Y-103810000D01*
D17*
X159510000Y-102510000D02*
X152810000Y-102510000D01*
D11*
X161510000Y-104310000D02*
X161510000Y-103310000D01*
X161510000Y-103310000D02*
X161310000Y-103310000D01*
X161290000Y-103310000D02*
X161290000Y-101060000D01*
X161310000Y-101060000D02*
X161510000Y-101060000D01*
X151010000Y-103610000D02*
X151210000Y-103610000D01*
X151240000Y-103610000D02*
X151240000Y-105850000D01*
X151210000Y-105850000D02*
X151010000Y-105850000D01*
X151010000Y-106210000D02*
X151010000Y-105850000D01*
X151010000Y-102610000D02*
X151010000Y-103610000D01*
X151010000Y-106210000D02*
X154290000Y-106210000D01*
X156510000Y-104310000D02*
X161510000Y-104310000D01*
X161510000Y-100710000D02*
X153109999Y-100710000D01*
X154293682Y-106188529D02*
G75*
G02X156510000Y-104310000I2151318J-291471D01*
G01*
X151010000Y-102610001D02*
G75*
G02X153109999Y-100710000I2000000J-99999D01*
G01*
X161510000Y-101060000D02*
X161510000Y-100710000D01*
D16*
X153893682Y-105788529D02*
G75*
G02X156110000Y-103910000I2151318J-291471D01*
G01*
D15*
X151210000Y-106010000D02*
X153910000Y-106010000D01*
D18*
X161310000Y-100910000D02*
X159910000Y-100910000D01*
X161310000Y-103410000D02*
X161310000Y-104110000D01*
D12*
X132060000Y-103509999D02*
X132060000Y-102610000D01*
D13*
X132560000Y-105710000D02*
X132560000Y-103910001D01*
D14*
X133690000Y-102210000D02*
X133690000Y-104450000D01*
D15*
X142160000Y-104010000D02*
X140760000Y-104010000D01*
D16*
X141760000Y-101310000D02*
X141760000Y-103810000D01*
D17*
X140460000Y-102510000D02*
X133760000Y-102510000D01*
D11*
X142460000Y-104310000D02*
X142460000Y-103310000D01*
X142460000Y-103310000D02*
X142260000Y-103310000D01*
X142240000Y-103310000D02*
X142240000Y-101060000D01*
X142260000Y-101060000D02*
X142460000Y-101060000D01*
X131960000Y-103610000D02*
X132160000Y-103610000D01*
X132190000Y-103610000D02*
X132190000Y-105850000D01*
X132160000Y-105850000D02*
X131960000Y-105850000D01*
X131960000Y-106210000D02*
X131960000Y-105850000D01*
X131960000Y-102610000D02*
X131960000Y-103610000D01*
X131960000Y-106210000D02*
X135240000Y-106210000D01*
X137460000Y-104310000D02*
X142460000Y-104310000D01*
X142460000Y-100710000D02*
X134059999Y-100710000D01*
X135243682Y-106188529D02*
G75*
G02X137460000Y-104310000I2151318J-291471D01*
G01*
X131960000Y-102610001D02*
G75*
G02X134059999Y-100710000I2000000J-99999D01*
G01*
X142460000Y-101060000D02*
X142460000Y-100710000D01*
D16*
X134843682Y-105788529D02*
G75*
G02X137060000Y-103910000I2151318J-291471D01*
G01*
D15*
X132160000Y-106010000D02*
X134860000Y-106010000D01*
D18*
X142260000Y-100910000D02*
X140860000Y-100910000D01*
X142260000Y-103410000D02*
X142260000Y-104110000D01*
D12*
X113010000Y-103509999D02*
X113010000Y-102610000D01*
D13*
X113510000Y-105710000D02*
X113510000Y-103910001D01*
D14*
X114640000Y-102210000D02*
X114640000Y-104450000D01*
D15*
X123110000Y-104010000D02*
X121710000Y-104010000D01*
D16*
X122710000Y-101310000D02*
X122710000Y-103810000D01*
D17*
X121410000Y-102510000D02*
X114710000Y-102510000D01*
D11*
X123410000Y-104310000D02*
X123410000Y-103310000D01*
X123410000Y-103310000D02*
X123210000Y-103310000D01*
X123190000Y-103310000D02*
X123190000Y-101060000D01*
X123210000Y-101060000D02*
X123410000Y-101060000D01*
X112910000Y-103610000D02*
X113110000Y-103610000D01*
X113140000Y-103610000D02*
X113140000Y-105850000D01*
X113110000Y-105850000D02*
X112910000Y-105850000D01*
X112910000Y-106210000D02*
X112910000Y-105850000D01*
X112910000Y-102610000D02*
X112910000Y-103610000D01*
X112910000Y-106210000D02*
X116190000Y-106210000D01*
X118410000Y-104310000D02*
X123410000Y-104310000D01*
X123410000Y-100710000D02*
X115009999Y-100710000D01*
X116193682Y-106188529D02*
G75*
G02X118410000Y-104310000I2151318J-291471D01*
G01*
X112910000Y-102610001D02*
G75*
G02X115009999Y-100710000I2000000J-99999D01*
G01*
X123410000Y-101060000D02*
X123410000Y-100710000D01*
D16*
X115793682Y-105788529D02*
G75*
G02X118010000Y-103910000I2151318J-291471D01*
G01*
D15*
X113110000Y-106010000D02*
X115810000Y-106010000D01*
D18*
X123210000Y-100910000D02*
X121810000Y-100910000D01*
X123210000Y-103410000D02*
X123210000Y-104110000D01*
D12*
X93960000Y-103509999D02*
X93960000Y-102610000D01*
D13*
X94460000Y-105710000D02*
X94460000Y-103910001D01*
D14*
X95590000Y-102210000D02*
X95590000Y-104450000D01*
D15*
X104060000Y-104010000D02*
X102660000Y-104010000D01*
D16*
X103660000Y-101310000D02*
X103660000Y-103810000D01*
D17*
X102360000Y-102510000D02*
X95660000Y-102510000D01*
D11*
X104360000Y-104310000D02*
X104360000Y-103310000D01*
X104360000Y-103310000D02*
X104160000Y-103310000D01*
X104140000Y-103310000D02*
X104140000Y-101060000D01*
X104160000Y-101060000D02*
X104360000Y-101060000D01*
X93860000Y-103610000D02*
X94060000Y-103610000D01*
X94090000Y-103610000D02*
X94090000Y-105850000D01*
X94060000Y-105850000D02*
X93860000Y-105850000D01*
X93860000Y-106210000D02*
X93860000Y-105850000D01*
X93860000Y-102610000D02*
X93860000Y-103610000D01*
X93860000Y-106210000D02*
X97140000Y-106210000D01*
X99360000Y-104310000D02*
X104360000Y-104310000D01*
X104360000Y-100710000D02*
X95959999Y-100710000D01*
X97143682Y-106188529D02*
G75*
G02X99360000Y-104310000I2151318J-291471D01*
G01*
X93860000Y-102610001D02*
G75*
G02X95959999Y-100710000I2000000J-99999D01*
G01*
X104360000Y-101060000D02*
X104360000Y-100710000D01*
D16*
X96743682Y-105788529D02*
G75*
G02X98960000Y-103910000I2151318J-291471D01*
G01*
D15*
X94060000Y-106010000D02*
X96760000Y-106010000D01*
D18*
X104160000Y-100910000D02*
X102760000Y-100910000D01*
X104160000Y-103410000D02*
X104160000Y-104110000D01*
D12*
X74910000Y-103509999D02*
X74910000Y-102610000D01*
D13*
X75410000Y-105710000D02*
X75410000Y-103910001D01*
D14*
X76540000Y-102210000D02*
X76540000Y-104450000D01*
D15*
X85010000Y-104010000D02*
X83610000Y-104010000D01*
D16*
X84610000Y-101310000D02*
X84610000Y-103810000D01*
D17*
X83310000Y-102510000D02*
X76610000Y-102510000D01*
D11*
X85310000Y-104310000D02*
X85310000Y-103310000D01*
X85310000Y-103310000D02*
X85110000Y-103310000D01*
X85090000Y-103310000D02*
X85090000Y-101060000D01*
X85110000Y-101060000D02*
X85310000Y-101060000D01*
X74810000Y-103610000D02*
X75010000Y-103610000D01*
X75040000Y-103610000D02*
X75040000Y-105850000D01*
X75010000Y-105850000D02*
X74810000Y-105850000D01*
X74810000Y-106210000D02*
X74810000Y-105850000D01*
X74810000Y-102610000D02*
X74810000Y-103610000D01*
X74810000Y-106210000D02*
X78090000Y-106210000D01*
X80310000Y-104310000D02*
X85310000Y-104310000D01*
X85310000Y-100710000D02*
X76909999Y-100710000D01*
X78093682Y-106188529D02*
G75*
G02X80310000Y-104310000I2151318J-291471D01*
G01*
X74810000Y-102610001D02*
G75*
G02X76909999Y-100710000I2000000J-99999D01*
G01*
X85310000Y-101060000D02*
X85310000Y-100710000D01*
D16*
X77693682Y-105788529D02*
G75*
G02X79910000Y-103910000I2151318J-291471D01*
G01*
D15*
X75010000Y-106010000D02*
X77710000Y-106010000D01*
D18*
X85110000Y-100910000D02*
X83710000Y-100910000D01*
X85110000Y-103410000D02*
X85110000Y-104110000D01*
D12*
X251150000Y-84459999D02*
X251150000Y-83560000D01*
D13*
X251650000Y-86660000D02*
X251650000Y-84860001D01*
D14*
X252780000Y-83160000D02*
X252780000Y-85400000D01*
D15*
X261250000Y-84960000D02*
X259850000Y-84960000D01*
D16*
X260850000Y-82260000D02*
X260850000Y-84760000D01*
D17*
X259550000Y-83460000D02*
X252850000Y-83460000D01*
D11*
X261550000Y-85260000D02*
X261550000Y-84260000D01*
X261550000Y-84260000D02*
X261350000Y-84260000D01*
X261330000Y-84260000D02*
X261330000Y-82010000D01*
X261350000Y-82010000D02*
X261550000Y-82010000D01*
X251050000Y-84560000D02*
X251250000Y-84560000D01*
X251280000Y-84560000D02*
X251280000Y-86800000D01*
X251250000Y-86800000D02*
X251050000Y-86800000D01*
X251050000Y-87160000D02*
X251050000Y-86800000D01*
X251050000Y-83560000D02*
X251050000Y-84560000D01*
X251050000Y-87160000D02*
X254330000Y-87160000D01*
X256550000Y-85260000D02*
X261550000Y-85260000D01*
X261550000Y-81660000D02*
X253149999Y-81660000D01*
X254333682Y-87138529D02*
G75*
G02X256550000Y-85260000I2151318J-291471D01*
G01*
X251050000Y-83560001D02*
G75*
G02X253149999Y-81660000I2000000J-99999D01*
G01*
X261550000Y-82010000D02*
X261550000Y-81660000D01*
D16*
X253933682Y-86738529D02*
G75*
G02X256150000Y-84860000I2151318J-291471D01*
G01*
D15*
X251250000Y-86960000D02*
X253950000Y-86960000D01*
D18*
X261350000Y-81860000D02*
X259950000Y-81860000D01*
X261350000Y-84360000D02*
X261350000Y-85060000D01*
D12*
X227310000Y-84459999D02*
X227310000Y-83560000D01*
D13*
X227810000Y-86660000D02*
X227810000Y-84860001D01*
D14*
X228940000Y-83160000D02*
X228940000Y-85400000D01*
D15*
X237410000Y-84960000D02*
X236010000Y-84960000D01*
D16*
X237010000Y-82260000D02*
X237010000Y-84760000D01*
D17*
X235710000Y-83460000D02*
X229010000Y-83460000D01*
D11*
X237710000Y-85260000D02*
X237710000Y-84260000D01*
X237710000Y-84260000D02*
X237510000Y-84260000D01*
X237490000Y-84260000D02*
X237490000Y-82010000D01*
X237510000Y-82010000D02*
X237710000Y-82010000D01*
X227210000Y-84560000D02*
X227410000Y-84560000D01*
X227440000Y-84560000D02*
X227440000Y-86800000D01*
X227410000Y-86800000D02*
X227210000Y-86800000D01*
X227210000Y-87160000D02*
X227210000Y-86800000D01*
X227210000Y-83560000D02*
X227210000Y-84560000D01*
X227210000Y-87160000D02*
X230490000Y-87160000D01*
X232710000Y-85260000D02*
X237710000Y-85260000D01*
X237710000Y-81660000D02*
X229309999Y-81660000D01*
X230493682Y-87138529D02*
G75*
G02X232710000Y-85260000I2151318J-291471D01*
G01*
X227210000Y-83560001D02*
G75*
G02X229309999Y-81660000I2000000J-99999D01*
G01*
X237710000Y-82010000D02*
X237710000Y-81660000D01*
D16*
X230093682Y-86738529D02*
G75*
G02X232310000Y-84860000I2151318J-291471D01*
G01*
D15*
X227410000Y-86960000D02*
X230110000Y-86960000D01*
D18*
X237510000Y-81860000D02*
X236110000Y-81860000D01*
X237510000Y-84360000D02*
X237510000Y-85060000D01*
D12*
X208260000Y-84459999D02*
X208260000Y-83560000D01*
D13*
X208760000Y-86660000D02*
X208760000Y-84860001D01*
D14*
X209890000Y-83160000D02*
X209890000Y-85400000D01*
D15*
X218360000Y-84960000D02*
X216960000Y-84960000D01*
D16*
X217960000Y-82260000D02*
X217960000Y-84760000D01*
D17*
X216660000Y-83460000D02*
X209960000Y-83460000D01*
D11*
X218660000Y-85260000D02*
X218660000Y-84260000D01*
X218660000Y-84260000D02*
X218460000Y-84260000D01*
X218440000Y-84260000D02*
X218440000Y-82010000D01*
X218460000Y-82010000D02*
X218660000Y-82010000D01*
X208160000Y-84560000D02*
X208360000Y-84560000D01*
X208390000Y-84560000D02*
X208390000Y-86800000D01*
X208360000Y-86800000D02*
X208160000Y-86800000D01*
X208160000Y-87160000D02*
X208160000Y-86800000D01*
X208160000Y-83560000D02*
X208160000Y-84560000D01*
X208160000Y-87160000D02*
X211440000Y-87160000D01*
X213660000Y-85260000D02*
X218660000Y-85260000D01*
X218660000Y-81660000D02*
X210259999Y-81660000D01*
X211443682Y-87138529D02*
G75*
G02X213660000Y-85260000I2151318J-291471D01*
G01*
X208160000Y-83560001D02*
G75*
G02X210259999Y-81660000I2000000J-99999D01*
G01*
X218660000Y-82010000D02*
X218660000Y-81660000D01*
D16*
X211043682Y-86738529D02*
G75*
G02X213260000Y-84860000I2151318J-291471D01*
G01*
D15*
X208360000Y-86960000D02*
X211060000Y-86960000D01*
D18*
X218460000Y-81860000D02*
X217060000Y-81860000D01*
X218460000Y-84360000D02*
X218460000Y-85060000D01*
D12*
X189210000Y-84459999D02*
X189210000Y-83560000D01*
D13*
X189710000Y-86660000D02*
X189710000Y-84860001D01*
D14*
X190840000Y-83160000D02*
X190840000Y-85400000D01*
D15*
X199310000Y-84960000D02*
X197910000Y-84960000D01*
D16*
X198910000Y-82260000D02*
X198910000Y-84760000D01*
D17*
X197610000Y-83460000D02*
X190910000Y-83460000D01*
D11*
X199610000Y-85260000D02*
X199610000Y-84260000D01*
X199610000Y-84260000D02*
X199410000Y-84260000D01*
X199390000Y-84260000D02*
X199390000Y-82010000D01*
X199410000Y-82010000D02*
X199610000Y-82010000D01*
X189110000Y-84560000D02*
X189310000Y-84560000D01*
X189340000Y-84560000D02*
X189340000Y-86800000D01*
X189310000Y-86800000D02*
X189110000Y-86800000D01*
X189110000Y-87160000D02*
X189110000Y-86800000D01*
X189110000Y-83560000D02*
X189110000Y-84560000D01*
X189110000Y-87160000D02*
X192390000Y-87160000D01*
X194610000Y-85260000D02*
X199610000Y-85260000D01*
X199610000Y-81660000D02*
X191209999Y-81660000D01*
X192393682Y-87138529D02*
G75*
G02X194610000Y-85260000I2151318J-291471D01*
G01*
X189110000Y-83560001D02*
G75*
G02X191209999Y-81660000I2000000J-99999D01*
G01*
X199610000Y-82010000D02*
X199610000Y-81660000D01*
D16*
X191993682Y-86738529D02*
G75*
G02X194210000Y-84860000I2151318J-291471D01*
G01*
D15*
X189310000Y-86960000D02*
X192010000Y-86960000D01*
D18*
X199410000Y-81860000D02*
X198010000Y-81860000D01*
X199410000Y-84360000D02*
X199410000Y-85060000D01*
D12*
X170160000Y-84459999D02*
X170160000Y-83560000D01*
D13*
X170660000Y-86660000D02*
X170660000Y-84860001D01*
D14*
X171790000Y-83160000D02*
X171790000Y-85400000D01*
D15*
X180260000Y-84960000D02*
X178860000Y-84960000D01*
D16*
X179860000Y-82260000D02*
X179860000Y-84760000D01*
D17*
X178560000Y-83460000D02*
X171860000Y-83460000D01*
D11*
X180560000Y-85260000D02*
X180560000Y-84260000D01*
X180560000Y-84260000D02*
X180360000Y-84260000D01*
X180340000Y-84260000D02*
X180340000Y-82010000D01*
X180360000Y-82010000D02*
X180560000Y-82010000D01*
X170060000Y-84560000D02*
X170260000Y-84560000D01*
X170290000Y-84560000D02*
X170290000Y-86800000D01*
X170260000Y-86800000D02*
X170060000Y-86800000D01*
X170060000Y-87160000D02*
X170060000Y-86800000D01*
X170060000Y-83560000D02*
X170060000Y-84560000D01*
X170060000Y-87160000D02*
X173340000Y-87160000D01*
X175560000Y-85260000D02*
X180560000Y-85260000D01*
X180560000Y-81660000D02*
X172159999Y-81660000D01*
X173343682Y-87138529D02*
G75*
G02X175560000Y-85260000I2151318J-291471D01*
G01*
X170060000Y-83560001D02*
G75*
G02X172159999Y-81660000I2000000J-99999D01*
G01*
X180560000Y-82010000D02*
X180560000Y-81660000D01*
D16*
X172943682Y-86738529D02*
G75*
G02X175160000Y-84860000I2151318J-291471D01*
G01*
D15*
X170260000Y-86960000D02*
X172960000Y-86960000D01*
D18*
X180360000Y-81860000D02*
X178960000Y-81860000D01*
X180360000Y-84360000D02*
X180360000Y-85060000D01*
D12*
X151110000Y-84459999D02*
X151110000Y-83560000D01*
D13*
X151610000Y-86660000D02*
X151610000Y-84860001D01*
D14*
X152740000Y-83160000D02*
X152740000Y-85400000D01*
D15*
X161210000Y-84960000D02*
X159810000Y-84960000D01*
D16*
X160810000Y-82260000D02*
X160810000Y-84760000D01*
D17*
X159510000Y-83460000D02*
X152810000Y-83460000D01*
D11*
X161510000Y-85260000D02*
X161510000Y-84260000D01*
X161510000Y-84260000D02*
X161310000Y-84260000D01*
X161290000Y-84260000D02*
X161290000Y-82010000D01*
X161310000Y-82010000D02*
X161510000Y-82010000D01*
X151010000Y-84560000D02*
X151210000Y-84560000D01*
X151240000Y-84560000D02*
X151240000Y-86800000D01*
X151210000Y-86800000D02*
X151010000Y-86800000D01*
X151010000Y-87160000D02*
X151010000Y-86800000D01*
X151010000Y-83560000D02*
X151010000Y-84560000D01*
X151010000Y-87160000D02*
X154290000Y-87160000D01*
X156510000Y-85260000D02*
X161510000Y-85260000D01*
X161510000Y-81660000D02*
X153109999Y-81660000D01*
X154293682Y-87138529D02*
G75*
G02X156510000Y-85260000I2151318J-291471D01*
G01*
X151010000Y-83560001D02*
G75*
G02X153109999Y-81660000I2000000J-99999D01*
G01*
X161510000Y-82010000D02*
X161510000Y-81660000D01*
D16*
X153893682Y-86738529D02*
G75*
G02X156110000Y-84860000I2151318J-291471D01*
G01*
D15*
X151210000Y-86960000D02*
X153910000Y-86960000D01*
D18*
X161310000Y-81860000D02*
X159910000Y-81860000D01*
X161310000Y-84360000D02*
X161310000Y-85060000D01*
D12*
X132060000Y-84459999D02*
X132060000Y-83560000D01*
D13*
X132560000Y-86660000D02*
X132560000Y-84860001D01*
D14*
X133690000Y-83160000D02*
X133690000Y-85400000D01*
D15*
X142160000Y-84960000D02*
X140760000Y-84960000D01*
D16*
X141760000Y-82260000D02*
X141760000Y-84760000D01*
D17*
X140460000Y-83460000D02*
X133760000Y-83460000D01*
D11*
X142460000Y-85260000D02*
X142460000Y-84260000D01*
X142460000Y-84260000D02*
X142260000Y-84260000D01*
X142240000Y-84260000D02*
X142240000Y-82010000D01*
X142260000Y-82010000D02*
X142460000Y-82010000D01*
X131960000Y-84560000D02*
X132160000Y-84560000D01*
X132190000Y-84560000D02*
X132190000Y-86800000D01*
X132160000Y-86800000D02*
X131960000Y-86800000D01*
X131960000Y-87160000D02*
X131960000Y-86800000D01*
X131960000Y-83560000D02*
X131960000Y-84560000D01*
X131960000Y-87160000D02*
X135240000Y-87160000D01*
X137460000Y-85260000D02*
X142460000Y-85260000D01*
X142460000Y-81660000D02*
X134059999Y-81660000D01*
X135243682Y-87138529D02*
G75*
G02X137460000Y-85260000I2151318J-291471D01*
G01*
X131960000Y-83560001D02*
G75*
G02X134059999Y-81660000I2000000J-99999D01*
G01*
X142460000Y-82010000D02*
X142460000Y-81660000D01*
D16*
X134843682Y-86738529D02*
G75*
G02X137060000Y-84860000I2151318J-291471D01*
G01*
D15*
X132160000Y-86960000D02*
X134860000Y-86960000D01*
D18*
X142260000Y-81860000D02*
X140860000Y-81860000D01*
X142260000Y-84360000D02*
X142260000Y-85060000D01*
D12*
X113010000Y-84459999D02*
X113010000Y-83560000D01*
D13*
X113510000Y-86660000D02*
X113510000Y-84860001D01*
D14*
X114640000Y-83160000D02*
X114640000Y-85400000D01*
D15*
X123110000Y-84960000D02*
X121710000Y-84960000D01*
D16*
X122710000Y-82260000D02*
X122710000Y-84760000D01*
D17*
X121410000Y-83460000D02*
X114710000Y-83460000D01*
D11*
X123410000Y-85260000D02*
X123410000Y-84260000D01*
X123410000Y-84260000D02*
X123210000Y-84260000D01*
X123190000Y-84260000D02*
X123190000Y-82010000D01*
X123210000Y-82010000D02*
X123410000Y-82010000D01*
X112910000Y-84560000D02*
X113110000Y-84560000D01*
X113140000Y-84560000D02*
X113140000Y-86800000D01*
X113110000Y-86800000D02*
X112910000Y-86800000D01*
X112910000Y-87160000D02*
X112910000Y-86800000D01*
X112910000Y-83560000D02*
X112910000Y-84560000D01*
X112910000Y-87160000D02*
X116190000Y-87160000D01*
X118410000Y-85260000D02*
X123410000Y-85260000D01*
X123410000Y-81660000D02*
X115009999Y-81660000D01*
X116193682Y-87138529D02*
G75*
G02X118410000Y-85260000I2151318J-291471D01*
G01*
X112910000Y-83560001D02*
G75*
G02X115009999Y-81660000I2000000J-99999D01*
G01*
X123410000Y-82010000D02*
X123410000Y-81660000D01*
D16*
X115793682Y-86738529D02*
G75*
G02X118010000Y-84860000I2151318J-291471D01*
G01*
D15*
X113110000Y-86960000D02*
X115810000Y-86960000D01*
D18*
X123210000Y-81860000D02*
X121810000Y-81860000D01*
X123210000Y-84360000D02*
X123210000Y-85060000D01*
D12*
X93960000Y-84459999D02*
X93960000Y-83560000D01*
D13*
X94460000Y-86660000D02*
X94460000Y-84860001D01*
D14*
X95590000Y-83160000D02*
X95590000Y-85400000D01*
D15*
X104060000Y-84960000D02*
X102660000Y-84960000D01*
D16*
X103660000Y-82260000D02*
X103660000Y-84760000D01*
D17*
X102360000Y-83460000D02*
X95660000Y-83460000D01*
D11*
X104360000Y-85260000D02*
X104360000Y-84260000D01*
X104360000Y-84260000D02*
X104160000Y-84260000D01*
X104140000Y-84260000D02*
X104140000Y-82010000D01*
X104160000Y-82010000D02*
X104360000Y-82010000D01*
X93860000Y-84560000D02*
X94060000Y-84560000D01*
X94090000Y-84560000D02*
X94090000Y-86800000D01*
X94060000Y-86800000D02*
X93860000Y-86800000D01*
X93860000Y-87160000D02*
X93860000Y-86800000D01*
X93860000Y-83560000D02*
X93860000Y-84560000D01*
X93860000Y-87160000D02*
X97140000Y-87160000D01*
X99360000Y-85260000D02*
X104360000Y-85260000D01*
X104360000Y-81660000D02*
X95959999Y-81660000D01*
X97143682Y-87138529D02*
G75*
G02X99360000Y-85260000I2151318J-291471D01*
G01*
X93860000Y-83560001D02*
G75*
G02X95959999Y-81660000I2000000J-99999D01*
G01*
X104360000Y-82010000D02*
X104360000Y-81660000D01*
D16*
X96743682Y-86738529D02*
G75*
G02X98960000Y-84860000I2151318J-291471D01*
G01*
D15*
X94060000Y-86960000D02*
X96760000Y-86960000D01*
D18*
X104160000Y-81860000D02*
X102760000Y-81860000D01*
X104160000Y-84360000D02*
X104160000Y-85060000D01*
D12*
X74910000Y-84459999D02*
X74910000Y-83560000D01*
D13*
X75410000Y-86660000D02*
X75410000Y-84860001D01*
D14*
X76540000Y-83160000D02*
X76540000Y-85400000D01*
D15*
X85010000Y-84960000D02*
X83610000Y-84960000D01*
D16*
X84610000Y-82260000D02*
X84610000Y-84760000D01*
D17*
X83310000Y-83460000D02*
X76610000Y-83460000D01*
D11*
X85310000Y-85260000D02*
X85310000Y-84260000D01*
X85310000Y-84260000D02*
X85110000Y-84260000D01*
X85090000Y-84260000D02*
X85090000Y-82010000D01*
X85110000Y-82010000D02*
X85310000Y-82010000D01*
X74810000Y-84560000D02*
X75010000Y-84560000D01*
X75040000Y-84560000D02*
X75040000Y-86800000D01*
X75010000Y-86800000D02*
X74810000Y-86800000D01*
X74810000Y-87160000D02*
X74810000Y-86800000D01*
X74810000Y-83560000D02*
X74810000Y-84560000D01*
X74810000Y-87160000D02*
X78090000Y-87160000D01*
X80310000Y-85260000D02*
X85310000Y-85260000D01*
X85310000Y-81660000D02*
X76909999Y-81660000D01*
X78093682Y-87138529D02*
G75*
G02X80310000Y-85260000I2151318J-291471D01*
G01*
X74810000Y-83560001D02*
G75*
G02X76909999Y-81660000I2000000J-99999D01*
G01*
X85310000Y-82010000D02*
X85310000Y-81660000D01*
D16*
X77693682Y-86738529D02*
G75*
G02X79910000Y-84860000I2151318J-291471D01*
G01*
D15*
X75010000Y-86960000D02*
X77710000Y-86960000D01*
D18*
X85110000Y-81860000D02*
X83710000Y-81860000D01*
X85110000Y-84360000D02*
X85110000Y-85060000D01*
D12*
X55860000Y-84459999D02*
X55860000Y-83560000D01*
D13*
X56360000Y-86660000D02*
X56360000Y-84860001D01*
D14*
X57490000Y-83160000D02*
X57490000Y-85400000D01*
D15*
X65960000Y-84960000D02*
X64560000Y-84960000D01*
D16*
X65560000Y-82260000D02*
X65560000Y-84760000D01*
D17*
X64260000Y-83460000D02*
X57560000Y-83460000D01*
D11*
X66260000Y-85260000D02*
X66260000Y-84260000D01*
X66260000Y-84260000D02*
X66060000Y-84260000D01*
X66040000Y-84260000D02*
X66040000Y-82010000D01*
X66060000Y-82010000D02*
X66260000Y-82010000D01*
X55760000Y-84560000D02*
X55960000Y-84560000D01*
X55990000Y-84560000D02*
X55990000Y-86800000D01*
X55960000Y-86800000D02*
X55760000Y-86800000D01*
X55760000Y-87160000D02*
X55760000Y-86800000D01*
X55760000Y-83560000D02*
X55760000Y-84560000D01*
X55760000Y-87160000D02*
X59040000Y-87160000D01*
X61260000Y-85260000D02*
X66260000Y-85260000D01*
X66260000Y-81660000D02*
X57859999Y-81660000D01*
X59043682Y-87138529D02*
G75*
G02X61260000Y-85260000I2151318J-291471D01*
G01*
X55760000Y-83560001D02*
G75*
G02X57859999Y-81660000I2000000J-99999D01*
G01*
X66260000Y-82010000D02*
X66260000Y-81660000D01*
D16*
X58643682Y-86738529D02*
G75*
G02X60860000Y-84860000I2151318J-291471D01*
G01*
D15*
X55960000Y-86960000D02*
X58660000Y-86960000D01*
D18*
X66060000Y-81860000D02*
X64660000Y-81860000D01*
X66060000Y-84360000D02*
X66060000Y-85060000D01*
D12*
X36810000Y-84459999D02*
X36810000Y-83560000D01*
D13*
X37310000Y-86660000D02*
X37310000Y-84860001D01*
D14*
X38440000Y-83160000D02*
X38440000Y-85400000D01*
D15*
X46910000Y-84960000D02*
X45510000Y-84960000D01*
D16*
X46510000Y-82260000D02*
X46510000Y-84760000D01*
D17*
X45210000Y-83460000D02*
X38510000Y-83460000D01*
D11*
X47210000Y-85260000D02*
X47210000Y-84260000D01*
X47210000Y-84260000D02*
X47010000Y-84260000D01*
X46990000Y-84260000D02*
X46990000Y-82010000D01*
X47010000Y-82010000D02*
X47210000Y-82010000D01*
X36710000Y-84560000D02*
X36910000Y-84560000D01*
X36940000Y-84560000D02*
X36940000Y-86800000D01*
X36910000Y-86800000D02*
X36710000Y-86800000D01*
X36710000Y-87160000D02*
X36710000Y-86800000D01*
X36710000Y-83560000D02*
X36710000Y-84560000D01*
X36710000Y-87160000D02*
X39990000Y-87160000D01*
X42210000Y-85260000D02*
X47210000Y-85260000D01*
X47210000Y-81660000D02*
X38809999Y-81660000D01*
X39993682Y-87138529D02*
G75*
G02X42210000Y-85260000I2151318J-291471D01*
G01*
X36710000Y-83560001D02*
G75*
G02X38809999Y-81660000I2000000J-99999D01*
G01*
X47210000Y-82010000D02*
X47210000Y-81660000D01*
D16*
X39593682Y-86738529D02*
G75*
G02X41810000Y-84860000I2151318J-291471D01*
G01*
D15*
X36910000Y-86960000D02*
X39610000Y-86960000D01*
D18*
X47010000Y-81860000D02*
X45610000Y-81860000D01*
X47010000Y-84360000D02*
X47010000Y-85060000D01*
D11*
X40510000Y-94910000D02*
X40510000Y-95160000D01*
X34510000Y-94910000D02*
X40510000Y-94910000D01*
X34510000Y-95160000D02*
X34510000Y-94910000D01*
X34510000Y-98410000D02*
X34510000Y-98160000D01*
X40510000Y-98410000D02*
X34510000Y-98410000D01*
X40510000Y-98160000D02*
X40510000Y-98410000D01*
X245860000Y-119360000D02*
X247360000Y-119360000D01*
X245860000Y-113960000D02*
X245860000Y-119360000D01*
X247360000Y-113960000D02*
X245860000Y-113960000D01*
X247360000Y-119360000D02*
X247360000Y-113960000D01*
X247110000Y-116160000D02*
X246110000Y-116160000D01*
X246110000Y-117160000D02*
X246610000Y-116260000D01*
X247110000Y-117160000D02*
X246110000Y-117160000D01*
X246610000Y-116260000D02*
X247110000Y-117160000D01*
X244190000Y-128350000D02*
X245690000Y-128350000D01*
X244190000Y-122950000D02*
X244190000Y-128350000D01*
X245690000Y-122950000D02*
X244190000Y-122950000D01*
X245690000Y-128350000D02*
X245690000Y-122950000D01*
X245440000Y-125150000D02*
X244440000Y-125150000D01*
X244440000Y-126150000D02*
X244940000Y-125250000D01*
X245440000Y-126150000D02*
X244440000Y-126150000D01*
X244940000Y-125250000D02*
X245440000Y-126150000D01*
X222760000Y-128450000D02*
X224260000Y-128450000D01*
X222760000Y-123050000D02*
X222760000Y-128450000D01*
X224260000Y-123050000D02*
X222760000Y-123050000D01*
X224260000Y-128450000D02*
X224260000Y-123050000D01*
X224010000Y-125250000D02*
X223010000Y-125250000D01*
X223010000Y-126250000D02*
X223510000Y-125350000D01*
X224010000Y-126250000D02*
X223010000Y-126250000D01*
X223510000Y-125350000D02*
X224010000Y-126250000D01*
X203760000Y-128450000D02*
X205260000Y-128450000D01*
X203760000Y-123050000D02*
X203760000Y-128450000D01*
X205260000Y-123050000D02*
X203760000Y-123050000D01*
X205260000Y-128450000D02*
X205260000Y-123050000D01*
X205010000Y-125250000D02*
X204010000Y-125250000D01*
X204010000Y-126250000D02*
X204510000Y-125350000D01*
X205010000Y-126250000D02*
X204010000Y-126250000D01*
X204510000Y-125350000D02*
X205010000Y-126250000D01*
X184660000Y-128450000D02*
X186160000Y-128450000D01*
X184660000Y-123050000D02*
X184660000Y-128450000D01*
X186160000Y-123050000D02*
X184660000Y-123050000D01*
X186160000Y-128450000D02*
X186160000Y-123050000D01*
X185910000Y-125250000D02*
X184910000Y-125250000D01*
X184910000Y-126250000D02*
X185410000Y-125350000D01*
X185910000Y-126250000D02*
X184910000Y-126250000D01*
X185410000Y-125350000D02*
X185910000Y-126250000D01*
X165660000Y-128550000D02*
X167160000Y-128550000D01*
X165660000Y-123150000D02*
X165660000Y-128550000D01*
X167160000Y-123150000D02*
X165660000Y-123150000D01*
X167160000Y-128550000D02*
X167160000Y-123150000D01*
X166910000Y-125350000D02*
X165910000Y-125350000D01*
X165910000Y-126350000D02*
X166410000Y-125450000D01*
X166910000Y-126350000D02*
X165910000Y-126350000D01*
X166410000Y-125450000D02*
X166910000Y-126350000D01*
X146560000Y-128550000D02*
X148060000Y-128550000D01*
X146560000Y-123150000D02*
X146560000Y-128550000D01*
X148060000Y-123150000D02*
X146560000Y-123150000D01*
X148060000Y-128550000D02*
X148060000Y-123150000D01*
X147810000Y-125350000D02*
X146810000Y-125350000D01*
X146810000Y-126350000D02*
X147310000Y-125450000D01*
X147810000Y-126350000D02*
X146810000Y-126350000D01*
X147310000Y-125450000D02*
X147810000Y-126350000D01*
X127660000Y-128560000D02*
X129160000Y-128560000D01*
X127660000Y-123160000D02*
X127660000Y-128560000D01*
X129160000Y-123160000D02*
X127660000Y-123160000D01*
X129160000Y-128560000D02*
X129160000Y-123160000D01*
X128910000Y-125360000D02*
X127910000Y-125360000D01*
X127910000Y-126360000D02*
X128410000Y-125460000D01*
X128910000Y-126360000D02*
X127910000Y-126360000D01*
X128410000Y-125460000D02*
X128910000Y-126360000D01*
X108560000Y-128550000D02*
X110060000Y-128550000D01*
X108560000Y-123150000D02*
X108560000Y-128550000D01*
X110060000Y-123150000D02*
X108560000Y-123150000D01*
X110060000Y-128550000D02*
X110060000Y-123150000D01*
X109810000Y-125350000D02*
X108810000Y-125350000D01*
X108810000Y-126350000D02*
X109310000Y-125450000D01*
X109810000Y-126350000D02*
X108810000Y-126350000D01*
X109310000Y-125450000D02*
X109810000Y-126350000D01*
X89460000Y-128660000D02*
X90960000Y-128660000D01*
X89460000Y-123260000D02*
X89460000Y-128660000D01*
X90960000Y-123260000D02*
X89460000Y-123260000D01*
X90960000Y-128660000D02*
X90960000Y-123260000D01*
X90710000Y-125460000D02*
X89710000Y-125460000D01*
X89710000Y-126460000D02*
X90210000Y-125560000D01*
X90710000Y-126460000D02*
X89710000Y-126460000D01*
X90210000Y-125560000D02*
X90710000Y-126460000D01*
X70360000Y-128750000D02*
X71860000Y-128750000D01*
X70360000Y-123350000D02*
X70360000Y-128750000D01*
X71860000Y-123350000D02*
X70360000Y-123350000D01*
X71860000Y-128750000D02*
X71860000Y-123350000D01*
X71610000Y-125550000D02*
X70610000Y-125550000D01*
X70610000Y-126550000D02*
X71110000Y-125650000D01*
X71610000Y-126550000D02*
X70610000Y-126550000D01*
X71110000Y-125650000D02*
X71610000Y-126550000D01*
X51360000Y-128550000D02*
X52860000Y-128550000D01*
X51360000Y-123150000D02*
X51360000Y-128550000D01*
X52860000Y-123150000D02*
X51360000Y-123150000D01*
X52860000Y-128550000D02*
X52860000Y-123150000D01*
X52610000Y-125350000D02*
X51610000Y-125350000D01*
X51610000Y-126350000D02*
X52110000Y-125450000D01*
X52610000Y-126350000D02*
X51610000Y-126350000D01*
X52110000Y-125450000D02*
X52610000Y-126350000D01*
X241860000Y-110460000D02*
X243360000Y-110460000D01*
X241860000Y-105060000D02*
X241860000Y-110460000D01*
X243360000Y-105060000D02*
X241860000Y-105060000D01*
X243360000Y-110460000D02*
X243360000Y-105060000D01*
X243110000Y-107260000D02*
X242110000Y-107260000D01*
X242110000Y-108260000D02*
X242610000Y-107360000D01*
X243110000Y-108260000D02*
X242110000Y-108260000D01*
X242610000Y-107360000D02*
X243110000Y-108260000D01*
X222660000Y-110460000D02*
X224160000Y-110460000D01*
X222660000Y-105060000D02*
X222660000Y-110460000D01*
X224160000Y-105060000D02*
X222660000Y-105060000D01*
X224160000Y-110460000D02*
X224160000Y-105060000D01*
X223910000Y-107260000D02*
X222910000Y-107260000D01*
X222910000Y-108260000D02*
X223410000Y-107360000D01*
X223910000Y-108260000D02*
X222910000Y-108260000D01*
X223410000Y-107360000D02*
X223910000Y-108260000D01*
X203860000Y-110360000D02*
X205360000Y-110360000D01*
X203860000Y-104960000D02*
X203860000Y-110360000D01*
X205360000Y-104960000D02*
X203860000Y-104960000D01*
X205360000Y-110360000D02*
X205360000Y-104960000D01*
X205110000Y-107160000D02*
X204110000Y-107160000D01*
X204110000Y-108160000D02*
X204610000Y-107260000D01*
X205110000Y-108160000D02*
X204110000Y-108160000D01*
X204610000Y-107260000D02*
X205110000Y-108160000D01*
X184460000Y-110350000D02*
X185960000Y-110350000D01*
X184460000Y-104950000D02*
X184460000Y-110350000D01*
X185960000Y-104950000D02*
X184460000Y-104950000D01*
X185960000Y-110350000D02*
X185960000Y-104950000D01*
X185710000Y-107150000D02*
X184710000Y-107150000D01*
X184710000Y-108150000D02*
X185210000Y-107250000D01*
X185710000Y-108150000D02*
X184710000Y-108150000D01*
X185210000Y-107250000D02*
X185710000Y-108150000D01*
X165760000Y-110360000D02*
X167260000Y-110360000D01*
X165760000Y-104960000D02*
X165760000Y-110360000D01*
X167260000Y-104960000D02*
X165760000Y-104960000D01*
X167260000Y-110360000D02*
X167260000Y-104960000D01*
X167010000Y-107160000D02*
X166010000Y-107160000D01*
X166010000Y-108160000D02*
X166510000Y-107260000D01*
X167010000Y-108160000D02*
X166010000Y-108160000D01*
X166510000Y-107260000D02*
X167010000Y-108160000D01*
X146560000Y-110350000D02*
X148060000Y-110350000D01*
X146560000Y-104950000D02*
X146560000Y-110350000D01*
X148060000Y-104950000D02*
X146560000Y-104950000D01*
X148060000Y-110350000D02*
X148060000Y-104950000D01*
X147810000Y-107150000D02*
X146810000Y-107150000D01*
X146810000Y-108150000D02*
X147310000Y-107250000D01*
X147810000Y-108150000D02*
X146810000Y-108150000D01*
X147310000Y-107250000D02*
X147810000Y-108150000D01*
X127560000Y-110250000D02*
X129060000Y-110250000D01*
X127560000Y-104850000D02*
X127560000Y-110250000D01*
X129060000Y-104850000D02*
X127560000Y-104850000D01*
X129060000Y-110250000D02*
X129060000Y-104850000D01*
X128810000Y-107050000D02*
X127810000Y-107050000D01*
X127810000Y-108050000D02*
X128310000Y-107150000D01*
X128810000Y-108050000D02*
X127810000Y-108050000D01*
X128310000Y-107150000D02*
X128810000Y-108050000D01*
X108560000Y-110160000D02*
X110060000Y-110160000D01*
X108560000Y-104760000D02*
X108560000Y-110160000D01*
X110060000Y-104760000D02*
X108560000Y-104760000D01*
X110060000Y-110160000D02*
X110060000Y-104760000D01*
X109810000Y-106960000D02*
X108810000Y-106960000D01*
X108810000Y-107960000D02*
X109310000Y-107060000D01*
X109810000Y-107960000D02*
X108810000Y-107960000D01*
X109310000Y-107060000D02*
X109810000Y-107960000D01*
X89460000Y-110260000D02*
X90960000Y-110260000D01*
X89460000Y-104860000D02*
X89460000Y-110260000D01*
X90960000Y-104860000D02*
X89460000Y-104860000D01*
X90960000Y-110260000D02*
X90960000Y-104860000D01*
X90710000Y-107060000D02*
X89710000Y-107060000D01*
X89710000Y-108060000D02*
X90210000Y-107160000D01*
X90710000Y-108060000D02*
X89710000Y-108060000D01*
X90210000Y-107160000D02*
X90710000Y-108060000D01*
X70460000Y-110360000D02*
X71960000Y-110360000D01*
X70460000Y-104960000D02*
X70460000Y-110360000D01*
X71960000Y-104960000D02*
X70460000Y-104960000D01*
X71960000Y-110360000D02*
X71960000Y-104960000D01*
X71710000Y-107160000D02*
X70710000Y-107160000D01*
X70710000Y-108160000D02*
X71210000Y-107260000D01*
X71710000Y-108160000D02*
X70710000Y-108160000D01*
X71210000Y-107260000D02*
X71710000Y-108160000D01*
X45200000Y-118410000D02*
X45200000Y-116910000D01*
X39800000Y-118410000D02*
X45200000Y-118410000D01*
X39800000Y-116910000D02*
X39800000Y-118410000D01*
X45200000Y-116910000D02*
X39800000Y-116910000D01*
X42000000Y-117160000D02*
X42000000Y-118160000D01*
X43000000Y-118160000D02*
X42100000Y-117660000D01*
X43000000Y-117160000D02*
X43000000Y-118160000D01*
X42100000Y-117660000D02*
X43000000Y-117160000D01*
X265860000Y-91170000D02*
X267360000Y-91170000D01*
X265860000Y-85770000D02*
X265860000Y-91170000D01*
X267360000Y-85770000D02*
X265860000Y-85770000D01*
X267360000Y-91170000D02*
X267360000Y-85770000D01*
X267110000Y-87970000D02*
X266110000Y-87970000D01*
X266110000Y-88970000D02*
X266610000Y-88070000D01*
X267110000Y-88970000D02*
X266110000Y-88970000D01*
X266610000Y-88070000D02*
X267110000Y-88970000D01*
X241960000Y-91160000D02*
X243460000Y-91160000D01*
X241960000Y-85760000D02*
X241960000Y-91160000D01*
X243460000Y-85760000D02*
X241960000Y-85760000D01*
X243460000Y-91160000D02*
X243460000Y-85760000D01*
X243210000Y-87960000D02*
X242210000Y-87960000D01*
X242210000Y-88960000D02*
X242710000Y-88060000D01*
X243210000Y-88960000D02*
X242210000Y-88960000D01*
X242710000Y-88060000D02*
X243210000Y-88960000D01*
X222860000Y-91060000D02*
X224360000Y-91060000D01*
X222860000Y-85660000D02*
X222860000Y-91060000D01*
X224360000Y-85660000D02*
X222860000Y-85660000D01*
X224360000Y-91060000D02*
X224360000Y-85660000D01*
X224110000Y-87860000D02*
X223110000Y-87860000D01*
X223110000Y-88860000D02*
X223610000Y-87960000D01*
X224110000Y-88860000D02*
X223110000Y-88860000D01*
X223610000Y-87960000D02*
X224110000Y-88860000D01*
X203660000Y-90950000D02*
X205160000Y-90950000D01*
X203660000Y-85550000D02*
X203660000Y-90950000D01*
X205160000Y-85550000D02*
X203660000Y-85550000D01*
X205160000Y-90950000D02*
X205160000Y-85550000D01*
X204910000Y-87750000D02*
X203910000Y-87750000D01*
X203910000Y-88750000D02*
X204410000Y-87850000D01*
X204910000Y-88750000D02*
X203910000Y-88750000D01*
X204410000Y-87850000D02*
X204910000Y-88750000D01*
X184660000Y-90850000D02*
X186160000Y-90850000D01*
X184660000Y-85450000D02*
X184660000Y-90850000D01*
X186160000Y-85450000D02*
X184660000Y-85450000D01*
X186160000Y-90850000D02*
X186160000Y-85450000D01*
X185910000Y-87650000D02*
X184910000Y-87650000D01*
X184910000Y-88650000D02*
X185410000Y-87750000D01*
X185910000Y-88650000D02*
X184910000Y-88650000D01*
X185410000Y-87750000D02*
X185910000Y-88650000D01*
X165660000Y-90850000D02*
X167160000Y-90850000D01*
X165660000Y-85450000D02*
X165660000Y-90850000D01*
X167160000Y-85450000D02*
X165660000Y-85450000D01*
X167160000Y-90850000D02*
X167160000Y-85450000D01*
X166910000Y-87650000D02*
X165910000Y-87650000D01*
X165910000Y-88650000D02*
X166410000Y-87750000D01*
X166910000Y-88650000D02*
X165910000Y-88650000D01*
X166410000Y-87750000D02*
X166910000Y-88650000D01*
X146660000Y-91260000D02*
X148160000Y-91260000D01*
X146660000Y-85860000D02*
X146660000Y-91260000D01*
X148160000Y-85860000D02*
X146660000Y-85860000D01*
X148160000Y-91260000D02*
X148160000Y-85860000D01*
X147910000Y-88060000D02*
X146910000Y-88060000D01*
X146910000Y-89060000D02*
X147410000Y-88160000D01*
X147910000Y-89060000D02*
X146910000Y-89060000D01*
X147410000Y-88160000D02*
X147910000Y-89060000D01*
X127360000Y-90850000D02*
X128860000Y-90850000D01*
X127360000Y-85450000D02*
X127360000Y-90850000D01*
X128860000Y-85450000D02*
X127360000Y-85450000D01*
X128860000Y-90850000D02*
X128860000Y-85450000D01*
X128610000Y-87650000D02*
X127610000Y-87650000D01*
X127610000Y-88650000D02*
X128110000Y-87750000D01*
X128610000Y-88650000D02*
X127610000Y-88650000D01*
X128110000Y-87750000D02*
X128610000Y-88650000D01*
X108560000Y-90960000D02*
X110060000Y-90960000D01*
X108560000Y-85560000D02*
X108560000Y-90960000D01*
X110060000Y-85560000D02*
X108560000Y-85560000D01*
X110060000Y-90960000D02*
X110060000Y-85560000D01*
X109810000Y-87760000D02*
X108810000Y-87760000D01*
X108810000Y-88760000D02*
X109310000Y-87860000D01*
X109810000Y-88760000D02*
X108810000Y-88760000D01*
X109310000Y-87860000D02*
X109810000Y-88760000D01*
X89460000Y-90970000D02*
X90960000Y-90970000D01*
X89460000Y-85570000D02*
X89460000Y-90970000D01*
X90960000Y-85570000D02*
X89460000Y-85570000D01*
X90960000Y-90970000D02*
X90960000Y-85570000D01*
X90710000Y-87770000D02*
X89710000Y-87770000D01*
X89710000Y-88770000D02*
X90210000Y-87870000D01*
X90710000Y-88770000D02*
X89710000Y-88770000D01*
X90210000Y-87870000D02*
X90710000Y-88770000D01*
X70410000Y-91010000D02*
X71910000Y-91010000D01*
X70410000Y-85610000D02*
X70410000Y-91010000D01*
X71910000Y-85610000D02*
X70410000Y-85610000D01*
X71910000Y-91010000D02*
X71910000Y-85610000D01*
X71660000Y-87810000D02*
X70660000Y-87810000D01*
X70660000Y-88810000D02*
X71160000Y-87910000D01*
X71660000Y-88810000D02*
X70660000Y-88810000D01*
X71160000Y-87910000D02*
X71660000Y-88810000D01*
X51370000Y-91080000D02*
X52870000Y-91080000D01*
X51370000Y-85680000D02*
X51370000Y-91080000D01*
X52870000Y-85680000D02*
X51370000Y-85680000D01*
X52870000Y-91080000D02*
X52870000Y-85680000D01*
X52620000Y-87880000D02*
X51620000Y-87880000D01*
X51620000Y-88880000D02*
X52120000Y-87980000D01*
X52620000Y-88880000D02*
X51620000Y-88880000D01*
X52120000Y-87980000D02*
X52620000Y-88880000D01*
D19*
X37948714Y-102766219D02*
X38305857Y-102989552D01*
X37948714Y-103149076D02*
X38698714Y-103149076D01*
X38698714Y-102893838D01*
X38663000Y-102830028D01*
X38627285Y-102798123D01*
X38555857Y-102766219D01*
X38448714Y-102766219D01*
X38377285Y-102798123D01*
X38341571Y-102830028D01*
X38305857Y-102893838D01*
X38305857Y-103149076D01*
X38163000Y-102510980D02*
X38163000Y-102191933D01*
X37948714Y-102574790D02*
X38698714Y-102351457D01*
X37948714Y-102128123D01*
X38698714Y-101968600D02*
X37948714Y-101809076D01*
X38484428Y-101681457D01*
X37948714Y-101553838D01*
X38698714Y-101394314D01*
X41213000Y-102814076D02*
X41248714Y-102877885D01*
X41248714Y-102973600D01*
X41213000Y-103069314D01*
X41141571Y-103133123D01*
X41070142Y-103165028D01*
X40927285Y-103196933D01*
X40820142Y-103196933D01*
X40677285Y-103165028D01*
X40605857Y-103133123D01*
X40534428Y-103069314D01*
X40498714Y-102973600D01*
X40498714Y-102909790D01*
X40534428Y-102814076D01*
X40570142Y-102782171D01*
X40820142Y-102782171D01*
X40820142Y-102909790D01*
X40498714Y-102495028D02*
X41248714Y-102495028D01*
X40498714Y-102112171D01*
X41248714Y-102112171D01*
X40498714Y-101793123D02*
X41248714Y-101793123D01*
X41248714Y-101633600D01*
X41213000Y-101537885D01*
X41141571Y-101474076D01*
X41070142Y-101442171D01*
X40927285Y-101410266D01*
X40820142Y-101410266D01*
X40677285Y-101442171D01*
X40605857Y-101474076D01*
X40534428Y-101537885D01*
X40498714Y-101633600D01*
X40498714Y-101793123D01*
X43048714Y-102670504D02*
X43405857Y-102893838D01*
X43048714Y-103053361D02*
X43798714Y-103053361D01*
X43798714Y-102798123D01*
X43763000Y-102734314D01*
X43727285Y-102702409D01*
X43655857Y-102670504D01*
X43548714Y-102670504D01*
X43477285Y-102702409D01*
X43441571Y-102734314D01*
X43405857Y-102798123D01*
X43405857Y-103053361D01*
X43084428Y-102415266D02*
X43048714Y-102319552D01*
X43048714Y-102160028D01*
X43084428Y-102096219D01*
X43120142Y-102064314D01*
X43191571Y-102032409D01*
X43263000Y-102032409D01*
X43334428Y-102064314D01*
X43370142Y-102096219D01*
X43405857Y-102160028D01*
X43441571Y-102287647D01*
X43477285Y-102351457D01*
X43513000Y-102383361D01*
X43584428Y-102415266D01*
X43655857Y-102415266D01*
X43727285Y-102383361D01*
X43763000Y-102351457D01*
X43798714Y-102287647D01*
X43798714Y-102128123D01*
X43763000Y-102032409D01*
X43798714Y-101840980D02*
X43798714Y-101458123D01*
X43048714Y-101649552D02*
X43798714Y-101649552D01*
X46248714Y-103196933D02*
X45498714Y-102973600D01*
X46248714Y-102750266D01*
X45570142Y-102144076D02*
X45534428Y-102175980D01*
X45498714Y-102271695D01*
X45498714Y-102335504D01*
X45534428Y-102431219D01*
X45605857Y-102495028D01*
X45677285Y-102526933D01*
X45820142Y-102558838D01*
X45927285Y-102558838D01*
X46070142Y-102526933D01*
X46141571Y-102495028D01*
X46213000Y-102431219D01*
X46248714Y-102335504D01*
X46248714Y-102271695D01*
X46213000Y-102175980D01*
X46177285Y-102144076D01*
X45570142Y-101474076D02*
X45534428Y-101505980D01*
X45498714Y-101601695D01*
X45498714Y-101665504D01*
X45534428Y-101761219D01*
X45605857Y-101825028D01*
X45677285Y-101856933D01*
X45820142Y-101888838D01*
X45927285Y-101888838D01*
X46070142Y-101856933D01*
X46141571Y-101825028D01*
X46213000Y-101761219D01*
X46248714Y-101665504D01*
X46248714Y-101601695D01*
X46213000Y-101505980D01*
X46177285Y-101474076D01*
X48413000Y-104339314D02*
X48413000Y-104020266D01*
X48198714Y-104403123D02*
X48948714Y-104179790D01*
X48198714Y-103956457D01*
X48948714Y-103796933D02*
X48948714Y-103382171D01*
X48663000Y-103605504D01*
X48663000Y-103509790D01*
X48627285Y-103445980D01*
X48591571Y-103414076D01*
X48520142Y-103382171D01*
X48341571Y-103382171D01*
X48270142Y-103414076D01*
X48234428Y-103445980D01*
X48198714Y-103509790D01*
X48198714Y-103701219D01*
X48234428Y-103765028D01*
X48270142Y-103796933D01*
X48984428Y-102616457D02*
X48020142Y-103190742D01*
X48591571Y-102169790D02*
X48591571Y-102393123D01*
X48198714Y-102393123D02*
X48948714Y-102393123D01*
X48948714Y-102074076D01*
X48698714Y-101531695D02*
X48198714Y-101531695D01*
X48984428Y-101691219D02*
X48448714Y-101850742D01*
X48448714Y-101435980D01*
X50913000Y-104339314D02*
X50913000Y-104020266D01*
X50698714Y-104403123D02*
X51448714Y-104179790D01*
X50698714Y-103956457D01*
X51377285Y-103765028D02*
X51413000Y-103733123D01*
X51448714Y-103669314D01*
X51448714Y-103509790D01*
X51413000Y-103445980D01*
X51377285Y-103414076D01*
X51305857Y-103382171D01*
X51234428Y-103382171D01*
X51127285Y-103414076D01*
X50698714Y-103796933D01*
X50698714Y-103382171D01*
X51484428Y-102616457D02*
X50520142Y-103190742D01*
X51091571Y-102169790D02*
X51091571Y-102393123D01*
X50698714Y-102393123D02*
X51448714Y-102393123D01*
X51448714Y-102074076D01*
X51448714Y-101499790D02*
X51448714Y-101818838D01*
X51091571Y-101850742D01*
X51127285Y-101818838D01*
X51163000Y-101755028D01*
X51163000Y-101595504D01*
X51127285Y-101531695D01*
X51091571Y-101499790D01*
X51020142Y-101467885D01*
X50841571Y-101467885D01*
X50770142Y-101499790D01*
X50734428Y-101531695D01*
X50698714Y-101595504D01*
X50698714Y-101755028D01*
X50734428Y-101818838D01*
X50770142Y-101850742D01*
X53413000Y-104339314D02*
X53413000Y-104020266D01*
X53198714Y-104403123D02*
X53948714Y-104179790D01*
X53198714Y-103956457D01*
X53198714Y-103382171D02*
X53198714Y-103765028D01*
X53198714Y-103573600D02*
X53948714Y-103573600D01*
X53841571Y-103637409D01*
X53770142Y-103701219D01*
X53734428Y-103765028D01*
X53984428Y-102616457D02*
X53020142Y-103190742D01*
X53591571Y-102169790D02*
X53591571Y-102393123D01*
X53198714Y-102393123D02*
X53948714Y-102393123D01*
X53948714Y-102074076D01*
X53948714Y-101531695D02*
X53948714Y-101659314D01*
X53913000Y-101723123D01*
X53877285Y-101755028D01*
X53770142Y-101818838D01*
X53627285Y-101850742D01*
X53341571Y-101850742D01*
X53270142Y-101818838D01*
X53234428Y-101786933D01*
X53198714Y-101723123D01*
X53198714Y-101595504D01*
X53234428Y-101531695D01*
X53270142Y-101499790D01*
X53341571Y-101467885D01*
X53520142Y-101467885D01*
X53591571Y-101499790D01*
X53627285Y-101531695D01*
X53663000Y-101595504D01*
X53663000Y-101723123D01*
X53627285Y-101786933D01*
X53591571Y-101818838D01*
X53520142Y-101850742D01*
X55963000Y-104339314D02*
X55963000Y-104020266D01*
X55748714Y-104403123D02*
X56498714Y-104179790D01*
X55748714Y-103956457D01*
X56498714Y-103605504D02*
X56498714Y-103541695D01*
X56463000Y-103477885D01*
X56427285Y-103445980D01*
X56355857Y-103414076D01*
X56213000Y-103382171D01*
X56034428Y-103382171D01*
X55891571Y-103414076D01*
X55820142Y-103445980D01*
X55784428Y-103477885D01*
X55748714Y-103541695D01*
X55748714Y-103605504D01*
X55784428Y-103669314D01*
X55820142Y-103701219D01*
X55891571Y-103733123D01*
X56034428Y-103765028D01*
X56213000Y-103765028D01*
X56355857Y-103733123D01*
X56427285Y-103701219D01*
X56463000Y-103669314D01*
X56498714Y-103605504D01*
X56534428Y-102616457D02*
X55570142Y-103190742D01*
X56141571Y-102169790D02*
X56141571Y-102393123D01*
X55748714Y-102393123D02*
X56498714Y-102393123D01*
X56498714Y-102074076D01*
X56498714Y-101882647D02*
X56498714Y-101435980D01*
X55748714Y-101723123D01*
X58298714Y-104036219D02*
X58298714Y-104419076D01*
X58298714Y-104227647D02*
X59048714Y-104227647D01*
X58941571Y-104291457D01*
X58870142Y-104355266D01*
X58834428Y-104419076D01*
X59048714Y-103430028D02*
X59048714Y-103749076D01*
X58691571Y-103780980D01*
X58727285Y-103749076D01*
X58763000Y-103685266D01*
X58763000Y-103525742D01*
X58727285Y-103461933D01*
X58691571Y-103430028D01*
X58620142Y-103398123D01*
X58441571Y-103398123D01*
X58370142Y-103430028D01*
X58334428Y-103461933D01*
X58298714Y-103525742D01*
X58298714Y-103685266D01*
X58334428Y-103749076D01*
X58370142Y-103780980D01*
X59084428Y-102632409D02*
X58120142Y-103206695D01*
X58691571Y-102185742D02*
X58655857Y-102090028D01*
X58620142Y-102058123D01*
X58548714Y-102026219D01*
X58441571Y-102026219D01*
X58370142Y-102058123D01*
X58334428Y-102090028D01*
X58298714Y-102153838D01*
X58298714Y-102409076D01*
X59048714Y-102409076D01*
X59048714Y-102185742D01*
X59013000Y-102121933D01*
X58977285Y-102090028D01*
X58905857Y-102058123D01*
X58834428Y-102058123D01*
X58763000Y-102090028D01*
X58727285Y-102121933D01*
X58691571Y-102185742D01*
X58691571Y-102409076D01*
X58298714Y-101388123D02*
X58298714Y-101770980D01*
X58298714Y-101579552D02*
X59048714Y-101579552D01*
X58941571Y-101643361D01*
X58870142Y-101707171D01*
X58834428Y-101770980D01*
X60848714Y-104036219D02*
X60848714Y-104419076D01*
X60848714Y-104227647D02*
X61598714Y-104227647D01*
X61491571Y-104291457D01*
X61420142Y-104355266D01*
X61384428Y-104419076D01*
X61348714Y-103461933D02*
X60848714Y-103461933D01*
X61634428Y-103621457D02*
X61098714Y-103780980D01*
X61098714Y-103366219D01*
X61634428Y-102632409D02*
X60670142Y-103206695D01*
X61241571Y-102185742D02*
X61205857Y-102090028D01*
X61170142Y-102058123D01*
X61098714Y-102026219D01*
X60991571Y-102026219D01*
X60920142Y-102058123D01*
X60884428Y-102090028D01*
X60848714Y-102153838D01*
X60848714Y-102409076D01*
X61598714Y-102409076D01*
X61598714Y-102185742D01*
X61563000Y-102121933D01*
X61527285Y-102090028D01*
X61455857Y-102058123D01*
X61384428Y-102058123D01*
X61313000Y-102090028D01*
X61277285Y-102121933D01*
X61241571Y-102185742D01*
X61241571Y-102409076D01*
X61598714Y-101802885D02*
X61598714Y-101388123D01*
X61313000Y-101611457D01*
X61313000Y-101515742D01*
X61277285Y-101451933D01*
X61241571Y-101420028D01*
X61170142Y-101388123D01*
X60991571Y-101388123D01*
X60920142Y-101420028D01*
X60884428Y-101451933D01*
X60848714Y-101515742D01*
X60848714Y-101707171D01*
X60884428Y-101770980D01*
X60920142Y-101802885D01*
X65898714Y-104036219D02*
X65898714Y-104419076D01*
X65898714Y-104227647D02*
X66648714Y-104227647D01*
X66541571Y-104291457D01*
X66470142Y-104355266D01*
X66434428Y-104419076D01*
X66648714Y-103621457D02*
X66648714Y-103557647D01*
X66613000Y-103493838D01*
X66577285Y-103461933D01*
X66505857Y-103430028D01*
X66363000Y-103398123D01*
X66184428Y-103398123D01*
X66041571Y-103430028D01*
X65970142Y-103461933D01*
X65934428Y-103493838D01*
X65898714Y-103557647D01*
X65898714Y-103621457D01*
X65934428Y-103685266D01*
X65970142Y-103717171D01*
X66041571Y-103749076D01*
X66184428Y-103780980D01*
X66363000Y-103780980D01*
X66505857Y-103749076D01*
X66577285Y-103717171D01*
X66613000Y-103685266D01*
X66648714Y-103621457D01*
X66684428Y-102632409D02*
X65720142Y-103206695D01*
X66291571Y-102185742D02*
X66255857Y-102090028D01*
X66220142Y-102058123D01*
X66148714Y-102026219D01*
X66041571Y-102026219D01*
X65970142Y-102058123D01*
X65934428Y-102090028D01*
X65898714Y-102153838D01*
X65898714Y-102409076D01*
X66648714Y-102409076D01*
X66648714Y-102185742D01*
X66613000Y-102121933D01*
X66577285Y-102090028D01*
X66505857Y-102058123D01*
X66434428Y-102058123D01*
X66363000Y-102090028D01*
X66327285Y-102121933D01*
X66291571Y-102185742D01*
X66291571Y-102409076D01*
X66648714Y-101451933D02*
X66648714Y-101579552D01*
X66613000Y-101643361D01*
X66577285Y-101675266D01*
X66470142Y-101739076D01*
X66327285Y-101770980D01*
X66041571Y-101770980D01*
X65970142Y-101739076D01*
X65934428Y-101707171D01*
X65898714Y-101643361D01*
X65898714Y-101515742D01*
X65934428Y-101451933D01*
X65970142Y-101420028D01*
X66041571Y-101388123D01*
X66220142Y-101388123D01*
X66291571Y-101420028D01*
X66327285Y-101451933D01*
X66363000Y-101515742D01*
X66363000Y-101643361D01*
X66327285Y-101707171D01*
X66291571Y-101739076D01*
X66220142Y-101770980D01*
X63398714Y-104036219D02*
X63398714Y-104419076D01*
X63398714Y-104227647D02*
X64148714Y-104227647D01*
X64041571Y-104291457D01*
X63970142Y-104355266D01*
X63934428Y-104419076D01*
X64148714Y-103461933D02*
X64148714Y-103589552D01*
X64113000Y-103653361D01*
X64077285Y-103685266D01*
X63970142Y-103749076D01*
X63827285Y-103780980D01*
X63541571Y-103780980D01*
X63470142Y-103749076D01*
X63434428Y-103717171D01*
X63398714Y-103653361D01*
X63398714Y-103525742D01*
X63434428Y-103461933D01*
X63470142Y-103430028D01*
X63541571Y-103398123D01*
X63720142Y-103398123D01*
X63791571Y-103430028D01*
X63827285Y-103461933D01*
X63863000Y-103525742D01*
X63863000Y-103653361D01*
X63827285Y-103717171D01*
X63791571Y-103749076D01*
X63720142Y-103780980D01*
X64184428Y-102632409D02*
X63220142Y-103206695D01*
X63791571Y-102185742D02*
X63755857Y-102090028D01*
X63720142Y-102058123D01*
X63648714Y-102026219D01*
X63541571Y-102026219D01*
X63470142Y-102058123D01*
X63434428Y-102090028D01*
X63398714Y-102153838D01*
X63398714Y-102409076D01*
X64148714Y-102409076D01*
X64148714Y-102185742D01*
X64113000Y-102121933D01*
X64077285Y-102090028D01*
X64005857Y-102058123D01*
X63934428Y-102058123D01*
X63863000Y-102090028D01*
X63827285Y-102121933D01*
X63791571Y-102185742D01*
X63791571Y-102409076D01*
X64077285Y-101770980D02*
X64113000Y-101739076D01*
X64148714Y-101675266D01*
X64148714Y-101515742D01*
X64113000Y-101451933D01*
X64077285Y-101420028D01*
X64005857Y-101388123D01*
X63934428Y-101388123D01*
X63827285Y-101420028D01*
X63398714Y-101802885D01*
X63398714Y-101388123D01*
X61091571Y-113136219D02*
X61091571Y-112912885D01*
X60698714Y-112817171D02*
X60698714Y-113136219D01*
X61448714Y-113136219D01*
X61448714Y-112817171D01*
X61448714Y-112242885D02*
X61448714Y-112370504D01*
X61413000Y-112434314D01*
X61377285Y-112466219D01*
X61270142Y-112530028D01*
X61127285Y-112561933D01*
X60841571Y-112561933D01*
X60770142Y-112530028D01*
X60734428Y-112498123D01*
X60698714Y-112434314D01*
X60698714Y-112306695D01*
X60734428Y-112242885D01*
X60770142Y-112210980D01*
X60841571Y-112179076D01*
X61020142Y-112179076D01*
X61091571Y-112210980D01*
X61127285Y-112242885D01*
X61163000Y-112306695D01*
X61163000Y-112434314D01*
X61127285Y-112498123D01*
X61091571Y-112530028D01*
X61020142Y-112561933D01*
X61484428Y-111413361D02*
X60520142Y-111987647D01*
X61448714Y-111253838D02*
X61448714Y-110807171D01*
X60698714Y-111094314D01*
X58148714Y-113168123D02*
X58898714Y-113168123D01*
X58898714Y-113008600D01*
X58863000Y-112912885D01*
X58791571Y-112849076D01*
X58720142Y-112817171D01*
X58577285Y-112785266D01*
X58470142Y-112785266D01*
X58327285Y-112817171D01*
X58255857Y-112849076D01*
X58184428Y-112912885D01*
X58148714Y-113008600D01*
X58148714Y-113168123D01*
X58898714Y-112561933D02*
X58898714Y-112115266D01*
X58148714Y-112402409D01*
X58934428Y-111381457D02*
X57970142Y-111955742D01*
X58898714Y-110870980D02*
X58898714Y-110998600D01*
X58863000Y-111062409D01*
X58827285Y-111094314D01*
X58720142Y-111158123D01*
X58577285Y-111190028D01*
X58291571Y-111190028D01*
X58220142Y-111158123D01*
X58184428Y-111126219D01*
X58148714Y-111062409D01*
X58148714Y-110934790D01*
X58184428Y-110870980D01*
X58220142Y-110839076D01*
X58291571Y-110807171D01*
X58470142Y-110807171D01*
X58541571Y-110839076D01*
X58577285Y-110870980D01*
X58613000Y-110934790D01*
X58613000Y-111062409D01*
X58577285Y-111126219D01*
X58541571Y-111158123D01*
X58470142Y-111190028D01*
X43813000Y-112764076D02*
X43848714Y-112827885D01*
X43848714Y-112923600D01*
X43813000Y-113019314D01*
X43741571Y-113083123D01*
X43670142Y-113115028D01*
X43527285Y-113146933D01*
X43420142Y-113146933D01*
X43277285Y-113115028D01*
X43205857Y-113083123D01*
X43134428Y-113019314D01*
X43098714Y-112923600D01*
X43098714Y-112859790D01*
X43134428Y-112764076D01*
X43170142Y-112732171D01*
X43420142Y-112732171D01*
X43420142Y-112859790D01*
X43098714Y-112445028D02*
X43848714Y-112445028D01*
X43098714Y-112062171D01*
X43848714Y-112062171D01*
X43098714Y-111743123D02*
X43848714Y-111743123D01*
X43848714Y-111583600D01*
X43813000Y-111487885D01*
X43741571Y-111424076D01*
X43670142Y-111392171D01*
X43527285Y-111360266D01*
X43420142Y-111360266D01*
X43277285Y-111392171D01*
X43205857Y-111424076D01*
X43134428Y-111487885D01*
X43098714Y-111583600D01*
X43098714Y-111743123D01*
X46263000Y-112764076D02*
X46298714Y-112827885D01*
X46298714Y-112923600D01*
X46263000Y-113019314D01*
X46191571Y-113083123D01*
X46120142Y-113115028D01*
X45977285Y-113146933D01*
X45870142Y-113146933D01*
X45727285Y-113115028D01*
X45655857Y-113083123D01*
X45584428Y-113019314D01*
X45548714Y-112923600D01*
X45548714Y-112859790D01*
X45584428Y-112764076D01*
X45620142Y-112732171D01*
X45870142Y-112732171D01*
X45870142Y-112859790D01*
X45548714Y-112445028D02*
X46298714Y-112445028D01*
X45548714Y-112062171D01*
X46298714Y-112062171D01*
X45548714Y-111743123D02*
X46298714Y-111743123D01*
X46298714Y-111583600D01*
X46263000Y-111487885D01*
X46191571Y-111424076D01*
X46120142Y-111392171D01*
X45977285Y-111360266D01*
X45870142Y-111360266D01*
X45727285Y-111392171D01*
X45655857Y-111424076D01*
X45584428Y-111487885D01*
X45548714Y-111583600D01*
X45548714Y-111743123D01*
X37998714Y-113192409D02*
X38748714Y-113192409D01*
X38748714Y-113032885D01*
X38713000Y-112937171D01*
X38641571Y-112873361D01*
X38570142Y-112841457D01*
X38427285Y-112809552D01*
X38320142Y-112809552D01*
X38177285Y-112841457D01*
X38105857Y-112873361D01*
X38034428Y-112937171D01*
X37998714Y-113032885D01*
X37998714Y-113192409D01*
X38748714Y-112586219D02*
X38748714Y-112171457D01*
X38463000Y-112394790D01*
X38463000Y-112299076D01*
X38427285Y-112235266D01*
X38391571Y-112203361D01*
X38320142Y-112171457D01*
X38141571Y-112171457D01*
X38070142Y-112203361D01*
X38034428Y-112235266D01*
X37998714Y-112299076D01*
X37998714Y-112490504D01*
X38034428Y-112554314D01*
X38070142Y-112586219D01*
X38784428Y-111405742D02*
X37820142Y-111980028D01*
X38748714Y-111278123D02*
X38748714Y-110895266D01*
X37998714Y-111086695D02*
X38748714Y-111086695D01*
X38748714Y-110735742D02*
X37998714Y-110289076D01*
X38748714Y-110289076D02*
X37998714Y-110735742D01*
X38748714Y-109906219D02*
X38748714Y-109842409D01*
X38713000Y-109778600D01*
X38677285Y-109746695D01*
X38605857Y-109714790D01*
X38463000Y-109682885D01*
X38284428Y-109682885D01*
X38141571Y-109714790D01*
X38070142Y-109746695D01*
X38034428Y-109778600D01*
X37998714Y-109842409D01*
X37998714Y-109906219D01*
X38034428Y-109970028D01*
X38070142Y-110001933D01*
X38141571Y-110033838D01*
X38284428Y-110065742D01*
X38463000Y-110065742D01*
X38605857Y-110033838D01*
X38677285Y-110001933D01*
X38713000Y-109970028D01*
X38748714Y-109906219D01*
X53048714Y-113168123D02*
X53798714Y-113168123D01*
X53798714Y-113008600D01*
X53763000Y-112912885D01*
X53691571Y-112849076D01*
X53620142Y-112817171D01*
X53477285Y-112785266D01*
X53370142Y-112785266D01*
X53227285Y-112817171D01*
X53155857Y-112849076D01*
X53084428Y-112912885D01*
X53048714Y-113008600D01*
X53048714Y-113168123D01*
X53548714Y-112210980D02*
X53048714Y-112210980D01*
X53834428Y-112370504D02*
X53298714Y-112530028D01*
X53298714Y-112115266D01*
X53834428Y-111381457D02*
X52870142Y-111955742D01*
X53548714Y-110870980D02*
X53048714Y-110870980D01*
X53834428Y-111030504D02*
X53298714Y-111190028D01*
X53298714Y-110775266D01*
X48084428Y-113242171D02*
X48048714Y-113146457D01*
X48048714Y-112986933D01*
X48084428Y-112923123D01*
X48120142Y-112891219D01*
X48191571Y-112859314D01*
X48263000Y-112859314D01*
X48334428Y-112891219D01*
X48370142Y-112923123D01*
X48405857Y-112986933D01*
X48441571Y-113114552D01*
X48477285Y-113178361D01*
X48513000Y-113210266D01*
X48584428Y-113242171D01*
X48655857Y-113242171D01*
X48727285Y-113210266D01*
X48763000Y-113178361D01*
X48798714Y-113114552D01*
X48798714Y-112955028D01*
X48763000Y-112859314D01*
X48048714Y-112572171D02*
X48798714Y-112572171D01*
X48798714Y-112412647D01*
X48763000Y-112316933D01*
X48691571Y-112253123D01*
X48620142Y-112221219D01*
X48477285Y-112189314D01*
X48370142Y-112189314D01*
X48227285Y-112221219D01*
X48155857Y-112253123D01*
X48084428Y-112316933D01*
X48048714Y-112412647D01*
X48048714Y-112572171D01*
X48263000Y-111934076D02*
X48263000Y-111615028D01*
X48048714Y-111997885D02*
X48798714Y-111774552D01*
X48048714Y-111551219D01*
X48834428Y-110849314D02*
X47870142Y-111423600D01*
X48048714Y-110625980D02*
X48798714Y-110625980D01*
X48798714Y-110466457D01*
X48763000Y-110370742D01*
X48691571Y-110306933D01*
X48620142Y-110275028D01*
X48477285Y-110243123D01*
X48370142Y-110243123D01*
X48227285Y-110275028D01*
X48155857Y-110306933D01*
X48084428Y-110370742D01*
X48048714Y-110466457D01*
X48048714Y-110625980D01*
X48048714Y-109605028D02*
X48048714Y-109987885D01*
X48048714Y-109796457D02*
X48798714Y-109796457D01*
X48691571Y-109860266D01*
X48620142Y-109924076D01*
X48584428Y-109987885D01*
X48834428Y-108839314D02*
X47870142Y-109413600D01*
X48727285Y-108647885D02*
X48763000Y-108615980D01*
X48798714Y-108552171D01*
X48798714Y-108392647D01*
X48763000Y-108328838D01*
X48727285Y-108296933D01*
X48655857Y-108265028D01*
X48584428Y-108265028D01*
X48477285Y-108296933D01*
X48048714Y-108679790D01*
X48048714Y-108265028D01*
X50584428Y-113226219D02*
X50548714Y-113130504D01*
X50548714Y-112970980D01*
X50584428Y-112907171D01*
X50620142Y-112875266D01*
X50691571Y-112843361D01*
X50763000Y-112843361D01*
X50834428Y-112875266D01*
X50870142Y-112907171D01*
X50905857Y-112970980D01*
X50941571Y-113098600D01*
X50977285Y-113162409D01*
X51013000Y-113194314D01*
X51084428Y-113226219D01*
X51155857Y-113226219D01*
X51227285Y-113194314D01*
X51263000Y-113162409D01*
X51298714Y-113098600D01*
X51298714Y-112939076D01*
X51263000Y-112843361D01*
X50620142Y-112173361D02*
X50584428Y-112205266D01*
X50548714Y-112300980D01*
X50548714Y-112364790D01*
X50584428Y-112460504D01*
X50655857Y-112524314D01*
X50727285Y-112556219D01*
X50870142Y-112588123D01*
X50977285Y-112588123D01*
X51120142Y-112556219D01*
X51191571Y-112524314D01*
X51263000Y-112460504D01*
X51298714Y-112364790D01*
X51298714Y-112300980D01*
X51263000Y-112205266D01*
X51227285Y-112173361D01*
X50548714Y-111567171D02*
X50548714Y-111886219D01*
X51298714Y-111886219D01*
X51334428Y-110865266D02*
X50370142Y-111439552D01*
X50548714Y-110641933D02*
X51298714Y-110641933D01*
X51298714Y-110482409D01*
X51263000Y-110386695D01*
X51191571Y-110322885D01*
X51120142Y-110290980D01*
X50977285Y-110259076D01*
X50870142Y-110259076D01*
X50727285Y-110290980D01*
X50655857Y-110322885D01*
X50584428Y-110386695D01*
X50548714Y-110482409D01*
X50548714Y-110641933D01*
X51298714Y-109844314D02*
X51298714Y-109780504D01*
X51263000Y-109716695D01*
X51227285Y-109684790D01*
X51155857Y-109652885D01*
X51013000Y-109620980D01*
X50834428Y-109620980D01*
X50691571Y-109652885D01*
X50620142Y-109684790D01*
X50584428Y-109716695D01*
X50548714Y-109780504D01*
X50548714Y-109844314D01*
X50584428Y-109908123D01*
X50620142Y-109940028D01*
X50691571Y-109971933D01*
X50834428Y-110003838D01*
X51013000Y-110003838D01*
X51155857Y-109971933D01*
X51227285Y-109940028D01*
X51263000Y-109908123D01*
X51298714Y-109844314D01*
X51334428Y-108855266D02*
X50370142Y-109429552D01*
X51298714Y-108695742D02*
X51298714Y-108280980D01*
X51013000Y-108504314D01*
X51013000Y-108408600D01*
X50977285Y-108344790D01*
X50941571Y-108312885D01*
X50870142Y-108280980D01*
X50691571Y-108280980D01*
X50620142Y-108312885D01*
X50584428Y-108344790D01*
X50548714Y-108408600D01*
X50548714Y-108600028D01*
X50584428Y-108663838D01*
X50620142Y-108695742D01*
X55670142Y-112785266D02*
X55634428Y-112817171D01*
X55598714Y-112912885D01*
X55598714Y-112976695D01*
X55634428Y-113072409D01*
X55705857Y-113136219D01*
X55777285Y-113168123D01*
X55920142Y-113200028D01*
X56027285Y-113200028D01*
X56170142Y-113168123D01*
X56241571Y-113136219D01*
X56313000Y-113072409D01*
X56348714Y-112976695D01*
X56348714Y-112912885D01*
X56313000Y-112817171D01*
X56277285Y-112785266D01*
X56348714Y-112210980D02*
X56348714Y-112338600D01*
X56313000Y-112402409D01*
X56277285Y-112434314D01*
X56170142Y-112498123D01*
X56027285Y-112530028D01*
X55741571Y-112530028D01*
X55670142Y-112498123D01*
X55634428Y-112466219D01*
X55598714Y-112402409D01*
X55598714Y-112274790D01*
X55634428Y-112210980D01*
X55670142Y-112179076D01*
X55741571Y-112147171D01*
X55920142Y-112147171D01*
X55991571Y-112179076D01*
X56027285Y-112210980D01*
X56063000Y-112274790D01*
X56063000Y-112402409D01*
X56027285Y-112466219D01*
X55991571Y-112498123D01*
X55920142Y-112530028D01*
X56384428Y-111381457D02*
X55420142Y-111955742D01*
X56348714Y-110839076D02*
X56348714Y-111158123D01*
X55991571Y-111190028D01*
X56027285Y-111158123D01*
X56063000Y-111094314D01*
X56063000Y-110934790D01*
X56027285Y-110870980D01*
X55991571Y-110839076D01*
X55920142Y-110807171D01*
X55741571Y-110807171D01*
X55670142Y-110839076D01*
X55634428Y-110870980D01*
X55598714Y-110934790D01*
X55598714Y-111094314D01*
X55634428Y-111158123D01*
X55670142Y-111190028D01*
X66141571Y-112944790D02*
X66105857Y-112849076D01*
X66070142Y-112817171D01*
X65998714Y-112785266D01*
X65891571Y-112785266D01*
X65820142Y-112817171D01*
X65784428Y-112849076D01*
X65748714Y-112912885D01*
X65748714Y-113168123D01*
X66498714Y-113168123D01*
X66498714Y-112944790D01*
X66463000Y-112880980D01*
X66427285Y-112849076D01*
X66355857Y-112817171D01*
X66284428Y-112817171D01*
X66213000Y-112849076D01*
X66177285Y-112880980D01*
X66141571Y-112944790D01*
X66141571Y-113168123D01*
X66498714Y-112179076D02*
X66498714Y-112498123D01*
X66141571Y-112530028D01*
X66177285Y-112498123D01*
X66213000Y-112434314D01*
X66213000Y-112274790D01*
X66177285Y-112210980D01*
X66141571Y-112179076D01*
X66070142Y-112147171D01*
X65891571Y-112147171D01*
X65820142Y-112179076D01*
X65784428Y-112210980D01*
X65748714Y-112274790D01*
X65748714Y-112434314D01*
X65784428Y-112498123D01*
X65820142Y-112530028D01*
X66534428Y-111381457D02*
X65570142Y-111955742D01*
X65748714Y-111126219D02*
X65748714Y-110998600D01*
X65784428Y-110934790D01*
X65820142Y-110902885D01*
X65927285Y-110839076D01*
X66070142Y-110807171D01*
X66355857Y-110807171D01*
X66427285Y-110839076D01*
X66463000Y-110870980D01*
X66498714Y-110934790D01*
X66498714Y-111062409D01*
X66463000Y-111126219D01*
X66427285Y-111158123D01*
X66355857Y-111190028D01*
X66177285Y-111190028D01*
X66105857Y-111158123D01*
X66070142Y-111126219D01*
X66034428Y-111062409D01*
X66034428Y-110934790D01*
X66070142Y-110870980D01*
X66105857Y-110839076D01*
X66177285Y-110807171D01*
X40548714Y-113272171D02*
X41298714Y-113272171D01*
X41298714Y-113112647D01*
X41263000Y-113016933D01*
X41191571Y-112953123D01*
X41120142Y-112921219D01*
X40977285Y-112889314D01*
X40870142Y-112889314D01*
X40727285Y-112921219D01*
X40655857Y-112953123D01*
X40584428Y-113016933D01*
X40548714Y-113112647D01*
X40548714Y-113272171D01*
X41227285Y-112634076D02*
X41263000Y-112602171D01*
X41298714Y-112538361D01*
X41298714Y-112378838D01*
X41263000Y-112315028D01*
X41227285Y-112283123D01*
X41155857Y-112251219D01*
X41084428Y-112251219D01*
X40977285Y-112283123D01*
X40548714Y-112665980D01*
X40548714Y-112251219D01*
X41334428Y-111485504D02*
X40370142Y-112059790D01*
X40548714Y-110879314D02*
X40905857Y-111102647D01*
X40548714Y-111262171D02*
X41298714Y-111262171D01*
X41298714Y-111006933D01*
X41263000Y-110943123D01*
X41227285Y-110911219D01*
X41155857Y-110879314D01*
X41048714Y-110879314D01*
X40977285Y-110911219D01*
X40941571Y-110943123D01*
X40905857Y-111006933D01*
X40905857Y-111262171D01*
X41298714Y-110655980D02*
X40548714Y-110209314D01*
X41298714Y-110209314D02*
X40548714Y-110655980D01*
X40548714Y-109603123D02*
X40548714Y-109985980D01*
X40548714Y-109794552D02*
X41298714Y-109794552D01*
X41191571Y-109858361D01*
X41120142Y-109922171D01*
X41084428Y-109985980D01*
X63641571Y-112944790D02*
X63605857Y-112849076D01*
X63570142Y-112817171D01*
X63498714Y-112785266D01*
X63391571Y-112785266D01*
X63320142Y-112817171D01*
X63284428Y-112849076D01*
X63248714Y-112912885D01*
X63248714Y-113168123D01*
X63998714Y-113168123D01*
X63998714Y-112944790D01*
X63963000Y-112880980D01*
X63927285Y-112849076D01*
X63855857Y-112817171D01*
X63784428Y-112817171D01*
X63713000Y-112849076D01*
X63677285Y-112880980D01*
X63641571Y-112944790D01*
X63641571Y-113168123D01*
X63748714Y-112210980D02*
X63248714Y-112210980D01*
X64034428Y-112370504D02*
X63498714Y-112530028D01*
X63498714Y-112115266D01*
X64034428Y-111381457D02*
X63070142Y-111955742D01*
X63677285Y-111062409D02*
X63713000Y-111126219D01*
X63748714Y-111158123D01*
X63820142Y-111190028D01*
X63855857Y-111190028D01*
X63927285Y-111158123D01*
X63963000Y-111126219D01*
X63998714Y-111062409D01*
X63998714Y-110934790D01*
X63963000Y-110870980D01*
X63927285Y-110839076D01*
X63855857Y-110807171D01*
X63820142Y-110807171D01*
X63748714Y-110839076D01*
X63713000Y-110870980D01*
X63677285Y-110934790D01*
X63677285Y-111062409D01*
X63641571Y-111126219D01*
X63605857Y-111158123D01*
X63534428Y-111190028D01*
X63391571Y-111190028D01*
X63320142Y-111158123D01*
X63284428Y-111126219D01*
X63248714Y-111062409D01*
X63248714Y-110934790D01*
X63284428Y-110870980D01*
X63320142Y-110839076D01*
X63391571Y-110807171D01*
X63534428Y-110807171D01*
X63605857Y-110839076D01*
X63641571Y-110870980D01*
X63677285Y-110934790D01*
D20*
X34177285Y-104802171D02*
X33427285Y-104802171D01*
X33963000Y-105052171D01*
X33427285Y-105302171D01*
X34177285Y-105302171D01*
X34177285Y-105659314D02*
X33677285Y-105659314D01*
X33427285Y-105659314D02*
X33463000Y-105623600D01*
X33498714Y-105659314D01*
X33463000Y-105695028D01*
X33427285Y-105659314D01*
X33498714Y-105659314D01*
X34141571Y-106337885D02*
X34177285Y-106266457D01*
X34177285Y-106123600D01*
X34141571Y-106052171D01*
X34105857Y-106016457D01*
X34034428Y-105980742D01*
X33820142Y-105980742D01*
X33748714Y-106016457D01*
X33713000Y-106052171D01*
X33677285Y-106123600D01*
X33677285Y-106266457D01*
X33713000Y-106337885D01*
X34177285Y-106659314D02*
X33677285Y-106659314D01*
X33820142Y-106659314D02*
X33748714Y-106695028D01*
X33713000Y-106730742D01*
X33677285Y-106802171D01*
X33677285Y-106873600D01*
X34177285Y-107230742D02*
X34141571Y-107159314D01*
X34105857Y-107123600D01*
X34034428Y-107087885D01*
X33820142Y-107087885D01*
X33748714Y-107123600D01*
X33713000Y-107159314D01*
X33677285Y-107230742D01*
X33677285Y-107337885D01*
X33713000Y-107409314D01*
X33748714Y-107445028D01*
X33820142Y-107480742D01*
X34034428Y-107480742D01*
X34105857Y-107445028D01*
X34141571Y-107409314D01*
X34177285Y-107337885D01*
X34177285Y-107230742D01*
X33427285Y-107802171D02*
X34034428Y-107802171D01*
X34105857Y-107837885D01*
X34141571Y-107873600D01*
X34177285Y-107945028D01*
X34177285Y-108087885D01*
X34141571Y-108159314D01*
X34105857Y-108195028D01*
X34034428Y-108230742D01*
X33427285Y-108230742D01*
X34141571Y-108552171D02*
X34177285Y-108659314D01*
X34177285Y-108837885D01*
X34141571Y-108909314D01*
X34105857Y-108945028D01*
X34034428Y-108980742D01*
X33963000Y-108980742D01*
X33891571Y-108945028D01*
X33855857Y-108909314D01*
X33820142Y-108837885D01*
X33784428Y-108695028D01*
X33748714Y-108623600D01*
X33713000Y-108587885D01*
X33641571Y-108552171D01*
X33570142Y-108552171D01*
X33498714Y-108587885D01*
X33463000Y-108623600D01*
X33427285Y-108695028D01*
X33427285Y-108873600D01*
X33463000Y-108980742D01*
X33784428Y-109552171D02*
X33820142Y-109659314D01*
X33855857Y-109695028D01*
X33927285Y-109730742D01*
X34034428Y-109730742D01*
X34105857Y-109695028D01*
X34141571Y-109659314D01*
X34177285Y-109587885D01*
X34177285Y-109302171D01*
X33427285Y-109302171D01*
X33427285Y-109552171D01*
X33463000Y-109623600D01*
X33498714Y-109659314D01*
X33570142Y-109695028D01*
X33641571Y-109695028D01*
X33713000Y-109659314D01*
X33748714Y-109623600D01*
X33784428Y-109552171D01*
X33784428Y-109302171D01*
D11*
X255871428Y-118470952D02*
X255871428Y-117709047D01*
X255871428Y-115930952D02*
X255871428Y-115169047D01*
X256252380Y-115550000D02*
X255490476Y-115550000D01*
X39089380Y-97112380D02*
X39422714Y-96636190D01*
X39660809Y-97112380D02*
X39660809Y-96112380D01*
X39279857Y-96112380D01*
X39184619Y-96160000D01*
X39137000Y-96207619D01*
X39089380Y-96302857D01*
X39089380Y-96445714D01*
X39137000Y-96540952D01*
X39184619Y-96588571D01*
X39279857Y-96636190D01*
X39660809Y-96636190D01*
X38660809Y-96588571D02*
X38327476Y-96588571D01*
X38184619Y-97112380D02*
X38660809Y-97112380D01*
X38660809Y-96112380D01*
X38184619Y-96112380D01*
X37803666Y-97064761D02*
X37660809Y-97112380D01*
X37422714Y-97112380D01*
X37327476Y-97064761D01*
X37279857Y-97017142D01*
X37232238Y-96921904D01*
X37232238Y-96826666D01*
X37279857Y-96731428D01*
X37327476Y-96683809D01*
X37422714Y-96636190D01*
X37613190Y-96588571D01*
X37708428Y-96540952D01*
X37756047Y-96493333D01*
X37803666Y-96398095D01*
X37803666Y-96302857D01*
X37756047Y-96207619D01*
X37708428Y-96160000D01*
X37613190Y-96112380D01*
X37375095Y-96112380D01*
X37232238Y-96160000D01*
X36803666Y-96588571D02*
X36470333Y-96588571D01*
X36327476Y-97112380D02*
X36803666Y-97112380D01*
X36803666Y-96112380D01*
X36327476Y-96112380D01*
X36041761Y-96112380D02*
X35470333Y-96112380D01*
X35756047Y-97112380D02*
X35756047Y-96112380D01*
M02*
