G04 #@! TF.GenerationSoftware,KiCad,Pcbnew,(5.1.5)-2*
G04 #@! TF.CreationDate,2020-02-27T15:55:59+09:00*
G04 #@! TF.ProjectId,First_keyboard30,46697273-745f-46b6-9579-626f61726433,rev?*
G04 #@! TF.SameCoordinates,Original*
G04 #@! TF.FileFunction,Copper,L1,Top*
G04 #@! TF.FilePolarity,Positive*
%FSLAX46Y46*%
G04 Gerber Fmt 4.6, Leading zero omitted, Abs format (unit mm)*
G04 Created by KiCad (PCBNEW (5.1.5)-2) date 2020-02-27 15:55:59*
%MOMM*%
%LPD*%
G04 APERTURE LIST*
%ADD10C,1.524000*%
%ADD11O,2.500000X2.000000*%
%ADD12R,2.300000X2.000000*%
%ADD13R,1.905000X1.905000*%
%ADD14C,1.905000*%
%ADD15C,2.000000*%
%ADD16C,2.250000*%
%ADD17C,2.250000*%
%ADD18R,0.950000X1.300000*%
%ADD19C,1.397000*%
%ADD20R,1.397000X1.397000*%
%ADD21R,1.300000X0.950000*%
%ADD22C,0.800000*%
%ADD23C,0.250000*%
%ADD24C,0.254000*%
G04 APERTURE END LIST*
D10*
X38310000Y-99690000D03*
X40850000Y-99690000D03*
X43390000Y-99690000D03*
X45930000Y-99690000D03*
X48470000Y-99690000D03*
X51010000Y-99690000D03*
X53550000Y-99690000D03*
X56090000Y-99690000D03*
X58630000Y-99690000D03*
X61170000Y-99690000D03*
X63710000Y-99690000D03*
X66250000Y-99690000D03*
X66250000Y-114910000D03*
X63710000Y-114910000D03*
X61170000Y-114910000D03*
X58630000Y-114910000D03*
X56090000Y-114910000D03*
X53550000Y-114910000D03*
X51010000Y-114910000D03*
X48470000Y-114910000D03*
X45930000Y-114910000D03*
X43390000Y-114910000D03*
X40850000Y-114910000D03*
X38310000Y-114910000D03*
D11*
X57850000Y-104770000D03*
X64200000Y-102230000D03*
X46420000Y-109850000D03*
X40070000Y-112390000D03*
D12*
X229880000Y-121220000D03*
X242580000Y-123760000D03*
X208360000Y-121240000D03*
X221060000Y-123780000D03*
X189310000Y-121240000D03*
X202010000Y-123780000D03*
X170260000Y-121240000D03*
X182960000Y-123780000D03*
X151210000Y-121240000D03*
X163910000Y-123780000D03*
X132160000Y-121240000D03*
X144860000Y-123780000D03*
X113110000Y-121240000D03*
X125810000Y-123780000D03*
X94060000Y-121240000D03*
X106760000Y-123780000D03*
X75010000Y-121240000D03*
X87710000Y-123780000D03*
X55960000Y-121240000D03*
X68660000Y-123780000D03*
X36910000Y-121240000D03*
X49610000Y-123780000D03*
X227410000Y-102190000D03*
X240110000Y-104730000D03*
X208360000Y-102190000D03*
X221060000Y-104730000D03*
X189310000Y-102190000D03*
X202010000Y-104730000D03*
X170260000Y-102190000D03*
X182960000Y-104730000D03*
X151210000Y-102190000D03*
X163910000Y-104730000D03*
X132160000Y-102190000D03*
X144860000Y-104730000D03*
X113110000Y-102190000D03*
X125810000Y-104730000D03*
X94060000Y-102190000D03*
X106760000Y-104730000D03*
X75010000Y-102190000D03*
X87710000Y-104730000D03*
X251250000Y-83140000D03*
X263950000Y-85680000D03*
X227410000Y-83140000D03*
X240110000Y-85680000D03*
X208360000Y-83140000D03*
X221060000Y-85680000D03*
X189310000Y-83140000D03*
X202010000Y-85680000D03*
X170260000Y-83140000D03*
X182960000Y-85680000D03*
X151210000Y-83140000D03*
X163910000Y-85680000D03*
X132160000Y-83140000D03*
X144860000Y-85680000D03*
X113110000Y-83140000D03*
X125810000Y-85680000D03*
X94060000Y-83140000D03*
X106760000Y-85680000D03*
X75010000Y-83140000D03*
X87710000Y-85680000D03*
X55960000Y-83140000D03*
X68660000Y-85680000D03*
X36910000Y-83140000D03*
X49610000Y-85680000D03*
D13*
X254220000Y-118090000D03*
D14*
X254220000Y-115550000D03*
D15*
X265200000Y-116820000D03*
X263100000Y-121820000D03*
D16*
X263300000Y-114320000D03*
D17*
X261840000Y-113010000D02*
X263300008Y-114319990D01*
D16*
X264380000Y-119360000D03*
D17*
X263800000Y-119320000D02*
X264380032Y-119359542D01*
D15*
X34260000Y-96660000D03*
X40760000Y-96660000D03*
D18*
X246610000Y-118435000D03*
D19*
X246610000Y-120470000D03*
D20*
X246610000Y-112850000D03*
D18*
X246610000Y-114885000D03*
X244940000Y-127425000D03*
D19*
X244940000Y-129460000D03*
D20*
X244940000Y-121840000D03*
D18*
X244940000Y-123875000D03*
X223510000Y-127525000D03*
D19*
X223510000Y-129560000D03*
D20*
X223510000Y-121940000D03*
D18*
X223510000Y-123975000D03*
X204510000Y-127525000D03*
D19*
X204510000Y-129560000D03*
D20*
X204510000Y-121940000D03*
D18*
X204510000Y-123975000D03*
X185410000Y-127525000D03*
D19*
X185410000Y-129560000D03*
D20*
X185410000Y-121940000D03*
D18*
X185410000Y-123975000D03*
X166410000Y-127625000D03*
D19*
X166410000Y-129660000D03*
D20*
X166410000Y-122040000D03*
D18*
X166410000Y-124075000D03*
X147310000Y-127625000D03*
D19*
X147310000Y-129660000D03*
D20*
X147310000Y-122040000D03*
D18*
X147310000Y-124075000D03*
X128410000Y-127635000D03*
D19*
X128410000Y-129670000D03*
D20*
X128410000Y-122050000D03*
D18*
X128410000Y-124085000D03*
X109310000Y-127625000D03*
D19*
X109310000Y-129660000D03*
D20*
X109310000Y-122040000D03*
D18*
X109310000Y-124075000D03*
X90210000Y-127735000D03*
D19*
X90210000Y-129770000D03*
D20*
X90210000Y-122150000D03*
D18*
X90210000Y-124185000D03*
X71110000Y-127825000D03*
D19*
X71110000Y-129860000D03*
D20*
X71110000Y-122240000D03*
D18*
X71110000Y-124275000D03*
X52110000Y-127625000D03*
D19*
X52110000Y-129660000D03*
D20*
X52110000Y-122040000D03*
D18*
X52110000Y-124075000D03*
X242610000Y-109535000D03*
D19*
X242610000Y-111570000D03*
D20*
X242610000Y-103950000D03*
D18*
X242610000Y-105985000D03*
X223410000Y-109535000D03*
D19*
X223410000Y-111570000D03*
D20*
X223410000Y-103950000D03*
D18*
X223410000Y-105985000D03*
X204610000Y-109435000D03*
D19*
X204610000Y-111470000D03*
D20*
X204610000Y-103850000D03*
D18*
X204610000Y-105885000D03*
X185210000Y-109425000D03*
D19*
X185210000Y-111460000D03*
D20*
X185210000Y-103840000D03*
D18*
X185210000Y-105875000D03*
X166510000Y-109435000D03*
D19*
X166510000Y-111470000D03*
D20*
X166510000Y-103850000D03*
D18*
X166510000Y-105885000D03*
X147310000Y-109425000D03*
D19*
X147310000Y-111460000D03*
D20*
X147310000Y-103840000D03*
D18*
X147310000Y-105875000D03*
X128310000Y-109325000D03*
D19*
X128310000Y-111360000D03*
D20*
X128310000Y-103740000D03*
D18*
X128310000Y-105775000D03*
X109310000Y-109235000D03*
D19*
X109310000Y-111270000D03*
D20*
X109310000Y-103650000D03*
D18*
X109310000Y-105685000D03*
X90210000Y-109335000D03*
D19*
X90210000Y-111370000D03*
D20*
X90210000Y-103750000D03*
D18*
X90210000Y-105785000D03*
X71210000Y-109435000D03*
D19*
X71210000Y-111470000D03*
D20*
X71210000Y-103850000D03*
D18*
X71210000Y-105885000D03*
D21*
X44275000Y-117660000D03*
D19*
X46310000Y-117660000D03*
D20*
X38690000Y-117660000D03*
D21*
X40725000Y-117660000D03*
D18*
X266610000Y-90245000D03*
D19*
X266610000Y-92280000D03*
D20*
X266610000Y-84660000D03*
D18*
X266610000Y-86695000D03*
X242710000Y-90235000D03*
D19*
X242710000Y-92270000D03*
D20*
X242710000Y-84650000D03*
D18*
X242710000Y-86685000D03*
X223610000Y-90135000D03*
D19*
X223610000Y-92170000D03*
D20*
X223610000Y-84550000D03*
D18*
X223610000Y-86585000D03*
X204410000Y-90025000D03*
D19*
X204410000Y-92060000D03*
D20*
X204410000Y-84440000D03*
D18*
X204410000Y-86475000D03*
X185410000Y-89925000D03*
D19*
X185410000Y-91960000D03*
D20*
X185410000Y-84340000D03*
D18*
X185410000Y-86375000D03*
X166410000Y-89925000D03*
D19*
X166410000Y-91960000D03*
D20*
X166410000Y-84340000D03*
D18*
X166410000Y-86375000D03*
X147410000Y-90335000D03*
D19*
X147410000Y-92370000D03*
D20*
X147410000Y-84750000D03*
D18*
X147410000Y-86785000D03*
X128110000Y-89925000D03*
D19*
X128110000Y-91960000D03*
D20*
X128110000Y-84340000D03*
D18*
X128110000Y-86375000D03*
X109310000Y-90035000D03*
D19*
X109310000Y-92070000D03*
D20*
X109310000Y-84450000D03*
D18*
X109310000Y-86485000D03*
X90210000Y-90045000D03*
D19*
X90210000Y-92080000D03*
D20*
X90210000Y-84460000D03*
D18*
X90210000Y-86495000D03*
X71160000Y-90085000D03*
D19*
X71160000Y-92120000D03*
D20*
X71160000Y-84500000D03*
D18*
X71160000Y-86535000D03*
X52120000Y-90155000D03*
D19*
X52120000Y-92190000D03*
D20*
X52120000Y-84570000D03*
D18*
X52120000Y-86605000D03*
D22*
X42610000Y-80660000D03*
X61610000Y-80660000D03*
X80810000Y-80660000D03*
X99610000Y-80660000D03*
X118610000Y-80660000D03*
X138010000Y-80660000D03*
X150510000Y-94260000D03*
X156910000Y-80560000D03*
X176010000Y-80660000D03*
X195410000Y-80660000D03*
X214010000Y-80660000D03*
X233110000Y-80660000D03*
X257010000Y-80760000D03*
X80810000Y-99560000D03*
X99810000Y-99660000D03*
X118910000Y-99760000D03*
X138010000Y-99660000D03*
X168910000Y-113960000D03*
X169010000Y-111260000D03*
X156910000Y-99760000D03*
X176010000Y-99660000D03*
X195110000Y-99860000D03*
X214010000Y-99760000D03*
X233210000Y-99760000D03*
X42410000Y-130960000D03*
X73310000Y-126760000D03*
X61710000Y-118760000D03*
X80710000Y-118760000D03*
X99910000Y-118860000D03*
X118810000Y-118860000D03*
X137810000Y-118760000D03*
X156910000Y-118860000D03*
X175910000Y-118860000D03*
X195110000Y-118760000D03*
X214210000Y-118760000D03*
X233210000Y-118760000D03*
X57510000Y-93960000D03*
X53310000Y-120360000D03*
X54210000Y-125760000D03*
X48710000Y-119160000D03*
X156910000Y-79360000D03*
X156910000Y-98560000D03*
X175910000Y-117660000D03*
X61710000Y-117560000D03*
X42610000Y-79560000D03*
X167910000Y-113660000D03*
X80710000Y-113660000D03*
X72710000Y-120060000D03*
X61610000Y-79460000D03*
X176010000Y-79460000D03*
X176010000Y-98460000D03*
X195110000Y-117560000D03*
X80710000Y-117560000D03*
X220810000Y-127960000D03*
X218310000Y-131860000D03*
X80810000Y-79460000D03*
X195410000Y-79460000D03*
X80810000Y-98360000D03*
X195110000Y-98660000D03*
X214210000Y-117560000D03*
X99910000Y-117660000D03*
X207110000Y-95160000D03*
X99610000Y-79460000D03*
X214010000Y-79460000D03*
X99810000Y-98460000D03*
X214010000Y-98560000D03*
X233210000Y-117560000D03*
X118810000Y-117660000D03*
X99810000Y-95585010D03*
X118910000Y-96560000D03*
X118610000Y-79460000D03*
X233110000Y-79460000D03*
X118910000Y-98560000D03*
X233210000Y-98560000D03*
X137810000Y-117560000D03*
X130910000Y-92260000D03*
X138010000Y-79460000D03*
X257010000Y-79560000D03*
X138010000Y-98460000D03*
X156910000Y-117660000D03*
X42410000Y-129760000D03*
D23*
X42044315Y-80660000D02*
X42610000Y-80660000D01*
X38140000Y-80660000D02*
X42044315Y-80660000D01*
X36910000Y-81890000D02*
X38140000Y-80660000D01*
X36910000Y-83140000D02*
X36910000Y-81890000D01*
X61044315Y-80660000D02*
X61610000Y-80660000D01*
X57190000Y-80660000D02*
X61044315Y-80660000D01*
X55960000Y-81890000D02*
X57190000Y-80660000D01*
X55960000Y-83140000D02*
X55960000Y-81890000D01*
X80244315Y-80660000D02*
X80810000Y-80660000D01*
X76240000Y-80660000D02*
X80244315Y-80660000D01*
X75010000Y-81890000D02*
X76240000Y-80660000D01*
X75010000Y-83140000D02*
X75010000Y-81890000D01*
X99044315Y-80660000D02*
X99610000Y-80660000D01*
X94060000Y-81890000D02*
X95290000Y-80660000D01*
X95290000Y-80660000D02*
X99044315Y-80660000D01*
X94060000Y-83140000D02*
X94060000Y-81890000D01*
X118044315Y-80660000D02*
X118610000Y-80660000D01*
X116088998Y-80660000D02*
X118044315Y-80660000D01*
X113608998Y-83140000D02*
X116088998Y-80660000D01*
X113110000Y-83140000D02*
X113608998Y-83140000D01*
X137444315Y-80660000D02*
X138010000Y-80660000D01*
X133390000Y-80660000D02*
X137444315Y-80660000D01*
X132160000Y-81890000D02*
X133390000Y-80660000D01*
X132160000Y-83140000D02*
X132160000Y-81890000D01*
X164110000Y-94260000D02*
X166410000Y-91960000D01*
X150510000Y-94260000D02*
X164110000Y-94260000D01*
X156344315Y-80560000D02*
X156910000Y-80560000D01*
X152540000Y-80560000D02*
X156344315Y-80560000D01*
X151210000Y-81890000D02*
X152540000Y-80560000D01*
X151210000Y-83140000D02*
X151210000Y-81890000D01*
X175444315Y-80660000D02*
X176010000Y-80660000D01*
X171490000Y-80660000D02*
X175444315Y-80660000D01*
X170260000Y-81890000D02*
X171490000Y-80660000D01*
X170260000Y-83140000D02*
X170260000Y-81890000D01*
X190510000Y-80660000D02*
X194844315Y-80660000D01*
X189310000Y-81860000D02*
X190510000Y-80660000D01*
X194844315Y-80660000D02*
X195410000Y-80660000D01*
X189310000Y-83140000D02*
X189310000Y-81860000D01*
X213444315Y-80660000D02*
X214010000Y-80660000D01*
X208360000Y-81890000D02*
X209590000Y-80660000D01*
X209590000Y-80660000D02*
X213444315Y-80660000D01*
X208360000Y-83140000D02*
X208360000Y-81890000D01*
X232544315Y-80660000D02*
X233110000Y-80660000D01*
X228640000Y-80660000D02*
X232544315Y-80660000D01*
X227410000Y-81890000D02*
X228640000Y-80660000D01*
X227410000Y-83140000D02*
X227410000Y-81890000D01*
X256444315Y-80760000D02*
X257010000Y-80760000D01*
X252380000Y-80760000D02*
X256444315Y-80760000D01*
X251250000Y-81890000D02*
X252380000Y-80760000D01*
X251250000Y-83140000D02*
X251250000Y-81890000D01*
X80244315Y-99560000D02*
X80810000Y-99560000D01*
X76390000Y-99560000D02*
X80244315Y-99560000D01*
X75010000Y-100940000D02*
X76390000Y-99560000D01*
X75010000Y-102190000D02*
X75010000Y-100940000D01*
X99244315Y-99660000D02*
X99810000Y-99660000D01*
X95340000Y-99660000D02*
X99244315Y-99660000D01*
X94060000Y-100940000D02*
X95340000Y-99660000D01*
X94060000Y-102190000D02*
X94060000Y-100940000D01*
X118344315Y-99760000D02*
X118910000Y-99760000D01*
X114290000Y-99760000D02*
X118344315Y-99760000D01*
X113110000Y-100940000D02*
X114290000Y-99760000D01*
X113110000Y-102190000D02*
X113110000Y-100940000D01*
X137444315Y-99660000D02*
X138010000Y-99660000D01*
X133440000Y-99660000D02*
X137444315Y-99660000D01*
X132160000Y-100940000D02*
X133440000Y-99660000D01*
X132160000Y-102190000D02*
X132160000Y-100940000D01*
X169510000Y-113360000D02*
X168910000Y-113960000D01*
X169510000Y-111760000D02*
X169510000Y-113360000D01*
X169010000Y-111260000D02*
X169510000Y-111760000D01*
X156344315Y-99760000D02*
X156910000Y-99760000D01*
X152390000Y-99760000D02*
X156344315Y-99760000D01*
X151210000Y-100940000D02*
X152390000Y-99760000D01*
X151210000Y-102190000D02*
X151210000Y-100940000D01*
X171540000Y-99660000D02*
X175444315Y-99660000D01*
X170260000Y-100940000D02*
X171540000Y-99660000D01*
X175444315Y-99660000D02*
X176010000Y-99660000D01*
X170260000Y-102190000D02*
X170260000Y-100940000D01*
X194544315Y-99860000D02*
X195110000Y-99860000D01*
X190390000Y-99860000D02*
X194544315Y-99860000D01*
X189310000Y-100940000D02*
X190390000Y-99860000D01*
X189310000Y-102190000D02*
X189310000Y-100940000D01*
X213444315Y-99760000D02*
X214010000Y-99760000D01*
X209540000Y-99760000D02*
X213444315Y-99760000D01*
X208360000Y-100940000D02*
X209540000Y-99760000D01*
X208360000Y-102190000D02*
X208360000Y-100940000D01*
X232644315Y-99760000D02*
X233210000Y-99760000D01*
X227410000Y-100940000D02*
X228590000Y-99760000D01*
X228590000Y-99760000D02*
X232644315Y-99760000D01*
X227410000Y-102190000D02*
X227410000Y-100940000D01*
X41844315Y-130960000D02*
X42410000Y-130960000D01*
X40242998Y-130960000D02*
X41844315Y-130960000D01*
X36254999Y-126972001D02*
X40242998Y-130960000D01*
X36254999Y-123145001D02*
X36254999Y-126972001D01*
X36910000Y-122490000D02*
X36254999Y-123145001D01*
X36910000Y-121240000D02*
X36910000Y-122490000D01*
X64676299Y-115676299D02*
X63800000Y-114800000D01*
X65160000Y-116160000D02*
X64676299Y-115676299D01*
X73310000Y-126760000D02*
X73310000Y-120533002D01*
X69883002Y-116160000D02*
X65160000Y-116160000D01*
X73435001Y-119711999D02*
X69883002Y-116160000D01*
X73435001Y-120408001D02*
X73435001Y-119711999D01*
X73310000Y-120533002D02*
X73435001Y-120408001D01*
X61144315Y-118760000D02*
X61710000Y-118760000D01*
X57190000Y-118760000D02*
X61144315Y-118760000D01*
X55960000Y-119990000D02*
X57190000Y-118760000D01*
X55960000Y-121240000D02*
X55960000Y-119990000D01*
X76240000Y-118760000D02*
X80144315Y-118760000D01*
X75010000Y-119990000D02*
X76240000Y-118760000D01*
X80144315Y-118760000D02*
X80710000Y-118760000D01*
X75010000Y-121240000D02*
X75010000Y-119990000D01*
X99344315Y-118860000D02*
X99910000Y-118860000D01*
X95190000Y-118860000D02*
X99344315Y-118860000D01*
X94060000Y-119990000D02*
X95190000Y-118860000D01*
X94060000Y-121240000D02*
X94060000Y-119990000D01*
X118244315Y-118860000D02*
X118810000Y-118860000D01*
X114240000Y-118860000D02*
X118244315Y-118860000D01*
X113110000Y-119990000D02*
X114240000Y-118860000D01*
X113110000Y-121240000D02*
X113110000Y-119990000D01*
X133390000Y-118760000D02*
X137244315Y-118760000D01*
X137244315Y-118760000D02*
X137810000Y-118760000D01*
X132160000Y-119990000D02*
X133390000Y-118760000D01*
X132160000Y-121240000D02*
X132160000Y-119990000D01*
X152340000Y-118860000D02*
X156344315Y-118860000D01*
X156344315Y-118860000D02*
X156910000Y-118860000D01*
X151210000Y-119990000D02*
X152340000Y-118860000D01*
X151210000Y-121240000D02*
X151210000Y-119990000D01*
X222811501Y-128861501D02*
X223510000Y-129560000D01*
X205208499Y-128861501D02*
X222811501Y-128861501D01*
X204510000Y-129560000D02*
X205208499Y-128861501D01*
X175344315Y-118860000D02*
X175910000Y-118860000D01*
X171390000Y-118860000D02*
X175344315Y-118860000D01*
X170260000Y-119990000D02*
X171390000Y-118860000D01*
X170260000Y-121240000D02*
X170260000Y-119990000D01*
X194544315Y-118760000D02*
X195110000Y-118760000D01*
X190540000Y-118760000D02*
X194544315Y-118760000D01*
X189310000Y-119990000D02*
X190540000Y-118760000D01*
X189310000Y-121240000D02*
X189310000Y-119990000D01*
X213644315Y-118760000D02*
X214210000Y-118760000D01*
X209590000Y-118760000D02*
X213644315Y-118760000D01*
X208360000Y-119990000D02*
X209590000Y-118760000D01*
X208360000Y-121240000D02*
X208360000Y-119990000D01*
X232644315Y-118760000D02*
X233210000Y-118760000D01*
X229880000Y-119970000D02*
X231090000Y-118760000D01*
X231090000Y-118760000D02*
X232644315Y-118760000D01*
X229880000Y-121220000D02*
X229880000Y-119970000D01*
X262100001Y-120820001D02*
X263100000Y-121820000D01*
X261979999Y-120699999D02*
X262100001Y-120820001D01*
X253149999Y-120699999D02*
X261979999Y-120699999D01*
X263100000Y-120020000D02*
X263800000Y-119320000D01*
X263100000Y-121820000D02*
X263100000Y-120020000D01*
X247558500Y-112850000D02*
X251210000Y-116501500D01*
X246610000Y-112850000D02*
X247558500Y-112850000D01*
X251210000Y-118760000D02*
X253149999Y-120699999D01*
X251210000Y-116501500D02*
X251210000Y-118760000D01*
X49610000Y-84430000D02*
X49610000Y-85680000D01*
X44740000Y-79560000D02*
X49610000Y-84430000D01*
X42610000Y-79560000D02*
X44740000Y-79560000D01*
X49610000Y-95530000D02*
X53640000Y-99560000D01*
X49610000Y-85680000D02*
X49610000Y-95530000D01*
X163910000Y-84430000D02*
X163910000Y-85680000D01*
X158840000Y-79360000D02*
X163910000Y-84430000D01*
X156910000Y-79360000D02*
X158840000Y-79360000D01*
X158990000Y-98560000D02*
X157475685Y-98560000D01*
X163910000Y-103480000D02*
X158990000Y-98560000D01*
X163910000Y-104730000D02*
X163910000Y-103480000D01*
X68660000Y-122530000D02*
X68660000Y-123780000D01*
X63690000Y-117560000D02*
X68660000Y-122530000D01*
X61710000Y-117560000D02*
X63690000Y-117560000D01*
X182960000Y-122530000D02*
X182960000Y-123780000D01*
X178090000Y-117660000D02*
X182960000Y-122530000D01*
X175910000Y-117660000D02*
X178090000Y-117660000D01*
X175344315Y-117660000D02*
X175910000Y-117660000D01*
X163910000Y-111160000D02*
X170410000Y-117660000D01*
X170410000Y-117660000D02*
X175344315Y-117660000D01*
X163910000Y-104730000D02*
X163910000Y-111160000D01*
X48310001Y-118760001D02*
X48710000Y-119160000D01*
X47710000Y-117545218D02*
X47710000Y-118160000D01*
X47210000Y-115387926D02*
X47210000Y-117045218D01*
X47710000Y-118160000D02*
X48310001Y-118760001D01*
X47221301Y-115376625D02*
X47210000Y-115387926D01*
X47210000Y-117045218D02*
X47710000Y-117545218D01*
X47210000Y-111890000D02*
X47210000Y-114212074D01*
X47221301Y-114223375D02*
X47221301Y-115376625D01*
X46420000Y-109850000D02*
X46420000Y-111100000D01*
X47210000Y-114212074D02*
X47221301Y-114223375D01*
X46420000Y-111100000D02*
X47210000Y-111890000D01*
X53310000Y-124860000D02*
X54210000Y-125760000D01*
X53310000Y-120360000D02*
X53310000Y-124860000D01*
X157475685Y-98560000D02*
X156910000Y-98560000D01*
X161910000Y-98560000D02*
X157475685Y-98560000D01*
X167910000Y-92560000D02*
X161910000Y-98560000D01*
X163910000Y-85760000D02*
X167910000Y-89760000D01*
X167910000Y-89760000D02*
X167910000Y-92560000D01*
X163910000Y-85680000D02*
X163910000Y-85760000D01*
X53640000Y-99560000D02*
X53640000Y-99560000D01*
X53640000Y-97830000D02*
X57510000Y-93960000D01*
X53640000Y-99560000D02*
X53640000Y-97830000D01*
X68660000Y-84430000D02*
X68660000Y-85680000D01*
X63690000Y-79460000D02*
X68660000Y-84430000D01*
X61610000Y-79460000D02*
X63690000Y-79460000D01*
X182960000Y-84430000D02*
X182960000Y-85680000D01*
X177990000Y-79460000D02*
X182960000Y-84430000D01*
X176010000Y-79460000D02*
X177990000Y-79460000D01*
X177940000Y-98460000D02*
X182960000Y-103480000D01*
X182960000Y-103480000D02*
X182960000Y-104730000D01*
X176010000Y-98460000D02*
X177940000Y-98460000D01*
X82740000Y-117560000D02*
X87710000Y-122530000D01*
X87710000Y-122530000D02*
X87710000Y-123780000D01*
X80710000Y-117560000D02*
X82740000Y-117560000D01*
X202010000Y-122530000D02*
X202010000Y-123780000D01*
X197040000Y-117560000D02*
X202010000Y-122530000D01*
X195110000Y-117560000D02*
X197040000Y-117560000D01*
X182960000Y-91510000D02*
X176010000Y-98460000D01*
X182960000Y-85680000D02*
X182960000Y-91510000D01*
X68660000Y-88227002D02*
X60627002Y-96260000D01*
X68660000Y-85680000D02*
X68660000Y-88227002D01*
X59480000Y-96260000D02*
X56180000Y-99560000D01*
X60627002Y-96260000D02*
X59480000Y-96260000D01*
X182960000Y-104730000D02*
X182960000Y-111510000D01*
X189010000Y-117560000D02*
X195110000Y-117560000D01*
X182960000Y-111510000D02*
X189010000Y-117560000D01*
X72310001Y-119660001D02*
X72710000Y-120060000D01*
X69484999Y-116834999D02*
X72310001Y-119660001D01*
X61517073Y-116834999D02*
X69484999Y-116834999D01*
X60010000Y-114174676D02*
X60010000Y-115327926D01*
X60010000Y-115327926D02*
X61517073Y-116834999D01*
X57850000Y-112014676D02*
X60010000Y-114174676D01*
X57850000Y-104770000D02*
X57850000Y-112014676D01*
X80710000Y-113660000D02*
X80710000Y-117560000D01*
X181984999Y-110534999D02*
X182960000Y-111510000D01*
X168661999Y-110534999D02*
X181984999Y-110534999D01*
X167610000Y-111586998D02*
X168661999Y-110534999D01*
X167910000Y-111886998D02*
X167910000Y-113660000D01*
X167610000Y-111586998D02*
X167910000Y-111886998D01*
X87710000Y-84430000D02*
X87710000Y-85680000D01*
X82740000Y-79460000D02*
X87710000Y-84430000D01*
X80810000Y-79460000D02*
X82740000Y-79460000D01*
X202010000Y-84430000D02*
X202010000Y-85680000D01*
X197040000Y-79460000D02*
X202010000Y-84430000D01*
X195410000Y-79460000D02*
X197040000Y-79460000D01*
X195675685Y-98660000D02*
X195110000Y-98660000D01*
X197190000Y-98660000D02*
X195675685Y-98660000D01*
X202010000Y-103480000D02*
X197190000Y-98660000D01*
X202010000Y-104730000D02*
X202010000Y-103480000D01*
X87710000Y-103480000D02*
X87710000Y-104730000D01*
X82590000Y-98360000D02*
X87710000Y-103480000D01*
X80810000Y-98360000D02*
X82590000Y-98360000D01*
X106760000Y-122530000D02*
X106760000Y-123780000D01*
X101890000Y-117660000D02*
X106760000Y-122530000D01*
X99910000Y-117660000D02*
X101890000Y-117660000D01*
X221060000Y-122530000D02*
X221060000Y-123780000D01*
X216090000Y-117560000D02*
X221060000Y-122530000D01*
X214210000Y-117560000D02*
X216090000Y-117560000D01*
X202010000Y-91760000D02*
X195110000Y-98660000D01*
X202010000Y-85680000D02*
X202010000Y-91760000D01*
X87710000Y-91460000D02*
X80810000Y-98360000D01*
X87710000Y-85680000D02*
X87710000Y-91460000D01*
X99344315Y-117660000D02*
X99910000Y-117660000D01*
X94985218Y-117660000D02*
X99344315Y-117660000D01*
X87710000Y-110384782D02*
X94985218Y-117660000D01*
X87710000Y-104730000D02*
X87710000Y-110384782D01*
X209185218Y-117560000D02*
X213644315Y-117560000D01*
X202010000Y-110384782D02*
X209185218Y-117560000D01*
X213644315Y-117560000D02*
X214210000Y-117560000D01*
X202010000Y-104730000D02*
X202010000Y-110384782D01*
X60319999Y-97960001D02*
X80410001Y-97960001D01*
X80410001Y-97960001D02*
X80810000Y-98360000D01*
X58720000Y-99560000D02*
X60319999Y-97960001D01*
X220810000Y-124030000D02*
X221060000Y-123780000D01*
X220810000Y-127960000D02*
X220810000Y-124030000D01*
X106760000Y-128624782D02*
X106760000Y-125030000D01*
X106760000Y-125030000D02*
X106760000Y-123780000D01*
X217610000Y-131160000D02*
X109295218Y-131160000D01*
X109295218Y-131160000D02*
X106760000Y-128624782D01*
X218310000Y-131860000D02*
X217610000Y-131160000D01*
X101790000Y-79460000D02*
X106760000Y-84430000D01*
X106760000Y-84430000D02*
X106760000Y-85680000D01*
X99610000Y-79460000D02*
X101790000Y-79460000D01*
X221060000Y-84430000D02*
X221060000Y-85680000D01*
X216090000Y-79460000D02*
X221060000Y-84430000D01*
X214010000Y-79460000D02*
X216090000Y-79460000D01*
X216140000Y-98560000D02*
X221060000Y-103480000D01*
X221060000Y-103480000D02*
X221060000Y-104730000D01*
X214010000Y-98560000D02*
X216140000Y-98560000D01*
X106760000Y-103480000D02*
X106760000Y-104730000D01*
X101740000Y-98460000D02*
X106760000Y-103480000D01*
X99810000Y-98460000D02*
X101740000Y-98460000D01*
X120940000Y-117660000D02*
X125810000Y-122530000D01*
X125810000Y-122530000D02*
X125810000Y-123780000D01*
X118810000Y-117660000D02*
X120940000Y-117660000D01*
X221060000Y-91510000D02*
X214010000Y-98560000D01*
X221060000Y-85680000D02*
X221060000Y-91510000D01*
X106760000Y-91510000D02*
X99810000Y-98460000D01*
X106760000Y-85680000D02*
X106760000Y-91510000D01*
X118244315Y-117660000D02*
X118810000Y-117660000D01*
X114185218Y-117660000D02*
X118244315Y-117660000D01*
X106760000Y-110234782D02*
X114185218Y-117660000D01*
X106760000Y-104730000D02*
X106760000Y-110234782D01*
X232644315Y-117560000D02*
X233210000Y-117560000D01*
X221060000Y-110734782D02*
X227885218Y-117560000D01*
X227885218Y-117560000D02*
X232644315Y-117560000D01*
X221060000Y-104730000D02*
X221060000Y-110734782D01*
X210610000Y-95160000D02*
X214010000Y-98560000D01*
X207110000Y-95160000D02*
X210610000Y-95160000D01*
X99810000Y-98460000D02*
X99810000Y-95585010D01*
X242580000Y-122510000D02*
X242580000Y-123760000D01*
X237630000Y-117560000D02*
X242580000Y-122510000D01*
X233210000Y-117560000D02*
X237630000Y-117560000D01*
X119175685Y-79460000D02*
X118610000Y-79460000D01*
X120840000Y-79460000D02*
X119175685Y-79460000D01*
X125810000Y-84430000D02*
X120840000Y-79460000D01*
X125810000Y-85680000D02*
X125810000Y-84430000D01*
X233675685Y-79460000D02*
X233110000Y-79460000D01*
X235140000Y-79460000D02*
X233675685Y-79460000D01*
X240110000Y-84430000D02*
X235140000Y-79460000D01*
X240110000Y-85680000D02*
X240110000Y-84430000D01*
X263300000Y-114920000D02*
X263300000Y-114320000D01*
X265200000Y-116820000D02*
X263300000Y-114920000D01*
X261990000Y-113010000D02*
X263300000Y-114320000D01*
X261840000Y-113010000D02*
X261990000Y-113010000D01*
X233775685Y-98560000D02*
X233210000Y-98560000D01*
X234681002Y-98560000D02*
X233775685Y-98560000D01*
X240110000Y-103988998D02*
X234681002Y-98560000D01*
X240110000Y-104730000D02*
X240110000Y-103988998D01*
X120890000Y-98560000D02*
X119475685Y-98560000D01*
X119475685Y-98560000D02*
X118910000Y-98560000D01*
X125810000Y-103480000D02*
X120890000Y-98560000D01*
X125810000Y-104730000D02*
X125810000Y-103480000D01*
X144860000Y-122530000D02*
X144860000Y-123780000D01*
X139890000Y-117560000D02*
X144860000Y-122530000D01*
X137810000Y-117560000D02*
X139890000Y-117560000D01*
X240110000Y-91660000D02*
X233210000Y-98560000D01*
X240110000Y-85680000D02*
X240110000Y-91660000D01*
X125810000Y-91660000D02*
X118910000Y-98560000D01*
X125810000Y-85680000D02*
X125810000Y-91660000D01*
X137244315Y-117560000D02*
X137810000Y-117560000D01*
X132995218Y-117560000D02*
X137244315Y-117560000D01*
X125810000Y-110374782D02*
X132995218Y-117560000D01*
X125810000Y-104730000D02*
X125810000Y-110374782D01*
X261840000Y-112120998D02*
X261840000Y-113010000D01*
X258279001Y-108559999D02*
X261840000Y-112120998D01*
X242689999Y-108559999D02*
X258279001Y-108559999D01*
X240110000Y-105980000D02*
X242689999Y-108559999D01*
X240110000Y-104730000D02*
X240110000Y-105980000D01*
X118910000Y-98560000D02*
X118910000Y-96560000D01*
X144860000Y-84430000D02*
X144860000Y-85680000D01*
X139890000Y-79460000D02*
X144860000Y-84430000D01*
X138010000Y-79460000D02*
X139890000Y-79460000D01*
X257575685Y-79560000D02*
X257010000Y-79560000D01*
X259080000Y-79560000D02*
X257575685Y-79560000D01*
X263950000Y-84430000D02*
X259080000Y-79560000D01*
X263950000Y-85680000D02*
X263950000Y-84430000D01*
X144860000Y-103480000D02*
X144860000Y-104730000D01*
X139840000Y-98460000D02*
X144860000Y-103480000D01*
X138010000Y-98460000D02*
X139840000Y-98460000D01*
X49610000Y-125030000D02*
X49610000Y-123780000D01*
X49610000Y-126327002D02*
X49610000Y-125030000D01*
X46177002Y-129760000D02*
X49610000Y-126327002D01*
X42410000Y-129760000D02*
X46177002Y-129760000D01*
X163910000Y-122530000D02*
X163910000Y-123780000D01*
X159040000Y-117660000D02*
X163910000Y-122530000D01*
X156910000Y-117660000D02*
X159040000Y-117660000D01*
X131810000Y-92260000D02*
X138010000Y-98460000D01*
X130910000Y-92260000D02*
X131810000Y-92260000D01*
X156344315Y-117660000D02*
X156910000Y-117660000D01*
X151995218Y-117660000D02*
X156344315Y-117660000D01*
X144860000Y-110524782D02*
X151995218Y-117660000D01*
X144860000Y-104730000D02*
X144860000Y-110524782D01*
X263950000Y-86930000D02*
X263950000Y-85680000D01*
X263950000Y-106700000D02*
X263950000Y-86930000D01*
X267410000Y-120860000D02*
X267410000Y-110160000D01*
X263910000Y-124360000D02*
X267410000Y-120860000D01*
X267410000Y-110160000D02*
X263950000Y-106700000D01*
X163910000Y-123780000D02*
X163910000Y-128674782D01*
X252011026Y-124360000D02*
X263910000Y-124360000D01*
X165918719Y-130683501D02*
X245687525Y-130683501D01*
X163910000Y-128674782D02*
X165918719Y-130683501D01*
X245687525Y-130683501D02*
X252011026Y-124360000D01*
X49610000Y-122530000D02*
X49610000Y-123780000D01*
X49761301Y-110734852D02*
X49761301Y-122378699D01*
X59626153Y-100870000D02*
X49761301Y-110734852D01*
X65030000Y-100870000D02*
X59626153Y-100870000D01*
X49761301Y-122378699D02*
X49610000Y-122530000D01*
X66340000Y-99560000D02*
X65030000Y-100870000D01*
D24*
G36*
X41575000Y-79458061D02*
G01*
X41575000Y-79661939D01*
X41614774Y-79861898D01*
X41630556Y-79900000D01*
X38177325Y-79900000D01*
X38140000Y-79896324D01*
X38102675Y-79900000D01*
X38102667Y-79900000D01*
X37991014Y-79910997D01*
X37847753Y-79954454D01*
X37715724Y-80025026D01*
X37599999Y-80119999D01*
X37576201Y-80148997D01*
X36398998Y-81326201D01*
X36370000Y-81349999D01*
X36346202Y-81378997D01*
X36346201Y-81378998D01*
X36275026Y-81465724D01*
X36255674Y-81501928D01*
X35760000Y-81501928D01*
X35635518Y-81514188D01*
X35515820Y-81550498D01*
X35405506Y-81609463D01*
X35308815Y-81688815D01*
X35229463Y-81785506D01*
X35170498Y-81895820D01*
X35134188Y-82015518D01*
X35121928Y-82140000D01*
X35121928Y-84140000D01*
X35134188Y-84264482D01*
X35170498Y-84384180D01*
X35229463Y-84494494D01*
X35308815Y-84591185D01*
X35405506Y-84670537D01*
X35515820Y-84729502D01*
X35635518Y-84765812D01*
X35760000Y-84778072D01*
X36879252Y-84778072D01*
X36747047Y-85097244D01*
X36665000Y-85509721D01*
X36665000Y-85930279D01*
X36747047Y-86342756D01*
X36907988Y-86731302D01*
X36945015Y-86786717D01*
X36779221Y-86855391D01*
X36519621Y-87028850D01*
X36298850Y-87249621D01*
X36125391Y-87509221D01*
X36005911Y-87797673D01*
X35945000Y-88103891D01*
X35945000Y-88416109D01*
X36005911Y-88722327D01*
X36125391Y-89010779D01*
X36298850Y-89270379D01*
X36519621Y-89491150D01*
X36779221Y-89664609D01*
X37067673Y-89784089D01*
X37373891Y-89845000D01*
X37686109Y-89845000D01*
X37992327Y-89784089D01*
X38280779Y-89664609D01*
X38540379Y-89491150D01*
X38761150Y-89270379D01*
X38934609Y-89010779D01*
X39054089Y-88722327D01*
X39115000Y-88416109D01*
X39115000Y-88103891D01*
X39063391Y-87844435D01*
X39422756Y-87772953D01*
X39811302Y-87612012D01*
X40033748Y-87463378D01*
X40028183Y-87476814D01*
X39925000Y-87995551D01*
X39925000Y-88524449D01*
X40028183Y-89043186D01*
X40230583Y-89531825D01*
X40524424Y-89971588D01*
X40898412Y-90345576D01*
X41338175Y-90639417D01*
X41826814Y-90841817D01*
X42345551Y-90945000D01*
X42874449Y-90945000D01*
X43393186Y-90841817D01*
X43881825Y-90639417D01*
X44321588Y-90345576D01*
X44695576Y-89971588D01*
X44989417Y-89531825D01*
X45191817Y-89043186D01*
X45295000Y-88524449D01*
X45295000Y-87995551D01*
X45191817Y-87476814D01*
X45186251Y-87463377D01*
X45408698Y-87612011D01*
X45797244Y-87772952D01*
X46156610Y-87844434D01*
X46105000Y-88103891D01*
X46105000Y-88416109D01*
X46165911Y-88722327D01*
X46285391Y-89010779D01*
X46458850Y-89270379D01*
X46679621Y-89491150D01*
X46939221Y-89664609D01*
X47227673Y-89784089D01*
X47533891Y-89845000D01*
X47846109Y-89845000D01*
X48152327Y-89784089D01*
X48440779Y-89664609D01*
X48700379Y-89491150D01*
X48850000Y-89341529D01*
X48850001Y-95492668D01*
X48846324Y-95530000D01*
X48850001Y-95567333D01*
X48857434Y-95642795D01*
X48860998Y-95678985D01*
X48904454Y-95822246D01*
X48975026Y-95954276D01*
X49028964Y-96019999D01*
X49070000Y-96070001D01*
X49098998Y-96093799D01*
X51335594Y-98330396D01*
X51147592Y-98293000D01*
X50872408Y-98293000D01*
X50602510Y-98346686D01*
X50348273Y-98451995D01*
X50119465Y-98604880D01*
X49924880Y-98799465D01*
X49771995Y-99028273D01*
X49740000Y-99105515D01*
X49708005Y-99028273D01*
X49555120Y-98799465D01*
X49360535Y-98604880D01*
X49131727Y-98451995D01*
X48877490Y-98346686D01*
X48607592Y-98293000D01*
X48332408Y-98293000D01*
X48062510Y-98346686D01*
X47808273Y-98451995D01*
X47579465Y-98604880D01*
X47384880Y-98799465D01*
X47231995Y-99028273D01*
X47200000Y-99105515D01*
X47168005Y-99028273D01*
X47015120Y-98799465D01*
X46820535Y-98604880D01*
X46591727Y-98451995D01*
X46337490Y-98346686D01*
X46067592Y-98293000D01*
X45792408Y-98293000D01*
X45522510Y-98346686D01*
X45268273Y-98451995D01*
X45039465Y-98604880D01*
X44844880Y-98799465D01*
X44691995Y-99028273D01*
X44660000Y-99105515D01*
X44628005Y-99028273D01*
X44475120Y-98799465D01*
X44280535Y-98604880D01*
X44051727Y-98451995D01*
X43797490Y-98346686D01*
X43527592Y-98293000D01*
X43252408Y-98293000D01*
X42982510Y-98346686D01*
X42728273Y-98451995D01*
X42499465Y-98604880D01*
X42304880Y-98799465D01*
X42151995Y-99028273D01*
X42122308Y-99099943D01*
X42117636Y-99086977D01*
X42055656Y-98971020D01*
X41815565Y-98904040D01*
X41029605Y-99690000D01*
X41815565Y-100475960D01*
X42055656Y-100408980D01*
X42119485Y-100273240D01*
X42151995Y-100351727D01*
X42304880Y-100580535D01*
X42499465Y-100775120D01*
X42728273Y-100928005D01*
X42982510Y-101033314D01*
X43252408Y-101087000D01*
X43527592Y-101087000D01*
X43797490Y-101033314D01*
X44051727Y-100928005D01*
X44280535Y-100775120D01*
X44475120Y-100580535D01*
X44628005Y-100351727D01*
X44660000Y-100274485D01*
X44691995Y-100351727D01*
X44844880Y-100580535D01*
X45039465Y-100775120D01*
X45268273Y-100928005D01*
X45522510Y-101033314D01*
X45792408Y-101087000D01*
X46067592Y-101087000D01*
X46337490Y-101033314D01*
X46591727Y-100928005D01*
X46820535Y-100775120D01*
X47015120Y-100580535D01*
X47168005Y-100351727D01*
X47200000Y-100274485D01*
X47231995Y-100351727D01*
X47384880Y-100580535D01*
X47579465Y-100775120D01*
X47808273Y-100928005D01*
X48062510Y-101033314D01*
X48332408Y-101087000D01*
X48607592Y-101087000D01*
X48877490Y-101033314D01*
X49131727Y-100928005D01*
X49360535Y-100775120D01*
X49555120Y-100580535D01*
X49708005Y-100351727D01*
X49740000Y-100274485D01*
X49771995Y-100351727D01*
X49924880Y-100580535D01*
X50119465Y-100775120D01*
X50348273Y-100928005D01*
X50602510Y-101033314D01*
X50872408Y-101087000D01*
X51147592Y-101087000D01*
X51417490Y-101033314D01*
X51671727Y-100928005D01*
X51900535Y-100775120D01*
X52095120Y-100580535D01*
X52248005Y-100351727D01*
X52280000Y-100274485D01*
X52311995Y-100351727D01*
X52464880Y-100580535D01*
X52659465Y-100775120D01*
X52888273Y-100928005D01*
X53142510Y-101033314D01*
X53412408Y-101087000D01*
X53687592Y-101087000D01*
X53957490Y-101033314D01*
X54211727Y-100928005D01*
X54440535Y-100775120D01*
X54635120Y-100580535D01*
X54788005Y-100351727D01*
X54820000Y-100274485D01*
X54851995Y-100351727D01*
X55004880Y-100580535D01*
X55199465Y-100775120D01*
X55428273Y-100928005D01*
X55682510Y-101033314D01*
X55952408Y-101087000D01*
X56227592Y-101087000D01*
X56497490Y-101033314D01*
X56751727Y-100928005D01*
X56980535Y-100775120D01*
X57175120Y-100580535D01*
X57328005Y-100351727D01*
X57360000Y-100274485D01*
X57391995Y-100351727D01*
X57544880Y-100580535D01*
X57739465Y-100775120D01*
X57968273Y-100928005D01*
X58222510Y-101033314D01*
X58360574Y-101060777D01*
X49250304Y-110171048D01*
X49221300Y-110194851D01*
X49166172Y-110262026D01*
X49126327Y-110310576D01*
X49070224Y-110415537D01*
X49055755Y-110442606D01*
X49012298Y-110585867D01*
X49001301Y-110697520D01*
X49001301Y-110697530D01*
X48997625Y-110734852D01*
X49001301Y-110772174D01*
X49001301Y-113617971D01*
X48877490Y-113566686D01*
X48607592Y-113513000D01*
X48332408Y-113513000D01*
X48062510Y-113566686D01*
X47970000Y-113605005D01*
X47970000Y-111927325D01*
X47973676Y-111890000D01*
X47970000Y-111852675D01*
X47970000Y-111852667D01*
X47959003Y-111741014D01*
X47915546Y-111597753D01*
X47844974Y-111465724D01*
X47750001Y-111349999D01*
X47721004Y-111326202D01*
X47598175Y-111203373D01*
X47831714Y-111011714D01*
X48036031Y-110762752D01*
X48187852Y-110478715D01*
X48281343Y-110170516D01*
X48312911Y-109850000D01*
X48281343Y-109529484D01*
X48187852Y-109221285D01*
X48036031Y-108937248D01*
X48001359Y-108895000D01*
X48266109Y-108895000D01*
X48572327Y-108834089D01*
X48860779Y-108714609D01*
X49120379Y-108541150D01*
X49341150Y-108320379D01*
X49514609Y-108060779D01*
X49634089Y-107772327D01*
X49695000Y-107466109D01*
X49695000Y-107153891D01*
X49634089Y-106847673D01*
X49514609Y-106559221D01*
X49341150Y-106299621D01*
X49120379Y-106078850D01*
X48860779Y-105905391D01*
X48572327Y-105785911D01*
X48266109Y-105725000D01*
X47953891Y-105725000D01*
X47647673Y-105785911D01*
X47359221Y-105905391D01*
X47099621Y-106078850D01*
X46878850Y-106299621D01*
X46705391Y-106559221D01*
X46585911Y-106847673D01*
X46525000Y-107153891D01*
X46525000Y-107466109D01*
X46585911Y-107772327D01*
X46705391Y-108060779D01*
X46812532Y-108221127D01*
X46750322Y-108215000D01*
X46089678Y-108215000D01*
X45849484Y-108238657D01*
X45541285Y-108332148D01*
X45257248Y-108483969D01*
X45008286Y-108688286D01*
X44803969Y-108937248D01*
X44652148Y-109221285D01*
X44558657Y-109529484D01*
X44527089Y-109850000D01*
X44558657Y-110170516D01*
X44652148Y-110478715D01*
X44803969Y-110762752D01*
X45008286Y-111011714D01*
X45257248Y-111216031D01*
X45541285Y-111367852D01*
X45732404Y-111425827D01*
X45785026Y-111524276D01*
X45845328Y-111597753D01*
X45880000Y-111640001D01*
X45908998Y-111663799D01*
X46450000Y-112204802D01*
X46450001Y-113610778D01*
X46399952Y-113587244D01*
X46132865Y-113520977D01*
X45857983Y-113508090D01*
X45585867Y-113549078D01*
X45326977Y-113642364D01*
X45211020Y-113704344D01*
X45144040Y-113944435D01*
X45930000Y-114730395D01*
X45944143Y-114716253D01*
X46123748Y-114895858D01*
X46109605Y-114910000D01*
X46123748Y-114924143D01*
X45944143Y-115103748D01*
X45930000Y-115089605D01*
X45144040Y-115875565D01*
X45211020Y-116115656D01*
X45460048Y-116232756D01*
X45727135Y-116299023D01*
X46002017Y-116311910D01*
X46274133Y-116270922D01*
X46450000Y-116207552D01*
X46450001Y-116328223D01*
X46441338Y-116326500D01*
X46178662Y-116326500D01*
X45921032Y-116377746D01*
X45678351Y-116478268D01*
X45459943Y-116624203D01*
X45361985Y-116722161D01*
X45279494Y-116654463D01*
X45169180Y-116595498D01*
X45049482Y-116559188D01*
X44925000Y-116546928D01*
X43625000Y-116546928D01*
X43500518Y-116559188D01*
X43380820Y-116595498D01*
X43270506Y-116654463D01*
X43173815Y-116733815D01*
X43094463Y-116830506D01*
X43035498Y-116940820D01*
X42999188Y-117060518D01*
X42986928Y-117185000D01*
X42986928Y-118135000D01*
X42999188Y-118259482D01*
X43035498Y-118379180D01*
X43094463Y-118489494D01*
X43173815Y-118586185D01*
X43270506Y-118665537D01*
X43380820Y-118724502D01*
X43500518Y-118760812D01*
X43625000Y-118773072D01*
X44925000Y-118773072D01*
X45049482Y-118760812D01*
X45169180Y-118724502D01*
X45279494Y-118665537D01*
X45361985Y-118597839D01*
X45459943Y-118695797D01*
X45678351Y-118841732D01*
X45921032Y-118942254D01*
X46178662Y-118993500D01*
X46441338Y-118993500D01*
X46698968Y-118942254D01*
X46941649Y-118841732D01*
X47160057Y-118695797D01*
X47163623Y-118692231D01*
X47170000Y-118700001D01*
X47198998Y-118723799D01*
X47675000Y-119199802D01*
X47675000Y-119261939D01*
X47714774Y-119461898D01*
X47792795Y-119650256D01*
X47906063Y-119819774D01*
X48050226Y-119963937D01*
X48219744Y-120077205D01*
X48408102Y-120155226D01*
X48608061Y-120195000D01*
X48811939Y-120195000D01*
X49001302Y-120157334D01*
X49001302Y-122073707D01*
X48975026Y-122105724D01*
X48955674Y-122141928D01*
X48460000Y-122141928D01*
X48335518Y-122154188D01*
X48215820Y-122190498D01*
X48105506Y-122249463D01*
X48008815Y-122328815D01*
X47981475Y-122362128D01*
X47780983Y-122161636D01*
X47431302Y-121927987D01*
X47215698Y-121838681D01*
X47285000Y-121490279D01*
X47285000Y-121069721D01*
X47202953Y-120657244D01*
X47042012Y-120268698D01*
X46808363Y-119919017D01*
X46510983Y-119621637D01*
X46161302Y-119387988D01*
X45772756Y-119227047D01*
X45360279Y-119145000D01*
X44939721Y-119145000D01*
X44527244Y-119227047D01*
X44138698Y-119387988D01*
X43789017Y-119621637D01*
X43491637Y-119919017D01*
X43257988Y-120268698D01*
X43097047Y-120657244D01*
X43015000Y-121069721D01*
X43015000Y-121490279D01*
X43097047Y-121902756D01*
X43257988Y-122291302D01*
X43491637Y-122640983D01*
X43789017Y-122938363D01*
X44138698Y-123172012D01*
X44354302Y-123261318D01*
X44285000Y-123609720D01*
X44285000Y-124030278D01*
X44336537Y-124289373D01*
X44321588Y-124274424D01*
X43881825Y-123980583D01*
X43393186Y-123778183D01*
X42874449Y-123675000D01*
X42345551Y-123675000D01*
X41826814Y-123778183D01*
X41338175Y-123980583D01*
X40898412Y-124274424D01*
X40883463Y-124289373D01*
X40935000Y-124030279D01*
X40935000Y-123609721D01*
X40865698Y-123261318D01*
X41081302Y-123172012D01*
X41430983Y-122938363D01*
X41728363Y-122640983D01*
X41962012Y-122291302D01*
X42122953Y-121902756D01*
X42205000Y-121490279D01*
X42205000Y-121069721D01*
X42122953Y-120657244D01*
X41962012Y-120268698D01*
X41728363Y-119919017D01*
X41430983Y-119621637D01*
X41081302Y-119387988D01*
X40692756Y-119227047D01*
X40280279Y-119145000D01*
X39859721Y-119145000D01*
X39447244Y-119227047D01*
X39058698Y-119387988D01*
X38709017Y-119621637D01*
X38525002Y-119805652D01*
X38511185Y-119788815D01*
X38414494Y-119709463D01*
X38304180Y-119650498D01*
X38184482Y-119614188D01*
X38060000Y-119601928D01*
X35760000Y-119601928D01*
X35635518Y-119614188D01*
X35515820Y-119650498D01*
X35405506Y-119709463D01*
X35308815Y-119788815D01*
X35229463Y-119885506D01*
X35170498Y-119995820D01*
X35134188Y-120115518D01*
X35121928Y-120240000D01*
X35121928Y-122240000D01*
X35134188Y-122364482D01*
X35170498Y-122484180D01*
X35229463Y-122594494D01*
X35308815Y-122691185D01*
X35405506Y-122770537D01*
X35515820Y-122829502D01*
X35555455Y-122841525D01*
X35549453Y-122852755D01*
X35505996Y-122996016D01*
X35494999Y-123107669D01*
X35494999Y-123107679D01*
X35491323Y-123145001D01*
X35494999Y-123182324D01*
X35495000Y-126934669D01*
X35491323Y-126972001D01*
X35505997Y-127120986D01*
X35549453Y-127264247D01*
X35620025Y-127396277D01*
X35691200Y-127483003D01*
X35714999Y-127512002D01*
X35743997Y-127535800D01*
X39679199Y-131471003D01*
X39702997Y-131500001D01*
X39818722Y-131594974D01*
X39950751Y-131665546D01*
X40094012Y-131709003D01*
X40205665Y-131720000D01*
X40205674Y-131720000D01*
X40242997Y-131723676D01*
X40280320Y-131720000D01*
X41706289Y-131720000D01*
X41750226Y-131763937D01*
X41919744Y-131877205D01*
X42108102Y-131955226D01*
X42308061Y-131995000D01*
X42511939Y-131995000D01*
X42711898Y-131955226D01*
X42900256Y-131877205D01*
X43069774Y-131763937D01*
X43213937Y-131619774D01*
X43327205Y-131450256D01*
X43405226Y-131261898D01*
X43445000Y-131061939D01*
X43445000Y-130858061D01*
X43405226Y-130658102D01*
X43348022Y-130520000D01*
X46139680Y-130520000D01*
X46177002Y-130523676D01*
X46214324Y-130520000D01*
X46214335Y-130520000D01*
X46325988Y-130509003D01*
X46469249Y-130465546D01*
X46601278Y-130394974D01*
X46717003Y-130300001D01*
X46740806Y-130270997D01*
X47483141Y-129528662D01*
X50776500Y-129528662D01*
X50776500Y-129791338D01*
X50827746Y-130048968D01*
X50928268Y-130291649D01*
X51074203Y-130510057D01*
X51259943Y-130695797D01*
X51478351Y-130841732D01*
X51721032Y-130942254D01*
X51978662Y-130993500D01*
X52241338Y-130993500D01*
X52498968Y-130942254D01*
X52741649Y-130841732D01*
X52960057Y-130695797D01*
X53145797Y-130510057D01*
X53291732Y-130291649D01*
X53392254Y-130048968D01*
X53443500Y-129791338D01*
X53443500Y-129728662D01*
X69776500Y-129728662D01*
X69776500Y-129991338D01*
X69827746Y-130248968D01*
X69928268Y-130491649D01*
X70074203Y-130710057D01*
X70259943Y-130895797D01*
X70478351Y-131041732D01*
X70721032Y-131142254D01*
X70978662Y-131193500D01*
X71241338Y-131193500D01*
X71498968Y-131142254D01*
X71741649Y-131041732D01*
X71960057Y-130895797D01*
X72145797Y-130710057D01*
X72291732Y-130491649D01*
X72392254Y-130248968D01*
X72443500Y-129991338D01*
X72443500Y-129728662D01*
X72425598Y-129638662D01*
X88876500Y-129638662D01*
X88876500Y-129901338D01*
X88927746Y-130158968D01*
X89028268Y-130401649D01*
X89174203Y-130620057D01*
X89359943Y-130805797D01*
X89578351Y-130951732D01*
X89821032Y-131052254D01*
X90078662Y-131103500D01*
X90341338Y-131103500D01*
X90598968Y-131052254D01*
X90841649Y-130951732D01*
X91060057Y-130805797D01*
X91245797Y-130620057D01*
X91391732Y-130401649D01*
X91492254Y-130158968D01*
X91543500Y-129901338D01*
X91543500Y-129638662D01*
X91492254Y-129381032D01*
X91391732Y-129138351D01*
X91245797Y-128919943D01*
X91147839Y-128821985D01*
X91215537Y-128739494D01*
X91274502Y-128629180D01*
X91310812Y-128509482D01*
X91323072Y-128385000D01*
X91323072Y-127085000D01*
X91310812Y-126960518D01*
X91274502Y-126840820D01*
X91215537Y-126730506D01*
X91136185Y-126633815D01*
X91039494Y-126554463D01*
X90929180Y-126495498D01*
X90809482Y-126459188D01*
X90685000Y-126446928D01*
X89735000Y-126446928D01*
X89610518Y-126459188D01*
X89490820Y-126495498D01*
X89380506Y-126554463D01*
X89283815Y-126633815D01*
X89204463Y-126730506D01*
X89145498Y-126840820D01*
X89109188Y-126960518D01*
X89096928Y-127085000D01*
X89096928Y-128385000D01*
X89109188Y-128509482D01*
X89145498Y-128629180D01*
X89204463Y-128739494D01*
X89272161Y-128821985D01*
X89174203Y-128919943D01*
X89028268Y-129138351D01*
X88927746Y-129381032D01*
X88876500Y-129638662D01*
X72425598Y-129638662D01*
X72392254Y-129471032D01*
X72291732Y-129228351D01*
X72145797Y-129009943D01*
X72047839Y-128911985D01*
X72115537Y-128829494D01*
X72174502Y-128719180D01*
X72210812Y-128599482D01*
X72223072Y-128475000D01*
X72223072Y-127175000D01*
X72210812Y-127050518D01*
X72174502Y-126930820D01*
X72115537Y-126820506D01*
X72036185Y-126723815D01*
X71939494Y-126644463D01*
X71829180Y-126585498D01*
X71709482Y-126549188D01*
X71585000Y-126536928D01*
X70635000Y-126536928D01*
X70510518Y-126549188D01*
X70390820Y-126585498D01*
X70280506Y-126644463D01*
X70183815Y-126723815D01*
X70104463Y-126820506D01*
X70045498Y-126930820D01*
X70009188Y-127050518D01*
X69996928Y-127175000D01*
X69996928Y-128475000D01*
X70009188Y-128599482D01*
X70045498Y-128719180D01*
X70104463Y-128829494D01*
X70172161Y-128911985D01*
X70074203Y-129009943D01*
X69928268Y-129228351D01*
X69827746Y-129471032D01*
X69776500Y-129728662D01*
X53443500Y-129728662D01*
X53443500Y-129528662D01*
X53392254Y-129271032D01*
X53291732Y-129028351D01*
X53145797Y-128809943D01*
X53047839Y-128711985D01*
X53115537Y-128629494D01*
X53174502Y-128519180D01*
X53210812Y-128399482D01*
X53223072Y-128275000D01*
X53223072Y-126975000D01*
X53210812Y-126850518D01*
X53174502Y-126730820D01*
X53115537Y-126620506D01*
X53036185Y-126523815D01*
X52939494Y-126444463D01*
X52829180Y-126385498D01*
X52709482Y-126349188D01*
X52585000Y-126336928D01*
X51635000Y-126336928D01*
X51510518Y-126349188D01*
X51390820Y-126385498D01*
X51280506Y-126444463D01*
X51183815Y-126523815D01*
X51104463Y-126620506D01*
X51045498Y-126730820D01*
X51009188Y-126850518D01*
X50996928Y-126975000D01*
X50996928Y-128275000D01*
X51009188Y-128399482D01*
X51045498Y-128519180D01*
X51104463Y-128629494D01*
X51172161Y-128711985D01*
X51074203Y-128809943D01*
X50928268Y-129028351D01*
X50827746Y-129271032D01*
X50776500Y-129528662D01*
X47483141Y-129528662D01*
X50121004Y-126890800D01*
X50150001Y-126867003D01*
X50244974Y-126751278D01*
X50315546Y-126619249D01*
X50359003Y-126475988D01*
X50370000Y-126364335D01*
X50370000Y-126364326D01*
X50373676Y-126327003D01*
X50370000Y-126289680D01*
X50370000Y-125418072D01*
X50760000Y-125418072D01*
X50884482Y-125405812D01*
X51004180Y-125369502D01*
X51114494Y-125310537D01*
X51211185Y-125231185D01*
X51227141Y-125211742D01*
X51280506Y-125255537D01*
X51390820Y-125314502D01*
X51510518Y-125350812D01*
X51635000Y-125363072D01*
X52585000Y-125363072D01*
X52709482Y-125350812D01*
X52725615Y-125345918D01*
X52737838Y-125360812D01*
X52770000Y-125400001D01*
X52798998Y-125423799D01*
X53175000Y-125799801D01*
X53175000Y-125861939D01*
X53214774Y-126061898D01*
X53292795Y-126250256D01*
X53406063Y-126419774D01*
X53550226Y-126563937D01*
X53719744Y-126677205D01*
X53908102Y-126755226D01*
X54108061Y-126795000D01*
X54311939Y-126795000D01*
X54511898Y-126755226D01*
X54700256Y-126677205D01*
X54869774Y-126563937D01*
X54995000Y-126438711D01*
X54995000Y-126516109D01*
X55055911Y-126822327D01*
X55175391Y-127110779D01*
X55348850Y-127370379D01*
X55569621Y-127591150D01*
X55829221Y-127764609D01*
X56117673Y-127884089D01*
X56423891Y-127945000D01*
X56736109Y-127945000D01*
X57042327Y-127884089D01*
X57330779Y-127764609D01*
X57590379Y-127591150D01*
X57811150Y-127370379D01*
X57984609Y-127110779D01*
X58104089Y-126822327D01*
X58165000Y-126516109D01*
X58165000Y-126203891D01*
X58113391Y-125944435D01*
X58472756Y-125872953D01*
X58861302Y-125712012D01*
X59083748Y-125563378D01*
X59078183Y-125576814D01*
X58975000Y-126095551D01*
X58975000Y-126624449D01*
X59078183Y-127143186D01*
X59280583Y-127631825D01*
X59574424Y-128071588D01*
X59948412Y-128445576D01*
X60388175Y-128739417D01*
X60876814Y-128941817D01*
X61395551Y-129045000D01*
X61924449Y-129045000D01*
X62443186Y-128941817D01*
X62931825Y-128739417D01*
X63371588Y-128445576D01*
X63745576Y-128071588D01*
X64039417Y-127631825D01*
X64241817Y-127143186D01*
X64345000Y-126624449D01*
X64345000Y-126095551D01*
X64241817Y-125576814D01*
X64236251Y-125563377D01*
X64458698Y-125712011D01*
X64847244Y-125872952D01*
X65206610Y-125944434D01*
X65155000Y-126203891D01*
X65155000Y-126516109D01*
X65215911Y-126822327D01*
X65335391Y-127110779D01*
X65508850Y-127370379D01*
X65729621Y-127591150D01*
X65989221Y-127764609D01*
X66277673Y-127884089D01*
X66583891Y-127945000D01*
X66896109Y-127945000D01*
X67202327Y-127884089D01*
X67490779Y-127764609D01*
X67750379Y-127591150D01*
X67971150Y-127370379D01*
X68144609Y-127110779D01*
X68264089Y-126822327D01*
X68325000Y-126516109D01*
X68325000Y-126203891D01*
X68264089Y-125897673D01*
X68144609Y-125609221D01*
X68016887Y-125418072D01*
X69810000Y-125418072D01*
X69934482Y-125405812D01*
X70054180Y-125369502D01*
X70140475Y-125323375D01*
X70183815Y-125376185D01*
X70280506Y-125455537D01*
X70390820Y-125514502D01*
X70510518Y-125550812D01*
X70635000Y-125563072D01*
X71585000Y-125563072D01*
X71709482Y-125550812D01*
X71829180Y-125514502D01*
X71939494Y-125455537D01*
X72036185Y-125376185D01*
X72115537Y-125279494D01*
X72174502Y-125169180D01*
X72210812Y-125049482D01*
X72223072Y-124925000D01*
X72223072Y-123625000D01*
X72210812Y-123500518D01*
X72193634Y-123443891D01*
X72259685Y-123389685D01*
X72339037Y-123292994D01*
X72398002Y-123182680D01*
X72434312Y-123062982D01*
X72446572Y-122938500D01*
X72446572Y-121541500D01*
X72434312Y-121417018D01*
X72398002Y-121297320D01*
X72339037Y-121187006D01*
X72259685Y-121090315D01*
X72162994Y-121010963D01*
X72052680Y-120951998D01*
X71932982Y-120915688D01*
X71808500Y-120903428D01*
X70411500Y-120903428D01*
X70287018Y-120915688D01*
X70167320Y-120951998D01*
X70057006Y-121010963D01*
X69960315Y-121090315D01*
X69880963Y-121187006D01*
X69821998Y-121297320D01*
X69785688Y-121417018D01*
X69773428Y-121541500D01*
X69773428Y-122141928D01*
X69314326Y-122141928D01*
X69294974Y-122105724D01*
X69248194Y-122048722D01*
X69223799Y-122018996D01*
X69223795Y-122018992D01*
X69200001Y-121989999D01*
X69171009Y-121966206D01*
X64799800Y-117594999D01*
X69170198Y-117594999D01*
X71675000Y-120099802D01*
X71675000Y-120161939D01*
X71714774Y-120361898D01*
X71792795Y-120550256D01*
X71906063Y-120719774D01*
X72050226Y-120863937D01*
X72219744Y-120977205D01*
X72408102Y-121055226D01*
X72550001Y-121083451D01*
X72550000Y-126056289D01*
X72506063Y-126100226D01*
X72392795Y-126269744D01*
X72314774Y-126458102D01*
X72275000Y-126658061D01*
X72275000Y-126861939D01*
X72314774Y-127061898D01*
X72392795Y-127250256D01*
X72506063Y-127419774D01*
X72650226Y-127563937D01*
X72819744Y-127677205D01*
X73008102Y-127755226D01*
X73208061Y-127795000D01*
X73411939Y-127795000D01*
X73611898Y-127755226D01*
X73800256Y-127677205D01*
X73969774Y-127563937D01*
X74113937Y-127419774D01*
X74227205Y-127250256D01*
X74262175Y-127165831D01*
X74398850Y-127370379D01*
X74619621Y-127591150D01*
X74879221Y-127764609D01*
X75167673Y-127884089D01*
X75473891Y-127945000D01*
X75786109Y-127945000D01*
X76092327Y-127884089D01*
X76380779Y-127764609D01*
X76640379Y-127591150D01*
X76861150Y-127370379D01*
X77034609Y-127110779D01*
X77154089Y-126822327D01*
X77215000Y-126516109D01*
X77215000Y-126203891D01*
X77163391Y-125944435D01*
X77522756Y-125872953D01*
X77911302Y-125712012D01*
X78133748Y-125563378D01*
X78128183Y-125576814D01*
X78025000Y-126095551D01*
X78025000Y-126624449D01*
X78128183Y-127143186D01*
X78330583Y-127631825D01*
X78624424Y-128071588D01*
X78998412Y-128445576D01*
X79438175Y-128739417D01*
X79926814Y-128941817D01*
X80445551Y-129045000D01*
X80974449Y-129045000D01*
X81493186Y-128941817D01*
X81981825Y-128739417D01*
X82421588Y-128445576D01*
X82795576Y-128071588D01*
X83089417Y-127631825D01*
X83291817Y-127143186D01*
X83395000Y-126624449D01*
X83395000Y-126095551D01*
X83291817Y-125576814D01*
X83286251Y-125563377D01*
X83508698Y-125712011D01*
X83897244Y-125872952D01*
X84256610Y-125944434D01*
X84205000Y-126203891D01*
X84205000Y-126516109D01*
X84265911Y-126822327D01*
X84385391Y-127110779D01*
X84558850Y-127370379D01*
X84779621Y-127591150D01*
X85039221Y-127764609D01*
X85327673Y-127884089D01*
X85633891Y-127945000D01*
X85946109Y-127945000D01*
X86252327Y-127884089D01*
X86540779Y-127764609D01*
X86800379Y-127591150D01*
X87021150Y-127370379D01*
X87194609Y-127110779D01*
X87314089Y-126822327D01*
X87375000Y-126516109D01*
X87375000Y-126203891D01*
X87314089Y-125897673D01*
X87194609Y-125609221D01*
X87066887Y-125418072D01*
X88860000Y-125418072D01*
X88984482Y-125405812D01*
X89104180Y-125369502D01*
X89214494Y-125310537D01*
X89267859Y-125266742D01*
X89283815Y-125286185D01*
X89380506Y-125365537D01*
X89490820Y-125424502D01*
X89610518Y-125460812D01*
X89735000Y-125473072D01*
X90685000Y-125473072D01*
X90809482Y-125460812D01*
X90929180Y-125424502D01*
X91039494Y-125365537D01*
X91136185Y-125286185D01*
X91215537Y-125189494D01*
X91274502Y-125079180D01*
X91310812Y-124959482D01*
X91323072Y-124835000D01*
X91323072Y-123535000D01*
X91310812Y-123410518D01*
X91293634Y-123353891D01*
X91359685Y-123299685D01*
X91439037Y-123202994D01*
X91498002Y-123092680D01*
X91534312Y-122972982D01*
X91546572Y-122848500D01*
X91546572Y-121451500D01*
X91534312Y-121327018D01*
X91498002Y-121207320D01*
X91439037Y-121097006D01*
X91359685Y-121000315D01*
X91262994Y-120920963D01*
X91152680Y-120861998D01*
X91032982Y-120825688D01*
X90908500Y-120813428D01*
X89511500Y-120813428D01*
X89387018Y-120825688D01*
X89267320Y-120861998D01*
X89157006Y-120920963D01*
X89060315Y-121000315D01*
X88980963Y-121097006D01*
X88921998Y-121207320D01*
X88885688Y-121327018D01*
X88873428Y-121451500D01*
X88873428Y-122143250D01*
X88860000Y-122141928D01*
X88364326Y-122141928D01*
X88344974Y-122105724D01*
X88298194Y-122048722D01*
X88273799Y-122018996D01*
X88273795Y-122018992D01*
X88250001Y-121989999D01*
X88221009Y-121966206D01*
X83303804Y-117049003D01*
X83280001Y-117019999D01*
X83164276Y-116925026D01*
X83032247Y-116854454D01*
X82888986Y-116810997D01*
X82777333Y-116800000D01*
X82777322Y-116800000D01*
X82740000Y-116796324D01*
X82702678Y-116800000D01*
X81470000Y-116800000D01*
X81470000Y-114363711D01*
X81513937Y-114319774D01*
X81627205Y-114150256D01*
X81705226Y-113961898D01*
X81745000Y-113761939D01*
X81745000Y-113558061D01*
X81705226Y-113358102D01*
X81627205Y-113169744D01*
X81513937Y-113000226D01*
X81369774Y-112856063D01*
X81200256Y-112742795D01*
X81011898Y-112664774D01*
X80811939Y-112625000D01*
X80608061Y-112625000D01*
X80408102Y-112664774D01*
X80219744Y-112742795D01*
X80050226Y-112856063D01*
X79906063Y-113000226D01*
X79792795Y-113169744D01*
X79714774Y-113358102D01*
X79675000Y-113558061D01*
X79675000Y-113761939D01*
X79714774Y-113961898D01*
X79792795Y-114150256D01*
X79906063Y-114319774D01*
X79950000Y-114363711D01*
X79950001Y-116856288D01*
X79906063Y-116900226D01*
X79792795Y-117069744D01*
X79714774Y-117258102D01*
X79675000Y-117458061D01*
X79675000Y-117661939D01*
X79714774Y-117861898D01*
X79771978Y-118000000D01*
X76277325Y-118000000D01*
X76240000Y-117996324D01*
X76202675Y-118000000D01*
X76202667Y-118000000D01*
X76091014Y-118010997D01*
X75947753Y-118054454D01*
X75815724Y-118125026D01*
X75699999Y-118219999D01*
X75676201Y-118248997D01*
X74498998Y-119426201D01*
X74470000Y-119449999D01*
X74446202Y-119478997D01*
X74446201Y-119478998D01*
X74375026Y-119565724D01*
X74355674Y-119601928D01*
X74187837Y-119601928D01*
X74184004Y-119563013D01*
X74140547Y-119419752D01*
X74069975Y-119287723D01*
X73975002Y-119171998D01*
X73946004Y-119148200D01*
X70446806Y-115649003D01*
X70423003Y-115619999D01*
X70307278Y-115525026D01*
X70175249Y-115454454D01*
X70031988Y-115410997D01*
X69920335Y-115400000D01*
X69920324Y-115400000D01*
X69883002Y-115396324D01*
X69845680Y-115400000D01*
X67559137Y-115400000D01*
X67593314Y-115317490D01*
X67647000Y-115047592D01*
X67647000Y-114772408D01*
X67593314Y-114502510D01*
X67488005Y-114248273D01*
X67335120Y-114019465D01*
X67140535Y-113824880D01*
X66911727Y-113671995D01*
X66657490Y-113566686D01*
X66387592Y-113513000D01*
X66112408Y-113513000D01*
X65842510Y-113566686D01*
X65588273Y-113671995D01*
X65359465Y-113824880D01*
X65164880Y-114019465D01*
X65011995Y-114248273D01*
X64980000Y-114325515D01*
X64948005Y-114248273D01*
X64795120Y-114019465D01*
X64600535Y-113824880D01*
X64371727Y-113671995D01*
X64117490Y-113566686D01*
X63847592Y-113513000D01*
X63572408Y-113513000D01*
X63302510Y-113566686D01*
X63048273Y-113671995D01*
X62819465Y-113824880D01*
X62624880Y-114019465D01*
X62471995Y-114248273D01*
X62440000Y-114325515D01*
X62408005Y-114248273D01*
X62255120Y-114019465D01*
X62060535Y-113824880D01*
X61831727Y-113671995D01*
X61577490Y-113566686D01*
X61307592Y-113513000D01*
X61032408Y-113513000D01*
X60762510Y-113566686D01*
X60562272Y-113649628D01*
X60550001Y-113634675D01*
X60521004Y-113610878D01*
X58610000Y-111699875D01*
X58610000Y-111338662D01*
X69876500Y-111338662D01*
X69876500Y-111601338D01*
X69927746Y-111858968D01*
X70028268Y-112101649D01*
X70174203Y-112320057D01*
X70359943Y-112505797D01*
X70578351Y-112651732D01*
X70821032Y-112752254D01*
X71078662Y-112803500D01*
X71341338Y-112803500D01*
X71598968Y-112752254D01*
X71841649Y-112651732D01*
X72060057Y-112505797D01*
X72245797Y-112320057D01*
X72391732Y-112101649D01*
X72492254Y-111858968D01*
X72543500Y-111601338D01*
X72543500Y-111338662D01*
X72492254Y-111081032D01*
X72391732Y-110838351D01*
X72245797Y-110619943D01*
X72147839Y-110521985D01*
X72215537Y-110439494D01*
X72274502Y-110329180D01*
X72310812Y-110209482D01*
X72323072Y-110085000D01*
X72323072Y-108785000D01*
X72310812Y-108660518D01*
X72274502Y-108540820D01*
X72215537Y-108430506D01*
X72136185Y-108333815D01*
X72039494Y-108254463D01*
X71929180Y-108195498D01*
X71809482Y-108159188D01*
X71685000Y-108146928D01*
X70735000Y-108146928D01*
X70610518Y-108159188D01*
X70490820Y-108195498D01*
X70380506Y-108254463D01*
X70283815Y-108333815D01*
X70204463Y-108430506D01*
X70145498Y-108540820D01*
X70109188Y-108660518D01*
X70096928Y-108785000D01*
X70096928Y-110085000D01*
X70109188Y-110209482D01*
X70145498Y-110329180D01*
X70204463Y-110439494D01*
X70272161Y-110521985D01*
X70174203Y-110619943D01*
X70028268Y-110838351D01*
X69927746Y-111081032D01*
X69876500Y-111338662D01*
X58610000Y-111338662D01*
X58610000Y-107050475D01*
X59025000Y-107050475D01*
X59025000Y-107569525D01*
X59126261Y-108078601D01*
X59324893Y-108558141D01*
X59613262Y-108989715D01*
X59980285Y-109356738D01*
X60411859Y-109645107D01*
X60891399Y-109843739D01*
X61400475Y-109945000D01*
X61919525Y-109945000D01*
X62428601Y-109843739D01*
X62908141Y-109645107D01*
X63339715Y-109356738D01*
X63706738Y-108989715D01*
X63995107Y-108558141D01*
X64193739Y-108078601D01*
X64295000Y-107569525D01*
X64295000Y-107153891D01*
X65575000Y-107153891D01*
X65575000Y-107466109D01*
X65635911Y-107772327D01*
X65755391Y-108060779D01*
X65928850Y-108320379D01*
X66149621Y-108541150D01*
X66409221Y-108714609D01*
X66697673Y-108834089D01*
X67003891Y-108895000D01*
X67316109Y-108895000D01*
X67622327Y-108834089D01*
X67910779Y-108714609D01*
X68170379Y-108541150D01*
X68391150Y-108320379D01*
X68564609Y-108060779D01*
X68684089Y-107772327D01*
X68745000Y-107466109D01*
X68745000Y-107153891D01*
X68684089Y-106847673D01*
X68564609Y-106559221D01*
X68391150Y-106299621D01*
X68170379Y-106078850D01*
X67910779Y-105905391D01*
X67622327Y-105785911D01*
X67316109Y-105725000D01*
X67003891Y-105725000D01*
X66697673Y-105785911D01*
X66409221Y-105905391D01*
X66149621Y-106078850D01*
X65928850Y-106299621D01*
X65755391Y-106559221D01*
X65635911Y-106847673D01*
X65575000Y-107153891D01*
X64295000Y-107153891D01*
X64295000Y-107050475D01*
X64193739Y-106541399D01*
X63995107Y-106061859D01*
X63706738Y-105630285D01*
X63339715Y-105263262D01*
X62908141Y-104974893D01*
X62428601Y-104776261D01*
X61919525Y-104675000D01*
X61400475Y-104675000D01*
X60891399Y-104776261D01*
X60411859Y-104974893D01*
X59980285Y-105263262D01*
X59613262Y-105630285D01*
X59324893Y-106061859D01*
X59126261Y-106541399D01*
X59025000Y-107050475D01*
X58610000Y-107050475D01*
X58610000Y-106323864D01*
X58728715Y-106287852D01*
X59012752Y-106136031D01*
X59261714Y-105931714D01*
X59466031Y-105682752D01*
X59617852Y-105398715D01*
X59711343Y-105090516D01*
X59742911Y-104770000D01*
X59711343Y-104449484D01*
X59617852Y-104141285D01*
X59466031Y-103857248D01*
X59261714Y-103608286D01*
X59012752Y-103403969D01*
X58728715Y-103252148D01*
X58420516Y-103158657D01*
X58413035Y-103157920D01*
X59940956Y-101630000D01*
X62423437Y-101630000D01*
X62338657Y-101909484D01*
X62307089Y-102230000D01*
X62338657Y-102550516D01*
X62432148Y-102858715D01*
X62583969Y-103142752D01*
X62788286Y-103391714D01*
X63037248Y-103596031D01*
X63321285Y-103747852D01*
X63629484Y-103841343D01*
X63869678Y-103865000D01*
X64530322Y-103865000D01*
X64770516Y-103841343D01*
X65078715Y-103747852D01*
X65362752Y-103596031D01*
X65611714Y-103391714D01*
X65808851Y-103151500D01*
X69873428Y-103151500D01*
X69873428Y-104548500D01*
X69885688Y-104672982D01*
X69921998Y-104792680D01*
X69980963Y-104902994D01*
X70060315Y-104999685D01*
X70126366Y-105053891D01*
X70109188Y-105110518D01*
X70096928Y-105235000D01*
X70096928Y-106535000D01*
X70109188Y-106659482D01*
X70145498Y-106779180D01*
X70204463Y-106889494D01*
X70283815Y-106986185D01*
X70380506Y-107065537D01*
X70490820Y-107124502D01*
X70610518Y-107160812D01*
X70735000Y-107173072D01*
X71685000Y-107173072D01*
X71809482Y-107160812D01*
X71929180Y-107124502D01*
X72039494Y-107065537D01*
X72136185Y-106986185D01*
X72215537Y-106889494D01*
X72274502Y-106779180D01*
X72310812Y-106659482D01*
X72323072Y-106535000D01*
X72323072Y-105235000D01*
X72310812Y-105110518D01*
X72293634Y-105053891D01*
X72359685Y-104999685D01*
X72439037Y-104902994D01*
X72498002Y-104792680D01*
X72534312Y-104672982D01*
X72546572Y-104548500D01*
X72546572Y-103151500D01*
X72534312Y-103027018D01*
X72498002Y-102907320D01*
X72439037Y-102797006D01*
X72359685Y-102700315D01*
X72262994Y-102620963D01*
X72152680Y-102561998D01*
X72032982Y-102525688D01*
X71908500Y-102513428D01*
X70511500Y-102513428D01*
X70387018Y-102525688D01*
X70267320Y-102561998D01*
X70157006Y-102620963D01*
X70060315Y-102700315D01*
X69980963Y-102797006D01*
X69921998Y-102907320D01*
X69885688Y-103027018D01*
X69873428Y-103151500D01*
X65808851Y-103151500D01*
X65816031Y-103142752D01*
X65967852Y-102858715D01*
X66061343Y-102550516D01*
X66092911Y-102230000D01*
X66061343Y-101909484D01*
X65967852Y-101601285D01*
X65816031Y-101317248D01*
X65744597Y-101230205D01*
X65925066Y-101049735D01*
X66112408Y-101087000D01*
X66387592Y-101087000D01*
X66657490Y-101033314D01*
X66911727Y-100928005D01*
X67140535Y-100775120D01*
X67335120Y-100580535D01*
X67488005Y-100351727D01*
X67593314Y-100097490D01*
X67647000Y-99827592D01*
X67647000Y-99552408D01*
X67593314Y-99282510D01*
X67488005Y-99028273D01*
X67335120Y-98799465D01*
X67255656Y-98720001D01*
X79838841Y-98720001D01*
X79871978Y-98800000D01*
X76427325Y-98800000D01*
X76390000Y-98796324D01*
X76352675Y-98800000D01*
X76352667Y-98800000D01*
X76241014Y-98810997D01*
X76097753Y-98854454D01*
X75965724Y-98925026D01*
X75849999Y-99019999D01*
X75826201Y-99048997D01*
X74498998Y-100376201D01*
X74470000Y-100399999D01*
X74446202Y-100428997D01*
X74446201Y-100428998D01*
X74375026Y-100515724D01*
X74355674Y-100551928D01*
X73860000Y-100551928D01*
X73735518Y-100564188D01*
X73615820Y-100600498D01*
X73505506Y-100659463D01*
X73408815Y-100738815D01*
X73329463Y-100835506D01*
X73270498Y-100945820D01*
X73234188Y-101065518D01*
X73221928Y-101190000D01*
X73221928Y-103190000D01*
X73234188Y-103314482D01*
X73270498Y-103434180D01*
X73329463Y-103544494D01*
X73408815Y-103641185D01*
X73505506Y-103720537D01*
X73615820Y-103779502D01*
X73735518Y-103815812D01*
X73860000Y-103828072D01*
X74979252Y-103828072D01*
X74847047Y-104147244D01*
X74765000Y-104559721D01*
X74765000Y-104980279D01*
X74847047Y-105392756D01*
X75007988Y-105781302D01*
X75045015Y-105836717D01*
X74879221Y-105905391D01*
X74619621Y-106078850D01*
X74398850Y-106299621D01*
X74225391Y-106559221D01*
X74105911Y-106847673D01*
X74045000Y-107153891D01*
X74045000Y-107466109D01*
X74105911Y-107772327D01*
X74225391Y-108060779D01*
X74398850Y-108320379D01*
X74619621Y-108541150D01*
X74879221Y-108714609D01*
X75167673Y-108834089D01*
X75473891Y-108895000D01*
X75786109Y-108895000D01*
X76092327Y-108834089D01*
X76380779Y-108714609D01*
X76640379Y-108541150D01*
X76861150Y-108320379D01*
X77034609Y-108060779D01*
X77154089Y-107772327D01*
X77215000Y-107466109D01*
X77215000Y-107153891D01*
X77163391Y-106894435D01*
X77522756Y-106822953D01*
X77911302Y-106662012D01*
X78133748Y-106513378D01*
X78128183Y-106526814D01*
X78025000Y-107045551D01*
X78025000Y-107574449D01*
X78128183Y-108093186D01*
X78330583Y-108581825D01*
X78624424Y-109021588D01*
X78998412Y-109395576D01*
X79438175Y-109689417D01*
X79926814Y-109891817D01*
X80445551Y-109995000D01*
X80974449Y-109995000D01*
X81493186Y-109891817D01*
X81981825Y-109689417D01*
X82421588Y-109395576D01*
X82795576Y-109021588D01*
X83089417Y-108581825D01*
X83291817Y-108093186D01*
X83395000Y-107574449D01*
X83395000Y-107045551D01*
X83291817Y-106526814D01*
X83286251Y-106513377D01*
X83508698Y-106662011D01*
X83897244Y-106822952D01*
X84256610Y-106894434D01*
X84205000Y-107153891D01*
X84205000Y-107466109D01*
X84265911Y-107772327D01*
X84385391Y-108060779D01*
X84558850Y-108320379D01*
X84779621Y-108541150D01*
X85039221Y-108714609D01*
X85327673Y-108834089D01*
X85633891Y-108895000D01*
X85946109Y-108895000D01*
X86252327Y-108834089D01*
X86540779Y-108714609D01*
X86800379Y-108541150D01*
X86950001Y-108391528D01*
X86950001Y-110347450D01*
X86946324Y-110384782D01*
X86950001Y-110422115D01*
X86960998Y-110533768D01*
X86961372Y-110535000D01*
X87004454Y-110677028D01*
X87075026Y-110809058D01*
X87146201Y-110895784D01*
X87170000Y-110924783D01*
X87198998Y-110948581D01*
X94421418Y-118171002D01*
X94445217Y-118200001D01*
X94474215Y-118223799D01*
X94560941Y-118294974D01*
X94637120Y-118335693D01*
X94626201Y-118348997D01*
X93548998Y-119426201D01*
X93520000Y-119449999D01*
X93496202Y-119478997D01*
X93496201Y-119478998D01*
X93425026Y-119565724D01*
X93405674Y-119601928D01*
X92910000Y-119601928D01*
X92785518Y-119614188D01*
X92665820Y-119650498D01*
X92555506Y-119709463D01*
X92458815Y-119788815D01*
X92379463Y-119885506D01*
X92320498Y-119995820D01*
X92284188Y-120115518D01*
X92271928Y-120240000D01*
X92271928Y-122240000D01*
X92284188Y-122364482D01*
X92320498Y-122484180D01*
X92379463Y-122594494D01*
X92458815Y-122691185D01*
X92555506Y-122770537D01*
X92665820Y-122829502D01*
X92785518Y-122865812D01*
X92910000Y-122878072D01*
X94029252Y-122878072D01*
X93897047Y-123197244D01*
X93815000Y-123609721D01*
X93815000Y-124030279D01*
X93897047Y-124442756D01*
X94057988Y-124831302D01*
X94095015Y-124886717D01*
X93929221Y-124955391D01*
X93669621Y-125128850D01*
X93448850Y-125349621D01*
X93275391Y-125609221D01*
X93155911Y-125897673D01*
X93095000Y-126203891D01*
X93095000Y-126516109D01*
X93155911Y-126822327D01*
X93275391Y-127110779D01*
X93448850Y-127370379D01*
X93669621Y-127591150D01*
X93929221Y-127764609D01*
X94217673Y-127884089D01*
X94523891Y-127945000D01*
X94836109Y-127945000D01*
X95142327Y-127884089D01*
X95430779Y-127764609D01*
X95690379Y-127591150D01*
X95911150Y-127370379D01*
X96084609Y-127110779D01*
X96204089Y-126822327D01*
X96265000Y-126516109D01*
X96265000Y-126203891D01*
X96213391Y-125944435D01*
X96572756Y-125872953D01*
X96961302Y-125712012D01*
X97183748Y-125563378D01*
X97178183Y-125576814D01*
X97075000Y-126095551D01*
X97075000Y-126624449D01*
X97178183Y-127143186D01*
X97380583Y-127631825D01*
X97674424Y-128071588D01*
X98048412Y-128445576D01*
X98488175Y-128739417D01*
X98976814Y-128941817D01*
X99495551Y-129045000D01*
X100024449Y-129045000D01*
X100543186Y-128941817D01*
X101031825Y-128739417D01*
X101471588Y-128445576D01*
X101845576Y-128071588D01*
X102139417Y-127631825D01*
X102341817Y-127143186D01*
X102445000Y-126624449D01*
X102445000Y-126095551D01*
X102341817Y-125576814D01*
X102336251Y-125563377D01*
X102558698Y-125712011D01*
X102947244Y-125872952D01*
X103306610Y-125944434D01*
X103255000Y-126203891D01*
X103255000Y-126516109D01*
X103315911Y-126822327D01*
X103435391Y-127110779D01*
X103608850Y-127370379D01*
X103829621Y-127591150D01*
X104089221Y-127764609D01*
X104377673Y-127884089D01*
X104683891Y-127945000D01*
X104996109Y-127945000D01*
X105302327Y-127884089D01*
X105590779Y-127764609D01*
X105850379Y-127591150D01*
X106000000Y-127441529D01*
X106000000Y-128587459D01*
X105996324Y-128624782D01*
X106000000Y-128662104D01*
X106000000Y-128662114D01*
X106010997Y-128773767D01*
X106038521Y-128864502D01*
X106054454Y-128917028D01*
X106125026Y-129049058D01*
X106137701Y-129064502D01*
X106219999Y-129164783D01*
X106249003Y-129188586D01*
X108731418Y-131671002D01*
X108755217Y-131700001D01*
X108870942Y-131794974D01*
X109002971Y-131865546D01*
X109146232Y-131909003D01*
X109257885Y-131920000D01*
X109257893Y-131920000D01*
X109295218Y-131923676D01*
X109332543Y-131920000D01*
X146885536Y-131920000D01*
X146638169Y-132022463D01*
X146354002Y-132212337D01*
X146112337Y-132454002D01*
X145922463Y-132738169D01*
X145791675Y-133053919D01*
X145725000Y-133389117D01*
X145725000Y-133730883D01*
X145791675Y-134066081D01*
X145922463Y-134381831D01*
X146112337Y-134665998D01*
X146354002Y-134907663D01*
X146638169Y-135097537D01*
X146854033Y-135186951D01*
X52692887Y-135183080D01*
X52971831Y-135067537D01*
X53255998Y-134877663D01*
X53497663Y-134635998D01*
X53687537Y-134351831D01*
X53818325Y-134036081D01*
X53885000Y-133700883D01*
X53885000Y-133359117D01*
X53818325Y-133023919D01*
X53687537Y-132708169D01*
X53497663Y-132424002D01*
X53255998Y-132182337D01*
X52971831Y-131992463D01*
X52656081Y-131861675D01*
X52320883Y-131795000D01*
X51979117Y-131795000D01*
X51643919Y-131861675D01*
X51328169Y-131992463D01*
X51044002Y-132182337D01*
X50802337Y-132424002D01*
X50612463Y-132708169D01*
X50481675Y-133023919D01*
X50415000Y-133359117D01*
X50415000Y-133700883D01*
X50481675Y-134036081D01*
X50612463Y-134351831D01*
X50802337Y-134635998D01*
X51044002Y-134877663D01*
X51328169Y-135067537D01*
X51607006Y-135183035D01*
X35645492Y-135182379D01*
X35250219Y-135141930D01*
X34900008Y-135034574D01*
X34577319Y-134861240D01*
X34294445Y-134628529D01*
X34062160Y-134345310D01*
X33889309Y-134022365D01*
X33782477Y-133671997D01*
X33742561Y-133276092D01*
X33743356Y-116961500D01*
X37353428Y-116961500D01*
X37353428Y-118358500D01*
X37365688Y-118482982D01*
X37401998Y-118602680D01*
X37460963Y-118712994D01*
X37540315Y-118809685D01*
X37637006Y-118889037D01*
X37747320Y-118948002D01*
X37867018Y-118984312D01*
X37991500Y-118996572D01*
X39388500Y-118996572D01*
X39512982Y-118984312D01*
X39632680Y-118948002D01*
X39742994Y-118889037D01*
X39839685Y-118809685D01*
X39893891Y-118743634D01*
X39950518Y-118760812D01*
X40075000Y-118773072D01*
X41375000Y-118773072D01*
X41499482Y-118760812D01*
X41619180Y-118724502D01*
X41729494Y-118665537D01*
X41826185Y-118586185D01*
X41905537Y-118489494D01*
X41964502Y-118379180D01*
X42000812Y-118259482D01*
X42013072Y-118135000D01*
X42013072Y-117185000D01*
X42000812Y-117060518D01*
X41964502Y-116940820D01*
X41905537Y-116830506D01*
X41826185Y-116733815D01*
X41729494Y-116654463D01*
X41619180Y-116595498D01*
X41499482Y-116559188D01*
X41375000Y-116546928D01*
X40075000Y-116546928D01*
X39950518Y-116559188D01*
X39893891Y-116576366D01*
X39839685Y-116510315D01*
X39742994Y-116430963D01*
X39632680Y-116371998D01*
X39512982Y-116335688D01*
X39388500Y-116323428D01*
X37991500Y-116323428D01*
X37867018Y-116335688D01*
X37747320Y-116371998D01*
X37637006Y-116430963D01*
X37540315Y-116510315D01*
X37460963Y-116607006D01*
X37401998Y-116717320D01*
X37365688Y-116837018D01*
X37353428Y-116961500D01*
X33743356Y-116961500D01*
X33743463Y-114772408D01*
X36913000Y-114772408D01*
X36913000Y-115047592D01*
X36966686Y-115317490D01*
X37071995Y-115571727D01*
X37224880Y-115800535D01*
X37419465Y-115995120D01*
X37648273Y-116148005D01*
X37902510Y-116253314D01*
X38172408Y-116307000D01*
X38447592Y-116307000D01*
X38717490Y-116253314D01*
X38971727Y-116148005D01*
X39200535Y-115995120D01*
X39395120Y-115800535D01*
X39548005Y-115571727D01*
X39580000Y-115494485D01*
X39611995Y-115571727D01*
X39764880Y-115800535D01*
X39959465Y-115995120D01*
X40188273Y-116148005D01*
X40442510Y-116253314D01*
X40712408Y-116307000D01*
X40987592Y-116307000D01*
X41257490Y-116253314D01*
X41511727Y-116148005D01*
X41740535Y-115995120D01*
X41860090Y-115875565D01*
X42604040Y-115875565D01*
X42671020Y-116115656D01*
X42920048Y-116232756D01*
X43187135Y-116299023D01*
X43462017Y-116311910D01*
X43734133Y-116270922D01*
X43993023Y-116177636D01*
X44108980Y-116115656D01*
X44175960Y-115875565D01*
X43390000Y-115089605D01*
X42604040Y-115875565D01*
X41860090Y-115875565D01*
X41935120Y-115800535D01*
X42088005Y-115571727D01*
X42117692Y-115500057D01*
X42122364Y-115513023D01*
X42184344Y-115628980D01*
X42424435Y-115695960D01*
X43210395Y-114910000D01*
X43569605Y-114910000D01*
X44355565Y-115695960D01*
X44595656Y-115628980D01*
X44657079Y-115498356D01*
X44662364Y-115513023D01*
X44724344Y-115628980D01*
X44964435Y-115695960D01*
X45750395Y-114910000D01*
X44964435Y-114124040D01*
X44724344Y-114191020D01*
X44662921Y-114321644D01*
X44657636Y-114306977D01*
X44595656Y-114191020D01*
X44355565Y-114124040D01*
X43569605Y-114910000D01*
X43210395Y-114910000D01*
X42424435Y-114124040D01*
X42184344Y-114191020D01*
X42120515Y-114326760D01*
X42088005Y-114248273D01*
X41935120Y-114019465D01*
X41860090Y-113944435D01*
X42604040Y-113944435D01*
X43390000Y-114730395D01*
X44175960Y-113944435D01*
X44108980Y-113704344D01*
X43859952Y-113587244D01*
X43592865Y-113520977D01*
X43317983Y-113508090D01*
X43045867Y-113549078D01*
X42786977Y-113642364D01*
X42671020Y-113704344D01*
X42604040Y-113944435D01*
X41860090Y-113944435D01*
X41740535Y-113824880D01*
X41511727Y-113671995D01*
X41394379Y-113623388D01*
X41481714Y-113551714D01*
X41686031Y-113302752D01*
X41837852Y-113018715D01*
X41931343Y-112710516D01*
X41962911Y-112390000D01*
X41931343Y-112069484D01*
X41837852Y-111761285D01*
X41686031Y-111477248D01*
X41481714Y-111228286D01*
X41232752Y-111023969D01*
X40948715Y-110872148D01*
X40640516Y-110778657D01*
X40400322Y-110755000D01*
X39739678Y-110755000D01*
X39499484Y-110778657D01*
X39191285Y-110872148D01*
X38907248Y-111023969D01*
X38658286Y-111228286D01*
X38453969Y-111477248D01*
X38302148Y-111761285D01*
X38208657Y-112069484D01*
X38177089Y-112390000D01*
X38208657Y-112710516D01*
X38302148Y-113018715D01*
X38453969Y-113302752D01*
X38658286Y-113551714D01*
X38663426Y-113555932D01*
X38447592Y-113513000D01*
X38172408Y-113513000D01*
X37902510Y-113566686D01*
X37648273Y-113671995D01*
X37419465Y-113824880D01*
X37224880Y-114019465D01*
X37071995Y-114248273D01*
X36966686Y-114502510D01*
X36913000Y-114772408D01*
X33743463Y-114772408D01*
X33743835Y-107153891D01*
X35525000Y-107153891D01*
X35525000Y-107466109D01*
X35585911Y-107772327D01*
X35705391Y-108060779D01*
X35878850Y-108320379D01*
X36099621Y-108541150D01*
X36359221Y-108714609D01*
X36647673Y-108834089D01*
X36953891Y-108895000D01*
X37266109Y-108895000D01*
X37572327Y-108834089D01*
X37860779Y-108714609D01*
X38120379Y-108541150D01*
X38341150Y-108320379D01*
X38514609Y-108060779D01*
X38634089Y-107772327D01*
X38695000Y-107466109D01*
X38695000Y-107153891D01*
X38674430Y-107050475D01*
X39975000Y-107050475D01*
X39975000Y-107569525D01*
X40076261Y-108078601D01*
X40274893Y-108558141D01*
X40563262Y-108989715D01*
X40930285Y-109356738D01*
X41361859Y-109645107D01*
X41841399Y-109843739D01*
X42350475Y-109945000D01*
X42869525Y-109945000D01*
X43378601Y-109843739D01*
X43858141Y-109645107D01*
X44289715Y-109356738D01*
X44656738Y-108989715D01*
X44945107Y-108558141D01*
X45143739Y-108078601D01*
X45245000Y-107569525D01*
X45245000Y-107050475D01*
X45143739Y-106541399D01*
X44945107Y-106061859D01*
X44656738Y-105630285D01*
X44289715Y-105263262D01*
X43858141Y-104974893D01*
X43378601Y-104776261D01*
X42869525Y-104675000D01*
X42350475Y-104675000D01*
X41841399Y-104776261D01*
X41361859Y-104974893D01*
X40930285Y-105263262D01*
X40563262Y-105630285D01*
X40274893Y-106061859D01*
X40076261Y-106541399D01*
X39975000Y-107050475D01*
X38674430Y-107050475D01*
X38634089Y-106847673D01*
X38514609Y-106559221D01*
X38341150Y-106299621D01*
X38120379Y-106078850D01*
X37860779Y-105905391D01*
X37572327Y-105785911D01*
X37266109Y-105725000D01*
X36953891Y-105725000D01*
X36647673Y-105785911D01*
X36359221Y-105905391D01*
X36099621Y-106078850D01*
X35878850Y-106299621D01*
X35705391Y-106559221D01*
X35585911Y-106847673D01*
X35525000Y-107153891D01*
X33743835Y-107153891D01*
X33744205Y-99552408D01*
X36913000Y-99552408D01*
X36913000Y-99827592D01*
X36966686Y-100097490D01*
X37071995Y-100351727D01*
X37224880Y-100580535D01*
X37419465Y-100775120D01*
X37648273Y-100928005D01*
X37902510Y-101033314D01*
X38172408Y-101087000D01*
X38447592Y-101087000D01*
X38717490Y-101033314D01*
X38971727Y-100928005D01*
X39200535Y-100775120D01*
X39320090Y-100655565D01*
X40064040Y-100655565D01*
X40131020Y-100895656D01*
X40380048Y-101012756D01*
X40647135Y-101079023D01*
X40922017Y-101091910D01*
X41194133Y-101050922D01*
X41453023Y-100957636D01*
X41568980Y-100895656D01*
X41635960Y-100655565D01*
X40850000Y-99869605D01*
X40064040Y-100655565D01*
X39320090Y-100655565D01*
X39395120Y-100580535D01*
X39548005Y-100351727D01*
X39577692Y-100280057D01*
X39582364Y-100293023D01*
X39644344Y-100408980D01*
X39884435Y-100475960D01*
X40670395Y-99690000D01*
X39884435Y-98904040D01*
X39644344Y-98971020D01*
X39580515Y-99106760D01*
X39548005Y-99028273D01*
X39395120Y-98799465D01*
X39200535Y-98604880D01*
X38971727Y-98451995D01*
X38717490Y-98346686D01*
X38447592Y-98293000D01*
X38172408Y-98293000D01*
X37902510Y-98346686D01*
X37648273Y-98451995D01*
X37419465Y-98604880D01*
X37224880Y-98799465D01*
X37071995Y-99028273D01*
X36966686Y-99282510D01*
X36913000Y-99552408D01*
X33744205Y-99552408D01*
X33744271Y-98215045D01*
X34001108Y-98282384D01*
X34322595Y-98301718D01*
X34641675Y-98257961D01*
X34946088Y-98152795D01*
X35120044Y-98059814D01*
X35215808Y-97795413D01*
X34260000Y-96839605D01*
X34245858Y-96853748D01*
X34066253Y-96674143D01*
X34080395Y-96660000D01*
X34439605Y-96660000D01*
X35395413Y-97615808D01*
X35659814Y-97520044D01*
X35800704Y-97230429D01*
X35882384Y-96918892D01*
X35901718Y-96597405D01*
X35888219Y-96498967D01*
X39125000Y-96498967D01*
X39125000Y-96821033D01*
X39187832Y-97136912D01*
X39311082Y-97434463D01*
X39490013Y-97702252D01*
X39717748Y-97929987D01*
X39985537Y-98108918D01*
X40283088Y-98232168D01*
X40598967Y-98295000D01*
X40732108Y-98295000D01*
X40505867Y-98329078D01*
X40246977Y-98422364D01*
X40131020Y-98484344D01*
X40064040Y-98724435D01*
X40850000Y-99510395D01*
X41635960Y-98724435D01*
X41568980Y-98484344D01*
X41319952Y-98367244D01*
X41052865Y-98300977D01*
X40921861Y-98294835D01*
X41236912Y-98232168D01*
X41534463Y-98108918D01*
X41802252Y-97929987D01*
X42029987Y-97702252D01*
X42208918Y-97434463D01*
X42332168Y-97136912D01*
X42395000Y-96821033D01*
X42395000Y-96498967D01*
X42332168Y-96183088D01*
X42208918Y-95885537D01*
X42029987Y-95617748D01*
X41802252Y-95390013D01*
X41534463Y-95211082D01*
X41236912Y-95087832D01*
X40921033Y-95025000D01*
X40598967Y-95025000D01*
X40283088Y-95087832D01*
X39985537Y-95211082D01*
X39717748Y-95390013D01*
X39490013Y-95617748D01*
X39311082Y-95885537D01*
X39187832Y-96183088D01*
X39125000Y-96498967D01*
X35888219Y-96498967D01*
X35857961Y-96278325D01*
X35752795Y-95973912D01*
X35659814Y-95799956D01*
X35395413Y-95704192D01*
X34439605Y-96660000D01*
X34080395Y-96660000D01*
X34066253Y-96645858D01*
X34245858Y-96466253D01*
X34260000Y-96480395D01*
X35215808Y-95524587D01*
X35120044Y-95260186D01*
X34830429Y-95119296D01*
X34518892Y-95037616D01*
X34197405Y-95018282D01*
X33878325Y-95062039D01*
X33744423Y-95108298D01*
X33745098Y-81264701D01*
X33783767Y-80870322D01*
X33888921Y-80522034D01*
X34059722Y-80200803D01*
X34289662Y-79918869D01*
X34569988Y-79686962D01*
X34890017Y-79513924D01*
X35237564Y-79406340D01*
X35629945Y-79365099D01*
X41593530Y-79364904D01*
X41575000Y-79458061D01*
G37*
X41575000Y-79458061D02*
X41575000Y-79661939D01*
X41614774Y-79861898D01*
X41630556Y-79900000D01*
X38177325Y-79900000D01*
X38140000Y-79896324D01*
X38102675Y-79900000D01*
X38102667Y-79900000D01*
X37991014Y-79910997D01*
X37847753Y-79954454D01*
X37715724Y-80025026D01*
X37599999Y-80119999D01*
X37576201Y-80148997D01*
X36398998Y-81326201D01*
X36370000Y-81349999D01*
X36346202Y-81378997D01*
X36346201Y-81378998D01*
X36275026Y-81465724D01*
X36255674Y-81501928D01*
X35760000Y-81501928D01*
X35635518Y-81514188D01*
X35515820Y-81550498D01*
X35405506Y-81609463D01*
X35308815Y-81688815D01*
X35229463Y-81785506D01*
X35170498Y-81895820D01*
X35134188Y-82015518D01*
X35121928Y-82140000D01*
X35121928Y-84140000D01*
X35134188Y-84264482D01*
X35170498Y-84384180D01*
X35229463Y-84494494D01*
X35308815Y-84591185D01*
X35405506Y-84670537D01*
X35515820Y-84729502D01*
X35635518Y-84765812D01*
X35760000Y-84778072D01*
X36879252Y-84778072D01*
X36747047Y-85097244D01*
X36665000Y-85509721D01*
X36665000Y-85930279D01*
X36747047Y-86342756D01*
X36907988Y-86731302D01*
X36945015Y-86786717D01*
X36779221Y-86855391D01*
X36519621Y-87028850D01*
X36298850Y-87249621D01*
X36125391Y-87509221D01*
X36005911Y-87797673D01*
X35945000Y-88103891D01*
X35945000Y-88416109D01*
X36005911Y-88722327D01*
X36125391Y-89010779D01*
X36298850Y-89270379D01*
X36519621Y-89491150D01*
X36779221Y-89664609D01*
X37067673Y-89784089D01*
X37373891Y-89845000D01*
X37686109Y-89845000D01*
X37992327Y-89784089D01*
X38280779Y-89664609D01*
X38540379Y-89491150D01*
X38761150Y-89270379D01*
X38934609Y-89010779D01*
X39054089Y-88722327D01*
X39115000Y-88416109D01*
X39115000Y-88103891D01*
X39063391Y-87844435D01*
X39422756Y-87772953D01*
X39811302Y-87612012D01*
X40033748Y-87463378D01*
X40028183Y-87476814D01*
X39925000Y-87995551D01*
X39925000Y-88524449D01*
X40028183Y-89043186D01*
X40230583Y-89531825D01*
X40524424Y-89971588D01*
X40898412Y-90345576D01*
X41338175Y-90639417D01*
X41826814Y-90841817D01*
X42345551Y-90945000D01*
X42874449Y-90945000D01*
X43393186Y-90841817D01*
X43881825Y-90639417D01*
X44321588Y-90345576D01*
X44695576Y-89971588D01*
X44989417Y-89531825D01*
X45191817Y-89043186D01*
X45295000Y-88524449D01*
X45295000Y-87995551D01*
X45191817Y-87476814D01*
X45186251Y-87463377D01*
X45408698Y-87612011D01*
X45797244Y-87772952D01*
X46156610Y-87844434D01*
X46105000Y-88103891D01*
X46105000Y-88416109D01*
X46165911Y-88722327D01*
X46285391Y-89010779D01*
X46458850Y-89270379D01*
X46679621Y-89491150D01*
X46939221Y-89664609D01*
X47227673Y-89784089D01*
X47533891Y-89845000D01*
X47846109Y-89845000D01*
X48152327Y-89784089D01*
X48440779Y-89664609D01*
X48700379Y-89491150D01*
X48850000Y-89341529D01*
X48850001Y-95492668D01*
X48846324Y-95530000D01*
X48850001Y-95567333D01*
X48857434Y-95642795D01*
X48860998Y-95678985D01*
X48904454Y-95822246D01*
X48975026Y-95954276D01*
X49028964Y-96019999D01*
X49070000Y-96070001D01*
X49098998Y-96093799D01*
X51335594Y-98330396D01*
X51147592Y-98293000D01*
X50872408Y-98293000D01*
X50602510Y-98346686D01*
X50348273Y-98451995D01*
X50119465Y-98604880D01*
X49924880Y-98799465D01*
X49771995Y-99028273D01*
X49740000Y-99105515D01*
X49708005Y-99028273D01*
X49555120Y-98799465D01*
X49360535Y-98604880D01*
X49131727Y-98451995D01*
X48877490Y-98346686D01*
X48607592Y-98293000D01*
X48332408Y-98293000D01*
X48062510Y-98346686D01*
X47808273Y-98451995D01*
X47579465Y-98604880D01*
X47384880Y-98799465D01*
X47231995Y-99028273D01*
X47200000Y-99105515D01*
X47168005Y-99028273D01*
X47015120Y-98799465D01*
X46820535Y-98604880D01*
X46591727Y-98451995D01*
X46337490Y-98346686D01*
X46067592Y-98293000D01*
X45792408Y-98293000D01*
X45522510Y-98346686D01*
X45268273Y-98451995D01*
X45039465Y-98604880D01*
X44844880Y-98799465D01*
X44691995Y-99028273D01*
X44660000Y-99105515D01*
X44628005Y-99028273D01*
X44475120Y-98799465D01*
X44280535Y-98604880D01*
X44051727Y-98451995D01*
X43797490Y-98346686D01*
X43527592Y-98293000D01*
X43252408Y-98293000D01*
X42982510Y-98346686D01*
X42728273Y-98451995D01*
X42499465Y-98604880D01*
X42304880Y-98799465D01*
X42151995Y-99028273D01*
X42122308Y-99099943D01*
X42117636Y-99086977D01*
X42055656Y-98971020D01*
X41815565Y-98904040D01*
X41029605Y-99690000D01*
X41815565Y-100475960D01*
X42055656Y-100408980D01*
X42119485Y-100273240D01*
X42151995Y-100351727D01*
X42304880Y-100580535D01*
X42499465Y-100775120D01*
X42728273Y-100928005D01*
X42982510Y-101033314D01*
X43252408Y-101087000D01*
X43527592Y-101087000D01*
X43797490Y-101033314D01*
X44051727Y-100928005D01*
X44280535Y-100775120D01*
X44475120Y-100580535D01*
X44628005Y-100351727D01*
X44660000Y-100274485D01*
X44691995Y-100351727D01*
X44844880Y-100580535D01*
X45039465Y-100775120D01*
X45268273Y-100928005D01*
X45522510Y-101033314D01*
X45792408Y-101087000D01*
X46067592Y-101087000D01*
X46337490Y-101033314D01*
X46591727Y-100928005D01*
X46820535Y-100775120D01*
X47015120Y-100580535D01*
X47168005Y-100351727D01*
X47200000Y-100274485D01*
X47231995Y-100351727D01*
X47384880Y-100580535D01*
X47579465Y-100775120D01*
X47808273Y-100928005D01*
X48062510Y-101033314D01*
X48332408Y-101087000D01*
X48607592Y-101087000D01*
X48877490Y-101033314D01*
X49131727Y-100928005D01*
X49360535Y-100775120D01*
X49555120Y-100580535D01*
X49708005Y-100351727D01*
X49740000Y-100274485D01*
X49771995Y-100351727D01*
X49924880Y-100580535D01*
X50119465Y-100775120D01*
X50348273Y-100928005D01*
X50602510Y-101033314D01*
X50872408Y-101087000D01*
X51147592Y-101087000D01*
X51417490Y-101033314D01*
X51671727Y-100928005D01*
X51900535Y-100775120D01*
X52095120Y-100580535D01*
X52248005Y-100351727D01*
X52280000Y-100274485D01*
X52311995Y-100351727D01*
X52464880Y-100580535D01*
X52659465Y-100775120D01*
X52888273Y-100928005D01*
X53142510Y-101033314D01*
X53412408Y-101087000D01*
X53687592Y-101087000D01*
X53957490Y-101033314D01*
X54211727Y-100928005D01*
X54440535Y-100775120D01*
X54635120Y-100580535D01*
X54788005Y-100351727D01*
X54820000Y-100274485D01*
X54851995Y-100351727D01*
X55004880Y-100580535D01*
X55199465Y-100775120D01*
X55428273Y-100928005D01*
X55682510Y-101033314D01*
X55952408Y-101087000D01*
X56227592Y-101087000D01*
X56497490Y-101033314D01*
X56751727Y-100928005D01*
X56980535Y-100775120D01*
X57175120Y-100580535D01*
X57328005Y-100351727D01*
X57360000Y-100274485D01*
X57391995Y-100351727D01*
X57544880Y-100580535D01*
X57739465Y-100775120D01*
X57968273Y-100928005D01*
X58222510Y-101033314D01*
X58360574Y-101060777D01*
X49250304Y-110171048D01*
X49221300Y-110194851D01*
X49166172Y-110262026D01*
X49126327Y-110310576D01*
X49070224Y-110415537D01*
X49055755Y-110442606D01*
X49012298Y-110585867D01*
X49001301Y-110697520D01*
X49001301Y-110697530D01*
X48997625Y-110734852D01*
X49001301Y-110772174D01*
X49001301Y-113617971D01*
X48877490Y-113566686D01*
X48607592Y-113513000D01*
X48332408Y-113513000D01*
X48062510Y-113566686D01*
X47970000Y-113605005D01*
X47970000Y-111927325D01*
X47973676Y-111890000D01*
X47970000Y-111852675D01*
X47970000Y-111852667D01*
X47959003Y-111741014D01*
X47915546Y-111597753D01*
X47844974Y-111465724D01*
X47750001Y-111349999D01*
X47721004Y-111326202D01*
X47598175Y-111203373D01*
X47831714Y-111011714D01*
X48036031Y-110762752D01*
X48187852Y-110478715D01*
X48281343Y-110170516D01*
X48312911Y-109850000D01*
X48281343Y-109529484D01*
X48187852Y-109221285D01*
X48036031Y-108937248D01*
X48001359Y-108895000D01*
X48266109Y-108895000D01*
X48572327Y-108834089D01*
X48860779Y-108714609D01*
X49120379Y-108541150D01*
X49341150Y-108320379D01*
X49514609Y-108060779D01*
X49634089Y-107772327D01*
X49695000Y-107466109D01*
X49695000Y-107153891D01*
X49634089Y-106847673D01*
X49514609Y-106559221D01*
X49341150Y-106299621D01*
X49120379Y-106078850D01*
X48860779Y-105905391D01*
X48572327Y-105785911D01*
X48266109Y-105725000D01*
X47953891Y-105725000D01*
X47647673Y-105785911D01*
X47359221Y-105905391D01*
X47099621Y-106078850D01*
X46878850Y-106299621D01*
X46705391Y-106559221D01*
X46585911Y-106847673D01*
X46525000Y-107153891D01*
X46525000Y-107466109D01*
X46585911Y-107772327D01*
X46705391Y-108060779D01*
X46812532Y-108221127D01*
X46750322Y-108215000D01*
X46089678Y-108215000D01*
X45849484Y-108238657D01*
X45541285Y-108332148D01*
X45257248Y-108483969D01*
X45008286Y-108688286D01*
X44803969Y-108937248D01*
X44652148Y-109221285D01*
X44558657Y-109529484D01*
X44527089Y-109850000D01*
X44558657Y-110170516D01*
X44652148Y-110478715D01*
X44803969Y-110762752D01*
X45008286Y-111011714D01*
X45257248Y-111216031D01*
X45541285Y-111367852D01*
X45732404Y-111425827D01*
X45785026Y-111524276D01*
X45845328Y-111597753D01*
X45880000Y-111640001D01*
X45908998Y-111663799D01*
X46450000Y-112204802D01*
X46450001Y-113610778D01*
X46399952Y-113587244D01*
X46132865Y-113520977D01*
X45857983Y-113508090D01*
X45585867Y-113549078D01*
X45326977Y-113642364D01*
X45211020Y-113704344D01*
X45144040Y-113944435D01*
X45930000Y-114730395D01*
X45944143Y-114716253D01*
X46123748Y-114895858D01*
X46109605Y-114910000D01*
X46123748Y-114924143D01*
X45944143Y-115103748D01*
X45930000Y-115089605D01*
X45144040Y-115875565D01*
X45211020Y-116115656D01*
X45460048Y-116232756D01*
X45727135Y-116299023D01*
X46002017Y-116311910D01*
X46274133Y-116270922D01*
X46450000Y-116207552D01*
X46450001Y-116328223D01*
X46441338Y-116326500D01*
X46178662Y-116326500D01*
X45921032Y-116377746D01*
X45678351Y-116478268D01*
X45459943Y-116624203D01*
X45361985Y-116722161D01*
X45279494Y-116654463D01*
X45169180Y-116595498D01*
X45049482Y-116559188D01*
X44925000Y-116546928D01*
X43625000Y-116546928D01*
X43500518Y-116559188D01*
X43380820Y-116595498D01*
X43270506Y-116654463D01*
X43173815Y-116733815D01*
X43094463Y-116830506D01*
X43035498Y-116940820D01*
X42999188Y-117060518D01*
X42986928Y-117185000D01*
X42986928Y-118135000D01*
X42999188Y-118259482D01*
X43035498Y-118379180D01*
X43094463Y-118489494D01*
X43173815Y-118586185D01*
X43270506Y-118665537D01*
X43380820Y-118724502D01*
X43500518Y-118760812D01*
X43625000Y-118773072D01*
X44925000Y-118773072D01*
X45049482Y-118760812D01*
X45169180Y-118724502D01*
X45279494Y-118665537D01*
X45361985Y-118597839D01*
X45459943Y-118695797D01*
X45678351Y-118841732D01*
X45921032Y-118942254D01*
X46178662Y-118993500D01*
X46441338Y-118993500D01*
X46698968Y-118942254D01*
X46941649Y-118841732D01*
X47160057Y-118695797D01*
X47163623Y-118692231D01*
X47170000Y-118700001D01*
X47198998Y-118723799D01*
X47675000Y-119199802D01*
X47675000Y-119261939D01*
X47714774Y-119461898D01*
X47792795Y-119650256D01*
X47906063Y-119819774D01*
X48050226Y-119963937D01*
X48219744Y-120077205D01*
X48408102Y-120155226D01*
X48608061Y-120195000D01*
X48811939Y-120195000D01*
X49001302Y-120157334D01*
X49001302Y-122073707D01*
X48975026Y-122105724D01*
X48955674Y-122141928D01*
X48460000Y-122141928D01*
X48335518Y-122154188D01*
X48215820Y-122190498D01*
X48105506Y-122249463D01*
X48008815Y-122328815D01*
X47981475Y-122362128D01*
X47780983Y-122161636D01*
X47431302Y-121927987D01*
X47215698Y-121838681D01*
X47285000Y-121490279D01*
X47285000Y-121069721D01*
X47202953Y-120657244D01*
X47042012Y-120268698D01*
X46808363Y-119919017D01*
X46510983Y-119621637D01*
X46161302Y-119387988D01*
X45772756Y-119227047D01*
X45360279Y-119145000D01*
X44939721Y-119145000D01*
X44527244Y-119227047D01*
X44138698Y-119387988D01*
X43789017Y-119621637D01*
X43491637Y-119919017D01*
X43257988Y-120268698D01*
X43097047Y-120657244D01*
X43015000Y-121069721D01*
X43015000Y-121490279D01*
X43097047Y-121902756D01*
X43257988Y-122291302D01*
X43491637Y-122640983D01*
X43789017Y-122938363D01*
X44138698Y-123172012D01*
X44354302Y-123261318D01*
X44285000Y-123609720D01*
X44285000Y-124030278D01*
X44336537Y-124289373D01*
X44321588Y-124274424D01*
X43881825Y-123980583D01*
X43393186Y-123778183D01*
X42874449Y-123675000D01*
X42345551Y-123675000D01*
X41826814Y-123778183D01*
X41338175Y-123980583D01*
X40898412Y-124274424D01*
X40883463Y-124289373D01*
X40935000Y-124030279D01*
X40935000Y-123609721D01*
X40865698Y-123261318D01*
X41081302Y-123172012D01*
X41430983Y-122938363D01*
X41728363Y-122640983D01*
X41962012Y-122291302D01*
X42122953Y-121902756D01*
X42205000Y-121490279D01*
X42205000Y-121069721D01*
X42122953Y-120657244D01*
X41962012Y-120268698D01*
X41728363Y-119919017D01*
X41430983Y-119621637D01*
X41081302Y-119387988D01*
X40692756Y-119227047D01*
X40280279Y-119145000D01*
X39859721Y-119145000D01*
X39447244Y-119227047D01*
X39058698Y-119387988D01*
X38709017Y-119621637D01*
X38525002Y-119805652D01*
X38511185Y-119788815D01*
X38414494Y-119709463D01*
X38304180Y-119650498D01*
X38184482Y-119614188D01*
X38060000Y-119601928D01*
X35760000Y-119601928D01*
X35635518Y-119614188D01*
X35515820Y-119650498D01*
X35405506Y-119709463D01*
X35308815Y-119788815D01*
X35229463Y-119885506D01*
X35170498Y-119995820D01*
X35134188Y-120115518D01*
X35121928Y-120240000D01*
X35121928Y-122240000D01*
X35134188Y-122364482D01*
X35170498Y-122484180D01*
X35229463Y-122594494D01*
X35308815Y-122691185D01*
X35405506Y-122770537D01*
X35515820Y-122829502D01*
X35555455Y-122841525D01*
X35549453Y-122852755D01*
X35505996Y-122996016D01*
X35494999Y-123107669D01*
X35494999Y-123107679D01*
X35491323Y-123145001D01*
X35494999Y-123182324D01*
X35495000Y-126934669D01*
X35491323Y-126972001D01*
X35505997Y-127120986D01*
X35549453Y-127264247D01*
X35620025Y-127396277D01*
X35691200Y-127483003D01*
X35714999Y-127512002D01*
X35743997Y-127535800D01*
X39679199Y-131471003D01*
X39702997Y-131500001D01*
X39818722Y-131594974D01*
X39950751Y-131665546D01*
X40094012Y-131709003D01*
X40205665Y-131720000D01*
X40205674Y-131720000D01*
X40242997Y-131723676D01*
X40280320Y-131720000D01*
X41706289Y-131720000D01*
X41750226Y-131763937D01*
X41919744Y-131877205D01*
X42108102Y-131955226D01*
X42308061Y-131995000D01*
X42511939Y-131995000D01*
X42711898Y-131955226D01*
X42900256Y-131877205D01*
X43069774Y-131763937D01*
X43213937Y-131619774D01*
X43327205Y-131450256D01*
X43405226Y-131261898D01*
X43445000Y-131061939D01*
X43445000Y-130858061D01*
X43405226Y-130658102D01*
X43348022Y-130520000D01*
X46139680Y-130520000D01*
X46177002Y-130523676D01*
X46214324Y-130520000D01*
X46214335Y-130520000D01*
X46325988Y-130509003D01*
X46469249Y-130465546D01*
X46601278Y-130394974D01*
X46717003Y-130300001D01*
X46740806Y-130270997D01*
X47483141Y-129528662D01*
X50776500Y-129528662D01*
X50776500Y-129791338D01*
X50827746Y-130048968D01*
X50928268Y-130291649D01*
X51074203Y-130510057D01*
X51259943Y-130695797D01*
X51478351Y-130841732D01*
X51721032Y-130942254D01*
X51978662Y-130993500D01*
X52241338Y-130993500D01*
X52498968Y-130942254D01*
X52741649Y-130841732D01*
X52960057Y-130695797D01*
X53145797Y-130510057D01*
X53291732Y-130291649D01*
X53392254Y-130048968D01*
X53443500Y-129791338D01*
X53443500Y-129728662D01*
X69776500Y-129728662D01*
X69776500Y-129991338D01*
X69827746Y-130248968D01*
X69928268Y-130491649D01*
X70074203Y-130710057D01*
X70259943Y-130895797D01*
X70478351Y-131041732D01*
X70721032Y-131142254D01*
X70978662Y-131193500D01*
X71241338Y-131193500D01*
X71498968Y-131142254D01*
X71741649Y-131041732D01*
X71960057Y-130895797D01*
X72145797Y-130710057D01*
X72291732Y-130491649D01*
X72392254Y-130248968D01*
X72443500Y-129991338D01*
X72443500Y-129728662D01*
X72425598Y-129638662D01*
X88876500Y-129638662D01*
X88876500Y-129901338D01*
X88927746Y-130158968D01*
X89028268Y-130401649D01*
X89174203Y-130620057D01*
X89359943Y-130805797D01*
X89578351Y-130951732D01*
X89821032Y-131052254D01*
X90078662Y-131103500D01*
X90341338Y-131103500D01*
X90598968Y-131052254D01*
X90841649Y-130951732D01*
X91060057Y-130805797D01*
X91245797Y-130620057D01*
X91391732Y-130401649D01*
X91492254Y-130158968D01*
X91543500Y-129901338D01*
X91543500Y-129638662D01*
X91492254Y-129381032D01*
X91391732Y-129138351D01*
X91245797Y-128919943D01*
X91147839Y-128821985D01*
X91215537Y-128739494D01*
X91274502Y-128629180D01*
X91310812Y-128509482D01*
X91323072Y-128385000D01*
X91323072Y-127085000D01*
X91310812Y-126960518D01*
X91274502Y-126840820D01*
X91215537Y-126730506D01*
X91136185Y-126633815D01*
X91039494Y-126554463D01*
X90929180Y-126495498D01*
X90809482Y-126459188D01*
X90685000Y-126446928D01*
X89735000Y-126446928D01*
X89610518Y-126459188D01*
X89490820Y-126495498D01*
X89380506Y-126554463D01*
X89283815Y-126633815D01*
X89204463Y-126730506D01*
X89145498Y-126840820D01*
X89109188Y-126960518D01*
X89096928Y-127085000D01*
X89096928Y-128385000D01*
X89109188Y-128509482D01*
X89145498Y-128629180D01*
X89204463Y-128739494D01*
X89272161Y-128821985D01*
X89174203Y-128919943D01*
X89028268Y-129138351D01*
X88927746Y-129381032D01*
X88876500Y-129638662D01*
X72425598Y-129638662D01*
X72392254Y-129471032D01*
X72291732Y-129228351D01*
X72145797Y-129009943D01*
X72047839Y-128911985D01*
X72115537Y-128829494D01*
X72174502Y-128719180D01*
X72210812Y-128599482D01*
X72223072Y-128475000D01*
X72223072Y-127175000D01*
X72210812Y-127050518D01*
X72174502Y-126930820D01*
X72115537Y-126820506D01*
X72036185Y-126723815D01*
X71939494Y-126644463D01*
X71829180Y-126585498D01*
X71709482Y-126549188D01*
X71585000Y-126536928D01*
X70635000Y-126536928D01*
X70510518Y-126549188D01*
X70390820Y-126585498D01*
X70280506Y-126644463D01*
X70183815Y-126723815D01*
X70104463Y-126820506D01*
X70045498Y-126930820D01*
X70009188Y-127050518D01*
X69996928Y-127175000D01*
X69996928Y-128475000D01*
X70009188Y-128599482D01*
X70045498Y-128719180D01*
X70104463Y-128829494D01*
X70172161Y-128911985D01*
X70074203Y-129009943D01*
X69928268Y-129228351D01*
X69827746Y-129471032D01*
X69776500Y-129728662D01*
X53443500Y-129728662D01*
X53443500Y-129528662D01*
X53392254Y-129271032D01*
X53291732Y-129028351D01*
X53145797Y-128809943D01*
X53047839Y-128711985D01*
X53115537Y-128629494D01*
X53174502Y-128519180D01*
X53210812Y-128399482D01*
X53223072Y-128275000D01*
X53223072Y-126975000D01*
X53210812Y-126850518D01*
X53174502Y-126730820D01*
X53115537Y-126620506D01*
X53036185Y-126523815D01*
X52939494Y-126444463D01*
X52829180Y-126385498D01*
X52709482Y-126349188D01*
X52585000Y-126336928D01*
X51635000Y-126336928D01*
X51510518Y-126349188D01*
X51390820Y-126385498D01*
X51280506Y-126444463D01*
X51183815Y-126523815D01*
X51104463Y-126620506D01*
X51045498Y-126730820D01*
X51009188Y-126850518D01*
X50996928Y-126975000D01*
X50996928Y-128275000D01*
X51009188Y-128399482D01*
X51045498Y-128519180D01*
X51104463Y-128629494D01*
X51172161Y-128711985D01*
X51074203Y-128809943D01*
X50928268Y-129028351D01*
X50827746Y-129271032D01*
X50776500Y-129528662D01*
X47483141Y-129528662D01*
X50121004Y-126890800D01*
X50150001Y-126867003D01*
X50244974Y-126751278D01*
X50315546Y-126619249D01*
X50359003Y-126475988D01*
X50370000Y-126364335D01*
X50370000Y-126364326D01*
X50373676Y-126327003D01*
X50370000Y-126289680D01*
X50370000Y-125418072D01*
X50760000Y-125418072D01*
X50884482Y-125405812D01*
X51004180Y-125369502D01*
X51114494Y-125310537D01*
X51211185Y-125231185D01*
X51227141Y-125211742D01*
X51280506Y-125255537D01*
X51390820Y-125314502D01*
X51510518Y-125350812D01*
X51635000Y-125363072D01*
X52585000Y-125363072D01*
X52709482Y-125350812D01*
X52725615Y-125345918D01*
X52737838Y-125360812D01*
X52770000Y-125400001D01*
X52798998Y-125423799D01*
X53175000Y-125799801D01*
X53175000Y-125861939D01*
X53214774Y-126061898D01*
X53292795Y-126250256D01*
X53406063Y-126419774D01*
X53550226Y-126563937D01*
X53719744Y-126677205D01*
X53908102Y-126755226D01*
X54108061Y-126795000D01*
X54311939Y-126795000D01*
X54511898Y-126755226D01*
X54700256Y-126677205D01*
X54869774Y-126563937D01*
X54995000Y-126438711D01*
X54995000Y-126516109D01*
X55055911Y-126822327D01*
X55175391Y-127110779D01*
X55348850Y-127370379D01*
X55569621Y-127591150D01*
X55829221Y-127764609D01*
X56117673Y-127884089D01*
X56423891Y-127945000D01*
X56736109Y-127945000D01*
X57042327Y-127884089D01*
X57330779Y-127764609D01*
X57590379Y-127591150D01*
X57811150Y-127370379D01*
X57984609Y-127110779D01*
X58104089Y-126822327D01*
X58165000Y-126516109D01*
X58165000Y-126203891D01*
X58113391Y-125944435D01*
X58472756Y-125872953D01*
X58861302Y-125712012D01*
X59083748Y-125563378D01*
X59078183Y-125576814D01*
X58975000Y-126095551D01*
X58975000Y-126624449D01*
X59078183Y-127143186D01*
X59280583Y-127631825D01*
X59574424Y-128071588D01*
X59948412Y-128445576D01*
X60388175Y-128739417D01*
X60876814Y-128941817D01*
X61395551Y-129045000D01*
X61924449Y-129045000D01*
X62443186Y-128941817D01*
X62931825Y-128739417D01*
X63371588Y-128445576D01*
X63745576Y-128071588D01*
X64039417Y-127631825D01*
X64241817Y-127143186D01*
X64345000Y-126624449D01*
X64345000Y-126095551D01*
X64241817Y-125576814D01*
X64236251Y-125563377D01*
X64458698Y-125712011D01*
X64847244Y-125872952D01*
X65206610Y-125944434D01*
X65155000Y-126203891D01*
X65155000Y-126516109D01*
X65215911Y-126822327D01*
X65335391Y-127110779D01*
X65508850Y-127370379D01*
X65729621Y-127591150D01*
X65989221Y-127764609D01*
X66277673Y-127884089D01*
X66583891Y-127945000D01*
X66896109Y-127945000D01*
X67202327Y-127884089D01*
X67490779Y-127764609D01*
X67750379Y-127591150D01*
X67971150Y-127370379D01*
X68144609Y-127110779D01*
X68264089Y-126822327D01*
X68325000Y-126516109D01*
X68325000Y-126203891D01*
X68264089Y-125897673D01*
X68144609Y-125609221D01*
X68016887Y-125418072D01*
X69810000Y-125418072D01*
X69934482Y-125405812D01*
X70054180Y-125369502D01*
X70140475Y-125323375D01*
X70183815Y-125376185D01*
X70280506Y-125455537D01*
X70390820Y-125514502D01*
X70510518Y-125550812D01*
X70635000Y-125563072D01*
X71585000Y-125563072D01*
X71709482Y-125550812D01*
X71829180Y-125514502D01*
X71939494Y-125455537D01*
X72036185Y-125376185D01*
X72115537Y-125279494D01*
X72174502Y-125169180D01*
X72210812Y-125049482D01*
X72223072Y-124925000D01*
X72223072Y-123625000D01*
X72210812Y-123500518D01*
X72193634Y-123443891D01*
X72259685Y-123389685D01*
X72339037Y-123292994D01*
X72398002Y-123182680D01*
X72434312Y-123062982D01*
X72446572Y-122938500D01*
X72446572Y-121541500D01*
X72434312Y-121417018D01*
X72398002Y-121297320D01*
X72339037Y-121187006D01*
X72259685Y-121090315D01*
X72162994Y-121010963D01*
X72052680Y-120951998D01*
X71932982Y-120915688D01*
X71808500Y-120903428D01*
X70411500Y-120903428D01*
X70287018Y-120915688D01*
X70167320Y-120951998D01*
X70057006Y-121010963D01*
X69960315Y-121090315D01*
X69880963Y-121187006D01*
X69821998Y-121297320D01*
X69785688Y-121417018D01*
X69773428Y-121541500D01*
X69773428Y-122141928D01*
X69314326Y-122141928D01*
X69294974Y-122105724D01*
X69248194Y-122048722D01*
X69223799Y-122018996D01*
X69223795Y-122018992D01*
X69200001Y-121989999D01*
X69171009Y-121966206D01*
X64799800Y-117594999D01*
X69170198Y-117594999D01*
X71675000Y-120099802D01*
X71675000Y-120161939D01*
X71714774Y-120361898D01*
X71792795Y-120550256D01*
X71906063Y-120719774D01*
X72050226Y-120863937D01*
X72219744Y-120977205D01*
X72408102Y-121055226D01*
X72550001Y-121083451D01*
X72550000Y-126056289D01*
X72506063Y-126100226D01*
X72392795Y-126269744D01*
X72314774Y-126458102D01*
X72275000Y-126658061D01*
X72275000Y-126861939D01*
X72314774Y-127061898D01*
X72392795Y-127250256D01*
X72506063Y-127419774D01*
X72650226Y-127563937D01*
X72819744Y-127677205D01*
X73008102Y-127755226D01*
X73208061Y-127795000D01*
X73411939Y-127795000D01*
X73611898Y-127755226D01*
X73800256Y-127677205D01*
X73969774Y-127563937D01*
X74113937Y-127419774D01*
X74227205Y-127250256D01*
X74262175Y-127165831D01*
X74398850Y-127370379D01*
X74619621Y-127591150D01*
X74879221Y-127764609D01*
X75167673Y-127884089D01*
X75473891Y-127945000D01*
X75786109Y-127945000D01*
X76092327Y-127884089D01*
X76380779Y-127764609D01*
X76640379Y-127591150D01*
X76861150Y-127370379D01*
X77034609Y-127110779D01*
X77154089Y-126822327D01*
X77215000Y-126516109D01*
X77215000Y-126203891D01*
X77163391Y-125944435D01*
X77522756Y-125872953D01*
X77911302Y-125712012D01*
X78133748Y-125563378D01*
X78128183Y-125576814D01*
X78025000Y-126095551D01*
X78025000Y-126624449D01*
X78128183Y-127143186D01*
X78330583Y-127631825D01*
X78624424Y-128071588D01*
X78998412Y-128445576D01*
X79438175Y-128739417D01*
X79926814Y-128941817D01*
X80445551Y-129045000D01*
X80974449Y-129045000D01*
X81493186Y-128941817D01*
X81981825Y-128739417D01*
X82421588Y-128445576D01*
X82795576Y-128071588D01*
X83089417Y-127631825D01*
X83291817Y-127143186D01*
X83395000Y-126624449D01*
X83395000Y-126095551D01*
X83291817Y-125576814D01*
X83286251Y-125563377D01*
X83508698Y-125712011D01*
X83897244Y-125872952D01*
X84256610Y-125944434D01*
X84205000Y-126203891D01*
X84205000Y-126516109D01*
X84265911Y-126822327D01*
X84385391Y-127110779D01*
X84558850Y-127370379D01*
X84779621Y-127591150D01*
X85039221Y-127764609D01*
X85327673Y-127884089D01*
X85633891Y-127945000D01*
X85946109Y-127945000D01*
X86252327Y-127884089D01*
X86540779Y-127764609D01*
X86800379Y-127591150D01*
X87021150Y-127370379D01*
X87194609Y-127110779D01*
X87314089Y-126822327D01*
X87375000Y-126516109D01*
X87375000Y-126203891D01*
X87314089Y-125897673D01*
X87194609Y-125609221D01*
X87066887Y-125418072D01*
X88860000Y-125418072D01*
X88984482Y-125405812D01*
X89104180Y-125369502D01*
X89214494Y-125310537D01*
X89267859Y-125266742D01*
X89283815Y-125286185D01*
X89380506Y-125365537D01*
X89490820Y-125424502D01*
X89610518Y-125460812D01*
X89735000Y-125473072D01*
X90685000Y-125473072D01*
X90809482Y-125460812D01*
X90929180Y-125424502D01*
X91039494Y-125365537D01*
X91136185Y-125286185D01*
X91215537Y-125189494D01*
X91274502Y-125079180D01*
X91310812Y-124959482D01*
X91323072Y-124835000D01*
X91323072Y-123535000D01*
X91310812Y-123410518D01*
X91293634Y-123353891D01*
X91359685Y-123299685D01*
X91439037Y-123202994D01*
X91498002Y-123092680D01*
X91534312Y-122972982D01*
X91546572Y-122848500D01*
X91546572Y-121451500D01*
X91534312Y-121327018D01*
X91498002Y-121207320D01*
X91439037Y-121097006D01*
X91359685Y-121000315D01*
X91262994Y-120920963D01*
X91152680Y-120861998D01*
X91032982Y-120825688D01*
X90908500Y-120813428D01*
X89511500Y-120813428D01*
X89387018Y-120825688D01*
X89267320Y-120861998D01*
X89157006Y-120920963D01*
X89060315Y-121000315D01*
X88980963Y-121097006D01*
X88921998Y-121207320D01*
X88885688Y-121327018D01*
X88873428Y-121451500D01*
X88873428Y-122143250D01*
X88860000Y-122141928D01*
X88364326Y-122141928D01*
X88344974Y-122105724D01*
X88298194Y-122048722D01*
X88273799Y-122018996D01*
X88273795Y-122018992D01*
X88250001Y-121989999D01*
X88221009Y-121966206D01*
X83303804Y-117049003D01*
X83280001Y-117019999D01*
X83164276Y-116925026D01*
X83032247Y-116854454D01*
X82888986Y-116810997D01*
X82777333Y-116800000D01*
X82777322Y-116800000D01*
X82740000Y-116796324D01*
X82702678Y-116800000D01*
X81470000Y-116800000D01*
X81470000Y-114363711D01*
X81513937Y-114319774D01*
X81627205Y-114150256D01*
X81705226Y-113961898D01*
X81745000Y-113761939D01*
X81745000Y-113558061D01*
X81705226Y-113358102D01*
X81627205Y-113169744D01*
X81513937Y-113000226D01*
X81369774Y-112856063D01*
X81200256Y-112742795D01*
X81011898Y-112664774D01*
X80811939Y-112625000D01*
X80608061Y-112625000D01*
X80408102Y-112664774D01*
X80219744Y-112742795D01*
X80050226Y-112856063D01*
X79906063Y-113000226D01*
X79792795Y-113169744D01*
X79714774Y-113358102D01*
X79675000Y-113558061D01*
X79675000Y-113761939D01*
X79714774Y-113961898D01*
X79792795Y-114150256D01*
X79906063Y-114319774D01*
X79950000Y-114363711D01*
X79950001Y-116856288D01*
X79906063Y-116900226D01*
X79792795Y-117069744D01*
X79714774Y-117258102D01*
X79675000Y-117458061D01*
X79675000Y-117661939D01*
X79714774Y-117861898D01*
X79771978Y-118000000D01*
X76277325Y-118000000D01*
X76240000Y-117996324D01*
X76202675Y-118000000D01*
X76202667Y-118000000D01*
X76091014Y-118010997D01*
X75947753Y-118054454D01*
X75815724Y-118125026D01*
X75699999Y-118219999D01*
X75676201Y-118248997D01*
X74498998Y-119426201D01*
X74470000Y-119449999D01*
X74446202Y-119478997D01*
X74446201Y-119478998D01*
X74375026Y-119565724D01*
X74355674Y-119601928D01*
X74187837Y-119601928D01*
X74184004Y-119563013D01*
X74140547Y-119419752D01*
X74069975Y-119287723D01*
X73975002Y-119171998D01*
X73946004Y-119148200D01*
X70446806Y-115649003D01*
X70423003Y-115619999D01*
X70307278Y-115525026D01*
X70175249Y-115454454D01*
X70031988Y-115410997D01*
X69920335Y-115400000D01*
X69920324Y-115400000D01*
X69883002Y-115396324D01*
X69845680Y-115400000D01*
X67559137Y-115400000D01*
X67593314Y-115317490D01*
X67647000Y-115047592D01*
X67647000Y-114772408D01*
X67593314Y-114502510D01*
X67488005Y-114248273D01*
X67335120Y-114019465D01*
X67140535Y-113824880D01*
X66911727Y-113671995D01*
X66657490Y-113566686D01*
X66387592Y-113513000D01*
X66112408Y-113513000D01*
X65842510Y-113566686D01*
X65588273Y-113671995D01*
X65359465Y-113824880D01*
X65164880Y-114019465D01*
X65011995Y-114248273D01*
X64980000Y-114325515D01*
X64948005Y-114248273D01*
X64795120Y-114019465D01*
X64600535Y-113824880D01*
X64371727Y-113671995D01*
X64117490Y-113566686D01*
X63847592Y-113513000D01*
X63572408Y-113513000D01*
X63302510Y-113566686D01*
X63048273Y-113671995D01*
X62819465Y-113824880D01*
X62624880Y-114019465D01*
X62471995Y-114248273D01*
X62440000Y-114325515D01*
X62408005Y-114248273D01*
X62255120Y-114019465D01*
X62060535Y-113824880D01*
X61831727Y-113671995D01*
X61577490Y-113566686D01*
X61307592Y-113513000D01*
X61032408Y-113513000D01*
X60762510Y-113566686D01*
X60562272Y-113649628D01*
X60550001Y-113634675D01*
X60521004Y-113610878D01*
X58610000Y-111699875D01*
X58610000Y-111338662D01*
X69876500Y-111338662D01*
X69876500Y-111601338D01*
X69927746Y-111858968D01*
X70028268Y-112101649D01*
X70174203Y-112320057D01*
X70359943Y-112505797D01*
X70578351Y-112651732D01*
X70821032Y-112752254D01*
X71078662Y-112803500D01*
X71341338Y-112803500D01*
X71598968Y-112752254D01*
X71841649Y-112651732D01*
X72060057Y-112505797D01*
X72245797Y-112320057D01*
X72391732Y-112101649D01*
X72492254Y-111858968D01*
X72543500Y-111601338D01*
X72543500Y-111338662D01*
X72492254Y-111081032D01*
X72391732Y-110838351D01*
X72245797Y-110619943D01*
X72147839Y-110521985D01*
X72215537Y-110439494D01*
X72274502Y-110329180D01*
X72310812Y-110209482D01*
X72323072Y-110085000D01*
X72323072Y-108785000D01*
X72310812Y-108660518D01*
X72274502Y-108540820D01*
X72215537Y-108430506D01*
X72136185Y-108333815D01*
X72039494Y-108254463D01*
X71929180Y-108195498D01*
X71809482Y-108159188D01*
X71685000Y-108146928D01*
X70735000Y-108146928D01*
X70610518Y-108159188D01*
X70490820Y-108195498D01*
X70380506Y-108254463D01*
X70283815Y-108333815D01*
X70204463Y-108430506D01*
X70145498Y-108540820D01*
X70109188Y-108660518D01*
X70096928Y-108785000D01*
X70096928Y-110085000D01*
X70109188Y-110209482D01*
X70145498Y-110329180D01*
X70204463Y-110439494D01*
X70272161Y-110521985D01*
X70174203Y-110619943D01*
X70028268Y-110838351D01*
X69927746Y-111081032D01*
X69876500Y-111338662D01*
X58610000Y-111338662D01*
X58610000Y-107050475D01*
X59025000Y-107050475D01*
X59025000Y-107569525D01*
X59126261Y-108078601D01*
X59324893Y-108558141D01*
X59613262Y-108989715D01*
X59980285Y-109356738D01*
X60411859Y-109645107D01*
X60891399Y-109843739D01*
X61400475Y-109945000D01*
X61919525Y-109945000D01*
X62428601Y-109843739D01*
X62908141Y-109645107D01*
X63339715Y-109356738D01*
X63706738Y-108989715D01*
X63995107Y-108558141D01*
X64193739Y-108078601D01*
X64295000Y-107569525D01*
X64295000Y-107153891D01*
X65575000Y-107153891D01*
X65575000Y-107466109D01*
X65635911Y-107772327D01*
X65755391Y-108060779D01*
X65928850Y-108320379D01*
X66149621Y-108541150D01*
X66409221Y-108714609D01*
X66697673Y-108834089D01*
X67003891Y-108895000D01*
X67316109Y-108895000D01*
X67622327Y-108834089D01*
X67910779Y-108714609D01*
X68170379Y-108541150D01*
X68391150Y-108320379D01*
X68564609Y-108060779D01*
X68684089Y-107772327D01*
X68745000Y-107466109D01*
X68745000Y-107153891D01*
X68684089Y-106847673D01*
X68564609Y-106559221D01*
X68391150Y-106299621D01*
X68170379Y-106078850D01*
X67910779Y-105905391D01*
X67622327Y-105785911D01*
X67316109Y-105725000D01*
X67003891Y-105725000D01*
X66697673Y-105785911D01*
X66409221Y-105905391D01*
X66149621Y-106078850D01*
X65928850Y-106299621D01*
X65755391Y-106559221D01*
X65635911Y-106847673D01*
X65575000Y-107153891D01*
X64295000Y-107153891D01*
X64295000Y-107050475D01*
X64193739Y-106541399D01*
X63995107Y-106061859D01*
X63706738Y-105630285D01*
X63339715Y-105263262D01*
X62908141Y-104974893D01*
X62428601Y-104776261D01*
X61919525Y-104675000D01*
X61400475Y-104675000D01*
X60891399Y-104776261D01*
X60411859Y-104974893D01*
X59980285Y-105263262D01*
X59613262Y-105630285D01*
X59324893Y-106061859D01*
X59126261Y-106541399D01*
X59025000Y-107050475D01*
X58610000Y-107050475D01*
X58610000Y-106323864D01*
X58728715Y-106287852D01*
X59012752Y-106136031D01*
X59261714Y-105931714D01*
X59466031Y-105682752D01*
X59617852Y-105398715D01*
X59711343Y-105090516D01*
X59742911Y-104770000D01*
X59711343Y-104449484D01*
X59617852Y-104141285D01*
X59466031Y-103857248D01*
X59261714Y-103608286D01*
X59012752Y-103403969D01*
X58728715Y-103252148D01*
X58420516Y-103158657D01*
X58413035Y-103157920D01*
X59940956Y-101630000D01*
X62423437Y-101630000D01*
X62338657Y-101909484D01*
X62307089Y-102230000D01*
X62338657Y-102550516D01*
X62432148Y-102858715D01*
X62583969Y-103142752D01*
X62788286Y-103391714D01*
X63037248Y-103596031D01*
X63321285Y-103747852D01*
X63629484Y-103841343D01*
X63869678Y-103865000D01*
X64530322Y-103865000D01*
X64770516Y-103841343D01*
X65078715Y-103747852D01*
X65362752Y-103596031D01*
X65611714Y-103391714D01*
X65808851Y-103151500D01*
X69873428Y-103151500D01*
X69873428Y-104548500D01*
X69885688Y-104672982D01*
X69921998Y-104792680D01*
X69980963Y-104902994D01*
X70060315Y-104999685D01*
X70126366Y-105053891D01*
X70109188Y-105110518D01*
X70096928Y-105235000D01*
X70096928Y-106535000D01*
X70109188Y-106659482D01*
X70145498Y-106779180D01*
X70204463Y-106889494D01*
X70283815Y-106986185D01*
X70380506Y-107065537D01*
X70490820Y-107124502D01*
X70610518Y-107160812D01*
X70735000Y-107173072D01*
X71685000Y-107173072D01*
X71809482Y-107160812D01*
X71929180Y-107124502D01*
X72039494Y-107065537D01*
X72136185Y-106986185D01*
X72215537Y-106889494D01*
X72274502Y-106779180D01*
X72310812Y-106659482D01*
X72323072Y-106535000D01*
X72323072Y-105235000D01*
X72310812Y-105110518D01*
X72293634Y-105053891D01*
X72359685Y-104999685D01*
X72439037Y-104902994D01*
X72498002Y-104792680D01*
X72534312Y-104672982D01*
X72546572Y-104548500D01*
X72546572Y-103151500D01*
X72534312Y-103027018D01*
X72498002Y-102907320D01*
X72439037Y-102797006D01*
X72359685Y-102700315D01*
X72262994Y-102620963D01*
X72152680Y-102561998D01*
X72032982Y-102525688D01*
X71908500Y-102513428D01*
X70511500Y-102513428D01*
X70387018Y-102525688D01*
X70267320Y-102561998D01*
X70157006Y-102620963D01*
X70060315Y-102700315D01*
X69980963Y-102797006D01*
X69921998Y-102907320D01*
X69885688Y-103027018D01*
X69873428Y-103151500D01*
X65808851Y-103151500D01*
X65816031Y-103142752D01*
X65967852Y-102858715D01*
X66061343Y-102550516D01*
X66092911Y-102230000D01*
X66061343Y-101909484D01*
X65967852Y-101601285D01*
X65816031Y-101317248D01*
X65744597Y-101230205D01*
X65925066Y-101049735D01*
X66112408Y-101087000D01*
X66387592Y-101087000D01*
X66657490Y-101033314D01*
X66911727Y-100928005D01*
X67140535Y-100775120D01*
X67335120Y-100580535D01*
X67488005Y-100351727D01*
X67593314Y-100097490D01*
X67647000Y-99827592D01*
X67647000Y-99552408D01*
X67593314Y-99282510D01*
X67488005Y-99028273D01*
X67335120Y-98799465D01*
X67255656Y-98720001D01*
X79838841Y-98720001D01*
X79871978Y-98800000D01*
X76427325Y-98800000D01*
X76390000Y-98796324D01*
X76352675Y-98800000D01*
X76352667Y-98800000D01*
X76241014Y-98810997D01*
X76097753Y-98854454D01*
X75965724Y-98925026D01*
X75849999Y-99019999D01*
X75826201Y-99048997D01*
X74498998Y-100376201D01*
X74470000Y-100399999D01*
X74446202Y-100428997D01*
X74446201Y-100428998D01*
X74375026Y-100515724D01*
X74355674Y-100551928D01*
X73860000Y-100551928D01*
X73735518Y-100564188D01*
X73615820Y-100600498D01*
X73505506Y-100659463D01*
X73408815Y-100738815D01*
X73329463Y-100835506D01*
X73270498Y-100945820D01*
X73234188Y-101065518D01*
X73221928Y-101190000D01*
X73221928Y-103190000D01*
X73234188Y-103314482D01*
X73270498Y-103434180D01*
X73329463Y-103544494D01*
X73408815Y-103641185D01*
X73505506Y-103720537D01*
X73615820Y-103779502D01*
X73735518Y-103815812D01*
X73860000Y-103828072D01*
X74979252Y-103828072D01*
X74847047Y-104147244D01*
X74765000Y-104559721D01*
X74765000Y-104980279D01*
X74847047Y-105392756D01*
X75007988Y-105781302D01*
X75045015Y-105836717D01*
X74879221Y-105905391D01*
X74619621Y-106078850D01*
X74398850Y-106299621D01*
X74225391Y-106559221D01*
X74105911Y-106847673D01*
X74045000Y-107153891D01*
X74045000Y-107466109D01*
X74105911Y-107772327D01*
X74225391Y-108060779D01*
X74398850Y-108320379D01*
X74619621Y-108541150D01*
X74879221Y-108714609D01*
X75167673Y-108834089D01*
X75473891Y-108895000D01*
X75786109Y-108895000D01*
X76092327Y-108834089D01*
X76380779Y-108714609D01*
X76640379Y-108541150D01*
X76861150Y-108320379D01*
X77034609Y-108060779D01*
X77154089Y-107772327D01*
X77215000Y-107466109D01*
X77215000Y-107153891D01*
X77163391Y-106894435D01*
X77522756Y-106822953D01*
X77911302Y-106662012D01*
X78133748Y-106513378D01*
X78128183Y-106526814D01*
X78025000Y-107045551D01*
X78025000Y-107574449D01*
X78128183Y-108093186D01*
X78330583Y-108581825D01*
X78624424Y-109021588D01*
X78998412Y-109395576D01*
X79438175Y-109689417D01*
X79926814Y-109891817D01*
X80445551Y-109995000D01*
X80974449Y-109995000D01*
X81493186Y-109891817D01*
X81981825Y-109689417D01*
X82421588Y-109395576D01*
X82795576Y-109021588D01*
X83089417Y-108581825D01*
X83291817Y-108093186D01*
X83395000Y-107574449D01*
X83395000Y-107045551D01*
X83291817Y-106526814D01*
X83286251Y-106513377D01*
X83508698Y-106662011D01*
X83897244Y-106822952D01*
X84256610Y-106894434D01*
X84205000Y-107153891D01*
X84205000Y-107466109D01*
X84265911Y-107772327D01*
X84385391Y-108060779D01*
X84558850Y-108320379D01*
X84779621Y-108541150D01*
X85039221Y-108714609D01*
X85327673Y-108834089D01*
X85633891Y-108895000D01*
X85946109Y-108895000D01*
X86252327Y-108834089D01*
X86540779Y-108714609D01*
X86800379Y-108541150D01*
X86950001Y-108391528D01*
X86950001Y-110347450D01*
X86946324Y-110384782D01*
X86950001Y-110422115D01*
X86960998Y-110533768D01*
X86961372Y-110535000D01*
X87004454Y-110677028D01*
X87075026Y-110809058D01*
X87146201Y-110895784D01*
X87170000Y-110924783D01*
X87198998Y-110948581D01*
X94421418Y-118171002D01*
X94445217Y-118200001D01*
X94474215Y-118223799D01*
X94560941Y-118294974D01*
X94637120Y-118335693D01*
X94626201Y-118348997D01*
X93548998Y-119426201D01*
X93520000Y-119449999D01*
X93496202Y-119478997D01*
X93496201Y-119478998D01*
X93425026Y-119565724D01*
X93405674Y-119601928D01*
X92910000Y-119601928D01*
X92785518Y-119614188D01*
X92665820Y-119650498D01*
X92555506Y-119709463D01*
X92458815Y-119788815D01*
X92379463Y-119885506D01*
X92320498Y-119995820D01*
X92284188Y-120115518D01*
X92271928Y-120240000D01*
X92271928Y-122240000D01*
X92284188Y-122364482D01*
X92320498Y-122484180D01*
X92379463Y-122594494D01*
X92458815Y-122691185D01*
X92555506Y-122770537D01*
X92665820Y-122829502D01*
X92785518Y-122865812D01*
X92910000Y-122878072D01*
X94029252Y-122878072D01*
X93897047Y-123197244D01*
X93815000Y-123609721D01*
X93815000Y-124030279D01*
X93897047Y-124442756D01*
X94057988Y-124831302D01*
X94095015Y-124886717D01*
X93929221Y-124955391D01*
X93669621Y-125128850D01*
X93448850Y-125349621D01*
X93275391Y-125609221D01*
X93155911Y-125897673D01*
X93095000Y-126203891D01*
X93095000Y-126516109D01*
X93155911Y-126822327D01*
X93275391Y-127110779D01*
X93448850Y-127370379D01*
X93669621Y-127591150D01*
X93929221Y-127764609D01*
X94217673Y-127884089D01*
X94523891Y-127945000D01*
X94836109Y-127945000D01*
X95142327Y-127884089D01*
X95430779Y-127764609D01*
X95690379Y-127591150D01*
X95911150Y-127370379D01*
X96084609Y-127110779D01*
X96204089Y-126822327D01*
X96265000Y-126516109D01*
X96265000Y-126203891D01*
X96213391Y-125944435D01*
X96572756Y-125872953D01*
X96961302Y-125712012D01*
X97183748Y-125563378D01*
X97178183Y-125576814D01*
X97075000Y-126095551D01*
X97075000Y-126624449D01*
X97178183Y-127143186D01*
X97380583Y-127631825D01*
X97674424Y-128071588D01*
X98048412Y-128445576D01*
X98488175Y-128739417D01*
X98976814Y-128941817D01*
X99495551Y-129045000D01*
X100024449Y-129045000D01*
X100543186Y-128941817D01*
X101031825Y-128739417D01*
X101471588Y-128445576D01*
X101845576Y-128071588D01*
X102139417Y-127631825D01*
X102341817Y-127143186D01*
X102445000Y-126624449D01*
X102445000Y-126095551D01*
X102341817Y-125576814D01*
X102336251Y-125563377D01*
X102558698Y-125712011D01*
X102947244Y-125872952D01*
X103306610Y-125944434D01*
X103255000Y-126203891D01*
X103255000Y-126516109D01*
X103315911Y-126822327D01*
X103435391Y-127110779D01*
X103608850Y-127370379D01*
X103829621Y-127591150D01*
X104089221Y-127764609D01*
X104377673Y-127884089D01*
X104683891Y-127945000D01*
X104996109Y-127945000D01*
X105302327Y-127884089D01*
X105590779Y-127764609D01*
X105850379Y-127591150D01*
X106000000Y-127441529D01*
X106000000Y-128587459D01*
X105996324Y-128624782D01*
X106000000Y-128662104D01*
X106000000Y-128662114D01*
X106010997Y-128773767D01*
X106038521Y-128864502D01*
X106054454Y-128917028D01*
X106125026Y-129049058D01*
X106137701Y-129064502D01*
X106219999Y-129164783D01*
X106249003Y-129188586D01*
X108731418Y-131671002D01*
X108755217Y-131700001D01*
X108870942Y-131794974D01*
X109002971Y-131865546D01*
X109146232Y-131909003D01*
X109257885Y-131920000D01*
X109257893Y-131920000D01*
X109295218Y-131923676D01*
X109332543Y-131920000D01*
X146885536Y-131920000D01*
X146638169Y-132022463D01*
X146354002Y-132212337D01*
X146112337Y-132454002D01*
X145922463Y-132738169D01*
X145791675Y-133053919D01*
X145725000Y-133389117D01*
X145725000Y-133730883D01*
X145791675Y-134066081D01*
X145922463Y-134381831D01*
X146112337Y-134665998D01*
X146354002Y-134907663D01*
X146638169Y-135097537D01*
X146854033Y-135186951D01*
X52692887Y-135183080D01*
X52971831Y-135067537D01*
X53255998Y-134877663D01*
X53497663Y-134635998D01*
X53687537Y-134351831D01*
X53818325Y-134036081D01*
X53885000Y-133700883D01*
X53885000Y-133359117D01*
X53818325Y-133023919D01*
X53687537Y-132708169D01*
X53497663Y-132424002D01*
X53255998Y-132182337D01*
X52971831Y-131992463D01*
X52656081Y-131861675D01*
X52320883Y-131795000D01*
X51979117Y-131795000D01*
X51643919Y-131861675D01*
X51328169Y-131992463D01*
X51044002Y-132182337D01*
X50802337Y-132424002D01*
X50612463Y-132708169D01*
X50481675Y-133023919D01*
X50415000Y-133359117D01*
X50415000Y-133700883D01*
X50481675Y-134036081D01*
X50612463Y-134351831D01*
X50802337Y-134635998D01*
X51044002Y-134877663D01*
X51328169Y-135067537D01*
X51607006Y-135183035D01*
X35645492Y-135182379D01*
X35250219Y-135141930D01*
X34900008Y-135034574D01*
X34577319Y-134861240D01*
X34294445Y-134628529D01*
X34062160Y-134345310D01*
X33889309Y-134022365D01*
X33782477Y-133671997D01*
X33742561Y-133276092D01*
X33743356Y-116961500D01*
X37353428Y-116961500D01*
X37353428Y-118358500D01*
X37365688Y-118482982D01*
X37401998Y-118602680D01*
X37460963Y-118712994D01*
X37540315Y-118809685D01*
X37637006Y-118889037D01*
X37747320Y-118948002D01*
X37867018Y-118984312D01*
X37991500Y-118996572D01*
X39388500Y-118996572D01*
X39512982Y-118984312D01*
X39632680Y-118948002D01*
X39742994Y-118889037D01*
X39839685Y-118809685D01*
X39893891Y-118743634D01*
X39950518Y-118760812D01*
X40075000Y-118773072D01*
X41375000Y-118773072D01*
X41499482Y-118760812D01*
X41619180Y-118724502D01*
X41729494Y-118665537D01*
X41826185Y-118586185D01*
X41905537Y-118489494D01*
X41964502Y-118379180D01*
X42000812Y-118259482D01*
X42013072Y-118135000D01*
X42013072Y-117185000D01*
X42000812Y-117060518D01*
X41964502Y-116940820D01*
X41905537Y-116830506D01*
X41826185Y-116733815D01*
X41729494Y-116654463D01*
X41619180Y-116595498D01*
X41499482Y-116559188D01*
X41375000Y-116546928D01*
X40075000Y-116546928D01*
X39950518Y-116559188D01*
X39893891Y-116576366D01*
X39839685Y-116510315D01*
X39742994Y-116430963D01*
X39632680Y-116371998D01*
X39512982Y-116335688D01*
X39388500Y-116323428D01*
X37991500Y-116323428D01*
X37867018Y-116335688D01*
X37747320Y-116371998D01*
X37637006Y-116430963D01*
X37540315Y-116510315D01*
X37460963Y-116607006D01*
X37401998Y-116717320D01*
X37365688Y-116837018D01*
X37353428Y-116961500D01*
X33743356Y-116961500D01*
X33743463Y-114772408D01*
X36913000Y-114772408D01*
X36913000Y-115047592D01*
X36966686Y-115317490D01*
X37071995Y-115571727D01*
X37224880Y-115800535D01*
X37419465Y-115995120D01*
X37648273Y-116148005D01*
X37902510Y-116253314D01*
X38172408Y-116307000D01*
X38447592Y-116307000D01*
X38717490Y-116253314D01*
X38971727Y-116148005D01*
X39200535Y-115995120D01*
X39395120Y-115800535D01*
X39548005Y-115571727D01*
X39580000Y-115494485D01*
X39611995Y-115571727D01*
X39764880Y-115800535D01*
X39959465Y-115995120D01*
X40188273Y-116148005D01*
X40442510Y-116253314D01*
X40712408Y-116307000D01*
X40987592Y-116307000D01*
X41257490Y-116253314D01*
X41511727Y-116148005D01*
X41740535Y-115995120D01*
X41860090Y-115875565D01*
X42604040Y-115875565D01*
X42671020Y-116115656D01*
X42920048Y-116232756D01*
X43187135Y-116299023D01*
X43462017Y-116311910D01*
X43734133Y-116270922D01*
X43993023Y-116177636D01*
X44108980Y-116115656D01*
X44175960Y-115875565D01*
X43390000Y-115089605D01*
X42604040Y-115875565D01*
X41860090Y-115875565D01*
X41935120Y-115800535D01*
X42088005Y-115571727D01*
X42117692Y-115500057D01*
X42122364Y-115513023D01*
X42184344Y-115628980D01*
X42424435Y-115695960D01*
X43210395Y-114910000D01*
X43569605Y-114910000D01*
X44355565Y-115695960D01*
X44595656Y-115628980D01*
X44657079Y-115498356D01*
X44662364Y-115513023D01*
X44724344Y-115628980D01*
X44964435Y-115695960D01*
X45750395Y-114910000D01*
X44964435Y-114124040D01*
X44724344Y-114191020D01*
X44662921Y-114321644D01*
X44657636Y-114306977D01*
X44595656Y-114191020D01*
X44355565Y-114124040D01*
X43569605Y-114910000D01*
X43210395Y-114910000D01*
X42424435Y-114124040D01*
X42184344Y-114191020D01*
X42120515Y-114326760D01*
X42088005Y-114248273D01*
X41935120Y-114019465D01*
X41860090Y-113944435D01*
X42604040Y-113944435D01*
X43390000Y-114730395D01*
X44175960Y-113944435D01*
X44108980Y-113704344D01*
X43859952Y-113587244D01*
X43592865Y-113520977D01*
X43317983Y-113508090D01*
X43045867Y-113549078D01*
X42786977Y-113642364D01*
X42671020Y-113704344D01*
X42604040Y-113944435D01*
X41860090Y-113944435D01*
X41740535Y-113824880D01*
X41511727Y-113671995D01*
X41394379Y-113623388D01*
X41481714Y-113551714D01*
X41686031Y-113302752D01*
X41837852Y-113018715D01*
X41931343Y-112710516D01*
X41962911Y-112390000D01*
X41931343Y-112069484D01*
X41837852Y-111761285D01*
X41686031Y-111477248D01*
X41481714Y-111228286D01*
X41232752Y-111023969D01*
X40948715Y-110872148D01*
X40640516Y-110778657D01*
X40400322Y-110755000D01*
X39739678Y-110755000D01*
X39499484Y-110778657D01*
X39191285Y-110872148D01*
X38907248Y-111023969D01*
X38658286Y-111228286D01*
X38453969Y-111477248D01*
X38302148Y-111761285D01*
X38208657Y-112069484D01*
X38177089Y-112390000D01*
X38208657Y-112710516D01*
X38302148Y-113018715D01*
X38453969Y-113302752D01*
X38658286Y-113551714D01*
X38663426Y-113555932D01*
X38447592Y-113513000D01*
X38172408Y-113513000D01*
X37902510Y-113566686D01*
X37648273Y-113671995D01*
X37419465Y-113824880D01*
X37224880Y-114019465D01*
X37071995Y-114248273D01*
X36966686Y-114502510D01*
X36913000Y-114772408D01*
X33743463Y-114772408D01*
X33743835Y-107153891D01*
X35525000Y-107153891D01*
X35525000Y-107466109D01*
X35585911Y-107772327D01*
X35705391Y-108060779D01*
X35878850Y-108320379D01*
X36099621Y-108541150D01*
X36359221Y-108714609D01*
X36647673Y-108834089D01*
X36953891Y-108895000D01*
X37266109Y-108895000D01*
X37572327Y-108834089D01*
X37860779Y-108714609D01*
X38120379Y-108541150D01*
X38341150Y-108320379D01*
X38514609Y-108060779D01*
X38634089Y-107772327D01*
X38695000Y-107466109D01*
X38695000Y-107153891D01*
X38674430Y-107050475D01*
X39975000Y-107050475D01*
X39975000Y-107569525D01*
X40076261Y-108078601D01*
X40274893Y-108558141D01*
X40563262Y-108989715D01*
X40930285Y-109356738D01*
X41361859Y-109645107D01*
X41841399Y-109843739D01*
X42350475Y-109945000D01*
X42869525Y-109945000D01*
X43378601Y-109843739D01*
X43858141Y-109645107D01*
X44289715Y-109356738D01*
X44656738Y-108989715D01*
X44945107Y-108558141D01*
X45143739Y-108078601D01*
X45245000Y-107569525D01*
X45245000Y-107050475D01*
X45143739Y-106541399D01*
X44945107Y-106061859D01*
X44656738Y-105630285D01*
X44289715Y-105263262D01*
X43858141Y-104974893D01*
X43378601Y-104776261D01*
X42869525Y-104675000D01*
X42350475Y-104675000D01*
X41841399Y-104776261D01*
X41361859Y-104974893D01*
X40930285Y-105263262D01*
X40563262Y-105630285D01*
X40274893Y-106061859D01*
X40076261Y-106541399D01*
X39975000Y-107050475D01*
X38674430Y-107050475D01*
X38634089Y-106847673D01*
X38514609Y-106559221D01*
X38341150Y-106299621D01*
X38120379Y-106078850D01*
X37860779Y-105905391D01*
X37572327Y-105785911D01*
X37266109Y-105725000D01*
X36953891Y-105725000D01*
X36647673Y-105785911D01*
X36359221Y-105905391D01*
X36099621Y-106078850D01*
X35878850Y-106299621D01*
X35705391Y-106559221D01*
X35585911Y-106847673D01*
X35525000Y-107153891D01*
X33743835Y-107153891D01*
X33744205Y-99552408D01*
X36913000Y-99552408D01*
X36913000Y-99827592D01*
X36966686Y-100097490D01*
X37071995Y-100351727D01*
X37224880Y-100580535D01*
X37419465Y-100775120D01*
X37648273Y-100928005D01*
X37902510Y-101033314D01*
X38172408Y-101087000D01*
X38447592Y-101087000D01*
X38717490Y-101033314D01*
X38971727Y-100928005D01*
X39200535Y-100775120D01*
X39320090Y-100655565D01*
X40064040Y-100655565D01*
X40131020Y-100895656D01*
X40380048Y-101012756D01*
X40647135Y-101079023D01*
X40922017Y-101091910D01*
X41194133Y-101050922D01*
X41453023Y-100957636D01*
X41568980Y-100895656D01*
X41635960Y-100655565D01*
X40850000Y-99869605D01*
X40064040Y-100655565D01*
X39320090Y-100655565D01*
X39395120Y-100580535D01*
X39548005Y-100351727D01*
X39577692Y-100280057D01*
X39582364Y-100293023D01*
X39644344Y-100408980D01*
X39884435Y-100475960D01*
X40670395Y-99690000D01*
X39884435Y-98904040D01*
X39644344Y-98971020D01*
X39580515Y-99106760D01*
X39548005Y-99028273D01*
X39395120Y-98799465D01*
X39200535Y-98604880D01*
X38971727Y-98451995D01*
X38717490Y-98346686D01*
X38447592Y-98293000D01*
X38172408Y-98293000D01*
X37902510Y-98346686D01*
X37648273Y-98451995D01*
X37419465Y-98604880D01*
X37224880Y-98799465D01*
X37071995Y-99028273D01*
X36966686Y-99282510D01*
X36913000Y-99552408D01*
X33744205Y-99552408D01*
X33744271Y-98215045D01*
X34001108Y-98282384D01*
X34322595Y-98301718D01*
X34641675Y-98257961D01*
X34946088Y-98152795D01*
X35120044Y-98059814D01*
X35215808Y-97795413D01*
X34260000Y-96839605D01*
X34245858Y-96853748D01*
X34066253Y-96674143D01*
X34080395Y-96660000D01*
X34439605Y-96660000D01*
X35395413Y-97615808D01*
X35659814Y-97520044D01*
X35800704Y-97230429D01*
X35882384Y-96918892D01*
X35901718Y-96597405D01*
X35888219Y-96498967D01*
X39125000Y-96498967D01*
X39125000Y-96821033D01*
X39187832Y-97136912D01*
X39311082Y-97434463D01*
X39490013Y-97702252D01*
X39717748Y-97929987D01*
X39985537Y-98108918D01*
X40283088Y-98232168D01*
X40598967Y-98295000D01*
X40732108Y-98295000D01*
X40505867Y-98329078D01*
X40246977Y-98422364D01*
X40131020Y-98484344D01*
X40064040Y-98724435D01*
X40850000Y-99510395D01*
X41635960Y-98724435D01*
X41568980Y-98484344D01*
X41319952Y-98367244D01*
X41052865Y-98300977D01*
X40921861Y-98294835D01*
X41236912Y-98232168D01*
X41534463Y-98108918D01*
X41802252Y-97929987D01*
X42029987Y-97702252D01*
X42208918Y-97434463D01*
X42332168Y-97136912D01*
X42395000Y-96821033D01*
X42395000Y-96498967D01*
X42332168Y-96183088D01*
X42208918Y-95885537D01*
X42029987Y-95617748D01*
X41802252Y-95390013D01*
X41534463Y-95211082D01*
X41236912Y-95087832D01*
X40921033Y-95025000D01*
X40598967Y-95025000D01*
X40283088Y-95087832D01*
X39985537Y-95211082D01*
X39717748Y-95390013D01*
X39490013Y-95617748D01*
X39311082Y-95885537D01*
X39187832Y-96183088D01*
X39125000Y-96498967D01*
X35888219Y-96498967D01*
X35857961Y-96278325D01*
X35752795Y-95973912D01*
X35659814Y-95799956D01*
X35395413Y-95704192D01*
X34439605Y-96660000D01*
X34080395Y-96660000D01*
X34066253Y-96645858D01*
X34245858Y-96466253D01*
X34260000Y-96480395D01*
X35215808Y-95524587D01*
X35120044Y-95260186D01*
X34830429Y-95119296D01*
X34518892Y-95037616D01*
X34197405Y-95018282D01*
X33878325Y-95062039D01*
X33744423Y-95108298D01*
X33745098Y-81264701D01*
X33783767Y-80870322D01*
X33888921Y-80522034D01*
X34059722Y-80200803D01*
X34289662Y-79918869D01*
X34569988Y-79686962D01*
X34890017Y-79513924D01*
X35237564Y-79406340D01*
X35629945Y-79365099D01*
X41593530Y-79364904D01*
X41575000Y-79458061D01*
M02*
