M48
; DRILL file {KiCad (5.1.5)-2} date 2020/02/27 15:57:59
; FORMAT={-:-/ absolute / inch / decimal}
; #@! TF.CreationDate,2020-02-27T15:57:59+09:00
; #@! TF.GenerationSoftware,Kicad,Pcbnew,(5.1.5)-2
; #@! TF.FileFunction,NonPlated,1,2,NPTH
FMAT,2
INCH
T1C0.0472
T2C0.0669
T3C0.0689
T4C0.0748
T5C0.0866
T6C0.1181
T7C0.1200
T8C0.1570
T9C0.1575
T10C0.1614
%
G90
G05
T1
X10.0433Y-4.3937
T2
X10.2087Y-4.3827
X10.2087Y-4.8157
T3
X10.2087Y-4.3992
X10.2087Y-4.7992
T4
X7.4776Y-4.2248
X7.8776Y-4.2248
X8.2276Y-4.9748
X8.6276Y-4.9748
X2.2276Y-3.4748
X2.6276Y-3.4748
X5.2276Y-3.4748
X5.6276Y-3.4748
X4.4776Y-4.2248
X4.8776Y-4.2248
X8.2276Y-4.2248
X8.6276Y-4.2248
X5.9776Y-4.9748
X6.3776Y-4.9748
X9.0748Y-4.974
X9.4748Y-4.974
X3.7276Y-3.4748
X4.1276Y-3.4748
X9.9161Y-3.4748
X10.3161Y-3.4748
X1.4776Y-4.9748
X1.8776Y-4.9748
X4.4776Y-4.9748
X4.8776Y-4.9748
X5.2276Y-4.9748
X5.6276Y-4.9748
X7.4776Y-3.4748
X7.8776Y-3.4748
X4.4776Y-3.4748
X4.8776Y-3.4748
X3.7276Y-4.9748
X4.1276Y-4.9748
X2.2276Y-4.9748
X2.6276Y-4.9748
X1.461Y-4.2248
X1.8941Y-4.2248
X8.2276Y-3.4748
X8.6276Y-3.4748
X5.2276Y-4.2248
X5.6276Y-4.2248
X2.211Y-4.2248
X2.6441Y-4.2248
X2.9776Y-4.9748
X3.3776Y-4.9748
X8.9776Y-4.2248
X9.3776Y-4.2248
X6.7276Y-4.9748
X7.1276Y-4.9748
X3.7276Y-4.2248
X4.1276Y-4.2248
X2.9776Y-4.2248
X3.3776Y-4.2248
X5.9776Y-4.2248
X6.3776Y-4.2248
X7.4776Y-4.9748
X7.8776Y-4.9748
X8.9776Y-3.4748
X9.3776Y-3.4748
X6.7276Y-3.4748
X7.1276Y-3.4748
X6.7276Y-4.2248
X7.1276Y-4.2248
X1.4776Y-3.4748
X1.8776Y-3.4748
X5.9776Y-3.4748
X6.3776Y-3.4748
X2.9776Y-3.4748
X3.3776Y-3.4748
T5
X5.8055Y-5.2583
X2.0531Y-5.2571
X5.8016Y-3.1913
X9.7398Y-3.189
X2.0516Y-3.1886
X9.8591Y-5.2516
T6
X7.5276Y-4.1248
X7.5776Y-4.0248
X7.7776Y-4.0248
X7.8276Y-4.1248
X8.2776Y-4.8748
X8.3276Y-4.7748
X8.5276Y-4.7748
X8.5776Y-4.8748
X2.2776Y-3.3748
X2.3276Y-3.2748
X2.5276Y-3.2748
X2.5776Y-3.3748
X5.2776Y-3.3748
X5.3276Y-3.2748
X5.5276Y-3.2748
X5.5776Y-3.3748
X4.5276Y-4.1248
X4.5776Y-4.0248
X4.7776Y-4.0248
X4.8276Y-4.1248
X8.2776Y-4.1248
X8.3276Y-4.0248
X8.5276Y-4.0248
X8.5776Y-4.1248
X6.0276Y-4.8748
X6.0776Y-4.7748
X6.2776Y-4.7748
X6.3276Y-4.8748
X9.1248Y-4.874
X9.1748Y-4.774
X9.3748Y-4.774
X9.4248Y-4.874
X3.7776Y-3.3748
X3.8276Y-3.2748
X4.0276Y-3.2748
X4.0776Y-3.3748
X9.9661Y-3.3748
X10.0161Y-3.2748
X10.2161Y-3.2748
X10.2661Y-3.3748
X1.5276Y-4.8748
X1.5776Y-4.7748
X1.7776Y-4.7748
X1.8276Y-4.8748
X4.5276Y-4.8748
X4.5776Y-4.7748
X4.7776Y-4.7748
X4.8276Y-4.8748
X5.2776Y-4.8748
X5.3276Y-4.7748
X5.5276Y-4.7748
X5.5776Y-4.8748
X7.5276Y-3.3748
X7.5776Y-3.2748
X7.7776Y-3.2748
X7.8276Y-3.3748
X4.5276Y-3.3748
X4.5776Y-3.2748
X4.7776Y-3.2748
X4.8276Y-3.3748
X3.7776Y-4.8748
X3.8276Y-4.7748
X4.0276Y-4.7748
X4.0776Y-4.8748
X2.2776Y-4.8748
X2.3276Y-4.7748
X2.5276Y-4.7748
X2.5776Y-4.8748
X8.2776Y-3.3748
X8.3276Y-3.2748
X8.5276Y-3.2748
X8.5776Y-3.3748
X5.2776Y-4.1248
X5.3276Y-4.0248
X5.5276Y-4.0248
X5.5776Y-4.1248
X3.0276Y-4.8748
X3.0776Y-4.7748
X3.2776Y-4.7748
X3.3276Y-4.8748
X9.0276Y-4.1248
X9.0776Y-4.0248
X9.2776Y-4.0248
X9.3276Y-4.1248
X6.7776Y-4.8748
X6.8276Y-4.7748
X7.0276Y-4.7748
X7.0776Y-4.8748
X3.7776Y-4.1248
X3.8276Y-4.0248
X4.0276Y-4.0248
X4.0776Y-4.1248
X3.0276Y-4.1248
X3.0776Y-4.0248
X3.2776Y-4.0248
X3.3276Y-4.1248
X6.0276Y-4.1248
X6.0776Y-4.0248
X6.2776Y-4.0248
X6.3276Y-4.1248
X7.5276Y-4.8748
X7.5776Y-4.7748
X7.7776Y-4.7748
X7.8276Y-4.8748
X9.0276Y-3.3748
X9.0776Y-3.2748
X9.2776Y-3.2748
X9.3276Y-3.3748
X6.7776Y-3.3748
X6.8276Y-3.2748
X7.0276Y-3.2748
X7.0776Y-3.3748
X6.7776Y-4.1248
X6.8276Y-4.0248
X7.0276Y-4.0248
X7.0776Y-4.1248
X1.5276Y-3.3748
X1.5776Y-3.2748
X1.7776Y-3.2748
X1.8276Y-3.3748
X6.0276Y-3.3748
X6.0776Y-3.2748
X6.2776Y-3.2748
X6.3276Y-3.3748
X3.0276Y-3.3748
X3.0776Y-3.2748
X3.2776Y-3.2748
X3.3276Y-3.3748
T7
X10.4837Y-4.1292
X10.4837Y-5.0692
T8
X9.8837Y-4.1292
X9.8837Y-5.0692
X10.2087Y-4.5992
T9
X1.6776Y-4.2248
X2.4276Y-4.2248
T10
X1.6776Y-4.9748
X4.6776Y-4.9748
X5.4276Y-4.9748
X7.6776Y-3.4748
X4.6776Y-3.4748
X3.9276Y-4.9748
X2.4276Y-4.9748
X8.4276Y-3.4748
X5.4276Y-4.2248
X3.1776Y-4.9748
X9.1776Y-4.2248
X6.9276Y-4.9748
X3.9276Y-4.2248
X3.1776Y-4.2248
X6.1776Y-4.2248
X7.6776Y-4.9748
X9.1776Y-3.4748
X6.9276Y-3.4748
X6.9276Y-4.2248
X1.6776Y-3.4748
X6.1776Y-3.4748
X3.1776Y-3.4748
X7.6776Y-4.2248
X8.4276Y-4.9748
X2.4276Y-3.4748
X5.4276Y-3.4748
X4.6776Y-4.2248
X8.4276Y-4.2248
X6.1776Y-4.9748
X9.2748Y-4.974
X3.9276Y-3.4748
X10.1161Y-3.4748
T0
M30
