<?xml version="1.0" encoding="utf-8"?>
<!-- Generator: Adobe Illustrator 24.0.0, SVG Export Plug-In . SVG Version: 6.00 Build 0)  -->
<svg version="1.1" id="レイヤー_1" xmlns="http://www.w3.org/2000/svg" xmlns:xlink="http://www.w3.org/1999/xlink" x="0px"
	 y="0px" viewBox="0 0 841.9 595.3" style="enable-background:new 0 0 841.9 595.3;" xml:space="preserve">
<style type="text/css">
	.st0{fill:none;stroke:#FF0000;stroke-width:0.2835;stroke-miterlimit:10;}
</style>
<title>SVG Picture created as First_keyboard30-Edge_Cuts.svg date 2019/12/24 01:54:39</title>
<desc>Picture generated by PCBNEW</desc>
<g transform="translate(0 0) scale(1 1)">
</g>
<g>
	<path class="st0" d="M737.2,310.3H76.6"/>
	<path class="st0" d="M76.6,148.3h660.6"/>
	<path class="st0" d="M69.4,303V155.4"/>
	<path class="st0" d="M744.3,155.5v147.6"/>
	<path class="st0" d="M744.3,155.5c0-4-3.2-7.2-7.2-7.2"/>
	<path class="st0" d="M737.2,310.3c4,0,7.2-3.2,7.2-7.2"/>
	<path class="st0" d="M69.4,303c0,4,3.2,7.2,7.2,7.2"/>
	<path class="st0" d="M76.6,148.3c-4,0-7.2,3.2-7.2,7.2"/>
</g>
<g>
	<circle class="st0" cx="123.2" cy="154.8" r="3.1"/>
	<circle class="st0" cx="123.4" cy="303.7" r="3.1"/>
	<circle class="st0" cx="393.2" cy="155" r="3.1"/>
	<circle class="st0" cx="685.3" cy="303.3" r="3.1"/>
	<circle class="st0" cx="676.8" cy="154.8" r="3.1"/>
</g>
<path class="st0" d="M508.8,209.6v39.3h39.3v-39.3H508.8z"/>
<path class="st0" d="M684.3,155.6v39.3h39.3v-39.3H684.3z"/>
<path class="st0" d="M616.8,155.6v39.3h39.3v-39.3H616.8z"/>
<path class="st0" d="M616.8,209.7V249h39.3v-39.3H616.8z"/>
<path class="st0" d="M562.8,155.6v39.3h39.3v-39.3H562.8z"/>
<path class="st0" d="M562.8,209.7V249h39.3v-39.3H562.8z"/>
<path class="st0" d="M508.8,155.6v39.3h39.3v-39.3H508.8z"/>
<path class="st0" d="M515.8,263.6v39.3h39.3v-39.3H515.8z"/>
<path class="st0" d="M454.8,263.6v39.3h39.3v-39.3H454.8z"/>
<path class="st0" d="M454.8,209.7V249h39.3v-39.3H454.8z"/>
<path class="st0" d="M454.8,155.6v39.3h39.3v-39.3H454.8z"/>
<path class="st0" d="M400.8,155.6v39.3H440v-39.3H400.8z"/>
<path class="st0" d="M400.8,209.6v39.3H440v-39.3H400.8z"/>
<path class="st0" d="M400.8,263.6v39.3H440v-39.3H400.8z"/>
<path class="st0" d="M346.8,263.6v39.3H386v-39.3H346.8z"/>
<path class="st0" d="M346.8,209.6v39.3H386v-39.3H346.8z"/>
<path class="st0" d="M346.8,155.6v39.3H386v-39.3H346.8z"/>
<path class="st0" d="M292.8,155.6v39.3h39.3v-39.3H292.8z"/>
<path class="st0" d="M292.8,209.6v39.3h39.3v-39.3H292.8z"/>
<path class="st0" d="M292.8,263.6v39.3h39.3v-39.3H292.8z"/>
<path class="st0" d="M238.8,263.6v39.3h39.3v-39.3H238.8z"/>
<path class="st0" d="M238.8,209.6v39.3h39.3v-39.3H238.8z"/>
<path class="st0" d="M238.8,155.6v39.3h39.3v-39.3H238.8z"/>
<path class="st0" d="M184.8,155.6v39.3h39.3v-39.3H184.8z"/>
<path class="st0" d="M184.8,209.6v39.3h39.3v-39.3H184.8z"/>
<path class="st0" d="M184.8,263.6v39.3h39.3v-39.3H184.8z"/>
<path class="st0" d="M130.8,155.6v39.3h39.3v-39.3H130.8z"/>
<path class="st0" d="M130.8,209.6v39.3h39.3v-39.3H130.8z"/>
<path class="st0" d="M130.8,263.6v39.3h39.3v-39.3H130.8z"/>
<path class="st0" d="M76.8,263.6v39.3h39.3v-39.3H76.8z"/>
<path class="st0" d="M76.8,209.6v39.3h39.3v-39.3H76.8z"/>
<path class="st0" d="M76.8,155.6v39.3h39.3v-39.3H76.8z"/>
<path class="st0" d="M646,302.9v-13.3"/>
<path class="st0" d="M587.8,301.4h9.4"/>
<path class="st0" d="M606.3,302.9H646"/>
<path class="st0" d="M597.1,301.4v-2.6"/>
<path class="st0" d="M646,289.6h4.3"/>
<path class="st0" d="M602,289.6h4.3"/>
<path class="st0" d="M606.3,289.6v13.3"/>
<path class="st0" d="M597.1,298.8h4.9"/>
<path class="st0" d="M602,298.8v-9.2"/>
<path class="st0" d="M646,276.6v-13.3"/>
<path class="st0" d="M597.1,263.9v-2.8"/>
<path class="st0" d="M602,276.6v-12.7"/>
<path class="st0" d="M606.3,276.6H602"/>
<path class="st0" d="M606.3,263.3v13.3"/>
<path class="st0" d="M646,263.3h-39.7"/>
<path class="st0" d="M587.8,261.1v2.8"/>
<path class="st0" d="M597.1,261.1h-9.4"/>
<path class="st0" d="M602,263.9h-4.9"/>
<path class="st0" d="M602,263.9h-4.5"/>
<path class="st0" d="M582.9,281.7h-2.3"/>
<path class="st0" d="M580.5,289.6h2.3"/>
<path class="st0" d="M587.8,263.9h-4.9"/>
<path class="st0" d="M580.5,281.7v7.9"/>
<path class="st0" d="M582.9,263.9v17.8"/>
<path class="st0" d="M650.3,289.6v9.2"/>
<path class="st0" d="M650.3,298.8h4.9"/>
<path class="st0" d="M655.2,298.8v2.6"/>
<path class="st0" d="M646,302.9v-13.3"/>
<path class="st0" d="M671.8,289.6v-7.9"/>
<path class="st0" d="M664.6,263.9v-2.8"/>
<path class="st0" d="M664.6,261.1h-9.4"/>
<path class="st0" d="M655.2,261.1v2.8"/>
<path class="st0" d="M650.3,276.6H646"/>
<path class="st0" d="M664.6,301.4v-2.6"/>
<path class="st0" d="M669.5,263.9h-4.9"/>
<path class="st0" d="M650.3,263.9v12.7"/>
<path class="st0" d="M582.9,289.6v9.2"/>
<path class="st0" d="M669.5,289.6h2.3"/>
<path class="st0" d="M664.6,298.8h4.9"/>
<path class="st0" d="M669.5,298.8v-9.2"/>
<path class="st0" d="M655.2,263.9h-4.9"/>
<path class="st0" d="M671.8,281.7h-2.3"/>
<path class="st0" d="M582.9,298.8h4.9"/>
<path class="st0" d="M587.8,298.8v2.6"/>
<path class="st0" d="M655.2,301.4h9.4"/>
<path class="st0" d="M669.5,281.7v-17.8"/>
<path class="st0" d="M580.5,289.6h2.3"/>
<path class="st0" d="M646,303"/>
<path class="st0" d="M717.2,210.6h-7.9"/>
<path class="st0" d="M717.2,212.9v-2.3"/>
<path class="st0" d="M726.3,212.9h-9.2"/>
<path class="st0" d="M726.3,217.8v-4.9"/>
<path class="st0" d="M729,217.8h-2.6"/>
<path class="st0" d="M729,227.2v-9.4"/>
<path class="st0" d="M704.1,232.1v4.3"/>
<path class="st0" d="M691.5,232.1h12.7"/>
<path class="st0" d="M691.5,227.2v4.9"/>
<path class="st0" d="M688.7,227.2h2.8"/>
<path class="st0" d="M688.7,217.8v9.4"/>
<path class="st0" d="M691.5,217.8h-2.8"/>
<path class="st0" d="M691.5,212.9v4.9"/>
<path class="st0" d="M709.3,212.9h-17.8"/>
<path class="st0" d="M709.3,210.6v2.3"/>
<path class="st0" d="M726.3,294.6h2.6"/>
<path class="st0" d="M726.3,299.5v-4.9"/>
<path class="st0" d="M717.2,299.5h9.2"/>
<path class="st0" d="M717.2,301.9v-2.3"/>
<path class="st0" d="M709.3,301.9h7.9"/>
<path class="st0" d="M709.3,299.5v2.3"/>
<path class="st0" d="M691.5,299.5h17.8"/>
<path class="st0" d="M691.5,294.6v4.9"/>
<path class="st0" d="M688.7,294.6h2.8"/>
<path class="st0" d="M688.7,285.3v9.4"/>
<path class="st0" d="M691.5,285.3h-2.8"/>
<path class="st0" d="M691.5,280.4v4.9"/>
<path class="st0" d="M704.1,280.4h-12.7"/>
<path class="st0" d="M704.1,276.1v4.3"/>
<path class="st0" d="M690.8,276.1h13.3"/>
<path class="st0" d="M690.8,236.4v39.7"/>
<path class="st0" d="M704.1,236.4h-13.3"/>
<path class="st0" d="M717.2,236.4v-4.3"/>
<path class="st0" d="M730.5,236.4h-13.3"/>
<path class="st0" d="M730.5,276.1v-39.7"/>
<path class="st0" d="M717.2,276.1h13.3"/>
<path class="st0" d="M717.2,280.4v-4.3"/>
<path class="st0" d="M726.3,280.4h-9.2"/>
<path class="st0" d="M726.3,285.3v-4.9"/>
<path class="st0" d="M729,285.3h-2.6"/>
<path class="st0" d="M729,294.6v-9.4"/>
<path class="st0" d="M726.3,227.2h2.6"/>
<path class="st0" d="M726.3,232.1v-4.9"/>
<path class="st0" d="M717.2,232.1h9.2"/>
<path class="st0" d="M691.5,217.8h-2.8"/>
<path class="st0" d="M709.3,212.9h-17.8"/>
<path class="st0" d="M730.5,236.4h-13.3"/>
<g>
	<path class="st0" d="M736.1,484.4H75.5"/>
	<path class="st0" d="M75.6,322.4h660.6"/>
	<path class="st0" d="M68.4,477.1V329.5"/>
	<path class="st0" d="M743.3,329.5v147.6"/>
	<path class="st0" d="M743.3,329.5c0-4-3.2-7.2-7.2-7.2"/>
	<path class="st0" d="M736.1,484.4c4,0,7.2-3.2,7.2-7.2"/>
	<path class="st0" d="M68.4,477.1c0,4,3.2,7.2,7.2,7.2"/>
	<path class="st0" d="M75.6,322.4c-4,0-7.2,3.2-7.2,7.2"/>
</g>
<g>
	<circle class="st0" cx="122.2" cy="328.9" r="3.1"/>
	<circle class="st0" cx="122.4" cy="477.8" r="3.1"/>
	<circle class="st0" cx="392.2" cy="329.1" r="3.1"/>
	<circle class="st0" cx="684.3" cy="477.4" r="3.1"/>
	<circle class="st0" cx="675.8" cy="328.9" r="3.1"/>
</g>
</svg>
