  0
SECTION
  2
HEADER
  9
$ACADVER
  1
AC1009
  9
$EXTMIN
 10
0.0
 20
0.0
 30
0.0
  9
$EXTMAX
 10
1000.0
 20
1000.0
 30
0.0
  9
$FILLMODE
 70
 0
  9
$SPLFRAME
 70
 1
  0
ENDSEC
  0
SECTION
  2
TABLES
  0
TABLE
  2
LAYER
 70
1
  0
LAYER
  2
0
 70
     0
 62
     7
  6
CONTINUOUS
  0
ENDTAB
  0
ENDSEC
  0
SECTION
  2
ENTITIES
  0
LINE
  8
0
 62
     0
 10
176.966
 20
46.076
 30
0.0
 11
2.18281
 21
46.076
 31
0.0
  0
LINE
  8
0
 62
     0
 10
2.18281
 20
88.9385
 30
0.0
 11
176.966
 21
88.9385
 31
0.0
  0
LINE
  8
0
 62
     0
 10
0.278364
 20
48.0095
 30
0.0
 11
0.278364
 21
87.0603
 31
0.0
  0
LINE
  8
0
 62
     0
 10
178.845
 20
87.0342
 30
0.0
 11
178.845
 21
47.982
 31
0.0
  0
LINE
  8
0
 62
     0
 10
178.845
 20
87.0342
 30
0.0
 11
178.845
 21
87.2201
 31
0.0
  0
LINE
  8
0
 62
     0
 10
178.845
 20
87.2201
 30
0.0
 11
178.696
 21
87.7782
 31
0.0
  0
LINE
  8
0
 62
     0
 10
178.696
 20
87.7782
 30
0.0
 11
178.289
 21
88.3832
 31
0.0
  0
LINE
  8
0
 62
     0
 10
178.289
 20
88.3832
 30
0.0
 11
177.683
 21
88.791
 31
0.0
  0
LINE
  8
0
 62
     0
 10
177.683
 20
88.791
 30
0.0
 11
177.125
 21
88.9385
 31
0.0
  0
LINE
  8
0
 62
     0
 10
177.125
 20
88.9385
 30
0.0
 11
176.94
 21
88.9385
 31
0.0
  0
LINE
  8
0
 62
     0
 10
176.966
 20
46.076
 30
0.0
 11
177.152
 21
46.076
 31
0.0
  0
LINE
  8
0
 62
     0
 10
177.152
 20
46.076
 30
0.0
 11
177.71
 21
46.2262
 31
0.0
  0
LINE
  8
0
 62
     0
 10
177.71
 20
46.2262
 30
0.0
 11
178.315
 21
46.633
 31
0.0
  0
LINE
  8
0
 62
     0
 10
178.315
 20
46.633
 30
0.0
 11
178.722
 21
47.2376
 31
0.0
  0
LINE
  8
0
 62
     0
 10
178.722
 20
47.2376
 30
0.0
 11
178.872
 21
47.7957
 31
0.0
  0
LINE
  8
0
 62
     0
 10
178.872
 20
47.7957
 30
0.0
 11
178.872
 21
47.982
 31
0.0
  0
LINE
  8
0
 62
     0
 10
0.278364
 20
48.0095
 30
0.0
 11
0.278364
 21
47.8236
 31
0.0
  0
LINE
  8
0
 62
     0
 10
0.278364
 20
47.8236
 30
0.0
 11
0.425813
 21
47.2652
 31
0.0
  0
LINE
  8
0
 62
     0
 10
0.425813
 20
47.2652
 30
0.0
 11
0.833713
 21
46.6605
 31
0.0
  0
LINE
  8
0
 62
     0
 10
0.833713
 20
46.6605
 30
0.0
 11
1.43867
 21
46.2538
 31
0.0
  0
LINE
  8
0
 62
     0
 10
1.43867
 20
46.2538
 30
0.0
 11
1.99678
 21
46.1038
 31
0.0
  0
LINE
  8
0
 62
     0
 10
1.99678
 20
46.1038
 30
0.0
 11
2.18281
 21
46.1038
 31
0.0
  0
LINE
  8
0
 62
     0
 10
2.18281
 20
88.9385
 30
0.0
 11
1.99678
 21
88.9385
 31
0.0
  0
LINE
  8
0
 62
     0
 10
1.99678
 20
88.9385
 30
0.0
 11
1.43867
 21
88.791
 31
0.0
  0
LINE
  8
0
 62
     0
 10
1.43867
 20
88.791
 30
0.0
 11
0.833713
 21
88.3832
 31
0.0
  0
LINE
  8
0
 62
     0
 10
0.833713
 20
88.3832
 30
0.0
 11
0.425813
 21
87.7782
 31
0.0
  0
LINE
  8
0
 62
     0
 10
0.425813
 20
87.7782
 30
0.0
 11
0.278364
 21
87.2201
 31
0.0
  0
LINE
  8
0
 62
     0
 10
0.278364
 20
87.2201
 30
0.0
 11
0.278364
 21
87.0342
 31
0.0
  0
LINE
  8
0
 62
     0
 10
15.332
 20
87.2187
 30
0.0
 11
15.332
 21
87.074
 31
0.0
  0
LINE
  8
0
 62
     0
 10
15.332
 20
87.074
 30
0.0
 11
15.0909
 21
86.6401
 31
0.0
  0
LINE
  8
0
 62
     0
 10
15.0909
 20
86.6401
 30
0.0
 11
14.6568
 21
86.3988
 31
0.0
  0
LINE
  8
0
 62
     0
 10
14.6568
 20
86.3988
 30
0.0
 11
14.5121
 21
86.3988
 31
0.0
  0
LINE
  8
0
 62
     0
 10
14.5121
 20
86.3988
 30
0.0
 11
14.3661
 21
86.3988
 31
0.0
  0
LINE
  8
0
 62
     0
 10
14.3661
 20
86.3988
 30
0.0
 11
13.932
 21
86.6401
 31
0.0
  0
LINE
  8
0
 62
     0
 10
13.932
 20
86.6401
 30
0.0
 11
13.6922
 21
87.074
 31
0.0
  0
LINE
  8
0
 62
     0
 10
13.6922
 20
87.074
 30
0.0
 11
13.6922
 21
87.2187
 31
0.0
  0
LINE
  8
0
 62
     0
 10
13.6922
 20
87.2187
 30
0.0
 11
13.6922
 21
87.3647
 31
0.0
  0
LINE
  8
0
 62
     0
 10
13.6922
 20
87.3647
 30
0.0
 11
13.932
 21
87.8004
 31
0.0
  0
LINE
  8
0
 62
     0
 10
13.932
 20
87.8004
 30
0.0
 11
14.3661
 21
88.0403
 31
0.0
  0
LINE
  8
0
 62
     0
 10
14.3661
 20
88.0403
 30
0.0
 11
14.5121
 21
88.0403
 31
0.0
  0
LINE
  8
0
 62
     0
 10
14.5121
 20
88.0403
 30
0.0
 11
14.6568
 21
88.0403
 31
0.0
  0
LINE
  8
0
 62
     0
 10
14.6568
 20
88.0403
 30
0.0
 11
15.0909
 21
87.8004
 31
0.0
  0
LINE
  8
0
 62
     0
 10
15.0909
 20
87.8004
 30
0.0
 11
15.332
 21
87.3647
 31
0.0
  0
LINE
  8
0
 62
     0
 10
15.332
 20
87.3647
 30
0.0
 11
15.332
 21
87.2187
 31
0.0
  0
LINE
  8
0
 62
     0
 10
15.3858
 20
47.8236
 30
0.0
 11
15.3858
 21
47.6786
 31
0.0
  0
LINE
  8
0
 62
     0
 10
15.3858
 20
47.6786
 30
0.0
 11
15.1446
 21
47.2433
 31
0.0
  0
LINE
  8
0
 62
     0
 10
15.1446
 20
47.2433
 30
0.0
 11
14.7106
 21
47.002
 31
0.0
  0
LINE
  8
0
 62
     0
 10
14.7106
 20
47.002
 30
0.0
 11
14.5659
 21
47.002
 31
0.0
  0
LINE
  8
0
 62
     0
 10
14.5659
 20
47.002
 30
0.0
 11
14.4198
 21
47.002
 31
0.0
  0
LINE
  8
0
 62
     0
 10
14.4198
 20
47.002
 30
0.0
 11
13.9843
 21
47.2433
 31
0.0
  0
LINE
  8
0
 62
     0
 10
13.9843
 20
47.2433
 30
0.0
 11
13.7445
 21
47.6786
 31
0.0
  0
LINE
  8
0
 62
     0
 10
13.7445
 20
47.6786
 30
0.0
 11
13.7445
 21
47.8236
 31
0.0
  0
LINE
  8
0
 62
     0
 10
13.7445
 20
47.8236
 30
0.0
 11
13.7445
 21
47.9697
 31
0.0
  0
LINE
  8
0
 62
     0
 10
13.7445
 20
47.9697
 30
0.0
 11
13.9843
 21
48.4036
 31
0.0
  0
LINE
  8
0
 62
     0
 10
13.9843
 20
48.4036
 30
0.0
 11
14.4198
 21
48.6435
 31
0.0
  0
LINE
  8
0
 62
     0
 10
14.4198
 20
48.6435
 30
0.0
 11
14.5659
 21
48.6435
 31
0.0
  0
LINE
  8
0
 62
     0
 10
14.5659
 20
48.6435
 30
0.0
 11
14.7106
 21
48.6435
 31
0.0
  0
LINE
  8
0
 62
     0
 10
14.7106
 20
48.6435
 30
0.0
 11
15.1446
 21
48.4036
 31
0.0
  0
LINE
  8
0
 62
     0
 10
15.1446
 20
48.4036
 30
0.0
 11
15.3858
 21
47.9697
 31
0.0
  0
LINE
  8
0
 62
     0
 10
15.3858
 20
47.9697
 30
0.0
 11
15.3858
 21
47.8236
 31
0.0
  0
LINE
  8
0
 62
     0
 10
86.7696
 20
87.1679
 30
0.0
 11
86.7696
 21
87.0232
 31
0.0
  0
LINE
  8
0
 62
     0
 10
86.7696
 20
87.0232
 30
0.0
 11
86.5283
 21
86.5875
 31
0.0
  0
LINE
  8
0
 62
     0
 10
86.5283
 20
86.5875
 30
0.0
 11
86.0944
 21
86.3466
 31
0.0
  0
LINE
  8
0
 62
     0
 10
86.0944
 20
86.3466
 30
0.0
 11
85.9497
 21
86.3466
 31
0.0
  0
LINE
  8
0
 62
     0
 10
85.9497
 20
86.3466
 30
0.0
 11
85.8037
 21
86.3466
 31
0.0
  0
LINE
  8
0
 62
     0
 10
85.8037
 20
86.3466
 30
0.0
 11
85.3694
 21
86.5875
 31
0.0
  0
LINE
  8
0
 62
     0
 10
85.3694
 20
86.5875
 30
0.0
 11
85.1299
 21
87.0232
 31
0.0
  0
LINE
  8
0
 62
     0
 10
85.1299
 20
87.0232
 30
0.0
 11
85.1299
 21
87.1679
 31
0.0
  0
LINE
  8
0
 62
     0
 10
85.1299
 20
87.1679
 30
0.0
 11
85.1299
 21
87.3125
 31
0.0
  0
LINE
  8
0
 62
     0
 10
85.1299
 20
87.3125
 30
0.0
 11
85.3694
 21
87.7464
 31
0.0
  0
LINE
  8
0
 62
     0
 10
85.3694
 20
87.7464
 30
0.0
 11
85.8037
 21
87.9863
 31
0.0
  0
LINE
  8
0
 62
     0
 10
85.8037
 20
87.9863
 30
0.0
 11
85.9497
 21
87.9863
 31
0.0
  0
LINE
  8
0
 62
     0
 10
85.9497
 20
87.9863
 30
0.0
 11
86.0944
 21
87.9863
 31
0.0
  0
LINE
  8
0
 62
     0
 10
86.0944
 20
87.9863
 30
0.0
 11
86.5283
 21
87.7464
 31
0.0
  0
LINE
  8
0
 62
     0
 10
86.5283
 20
87.7464
 30
0.0
 11
86.7696
 21
87.3125
 31
0.0
  0
LINE
  8
0
 62
     0
 10
86.7696
 20
87.3125
 30
0.0
 11
86.7696
 21
87.1679
 31
0.0
  0
LINE
  8
0
 62
     0
 10
164.055
 20
47.928
 30
0.0
 11
164.055
 21
47.7834
 31
0.0
  0
LINE
  8
0
 62
     0
 10
164.055
 20
47.7834
 30
0.0
 11
163.814
 21
47.3495
 31
0.0
  0
LINE
  8
0
 62
     0
 10
163.814
 20
47.3495
 30
0.0
 11
163.379
 21
47.1082
 31
0.0
  0
LINE
  8
0
 62
     0
 10
163.379
 20
47.1082
 30
0.0
 11
163.234
 21
47.1082
 31
0.0
  0
LINE
  8
0
 62
     0
 10
163.234
 20
47.1082
 30
0.0
 11
163.088
 21
47.1082
 31
0.0
  0
LINE
  8
0
 62
     0
 10
163.088
 20
47.1082
 30
0.0
 11
162.654
 21
47.3495
 31
0.0
  0
LINE
  8
0
 62
     0
 10
162.654
 20
47.3495
 30
0.0
 11
162.414
 21
47.7834
 31
0.0
  0
LINE
  8
0
 62
     0
 10
162.414
 20
47.7834
 30
0.0
 11
162.414
 21
47.928
 31
0.0
  0
LINE
  8
0
 62
     0
 10
162.414
 20
47.928
 30
0.0
 11
162.414
 21
48.0741
 31
0.0
  0
LINE
  8
0
 62
     0
 10
162.414
 20
48.0741
 30
0.0
 11
162.654
 21
48.5098
 31
0.0
  0
LINE
  8
0
 62
     0
 10
162.654
 20
48.5098
 30
0.0
 11
163.088
 21
48.7497
 31
0.0
  0
LINE
  8
0
 62
     0
 10
163.088
 20
48.7497
 30
0.0
 11
163.234
 21
48.7497
 31
0.0
  0
LINE
  8
0
 62
     0
 10
163.234
 20
48.7497
 30
0.0
 11
163.379
 21
48.7497
 31
0.0
  0
LINE
  8
0
 62
     0
 10
163.379
 20
48.7497
 30
0.0
 11
163.814
 21
48.5098
 31
0.0
  0
LINE
  8
0
 62
     0
 10
163.814
 20
48.5098
 30
0.0
 11
164.055
 21
48.0741
 31
0.0
  0
LINE
  8
0
 62
     0
 10
164.055
 20
48.0741
 30
0.0
 11
164.055
 21
47.928
 31
0.0
  0
LINE
  8
0
 62
     0
 10
161.806
 20
87.2187
 30
0.0
 11
161.806
 21
87.074
 31
0.0
  0
LINE
  8
0
 62
     0
 10
161.806
 20
87.074
 30
0.0
 11
161.565
 21
86.6401
 31
0.0
  0
LINE
  8
0
 62
     0
 10
161.565
 20
86.6401
 30
0.0
 11
161.13
 21
86.3988
 31
0.0
  0
LINE
  8
0
 62
     0
 10
161.13
 20
86.3988
 30
0.0
 11
160.985
 21
86.3988
 31
0.0
  0
LINE
  8
0
 62
     0
 10
160.985
 20
86.3988
 30
0.0
 11
160.839
 21
86.3988
 31
0.0
  0
LINE
  8
0
 62
     0
 10
160.839
 20
86.3988
 30
0.0
 11
160.405
 21
86.6401
 31
0.0
  0
LINE
  8
0
 62
     0
 10
160.405
 20
86.6401
 30
0.0
 11
160.165
 21
87.074
 31
0.0
  0
LINE
  8
0
 62
     0
 10
160.165
 20
87.074
 30
0.0
 11
160.165
 21
87.2187
 31
0.0
  0
LINE
  8
0
 62
     0
 10
160.165
 20
87.2187
 30
0.0
 11
160.165
 21
87.3647
 31
0.0
  0
LINE
  8
0
 62
     0
 10
160.165
 20
87.3647
 30
0.0
 11
160.405
 21
87.8004
 31
0.0
  0
LINE
  8
0
 62
     0
 10
160.405
 20
87.8004
 30
0.0
 11
160.839
 21
88.0403
 31
0.0
  0
LINE
  8
0
 62
     0
 10
160.839
 20
88.0403
 30
0.0
 11
160.985
 21
88.0403
 31
0.0
  0
LINE
  8
0
 62
     0
 10
160.985
 20
88.0403
 30
0.0
 11
161.13
 21
88.0403
 31
0.0
  0
LINE
  8
0
 62
     0
 10
161.13
 20
88.0403
 30
0.0
 11
161.565
 21
87.8004
 31
0.0
  0
LINE
  8
0
 62
     0
 10
161.565
 20
87.8004
 30
0.0
 11
161.806
 21
87.3647
 31
0.0
  0
LINE
  8
0
 62
     0
 10
161.806
 20
87.3647
 30
0.0
 11
161.806
 21
87.2187
 31
0.0
  0
LINE
  8
0
 62
     0
 10
116.535
 20
72.7206
 30
0.0
 11
126.934
 21
72.7206
 31
0.0
  0
LINE
  8
0
 62
     0
 10
126.934
 20
72.7206
 30
0.0
 11
126.934
 21
62.3217
 31
0.0
  0
LINE
  8
0
 62
     0
 10
126.934
 20
62.3217
 30
0.0
 11
116.535
 21
62.3217
 31
0.0
  0
LINE
  8
0
 62
     0
 10
116.535
 20
62.3217
 30
0.0
 11
116.535
 21
72.7206
 31
0.0
  0
LINE
  8
0
 62
     0
 10
162.97
 20
87.0081
 30
0.0
 11
173.368
 21
87.0081
 31
0.0
  0
LINE
  8
0
 62
     0
 10
173.368
 20
87.0081
 30
0.0
 11
173.368
 21
76.6092
 31
0.0
  0
LINE
  8
0
 62
     0
 10
173.368
 20
76.6092
 30
0.0
 11
162.97
 21
76.6092
 31
0.0
  0
LINE
  8
0
 62
     0
 10
162.97
 20
76.6092
 30
0.0
 11
162.97
 21
87.0081
 31
0.0
  0
LINE
  8
0
 62
     0
 10
145.11
 20
87.0081
 30
0.0
 11
155.509
 21
87.0081
 31
0.0
  0
LINE
  8
0
 62
     0
 10
155.509
 20
87.0081
 30
0.0
 11
155.509
 21
76.6092
 31
0.0
  0
LINE
  8
0
 62
     0
 10
155.509
 20
76.6092
 30
0.0
 11
145.11
 21
76.6092
 31
0.0
  0
LINE
  8
0
 62
     0
 10
145.11
 20
76.6092
 30
0.0
 11
145.11
 21
87.0081
 31
0.0
  0
LINE
  8
0
 62
     0
 10
145.11
 20
72.6944
 30
0.0
 11
155.509
 21
72.6944
 31
0.0
  0
LINE
  8
0
 62
     0
 10
155.509
 20
72.6944
 30
0.0
 11
155.509
 21
62.2956
 31
0.0
  0
LINE
  8
0
 62
     0
 10
155.509
 20
62.2956
 30
0.0
 11
145.11
 21
62.2956
 31
0.0
  0
LINE
  8
0
 62
     0
 10
145.11
 20
62.2956
 30
0.0
 11
145.11
 21
72.6944
 31
0.0
  0
LINE
  8
0
 62
     0
 10
130.823
 20
87.0081
 30
0.0
 11
141.222
 21
87.0081
 31
0.0
  0
LINE
  8
0
 62
     0
 10
141.222
 20
87.0081
 30
0.0
 11
141.222
 21
76.6092
 31
0.0
  0
LINE
  8
0
 62
     0
 10
141.222
 20
76.6092
 30
0.0
 11
130.823
 21
76.6092
 31
0.0
  0
LINE
  8
0
 62
     0
 10
130.823
 20
76.6092
 30
0.0
 11
130.823
 21
87.0081
 31
0.0
  0
LINE
  8
0
 62
     0
 10
130.823
 20
72.6944
 30
0.0
 11
141.222
 21
72.6944
 31
0.0
  0
LINE
  8
0
 62
     0
 10
141.222
 20
72.6944
 30
0.0
 11
141.222
 21
62.2956
 31
0.0
  0
LINE
  8
0
 62
     0
 10
141.222
 20
62.2956
 30
0.0
 11
130.823
 21
62.2956
 31
0.0
  0
LINE
  8
0
 62
     0
 10
130.823
 20
62.2956
 30
0.0
 11
130.823
 21
72.6944
 31
0.0
  0
LINE
  8
0
 62
     0
 10
116.535
 20
87.0081
 30
0.0
 11
126.934
 21
87.0081
 31
0.0
  0
LINE
  8
0
 62
     0
 10
126.934
 20
87.0081
 30
0.0
 11
126.934
 21
76.6092
 31
0.0
  0
LINE
  8
0
 62
     0
 10
126.934
 20
76.6092
 30
0.0
 11
116.535
 21
76.6092
 31
0.0
  0
LINE
  8
0
 62
     0
 10
116.535
 20
76.6092
 30
0.0
 11
116.535
 21
87.0081
 31
0.0
  0
LINE
  8
0
 62
     0
 10
118.387
 20
58.4331
 30
0.0
 11
128.786
 21
58.4331
 31
0.0
  0
LINE
  8
0
 62
     0
 10
128.786
 20
58.4331
 30
0.0
 11
128.786
 21
48.0342
 31
0.0
  0
LINE
  8
0
 62
     0
 10
128.786
 20
48.0342
 30
0.0
 11
118.387
 21
48.0342
 31
0.0
  0
LINE
  8
0
 62
     0
 10
118.387
 20
48.0342
 30
0.0
 11
118.387
 21
58.4331
 31
0.0
  0
LINE
  8
0
 62
     0
 10
102.248
 20
58.4331
 30
0.0
 11
112.647
 21
58.4331
 31
0.0
  0
LINE
  8
0
 62
     0
 10
112.647
 20
58.4331
 30
0.0
 11
112.647
 21
48.0342
 31
0.0
  0
LINE
  8
0
 62
     0
 10
112.647
 20
48.0342
 30
0.0
 11
102.248
 21
48.0342
 31
0.0
  0
LINE
  8
0
 62
     0
 10
102.248
 20
48.0342
 30
0.0
 11
102.248
 21
58.4331
 31
0.0
  0
LINE
  8
0
 62
     0
 10
102.248
 20
72.6944
 30
0.0
 11
112.647
 21
72.6944
 31
0.0
  0
LINE
  8
0
 62
     0
 10
112.647
 20
72.6944
 30
0.0
 11
112.647
 21
62.2956
 31
0.0
  0
LINE
  8
0
 62
     0
 10
112.647
 20
62.2956
 30
0.0
 11
102.248
 21
62.2956
 31
0.0
  0
LINE
  8
0
 62
     0
 10
102.248
 20
62.2956
 30
0.0
 11
102.248
 21
72.6944
 31
0.0
  0
LINE
  8
0
 62
     0
 10
102.248
 20
87.0081
 30
0.0
 11
112.647
 21
87.0081
 31
0.0
  0
LINE
  8
0
 62
     0
 10
112.647
 20
87.0081
 30
0.0
 11
112.647
 21
76.6092
 31
0.0
  0
LINE
  8
0
 62
     0
 10
112.647
 20
76.6092
 30
0.0
 11
102.248
 21
76.6092
 31
0.0
  0
LINE
  8
0
 62
     0
 10
102.248
 20
76.6092
 30
0.0
 11
102.248
 21
87.0081
 31
0.0
  0
LINE
  8
0
 62
     0
 10
87.9602
 20
87.0081
 30
0.0
 11
98.3326
 21
87.0081
 31
0.0
  0
LINE
  8
0
 62
     0
 10
98.3326
 20
87.0081
 30
0.0
 11
98.3326
 21
76.6092
 31
0.0
  0
LINE
  8
0
 62
     0
 10
98.3326
 20
76.6092
 30
0.0
 11
87.9602
 21
76.6092
 31
0.0
  0
LINE
  8
0
 62
     0
 10
87.9602
 20
76.6092
 30
0.0
 11
87.9602
 21
87.0081
 31
0.0
  0
LINE
  8
0
 62
     0
 10
87.9602
 20
72.7206
 30
0.0
 11
98.3326
 21
72.7206
 31
0.0
  0
LINE
  8
0
 62
     0
 10
98.3326
 20
72.7206
 30
0.0
 11
98.3326
 21
62.3217
 31
0.0
  0
LINE
  8
0
 62
     0
 10
98.3326
 20
62.3217
 30
0.0
 11
87.9602
 21
62.3217
 31
0.0
  0
LINE
  8
0
 62
     0
 10
87.9602
 20
62.3217
 30
0.0
 11
87.9602
 21
72.7206
 31
0.0
  0
LINE
  8
0
 62
     0
 10
87.9602
 20
58.4331
 30
0.0
 11
98.3326
 21
58.4331
 31
0.0
  0
LINE
  8
0
 62
     0
 10
98.3326
 20
58.4331
 30
0.0
 11
98.3326
 21
48.0342
 31
0.0
  0
LINE
  8
0
 62
     0
 10
98.3326
 20
48.0342
 30
0.0
 11
87.9602
 21
48.0342
 31
0.0
  0
LINE
  8
0
 62
     0
 10
87.9602
 20
48.0342
 30
0.0
 11
87.9602
 21
58.4331
 31
0.0
  0
LINE
  8
0
 62
     0
 10
73.6727
 20
58.4331
 30
0.0
 11
84.0451
 21
58.4331
 31
0.0
  0
LINE
  8
0
 62
     0
 10
84.0451
 20
58.4331
 30
0.0
 11
84.0451
 21
48.0342
 31
0.0
  0
LINE
  8
0
 62
     0
 10
84.0451
 20
48.0342
 30
0.0
 11
73.6727
 21
48.0342
 31
0.0
  0
LINE
  8
0
 62
     0
 10
73.6727
 20
48.0342
 30
0.0
 11
73.6727
 21
58.4331
 31
0.0
  0
LINE
  8
0
 62
     0
 10
73.6727
 20
72.7206
 30
0.0
 11
84.0451
 21
72.7206
 31
0.0
  0
LINE
  8
0
 62
     0
 10
84.0451
 20
72.7206
 30
0.0
 11
84.0451
 21
62.3217
 31
0.0
  0
LINE
  8
0
 62
     0
 10
84.0451
 20
62.3217
 30
0.0
 11
73.6727
 21
62.3217
 31
0.0
  0
LINE
  8
0
 62
     0
 10
73.6727
 20
62.3217
 30
0.0
 11
73.6727
 21
72.7206
 31
0.0
  0
LINE
  8
0
 62
     0
 10
73.6727
 20
87.0081
 30
0.0
 11
84.0451
 21
87.0081
 31
0.0
  0
LINE
  8
0
 62
     0
 10
84.0451
 20
87.0081
 30
0.0
 11
84.0451
 21
76.6092
 31
0.0
  0
LINE
  8
0
 62
     0
 10
84.0451
 20
76.6092
 30
0.0
 11
73.6727
 21
76.6092
 31
0.0
  0
LINE
  8
0
 62
     0
 10
73.6727
 20
76.6092
 30
0.0
 11
73.6727
 21
87.0081
 31
0.0
  0
LINE
  8
0
 62
     0
 10
59.3852
 20
87.0081
 30
0.0
 11
69.784
 21
87.0081
 31
0.0
  0
LINE
  8
0
 62
     0
 10
69.784
 20
87.0081
 30
0.0
 11
69.784
 21
76.6092
 31
0.0
  0
LINE
  8
0
 62
     0
 10
69.784
 20
76.6092
 30
0.0
 11
59.3852
 21
76.6092
 31
0.0
  0
LINE
  8
0
 62
     0
 10
59.3852
 20
76.6092
 30
0.0
 11
59.3852
 21
87.0081
 31
0.0
  0
LINE
  8
0
 62
     0
 10
59.3852
 20
72.7206
 30
0.0
 11
69.784
 21
72.7206
 31
0.0
  0
LINE
  8
0
 62
     0
 10
69.784
 20
72.7206
 30
0.0
 11
69.784
 21
62.3217
 31
0.0
  0
LINE
  8
0
 62
     0
 10
69.784
 20
62.3217
 30
0.0
 11
59.3852
 21
62.3217
 31
0.0
  0
LINE
  8
0
 62
     0
 10
59.3852
 20
62.3217
 30
0.0
 11
59.3852
 21
72.7206
 31
0.0
  0
LINE
  8
0
 62
     0
 10
59.3852
 20
58.4331
 30
0.0
 11
69.784
 21
58.4331
 31
0.0
  0
LINE
  8
0
 62
     0
 10
69.784
 20
58.4331
 30
0.0
 11
69.784
 21
48.0342
 31
0.0
  0
LINE
  8
0
 62
     0
 10
69.784
 20
48.0342
 30
0.0
 11
59.3852
 21
48.0342
 31
0.0
  0
LINE
  8
0
 62
     0
 10
59.3852
 20
48.0342
 30
0.0
 11
59.3852
 21
58.4331
 31
0.0
  0
LINE
  8
0
 62
     0
 10
45.0977
 20
58.4331
 30
0.0
 11
55.4965
 21
58.4331
 31
0.0
  0
LINE
  8
0
 62
     0
 10
55.4965
 20
58.4331
 30
0.0
 11
55.4965
 21
48.0342
 31
0.0
  0
LINE
  8
0
 62
     0
 10
55.4965
 20
48.0342
 30
0.0
 11
45.0977
 21
48.0342
 31
0.0
  0
LINE
  8
0
 62
     0
 10
45.0977
 20
48.0342
 30
0.0
 11
45.0977
 21
58.4331
 31
0.0
  0
LINE
  8
0
 62
     0
 10
45.0977
 20
72.7206
 30
0.0
 11
55.4965
 21
72.7206
 31
0.0
  0
LINE
  8
0
 62
     0
 10
55.4965
 20
72.7206
 30
0.0
 11
55.4965
 21
62.3217
 31
0.0
  0
LINE
  8
0
 62
     0
 10
55.4965
 20
62.3217
 30
0.0
 11
45.0977
 21
62.3217
 31
0.0
  0
LINE
  8
0
 62
     0
 10
45.0977
 20
62.3217
 30
0.0
 11
45.0977
 21
72.7206
 31
0.0
  0
LINE
  8
0
 62
     0
 10
45.0977
 20
87.0081
 30
0.0
 11
55.4965
 21
87.0081
 31
0.0
  0
LINE
  8
0
 62
     0
 10
55.4965
 20
87.0081
 30
0.0
 11
55.4965
 21
76.6092
 31
0.0
  0
LINE
  8
0
 62
     0
 10
55.4965
 20
76.6092
 30
0.0
 11
45.0977
 21
76.6092
 31
0.0
  0
LINE
  8
0
 62
     0
 10
45.0977
 20
76.6092
 30
0.0
 11
45.0977
 21
87.0081
 31
0.0
  0
LINE
  8
0
 62
     0
 10
30.8102
 20
87.0081
 30
0.0
 11
41.209
 21
87.0081
 31
0.0
  0
LINE
  8
0
 62
     0
 10
41.209
 20
87.0081
 30
0.0
 11
41.209
 21
76.6092
 31
0.0
  0
LINE
  8
0
 62
     0
 10
41.209
 20
76.6092
 30
0.0
 11
30.8102
 21
76.6092
 31
0.0
  0
LINE
  8
0
 62
     0
 10
30.8102
 20
76.6092
 30
0.0
 11
30.8102
 21
87.0081
 31
0.0
  0
LINE
  8
0
 62
     0
 10
30.8102
 20
72.7206
 30
0.0
 11
41.209
 21
72.7206
 31
0.0
  0
LINE
  8
0
 62
     0
 10
41.209
 20
72.7206
 30
0.0
 11
41.209
 21
62.3217
 31
0.0
  0
LINE
  8
0
 62
     0
 10
41.209
 20
62.3217
 30
0.0
 11
30.8102
 21
62.3217
 31
0.0
  0
LINE
  8
0
 62
     0
 10
30.8102
 20
62.3217
 30
0.0
 11
30.8102
 21
72.7206
 31
0.0
  0
LINE
  8
0
 62
     0
 10
30.8102
 20
58.4331
 30
0.0
 11
41.209
 21
58.4331
 31
0.0
  0
LINE
  8
0
 62
     0
 10
41.209
 20
58.4331
 30
0.0
 11
41.209
 21
48.0342
 31
0.0
  0
LINE
  8
0
 62
     0
 10
41.209
 20
48.0342
 30
0.0
 11
30.8102
 21
48.0342
 31
0.0
  0
LINE
  8
0
 62
     0
 10
30.8102
 20
48.0342
 30
0.0
 11
30.8102
 21
58.4331
 31
0.0
  0
LINE
  8
0
 62
     0
 10
16.5227
 20
87.0081
 30
0.0
 11
26.9214
 21
87.0081
 31
0.0
  0
LINE
  8
0
 62
     0
 10
26.9214
 20
87.0081
 30
0.0
 11
26.9214
 21
76.6092
 31
0.0
  0
LINE
  8
0
 62
     0
 10
26.9214
 20
76.6092
 30
0.0
 11
16.5227
 21
76.6092
 31
0.0
  0
LINE
  8
0
 62
     0
 10
16.5227
 20
76.6092
 30
0.0
 11
16.5227
 21
87.0081
 31
0.0
  0
LINE
  8
0
 62
     0
 10
16.5227
 20
72.7206
 30
0.0
 11
26.9214
 21
72.7206
 31
0.0
  0
LINE
  8
0
 62
     0
 10
26.9214
 20
72.7206
 30
0.0
 11
26.9214
 21
62.3217
 31
0.0
  0
LINE
  8
0
 62
     0
 10
26.9214
 20
62.3217
 30
0.0
 11
16.5227
 21
62.3217
 31
0.0
  0
LINE
  8
0
 62
     0
 10
16.5227
 20
62.3217
 30
0.0
 11
16.5227
 21
72.7206
 31
0.0
  0
LINE
  8
0
 62
     0
 10
16.5227
 20
58.4331
 30
0.0
 11
26.9214
 21
58.4331
 31
0.0
  0
LINE
  8
0
 62
     0
 10
26.9214
 20
58.4331
 30
0.0
 11
26.9214
 21
48.0342
 31
0.0
  0
LINE
  8
0
 62
     0
 10
26.9214
 20
48.0342
 30
0.0
 11
16.5227
 21
48.0342
 31
0.0
  0
LINE
  8
0
 62
     0
 10
16.5227
 20
48.0342
 30
0.0
 11
16.5227
 21
58.4331
 31
0.0
  0
LINE
  8
0
 62
     0
 10
2.23518
 20
58.4331
 30
0.0
 11
12.6339
 21
58.4331
 31
0.0
  0
LINE
  8
0
 62
     0
 10
12.6339
 20
58.4331
 30
0.0
 11
12.6339
 21
48.0342
 31
0.0
  0
LINE
  8
0
 62
     0
 10
12.6339
 20
48.0342
 30
0.0
 11
2.23518
 21
48.0342
 31
0.0
  0
LINE
  8
0
 62
     0
 10
2.23518
 20
48.0342
 30
0.0
 11
2.23518
 21
58.4331
 31
0.0
  0
LINE
  8
0
 62
     0
 10
2.23518
 20
72.7206
 30
0.0
 11
12.6339
 21
72.7206
 31
0.0
  0
LINE
  8
0
 62
     0
 10
12.6339
 20
72.7206
 30
0.0
 11
12.6339
 21
62.3217
 31
0.0
  0
LINE
  8
0
 62
     0
 10
12.6339
 20
62.3217
 30
0.0
 11
2.23518
 21
62.3217
 31
0.0
  0
LINE
  8
0
 62
     0
 10
2.23518
 20
62.3217
 30
0.0
 11
2.23518
 21
72.7206
 31
0.0
  0
LINE
  8
0
 62
     0
 10
2.23518
 20
87.0081
 30
0.0
 11
12.6339
 21
87.0081
 31
0.0
  0
LINE
  8
0
 62
     0
 10
12.6339
 20
87.0081
 30
0.0
 11
12.6339
 21
76.6092
 31
0.0
  0
LINE
  8
0
 62
     0
 10
12.6339
 20
76.6092
 30
0.0
 11
2.23518
 21
76.6092
 31
0.0
  0
LINE
  8
0
 62
     0
 10
2.23518
 20
76.6092
 30
0.0
 11
2.23518
 21
87.0081
 31
0.0
  0
LINE
  8
0
 62
     0
 10
152.837
 20
48.0342
 30
0.0
 11
152.837
 21
51.5539
 31
0.0
  0
LINE
  8
0
 62
     0
 10
137.437
 20
48.4311
 30
0.0
 11
139.925
 21
48.4311
 31
0.0
  0
LINE
  8
0
 62
     0
 10
142.332
 20
48.0342
 30
0.0
 11
152.837
 21
48.0342
 31
0.0
  0
LINE
  8
0
 62
     0
 10
139.899
 20
48.4311
 30
0.0
 11
139.899
 21
49.1187
 31
0.0
  0
LINE
  8
0
 62
     0
 10
152.837
 20
51.5539
 30
0.0
 11
153.974
 21
51.5539
 31
0.0
  0
LINE
  8
0
 62
     0
 10
141.195
 20
51.5539
 30
0.0
 11
142.332
 21
51.5539
 31
0.0
  0
LINE
  8
0
 62
     0
 10
142.332
 20
51.5539
 30
0.0
 11
142.332
 21
48.0342
 31
0.0
  0
LINE
  8
0
 62
     0
 10
139.899
 20
49.1187
 30
0.0
 11
141.195
 21
49.1187
 31
0.0
  0
LINE
  8
0
 62
     0
 10
141.195
 20
49.1187
 30
0.0
 11
141.195
 21
51.5539
 31
0.0
  0
LINE
  8
0
 62
     0
 10
152.837
 20
54.9935
 30
0.0
 11
152.837
 21
58.5114
 31
0.0
  0
LINE
  8
0
 62
     0
 10
139.899
 20
58.353
 30
0.0
 11
139.899
 21
59.0945
 31
0.0
  0
LINE
  8
0
 62
     0
 10
141.195
 20
54.9935
 30
0.0
 11
141.195
 21
58.353
 31
0.0
  0
LINE
  8
0
 62
     0
 10
142.332
 20
54.9935
 30
0.0
 11
141.195
 21
54.9935
 31
0.0
  0
LINE
  8
0
 62
     0
 10
142.332
 20
58.5114
 30
0.0
 11
142.332
 21
54.9935
 31
0.0
  0
LINE
  8
0
 62
     0
 10
152.837
 20
58.5114
 30
0.0
 11
142.332
 21
58.5114
 31
0.0
  0
LINE
  8
0
 62
     0
 10
137.437
 20
59.0945
 30
0.0
 11
137.437
 21
58.353
 31
0.0
  0
LINE
  8
0
 62
     0
 10
139.899
 20
59.0945
 30
0.0
 11
137.411
 21
59.0945
 31
0.0
  0
LINE
  8
0
 62
     0
 10
141.195
 20
58.353
 30
0.0
 11
139.899
 21
58.353
 31
0.0
  0
LINE
  8
0
 62
     0
 10
142.332
 20
54.9935
 30
0.0
 11
141.195
 21
54.9935
 31
0.0
  0
LINE
  8
0
 62
     0
 10
139.899
 20
59.0945
 30
0.0
 11
137.411
 21
59.0945
 31
0.0
  0
LINE
  8
0
 62
     0
 10
141.195
 20
58.353
 30
0.0
 11
139.899
 21
58.353
 31
0.0
  0
LINE
  8
0
 62
     0
 10
152.837
 20
54.9935
 30
0.0
 11
152.837
 21
58.5114
 31
0.0
  0
LINE
  8
0
 62
     0
 10
141.195
 20
54.9935
 30
0.0
 11
141.195
 21
58.353
 31
0.0
  0
LINE
  8
0
 62
     0
 10
139.899
 20
58.353
 30
0.0
 11
139.899
 21
59.0945
 31
0.0
  0
LINE
  8
0
 62
     0
 10
137.437
 20
59.0945
 30
0.0
 11
137.437
 21
58.353
 31
0.0
  0
LINE
  8
0
 62
     0
 10
136.142
 20
53.6444
 30
0.0
 11
135.533
 21
53.6444
 31
0.0
  0
LINE
  8
0
 62
     0
 10
135.507
 20
51.5539
 30
0.0
 11
136.114
 21
51.5539
 31
0.0
  0
LINE
  8
0
 62
     0
 10
137.437
 20
58.353
 30
0.0
 11
136.142
 21
58.353
 31
0.0
  0
LINE
  8
0
 62
     0
 10
135.507
 20
53.6444
 30
0.0
 11
135.507
 21
51.5539
 31
0.0
  0
LINE
  8
0
 62
     0
 10
136.142
 20
58.353
 30
0.0
 11
136.142
 21
53.6444
 31
0.0
  0
LINE
  8
0
 62
     0
 10
153.974
 20
51.5539
 30
0.0
 11
153.974
 21
49.1187
 31
0.0
  0
LINE
  8
0
 62
     0
 10
153.974
 20
49.1187
 30
0.0
 11
155.271
 21
49.1187
 31
0.0
  0
LINE
  8
0
 62
     0
 10
155.271
 20
49.1187
 30
0.0
 11
155.271
 21
48.4311
 31
0.0
  0
LINE
  8
0
 62
     0
 10
153.974
 20
49.1187
 30
0.0
 11
155.271
 21
49.1187
 31
0.0
  0
LINE
  8
0
 62
     0
 10
155.271
 20
49.1187
 30
0.0
 11
155.271
 21
48.4311
 31
0.0
  0
LINE
  8
0
 62
     0
 10
142.332
 20
48.0342
 30
0.0
 11
152.837
 21
48.0342
 31
0.0
  0
LINE
  8
0
 62
     0
 10
152.837
 20
48.0342
 30
0.0
 11
152.837
 21
51.5539
 31
0.0
  0
LINE
  8
0
 62
     0
 10
137.437
 20
48.4311
 30
0.0
 11
139.925
 21
48.4311
 31
0.0
  0
LINE
  8
0
 62
     0
 10
139.899
 20
48.4311
 30
0.0
 11
139.899
 21
49.1187
 31
0.0
  0
LINE
  8
0
 62
     0
 10
142.332
 20
51.5539
 30
0.0
 11
142.332
 21
48.0342
 31
0.0
  0
LINE
  8
0
 62
     0
 10
141.195
 20
51.5539
 30
0.0
 11
142.332
 21
51.5539
 31
0.0
  0
LINE
  8
0
 62
     0
 10
139.899
 20
49.1187
 30
0.0
 11
141.195
 21
49.1187
 31
0.0
  0
LINE
  8
0
 62
     0
 10
159.662
 20
51.5539
 30
0.0
 11
159.662
 21
53.6444
 31
0.0
  0
LINE
  8
0
 62
     0
 10
157.758
 20
58.353
 30
0.0
 11
157.758
 21
59.0945
 31
0.0
  0
LINE
  8
0
 62
     0
 10
157.758
 20
59.0945
 30
0.0
 11
155.271
 21
59.0945
 31
0.0
  0
LINE
  8
0
 62
     0
 10
155.271
 20
59.0945
 30
0.0
 11
155.271
 21
58.353
 31
0.0
  0
LINE
  8
0
 62
     0
 10
153.974
 20
54.9935
 30
0.0
 11
152.837
 21
54.9935
 31
0.0
  0
LINE
  8
0
 62
     0
 10
157.758
 20
48.4311
 30
0.0
 11
157.758
 21
49.1187
 31
0.0
  0
LINE
  8
0
 62
     0
 10
159.054
 20
58.353
 30
0.0
 11
157.758
 21
58.353
 31
0.0
  0
LINE
  8
0
 62
     0
 10
153.974
 20
58.353
 30
0.0
 11
153.974
 21
54.9935
 31
0.0
  0
LINE
  8
0
 62
     0
 10
136.142
 20
51.5539
 30
0.0
 11
136.142
 21
49.1187
 31
0.0
  0
LINE
  8
0
 62
     0
 10
159.054
 20
51.5539
 30
0.0
 11
159.662
 21
51.5539
 31
0.0
  0
LINE
  8
0
 62
     0
 10
157.758
 20
49.1187
 30
0.0
 11
159.054
 21
49.1187
 31
0.0
  0
LINE
  8
0
 62
     0
 10
159.054
 20
49.1187
 30
0.0
 11
159.054
 21
51.5539
 31
0.0
  0
LINE
  8
0
 62
     0
 10
155.271
 20
58.353
 30
0.0
 11
153.974
 21
58.353
 31
0.0
  0
LINE
  8
0
 62
     0
 10
159.662
 20
53.6444
 30
0.0
 11
159.054
 21
53.6444
 31
0.0
  0
LINE
  8
0
 62
     0
 10
136.142
 20
49.1187
 30
0.0
 11
137.437
 21
49.1187
 31
0.0
  0
LINE
  8
0
 62
     0
 10
137.437
 20
49.1187
 30
0.0
 11
137.437
 21
48.4311
 31
0.0
  0
LINE
  8
0
 62
     0
 10
155.271
 20
48.4311
 30
0.0
 11
157.758
 21
48.4311
 31
0.0
  0
LINE
  8
0
 62
     0
 10
159.054
 20
53.6444
 30
0.0
 11
159.054
 21
58.353
 31
0.0
  0
LINE
  8
0
 62
     0
 10
159.054
 20
53.6444
 30
0.0
 11
159.054
 21
58.353
 31
0.0
  0
LINE
  8
0
 62
     0
 10
159.054
 20
51.5539
 30
0.0
 11
159.662
 21
51.5539
 31
0.0
  0
LINE
  8
0
 62
     0
 10
136.142
 20
58.353
 30
0.0
 11
136.142
 21
53.6444
 31
0.0
  0
LINE
  8
0
 62
     0
 10
137.437
 20
49.1187
 30
0.0
 11
137.437
 21
48.4311
 31
0.0
  0
LINE
  8
0
 62
     0
 10
153.974
 20
58.353
 30
0.0
 11
153.974
 21
54.9935
 31
0.0
  0
LINE
  8
0
 62
     0
 10
159.662
 20
51.5539
 30
0.0
 11
159.662
 21
53.6444
 31
0.0
  0
LINE
  8
0
 62
     0
 10
137.437
 20
58.353
 30
0.0
 11
136.142
 21
58.353
 31
0.0
  0
LINE
  8
0
 62
     0
 10
136.142
 20
53.6444
 30
0.0
 11
135.533
 21
53.6444
 31
0.0
  0
LINE
  8
0
 62
     0
 10
135.507
 20
53.6444
 30
0.0
 11
135.507
 21
51.5539
 31
0.0
  0
LINE
  8
0
 62
     0
 10
157.758
 20
59.0945
 30
0.0
 11
155.271
 21
59.0945
 31
0.0
  0
LINE
  8
0
 62
     0
 10
136.142
 20
51.5539
 30
0.0
 11
136.142
 21
49.1187
 31
0.0
  0
LINE
  8
0
 62
     0
 10
135.507
 20
51.5539
 30
0.0
 11
136.114
 21
51.5539
 31
0.0
  0
LINE
  8
0
 62
     0
 10
136.142
 20
49.1187
 30
0.0
 11
137.437
 21
49.1187
 31
0.0
  0
LINE
  8
0
 62
     0
 10
155.271
 20
48.4311
 30
0.0
 11
157.758
 21
48.4311
 31
0.0
  0
LINE
  8
0
 62
     0
 10
157.758
 20
58.353
 30
0.0
 11
157.758
 21
59.0945
 31
0.0
  0
LINE
  8
0
 62
     0
 10
157.758
 20
49.1187
 30
0.0
 11
159.054
 21
49.1187
 31
0.0
  0
LINE
  8
0
 62
     0
 10
153.974
 20
51.5539
 30
0.0
 11
153.974
 21
49.1187
 31
0.0
  0
LINE
  8
0
 62
     0
 10
159.662
 20
53.6444
 30
0.0
 11
159.054
 21
53.6444
 31
0.0
  0
LINE
  8
0
 62
     0
 10
159.054
 20
58.353
 30
0.0
 11
157.758
 21
58.353
 31
0.0
  0
LINE
  8
0
 62
     0
 10
155.271
 20
59.0945
 30
0.0
 11
155.271
 21
58.353
 31
0.0
  0
LINE
  8
0
 62
     0
 10
157.758
 20
48.4311
 30
0.0
 11
157.758
 21
49.1187
 31
0.0
  0
LINE
  8
0
 62
     0
 10
159.054
 20
49.1187
 30
0.0
 11
159.054
 21
51.5539
 31
0.0
  0
LINE
  8
0
 62
     0
 10
171.675
 20
72.456
 30
0.0
 11
169.584
 21
72.456
 31
0.0
  0
LINE
  8
0
 62
     0
 10
171.675
 20
71.8467
 30
0.0
 11
171.675
 21
72.456
 31
0.0
  0
LINE
  8
0
 62
     0
 10
174.082
 20
71.8467
 30
0.0
 11
171.649
 21
71.8467
 31
0.0
  0
LINE
  8
0
 62
     0
 10
174.082
 20
70.5499
 30
0.0
 11
174.082
 21
71.8467
 31
0.0
  0
LINE
  8
0
 62
     0
 10
174.797
 20
70.5499
 30
0.0
 11
174.11
 21
70.5499
 31
0.0
  0
LINE
  8
0
 62
     0
 10
174.797
 20
68.0642
 30
0.0
 11
174.797
 21
70.5499
 31
0.0
  0
LINE
  8
0
 62
     0
 10
168.209
 20
66.7674
 30
0.0
 11
168.209
 21
65.629
 31
0.0
  0
LINE
  8
0
 62
     0
 10
164.875
 20
66.7674
 30
0.0
 11
168.235
 21
66.7674
 31
0.0
  0
LINE
  8
0
 62
     0
 10
164.875
 20
68.0642
 30
0.0
 11
164.875
 21
66.7674
 31
0.0
  0
LINE
  8
0
 62
     0
 10
164.134
 20
68.0642
 30
0.0
 11
164.875
 21
68.0642
 31
0.0
  0
LINE
  8
0
 62
     0
 10
164.134
 20
70.5499
 30
0.0
 11
164.134
 21
68.0642
 31
0.0
  0
LINE
  8
0
 62
     0
 10
164.875
 20
70.5499
 30
0.0
 11
164.134
 21
70.5499
 31
0.0
  0
LINE
  8
0
 62
     0
 10
164.875
 20
71.8467
 30
0.0
 11
164.875
 21
70.5499
 31
0.0
  0
LINE
  8
0
 62
     0
 10
169.584
 20
71.8467
 30
0.0
 11
164.875
 21
71.8467
 31
0.0
  0
LINE
  8
0
 62
     0
 10
169.584
 20
72.456
 30
0.0
 11
169.584
 21
71.8467
 31
0.0
  0
LINE
  8
0
 62
     0
 10
174.082
 20
50.231
 30
0.0
 11
174.771
 21
50.231
 31
0.0
  0
LINE
  8
0
 62
     0
 10
174.082
 20
48.9342
 30
0.0
 11
174.082
 21
50.231
 31
0.0
  0
LINE
  8
0
 62
     0
 10
171.675
 20
48.9342
 30
0.0
 11
174.11
 21
48.9342
 31
0.0
  0
LINE
  8
0
 62
     0
 10
171.675
 20
48.2988
 30
0.0
 11
171.675
 21
48.9081
 31
0.0
  0
LINE
  8
0
 62
     0
 10
169.584
 20
48.2988
 30
0.0
 11
171.675
 21
48.2988
 31
0.0
  0
LINE
  8
0
 62
     0
 10
169.584
 20
48.9342
 30
0.0
 11
169.584
 21
48.3249
 31
0.0
  0
LINE
  8
0
 62
     0
 10
164.875
 20
48.9342
 30
0.0
 11
169.584
 21
48.9342
 31
0.0
  0
LINE
  8
0
 62
     0
 10
164.875
 20
50.231
 30
0.0
 11
164.875
 21
48.9342
 31
0.0
  0
LINE
  8
0
 62
     0
 10
164.134
 20
50.231
 30
0.0
 11
164.875
 21
50.231
 31
0.0
  0
LINE
  8
0
 62
     0
 10
164.134
 20
52.6905
 30
0.0
 11
164.134
 21
50.2049
 31
0.0
  0
LINE
  8
0
 62
     0
 10
164.875
 20
52.6905
 30
0.0
 11
164.134
 21
52.6905
 31
0.0
  0
LINE
  8
0
 62
     0
 10
164.875
 20
53.9873
 30
0.0
 11
164.875
 21
52.6905
 31
0.0
  0
LINE
  8
0
 62
     0
 10
168.209
 20
53.9873
 30
0.0
 11
164.849
 21
53.9873
 31
0.0
  0
LINE
  8
0
 62
     0
 10
168.209
 20
55.1258
 30
0.0
 11
168.209
 21
53.9873
 31
0.0
  0
LINE
  8
0
 62
     0
 10
164.689
 20
55.1258
 30
0.0
 11
168.209
 21
55.1258
 31
0.0
  0
LINE
  8
0
 62
     0
 10
164.689
 20
65.629
 30
0.0
 11
164.689
 21
55.1258
 31
0.0
  0
LINE
  8
0
 62
     0
 10
168.209
 20
65.629
 30
0.0
 11
164.689
 21
65.629
 31
0.0
  0
LINE
  8
0
 62
     0
 10
171.675
 20
65.629
 30
0.0
 11
171.675
 21
66.7674
 31
0.0
  0
LINE
  8
0
 62
     0
 10
175.194
 20
65.629
 30
0.0
 11
171.675
 21
65.629
 31
0.0
  0
LINE
  8
0
 62
     0
 10
175.194
 20
55.1258
 30
0.0
 11
175.194
 21
65.629
 31
0.0
  0
LINE
  8
0
 62
     0
 10
171.675
 20
55.1258
 30
0.0
 11
175.194
 21
55.1258
 31
0.0
  0
LINE
  8
0
 62
     0
 10
171.675
 20
53.9873
 30
0.0
 11
171.675
 21
55.1258
 31
0.0
  0
LINE
  8
0
 62
     0
 10
174.082
 20
53.9873
 30
0.0
 11
171.649
 21
53.9873
 31
0.0
  0
LINE
  8
0
 62
     0
 10
174.082
 20
52.6905
 30
0.0
 11
174.082
 21
53.9873
 31
0.0
  0
LINE
  8
0
 62
     0
 10
174.797
 20
52.6905
 30
0.0
 11
174.11
 21
52.6905
 31
0.0
  0
LINE
  8
0
 62
     0
 10
174.797
 20
50.231
 30
0.0
 11
174.797
 21
52.7184
 31
0.0
  0
LINE
  8
0
 62
     0
 10
174.082
 20
68.0642
 30
0.0
 11
174.771
 21
68.0642
 31
0.0
  0
LINE
  8
0
 62
     0
 10
174.082
 20
66.7674
 30
0.0
 11
174.082
 21
68.0642
 31
0.0
  0
LINE
  8
0
 62
     0
 10
171.675
 20
66.7674
 30
0.0
 11
174.11
 21
66.7674
 31
0.0
  0
LINE
  8
0
 62
     0
 10
171.675
 20
72.456
 30
0.0
 11
169.584
 21
72.456
 31
0.0
  0
LINE
  8
0
 62
     0
 10
171.675
 20
71.8467
 30
0.0
 11
171.675
 21
72.456
 31
0.0
  0
LINE
  8
0
 62
     0
 10
174.082
 20
71.8467
 30
0.0
 11
171.649
 21
71.8467
 31
0.0
  0
LINE
  8
0
 62
     0
 10
174.082
 20
70.5499
 30
0.0
 11
174.082
 21
71.8467
 31
0.0
  0
LINE
  8
0
 62
     0
 10
174.797
 20
70.5499
 30
0.0
 11
174.11
 21
70.5499
 31
0.0
  0
LINE
  8
0
 62
     0
 10
174.797
 20
68.0642
 30
0.0
 11
174.797
 21
70.5499
 31
0.0
  0
LINE
  8
0
 62
     0
 10
168.209
 20
66.7674
 30
0.0
 11
168.209
 21
65.629
 31
0.0
  0
LINE
  8
0
 62
     0
 10
164.875
 20
66.7674
 30
0.0
 11
168.235
 21
66.7674
 31
0.0
  0
LINE
  8
0
 62
     0
 10
164.134
 20
68.0642
 30
0.0
 11
164.875
 21
68.0642
 31
0.0
  0
LINE
  8
0
 62
     0
 10
164.134
 20
70.5499
 30
0.0
 11
164.134
 21
68.0642
 31
0.0
  0
LINE
  8
0
 62
     0
 10
164.875
 20
70.5499
 30
0.0
 11
164.134
 21
70.5499
 31
0.0
  0
LINE
  8
0
 62
     0
 10
164.875
 20
71.8467
 30
0.0
 11
164.875
 21
70.5499
 31
0.0
  0
LINE
  8
0
 62
     0
 10
169.584
 20
71.8467
 30
0.0
 11
164.875
 21
71.8467
 31
0.0
  0
LINE
  8
0
 62
     0
 10
169.584
 20
72.456
 30
0.0
 11
169.584
 21
71.8467
 31
0.0
  0
LINE
  8
0
 62
     0
 10
174.082
 20
50.231
 30
0.0
 11
174.771
 21
50.231
 31
0.0
  0
LINE
  8
0
 62
     0
 10
174.082
 20
48.9342
 30
0.0
 11
174.082
 21
50.231
 31
0.0
  0
LINE
  8
0
 62
     0
 10
171.675
 20
48.9342
 30
0.0
 11
174.11
 21
48.9342
 31
0.0
  0
LINE
  8
0
 62
     0
 10
171.675
 20
48.2988
 30
0.0
 11
171.675
 21
48.9081
 31
0.0
  0
LINE
  8
0
 62
     0
 10
169.584
 20
48.2988
 30
0.0
 11
171.675
 21
48.2988
 31
0.0
  0
LINE
  8
0
 62
     0
 10
169.584
 20
48.9342
 30
0.0
 11
169.584
 21
48.3249
 31
0.0
  0
LINE
  8
0
 62
     0
 10
164.875
 20
48.9342
 30
0.0
 11
169.584
 21
48.9342
 31
0.0
  0
LINE
  8
0
 62
     0
 10
164.875
 20
50.231
 30
0.0
 11
164.875
 21
48.9342
 31
0.0
  0
LINE
  8
0
 62
     0
 10
164.134
 20
50.231
 30
0.0
 11
164.875
 21
50.231
 31
0.0
  0
LINE
  8
0
 62
     0
 10
164.134
 20
52.6905
 30
0.0
 11
164.134
 21
50.2049
 31
0.0
  0
LINE
  8
0
 62
     0
 10
164.875
 20
52.6905
 30
0.0
 11
164.134
 21
52.6905
 31
0.0
  0
LINE
  8
0
 62
     0
 10
164.875
 20
53.9873
 30
0.0
 11
164.875
 21
52.6905
 31
0.0
  0
LINE
  8
0
 62
     0
 10
168.209
 20
53.9873
 30
0.0
 11
164.849
 21
53.9873
 31
0.0
  0
LINE
  8
0
 62
     0
 10
168.209
 20
55.1258
 30
0.0
 11
168.209
 21
53.9873
 31
0.0
  0
LINE
  8
0
 62
     0
 10
164.689
 20
55.1258
 30
0.0
 11
168.209
 21
55.1258
 31
0.0
  0
LINE
  8
0
 62
     0
 10
164.689
 20
65.629
 30
0.0
 11
164.689
 21
55.1258
 31
0.0
  0
LINE
  8
0
 62
     0
 10
171.675
 20
65.629
 30
0.0
 11
171.675
 21
66.7674
 31
0.0
  0
LINE
  8
0
 62
     0
 10
175.194
 20
65.629
 30
0.0
 11
171.675
 21
65.629
 31
0.0
  0
LINE
  8
0
 62
     0
 10
175.194
 20
55.1258
 30
0.0
 11
175.194
 21
65.629
 31
0.0
  0
LINE
  8
0
 62
     0
 10
171.675
 20
55.1258
 30
0.0
 11
175.194
 21
55.1258
 31
0.0
  0
LINE
  8
0
 62
     0
 10
171.675
 20
53.9873
 30
0.0
 11
171.675
 21
55.1258
 31
0.0
  0
LINE
  8
0
 62
     0
 10
174.082
 20
53.9873
 30
0.0
 11
171.649
 21
53.9873
 31
0.0
  0
LINE
  8
0
 62
     0
 10
174.082
 20
52.6905
 30
0.0
 11
174.082
 21
53.9873
 31
0.0
  0
LINE
  8
0
 62
     0
 10
174.797
 20
52.6905
 30
0.0
 11
174.11
 21
52.6905
 31
0.0
  0
LINE
  8
0
 62
     0
 10
174.797
 20
50.231
 30
0.0
 11
174.797
 21
52.7184
 31
0.0
  0
LINE
  8
0
 62
     0
 10
174.082
 20
68.0642
 30
0.0
 11
174.771
 21
68.0642
 31
0.0
  0
LINE
  8
0
 62
     0
 10
174.082
 20
66.7674
 30
0.0
 11
174.082
 21
68.0642
 31
0.0
  0
LINE
  8
0
 62
     0
 10
171.675
 20
66.7674
 30
0.0
 11
174.11
 21
66.7674
 31
0.0
  0
LINE
  8
0
 62
     0
 10
176.676
 20
0.0124024
 30
0.0
 11
1.89205
 21
0.0124024
 31
0.0
  0
LINE
  8
0
 62
     0
 10
1.91823
 20
42.8748
 30
0.0
 11
176.702
 21
42.8748
 31
0.0
  0
LINE
  8
0
 62
     0
 10
0.0137804
 20
1.94441
 30
0.0
 11
0.0137804
 21
40.9967
 31
0.0
  0
LINE
  8
0
 62
     0
 10
178.58
 20
40.9967
 30
0.0
 11
178.58
 21
1.94441
 31
0.0
  0
LINE
  8
0
 62
     0
 10
178.58
 20
40.9967
 30
0.0
 11
178.58
 21
41.1826
 31
0.0
  0
LINE
  8
0
 62
     0
 10
178.58
 20
41.1826
 30
0.0
 11
178.431
 21
41.7407
 31
0.0
  0
LINE
  8
0
 62
     0
 10
178.431
 20
41.7407
 30
0.0
 11
178.025
 21
42.3457
 31
0.0
  0
LINE
  8
0
 62
     0
 10
178.025
 20
42.3457
 30
0.0
 11
177.418
 21
42.7535
 31
0.0
  0
LINE
  8
0
 62
     0
 10
177.418
 20
42.7535
 30
0.0
 11
176.86
 21
42.901
 31
0.0
  0
LINE
  8
0
 62
     0
 10
176.86
 20
42.901
 30
0.0
 11
176.676
 21
42.901
 31
0.0
  0
LINE
  8
0
 62
     0
 10
176.676
 20
0.0124024
 30
0.0
 11
176.86
 21
0.0124024
 31
0.0
  0
LINE
  8
0
 62
     0
 10
176.86
 20
0.0124024
 30
0.0
 11
177.418
 21
0.162609
 31
0.0
  0
LINE
  8
0
 62
     0
 10
177.418
 20
0.162609
 30
0.0
 11
178.025
 21
0.569129
 31
0.0
  0
LINE
  8
0
 62
     0
 10
178.025
 20
0.569129
 30
0.0
 11
178.431
 21
1.17409
 31
0.0
  0
LINE
  8
0
 62
     0
 10
178.431
 20
1.17409
 30
0.0
 11
178.58
 21
1.7322
 31
0.0
  0
LINE
  8
0
 62
     0
 10
178.58
 20
1.7322
 30
0.0
 11
178.58
 21
1.91823
 31
0.0
  0
LINE
  8
0
 62
     0
 10
0.0137804
 20
1.94441
 30
0.0
 11
0.0137804
 21
1.75838
 31
0.0
  0
LINE
  8
0
 62
     0
 10
0.0137804
 20
1.75838
 30
0.0
 11
0.16123
 21
1.20027
 31
0.0
  0
LINE
  8
0
 62
     0
 10
0.16123
 20
1.20027
 30
0.0
 11
0.569129
 21
0.595313
 31
0.0
  0
LINE
  8
0
 62
     0
 10
0.569129
 20
0.595313
 30
0.0
 11
1.17409
 21
0.188791
 31
0.0
  0
LINE
  8
0
 62
     0
 10
1.17409
 20
0.188791
 30
0.0
 11
1.7322
 21
0.0385851
 31
0.0
  0
LINE
  8
0
 62
     0
 10
1.7322
 20
0.0385851
 30
0.0
 11
1.91823
 21
0.0385851
 31
0.0
  0
LINE
  8
0
 62
     0
 10
1.91823
 20
42.8748
 30
0.0
 11
1.7322
 21
42.8748
 31
0.0
  0
LINE
  8
0
 62
     0
 10
1.7322
 20
42.8748
 30
0.0
 11
1.17409
 21
42.7274
 31
0.0
  0
LINE
  8
0
 62
     0
 10
1.17409
 20
42.7274
 30
0.0
 11
0.569129
 21
42.3196
 31
0.0
  0
LINE
  8
0
 62
     0
 10
0.569129
 20
42.3196
 30
0.0
 11
0.16123
 21
41.7146
 31
0.0
  0
LINE
  8
0
 62
     0
 10
0.16123
 20
41.7146
 30
0.0
 11
0.0137804
 21
41.1565
 31
0.0
  0
LINE
  8
0
 62
     0
 10
0.0137804
 20
41.1565
 30
0.0
 11
0.0137804
 21
40.9706
 31
0.0
  0
LINE
  8
0
 62
     0
 10
15.0675
 20
41.1551
 30
0.0
 11
15.0675
 21
41.0104
 31
0.0
  0
LINE
  8
0
 62
     0
 10
15.0675
 20
41.0104
 30
0.0
 11
14.8263
 21
40.5765
 31
0.0
  0
LINE
  8
0
 62
     0
 10
14.8263
 20
40.5765
 30
0.0
 11
14.3922
 21
40.3366
 31
0.0
  0
LINE
  8
0
 62
     0
 10
14.3922
 20
40.3366
 30
0.0
 11
14.2475
 21
40.3366
 31
0.0
  0
LINE
  8
0
 62
     0
 10
14.2475
 20
40.3366
 30
0.0
 11
14.1015
 21
40.3366
 31
0.0
  0
LINE
  8
0
 62
     0
 10
14.1015
 20
40.3366
 30
0.0
 11
13.6674
 21
40.5765
 31
0.0
  0
LINE
  8
0
 62
     0
 10
13.6674
 20
40.5765
 30
0.0
 11
13.4276
 21
41.0104
 31
0.0
  0
LINE
  8
0
 62
     0
 10
13.4276
 20
41.0104
 30
0.0
 11
13.4276
 21
41.1551
 31
0.0
  0
LINE
  8
0
 62
     0
 10
13.4276
 20
41.1551
 30
0.0
 11
13.4276
 21
41.3011
 31
0.0
  0
LINE
  8
0
 62
     0
 10
13.4276
 20
41.3011
 30
0.0
 11
13.6674
 21
41.7354
 31
0.0
  0
LINE
  8
0
 62
     0
 10
13.6674
 20
41.7354
 30
0.0
 11
14.1015
 21
41.9749
 31
0.0
  0
LINE
  8
0
 62
     0
 10
14.1015
 20
41.9749
 30
0.0
 11
14.2475
 21
41.9749
 31
0.0
  0
LINE
  8
0
 62
     0
 10
14.2475
 20
41.9749
 30
0.0
 11
14.3922
 21
41.9749
 31
0.0
  0
LINE
  8
0
 62
     0
 10
14.3922
 20
41.9749
 30
0.0
 11
14.8263
 21
41.7354
 31
0.0
  0
LINE
  8
0
 62
     0
 10
14.8263
 20
41.7354
 30
0.0
 11
15.0675
 21
41.3011
 31
0.0
  0
LINE
  8
0
 62
     0
 10
15.0675
 20
41.3011
 30
0.0
 11
15.0675
 21
41.1551
 31
0.0
  0
LINE
  8
0
 62
     0
 10
15.1212
 20
1.75838
 30
0.0
 11
15.1212
 21
1.61368
 31
0.0
  0
LINE
  8
0
 62
     0
 10
15.1212
 20
1.61368
 30
0.0
 11
14.8801
 21
1.1796
 31
0.0
  0
LINE
  8
0
 62
     0
 10
14.8801
 20
1.1796
 30
0.0
 11
14.446
 21
0.938445
 31
0.0
  0
LINE
  8
0
 62
     0
 10
14.446
 20
0.938445
 30
0.0
 11
14.3013
 21
0.938445
 31
0.0
  0
LINE
  8
0
 62
     0
 10
14.3013
 20
0.938445
 30
0.0
 11
14.1552
 21
0.938445
 31
0.0
  0
LINE
  8
0
 62
     0
 10
14.1552
 20
0.938445
 30
0.0
 11
13.7197
 21
1.1796
 31
0.0
  0
LINE
  8
0
 62
     0
 10
13.7197
 20
1.1796
 30
0.0
 11
13.48
 21
1.61368
 31
0.0
  0
LINE
  8
0
 62
     0
 10
13.48
 20
1.61368
 30
0.0
 11
13.48
 21
1.75838
 31
0.0
  0
LINE
  8
0
 62
     0
 10
13.48
 20
1.75838
 30
0.0
 11
13.48
 21
1.90445
 31
0.0
  0
LINE
  8
0
 62
     0
 10
13.48
 20
1.90445
 30
0.0
 11
13.7197
 21
2.33991
 31
0.0
  0
LINE
  8
0
 62
     0
 10
13.7197
 20
2.33991
 30
0.0
 11
14.1552
 21
2.57969
 31
0.0
  0
LINE
  8
0
 62
     0
 10
14.1552
 20
2.57969
 30
0.0
 11
14.3013
 21
2.57969
 31
0.0
  0
LINE
  8
0
 62
     0
 10
14.3013
 20
2.57969
 30
0.0
 11
14.446
 21
2.57969
 31
0.0
  0
LINE
  8
0
 62
     0
 10
14.446
 20
2.57969
 30
0.0
 11
14.8801
 21
2.33991
 31
0.0
  0
LINE
  8
0
 62
     0
 10
14.8801
 20
2.33991
 30
0.0
 11
15.1212
 21
1.90445
 31
0.0
  0
LINE
  8
0
 62
     0
 10
15.1212
 20
1.90445
 30
0.0
 11
15.1212
 21
1.75838
 31
0.0
  0
LINE
  8
0
 62
     0
 10
86.505
 20
41.1028
 30
0.0
 11
86.505
 21
40.9582
 31
0.0
  0
LINE
  8
0
 62
     0
 10
86.505
 20
40.9582
 30
0.0
 11
86.2637
 21
40.5239
 31
0.0
  0
LINE
  8
0
 62
     0
 10
86.2637
 20
40.5239
 30
0.0
 11
85.8298
 21
40.283
 31
0.0
  0
LINE
  8
0
 62
     0
 10
85.8298
 20
40.283
 30
0.0
 11
85.6851
 21
40.283
 31
0.0
  0
LINE
  8
0
 62
     0
 10
85.6851
 20
40.283
 30
0.0
 11
85.5391
 21
40.283
 31
0.0
  0
LINE
  8
0
 62
     0
 10
85.5391
 20
40.283
 30
0.0
 11
85.1048
 21
40.5239
 31
0.0
  0
LINE
  8
0
 62
     0
 10
85.1048
 20
40.5239
 30
0.0
 11
84.8653
 21
40.9582
 31
0.0
  0
LINE
  8
0
 62
     0
 10
84.8653
 20
40.9582
 30
0.0
 11
84.8653
 21
41.1028
 31
0.0
  0
LINE
  8
0
 62
     0
 10
84.8653
 20
41.1028
 30
0.0
 11
84.8653
 21
41.2489
 31
0.0
  0
LINE
  8
0
 62
     0
 10
84.8653
 20
41.2489
 30
0.0
 11
85.1048
 21
41.6842
 31
0.0
  0
LINE
  8
0
 62
     0
 10
85.1048
 20
41.6842
 30
0.0
 11
85.5391
 21
41.9241
 31
0.0
  0
LINE
  8
0
 62
     0
 10
85.5391
 20
41.9241
 30
0.0
 11
85.6851
 21
41.9241
 31
0.0
  0
LINE
  8
0
 62
     0
 10
85.6851
 20
41.9241
 30
0.0
 11
85.8298
 21
41.9241
 31
0.0
  0
LINE
  8
0
 62
     0
 10
85.8298
 20
41.9241
 30
0.0
 11
86.2637
 21
41.6842
 31
0.0
  0
LINE
  8
0
 62
     0
 10
86.2637
 20
41.6842
 30
0.0
 11
86.505
 21
41.2489
 31
0.0
  0
LINE
  8
0
 62
     0
 10
86.505
 20
41.2489
 30
0.0
 11
86.505
 21
41.1028
 31
0.0
  0
LINE
  8
0
 62
     0
 10
163.791
 20
1.86449
 30
0.0
 11
163.791
 21
1.71979
 31
0.0
  0
LINE
  8
0
 62
     0
 10
163.791
 20
1.71979
 30
0.0
 11
163.55
 21
1.28571
 31
0.0
  0
LINE
  8
0
 62
     0
 10
163.55
 20
1.28571
 30
0.0
 11
163.114
 21
1.04455
 31
0.0
  0
LINE
  8
0
 62
     0
 10
163.114
 20
1.04455
 30
0.0
 11
162.97
 21
1.04455
 31
0.0
  0
LINE
  8
0
 62
     0
 10
162.97
 20
1.04455
 30
0.0
 11
162.824
 21
1.04455
 31
0.0
  0
LINE
  8
0
 62
     0
 10
162.824
 20
1.04455
 30
0.0
 11
162.389
 21
1.28571
 31
0.0
  0
LINE
  8
0
 62
     0
 10
162.389
 20
1.28571
 30
0.0
 11
162.15
 21
1.71979
 31
0.0
  0
LINE
  8
0
 62
     0
 10
162.15
 20
1.71979
 30
0.0
 11
162.15
 21
1.86449
 31
0.0
  0
LINE
  8
0
 62
     0
 10
162.15
 20
1.86449
 30
0.0
 11
162.15
 21
2.01056
 31
0.0
  0
LINE
  8
0
 62
     0
 10
162.15
 20
2.01056
 30
0.0
 11
162.389
 21
2.44464
 31
0.0
  0
LINE
  8
0
 62
     0
 10
162.389
 20
2.44464
 30
0.0
 11
162.824
 21
2.68442
 31
0.0
  0
LINE
  8
0
 62
     0
 10
162.824
 20
2.68442
 30
0.0
 11
162.97
 21
2.68442
 31
0.0
  0
LINE
  8
0
 62
     0
 10
162.97
 20
2.68442
 30
0.0
 11
163.114
 21
2.68442
 31
0.0
  0
LINE
  8
0
 62
     0
 10
163.114
 20
2.68442
 30
0.0
 11
163.55
 21
2.44464
 31
0.0
  0
LINE
  8
0
 62
     0
 10
163.55
 20
2.44464
 30
0.0
 11
163.791
 21
2.01056
 31
0.0
  0
LINE
  8
0
 62
     0
 10
163.791
 20
2.01056
 30
0.0
 11
163.791
 21
1.86449
 31
0.0
  0
LINE
  8
0
 62
     0
 10
161.542
 20
41.1551
 30
0.0
 11
161.542
 21
41.0104
 31
0.0
  0
LINE
  8
0
 62
     0
 10
161.542
 20
41.0104
 30
0.0
 11
161.301
 21
40.5765
 31
0.0
  0
LINE
  8
0
 62
     0
 10
161.301
 20
40.5765
 30
0.0
 11
160.865
 21
40.3366
 31
0.0
  0
LINE
  8
0
 62
     0
 10
160.865
 20
40.3366
 30
0.0
 11
160.721
 21
40.3366
 31
0.0
  0
LINE
  8
0
 62
     0
 10
160.721
 20
40.3366
 30
0.0
 11
160.575
 21
40.3366
 31
0.0
  0
LINE
  8
0
 62
     0
 10
160.575
 20
40.3366
 30
0.0
 11
160.14
 21
40.5765
 31
0.0
  0
LINE
  8
0
 62
     0
 10
160.14
 20
40.5765
 30
0.0
 11
159.901
 21
41.0104
 31
0.0
  0
LINE
  8
0
 62
     0
 10
159.901
 20
41.0104
 30
0.0
 11
159.901
 21
41.1551
 31
0.0
  0
LINE
  8
0
 62
     0
 10
159.901
 20
41.1551
 30
0.0
 11
159.901
 21
41.3011
 31
0.0
  0
LINE
  8
0
 62
     0
 10
159.901
 20
41.3011
 30
0.0
 11
160.14
 21
41.7354
 31
0.0
  0
LINE
  8
0
 62
     0
 10
160.14
 20
41.7354
 30
0.0
 11
160.575
 21
41.9749
 31
0.0
  0
LINE
  8
0
 62
     0
 10
160.575
 20
41.9749
 30
0.0
 11
160.721
 21
41.9749
 31
0.0
  0
LINE
  8
0
 62
     0
 10
160.721
 20
41.9749
 30
0.0
 11
160.865
 21
41.9749
 31
0.0
  0
LINE
  8
0
 62
     0
 10
160.865
 20
41.9749
 30
0.0
 11
161.301
 21
41.7354
 31
0.0
  0
LINE
  8
0
 62
     0
 10
161.301
 20
41.7354
 30
0.0
 11
161.542
 21
41.3011
 31
0.0
  0
LINE
  8
0
 62
     0
 10
161.542
 20
41.3011
 30
0.0
 11
161.542
 21
41.1551
 31
0.0
  0
ENDSEC
  0
EOF
