M48
; DRILL file {KiCad (5.1.5)-2} date 11/21/20 23:26:29
; FORMAT={-:-/ absolute / inch / decimal}
; #@! TF.CreationDate,2020-11-21T23:26:29+09:00
; #@! TF.GenerationSoftware,Kicad,Pcbnew,(5.1.5)-2
; #@! TF.FileFunction,NonPlated,1,2,NPTH
FMAT,2
INCH
T1C0.0472
T2C0.0669
T3C0.0709
T4C0.0866
T5C0.1200
T6C0.1570
%
G90
G05
T1
X5.8996Y-3.8835
X5.8996Y-3.9524
X6.1752Y-3.8835
X6.1752Y-3.9524
T2
X3.1181Y-4.2271
X3.5512Y-4.2271
X3.1181Y-3.1021
X3.5512Y-3.1021
X1.6181Y-3.2896
X2.0512Y-3.2896
X4.035Y-5.018
X4.1831Y-4.6111
X3.1181Y-2.3521
X3.5512Y-2.3521
X3.8681Y-1.9771
X4.3012Y-1.9771
X0.8681Y-3.6646
X1.3012Y-3.6646
X2.3681Y-3.2896
X2.8012Y-3.2896
X2.3681Y-2.5396
X2.8012Y-2.5396
X1.6181Y-2.5396
X2.0512Y-2.5396
X0.8681Y-2.1646
X1.3012Y-2.1646
X4.785Y-5.2949
X4.9473Y-4.8933
X2.3681Y-1.7896
X2.8012Y-1.7896
X0.8681Y-2.9146
X1.3012Y-2.9146
X1.6181Y-1.7896
X2.0512Y-1.7896
X3.1181Y-1.6021
X3.5512Y-1.6021
X3.8681Y-3.4771
X4.3012Y-3.4771
X1.6181Y-1.0396
X2.0512Y-1.0396
X5.5205Y-5.6732
X5.6827Y-5.2717
X3.8681Y-2.7271
X4.3012Y-2.7271
X2.3681Y-1.0396
X2.8012Y-1.0396
T3
X3.1346Y-1.6021
X3.5346Y-1.6021
X3.8846Y-3.4771
X4.2846Y-3.4771
X1.6346Y-1.0396
X2.0346Y-1.0396
X5.5267Y-5.6579
X5.6765Y-5.287
X3.8846Y-2.7271
X4.2846Y-2.7271
X2.3846Y-1.0396
X2.7846Y-1.0396
X3.1346Y-4.2271
X3.5346Y-4.2271
X3.1346Y-3.1021
X3.5346Y-3.1021
X1.6346Y-3.2896
X2.0346Y-3.2896
X4.0407Y-5.0025
X4.1775Y-4.6266
X3.1346Y-2.3521
X3.5346Y-2.3521
X3.8846Y-1.9771
X4.2846Y-1.9771
X0.8846Y-3.6646
X1.2846Y-3.6646
X2.3846Y-3.2896
X2.7846Y-3.2896
X2.3846Y-2.5396
X2.7846Y-2.5396
X1.6346Y-2.5396
X2.0346Y-2.5396
X0.8846Y-2.1646
X1.2846Y-2.1646
X4.7912Y-5.2795
X4.9411Y-4.9087
X2.3846Y-1.7896
X2.7846Y-1.7896
X0.8846Y-2.9146
X1.2846Y-2.9146
X1.6346Y-1.7896
X2.0346Y-1.7896
T4
X0.8971Y-5.3521
X3.3346Y-5.3521
X5.3034Y-2.0708
X4.3659Y-0.8521
X2.2096Y-2.1646
X6.0534Y-6.1958
X0.8971Y-0.8521
T5
X4.4351Y-5.4269
X4.7872Y-4.5553
X5.1705Y-5.8052
X5.5227Y-4.9336
X3.6899Y-5.1622
X4.0114Y-4.2789
T6
X3.3346Y-1.6021
X4.0846Y-3.4771
X1.8346Y-1.0396
X5.6016Y-5.4724
X5.7268Y-6.03
X6.079Y-5.1584
X4.0846Y-2.7271
X2.5846Y-1.0396
X3.3346Y-4.2271
X3.3346Y-3.1021
X1.8346Y-3.2896
X4.1091Y-4.8146
X4.2537Y-5.3674
X4.5752Y-4.4841
X3.3346Y-2.3521
X4.0846Y-1.9771
X1.0846Y-3.6646
X2.5846Y-3.2896
X2.5846Y-2.5396
X1.8346Y-2.5396
X1.0846Y-2.1646
X4.8661Y-5.0941
X4.9914Y-5.6516
X5.3435Y-4.7801
X2.5846Y-1.7896
X1.0846Y-2.9146
X1.8346Y-1.7896
T0
M30
