  0
SECTION
  2
HEADER
  9
$ACADVER
  1
AC1009
  9
$EXTMIN
 10
0.0
 20
0.0
 30
0.0
  9
$EXTMAX
 10
1000.0
 20
1000.0
 30
0.0
  9
$FILLMODE
 70
 0
  9
$SPLFRAME
 70
 1
  0
ENDSEC
  0
SECTION
  2
TABLES
  0
TABLE
  2
LAYER
 70
1
  0
LAYER
  2
0
 70
     0
 62
     7
  6
CONTINUOUS
  0
ENDTAB
  0
ENDSEC
  0
SECTION
  2
ENTITIES
  0
LINE
  8
0
 62
     0
 10
0.0950846
 20
95.3424
 30
0.0
 11
138.208
 21
95.3424
 31
0.0
  0
LINE
  8
0
 62
     0
 10
138.208
 20
95.3424
 30
0.0
 11
138.208
 21
0.0923286
 31
0.0
  0
LINE
  8
0
 62
     0
 10
138.208
 20
0.0923286
 30
0.0
 11
0.0950846
 21
0.0923286
 31
0.0
  0
LINE
  8
0
 62
     0
 10
0.0950846
 20
0.0923286
 30
0.0
 11
0.0950846
 21
95.3424
 31
0.0
  0
LINE
  8
0
 62
     0
 10
97.8697
 20
16.6178
 30
0.0
 11
97.8697
 21
11.9173
 31
0.0
  0
LINE
  8
0
 62
     0
 10
97.8697
 20
11.9173
 30
0.0
 11
96.3443
 21
11.9173
 31
0.0
  0
LINE
  8
0
 62
     0
 10
96.3443
 20
11.9173
 30
0.0
 11
96.3443
 21
15.1474
 31
0.0
  0
LINE
  8
0
 62
     0
 10
96.3443
 20
15.1474
 30
0.0
 11
89.5946
 21
15.1474
 31
0.0
  0
LINE
  8
0
 62
     0
 10
89.5946
 20
15.1474
 30
0.0
 11
89.5946
 21
11.9173
 31
0.0
  0
LINE
  8
0
 62
     0
 10
89.5946
 20
11.9173
 30
0.0
 11
88.7691
 21
11.9173
 31
0.0
  0
LINE
  8
0
 62
     0
 10
88.7691
 20
11.9173
 30
0.0
 11
88.7691
 21
9.11712
 31
0.0
  0
LINE
  8
0
 62
     0
 10
88.7691
 20
9.11712
 30
0.0
 11
89.5946
 21
9.11712
 31
0.0
  0
LINE
  8
0
 62
     0
 10
89.5946
 20
9.11712
 30
0.0
 11
89.5946
 21
2.84841
 31
0.0
  0
LINE
  8
0
 62
     0
 10
89.5946
 20
2.84841
 30
0.0
 11
91.3197
 21
2.84841
 31
0.0
  0
LINE
  8
0
 62
     0
 10
91.3197
 20
2.84841
 30
0.0
 11
91.3197
 21
1.64814
 31
0.0
  0
LINE
  8
0
 62
     0
 10
91.3197
 20
1.64814
 30
0.0
 11
94.6203
 21
1.64814
 31
0.0
  0
LINE
  8
0
 62
     0
 10
94.6203
 20
1.64814
 30
0.0
 11
94.6203
 21
2.84841
 31
0.0
  0
LINE
  8
0
 62
     0
 10
94.6203
 20
2.84841
 30
0.0
 11
96.3443
 21
2.84841
 31
0.0
  0
LINE
  8
0
 62
     0
 10
96.3443
 20
2.84841
 30
0.0
 11
96.3443
 21
7.31876
 31
0.0
  0
LINE
  8
0
 62
     0
 10
96.3443
 20
7.31876
 30
0.0
 11
97.8697
 21
7.31876
 31
0.0
  0
LINE
  8
0
 62
     0
 10
97.8697
 20
7.31876
 30
0.0
 11
97.8697
 21
2.61827
 31
0.0
  0
LINE
  8
0
 62
     0
 10
97.8697
 20
2.61827
 30
0.0
 11
111.869
 21
2.61827
 31
0.0
  0
LINE
  8
0
 62
     0
 10
111.869
 20
2.61827
 30
0.0
 11
111.869
 21
7.31876
 31
0.0
  0
LINE
  8
0
 62
     0
 10
111.869
 20
7.31876
 30
0.0
 11
113.395
 21
7.31876
 31
0.0
  0
LINE
  8
0
 62
     0
 10
113.395
 20
7.31876
 30
0.0
 11
113.395
 21
2.84841
 31
0.0
  0
LINE
  8
0
 62
     0
 10
113.395
 20
2.84841
 30
0.0
 11
115.12
 21
2.84841
 31
0.0
  0
LINE
  8
0
 62
     0
 10
115.12
 20
2.84841
 30
0.0
 11
115.12
 21
1.64814
 31
0.0
  0
LINE
  8
0
 62
     0
 10
115.12
 20
1.64814
 30
0.0
 11
118.42
 21
1.64814
 31
0.0
  0
LINE
  8
0
 62
     0
 10
118.42
 20
1.64814
 30
0.0
 11
118.42
 21
2.84841
 31
0.0
  0
LINE
  8
0
 62
     0
 10
118.42
 20
2.84841
 30
0.0
 11
120.144
 21
2.84841
 31
0.0
  0
LINE
  8
0
 62
     0
 10
120.144
 20
2.84841
 30
0.0
 11
120.144
 21
9.11712
 31
0.0
  0
LINE
  8
0
 62
     0
 10
120.144
 20
9.11712
 30
0.0
 11
120.97
 21
9.11712
 31
0.0
  0
LINE
  8
0
 62
     0
 10
120.97
 20
9.11712
 30
0.0
 11
120.97
 21
11.9173
 31
0.0
  0
LINE
  8
0
 62
     0
 10
120.97
 20
11.9173
 30
0.0
 11
120.144
 21
11.9173
 31
0.0
  0
LINE
  8
0
 62
     0
 10
120.144
 20
11.9173
 30
0.0
 11
120.144
 21
15.1474
 31
0.0
  0
LINE
  8
0
 62
     0
 10
120.144
 20
15.1474
 30
0.0
 11
113.395
 21
15.1474
 31
0.0
  0
LINE
  8
0
 62
     0
 10
113.395
 20
15.1474
 30
0.0
 11
113.395
 21
11.9173
 31
0.0
  0
LINE
  8
0
 62
     0
 10
113.395
 20
11.9173
 30
0.0
 11
111.869
 21
11.9173
 31
0.0
  0
LINE
  8
0
 62
     0
 10
111.869
 20
11.9173
 30
0.0
 11
111.869
 21
16.6178
 31
0.0
  0
LINE
  8
0
 62
     0
 10
111.869
 20
16.6178
 30
0.0
 11
97.8697
 21
16.6178
 31
0.0
  0
LINE
  8
0
 62
     0
 10
35.9572
 20
16.6178
 30
0.0
 11
49.9565
 21
16.6178
 31
0.0
  0
LINE
  8
0
 62
     0
 10
49.9565
 20
16.6178
 30
0.0
 11
49.9565
 21
2.61827
 31
0.0
  0
LINE
  8
0
 62
     0
 10
49.9565
 20
2.61827
 30
0.0
 11
35.9572
 21
2.61827
 31
0.0
  0
LINE
  8
0
 62
     0
 10
35.9572
 20
2.61827
 30
0.0
 11
35.9572
 21
16.6178
 31
0.0
  0
LINE
  8
0
 62
     0
 10
59.7697
 20
16.6178
 30
0.0
 11
73.769
 21
16.6178
 31
0.0
  0
LINE
  8
0
 62
     0
 10
73.769
 20
16.6178
 30
0.0
 11
73.769
 21
2.61827
 31
0.0
  0
LINE
  8
0
 62
     0
 10
73.769
 20
2.61827
 30
0.0
 11
59.7697
 21
2.61827
 31
0.0
  0
LINE
  8
0
 62
     0
 10
59.7697
 20
2.61827
 30
0.0
 11
59.7697
 21
16.6178
 31
0.0
  0
LINE
  8
0
 62
     0
 10
2.61965
 20
35.6676
 30
0.0
 11
16.6192
 21
35.6676
 31
0.0
  0
LINE
  8
0
 62
     0
 10
16.6192
 20
35.6676
 30
0.0
 11
16.6192
 21
21.6683
 31
0.0
  0
LINE
  8
0
 62
     0
 10
16.6192
 20
21.6683
 30
0.0
 11
2.61965
 21
21.6683
 31
0.0
  0
LINE
  8
0
 62
     0
 10
2.61965
 20
21.6683
 30
0.0
 11
2.61965
 21
35.6676
 31
0.0
  0
LINE
  8
0
 62
     0
 10
31.1947
 20
35.6676
 30
0.0
 11
45.194
 21
35.6676
 31
0.0
  0
LINE
  8
0
 62
     0
 10
45.194
 20
35.6676
 30
0.0
 11
45.194
 21
21.6683
 31
0.0
  0
LINE
  8
0
 62
     0
 10
45.194
 20
21.6683
 30
0.0
 11
31.1947
 21
21.6683
 31
0.0
  0
LINE
  8
0
 62
     0
 10
31.1947
 20
21.6683
 30
0.0
 11
31.1947
 21
35.6676
 31
0.0
  0
LINE
  8
0
 62
     0
 10
59.7697
 20
35.6676
 30
0.0
 11
73.769
 21
35.6676
 31
0.0
  0
LINE
  8
0
 62
     0
 10
73.769
 20
35.6676
 30
0.0
 11
73.769
 21
21.6683
 31
0.0
  0
LINE
  8
0
 62
     0
 10
73.769
 20
21.6683
 30
0.0
 11
59.7697
 21
21.6683
 31
0.0
  0
LINE
  8
0
 62
     0
 10
59.7697
 20
21.6683
 30
0.0
 11
59.7697
 21
35.6676
 31
0.0
  0
LINE
  8
0
 62
     0
 10
78.8197
 20
35.6676
 30
0.0
 11
92.819
 21
35.6676
 31
0.0
  0
LINE
  8
0
 62
     0
 10
92.819
 20
35.6676
 30
0.0
 11
92.819
 21
21.6683
 31
0.0
  0
LINE
  8
0
 62
     0
 10
92.819
 20
21.6683
 30
0.0
 11
78.8197
 21
21.6683
 31
0.0
  0
LINE
  8
0
 62
     0
 10
78.8197
 20
21.6683
 30
0.0
 11
78.8197
 21
35.6676
 31
0.0
  0
LINE
  8
0
 62
     0
 10
97.8697
 20
35.6676
 30
0.0
 11
111.869
 21
35.6676
 31
0.0
  0
LINE
  8
0
 62
     0
 10
111.869
 20
35.6676
 30
0.0
 11
111.869
 21
21.6683
 31
0.0
  0
LINE
  8
0
 62
     0
 10
111.869
 20
21.6683
 30
0.0
 11
97.8697
 21
21.6683
 31
0.0
  0
LINE
  8
0
 62
     0
 10
97.8697
 20
21.6683
 30
0.0
 11
97.8697
 21
35.6676
 31
0.0
  0
LINE
  8
0
 62
     0
 10
116.92
 20
35.6676
 30
0.0
 11
130.919
 21
35.6676
 31
0.0
  0
LINE
  8
0
 62
     0
 10
130.919
 20
35.6676
 30
0.0
 11
130.919
 21
21.6683
 31
0.0
  0
LINE
  8
0
 62
     0
 10
130.919
 20
21.6683
 30
0.0
 11
116.92
 21
21.6683
 31
0.0
  0
LINE
  8
0
 62
     0
 10
116.92
 20
21.6683
 30
0.0
 11
116.92
 21
35.6676
 31
0.0
  0
LINE
  8
0
 62
     0
 10
12.1447
 20
54.7176
 30
0.0
 11
26.1441
 21
54.7176
 31
0.0
  0
LINE
  8
0
 62
     0
 10
26.1441
 20
54.7176
 30
0.0
 11
26.1441
 21
40.7183
 31
0.0
  0
LINE
  8
0
 62
     0
 10
26.1441
 20
40.7183
 30
0.0
 11
12.1447
 21
40.7183
 31
0.0
  0
LINE
  8
0
 62
     0
 10
12.1447
 20
40.7183
 30
0.0
 11
12.1447
 21
54.7176
 31
0.0
  0
LINE
  8
0
 62
     0
 10
40.7197
 20
54.7176
 30
0.0
 11
54.719
 21
54.7176
 31
0.0
  0
LINE
  8
0
 62
     0
 10
54.719
 20
54.7176
 30
0.0
 11
54.719
 21
40.7183
 31
0.0
  0
LINE
  8
0
 62
     0
 10
54.719
 20
40.7183
 30
0.0
 11
40.7197
 21
40.7183
 31
0.0
  0
LINE
  8
0
 62
     0
 10
40.7197
 20
40.7183
 30
0.0
 11
40.7197
 21
54.7176
 31
0.0
  0
LINE
  8
0
 62
     0
 10
59.7697
 20
54.7176
 30
0.0
 11
73.769
 21
54.7176
 31
0.0
  0
LINE
  8
0
 62
     0
 10
73.769
 20
54.7176
 30
0.0
 11
73.769
 21
40.7183
 31
0.0
  0
LINE
  8
0
 62
     0
 10
73.769
 20
40.7183
 30
0.0
 11
59.7697
 21
40.7183
 31
0.0
  0
LINE
  8
0
 62
     0
 10
59.7697
 20
40.7183
 30
0.0
 11
59.7697
 21
54.7176
 31
0.0
  0
LINE
  8
0
 62
     0
 10
78.8197
 20
54.7176
 30
0.0
 11
92.819
 21
54.7176
 31
0.0
  0
LINE
  8
0
 62
     0
 10
92.819
 20
54.7176
 30
0.0
 11
92.819
 21
40.7183
 31
0.0
  0
LINE
  8
0
 62
     0
 10
92.819
 20
40.7183
 30
0.0
 11
78.8197
 21
40.7183
 31
0.0
  0
LINE
  8
0
 62
     0
 10
78.8197
 20
40.7183
 30
0.0
 11
78.8197
 21
54.7176
 31
0.0
  0
LINE
  8
0
 62
     0
 10
97.8683
 20
54.7176
 30
0.0
 11
111.869
 21
54.7176
 31
0.0
  0
LINE
  8
0
 62
     0
 10
111.869
 20
54.7176
 30
0.0
 11
111.869
 21
40.7183
 31
0.0
  0
LINE
  8
0
 62
     0
 10
111.869
 20
40.7183
 30
0.0
 11
97.8683
 21
40.7183
 31
0.0
  0
LINE
  8
0
 62
     0
 10
97.8683
 20
40.7183
 30
0.0
 11
97.8683
 21
54.7176
 31
0.0
  0
LINE
  8
0
 62
     0
 10
116.918
 20
54.7176
 30
0.0
 11
130.919
 21
54.7176
 31
0.0
  0
LINE
  8
0
 62
     0
 10
130.919
 20
54.7176
 30
0.0
 11
130.919
 21
40.7183
 31
0.0
  0
LINE
  8
0
 62
     0
 10
130.919
 20
40.7183
 30
0.0
 11
116.918
 21
40.7183
 31
0.0
  0
LINE
  8
0
 62
     0
 10
116.918
 20
40.7183
 30
0.0
 11
116.918
 21
54.7176
 31
0.0
  0
LINE
  8
0
 62
     0
 10
2.61965
 20
73.7676
 30
0.0
 11
16.6192
 21
73.7676
 31
0.0
  0
LINE
  8
0
 62
     0
 10
16.6192
 20
73.7676
 30
0.0
 11
16.6192
 21
59.7683
 31
0.0
  0
LINE
  8
0
 62
     0
 10
16.6192
 20
59.7683
 30
0.0
 11
2.61965
 21
59.7683
 31
0.0
  0
LINE
  8
0
 62
     0
 10
2.61965
 20
59.7683
 30
0.0
 11
2.61965
 21
73.7676
 31
0.0
  0
LINE
  8
0
 62
     0
 10
21.6697
 20
73.7676
 30
0.0
 11
35.669
 21
73.7676
 31
0.0
  0
LINE
  8
0
 62
     0
 10
35.669
 20
73.7676
 30
0.0
 11
35.669
 21
59.7683
 31
0.0
  0
LINE
  8
0
 62
     0
 10
35.669
 20
59.7683
 30
0.0
 11
21.6697
 21
59.7683
 31
0.0
  0
LINE
  8
0
 62
     0
 10
21.6697
 20
59.7683
 30
0.0
 11
21.6697
 21
73.7676
 31
0.0
  0
LINE
  8
0
 62
     0
 10
40.7197
 20
73.7676
 30
0.0
 11
54.719
 21
73.7676
 31
0.0
  0
LINE
  8
0
 62
     0
 10
54.719
 20
73.7676
 30
0.0
 11
54.719
 21
59.7683
 31
0.0
  0
LINE
  8
0
 62
     0
 10
54.719
 20
59.7683
 30
0.0
 11
40.7197
 21
59.7683
 31
0.0
  0
LINE
  8
0
 62
     0
 10
40.7197
 20
59.7683
 30
0.0
 11
40.7197
 21
73.7676
 31
0.0
  0
LINE
  8
0
 62
     0
 10
59.7697
 20
73.7676
 30
0.0
 11
73.769
 21
73.7676
 31
0.0
  0
LINE
  8
0
 62
     0
 10
73.769
 20
73.7676
 30
0.0
 11
73.769
 21
59.7683
 31
0.0
  0
LINE
  8
0
 62
     0
 10
73.769
 20
59.7683
 30
0.0
 11
59.7697
 21
59.7683
 31
0.0
  0
LINE
  8
0
 62
     0
 10
59.7697
 20
59.7683
 30
0.0
 11
59.7697
 21
73.7676
 31
0.0
  0
LINE
  8
0
 62
     0
 10
78.8197
 20
73.7676
 30
0.0
 11
92.819
 21
73.7676
 31
0.0
  0
LINE
  8
0
 62
     0
 10
92.819
 20
73.7676
 30
0.0
 11
92.819
 21
59.7683
 31
0.0
  0
LINE
  8
0
 62
     0
 10
92.819
 20
59.7683
 30
0.0
 11
78.8197
 21
59.7683
 31
0.0
  0
LINE
  8
0
 62
     0
 10
78.8197
 20
59.7683
 30
0.0
 11
78.8197
 21
73.7676
 31
0.0
  0
LINE
  8
0
 62
     0
 10
97.8683
 20
73.7676
 30
0.0
 11
111.869
 21
73.7676
 31
0.0
  0
LINE
  8
0
 62
     0
 10
111.869
 20
73.7676
 30
0.0
 11
111.869
 21
59.7683
 31
0.0
  0
LINE
  8
0
 62
     0
 10
111.869
 20
59.7683
 30
0.0
 11
97.8683
 21
59.7683
 31
0.0
  0
LINE
  8
0
 62
     0
 10
97.8683
 20
59.7683
 30
0.0
 11
97.8683
 21
73.7676
 31
0.0
  0
LINE
  8
0
 62
     0
 10
116.918
 20
73.7676
 30
0.0
 11
130.919
 21
73.7676
 31
0.0
  0
LINE
  8
0
 62
     0
 10
130.919
 20
73.7676
 30
0.0
 11
130.919
 21
59.7683
 31
0.0
  0
LINE
  8
0
 62
     0
 10
130.919
 20
59.7683
 30
0.0
 11
116.918
 21
59.7683
 31
0.0
  0
LINE
  8
0
 62
     0
 10
116.918
 20
59.7683
 30
0.0
 11
116.918
 21
73.7676
 31
0.0
  0
LINE
  8
0
 62
     0
 10
2.61965
 20
92.8176
 30
0.0
 11
16.6192
 21
92.8176
 31
0.0
  0
LINE
  8
0
 62
     0
 10
16.6192
 20
92.8176
 30
0.0
 11
16.6192
 21
78.8183
 31
0.0
  0
LINE
  8
0
 62
     0
 10
16.6192
 20
78.8183
 30
0.0
 11
2.61965
 21
78.8183
 31
0.0
  0
LINE
  8
0
 62
     0
 10
2.61965
 20
78.8183
 30
0.0
 11
2.61965
 21
92.8176
 31
0.0
  0
LINE
  8
0
 62
     0
 10
21.6697
 20
92.8176
 30
0.0
 11
35.669
 21
92.8176
 31
0.0
  0
LINE
  8
0
 62
     0
 10
35.669
 20
92.8176
 30
0.0
 11
35.669
 21
78.8183
 31
0.0
  0
LINE
  8
0
 62
     0
 10
35.669
 20
78.8183
 30
0.0
 11
21.6697
 21
78.8183
 31
0.0
  0
LINE
  8
0
 62
     0
 10
21.6697
 20
78.8183
 30
0.0
 11
21.6697
 21
92.8176
 31
0.0
  0
LINE
  8
0
 62
     0
 10
40.7197
 20
92.8176
 30
0.0
 11
54.719
 21
92.8176
 31
0.0
  0
LINE
  8
0
 62
     0
 10
54.719
 20
92.8176
 30
0.0
 11
54.719
 21
78.8183
 31
0.0
  0
LINE
  8
0
 62
     0
 10
54.719
 20
78.8183
 30
0.0
 11
40.7197
 21
78.8183
 31
0.0
  0
LINE
  8
0
 62
     0
 10
40.7197
 20
78.8183
 30
0.0
 11
40.7197
 21
92.8176
 31
0.0
  0
LINE
  8
0
 62
     0
 10
59.7697
 20
92.8176
 30
0.0
 11
73.769
 21
92.8176
 31
0.0
  0
LINE
  8
0
 62
     0
 10
73.769
 20
92.8176
 30
0.0
 11
73.769
 21
78.8183
 31
0.0
  0
LINE
  8
0
 62
     0
 10
73.769
 20
78.8183
 30
0.0
 11
59.7697
 21
78.8183
 31
0.0
  0
LINE
  8
0
 62
     0
 10
59.7697
 20
78.8183
 30
0.0
 11
59.7697
 21
92.8176
 31
0.0
  0
LINE
  8
0
 62
     0
 10
78.8197
 20
92.8176
 30
0.0
 11
92.819
 21
92.8176
 31
0.0
  0
LINE
  8
0
 62
     0
 10
92.819
 20
92.8176
 30
0.0
 11
92.819
 21
78.8183
 31
0.0
  0
LINE
  8
0
 62
     0
 10
92.819
 20
78.8183
 30
0.0
 11
78.8197
 21
78.8183
 31
0.0
  0
LINE
  8
0
 62
     0
 10
78.8197
 20
78.8183
 30
0.0
 11
78.8197
 21
92.8176
 31
0.0
  0
LINE
  8
0
 62
     0
 10
97.8683
 20
92.8176
 30
0.0
 11
111.869
 21
92.8176
 31
0.0
  0
LINE
  8
0
 62
     0
 10
111.869
 20
92.8176
 30
0.0
 11
111.869
 21
78.8183
 31
0.0
  0
LINE
  8
0
 62
     0
 10
111.869
 20
78.8183
 30
0.0
 11
97.8683
 21
78.8183
 31
0.0
  0
LINE
  8
0
 62
     0
 10
97.8683
 20
78.8183
 30
0.0
 11
97.8683
 21
92.8176
 31
0.0
  0
LINE
  8
0
 62
     0
 10
116.918
 20
92.8176
 30
0.0
 11
130.919
 21
92.8176
 31
0.0
  0
LINE
  8
0
 62
     0
 10
130.919
 20
92.8176
 30
0.0
 11
130.919
 21
78.8183
 31
0.0
  0
LINE
  8
0
 62
     0
 10
130.919
 20
78.8183
 30
0.0
 11
116.918
 21
78.8183
 31
0.0
  0
LINE
  8
0
 62
     0
 10
116.918
 20
78.8183
 30
0.0
 11
116.918
 21
92.8176
 31
0.0
  0
ENDSEC
  0
EOF
